<?xml version="1.0" encoding="utf-8" standalone="no"?>
<!DOCTYPE svg PUBLIC "-//W3C//DTD SVG 1.1//EN"
  "http://www.w3.org/Graphics/SVG/1.1/DTD/svg11.dtd">
<!-- Created with matplotlib (https://matplotlib.org/) -->
<svg height="288pt" version="1.1" viewBox="0 0 432 288" width="432pt" xmlns="http://www.w3.org/2000/svg" xmlns:xlink="http://www.w3.org/1999/xlink">
 <metadata>
  <rdf:RDF xmlns:cc="http://creativecommons.org/ns#" xmlns:dc="http://purl.org/dc/elements/1.1/" xmlns:rdf="http://www.w3.org/1999/02/22-rdf-syntax-ns#">
   <cc:Work>
    <dc:type rdf:resource="http://purl.org/dc/dcmitype/StillImage"/>
    <dc:date>2021-11-23T18:23:17.010719</dc:date>
    <dc:format>image/svg+xml</dc:format>
    <dc:creator>
     <cc:Agent>
      <dc:title>Matplotlib v3.3.4, https://matplotlib.org/</dc:title>
     </cc:Agent>
    </dc:creator>
   </cc:Work>
  </rdf:RDF>
 </metadata>
 <defs>
  <style type="text/css">*{stroke-linecap:butt;stroke-linejoin:round;}</style>
 </defs>
 <g id="figure_1">
  <g id="patch_1">
   <path d="M 0 288 
L 432 288 
L 432 0 
L 0 0 
z
" style="fill:none;"/>
  </g>
  <g id="axes_1">
   <g id="patch_2">
    <path d="M 54 252 
L 388.8 252 
L 388.8 34.56 
L 54 34.56 
z
" style="fill:#ffffff;"/>
   </g>
   <g id="matplotlib.axis_1">
    <g id="xtick_1">
     <g id="line2d_1">
      <defs>
       <path d="M 0 0 
L 0 3.5 
" id="m34dd06fe5b" style="stroke:#000000;stroke-width:0.8;"/>
      </defs>
      <g>
       <use style="stroke:#000000;stroke-width:0.8;" x="54" xlink:href="#m34dd06fe5b" y="252"/>
      </g>
     </g>
     <g id="text_1">
      <!-- −10.0 -->
      <g transform="translate(38.677344 266.598437)scale(0.1 -0.1)">
       <defs>
        <path d="M 10.59375 35.5 
L 73.1875 35.5 
L 73.1875 27.203125 
L 10.59375 27.203125 
z
" id="DejaVuSans-8722"/>
        <path d="M 12.40625 8.296875 
L 28.515625 8.296875 
L 28.515625 63.921875 
L 10.984375 60.40625 
L 10.984375 69.390625 
L 28.421875 72.90625 
L 38.28125 72.90625 
L 38.28125 8.296875 
L 54.390625 8.296875 
L 54.390625 0 
L 12.40625 0 
z
" id="DejaVuSans-49"/>
        <path d="M 31.78125 66.40625 
Q 24.171875 66.40625 20.328125 58.90625 
Q 16.5 51.421875 16.5 36.375 
Q 16.5 21.390625 20.328125 13.890625 
Q 24.171875 6.390625 31.78125 6.390625 
Q 39.453125 6.390625 43.28125 13.890625 
Q 47.125 21.390625 47.125 36.375 
Q 47.125 51.421875 43.28125 58.90625 
Q 39.453125 66.40625 31.78125 66.40625 
z
M 31.78125 74.21875 
Q 44.046875 74.21875 50.515625 64.515625 
Q 56.984375 54.828125 56.984375 36.375 
Q 56.984375 17.96875 50.515625 8.265625 
Q 44.046875 -1.421875 31.78125 -1.421875 
Q 19.53125 -1.421875 13.0625 8.265625 
Q 6.59375 17.96875 6.59375 36.375 
Q 6.59375 54.828125 13.0625 64.515625 
Q 19.53125 74.21875 31.78125 74.21875 
z
" id="DejaVuSans-48"/>
        <path d="M 10.6875 12.40625 
L 21 12.40625 
L 21 0 
L 10.6875 0 
z
" id="DejaVuSans-46"/>
       </defs>
       <use xlink:href="#DejaVuSans-8722"/>
       <use x="83.789062" xlink:href="#DejaVuSans-49"/>
       <use x="147.412109" xlink:href="#DejaVuSans-48"/>
       <use x="211.035156" xlink:href="#DejaVuSans-46"/>
       <use x="242.822266" xlink:href="#DejaVuSans-48"/>
      </g>
     </g>
    </g>
    <g id="xtick_2">
     <g id="line2d_2">
      <g>
       <use style="stroke:#000000;stroke-width:0.8;" x="95.85" xlink:href="#m34dd06fe5b" y="252"/>
      </g>
     </g>
     <g id="text_2">
      <!-- −7.5 -->
      <g transform="translate(83.708594 266.598437)scale(0.1 -0.1)">
       <defs>
        <path d="M 8.203125 72.90625 
L 55.078125 72.90625 
L 55.078125 68.703125 
L 28.609375 0 
L 18.3125 0 
L 43.21875 64.59375 
L 8.203125 64.59375 
z
" id="DejaVuSans-55"/>
        <path d="M 10.796875 72.90625 
L 49.515625 72.90625 
L 49.515625 64.59375 
L 19.828125 64.59375 
L 19.828125 46.734375 
Q 21.96875 47.46875 24.109375 47.828125 
Q 26.265625 48.1875 28.421875 48.1875 
Q 40.625 48.1875 47.75 41.5 
Q 54.890625 34.8125 54.890625 23.390625 
Q 54.890625 11.625 47.5625 5.09375 
Q 40.234375 -1.421875 26.90625 -1.421875 
Q 22.3125 -1.421875 17.546875 -0.640625 
Q 12.796875 0.140625 7.71875 1.703125 
L 7.71875 11.625 
Q 12.109375 9.234375 16.796875 8.0625 
Q 21.484375 6.890625 26.703125 6.890625 
Q 35.15625 6.890625 40.078125 11.328125 
Q 45.015625 15.765625 45.015625 23.390625 
Q 45.015625 31 40.078125 35.4375 
Q 35.15625 39.890625 26.703125 39.890625 
Q 22.75 39.890625 18.8125 39.015625 
Q 14.890625 38.140625 10.796875 36.28125 
z
" id="DejaVuSans-53"/>
       </defs>
       <use xlink:href="#DejaVuSans-8722"/>
       <use x="83.789062" xlink:href="#DejaVuSans-55"/>
       <use x="147.412109" xlink:href="#DejaVuSans-46"/>
       <use x="179.199219" xlink:href="#DejaVuSans-53"/>
      </g>
     </g>
    </g>
    <g id="xtick_3">
     <g id="line2d_3">
      <g>
       <use style="stroke:#000000;stroke-width:0.8;" x="137.7" xlink:href="#m34dd06fe5b" y="252"/>
      </g>
     </g>
     <g id="text_3">
      <!-- −5.0 -->
      <g transform="translate(125.558594 266.598437)scale(0.1 -0.1)">
       <use xlink:href="#DejaVuSans-8722"/>
       <use x="83.789062" xlink:href="#DejaVuSans-53"/>
       <use x="147.412109" xlink:href="#DejaVuSans-46"/>
       <use x="179.199219" xlink:href="#DejaVuSans-48"/>
      </g>
     </g>
    </g>
    <g id="xtick_4">
     <g id="line2d_4">
      <g>
       <use style="stroke:#000000;stroke-width:0.8;" x="179.55" xlink:href="#m34dd06fe5b" y="252"/>
      </g>
     </g>
     <g id="text_4">
      <!-- −2.5 -->
      <g transform="translate(167.408594 266.598437)scale(0.1 -0.1)">
       <defs>
        <path d="M 19.1875 8.296875 
L 53.609375 8.296875 
L 53.609375 0 
L 7.328125 0 
L 7.328125 8.296875 
Q 12.9375 14.109375 22.625 23.890625 
Q 32.328125 33.6875 34.8125 36.53125 
Q 39.546875 41.84375 41.421875 45.53125 
Q 43.3125 49.21875 43.3125 52.78125 
Q 43.3125 58.59375 39.234375 62.25 
Q 35.15625 65.921875 28.609375 65.921875 
Q 23.96875 65.921875 18.8125 64.3125 
Q 13.671875 62.703125 7.8125 59.421875 
L 7.8125 69.390625 
Q 13.765625 71.78125 18.9375 73 
Q 24.125 74.21875 28.421875 74.21875 
Q 39.75 74.21875 46.484375 68.546875 
Q 53.21875 62.890625 53.21875 53.421875 
Q 53.21875 48.921875 51.53125 44.890625 
Q 49.859375 40.875 45.40625 35.40625 
Q 44.1875 33.984375 37.640625 27.21875 
Q 31.109375 20.453125 19.1875 8.296875 
z
" id="DejaVuSans-50"/>
       </defs>
       <use xlink:href="#DejaVuSans-8722"/>
       <use x="83.789062" xlink:href="#DejaVuSans-50"/>
       <use x="147.412109" xlink:href="#DejaVuSans-46"/>
       <use x="179.199219" xlink:href="#DejaVuSans-53"/>
      </g>
     </g>
    </g>
    <g id="xtick_5">
     <g id="line2d_5">
      <g>
       <use style="stroke:#000000;stroke-width:0.8;" x="221.4" xlink:href="#m34dd06fe5b" y="252"/>
      </g>
     </g>
     <g id="text_5">
      <!-- 0.0 -->
      <g transform="translate(213.448438 266.598437)scale(0.1 -0.1)">
       <use xlink:href="#DejaVuSans-48"/>
       <use x="63.623047" xlink:href="#DejaVuSans-46"/>
       <use x="95.410156" xlink:href="#DejaVuSans-48"/>
      </g>
     </g>
    </g>
    <g id="xtick_6">
     <g id="line2d_6">
      <g>
       <use style="stroke:#000000;stroke-width:0.8;" x="263.25" xlink:href="#m34dd06fe5b" y="252"/>
      </g>
     </g>
     <g id="text_6">
      <!-- 2.5 -->
      <g transform="translate(255.298438 266.598437)scale(0.1 -0.1)">
       <use xlink:href="#DejaVuSans-50"/>
       <use x="63.623047" xlink:href="#DejaVuSans-46"/>
       <use x="95.410156" xlink:href="#DejaVuSans-53"/>
      </g>
     </g>
    </g>
    <g id="xtick_7">
     <g id="line2d_7">
      <g>
       <use style="stroke:#000000;stroke-width:0.8;" x="305.1" xlink:href="#m34dd06fe5b" y="252"/>
      </g>
     </g>
     <g id="text_7">
      <!-- 5.0 -->
      <g transform="translate(297.148438 266.598437)scale(0.1 -0.1)">
       <use xlink:href="#DejaVuSans-53"/>
       <use x="63.623047" xlink:href="#DejaVuSans-46"/>
       <use x="95.410156" xlink:href="#DejaVuSans-48"/>
      </g>
     </g>
    </g>
    <g id="xtick_8">
     <g id="line2d_8">
      <g>
       <use style="stroke:#000000;stroke-width:0.8;" x="346.95" xlink:href="#m34dd06fe5b" y="252"/>
      </g>
     </g>
     <g id="text_8">
      <!-- 7.5 -->
      <g transform="translate(338.998438 266.598437)scale(0.1 -0.1)">
       <use xlink:href="#DejaVuSans-55"/>
       <use x="63.623047" xlink:href="#DejaVuSans-46"/>
       <use x="95.410156" xlink:href="#DejaVuSans-53"/>
      </g>
     </g>
    </g>
    <g id="xtick_9">
     <g id="line2d_9">
      <g>
       <use style="stroke:#000000;stroke-width:0.8;" x="388.8" xlink:href="#m34dd06fe5b" y="252"/>
      </g>
     </g>
     <g id="text_9">
      <!-- 10.0 -->
      <g transform="translate(377.667188 266.598437)scale(0.1 -0.1)">
       <use xlink:href="#DejaVuSans-49"/>
       <use x="63.623047" xlink:href="#DejaVuSans-48"/>
       <use x="127.246094" xlink:href="#DejaVuSans-46"/>
       <use x="159.033203" xlink:href="#DejaVuSans-48"/>
      </g>
     </g>
    </g>
    <g id="text_10">
     <!-- x -->
     <g transform="translate(218.440625 280.276563)scale(0.1 -0.1)">
      <defs>
       <path d="M 54.890625 54.6875 
L 35.109375 28.078125 
L 55.90625 0 
L 45.3125 0 
L 29.390625 21.484375 
L 13.484375 0 
L 2.875 0 
L 24.125 28.609375 
L 4.6875 54.6875 
L 15.28125 54.6875 
L 29.78125 35.203125 
L 44.28125 54.6875 
z
" id="DejaVuSans-120"/>
      </defs>
      <use xlink:href="#DejaVuSans-120"/>
     </g>
    </g>
   </g>
   <g id="matplotlib.axis_2">
    <g id="ytick_1">
     <g id="line2d_10">
      <defs>
       <path d="M 0 0 
L -3.5 0 
" id="m66c647f3f1" style="stroke:#000000;stroke-width:0.8;"/>
      </defs>
      <g>
       <use style="stroke:#000000;stroke-width:0.8;" x="54" xlink:href="#m66c647f3f1" y="234.215101"/>
      </g>
     </g>
     <g id="text_11">
      <!-- −1.0 -->
      <g transform="translate(22.717187 238.014319)scale(0.1 -0.1)">
       <use xlink:href="#DejaVuSans-8722"/>
       <use x="83.789062" xlink:href="#DejaVuSans-49"/>
       <use x="147.412109" xlink:href="#DejaVuSans-46"/>
       <use x="179.199219" xlink:href="#DejaVuSans-48"/>
      </g>
     </g>
    </g>
    <g id="ytick_2">
     <g id="line2d_11">
      <g>
       <use style="stroke:#000000;stroke-width:0.8;" x="54" xlink:href="#m66c647f3f1" y="194.930193"/>
      </g>
     </g>
     <g id="text_12">
      <!-- −0.5 -->
      <g transform="translate(22.717187 198.729412)scale(0.1 -0.1)">
       <use xlink:href="#DejaVuSans-8722"/>
       <use x="83.789062" xlink:href="#DejaVuSans-48"/>
       <use x="147.412109" xlink:href="#DejaVuSans-46"/>
       <use x="179.199219" xlink:href="#DejaVuSans-53"/>
      </g>
     </g>
    </g>
    <g id="ytick_3">
     <g id="line2d_12">
      <g>
       <use style="stroke:#000000;stroke-width:0.8;" x="54" xlink:href="#m66c647f3f1" y="155.645286"/>
      </g>
     </g>
     <g id="text_13">
      <!-- 0.0 -->
      <g transform="translate(31.096875 159.444505)scale(0.1 -0.1)">
       <use xlink:href="#DejaVuSans-48"/>
       <use x="63.623047" xlink:href="#DejaVuSans-46"/>
       <use x="95.410156" xlink:href="#DejaVuSans-48"/>
      </g>
     </g>
    </g>
    <g id="ytick_4">
     <g id="line2d_13">
      <g>
       <use style="stroke:#000000;stroke-width:0.8;" x="54" xlink:href="#m66c647f3f1" y="116.360379"/>
      </g>
     </g>
     <g id="text_14">
      <!-- 0.5 -->
      <g transform="translate(31.096875 120.159597)scale(0.1 -0.1)">
       <use xlink:href="#DejaVuSans-48"/>
       <use x="63.623047" xlink:href="#DejaVuSans-46"/>
       <use x="95.410156" xlink:href="#DejaVuSans-53"/>
      </g>
     </g>
    </g>
    <g id="ytick_5">
     <g id="line2d_14">
      <g>
       <use style="stroke:#000000;stroke-width:0.8;" x="54" xlink:href="#m66c647f3f1" y="77.075471"/>
      </g>
     </g>
     <g id="text_15">
      <!-- 1.0 -->
      <g transform="translate(31.096875 80.87469)scale(0.1 -0.1)">
       <use xlink:href="#DejaVuSans-49"/>
       <use x="63.623047" xlink:href="#DejaVuSans-46"/>
       <use x="95.410156" xlink:href="#DejaVuSans-48"/>
      </g>
     </g>
    </g>
    <g id="ytick_6">
     <g id="line2d_15">
      <g>
       <use style="stroke:#000000;stroke-width:0.8;" x="54" xlink:href="#m66c647f3f1" y="37.790564"/>
      </g>
     </g>
     <g id="text_16">
      <!-- 1.5 -->
      <g transform="translate(31.096875 41.589783)scale(0.1 -0.1)">
       <use xlink:href="#DejaVuSans-49"/>
       <use x="63.623047" xlink:href="#DejaVuSans-46"/>
       <use x="95.410156" xlink:href="#DejaVuSans-53"/>
      </g>
     </g>
    </g>
    <g id="text_17">
     <!-- 1e−1 -->
     <g transform="translate(54 31.56)scale(0.1 -0.1)">
      <defs>
       <path d="M 56.203125 29.59375 
L 56.203125 25.203125 
L 14.890625 25.203125 
Q 15.484375 15.921875 20.484375 11.0625 
Q 25.484375 6.203125 34.421875 6.203125 
Q 39.59375 6.203125 44.453125 7.46875 
Q 49.3125 8.734375 54.109375 11.28125 
L 54.109375 2.78125 
Q 49.265625 0.734375 44.1875 -0.34375 
Q 39.109375 -1.421875 33.890625 -1.421875 
Q 20.796875 -1.421875 13.15625 6.1875 
Q 5.515625 13.8125 5.515625 26.8125 
Q 5.515625 40.234375 12.765625 48.109375 
Q 20.015625 56 32.328125 56 
Q 43.359375 56 49.78125 48.890625 
Q 56.203125 41.796875 56.203125 29.59375 
z
M 47.21875 32.234375 
Q 47.125 39.59375 43.09375 43.984375 
Q 39.0625 48.390625 32.421875 48.390625 
Q 24.90625 48.390625 20.390625 44.140625 
Q 15.875 39.890625 15.1875 32.171875 
z
" id="DejaVuSans-101"/>
      </defs>
      <use xlink:href="#DejaVuSans-49"/>
      <use x="63.623047" xlink:href="#DejaVuSans-101"/>
      <use x="125.146484" xlink:href="#DejaVuSans-8722"/>
      <use x="208.935547" xlink:href="#DejaVuSans-49"/>
     </g>
    </g>
   </g>
   <g id="line2d_16">
    <path clip-path="url(#p8d0ba8aac4)" d="M -1 155.615723 
L 3.78 155.473395 
L 7.128 155.09914 
L 8.802 154.702222 
L 10.476 154.052446 
L 12.15 153.01589 
L 13.824 151.406852 
L 15.498 148.980543 
L 17.172 145.433732 
L 18.846 140.420298 
L 20.52 133.590161 
L 22.194 124.659851 
L 23.868 113.519547 
L 25.542 100.373059 
L 28.89 71.355854 
L 30.564 58.69617 
L 32.238 50.416287 
L 33.912 49.278946 
L 35.586 57.754588 
L 37.26 77.26016 
L 38.934 107.330182 
L 43.956 218.287961 
L 45.63 238.206772 
L 47.304 238.1229 
L 48.978 216.33286 
L 50.652 177.31506 
L 52.326 131.701492 
L 54 93.861902 
L 55.674 77.323752 
L 57.348 89.347594 
L 59.022 126.854685 
L 60.696 175.989616 
L 62.37 216.515311 
L 64.044 230.119643 
L 65.718 209.378163 
L 67.392 162.851549 
L 69.066 112.733506 
L 70.74 84.786959 
L 72.414 94.73376 
L 74.088 138.344916 
L 75.762 191.823791 
L 77.436 224.034185 
L 79.11 214.85726 
L 80.784 168.834132 
L 82.458 114.381008 
L 84.132 86.992148 
L 85.806 105.76401 
L 89.154 209.726488 
L 90.828 221.590031 
L 92.502 184.893431 
L 94.176 126.205849 
L 95.85 90.1035 
L 97.524 105.27293 
L 99.198 160.598006 
L 100.872 211.902087 
L 102.546 216.716893 
L 104.22 170.190255 
L 105.894 111.230924 
L 107.568 90.853299 
L 109.242 127.646588 
L 110.916 189.52324 
L 112.59 220.598862 
L 114.264 191.769347 
L 115.938 129.157467 
L 117.612 91.652763 
L 119.286 115.604954 
L 120.96 178.50342 
L 122.634 218.89174 
L 124.308 196.243822 
L 125.982 132.657301 
L 127.656 92.515677 
L 129.33 117.471803 
L 131.004 182.215242 
L 132.678 218.975836 
L 134.352 188.360563 
L 136.026 122.596777 
L 137.7 92.679919 
L 139.374 131.696046 
L 141.048 197.168329 
L 142.722 216.368319 
L 144.396 167.323144 
L 146.07 105.044899 
L 147.744 100.566272 
L 149.418 159.493295 
L 151.092 213.957104 
L 152.766 200.290781 
L 154.44 134.091166 
L 156.114 93.428359 
L 157.788 126.970206 
L 159.462 194.93294 
L 161.136 215.441053 
L 162.81 163.286777 
L 164.484 101.792489 
L 166.158 106.492778 
L 167.832 171.939483 
L 169.506 217.142666 
L 171.18 185.555535 
L 172.854 116.437735 
L 174.528 96.747961 
L 176.202 151.644359 
L 177.876 211.629441 
L 179.55 200.112898 
L 181.224 131.576594 
L 182.898 94.020939 
L 184.572 136.076315 
L 186.246 203.50044 
L 187.92 208.680507 
L 189.594 144.66148 
L 191.268 95.016699 
L 192.942 124.939438 
L 194.616 195.267272 
L 196.29 213.326724 
L 199.638 97.606257 
L 201.312 117.165775 
L 202.986 187.917518 
L 204.66 215.660828 
L 206.334 163.296821 
L 208.008 100.705189 
L 209.682 111.644076 
L 211.356 181.539134 
L 213.03 216.70598 
L 214.704 169.912509 
L 216.378 103.955644 
L 218.052 107.463261 
L 219.726 175.745648 
L 221.4 216.999556 
L 223.074 175.745701 
L 224.748 107.463296 
L 226.422 103.955614 
L 228.096 169.912454 
L 229.77 216.705974 
L 231.444 181.539185 
L 233.118 111.644115 
L 234.792 100.705164 
L 236.466 163.296765 
L 238.14 215.660816 
L 239.814 187.917566 
L 241.488 117.165819 
L 243.162 97.606238 
L 246.51 213.326704 
L 248.184 195.267316 
L 249.858 124.939487 
L 251.532 95.016689 
L 253.206 144.661424 
L 254.88 208.680478 
L 256.554 203.500475 
L 258.228 136.076369 
L 259.902 94.020941 
L 261.576 131.576542 
L 263.25 200.112859 
L 264.924 211.629465 
L 266.598 151.644416 
L 268.272 96.747978 
L 269.946 116.437692 
L 271.62 185.555485 
L 273.294 217.142673 
L 274.968 171.939537 
L 276.642 106.492813 
L 278.316 101.79246 
L 279.99 163.286721 
L 281.664 215.441037 
L 283.338 194.932984 
L 285.012 126.970256 
L 286.686 93.428355 
L 288.36 134.091112 
L 290.034 200.290741 
L 291.708 213.957124 
L 293.382 159.493352 
L 295.056 100.566299 
L 296.73 105.044865 
L 298.404 167.323087 
L 300.078 216.368304 
L 301.752 197.168373 
L 303.426 131.696099 
L 305.1 92.679924 
L 306.774 122.596728 
L 308.448 188.360513 
L 310.122 218.97584 
L 311.796 182.215295 
L 313.47 117.47185 
L 315.144 92.515669 
L 316.818 132.657246 
L 318.492 196.243777 
L 320.166 218.891749 
L 321.84 178.503475 
L 323.514 115.605001 
L 325.188 91.652756 
L 326.862 129.157412 
L 328.536 191.769297 
L 330.21 220.598864 
L 331.884 189.523291 
L 333.558 127.646642 
L 335.232 90.853307 
L 336.906 111.230879 
L 338.58 170.190196 
L 340.254 216.716869 
L 341.928 211.9021 
L 343.602 160.598045 
L 345.276 105.272962 
L 346.95 90.103485 
L 348.624 126.205798 
L 350.298 184.893392 
L 351.972 221.590034 
L 353.646 209.72653 
L 356.994 105.764055 
L 358.668 86.992155 
L 360.342 114.380972 
L 362.016 168.834077 
L 363.69 214.857224 
L 365.364 224.034191 
L 367.038 191.823794 
L 368.712 138.344914 
L 370.386 94.733754 
L 372.06 84.786934 
L 373.734 112.733475 
L 375.408 162.851541 
L 377.082 209.378183 
L 378.756 230.11968 
L 380.43 216.515394 
L 382.104 175.989708 
L 383.778 126.854741 
L 385.452 89.347582 
L 387.126 77.323698 
L 388.8 93.8618 
L 390.474 131.701379 
L 392.148 177.314979 
L 393.822 216.332842 
L 395.496 238.122932 
L 397.17 238.206896 
L 398.844 218.288147 
L 400.518 184.514279 
L 403.866 107.33029 
L 405.54 77.260184 
L 407.214 57.754524 
L 408.888 49.278862 
L 410.562 50.41619 
L 412.236 58.696099 
L 413.91 71.355783 
L 417.258 100.373011 
L 418.932 113.51952 
L 420.606 124.659844 
L 422.28 133.590155 
L 423.954 140.420292 
L 425.628 145.433729 
L 427.302 148.98054 
L 428.976 151.406851 
L 430.65 153.015889 
L 432.324 154.052445 
L 433 154.31484 
L 433 154.31484 
" style="fill:none;stroke:#1f77b4;stroke-linecap:square;stroke-width:1.5;"/>
   </g>
   <g id="line2d_17">
    <path clip-path="url(#p8d0ba8aac4)" d="M -1 155.484114 
L 2.106 155.172458 
L 3.78 154.816023 
L 5.454 154.223939 
L 7.128 153.266247 
L 8.802 151.759924 
L 10.476 149.459766 
L 12.15 146.056502 
L 13.824 141.189264 
L 15.498 134.481363 
L 17.172 125.608536 
L 18.846 114.405801 
L 20.52 101.01107 
L 25.542 56.885651 
L 27.216 47.179064 
L 28.89 44.443636 
L 30.564 51.358706 
L 32.238 69.632462 
L 33.912 99.136646 
L 35.586 137.192267 
L 37.26 178.33387 
L 38.934 214.868724 
L 40.608 238.392845 
L 42.282 242.116364 
L 43.956 223.44622 
L 45.63 185.918733 
L 47.304 139.468594 
L 48.978 98.342172 
L 50.652 76.75479 
L 52.326 83.463517 
L 54 117.342485 
L 55.674 166.254076 
L 57.348 210.60762 
L 59.022 231.053515 
L 60.696 217.476008 
L 62.37 175.00291 
L 64.044 123.268968 
L 65.718 87.984367 
L 67.392 87.992664 
L 69.066 124.313943 
L 70.74 177.857628 
L 72.414 218.579905 
L 74.088 222.308239 
L 75.762 185.913548 
L 77.436 130.942311 
L 79.11 91.768324 
L 80.784 94.104841 
L 82.458 137.237394 
L 84.132 192.721509 
L 85.806 222.376223 
L 87.48 204.788236 
L 90.828 101.817752 
L 92.502 92.232147 
L 94.176 130.987675 
L 95.85 188.753488 
L 97.524 220.268513 
L 99.198 199.930308 
L 100.872 143.606729 
L 102.546 97.373491 
L 104.22 100.116258 
L 105.894 150.081035 
L 107.568 204.721655 
L 109.242 216.335989 
L 110.916 174.182245 
L 112.59 115.504993 
L 114.264 93.403305 
L 115.938 128.531975 
L 117.612 188.779101 
L 119.286 217.752197 
L 120.96 187.652396 
L 122.634 126.883051 
L 124.308 94.146316 
L 125.982 121.739904 
L 127.656 182.824035 
L 129.33 216.638913 
L 131.004 188.906666 
L 132.678 127.40257 
L 134.352 94.987183 
L 136.026 125.378703 
L 137.7 187.278419 
L 139.374 215.814908 
L 141.048 180.566159 
L 142.722 118.783962 
L 144.396 96.729886 
L 146.07 138.487608 
L 147.744 198.876838 
L 149.418 211.740092 
L 151.092 162.646189 
L 152.766 105.849186 
L 154.44 104.795686 
L 156.114 160.912191 
L 157.788 210.993921 
L 159.462 198.084375 
L 161.136 136.690606 
L 162.81 97.151115 
L 164.484 125.188222 
L 166.158 188.518537 
L 167.832 213.465441 
L 169.506 170.705485 
L 171.18 110.290636 
L 172.854 103.477943 
L 176.202 210.065445 
L 177.876 196.607401 
L 179.55 134.081117 
L 181.224 97.537986 
L 182.898 131.11311 
L 184.572 194.340738 
L 186.246 210.562376 
L 187.92 159.945445 
L 189.594 104.119164 
L 191.268 111.358189 
L 192.942 172.893684 
L 194.616 213.194234 
L 196.29 182.599348 
L 197.964 118.761255 
L 199.638 100.55409 
L 201.312 150.580054 
L 202.986 206.866628 
L 204.66 199.503506 
L 206.334 137.589616 
L 208.008 98.182276 
L 209.682 130.426945 
L 211.356 194.133674 
L 213.03 209.755977 
L 216.378 103.116452 
L 218.052 114.21385 
L 219.726 177.163876 
L 221.4 213.174479 
L 223.074 177.163876 
L 224.748 114.21385 
L 226.422 103.116452 
L 229.77 209.755977 
L 231.444 194.133674 
L 233.118 130.426945 
L 234.792 98.182276 
L 236.466 137.589616 
L 238.14 199.503506 
L 239.814 206.866628 
L 241.488 150.580054 
L 243.162 100.55409 
L 244.836 118.761255 
L 246.51 182.599348 
L 248.184 213.194234 
L 249.858 172.893684 
L 251.532 111.358189 
L 253.206 104.119164 
L 254.88 159.945445 
L 256.554 210.562376 
L 258.228 194.340738 
L 259.902 131.11311 
L 261.576 97.537986 
L 263.25 134.081117 
L 264.924 196.607401 
L 266.598 210.065445 
L 268.272 158.495008 
L 269.946 103.477943 
L 271.62 110.290636 
L 273.294 170.705485 
L 274.968 213.465441 
L 276.642 188.518537 
L 278.316 125.188222 
L 279.99 97.151115 
L 281.664 136.690606 
L 283.338 198.084375 
L 285.012 210.993921 
L 286.686 160.912191 
L 288.36 104.795686 
L 290.034 105.849186 
L 291.708 162.646189 
L 293.382 211.740092 
L 295.056 198.876838 
L 296.73 138.487608 
L 298.404 96.729886 
L 300.078 118.783962 
L 301.752 180.566159 
L 303.426 215.814908 
L 305.1 187.278419 
L 306.774 125.378703 
L 308.448 94.987183 
L 310.122 127.40257 
L 311.796 188.906666 
L 313.47 216.638913 
L 315.144 182.824035 
L 316.818 121.739904 
L 318.492 94.146316 
L 320.166 126.883051 
L 321.84 187.652396 
L 323.514 217.752197 
L 325.188 188.779101 
L 326.862 128.531975 
L 328.536 93.403305 
L 330.21 115.504993 
L 331.884 174.182245 
L 333.558 216.335989 
L 335.232 204.721655 
L 336.906 150.081035 
L 338.58 100.116258 
L 340.254 97.373491 
L 341.928 143.606729 
L 343.602 199.930308 
L 345.276 220.268513 
L 346.95 188.753488 
L 348.624 130.987675 
L 350.298 92.232147 
L 351.972 101.817752 
L 355.32 204.788236 
L 356.994 222.376223 
L 358.668 192.721509 
L 360.342 137.237394 
L 362.016 94.104841 
L 363.69 91.768324 
L 365.364 130.942311 
L 367.038 185.913548 
L 368.712 222.308239 
L 370.386 218.579905 
L 372.06 177.857628 
L 373.734 124.313943 
L 375.408 87.992664 
L 377.082 87.984367 
L 378.756 123.268968 
L 380.43 175.00291 
L 382.104 217.476008 
L 383.778 231.053515 
L 385.452 210.60762 
L 387.126 166.254076 
L 388.8 117.342485 
L 390.474 83.463517 
L 392.148 76.75479 
L 393.822 98.342172 
L 395.496 139.468594 
L 397.17 185.918733 
L 398.844 223.44622 
L 400.518 242.116364 
L 402.192 238.392845 
L 403.866 214.868724 
L 405.54 178.33387 
L 407.214 137.192267 
L 408.888 99.136646 
L 410.562 69.632462 
L 412.236 51.358706 
L 413.91 44.443636 
L 415.584 47.179064 
L 417.258 56.885651 
L 418.932 70.6826 
L 422.28 101.01107 
L 423.954 114.405801 
L 425.628 125.608536 
L 427.302 134.481363 
L 428.976 141.189264 
L 430.65 146.056502 
L 432.324 149.459766 
L 433 150.388623 
L 433 150.388623 
" style="fill:none;stroke:#ff7f0e;stroke-linecap:square;stroke-width:1.5;"/>
   </g>
   <g id="patch_3">
    <path d="M 54 252 
L 54 34.56 
" style="fill:none;stroke:#000000;stroke-linecap:square;stroke-linejoin:miter;stroke-width:0.8;"/>
   </g>
   <g id="patch_4">
    <path d="M 388.8 252 
L 388.8 34.56 
" style="fill:none;stroke:#000000;stroke-linecap:square;stroke-linejoin:miter;stroke-width:0.8;"/>
   </g>
   <g id="patch_5">
    <path d="M 54 252 
L 388.8 252 
" style="fill:none;stroke:#000000;stroke-linecap:square;stroke-linejoin:miter;stroke-width:0.8;"/>
   </g>
   <g id="patch_6">
    <path d="M 54 34.56 
L 388.8 34.56 
" style="fill:none;stroke:#000000;stroke-linecap:square;stroke-linejoin:miter;stroke-width:0.8;"/>
   </g>
   <g id="text_18">
    <!-- N=500, L=50 -->
    <g transform="translate(180.61125 28.56)scale(0.12 -0.12)">
     <defs>
      <path d="M 9.8125 72.90625 
L 23.09375 72.90625 
L 55.421875 11.921875 
L 55.421875 72.90625 
L 64.984375 72.90625 
L 64.984375 0 
L 51.703125 0 
L 19.390625 60.984375 
L 19.390625 0 
L 9.8125 0 
z
" id="DejaVuSans-78"/>
      <path d="M 10.59375 45.40625 
L 73.1875 45.40625 
L 73.1875 37.203125 
L 10.59375 37.203125 
z
M 10.59375 25.484375 
L 73.1875 25.484375 
L 73.1875 17.1875 
L 10.59375 17.1875 
z
" id="DejaVuSans-61"/>
      <path d="M 11.71875 12.40625 
L 22.015625 12.40625 
L 22.015625 4 
L 14.015625 -11.625 
L 7.71875 -11.625 
L 11.71875 4 
z
" id="DejaVuSans-44"/>
      <path id="DejaVuSans-32"/>
      <path d="M 9.8125 72.90625 
L 19.671875 72.90625 
L 19.671875 8.296875 
L 55.171875 8.296875 
L 55.171875 0 
L 9.8125 0 
z
" id="DejaVuSans-76"/>
     </defs>
     <use xlink:href="#DejaVuSans-78"/>
     <use x="74.804688" xlink:href="#DejaVuSans-61"/>
     <use x="158.59375" xlink:href="#DejaVuSans-53"/>
     <use x="222.216797" xlink:href="#DejaVuSans-48"/>
     <use x="285.839844" xlink:href="#DejaVuSans-48"/>
     <use x="349.462891" xlink:href="#DejaVuSans-44"/>
     <use x="381.25" xlink:href="#DejaVuSans-32"/>
     <use x="413.037109" xlink:href="#DejaVuSans-76"/>
     <use x="468.75" xlink:href="#DejaVuSans-61"/>
     <use x="552.539062" xlink:href="#DejaVuSans-53"/>
     <use x="616.162109" xlink:href="#DejaVuSans-48"/>
    </g>
   </g>
   <g id="legend_1">
    <g id="patch_7">
     <path d="M 313.44 84.72 
L 380.4 84.72 
Q 382.8 84.72 382.8 82.32 
L 382.8 42.96 
Q 382.8 40.56 380.4 40.56 
L 313.44 40.56 
Q 311.04 40.56 311.04 42.96 
L 311.04 82.32 
Q 311.04 84.72 313.44 84.72 
z
" style="fill:#ffffff;opacity:0.8;stroke:#cccccc;stroke-linejoin:miter;"/>
    </g>
    <g id="line2d_18">
     <path d="M 315.84 51.96 
L 339.84 51.96 
" style="fill:none;stroke:#1f77b4;stroke-linecap:square;stroke-width:1.5;"/>
    </g>
    <g id="line2d_19"/>
    <g id="text_19">
     <!-- $\psi^{NUM}_{70}$ -->
     <g transform="translate(349.44 56.16)scale(0.12 -0.12)">
      <defs>
       <path d="M 24.859375 -1.21875 
Q 13.921875 0.59375 9.625 5.328125 
Q 4.34375 11.140625 6.640625 23 
L 12.796875 54.6875 
L 21.875 54.6875 
L 15.765625 23.34375 
Q 14.0625 14.40625 17.484375 10.6875 
Q 20.515625 7.46875 26.421875 6.78125 
L 35.6875 54.6875 
L 44.625 54.6875 
L 35.359375 6.84375 
Q 41.890625 7.515625 45.75 10.75 
Q 50.734375 14.84375 52.390625 23.390625 
L 58.453125 54.6875 
L 67.53125 54.6875 
L 61.375 23.046875 
Q 58.984375 10.75 51.5625 5.375 
Q 44.875 0.53125 33.796875 -1.171875 
L 29.984375 -20.796875 
L 21.046875 -20.796875 
z
" id="DejaVuSans-Oblique-968"/>
       <path d="M 16.890625 72.90625 
L 30.171875 72.90625 
L 50.296875 10.40625 
L 62.5 72.90625 
L 72.125 72.90625 
L 57.90625 0 
L 44.578125 0 
L 24.515625 62.890625 
L 12.3125 0 
L 2.6875 0 
z
" id="DejaVuSans-Oblique-78"/>
       <path d="M 15.484375 72.90625 
L 25.390625 72.90625 
L 16.796875 28.609375 
Q 16.265625 25.640625 16.046875 23.703125 
Q 15.828125 21.78125 15.828125 20.3125 
Q 15.828125 13.578125 19.578125 10.078125 
Q 23.34375 6.59375 30.609375 6.59375 
Q 40.046875 6.59375 45.28125 11.765625 
Q 50.53125 16.9375 52.78125 28.609375 
L 61.375 72.90625 
L 71.296875 72.90625 
L 62.5 27.390625 
Q 59.625 12.640625 51.5625 5.609375 
Q 43.5 -1.421875 29.5 -1.421875 
Q 18.5625 -1.421875 12.1875 4.078125 
Q 5.8125 9.578125 5.8125 19 
Q 5.8125 20.703125 6.046875 22.828125 
Q 6.296875 24.953125 6.78125 27.390625 
z
" id="DejaVuSans-Oblique-85"/>
       <path d="M 16.890625 72.90625 
L 31.6875 72.90625 
L 40.1875 23.78125 
L 68.40625 72.90625 
L 83.59375 72.90625 
L 69.390625 0 
L 59.8125 0 
L 72.21875 63.921875 
L 43.609375 14.015625 
L 33.984375 14.015625 
L 24.703125 64.109375 
L 12.3125 0 
L 2.6875 0 
z
" id="DejaVuSans-Oblique-77"/>
      </defs>
      <use transform="translate(0 0.684375)" xlink:href="#DejaVuSans-Oblique-968"/>
      <use transform="translate(70.432943 38.965625)scale(0.7)" xlink:href="#DejaVuSans-Oblique-78"/>
      <use transform="translate(122.796224 38.965625)scale(0.7)" xlink:href="#DejaVuSans-Oblique-85"/>
      <use transform="translate(174.031576 38.965625)scale(0.7)" xlink:href="#DejaVuSans-Oblique-77"/>
      <use transform="translate(65.966797 -26.659375)scale(0.7)" xlink:href="#DejaVuSans-55"/>
      <use transform="translate(110.50293 -26.659375)scale(0.7)" xlink:href="#DejaVuSans-48"/>
     </g>
    </g>
    <g id="line2d_20">
     <path d="M 315.84 72.24 
L 339.84 72.24 
" style="fill:none;stroke:#ff7f0e;stroke-linecap:square;stroke-width:1.5;"/>
    </g>
    <g id="line2d_21"/>
    <g id="text_20">
     <!-- $\psi^{TH}_{70}$ -->
     <g transform="translate(349.44 76.44)scale(0.12 -0.12)">
      <defs>
       <path d="M 5.90625 72.90625 
L 67.578125 72.90625 
L 66.015625 64.59375 
L 39.984375 64.59375 
L 27.484375 0 
L 17.578125 0 
L 30.078125 64.59375 
L 4.296875 64.59375 
z
" id="DejaVuSans-Oblique-84"/>
       <path d="M 16.890625 72.90625 
L 26.8125 72.90625 
L 21 43.015625 
L 56.78125 43.015625 
L 62.59375 72.90625 
L 72.515625 72.90625 
L 58.296875 0 
L 48.390625 0 
L 55.171875 34.71875 
L 19.390625 34.71875 
L 12.59375 0 
L 2.6875 0 
z
" id="DejaVuSans-Oblique-72"/>
      </defs>
      <use transform="translate(0 0.684375)" xlink:href="#DejaVuSans-Oblique-968"/>
      <use transform="translate(70.432943 38.965625)scale(0.7)" xlink:href="#DejaVuSans-Oblique-84"/>
      <use transform="translate(113.191732 38.965625)scale(0.7)" xlink:href="#DejaVuSans-Oblique-72"/>
      <use transform="translate(65.966797 -26.659375)scale(0.7)" xlink:href="#DejaVuSans-55"/>
      <use transform="translate(110.50293 -26.659375)scale(0.7)" xlink:href="#DejaVuSans-48"/>
     </g>
    </g>
   </g>
  </g>
 </g>
 <defs>
  <clipPath id="p8d0ba8aac4">
   <rect height="217.44" width="334.8" x="54" y="34.56"/>
  </clipPath>
 </defs>
</svg>
