<?xml version="1.0" encoding="utf-8" standalone="no"?>
<!DOCTYPE svg PUBLIC "-//W3C//DTD SVG 1.1//EN"
  "http://www.w3.org/Graphics/SVG/1.1/DTD/svg11.dtd">
<!-- Created with matplotlib (https://matplotlib.org/) -->
<svg height="288pt" version="1.1" viewBox="0 0 432 288" width="432pt" xmlns="http://www.w3.org/2000/svg" xmlns:xlink="http://www.w3.org/1999/xlink">
 <metadata>
  <rdf:RDF xmlns:cc="http://creativecommons.org/ns#" xmlns:dc="http://purl.org/dc/elements/1.1/" xmlns:rdf="http://www.w3.org/1999/02/22-rdf-syntax-ns#">
   <cc:Work>
    <dc:type rdf:resource="http://purl.org/dc/dcmitype/StillImage"/>
    <dc:date>2021-11-23T18:23:05.539684</dc:date>
    <dc:format>image/svg+xml</dc:format>
    <dc:creator>
     <cc:Agent>
      <dc:title>Matplotlib v3.3.4, https://matplotlib.org/</dc:title>
     </cc:Agent>
    </dc:creator>
   </cc:Work>
  </rdf:RDF>
 </metadata>
 <defs>
  <style type="text/css">*{stroke-linecap:butt;stroke-linejoin:round;}</style>
 </defs>
 <g id="figure_1">
  <g id="patch_1">
   <path d="M 0 288 
L 432 288 
L 432 0 
L 0 0 
z
" style="fill:none;"/>
  </g>
  <g id="axes_1">
   <g id="patch_2">
    <path d="M 54 252 
L 388.8 252 
L 388.8 34.56 
L 54 34.56 
z
" style="fill:#ffffff;"/>
   </g>
   <g id="matplotlib.axis_1">
    <g id="xtick_1">
     <g id="line2d_1">
      <defs>
       <path d="M 0 0 
L 0 3.5 
" id="m3f3fd59e71" style="stroke:#000000;stroke-width:0.8;"/>
      </defs>
      <g>
       <use style="stroke:#000000;stroke-width:0.8;" x="54" xlink:href="#m3f3fd59e71" y="252"/>
      </g>
     </g>
     <g id="text_1">
      <!-- −10.0 -->
      <g transform="translate(38.677344 266.598437)scale(0.1 -0.1)">
       <defs>
        <path d="M 10.59375 35.5 
L 73.1875 35.5 
L 73.1875 27.203125 
L 10.59375 27.203125 
z
" id="DejaVuSans-8722"/>
        <path d="M 12.40625 8.296875 
L 28.515625 8.296875 
L 28.515625 63.921875 
L 10.984375 60.40625 
L 10.984375 69.390625 
L 28.421875 72.90625 
L 38.28125 72.90625 
L 38.28125 8.296875 
L 54.390625 8.296875 
L 54.390625 0 
L 12.40625 0 
z
" id="DejaVuSans-49"/>
        <path d="M 31.78125 66.40625 
Q 24.171875 66.40625 20.328125 58.90625 
Q 16.5 51.421875 16.5 36.375 
Q 16.5 21.390625 20.328125 13.890625 
Q 24.171875 6.390625 31.78125 6.390625 
Q 39.453125 6.390625 43.28125 13.890625 
Q 47.125 21.390625 47.125 36.375 
Q 47.125 51.421875 43.28125 58.90625 
Q 39.453125 66.40625 31.78125 66.40625 
z
M 31.78125 74.21875 
Q 44.046875 74.21875 50.515625 64.515625 
Q 56.984375 54.828125 56.984375 36.375 
Q 56.984375 17.96875 50.515625 8.265625 
Q 44.046875 -1.421875 31.78125 -1.421875 
Q 19.53125 -1.421875 13.0625 8.265625 
Q 6.59375 17.96875 6.59375 36.375 
Q 6.59375 54.828125 13.0625 64.515625 
Q 19.53125 74.21875 31.78125 74.21875 
z
" id="DejaVuSans-48"/>
        <path d="M 10.6875 12.40625 
L 21 12.40625 
L 21 0 
L 10.6875 0 
z
" id="DejaVuSans-46"/>
       </defs>
       <use xlink:href="#DejaVuSans-8722"/>
       <use x="83.789062" xlink:href="#DejaVuSans-49"/>
       <use x="147.412109" xlink:href="#DejaVuSans-48"/>
       <use x="211.035156" xlink:href="#DejaVuSans-46"/>
       <use x="242.822266" xlink:href="#DejaVuSans-48"/>
      </g>
     </g>
    </g>
    <g id="xtick_2">
     <g id="line2d_2">
      <g>
       <use style="stroke:#000000;stroke-width:0.8;" x="95.85" xlink:href="#m3f3fd59e71" y="252"/>
      </g>
     </g>
     <g id="text_2">
      <!-- −7.5 -->
      <g transform="translate(83.708594 266.598437)scale(0.1 -0.1)">
       <defs>
        <path d="M 8.203125 72.90625 
L 55.078125 72.90625 
L 55.078125 68.703125 
L 28.609375 0 
L 18.3125 0 
L 43.21875 64.59375 
L 8.203125 64.59375 
z
" id="DejaVuSans-55"/>
        <path d="M 10.796875 72.90625 
L 49.515625 72.90625 
L 49.515625 64.59375 
L 19.828125 64.59375 
L 19.828125 46.734375 
Q 21.96875 47.46875 24.109375 47.828125 
Q 26.265625 48.1875 28.421875 48.1875 
Q 40.625 48.1875 47.75 41.5 
Q 54.890625 34.8125 54.890625 23.390625 
Q 54.890625 11.625 47.5625 5.09375 
Q 40.234375 -1.421875 26.90625 -1.421875 
Q 22.3125 -1.421875 17.546875 -0.640625 
Q 12.796875 0.140625 7.71875 1.703125 
L 7.71875 11.625 
Q 12.109375 9.234375 16.796875 8.0625 
Q 21.484375 6.890625 26.703125 6.890625 
Q 35.15625 6.890625 40.078125 11.328125 
Q 45.015625 15.765625 45.015625 23.390625 
Q 45.015625 31 40.078125 35.4375 
Q 35.15625 39.890625 26.703125 39.890625 
Q 22.75 39.890625 18.8125 39.015625 
Q 14.890625 38.140625 10.796875 36.28125 
z
" id="DejaVuSans-53"/>
       </defs>
       <use xlink:href="#DejaVuSans-8722"/>
       <use x="83.789062" xlink:href="#DejaVuSans-55"/>
       <use x="147.412109" xlink:href="#DejaVuSans-46"/>
       <use x="179.199219" xlink:href="#DejaVuSans-53"/>
      </g>
     </g>
    </g>
    <g id="xtick_3">
     <g id="line2d_3">
      <g>
       <use style="stroke:#000000;stroke-width:0.8;" x="137.7" xlink:href="#m3f3fd59e71" y="252"/>
      </g>
     </g>
     <g id="text_3">
      <!-- −5.0 -->
      <g transform="translate(125.558594 266.598437)scale(0.1 -0.1)">
       <use xlink:href="#DejaVuSans-8722"/>
       <use x="83.789062" xlink:href="#DejaVuSans-53"/>
       <use x="147.412109" xlink:href="#DejaVuSans-46"/>
       <use x="179.199219" xlink:href="#DejaVuSans-48"/>
      </g>
     </g>
    </g>
    <g id="xtick_4">
     <g id="line2d_4">
      <g>
       <use style="stroke:#000000;stroke-width:0.8;" x="179.55" xlink:href="#m3f3fd59e71" y="252"/>
      </g>
     </g>
     <g id="text_4">
      <!-- −2.5 -->
      <g transform="translate(167.408594 266.598437)scale(0.1 -0.1)">
       <defs>
        <path d="M 19.1875 8.296875 
L 53.609375 8.296875 
L 53.609375 0 
L 7.328125 0 
L 7.328125 8.296875 
Q 12.9375 14.109375 22.625 23.890625 
Q 32.328125 33.6875 34.8125 36.53125 
Q 39.546875 41.84375 41.421875 45.53125 
Q 43.3125 49.21875 43.3125 52.78125 
Q 43.3125 58.59375 39.234375 62.25 
Q 35.15625 65.921875 28.609375 65.921875 
Q 23.96875 65.921875 18.8125 64.3125 
Q 13.671875 62.703125 7.8125 59.421875 
L 7.8125 69.390625 
Q 13.765625 71.78125 18.9375 73 
Q 24.125 74.21875 28.421875 74.21875 
Q 39.75 74.21875 46.484375 68.546875 
Q 53.21875 62.890625 53.21875 53.421875 
Q 53.21875 48.921875 51.53125 44.890625 
Q 49.859375 40.875 45.40625 35.40625 
Q 44.1875 33.984375 37.640625 27.21875 
Q 31.109375 20.453125 19.1875 8.296875 
z
" id="DejaVuSans-50"/>
       </defs>
       <use xlink:href="#DejaVuSans-8722"/>
       <use x="83.789062" xlink:href="#DejaVuSans-50"/>
       <use x="147.412109" xlink:href="#DejaVuSans-46"/>
       <use x="179.199219" xlink:href="#DejaVuSans-53"/>
      </g>
     </g>
    </g>
    <g id="xtick_5">
     <g id="line2d_5">
      <g>
       <use style="stroke:#000000;stroke-width:0.8;" x="221.4" xlink:href="#m3f3fd59e71" y="252"/>
      </g>
     </g>
     <g id="text_5">
      <!-- 0.0 -->
      <g transform="translate(213.448438 266.598437)scale(0.1 -0.1)">
       <use xlink:href="#DejaVuSans-48"/>
       <use x="63.623047" xlink:href="#DejaVuSans-46"/>
       <use x="95.410156" xlink:href="#DejaVuSans-48"/>
      </g>
     </g>
    </g>
    <g id="xtick_6">
     <g id="line2d_6">
      <g>
       <use style="stroke:#000000;stroke-width:0.8;" x="263.25" xlink:href="#m3f3fd59e71" y="252"/>
      </g>
     </g>
     <g id="text_6">
      <!-- 2.5 -->
      <g transform="translate(255.298438 266.598437)scale(0.1 -0.1)">
       <use xlink:href="#DejaVuSans-50"/>
       <use x="63.623047" xlink:href="#DejaVuSans-46"/>
       <use x="95.410156" xlink:href="#DejaVuSans-53"/>
      </g>
     </g>
    </g>
    <g id="xtick_7">
     <g id="line2d_7">
      <g>
       <use style="stroke:#000000;stroke-width:0.8;" x="305.1" xlink:href="#m3f3fd59e71" y="252"/>
      </g>
     </g>
     <g id="text_7">
      <!-- 5.0 -->
      <g transform="translate(297.148438 266.598437)scale(0.1 -0.1)">
       <use xlink:href="#DejaVuSans-53"/>
       <use x="63.623047" xlink:href="#DejaVuSans-46"/>
       <use x="95.410156" xlink:href="#DejaVuSans-48"/>
      </g>
     </g>
    </g>
    <g id="xtick_8">
     <g id="line2d_8">
      <g>
       <use style="stroke:#000000;stroke-width:0.8;" x="346.95" xlink:href="#m3f3fd59e71" y="252"/>
      </g>
     </g>
     <g id="text_8">
      <!-- 7.5 -->
      <g transform="translate(338.998438 266.598437)scale(0.1 -0.1)">
       <use xlink:href="#DejaVuSans-55"/>
       <use x="63.623047" xlink:href="#DejaVuSans-46"/>
       <use x="95.410156" xlink:href="#DejaVuSans-53"/>
      </g>
     </g>
    </g>
    <g id="xtick_9">
     <g id="line2d_9">
      <g>
       <use style="stroke:#000000;stroke-width:0.8;" x="388.8" xlink:href="#m3f3fd59e71" y="252"/>
      </g>
     </g>
     <g id="text_9">
      <!-- 10.0 -->
      <g transform="translate(377.667188 266.598437)scale(0.1 -0.1)">
       <use xlink:href="#DejaVuSans-49"/>
       <use x="63.623047" xlink:href="#DejaVuSans-48"/>
       <use x="127.246094" xlink:href="#DejaVuSans-46"/>
       <use x="159.033203" xlink:href="#DejaVuSans-48"/>
      </g>
     </g>
    </g>
    <g id="text_10">
     <!-- x -->
     <g transform="translate(218.440625 280.276563)scale(0.1 -0.1)">
      <defs>
       <path d="M 54.890625 54.6875 
L 35.109375 28.078125 
L 55.90625 0 
L 45.3125 0 
L 29.390625 21.484375 
L 13.484375 0 
L 2.875 0 
L 24.125 28.609375 
L 4.6875 54.6875 
L 15.28125 54.6875 
L 29.78125 35.203125 
L 44.28125 54.6875 
z
" id="DejaVuSans-120"/>
      </defs>
      <use xlink:href="#DejaVuSans-120"/>
     </g>
    </g>
   </g>
   <g id="matplotlib.axis_2">
    <g id="ytick_1">
     <g id="line2d_10">
      <defs>
       <path d="M 0 0 
L -3.5 0 
" id="m39294da077" style="stroke:#000000;stroke-width:0.8;"/>
      </defs>
      <g>
       <use style="stroke:#000000;stroke-width:0.8;" x="54" xlink:href="#m39294da077" y="246.975676"/>
      </g>
     </g>
     <g id="text_11">
      <!-- −1.5 -->
      <g transform="translate(22.717187 250.774894)scale(0.1 -0.1)">
       <use xlink:href="#DejaVuSans-8722"/>
       <use x="83.789062" xlink:href="#DejaVuSans-49"/>
       <use x="147.412109" xlink:href="#DejaVuSans-46"/>
       <use x="179.199219" xlink:href="#DejaVuSans-53"/>
      </g>
     </g>
    </g>
    <g id="ytick_2">
     <g id="line2d_11">
      <g>
       <use style="stroke:#000000;stroke-width:0.8;" x="54" xlink:href="#m39294da077" y="212.41045"/>
      </g>
     </g>
     <g id="text_12">
      <!-- −1.0 -->
      <g transform="translate(22.717187 216.209669)scale(0.1 -0.1)">
       <use xlink:href="#DejaVuSans-8722"/>
       <use x="83.789062" xlink:href="#DejaVuSans-49"/>
       <use x="147.412109" xlink:href="#DejaVuSans-46"/>
       <use x="179.199219" xlink:href="#DejaVuSans-48"/>
      </g>
     </g>
    </g>
    <g id="ytick_3">
     <g id="line2d_12">
      <g>
       <use style="stroke:#000000;stroke-width:0.8;" x="54" xlink:href="#m39294da077" y="177.845225"/>
      </g>
     </g>
     <g id="text_13">
      <!-- −0.5 -->
      <g transform="translate(22.717187 181.644444)scale(0.1 -0.1)">
       <use xlink:href="#DejaVuSans-8722"/>
       <use x="83.789062" xlink:href="#DejaVuSans-48"/>
       <use x="147.412109" xlink:href="#DejaVuSans-46"/>
       <use x="179.199219" xlink:href="#DejaVuSans-53"/>
      </g>
     </g>
    </g>
    <g id="ytick_4">
     <g id="line2d_13">
      <g>
       <use style="stroke:#000000;stroke-width:0.8;" x="54" xlink:href="#m39294da077" y="143.28"/>
      </g>
     </g>
     <g id="text_14">
      <!-- 0.0 -->
      <g transform="translate(31.096875 147.079219)scale(0.1 -0.1)">
       <use xlink:href="#DejaVuSans-48"/>
       <use x="63.623047" xlink:href="#DejaVuSans-46"/>
       <use x="95.410156" xlink:href="#DejaVuSans-48"/>
      </g>
     </g>
    </g>
    <g id="ytick_5">
     <g id="line2d_14">
      <g>
       <use style="stroke:#000000;stroke-width:0.8;" x="54" xlink:href="#m39294da077" y="108.714775"/>
      </g>
     </g>
     <g id="text_15">
      <!-- 0.5 -->
      <g transform="translate(31.096875 112.513994)scale(0.1 -0.1)">
       <use xlink:href="#DejaVuSans-48"/>
       <use x="63.623047" xlink:href="#DejaVuSans-46"/>
       <use x="95.410156" xlink:href="#DejaVuSans-53"/>
      </g>
     </g>
    </g>
    <g id="ytick_6">
     <g id="line2d_15">
      <g>
       <use style="stroke:#000000;stroke-width:0.8;" x="54" xlink:href="#m39294da077" y="74.14955"/>
      </g>
     </g>
     <g id="text_16">
      <!-- 1.0 -->
      <g transform="translate(31.096875 77.948768)scale(0.1 -0.1)">
       <use xlink:href="#DejaVuSans-49"/>
       <use x="63.623047" xlink:href="#DejaVuSans-46"/>
       <use x="95.410156" xlink:href="#DejaVuSans-48"/>
      </g>
     </g>
    </g>
    <g id="ytick_7">
     <g id="line2d_16">
      <g>
       <use style="stroke:#000000;stroke-width:0.8;" x="54" xlink:href="#m39294da077" y="39.584324"/>
      </g>
     </g>
     <g id="text_17">
      <!-- 1.5 -->
      <g transform="translate(31.096875 43.383543)scale(0.1 -0.1)">
       <use xlink:href="#DejaVuSans-49"/>
       <use x="63.623047" xlink:href="#DejaVuSans-46"/>
       <use x="95.410156" xlink:href="#DejaVuSans-53"/>
      </g>
     </g>
    </g>
    <g id="text_18">
     <!-- 1e−1 -->
     <g transform="translate(54 31.56)scale(0.1 -0.1)">
      <defs>
       <path d="M 56.203125 29.59375 
L 56.203125 25.203125 
L 14.890625 25.203125 
Q 15.484375 15.921875 20.484375 11.0625 
Q 25.484375 6.203125 34.421875 6.203125 
Q 39.59375 6.203125 44.453125 7.46875 
Q 49.3125 8.734375 54.109375 11.28125 
L 54.109375 2.78125 
Q 49.265625 0.734375 44.1875 -0.34375 
Q 39.109375 -1.421875 33.890625 -1.421875 
Q 20.796875 -1.421875 13.15625 6.1875 
Q 5.515625 13.8125 5.515625 26.8125 
Q 5.515625 40.234375 12.765625 48.109375 
Q 20.015625 56 32.328125 56 
Q 43.359375 56 49.78125 48.890625 
Q 56.203125 41.796875 56.203125 29.59375 
z
M 47.21875 32.234375 
Q 47.125 39.59375 43.09375 43.984375 
Q 39.0625 48.390625 32.421875 48.390625 
Q 24.90625 48.390625 20.390625 44.140625 
Q 15.875 39.890625 15.1875 32.171875 
z
" id="DejaVuSans-101"/>
      </defs>
      <use xlink:href="#DejaVuSans-49"/>
      <use x="63.623047" xlink:href="#DejaVuSans-101"/>
      <use x="125.146484" xlink:href="#DejaVuSans-8722"/>
      <use x="208.935547" xlink:href="#DejaVuSans-49"/>
     </g>
    </g>
   </g>
   <g id="line2d_17">
    <path clip-path="url(#p14a6324f61)" d="M -1 143.280649 
L 10.476 143.345516 
L 13.824 143.496527 
L 15.498 143.662128 
L 17.172 143.94066 
L 18.846 144.398256 
L 20.52 145.131766 
L 22.194 146.277546 
L 23.868 148.019047 
L 25.542 150.590052 
L 27.216 154.268797 
L 28.89 159.356705 
L 30.564 166.134857 
L 32.238 174.792507 
L 33.912 185.326295 
L 37.26 210.306148 
L 38.934 222.701411 
L 40.608 232.772508 
L 42.282 238.282749 
L 43.956 236.90873 
L 45.63 226.75575 
L 47.304 207.014436 
L 48.978 178.620281 
L 52.326 110.522331 
L 54 82.809904 
L 55.674 68.24148 
L 57.348 71.476966 
L 59.022 93.163219 
L 60.696 128.704945 
L 62.37 168.557442 
L 64.044 200.450991 
L 65.718 213.262929 
L 67.392 201.408419 
L 69.066 167.990384 
L 70.74 124.953492 
L 72.414 89.382155 
L 74.088 76.731619 
L 75.762 93.559599 
L 77.436 133.282017 
L 79.11 177.781107 
L 80.784 205.206851 
L 82.458 200.940679 
L 84.132 166.202922 
L 85.806 118.97301 
L 87.48 85.385725 
L 89.154 85.224493 
L 90.828 119.505484 
L 92.502 168.264293 
L 94.176 201.42132 
L 95.85 197.381647 
L 97.524 157.912769 
L 99.198 108.643393 
L 100.872 83.081519 
L 102.546 99.596192 
L 105.894 192.040275 
L 107.568 200.667383 
L 109.242 165.969095 
L 110.916 113.835064 
L 112.59 84.720016 
L 114.264 102.152174 
L 115.938 152.8059 
L 117.612 195.64397 
L 119.286 194.864755 
L 120.96 150.482823 
L 122.634 99.925451 
L 124.308 87.054617 
L 125.982 123.716313 
L 127.656 177.837888 
L 129.33 200.727299 
L 131.004 171.060261 
L 132.678 115.675267 
L 134.352 86.141104 
L 136.026 110.715397 
L 137.7 166.462599 
L 139.374 199.783796 
L 141.048 177.885882 
L 142.722 121.833216 
L 144.396 87.151489 
L 146.07 108.92178 
L 147.744 165.560981 
L 149.418 199.389723 
L 151.092 175.287207 
L 152.766 117.866356 
L 154.44 87.111119 
L 156.114 115.746818 
L 157.788 173.712619 
L 159.462 199.02532 
L 161.136 164.107228 
L 162.81 106.534034 
L 164.484 89.192665 
L 166.158 131.442759 
L 167.832 186.814005 
L 169.506 193.646418 
L 172.854 93.546064 
L 174.528 99.448996 
L 176.202 155.273852 
L 177.876 197.372181 
L 179.55 177.277289 
L 181.224 117.920162 
L 182.898 87.974456 
L 184.572 122.430052 
L 186.246 181.258481 
L 187.92 195.528138 
L 189.594 148.282734 
L 191.268 95.127782 
L 192.942 99.031465 
L 194.616 155.522926 
L 196.29 197.423712 
L 197.964 174.630142 
L 199.638 114.286507 
L 201.312 88.748507 
L 202.986 128.809913 
L 204.66 186.311588 
L 206.334 191.858486 
L 208.008 138.661183 
L 209.682 91.0571 
L 211.356 106.771384 
L 213.03 166.798501 
L 214.704 198.253845 
L 216.378 162.873985 
L 218.052 103.658753 
L 219.726 92.661143 
L 223.074 193.898882 
L 224.748 182.901201 
L 226.422 123.685954 
L 228.096 88.306153 
L 229.77 119.761558 
L 231.444 179.788665 
L 233.118 195.50288 
L 234.792 147.898752 
L 236.466 94.701483 
L 238.14 100.248453 
L 239.814 157.750151 
L 241.488 197.811502 
L 243.162 172.273437 
L 244.836 111.929804 
L 246.51 89.1363 
L 248.184 131.037138 
L 249.858 187.528574 
L 251.532 191.432186 
L 253.206 138.2772 
L 254.88 91.03184 
L 256.554 105.301567 
L 258.228 164.130009 
L 259.902 198.585547 
L 261.576 168.639779 
L 263.25 109.282659 
L 264.924 89.187834 
L 266.598 131.286213 
L 268.272 187.111045 
L 269.946 193.013906 
L 273.294 92.913554 
L 274.968 99.746036 
L 276.642 155.117306 
L 278.316 197.367352 
L 279.99 180.025915 
L 281.664 122.45271 
L 283.338 87.534674 
L 285.012 112.847437 
L 286.686 170.81324 
L 288.36 199.448879 
L 290.034 168.693585 
L 291.708 111.272737 
L 293.382 87.170284 
L 295.056 120.999081 
L 296.73 177.638274 
L 298.404 199.408502 
L 300.078 164.726722 
L 301.752 108.674065 
L 303.426 86.776212 
L 305.1 120.097463 
L 306.774 175.844659 
L 308.448 200.418892 
L 310.122 170.884673 
L 311.796 115.499679 
L 313.47 85.832696 
L 315.144 108.722167 
L 316.818 162.843752 
L 318.492 199.5054 
L 320.166 186.634503 
L 321.84 136.077109 
L 323.514 91.695212 
L 325.188 90.916061 
L 326.862 133.754169 
L 328.536 184.407877 
L 330.21 201.839975 
L 331.884 172.724875 
L 333.558 120.59084 
L 335.232 85.892597 
L 336.906 94.519766 
L 340.254 186.963858 
L 341.928 203.47846 
L 343.602 177.916531 
L 345.276 128.647151 
L 346.95 89.178319 
L 348.624 85.138714 
L 350.298 118.295805 
L 351.972 167.054617 
L 353.646 201.335549 
L 355.32 201.174251 
L 356.994 167.586914 
L 358.668 120.356985 
L 360.342 85.619262 
L 362.016 81.353155 
L 363.69 108.778943 
L 365.364 153.278051 
L 367.038 193.000449 
L 368.712 209.828387 
L 370.386 197.177807 
L 372.06 161.606457 
L 373.734 118.569574 
L 375.408 85.151571 
L 377.082 73.297097 
L 378.756 86.109062 
L 380.43 118.002585 
L 382.104 157.855048 
L 383.778 193.396737 
L 385.452 215.082981 
L 387.126 218.318449 
L 388.8 203.750048 
L 390.474 176.037653 
L 393.822 107.939752 
L 395.496 79.545627 
L 397.17 59.804295 
L 398.844 49.651291 
L 400.518 48.277275 
L 402.192 53.787488 
L 403.866 63.858586 
L 408.888 101.233662 
L 410.562 111.767457 
L 412.236 120.42512 
L 413.91 127.203278 
L 415.584 132.291189 
L 417.258 135.969939 
L 418.932 138.540948 
L 420.606 140.282452 
L 422.28 141.428233 
L 423.954 142.161743 
L 425.628 142.619339 
L 427.302 142.897872 
L 430.65 143.159733 
L 433 143.226799 
L 433 143.226799 
" style="fill:none;stroke:#1f77b4;stroke-linecap:square;stroke-width:1.5;"/>
   </g>
   <g id="line2d_18">
    <path clip-path="url(#p14a6324f61)" d="M -1 143.283094 
L 7.128 143.357496 
L 10.476 143.538773 
L 12.15 143.738203 
L 13.824 144.073867 
L 15.498 144.624953 
L 17.172 145.506515 
L 18.846 146.878761 
L 20.52 148.954061 
L 22.194 151.997614 
L 23.868 156.315997 
L 25.542 162.226474 
L 27.216 169.99989 
L 28.89 179.772547 
L 30.564 191.428822 
L 35.586 230.081311 
L 37.26 238.965759 
L 38.934 242.116364 
L 40.608 237.231376 
L 42.282 222.732709 
L 43.956 198.468098 
L 45.63 166.323167 
L 47.304 130.492591 
L 48.978 97.154887 
L 50.652 73.394049 
L 52.326 65.4285 
L 54 76.510202 
L 55.674 105.149716 
L 59.022 183.29077 
L 60.696 209.200511 
L 62.37 212.755001 
L 64.044 191.579104 
L 65.718 152.431187 
L 67.392 109.829953 
L 69.066 81.017384 
L 70.74 78.768223 
L 72.414 105.036402 
L 75.762 189.745223 
L 77.436 207.805881 
L 79.11 193.12387 
L 80.784 152.456859 
L 82.458 106.974996 
L 84.132 81.689478 
L 85.806 91.435119 
L 87.48 131.342561 
L 89.154 178.262889 
L 90.828 203.678837 
L 92.502 191.272943 
L 94.176 148.238816 
L 95.85 102.08341 
L 97.524 83.48078 
L 99.198 105.533236 
L 100.872 153.650947 
L 102.546 194.337793 
L 104.22 198.297317 
L 105.894 162.101508 
L 107.568 112.031167 
L 109.242 85.635408 
L 110.916 103.429831 
L 112.59 152.148515 
L 114.264 193.763404 
L 115.938 194.92085 
L 117.612 154.2219 
L 119.286 104.6266 
L 120.96 87.289809 
L 122.634 117.141644 
L 124.308 169.208867 
L 125.982 198.810526 
L 127.656 179.925373 
L 129.33 128.768711 
L 131.004 90.643148 
L 132.678 99.980273 
L 134.352 148.673945 
L 136.026 192.324397 
L 137.7 190.437868 
L 141.048 97.43444 
L 142.722 94.138324 
L 144.396 138.009459 
L 146.07 186.907191 
L 147.744 193.187066 
L 149.418 150.42552 
L 151.092 100.658364 
L 152.766 93.448905 
L 154.44 136.261006 
L 156.114 186.102692 
L 157.788 192.33063 
L 159.462 148.362043 
L 161.136 99.220952 
L 162.81 95.761452 
L 166.158 189.315254 
L 167.832 188.344314 
L 169.506 139.710076 
L 171.18 94.924804 
L 172.854 101.824 
L 174.528 153.184245 
L 176.202 193.822284 
L 177.876 179.743755 
L 179.55 126.074481 
L 181.224 91.212715 
L 182.898 113.356632 
L 184.572 168.340417 
L 186.246 195.670044 
L 187.92 165.075387 
L 189.594 110.341384 
L 191.268 92.264191 
L 192.942 131.067972 
L 194.616 183.495565 
L 196.29 190.840993 
L 199.638 97.057023 
L 201.312 101.461861 
L 202.986 153.091666 
L 204.66 193.601706 
L 206.334 177.08677 
L 208.008 122.224835 
L 209.682 91.294325 
L 211.356 119.482994 
L 213.03 174.749611 
L 214.704 194.161163 
L 216.378 155.576718 
L 218.052 102.973835 
L 219.726 96.355267 
L 223.074 190.204733 
L 224.748 183.586165 
L 226.422 130.983282 
L 228.096 92.398837 
L 229.77 111.810389 
L 231.444 167.077006 
L 233.118 195.265675 
L 234.792 164.335165 
L 236.466 109.47323 
L 238.14 92.958294 
L 239.814 133.468334 
L 241.488 185.098139 
L 243.162 189.502977 
L 246.51 95.719007 
L 248.184 103.064435 
L 249.858 155.492028 
L 251.532 194.295809 
L 253.206 176.218616 
L 254.88 121.484613 
L 256.554 90.889956 
L 258.228 118.219583 
L 259.902 173.203368 
L 261.576 195.347285 
L 263.25 160.485519 
L 264.924 106.816245 
L 266.598 92.737716 
L 268.272 133.375755 
L 269.946 184.736 
L 271.62 191.635196 
L 273.294 146.849924 
L 274.968 98.215686 
L 276.642 97.244746 
L 279.99 190.798548 
L 281.664 187.339048 
L 283.338 138.197957 
L 285.012 94.22937 
L 286.686 100.457308 
L 288.36 150.298994 
L 290.034 193.111095 
L 291.708 185.901636 
L 293.382 136.13448 
L 295.056 93.372934 
L 296.73 99.652809 
L 298.404 148.550541 
L 300.078 192.421676 
L 301.752 189.12556 
L 305.1 96.122132 
L 306.774 94.235603 
L 308.448 137.886055 
L 310.122 186.579727 
L 311.796 195.916852 
L 313.47 157.791289 
L 315.144 106.634627 
L 316.818 87.749474 
L 318.492 117.351133 
L 320.166 169.418356 
L 321.84 199.270191 
L 323.514 181.9334 
L 325.188 132.3381 
L 326.862 91.63915 
L 328.536 92.796596 
L 330.21 134.411485 
L 331.884 183.130169 
L 333.558 200.924592 
L 335.232 174.528833 
L 336.906 124.458492 
L 338.58 88.262683 
L 340.254 92.222207 
L 341.928 132.909053 
L 343.602 181.026764 
L 345.276 203.07922 
L 346.95 184.47659 
L 348.624 138.321184 
L 350.298 95.287057 
L 351.972 82.881163 
L 353.646 108.297111 
L 355.32 155.217439 
L 356.994 195.124881 
L 358.668 204.870522 
L 360.342 179.585004 
L 362.016 134.103141 
L 363.69 93.43613 
L 365.364 78.754119 
L 367.038 96.814777 
L 368.712 137.802835 
L 370.386 181.523598 
L 372.06 207.791777 
L 373.734 205.542616 
L 375.408 176.730047 
L 377.082 134.128813 
L 378.756 94.980896 
L 380.43 73.804999 
L 382.104 77.359489 
L 383.778 103.26923 
L 387.126 181.410284 
L 388.8 210.049798 
L 390.474 221.1315 
L 392.148 213.165951 
L 393.822 189.405113 
L 395.496 156.067409 
L 397.17 120.236833 
L 398.844 88.091902 
L 400.518 63.827291 
L 402.192 49.328624 
L 403.866 44.443636 
L 405.54 47.594241 
L 407.214 56.478689 
L 408.888 68.680913 
L 412.236 95.131178 
L 413.91 106.787453 
L 415.584 116.56011 
L 417.258 124.333526 
L 418.932 130.244003 
L 420.606 134.562386 
L 422.28 137.605939 
L 423.954 139.681239 
L 425.628 141.053485 
L 427.302 141.935047 
L 428.976 142.486133 
L 430.65 142.821797 
L 433 143.067946 
L 433 143.067946 
" style="fill:none;stroke:#ff7f0e;stroke-linecap:square;stroke-width:1.5;"/>
   </g>
   <g id="patch_3">
    <path d="M 54 252 
L 54 34.56 
" style="fill:none;stroke:#000000;stroke-linecap:square;stroke-linejoin:miter;stroke-width:0.8;"/>
   </g>
   <g id="patch_4">
    <path d="M 388.8 252 
L 388.8 34.56 
" style="fill:none;stroke:#000000;stroke-linecap:square;stroke-linejoin:miter;stroke-width:0.8;"/>
   </g>
   <g id="patch_5">
    <path d="M 54 252 
L 388.8 252 
" style="fill:none;stroke:#000000;stroke-linecap:square;stroke-linejoin:miter;stroke-width:0.8;"/>
   </g>
   <g id="patch_6">
    <path d="M 54 34.56 
L 388.8 34.56 
" style="fill:none;stroke:#000000;stroke-linecap:square;stroke-linejoin:miter;stroke-width:0.8;"/>
   </g>
   <g id="text_19">
    <!-- N=500, L=50 -->
    <g transform="translate(180.61125 28.56)scale(0.12 -0.12)">
     <defs>
      <path d="M 9.8125 72.90625 
L 23.09375 72.90625 
L 55.421875 11.921875 
L 55.421875 72.90625 
L 64.984375 72.90625 
L 64.984375 0 
L 51.703125 0 
L 19.390625 60.984375 
L 19.390625 0 
L 9.8125 0 
z
" id="DejaVuSans-78"/>
      <path d="M 10.59375 45.40625 
L 73.1875 45.40625 
L 73.1875 37.203125 
L 10.59375 37.203125 
z
M 10.59375 25.484375 
L 73.1875 25.484375 
L 73.1875 17.1875 
L 10.59375 17.1875 
z
" id="DejaVuSans-61"/>
      <path d="M 11.71875 12.40625 
L 22.015625 12.40625 
L 22.015625 4 
L 14.015625 -11.625 
L 7.71875 -11.625 
L 11.71875 4 
z
" id="DejaVuSans-44"/>
      <path id="DejaVuSans-32"/>
      <path d="M 9.8125 72.90625 
L 19.671875 72.90625 
L 19.671875 8.296875 
L 55.171875 8.296875 
L 55.171875 0 
L 9.8125 0 
z
" id="DejaVuSans-76"/>
     </defs>
     <use xlink:href="#DejaVuSans-78"/>
     <use x="74.804688" xlink:href="#DejaVuSans-61"/>
     <use x="158.59375" xlink:href="#DejaVuSans-53"/>
     <use x="222.216797" xlink:href="#DejaVuSans-48"/>
     <use x="285.839844" xlink:href="#DejaVuSans-48"/>
     <use x="349.462891" xlink:href="#DejaVuSans-44"/>
     <use x="381.25" xlink:href="#DejaVuSans-32"/>
     <use x="413.037109" xlink:href="#DejaVuSans-76"/>
     <use x="468.75" xlink:href="#DejaVuSans-61"/>
     <use x="552.539062" xlink:href="#DejaVuSans-53"/>
     <use x="616.162109" xlink:href="#DejaVuSans-48"/>
    </g>
   </g>
   <g id="legend_1">
    <g id="patch_7">
     <path d="M 187.92 246 
L 254.88 246 
Q 257.28 246 257.28 243.6 
L 257.28 204.24 
Q 257.28 201.84 254.88 201.84 
L 187.92 201.84 
Q 185.52 201.84 185.52 204.24 
L 185.52 243.6 
Q 185.52 246 187.92 246 
z
" style="fill:#ffffff;opacity:0.8;stroke:#cccccc;stroke-linejoin:miter;"/>
    </g>
    <g id="line2d_19">
     <path d="M 190.32 213.24 
L 214.32 213.24 
" style="fill:none;stroke:#1f77b4;stroke-linecap:square;stroke-width:1.5;"/>
    </g>
    <g id="line2d_20"/>
    <g id="text_20">
     <!-- $\psi^{NUM}_{63}$ -->
     <g transform="translate(223.92 217.44)scale(0.12 -0.12)">
      <defs>
       <path d="M 24.859375 -1.21875 
Q 13.921875 0.59375 9.625 5.328125 
Q 4.34375 11.140625 6.640625 23 
L 12.796875 54.6875 
L 21.875 54.6875 
L 15.765625 23.34375 
Q 14.0625 14.40625 17.484375 10.6875 
Q 20.515625 7.46875 26.421875 6.78125 
L 35.6875 54.6875 
L 44.625 54.6875 
L 35.359375 6.84375 
Q 41.890625 7.515625 45.75 10.75 
Q 50.734375 14.84375 52.390625 23.390625 
L 58.453125 54.6875 
L 67.53125 54.6875 
L 61.375 23.046875 
Q 58.984375 10.75 51.5625 5.375 
Q 44.875 0.53125 33.796875 -1.171875 
L 29.984375 -20.796875 
L 21.046875 -20.796875 
z
" id="DejaVuSans-Oblique-968"/>
       <path d="M 16.890625 72.90625 
L 30.171875 72.90625 
L 50.296875 10.40625 
L 62.5 72.90625 
L 72.125 72.90625 
L 57.90625 0 
L 44.578125 0 
L 24.515625 62.890625 
L 12.3125 0 
L 2.6875 0 
z
" id="DejaVuSans-Oblique-78"/>
       <path d="M 15.484375 72.90625 
L 25.390625 72.90625 
L 16.796875 28.609375 
Q 16.265625 25.640625 16.046875 23.703125 
Q 15.828125 21.78125 15.828125 20.3125 
Q 15.828125 13.578125 19.578125 10.078125 
Q 23.34375 6.59375 30.609375 6.59375 
Q 40.046875 6.59375 45.28125 11.765625 
Q 50.53125 16.9375 52.78125 28.609375 
L 61.375 72.90625 
L 71.296875 72.90625 
L 62.5 27.390625 
Q 59.625 12.640625 51.5625 5.609375 
Q 43.5 -1.421875 29.5 -1.421875 
Q 18.5625 -1.421875 12.1875 4.078125 
Q 5.8125 9.578125 5.8125 19 
Q 5.8125 20.703125 6.046875 22.828125 
Q 6.296875 24.953125 6.78125 27.390625 
z
" id="DejaVuSans-Oblique-85"/>
       <path d="M 16.890625 72.90625 
L 31.6875 72.90625 
L 40.1875 23.78125 
L 68.40625 72.90625 
L 83.59375 72.90625 
L 69.390625 0 
L 59.8125 0 
L 72.21875 63.921875 
L 43.609375 14.015625 
L 33.984375 14.015625 
L 24.703125 64.109375 
L 12.3125 0 
L 2.6875 0 
z
" id="DejaVuSans-Oblique-77"/>
       <path d="M 33.015625 40.375 
Q 26.375 40.375 22.484375 35.828125 
Q 18.609375 31.296875 18.609375 23.390625 
Q 18.609375 15.53125 22.484375 10.953125 
Q 26.375 6.390625 33.015625 6.390625 
Q 39.65625 6.390625 43.53125 10.953125 
Q 47.40625 15.53125 47.40625 23.390625 
Q 47.40625 31.296875 43.53125 35.828125 
Q 39.65625 40.375 33.015625 40.375 
z
M 52.59375 71.296875 
L 52.59375 62.3125 
Q 48.875 64.0625 45.09375 64.984375 
Q 41.3125 65.921875 37.59375 65.921875 
Q 27.828125 65.921875 22.671875 59.328125 
Q 17.53125 52.734375 16.796875 39.40625 
Q 19.671875 43.65625 24.015625 45.921875 
Q 28.375 48.1875 33.59375 48.1875 
Q 44.578125 48.1875 50.953125 41.515625 
Q 57.328125 34.859375 57.328125 23.390625 
Q 57.328125 12.15625 50.6875 5.359375 
Q 44.046875 -1.421875 33.015625 -1.421875 
Q 20.359375 -1.421875 13.671875 8.265625 
Q 6.984375 17.96875 6.984375 36.375 
Q 6.984375 53.65625 15.1875 63.9375 
Q 23.390625 74.21875 37.203125 74.21875 
Q 40.921875 74.21875 44.703125 73.484375 
Q 48.484375 72.75 52.59375 71.296875 
z
" id="DejaVuSans-54"/>
       <path d="M 40.578125 39.3125 
Q 47.65625 37.796875 51.625 33 
Q 55.609375 28.21875 55.609375 21.1875 
Q 55.609375 10.40625 48.1875 4.484375 
Q 40.765625 -1.421875 27.09375 -1.421875 
Q 22.515625 -1.421875 17.65625 -0.515625 
Q 12.796875 0.390625 7.625 2.203125 
L 7.625 11.71875 
Q 11.71875 9.328125 16.59375 8.109375 
Q 21.484375 6.890625 26.8125 6.890625 
Q 36.078125 6.890625 40.9375 10.546875 
Q 45.796875 14.203125 45.796875 21.1875 
Q 45.796875 27.640625 41.28125 31.265625 
Q 36.765625 34.90625 28.71875 34.90625 
L 20.21875 34.90625 
L 20.21875 43.015625 
L 29.109375 43.015625 
Q 36.375 43.015625 40.234375 45.921875 
Q 44.09375 48.828125 44.09375 54.296875 
Q 44.09375 59.90625 40.109375 62.90625 
Q 36.140625 65.921875 28.71875 65.921875 
Q 24.65625 65.921875 20.015625 65.03125 
Q 15.375 64.15625 9.8125 62.3125 
L 9.8125 71.09375 
Q 15.4375 72.65625 20.34375 73.4375 
Q 25.25 74.21875 29.59375 74.21875 
Q 40.828125 74.21875 47.359375 69.109375 
Q 53.90625 64.015625 53.90625 55.328125 
Q 53.90625 49.265625 50.4375 45.09375 
Q 46.96875 40.921875 40.578125 39.3125 
z
" id="DejaVuSans-51"/>
      </defs>
      <use transform="translate(0 0.684375)" xlink:href="#DejaVuSans-Oblique-968"/>
      <use transform="translate(70.432943 38.965625)scale(0.7)" xlink:href="#DejaVuSans-Oblique-78"/>
      <use transform="translate(122.796224 38.965625)scale(0.7)" xlink:href="#DejaVuSans-Oblique-85"/>
      <use transform="translate(174.031576 38.965625)scale(0.7)" xlink:href="#DejaVuSans-Oblique-77"/>
      <use transform="translate(65.966797 -26.659375)scale(0.7)" xlink:href="#DejaVuSans-54"/>
      <use transform="translate(110.50293 -26.659375)scale(0.7)" xlink:href="#DejaVuSans-51"/>
     </g>
    </g>
    <g id="line2d_21">
     <path d="M 190.32 233.52 
L 214.32 233.52 
" style="fill:none;stroke:#ff7f0e;stroke-linecap:square;stroke-width:1.5;"/>
    </g>
    <g id="line2d_22"/>
    <g id="text_21">
     <!-- $\psi^{TH}_{63}$ -->
     <g transform="translate(223.92 237.72)scale(0.12 -0.12)">
      <defs>
       <path d="M 5.90625 72.90625 
L 67.578125 72.90625 
L 66.015625 64.59375 
L 39.984375 64.59375 
L 27.484375 0 
L 17.578125 0 
L 30.078125 64.59375 
L 4.296875 64.59375 
z
" id="DejaVuSans-Oblique-84"/>
       <path d="M 16.890625 72.90625 
L 26.8125 72.90625 
L 21 43.015625 
L 56.78125 43.015625 
L 62.59375 72.90625 
L 72.515625 72.90625 
L 58.296875 0 
L 48.390625 0 
L 55.171875 34.71875 
L 19.390625 34.71875 
L 12.59375 0 
L 2.6875 0 
z
" id="DejaVuSans-Oblique-72"/>
      </defs>
      <use transform="translate(0 0.684375)" xlink:href="#DejaVuSans-Oblique-968"/>
      <use transform="translate(70.432943 38.965625)scale(0.7)" xlink:href="#DejaVuSans-Oblique-84"/>
      <use transform="translate(113.191732 38.965625)scale(0.7)" xlink:href="#DejaVuSans-Oblique-72"/>
      <use transform="translate(65.966797 -26.659375)scale(0.7)" xlink:href="#DejaVuSans-54"/>
      <use transform="translate(110.50293 -26.659375)scale(0.7)" xlink:href="#DejaVuSans-51"/>
     </g>
    </g>
   </g>
  </g>
 </g>
 <defs>
  <clipPath id="p14a6324f61">
   <rect height="217.44" width="334.8" x="54" y="34.56"/>
  </clipPath>
 </defs>
</svg>
