<?xml version="1.0" encoding="utf-8" standalone="no"?>
<!DOCTYPE svg PUBLIC "-//W3C//DTD SVG 1.1//EN"
  "http://www.w3.org/Graphics/SVG/1.1/DTD/svg11.dtd">
<!-- Created with matplotlib (https://matplotlib.org/) -->
<svg height="288pt" version="1.1" viewBox="0 0 432 288" width="432pt" xmlns="http://www.w3.org/2000/svg" xmlns:xlink="http://www.w3.org/1999/xlink">
 <metadata>
  <rdf:RDF xmlns:cc="http://creativecommons.org/ns#" xmlns:dc="http://purl.org/dc/elements/1.1/" xmlns:rdf="http://www.w3.org/1999/02/22-rdf-syntax-ns#">
   <cc:Work>
    <dc:type rdf:resource="http://purl.org/dc/dcmitype/StillImage"/>
    <dc:date>2021-11-23T18:23:20.696986</dc:date>
    <dc:format>image/svg+xml</dc:format>
    <dc:creator>
     <cc:Agent>
      <dc:title>Matplotlib v3.3.4, https://matplotlib.org/</dc:title>
     </cc:Agent>
    </dc:creator>
   </cc:Work>
  </rdf:RDF>
 </metadata>
 <defs>
  <style type="text/css">*{stroke-linecap:butt;stroke-linejoin:round;}</style>
 </defs>
 <g id="figure_1">
  <g id="patch_1">
   <path d="M 0 288 
L 432 288 
L 432 0 
L 0 0 
z
" style="fill:none;"/>
  </g>
  <g id="axes_1">
   <g id="patch_2">
    <path d="M 54 252 
L 388.8 252 
L 388.8 34.56 
L 54 34.56 
z
" style="fill:#ffffff;"/>
   </g>
   <g id="matplotlib.axis_1">
    <g id="xtick_1">
     <g id="line2d_1">
      <defs>
       <path d="M 0 0 
L 0 3.5 
" id="mced7451404" style="stroke:#000000;stroke-width:0.8;"/>
      </defs>
      <g>
       <use style="stroke:#000000;stroke-width:0.8;" x="54" xlink:href="#mced7451404" y="252"/>
      </g>
     </g>
     <g id="text_1">
      <!-- −10.0 -->
      <g transform="translate(38.677344 266.598437)scale(0.1 -0.1)">
       <defs>
        <path d="M 10.59375 35.5 
L 73.1875 35.5 
L 73.1875 27.203125 
L 10.59375 27.203125 
z
" id="DejaVuSans-8722"/>
        <path d="M 12.40625 8.296875 
L 28.515625 8.296875 
L 28.515625 63.921875 
L 10.984375 60.40625 
L 10.984375 69.390625 
L 28.421875 72.90625 
L 38.28125 72.90625 
L 38.28125 8.296875 
L 54.390625 8.296875 
L 54.390625 0 
L 12.40625 0 
z
" id="DejaVuSans-49"/>
        <path d="M 31.78125 66.40625 
Q 24.171875 66.40625 20.328125 58.90625 
Q 16.5 51.421875 16.5 36.375 
Q 16.5 21.390625 20.328125 13.890625 
Q 24.171875 6.390625 31.78125 6.390625 
Q 39.453125 6.390625 43.28125 13.890625 
Q 47.125 21.390625 47.125 36.375 
Q 47.125 51.421875 43.28125 58.90625 
Q 39.453125 66.40625 31.78125 66.40625 
z
M 31.78125 74.21875 
Q 44.046875 74.21875 50.515625 64.515625 
Q 56.984375 54.828125 56.984375 36.375 
Q 56.984375 17.96875 50.515625 8.265625 
Q 44.046875 -1.421875 31.78125 -1.421875 
Q 19.53125 -1.421875 13.0625 8.265625 
Q 6.59375 17.96875 6.59375 36.375 
Q 6.59375 54.828125 13.0625 64.515625 
Q 19.53125 74.21875 31.78125 74.21875 
z
" id="DejaVuSans-48"/>
        <path d="M 10.6875 12.40625 
L 21 12.40625 
L 21 0 
L 10.6875 0 
z
" id="DejaVuSans-46"/>
       </defs>
       <use xlink:href="#DejaVuSans-8722"/>
       <use x="83.789062" xlink:href="#DejaVuSans-49"/>
       <use x="147.412109" xlink:href="#DejaVuSans-48"/>
       <use x="211.035156" xlink:href="#DejaVuSans-46"/>
       <use x="242.822266" xlink:href="#DejaVuSans-48"/>
      </g>
     </g>
    </g>
    <g id="xtick_2">
     <g id="line2d_2">
      <g>
       <use style="stroke:#000000;stroke-width:0.8;" x="95.85" xlink:href="#mced7451404" y="252"/>
      </g>
     </g>
     <g id="text_2">
      <!-- −7.5 -->
      <g transform="translate(83.708594 266.598437)scale(0.1 -0.1)">
       <defs>
        <path d="M 8.203125 72.90625 
L 55.078125 72.90625 
L 55.078125 68.703125 
L 28.609375 0 
L 18.3125 0 
L 43.21875 64.59375 
L 8.203125 64.59375 
z
" id="DejaVuSans-55"/>
        <path d="M 10.796875 72.90625 
L 49.515625 72.90625 
L 49.515625 64.59375 
L 19.828125 64.59375 
L 19.828125 46.734375 
Q 21.96875 47.46875 24.109375 47.828125 
Q 26.265625 48.1875 28.421875 48.1875 
Q 40.625 48.1875 47.75 41.5 
Q 54.890625 34.8125 54.890625 23.390625 
Q 54.890625 11.625 47.5625 5.09375 
Q 40.234375 -1.421875 26.90625 -1.421875 
Q 22.3125 -1.421875 17.546875 -0.640625 
Q 12.796875 0.140625 7.71875 1.703125 
L 7.71875 11.625 
Q 12.109375 9.234375 16.796875 8.0625 
Q 21.484375 6.890625 26.703125 6.890625 
Q 35.15625 6.890625 40.078125 11.328125 
Q 45.015625 15.765625 45.015625 23.390625 
Q 45.015625 31 40.078125 35.4375 
Q 35.15625 39.890625 26.703125 39.890625 
Q 22.75 39.890625 18.8125 39.015625 
Q 14.890625 38.140625 10.796875 36.28125 
z
" id="DejaVuSans-53"/>
       </defs>
       <use xlink:href="#DejaVuSans-8722"/>
       <use x="83.789062" xlink:href="#DejaVuSans-55"/>
       <use x="147.412109" xlink:href="#DejaVuSans-46"/>
       <use x="179.199219" xlink:href="#DejaVuSans-53"/>
      </g>
     </g>
    </g>
    <g id="xtick_3">
     <g id="line2d_3">
      <g>
       <use style="stroke:#000000;stroke-width:0.8;" x="137.7" xlink:href="#mced7451404" y="252"/>
      </g>
     </g>
     <g id="text_3">
      <!-- −5.0 -->
      <g transform="translate(125.558594 266.598437)scale(0.1 -0.1)">
       <use xlink:href="#DejaVuSans-8722"/>
       <use x="83.789062" xlink:href="#DejaVuSans-53"/>
       <use x="147.412109" xlink:href="#DejaVuSans-46"/>
       <use x="179.199219" xlink:href="#DejaVuSans-48"/>
      </g>
     </g>
    </g>
    <g id="xtick_4">
     <g id="line2d_4">
      <g>
       <use style="stroke:#000000;stroke-width:0.8;" x="179.55" xlink:href="#mced7451404" y="252"/>
      </g>
     </g>
     <g id="text_4">
      <!-- −2.5 -->
      <g transform="translate(167.408594 266.598437)scale(0.1 -0.1)">
       <defs>
        <path d="M 19.1875 8.296875 
L 53.609375 8.296875 
L 53.609375 0 
L 7.328125 0 
L 7.328125 8.296875 
Q 12.9375 14.109375 22.625 23.890625 
Q 32.328125 33.6875 34.8125 36.53125 
Q 39.546875 41.84375 41.421875 45.53125 
Q 43.3125 49.21875 43.3125 52.78125 
Q 43.3125 58.59375 39.234375 62.25 
Q 35.15625 65.921875 28.609375 65.921875 
Q 23.96875 65.921875 18.8125 64.3125 
Q 13.671875 62.703125 7.8125 59.421875 
L 7.8125 69.390625 
Q 13.765625 71.78125 18.9375 73 
Q 24.125 74.21875 28.421875 74.21875 
Q 39.75 74.21875 46.484375 68.546875 
Q 53.21875 62.890625 53.21875 53.421875 
Q 53.21875 48.921875 51.53125 44.890625 
Q 49.859375 40.875 45.40625 35.40625 
Q 44.1875 33.984375 37.640625 27.21875 
Q 31.109375 20.453125 19.1875 8.296875 
z
" id="DejaVuSans-50"/>
       </defs>
       <use xlink:href="#DejaVuSans-8722"/>
       <use x="83.789062" xlink:href="#DejaVuSans-50"/>
       <use x="147.412109" xlink:href="#DejaVuSans-46"/>
       <use x="179.199219" xlink:href="#DejaVuSans-53"/>
      </g>
     </g>
    </g>
    <g id="xtick_5">
     <g id="line2d_5">
      <g>
       <use style="stroke:#000000;stroke-width:0.8;" x="221.4" xlink:href="#mced7451404" y="252"/>
      </g>
     </g>
     <g id="text_5">
      <!-- 0.0 -->
      <g transform="translate(213.448438 266.598437)scale(0.1 -0.1)">
       <use xlink:href="#DejaVuSans-48"/>
       <use x="63.623047" xlink:href="#DejaVuSans-46"/>
       <use x="95.410156" xlink:href="#DejaVuSans-48"/>
      </g>
     </g>
    </g>
    <g id="xtick_6">
     <g id="line2d_6">
      <g>
       <use style="stroke:#000000;stroke-width:0.8;" x="263.25" xlink:href="#mced7451404" y="252"/>
      </g>
     </g>
     <g id="text_6">
      <!-- 2.5 -->
      <g transform="translate(255.298438 266.598437)scale(0.1 -0.1)">
       <use xlink:href="#DejaVuSans-50"/>
       <use x="63.623047" xlink:href="#DejaVuSans-46"/>
       <use x="95.410156" xlink:href="#DejaVuSans-53"/>
      </g>
     </g>
    </g>
    <g id="xtick_7">
     <g id="line2d_7">
      <g>
       <use style="stroke:#000000;stroke-width:0.8;" x="305.1" xlink:href="#mced7451404" y="252"/>
      </g>
     </g>
     <g id="text_7">
      <!-- 5.0 -->
      <g transform="translate(297.148438 266.598437)scale(0.1 -0.1)">
       <use xlink:href="#DejaVuSans-53"/>
       <use x="63.623047" xlink:href="#DejaVuSans-46"/>
       <use x="95.410156" xlink:href="#DejaVuSans-48"/>
      </g>
     </g>
    </g>
    <g id="xtick_8">
     <g id="line2d_8">
      <g>
       <use style="stroke:#000000;stroke-width:0.8;" x="346.95" xlink:href="#mced7451404" y="252"/>
      </g>
     </g>
     <g id="text_8">
      <!-- 7.5 -->
      <g transform="translate(338.998438 266.598437)scale(0.1 -0.1)">
       <use xlink:href="#DejaVuSans-55"/>
       <use x="63.623047" xlink:href="#DejaVuSans-46"/>
       <use x="95.410156" xlink:href="#DejaVuSans-53"/>
      </g>
     </g>
    </g>
    <g id="xtick_9">
     <g id="line2d_9">
      <g>
       <use style="stroke:#000000;stroke-width:0.8;" x="388.8" xlink:href="#mced7451404" y="252"/>
      </g>
     </g>
     <g id="text_9">
      <!-- 10.0 -->
      <g transform="translate(377.667188 266.598437)scale(0.1 -0.1)">
       <use xlink:href="#DejaVuSans-49"/>
       <use x="63.623047" xlink:href="#DejaVuSans-48"/>
       <use x="127.246094" xlink:href="#DejaVuSans-46"/>
       <use x="159.033203" xlink:href="#DejaVuSans-48"/>
      </g>
     </g>
    </g>
    <g id="text_10">
     <!-- x -->
     <g transform="translate(218.440625 280.276563)scale(0.1 -0.1)">
      <defs>
       <path d="M 54.890625 54.6875 
L 35.109375 28.078125 
L 55.90625 0 
L 45.3125 0 
L 29.390625 21.484375 
L 13.484375 0 
L 2.875 0 
L 24.125 28.609375 
L 4.6875 54.6875 
L 15.28125 54.6875 
L 29.78125 35.203125 
L 44.28125 54.6875 
z
" id="DejaVuSans-120"/>
      </defs>
      <use xlink:href="#DejaVuSans-120"/>
     </g>
    </g>
   </g>
   <g id="matplotlib.axis_2">
    <g id="ytick_1">
     <g id="line2d_10">
      <defs>
       <path d="M 0 0 
L -3.5 0 
" id="mdff449f30e" style="stroke:#000000;stroke-width:0.8;"/>
      </defs>
      <g>
       <use style="stroke:#000000;stroke-width:0.8;" x="54" xlink:href="#mdff449f30e" y="248.641569"/>
      </g>
     </g>
     <g id="text_11">
      <!-- −1.5 -->
      <g transform="translate(22.717187 252.440788)scale(0.1 -0.1)">
       <use xlink:href="#DejaVuSans-8722"/>
       <use x="83.789062" xlink:href="#DejaVuSans-49"/>
       <use x="147.412109" xlink:href="#DejaVuSans-46"/>
       <use x="179.199219" xlink:href="#DejaVuSans-53"/>
      </g>
     </g>
    </g>
    <g id="ytick_2">
     <g id="line2d_11">
      <g>
       <use style="stroke:#000000;stroke-width:0.8;" x="54" xlink:href="#mdff449f30e" y="213.521046"/>
      </g>
     </g>
     <g id="text_12">
      <!-- −1.0 -->
      <g transform="translate(22.717187 217.320265)scale(0.1 -0.1)">
       <use xlink:href="#DejaVuSans-8722"/>
       <use x="83.789062" xlink:href="#DejaVuSans-49"/>
       <use x="147.412109" xlink:href="#DejaVuSans-46"/>
       <use x="179.199219" xlink:href="#DejaVuSans-48"/>
      </g>
     </g>
    </g>
    <g id="ytick_3">
     <g id="line2d_12">
      <g>
       <use style="stroke:#000000;stroke-width:0.8;" x="54" xlink:href="#mdff449f30e" y="178.400523"/>
      </g>
     </g>
     <g id="text_13">
      <!-- −0.5 -->
      <g transform="translate(22.717187 182.199742)scale(0.1 -0.1)">
       <use xlink:href="#DejaVuSans-8722"/>
       <use x="83.789062" xlink:href="#DejaVuSans-48"/>
       <use x="147.412109" xlink:href="#DejaVuSans-46"/>
       <use x="179.199219" xlink:href="#DejaVuSans-53"/>
      </g>
     </g>
    </g>
    <g id="ytick_4">
     <g id="line2d_13">
      <g>
       <use style="stroke:#000000;stroke-width:0.8;" x="54" xlink:href="#mdff449f30e" y="143.28"/>
      </g>
     </g>
     <g id="text_14">
      <!-- 0.0 -->
      <g transform="translate(31.096875 147.079219)scale(0.1 -0.1)">
       <use xlink:href="#DejaVuSans-48"/>
       <use x="63.623047" xlink:href="#DejaVuSans-46"/>
       <use x="95.410156" xlink:href="#DejaVuSans-48"/>
      </g>
     </g>
    </g>
    <g id="ytick_5">
     <g id="line2d_14">
      <g>
       <use style="stroke:#000000;stroke-width:0.8;" x="54" xlink:href="#mdff449f30e" y="108.159477"/>
      </g>
     </g>
     <g id="text_15">
      <!-- 0.5 -->
      <g transform="translate(31.096875 111.958696)scale(0.1 -0.1)">
       <use xlink:href="#DejaVuSans-48"/>
       <use x="63.623047" xlink:href="#DejaVuSans-46"/>
       <use x="95.410156" xlink:href="#DejaVuSans-53"/>
      </g>
     </g>
    </g>
    <g id="ytick_6">
     <g id="line2d_15">
      <g>
       <use style="stroke:#000000;stroke-width:0.8;" x="54" xlink:href="#mdff449f30e" y="73.038954"/>
      </g>
     </g>
     <g id="text_16">
      <!-- 1.0 -->
      <g transform="translate(31.096875 76.838173)scale(0.1 -0.1)">
       <use xlink:href="#DejaVuSans-49"/>
       <use x="63.623047" xlink:href="#DejaVuSans-46"/>
       <use x="95.410156" xlink:href="#DejaVuSans-48"/>
      </g>
     </g>
    </g>
    <g id="ytick_7">
     <g id="line2d_16">
      <g>
       <use style="stroke:#000000;stroke-width:0.8;" x="54" xlink:href="#mdff449f30e" y="37.918431"/>
      </g>
     </g>
     <g id="text_17">
      <!-- 1.5 -->
      <g transform="translate(31.096875 41.717649)scale(0.1 -0.1)">
       <use xlink:href="#DejaVuSans-49"/>
       <use x="63.623047" xlink:href="#DejaVuSans-46"/>
       <use x="95.410156" xlink:href="#DejaVuSans-53"/>
      </g>
     </g>
    </g>
    <g id="text_18">
     <!-- 1e−1 -->
     <g transform="translate(54 31.56)scale(0.1 -0.1)">
      <defs>
       <path d="M 56.203125 29.59375 
L 56.203125 25.203125 
L 14.890625 25.203125 
Q 15.484375 15.921875 20.484375 11.0625 
Q 25.484375 6.203125 34.421875 6.203125 
Q 39.59375 6.203125 44.453125 7.46875 
Q 49.3125 8.734375 54.109375 11.28125 
L 54.109375 2.78125 
Q 49.265625 0.734375 44.1875 -0.34375 
Q 39.109375 -1.421875 33.890625 -1.421875 
Q 20.796875 -1.421875 13.15625 6.1875 
Q 5.515625 13.8125 5.515625 26.8125 
Q 5.515625 40.234375 12.765625 48.109375 
Q 20.015625 56 32.328125 56 
Q 43.359375 56 49.78125 48.890625 
Q 56.203125 41.796875 56.203125 29.59375 
z
M 47.21875 32.234375 
Q 47.125 39.59375 43.09375 43.984375 
Q 39.0625 48.390625 32.421875 48.390625 
Q 24.90625 48.390625 20.390625 44.140625 
Q 15.875 39.890625 15.1875 32.171875 
z
" id="DejaVuSans-101"/>
      </defs>
      <use xlink:href="#DejaVuSans-49"/>
      <use x="63.623047" xlink:href="#DejaVuSans-101"/>
      <use x="125.146484" xlink:href="#DejaVuSans-8722"/>
      <use x="208.935547" xlink:href="#DejaVuSans-49"/>
     </g>
    </g>
   </g>
   <g id="line2d_17">
    <path clip-path="url(#p395b996c39)" d="M -1 143.173214 
L 2.106 142.965344 
L 3.78 142.725818 
L 5.454 142.324993 
L 7.128 141.670944 
L 8.802 140.631595 
L 10.476 139.025605 
L 12.15 136.616999 
L 13.824 133.118618 
L 15.498 128.211301 
L 17.172 121.586815 
L 18.846 113.021745 
L 20.52 102.48517 
L 22.194 90.273724 
L 25.542 64.46485 
L 27.216 54.144703 
L 28.89 48.579396 
L 30.564 50.253388 
L 32.238 61.169031 
L 33.912 82.105827 
L 35.586 111.884986 
L 38.934 181.235038 
L 40.608 207.565271 
L 42.282 218.946355 
L 43.956 211.104844 
L 45.63 184.588175 
L 48.978 106.25577 
L 50.652 79.20142 
L 52.326 75.122078 
L 54 96.863954 
L 57.348 179.961241 
L 59.022 206.712909 
L 60.696 204.409507 
L 62.37 172.9263 
L 64.044 126.725363 
L 65.718 89.055763 
L 67.392 80.344299 
L 69.066 106.407575 
L 70.74 153.519256 
L 72.414 194.600588 
L 74.088 204.538322 
L 75.762 176.217535 
L 77.436 126.749401 
L 79.11 88.180615 
L 80.784 86.883481 
L 82.458 124.68854 
L 84.132 175.694358 
L 85.806 203.149723 
L 87.48 186.131229 
L 89.154 136.591049 
L 90.828 92.233763 
L 92.502 88.230778 
L 94.176 128.599887 
L 95.85 181.026418 
L 97.524 201.880182 
L 99.198 172.845025 
L 100.872 118.205252 
L 102.546 85.644896 
L 104.22 104.658969 
L 105.894 158.777399 
L 107.568 198.594144 
L 109.242 186.60675 
L 110.916 133.457041 
L 112.59 89.770222 
L 114.264 98.332707 
L 115.938 151.363534 
L 117.612 196.294302 
L 119.286 187.439726 
L 120.96 133.24 
L 122.634 89.471272 
L 124.308 102.247128 
L 125.982 158.622225 
L 127.656 198.519097 
L 129.33 178.462544 
L 131.004 119.830299 
L 132.678 87.164941 
L 134.352 117.238693 
L 136.026 176.701206 
L 137.7 198.102179 
L 139.374 156.515536 
L 141.048 99.590969 
L 142.722 93.718963 
L 144.396 146.232037 
L 146.07 195.240027 
L 147.744 182.080751 
L 149.418 122.153221 
L 151.092 87.874533 
L 152.766 121.331462 
L 154.44 181.803619 
L 156.114 194.547167 
L 159.462 92.078841 
L 161.136 105.407252 
L 162.81 166.809208 
L 164.484 198.177446 
L 166.158 159.093371 
L 167.832 99.60935 
L 169.506 96.746249 
L 171.18 154.509369 
L 172.854 197.573873 
L 174.528 169.250403 
L 176.202 106.63187 
L 177.876 92.61037 
L 179.55 146.047576 
L 181.224 195.786071 
L 182.898 175.095857 
L 184.572 111.580095 
L 186.246 90.876453 
L 189.594 194.331845 
L 191.268 177.916543 
L 192.942 114.168875 
L 194.616 90.304732 
L 196.29 139.19386 
L 197.964 193.707331 
L 199.638 178.664159 
L 201.312 114.718521 
L 202.986 90.317509 
L 204.66 139.36721 
L 206.334 193.851558 
L 208.008 177.998753 
L 209.682 113.798555 
L 211.356 90.696788 
L 214.704 194.467002 
L 216.378 176.441459 
L 218.052 112.054734 
L 219.726 91.337922 
L 223.074 195.222067 
L 224.748 174.505298 
L 226.422 110.118572 
L 228.096 92.092985 
L 231.444 195.863201 
L 233.118 172.761478 
L 234.792 108.561277 
L 236.466 92.708428 
L 238.14 147.192751 
L 239.814 196.242482 
L 241.488 171.841513 
L 243.162 107.895871 
L 244.836 92.852654 
L 246.51 147.366101 
L 248.184 196.255259 
L 249.858 172.391158 
L 251.532 108.643488 
L 253.206 92.228141 
L 256.554 195.683536 
L 258.228 174.979937 
L 259.902 111.464175 
L 261.576 90.773917 
L 263.25 140.512385 
L 264.924 193.949615 
L 266.598 179.928159 
L 268.272 117.309632 
L 269.946 88.986121 
L 271.62 132.050593 
L 273.294 189.81373 
L 274.968 186.950674 
L 276.642 127.466667 
L 278.316 88.382557 
L 279.99 119.750756 
L 281.664 181.152719 
L 283.338 194.481174 
L 286.686 92.012848 
L 288.36 104.756352 
L 290.034 165.228501 
L 291.708 198.685467 
L 293.382 164.406816 
L 295.056 104.479277 
L 296.73 91.319959 
L 298.404 140.327923 
L 300.078 192.841018 
L 301.752 186.969056 
L 303.426 130.044503 
L 305.1 88.457828 
L 306.774 109.858762 
L 308.448 169.321271 
L 310.122 199.39506 
L 311.796 166.729737 
L 313.47 108.097488 
L 315.144 88.040895 
L 316.818 127.937736 
L 318.492 184.312844 
L 320.166 197.08874 
L 321.84 153.32004 
L 323.514 99.120299 
L 325.188 90.265683 
L 326.862 135.196425 
L 328.536 188.227267 
L 330.21 196.789793 
L 331.884 153.102999 
L 333.558 99.953277 
L 335.232 87.965844 
L 336.906 127.782561 
L 338.58 181.901 
L 340.254 200.91511 
L 341.928 168.354768 
L 343.602 113.714991 
L 345.276 84.679817 
L 346.95 105.533546 
L 348.624 157.960072 
L 350.298 198.329206 
L 351.972 194.326258 
L 353.646 149.968993 
L 355.32 100.428803 
L 356.994 83.410275 
L 358.668 110.865626 
L 360.342 161.871441 
L 362.016 199.676511 
L 363.69 198.379411 
L 365.364 159.810641 
L 367.038 110.342485 
L 368.712 82.021664 
L 370.386 91.959372 
L 372.06 133.040687 
L 373.734 180.152384 
L 375.408 206.215688 
L 377.082 197.50426 
L 378.756 159.834683 
L 380.43 113.633755 
L 382.104 82.15053 
L 383.778 79.847111 
L 385.452 106.598733 
L 388.8 189.695996 
L 390.474 211.437891 
L 392.148 207.358559 
L 393.822 180.304246 
L 397.17 101.971868 
L 398.844 75.455194 
L 400.518 67.613687 
L 402.192 78.994742 
L 403.866 105.324963 
L 407.214 174.67497 
L 408.888 204.454097 
L 410.562 225.390873 
L 412.236 236.306481 
L 413.91 237.980481 
L 415.584 232.415191 
L 417.258 222.095038 
L 422.28 184.074746 
L 423.954 173.538197 
L 425.628 164.97314 
L 427.302 158.34867 
L 428.976 153.441361 
L 430.65 149.942988 
L 432.324 147.534387 
L 433 146.885852 
L 433 146.885852 
" style="fill:none;stroke:#1f77b4;stroke-linecap:square;stroke-width:1.5;"/>
   </g>
   <g id="line2d_18">
    <path clip-path="url(#p395b996c39)" d="M -1 143.872852 
L 0.432 144.213172 
L 2.106 144.868751 
L 3.78 145.91975 
L 5.454 147.556495 
L 7.128 150.028127 
L 8.802 153.639388 
L 10.476 158.730536 
L 12.15 165.631654 
L 13.824 174.583606 
L 15.498 185.622706 
L 17.172 198.436336 
L 20.52 225.528525 
L 22.194 236.335218 
L 23.868 242.116364 
L 25.542 240.270208 
L 27.216 228.727669 
L 28.89 206.731194 
L 30.564 175.593472 
L 33.912 103.641921 
L 35.586 76.638081 
L 37.26 65.248188 
L 38.934 73.715616 
L 40.608 101.269618 
L 43.956 181.531524 
L 45.63 208.934185 
L 47.304 212.883144 
L 48.978 190.695034 
L 52.326 106.466741 
L 54 79.133143 
L 55.674 80.82965 
L 57.348 111.835434 
L 59.022 158.065398 
L 60.696 196.669198 
L 62.37 207.226957 
L 64.044 183.20164 
L 65.718 137.003051 
L 67.392 94.558165 
L 69.066 81.03893 
L 70.74 105.362609 
L 72.414 153.251534 
L 74.088 194.615402 
L 75.762 202.217985 
L 77.436 170.268489 
L 79.11 119.902013 
L 80.784 86.074249 
L 82.458 93.29784 
L 84.132 137.011588 
L 85.806 185.26843 
L 87.48 201.514995 
L 89.154 172.696892 
L 90.828 120.813484 
L 92.502 87.054772 
L 94.176 99.139462 
L 95.85 147.689314 
L 97.524 192.407053 
L 99.198 195.125888 
L 100.872 152.989231 
L 102.546 102.442178 
L 104.22 88.347348 
L 105.894 123.803924 
L 107.568 176.957127 
L 109.242 198.841493 
L 110.916 168.668771 
L 112.59 114.521186 
L 114.264 88.052743 
L 115.938 115.150464 
L 117.612 169.736451 
L 119.286 198.015132 
L 120.96 171.499508 
L 122.634 116.54108 
L 124.308 88.966928 
L 125.982 117.359775 
L 127.656 172.620904 
L 129.33 197.01797 
L 131.004 164.555904 
L 132.678 109.475631 
L 134.352 90.834121 
L 136.026 129.044491 
L 137.7 182.724995 
L 139.374 192.922708 
L 141.048 148.102997 
L 142.722 97.980454 
L 144.396 98.833278 
L 146.07 149.948932 
L 147.744 193.390003 
L 149.418 179.367856 
L 151.092 123.782961 
L 152.766 90.882962 
L 154.44 119.114571 
L 156.114 175.632051 
L 157.788 193.941241 
L 159.462 152.209192 
L 161.136 99.902632 
L 162.81 99.562199 
L 164.484 151.772648 
L 166.158 193.66292 
L 167.832 174.397624 
L 169.506 117.255481 
L 171.18 92.00448 
L 172.854 129.734033 
L 174.528 184.11708 
L 176.202 187.933674 
L 177.876 136.322252 
L 179.55 93.425335 
L 181.224 112.855316 
L 182.898 170.397059 
L 184.572 193.806059 
L 186.246 153.510714 
L 187.92 100.316926 
L 189.594 101.598006 
L 191.268 155.817896 
L 192.942 194.041105 
L 194.616 167.483002 
L 196.29 110.001697 
L 197.964 95.173141 
L 201.312 190.502017 
L 202.986 178.129838 
L 204.66 120.8451 
L 206.334 92.534725 
L 208.008 129.798353 
L 209.682 184.487691 
L 211.356 185.817207 
L 213.03 132.035921 
L 214.704 92.84209 
L 216.378 119.08098 
L 218.052 176.721029 
L 219.726 190.945252 
L 223.074 95.614748 
L 224.748 109.838971 
L 226.422 167.47902 
L 228.096 193.71791 
L 229.77 154.524079 
L 231.444 100.742793 
L 233.118 102.072309 
L 234.792 156.761647 
L 236.466 194.025275 
L 238.14 165.7149 
L 239.814 108.430162 
L 241.488 96.057983 
L 244.836 191.386859 
L 246.51 176.558303 
L 248.184 119.076998 
L 249.858 92.518895 
L 251.532 130.742104 
L 253.206 184.961994 
L 254.88 186.243074 
L 256.554 133.049286 
L 258.228 92.753941 
L 259.902 116.162941 
L 261.576 173.704684 
L 263.25 193.134665 
L 264.924 150.237748 
L 266.598 98.626326 
L 268.272 102.44292 
L 269.946 156.825967 
L 271.62 194.55552 
L 273.294 169.304519 
L 274.968 112.162376 
L 276.642 92.89708 
L 278.316 134.787352 
L 279.99 186.997801 
L 281.664 186.657368 
L 283.338 134.350808 
L 285.012 92.618759 
L 286.686 110.927949 
L 288.36 167.445429 
L 290.034 195.677038 
L 291.708 162.777039 
L 293.382 107.192144 
L 295.056 93.169997 
L 296.73 136.611068 
L 298.404 187.726722 
L 300.078 188.579546 
L 301.752 138.457003 
L 303.426 93.637292 
L 305.1 103.835005 
L 306.774 157.515509 
L 308.448 195.725879 
L 310.122 177.084369 
L 311.796 122.004096 
L 313.47 89.54203 
L 315.144 113.939096 
L 316.818 169.200225 
L 318.492 197.593072 
L 320.166 170.01892 
L 321.84 115.060492 
L 323.514 88.544868 
L 325.188 116.823549 
L 326.862 171.409536 
L 328.536 198.507257 
L 330.21 172.038814 
L 331.884 117.891229 
L 333.558 87.718507 
L 335.232 109.602873 
L 336.906 162.756076 
L 338.58 198.212652 
L 340.254 184.117822 
L 341.928 133.570769 
L 343.602 91.434112 
L 345.276 94.152947 
L 346.95 138.870686 
L 348.624 187.420538 
L 350.298 199.505228 
L 351.972 165.746516 
L 353.646 113.863108 
L 355.32 85.045005 
L 356.994 101.29157 
L 358.668 149.548412 
L 360.342 193.26216 
L 362.016 200.485751 
L 363.69 166.657987 
L 365.364 116.291511 
L 367.038 84.342015 
L 368.712 91.944598 
L 370.386 133.308466 
L 372.06 181.197391 
L 373.734 205.52107 
L 375.408 192.001835 
L 377.082 149.556949 
L 378.756 103.35836 
L 380.43 79.333043 
L 382.104 89.890802 
L 383.778 128.494602 
L 385.452 174.724566 
L 387.126 205.73035 
L 388.8 207.426857 
L 390.474 180.093259 
L 393.822 95.864966 
L 395.496 73.676856 
L 397.17 77.625815 
L 398.844 105.028476 
L 402.192 185.290382 
L 403.866 212.844384 
L 405.54 221.311812 
L 407.214 209.921919 
L 408.888 182.918079 
L 412.236 110.966528 
L 413.91 79.828806 
L 415.584 57.832331 
L 417.258 46.289792 
L 418.932 44.443636 
L 420.606 50.224782 
L 422.28 61.031475 
L 427.302 100.937294 
L 428.976 111.976394 
L 430.65 120.928346 
L 432.324 127.829464 
L 433 129.885387 
L 433 129.885387 
" style="fill:none;stroke:#ff7f0e;stroke-linecap:square;stroke-width:1.5;"/>
   </g>
   <g id="patch_3">
    <path d="M 54 252 
L 54 34.56 
" style="fill:none;stroke:#000000;stroke-linecap:square;stroke-linejoin:miter;stroke-width:0.8;"/>
   </g>
   <g id="patch_4">
    <path d="M 388.8 252 
L 388.8 34.56 
" style="fill:none;stroke:#000000;stroke-linecap:square;stroke-linejoin:miter;stroke-width:0.8;"/>
   </g>
   <g id="patch_5">
    <path d="M 54 252 
L 388.8 252 
" style="fill:none;stroke:#000000;stroke-linecap:square;stroke-linejoin:miter;stroke-width:0.8;"/>
   </g>
   <g id="patch_6">
    <path d="M 54 34.56 
L 388.8 34.56 
" style="fill:none;stroke:#000000;stroke-linecap:square;stroke-linejoin:miter;stroke-width:0.8;"/>
   </g>
   <g id="text_19">
    <!-- N=500, L=50 -->
    <g transform="translate(180.61125 28.56)scale(0.12 -0.12)">
     <defs>
      <path d="M 9.8125 72.90625 
L 23.09375 72.90625 
L 55.421875 11.921875 
L 55.421875 72.90625 
L 64.984375 72.90625 
L 64.984375 0 
L 51.703125 0 
L 19.390625 60.984375 
L 19.390625 0 
L 9.8125 0 
z
" id="DejaVuSans-78"/>
      <path d="M 10.59375 45.40625 
L 73.1875 45.40625 
L 73.1875 37.203125 
L 10.59375 37.203125 
z
M 10.59375 25.484375 
L 73.1875 25.484375 
L 73.1875 17.1875 
L 10.59375 17.1875 
z
" id="DejaVuSans-61"/>
      <path d="M 11.71875 12.40625 
L 22.015625 12.40625 
L 22.015625 4 
L 14.015625 -11.625 
L 7.71875 -11.625 
L 11.71875 4 
z
" id="DejaVuSans-44"/>
      <path id="DejaVuSans-32"/>
      <path d="M 9.8125 72.90625 
L 19.671875 72.90625 
L 19.671875 8.296875 
L 55.171875 8.296875 
L 55.171875 0 
L 9.8125 0 
z
" id="DejaVuSans-76"/>
     </defs>
     <use xlink:href="#DejaVuSans-78"/>
     <use x="74.804688" xlink:href="#DejaVuSans-61"/>
     <use x="158.59375" xlink:href="#DejaVuSans-53"/>
     <use x="222.216797" xlink:href="#DejaVuSans-48"/>
     <use x="285.839844" xlink:href="#DejaVuSans-48"/>
     <use x="349.462891" xlink:href="#DejaVuSans-44"/>
     <use x="381.25" xlink:href="#DejaVuSans-32"/>
     <use x="413.037109" xlink:href="#DejaVuSans-76"/>
     <use x="468.75" xlink:href="#DejaVuSans-61"/>
     <use x="552.539062" xlink:href="#DejaVuSans-53"/>
     <use x="616.162109" xlink:href="#DejaVuSans-48"/>
    </g>
   </g>
   <g id="legend_1">
    <g id="patch_7">
     <path d="M 187.92 246 
L 254.88 246 
Q 257.28 246 257.28 243.6 
L 257.28 204.24 
Q 257.28 201.84 254.88 201.84 
L 187.92 201.84 
Q 185.52 201.84 185.52 204.24 
L 185.52 243.6 
Q 185.52 246 187.92 246 
z
" style="fill:#ffffff;opacity:0.8;stroke:#cccccc;stroke-linejoin:miter;"/>
    </g>
    <g id="line2d_19">
     <path d="M 190.32 213.24 
L 214.32 213.24 
" style="fill:none;stroke:#1f77b4;stroke-linecap:square;stroke-width:1.5;"/>
    </g>
    <g id="line2d_20"/>
    <g id="text_20">
     <!-- $\psi^{NUM}_{73}$ -->
     <g transform="translate(223.92 217.44)scale(0.12 -0.12)">
      <defs>
       <path d="M 24.859375 -1.21875 
Q 13.921875 0.59375 9.625 5.328125 
Q 4.34375 11.140625 6.640625 23 
L 12.796875 54.6875 
L 21.875 54.6875 
L 15.765625 23.34375 
Q 14.0625 14.40625 17.484375 10.6875 
Q 20.515625 7.46875 26.421875 6.78125 
L 35.6875 54.6875 
L 44.625 54.6875 
L 35.359375 6.84375 
Q 41.890625 7.515625 45.75 10.75 
Q 50.734375 14.84375 52.390625 23.390625 
L 58.453125 54.6875 
L 67.53125 54.6875 
L 61.375 23.046875 
Q 58.984375 10.75 51.5625 5.375 
Q 44.875 0.53125 33.796875 -1.171875 
L 29.984375 -20.796875 
L 21.046875 -20.796875 
z
" id="DejaVuSans-Oblique-968"/>
       <path d="M 16.890625 72.90625 
L 30.171875 72.90625 
L 50.296875 10.40625 
L 62.5 72.90625 
L 72.125 72.90625 
L 57.90625 0 
L 44.578125 0 
L 24.515625 62.890625 
L 12.3125 0 
L 2.6875 0 
z
" id="DejaVuSans-Oblique-78"/>
       <path d="M 15.484375 72.90625 
L 25.390625 72.90625 
L 16.796875 28.609375 
Q 16.265625 25.640625 16.046875 23.703125 
Q 15.828125 21.78125 15.828125 20.3125 
Q 15.828125 13.578125 19.578125 10.078125 
Q 23.34375 6.59375 30.609375 6.59375 
Q 40.046875 6.59375 45.28125 11.765625 
Q 50.53125 16.9375 52.78125 28.609375 
L 61.375 72.90625 
L 71.296875 72.90625 
L 62.5 27.390625 
Q 59.625 12.640625 51.5625 5.609375 
Q 43.5 -1.421875 29.5 -1.421875 
Q 18.5625 -1.421875 12.1875 4.078125 
Q 5.8125 9.578125 5.8125 19 
Q 5.8125 20.703125 6.046875 22.828125 
Q 6.296875 24.953125 6.78125 27.390625 
z
" id="DejaVuSans-Oblique-85"/>
       <path d="M 16.890625 72.90625 
L 31.6875 72.90625 
L 40.1875 23.78125 
L 68.40625 72.90625 
L 83.59375 72.90625 
L 69.390625 0 
L 59.8125 0 
L 72.21875 63.921875 
L 43.609375 14.015625 
L 33.984375 14.015625 
L 24.703125 64.109375 
L 12.3125 0 
L 2.6875 0 
z
" id="DejaVuSans-Oblique-77"/>
       <path d="M 40.578125 39.3125 
Q 47.65625 37.796875 51.625 33 
Q 55.609375 28.21875 55.609375 21.1875 
Q 55.609375 10.40625 48.1875 4.484375 
Q 40.765625 -1.421875 27.09375 -1.421875 
Q 22.515625 -1.421875 17.65625 -0.515625 
Q 12.796875 0.390625 7.625 2.203125 
L 7.625 11.71875 
Q 11.71875 9.328125 16.59375 8.109375 
Q 21.484375 6.890625 26.8125 6.890625 
Q 36.078125 6.890625 40.9375 10.546875 
Q 45.796875 14.203125 45.796875 21.1875 
Q 45.796875 27.640625 41.28125 31.265625 
Q 36.765625 34.90625 28.71875 34.90625 
L 20.21875 34.90625 
L 20.21875 43.015625 
L 29.109375 43.015625 
Q 36.375 43.015625 40.234375 45.921875 
Q 44.09375 48.828125 44.09375 54.296875 
Q 44.09375 59.90625 40.109375 62.90625 
Q 36.140625 65.921875 28.71875 65.921875 
Q 24.65625 65.921875 20.015625 65.03125 
Q 15.375 64.15625 9.8125 62.3125 
L 9.8125 71.09375 
Q 15.4375 72.65625 20.34375 73.4375 
Q 25.25 74.21875 29.59375 74.21875 
Q 40.828125 74.21875 47.359375 69.109375 
Q 53.90625 64.015625 53.90625 55.328125 
Q 53.90625 49.265625 50.4375 45.09375 
Q 46.96875 40.921875 40.578125 39.3125 
z
" id="DejaVuSans-51"/>
      </defs>
      <use transform="translate(0 0.684375)" xlink:href="#DejaVuSans-Oblique-968"/>
      <use transform="translate(70.432943 38.965625)scale(0.7)" xlink:href="#DejaVuSans-Oblique-78"/>
      <use transform="translate(122.796224 38.965625)scale(0.7)" xlink:href="#DejaVuSans-Oblique-85"/>
      <use transform="translate(174.031576 38.965625)scale(0.7)" xlink:href="#DejaVuSans-Oblique-77"/>
      <use transform="translate(65.966797 -26.659375)scale(0.7)" xlink:href="#DejaVuSans-55"/>
      <use transform="translate(110.50293 -26.659375)scale(0.7)" xlink:href="#DejaVuSans-51"/>
     </g>
    </g>
    <g id="line2d_21">
     <path d="M 190.32 233.52 
L 214.32 233.52 
" style="fill:none;stroke:#ff7f0e;stroke-linecap:square;stroke-width:1.5;"/>
    </g>
    <g id="line2d_22"/>
    <g id="text_21">
     <!-- $\psi^{TH}_{73}$ -->
     <g transform="translate(223.92 237.72)scale(0.12 -0.12)">
      <defs>
       <path d="M 5.90625 72.90625 
L 67.578125 72.90625 
L 66.015625 64.59375 
L 39.984375 64.59375 
L 27.484375 0 
L 17.578125 0 
L 30.078125 64.59375 
L 4.296875 64.59375 
z
" id="DejaVuSans-Oblique-84"/>
       <path d="M 16.890625 72.90625 
L 26.8125 72.90625 
L 21 43.015625 
L 56.78125 43.015625 
L 62.59375 72.90625 
L 72.515625 72.90625 
L 58.296875 0 
L 48.390625 0 
L 55.171875 34.71875 
L 19.390625 34.71875 
L 12.59375 0 
L 2.6875 0 
z
" id="DejaVuSans-Oblique-72"/>
      </defs>
      <use transform="translate(0 0.684375)" xlink:href="#DejaVuSans-Oblique-968"/>
      <use transform="translate(70.432943 38.965625)scale(0.7)" xlink:href="#DejaVuSans-Oblique-84"/>
      <use transform="translate(113.191732 38.965625)scale(0.7)" xlink:href="#DejaVuSans-Oblique-72"/>
      <use transform="translate(65.966797 -26.659375)scale(0.7)" xlink:href="#DejaVuSans-55"/>
      <use transform="translate(110.50293 -26.659375)scale(0.7)" xlink:href="#DejaVuSans-51"/>
     </g>
    </g>
   </g>
  </g>
 </g>
 <defs>
  <clipPath id="p395b996c39">
   <rect height="217.44" width="334.8" x="54" y="34.56"/>
  </clipPath>
 </defs>
</svg>
