<?xml version="1.0" encoding="utf-8" standalone="no"?>
<!DOCTYPE svg PUBLIC "-//W3C//DTD SVG 1.1//EN"
  "http://www.w3.org/Graphics/SVG/1.1/DTD/svg11.dtd">
<!-- Created with matplotlib (https://matplotlib.org/) -->
<svg height="288pt" version="1.1" viewBox="0 0 432 288" width="432pt" xmlns="http://www.w3.org/2000/svg" xmlns:xlink="http://www.w3.org/1999/xlink">
 <metadata>
  <rdf:RDF xmlns:cc="http://creativecommons.org/ns#" xmlns:dc="http://purl.org/dc/elements/1.1/" xmlns:rdf="http://www.w3.org/1999/02/22-rdf-syntax-ns#">
   <cc:Work>
    <dc:type rdf:resource="http://purl.org/dc/dcmitype/StillImage"/>
    <dc:date>2021-11-23T18:23:12.350903</dc:date>
    <dc:format>image/svg+xml</dc:format>
    <dc:creator>
     <cc:Agent>
      <dc:title>Matplotlib v3.3.4, https://matplotlib.org/</dc:title>
     </cc:Agent>
    </dc:creator>
   </cc:Work>
  </rdf:RDF>
 </metadata>
 <defs>
  <style type="text/css">*{stroke-linecap:butt;stroke-linejoin:round;}</style>
 </defs>
 <g id="figure_1">
  <g id="patch_1">
   <path d="M 0 288 
L 432 288 
L 432 0 
L 0 0 
z
" style="fill:none;"/>
  </g>
  <g id="axes_1">
   <g id="patch_2">
    <path d="M 54 252 
L 388.8 252 
L 388.8 34.56 
L 54 34.56 
z
" style="fill:#ffffff;"/>
   </g>
   <g id="matplotlib.axis_1">
    <g id="xtick_1">
     <g id="line2d_1">
      <defs>
       <path d="M 0 0 
L 0 3.5 
" id="m97e1c3233d" style="stroke:#000000;stroke-width:0.8;"/>
      </defs>
      <g>
       <use style="stroke:#000000;stroke-width:0.8;" x="54" xlink:href="#m97e1c3233d" y="252"/>
      </g>
     </g>
     <g id="text_1">
      <!-- −10.0 -->
      <g transform="translate(38.677344 266.598437)scale(0.1 -0.1)">
       <defs>
        <path d="M 10.59375 35.5 
L 73.1875 35.5 
L 73.1875 27.203125 
L 10.59375 27.203125 
z
" id="DejaVuSans-8722"/>
        <path d="M 12.40625 8.296875 
L 28.515625 8.296875 
L 28.515625 63.921875 
L 10.984375 60.40625 
L 10.984375 69.390625 
L 28.421875 72.90625 
L 38.28125 72.90625 
L 38.28125 8.296875 
L 54.390625 8.296875 
L 54.390625 0 
L 12.40625 0 
z
" id="DejaVuSans-49"/>
        <path d="M 31.78125 66.40625 
Q 24.171875 66.40625 20.328125 58.90625 
Q 16.5 51.421875 16.5 36.375 
Q 16.5 21.390625 20.328125 13.890625 
Q 24.171875 6.390625 31.78125 6.390625 
Q 39.453125 6.390625 43.28125 13.890625 
Q 47.125 21.390625 47.125 36.375 
Q 47.125 51.421875 43.28125 58.90625 
Q 39.453125 66.40625 31.78125 66.40625 
z
M 31.78125 74.21875 
Q 44.046875 74.21875 50.515625 64.515625 
Q 56.984375 54.828125 56.984375 36.375 
Q 56.984375 17.96875 50.515625 8.265625 
Q 44.046875 -1.421875 31.78125 -1.421875 
Q 19.53125 -1.421875 13.0625 8.265625 
Q 6.59375 17.96875 6.59375 36.375 
Q 6.59375 54.828125 13.0625 64.515625 
Q 19.53125 74.21875 31.78125 74.21875 
z
" id="DejaVuSans-48"/>
        <path d="M 10.6875 12.40625 
L 21 12.40625 
L 21 0 
L 10.6875 0 
z
" id="DejaVuSans-46"/>
       </defs>
       <use xlink:href="#DejaVuSans-8722"/>
       <use x="83.789062" xlink:href="#DejaVuSans-49"/>
       <use x="147.412109" xlink:href="#DejaVuSans-48"/>
       <use x="211.035156" xlink:href="#DejaVuSans-46"/>
       <use x="242.822266" xlink:href="#DejaVuSans-48"/>
      </g>
     </g>
    </g>
    <g id="xtick_2">
     <g id="line2d_2">
      <g>
       <use style="stroke:#000000;stroke-width:0.8;" x="95.85" xlink:href="#m97e1c3233d" y="252"/>
      </g>
     </g>
     <g id="text_2">
      <!-- −7.5 -->
      <g transform="translate(83.708594 266.598437)scale(0.1 -0.1)">
       <defs>
        <path d="M 8.203125 72.90625 
L 55.078125 72.90625 
L 55.078125 68.703125 
L 28.609375 0 
L 18.3125 0 
L 43.21875 64.59375 
L 8.203125 64.59375 
z
" id="DejaVuSans-55"/>
        <path d="M 10.796875 72.90625 
L 49.515625 72.90625 
L 49.515625 64.59375 
L 19.828125 64.59375 
L 19.828125 46.734375 
Q 21.96875 47.46875 24.109375 47.828125 
Q 26.265625 48.1875 28.421875 48.1875 
Q 40.625 48.1875 47.75 41.5 
Q 54.890625 34.8125 54.890625 23.390625 
Q 54.890625 11.625 47.5625 5.09375 
Q 40.234375 -1.421875 26.90625 -1.421875 
Q 22.3125 -1.421875 17.546875 -0.640625 
Q 12.796875 0.140625 7.71875 1.703125 
L 7.71875 11.625 
Q 12.109375 9.234375 16.796875 8.0625 
Q 21.484375 6.890625 26.703125 6.890625 
Q 35.15625 6.890625 40.078125 11.328125 
Q 45.015625 15.765625 45.015625 23.390625 
Q 45.015625 31 40.078125 35.4375 
Q 35.15625 39.890625 26.703125 39.890625 
Q 22.75 39.890625 18.8125 39.015625 
Q 14.890625 38.140625 10.796875 36.28125 
z
" id="DejaVuSans-53"/>
       </defs>
       <use xlink:href="#DejaVuSans-8722"/>
       <use x="83.789062" xlink:href="#DejaVuSans-55"/>
       <use x="147.412109" xlink:href="#DejaVuSans-46"/>
       <use x="179.199219" xlink:href="#DejaVuSans-53"/>
      </g>
     </g>
    </g>
    <g id="xtick_3">
     <g id="line2d_3">
      <g>
       <use style="stroke:#000000;stroke-width:0.8;" x="137.7" xlink:href="#m97e1c3233d" y="252"/>
      </g>
     </g>
     <g id="text_3">
      <!-- −5.0 -->
      <g transform="translate(125.558594 266.598437)scale(0.1 -0.1)">
       <use xlink:href="#DejaVuSans-8722"/>
       <use x="83.789062" xlink:href="#DejaVuSans-53"/>
       <use x="147.412109" xlink:href="#DejaVuSans-46"/>
       <use x="179.199219" xlink:href="#DejaVuSans-48"/>
      </g>
     </g>
    </g>
    <g id="xtick_4">
     <g id="line2d_4">
      <g>
       <use style="stroke:#000000;stroke-width:0.8;" x="179.55" xlink:href="#m97e1c3233d" y="252"/>
      </g>
     </g>
     <g id="text_4">
      <!-- −2.5 -->
      <g transform="translate(167.408594 266.598437)scale(0.1 -0.1)">
       <defs>
        <path d="M 19.1875 8.296875 
L 53.609375 8.296875 
L 53.609375 0 
L 7.328125 0 
L 7.328125 8.296875 
Q 12.9375 14.109375 22.625 23.890625 
Q 32.328125 33.6875 34.8125 36.53125 
Q 39.546875 41.84375 41.421875 45.53125 
Q 43.3125 49.21875 43.3125 52.78125 
Q 43.3125 58.59375 39.234375 62.25 
Q 35.15625 65.921875 28.609375 65.921875 
Q 23.96875 65.921875 18.8125 64.3125 
Q 13.671875 62.703125 7.8125 59.421875 
L 7.8125 69.390625 
Q 13.765625 71.78125 18.9375 73 
Q 24.125 74.21875 28.421875 74.21875 
Q 39.75 74.21875 46.484375 68.546875 
Q 53.21875 62.890625 53.21875 53.421875 
Q 53.21875 48.921875 51.53125 44.890625 
Q 49.859375 40.875 45.40625 35.40625 
Q 44.1875 33.984375 37.640625 27.21875 
Q 31.109375 20.453125 19.1875 8.296875 
z
" id="DejaVuSans-50"/>
       </defs>
       <use xlink:href="#DejaVuSans-8722"/>
       <use x="83.789062" xlink:href="#DejaVuSans-50"/>
       <use x="147.412109" xlink:href="#DejaVuSans-46"/>
       <use x="179.199219" xlink:href="#DejaVuSans-53"/>
      </g>
     </g>
    </g>
    <g id="xtick_5">
     <g id="line2d_5">
      <g>
       <use style="stroke:#000000;stroke-width:0.8;" x="221.4" xlink:href="#m97e1c3233d" y="252"/>
      </g>
     </g>
     <g id="text_5">
      <!-- 0.0 -->
      <g transform="translate(213.448438 266.598437)scale(0.1 -0.1)">
       <use xlink:href="#DejaVuSans-48"/>
       <use x="63.623047" xlink:href="#DejaVuSans-46"/>
       <use x="95.410156" xlink:href="#DejaVuSans-48"/>
      </g>
     </g>
    </g>
    <g id="xtick_6">
     <g id="line2d_6">
      <g>
       <use style="stroke:#000000;stroke-width:0.8;" x="263.25" xlink:href="#m97e1c3233d" y="252"/>
      </g>
     </g>
     <g id="text_6">
      <!-- 2.5 -->
      <g transform="translate(255.298438 266.598437)scale(0.1 -0.1)">
       <use xlink:href="#DejaVuSans-50"/>
       <use x="63.623047" xlink:href="#DejaVuSans-46"/>
       <use x="95.410156" xlink:href="#DejaVuSans-53"/>
      </g>
     </g>
    </g>
    <g id="xtick_7">
     <g id="line2d_7">
      <g>
       <use style="stroke:#000000;stroke-width:0.8;" x="305.1" xlink:href="#m97e1c3233d" y="252"/>
      </g>
     </g>
     <g id="text_7">
      <!-- 5.0 -->
      <g transform="translate(297.148438 266.598437)scale(0.1 -0.1)">
       <use xlink:href="#DejaVuSans-53"/>
       <use x="63.623047" xlink:href="#DejaVuSans-46"/>
       <use x="95.410156" xlink:href="#DejaVuSans-48"/>
      </g>
     </g>
    </g>
    <g id="xtick_8">
     <g id="line2d_8">
      <g>
       <use style="stroke:#000000;stroke-width:0.8;" x="346.95" xlink:href="#m97e1c3233d" y="252"/>
      </g>
     </g>
     <g id="text_8">
      <!-- 7.5 -->
      <g transform="translate(338.998438 266.598437)scale(0.1 -0.1)">
       <use xlink:href="#DejaVuSans-55"/>
       <use x="63.623047" xlink:href="#DejaVuSans-46"/>
       <use x="95.410156" xlink:href="#DejaVuSans-53"/>
      </g>
     </g>
    </g>
    <g id="xtick_9">
     <g id="line2d_9">
      <g>
       <use style="stroke:#000000;stroke-width:0.8;" x="388.8" xlink:href="#m97e1c3233d" y="252"/>
      </g>
     </g>
     <g id="text_9">
      <!-- 10.0 -->
      <g transform="translate(377.667188 266.598437)scale(0.1 -0.1)">
       <use xlink:href="#DejaVuSans-49"/>
       <use x="63.623047" xlink:href="#DejaVuSans-48"/>
       <use x="127.246094" xlink:href="#DejaVuSans-46"/>
       <use x="159.033203" xlink:href="#DejaVuSans-48"/>
      </g>
     </g>
    </g>
    <g id="text_10">
     <!-- x -->
     <g transform="translate(218.440625 280.276563)scale(0.1 -0.1)">
      <defs>
       <path d="M 54.890625 54.6875 
L 35.109375 28.078125 
L 55.90625 0 
L 45.3125 0 
L 29.390625 21.484375 
L 13.484375 0 
L 2.875 0 
L 24.125 28.609375 
L 4.6875 54.6875 
L 15.28125 54.6875 
L 29.78125 35.203125 
L 44.28125 54.6875 
z
" id="DejaVuSans-120"/>
      </defs>
      <use xlink:href="#DejaVuSans-120"/>
     </g>
    </g>
   </g>
   <g id="matplotlib.axis_2">
    <g id="ytick_1">
     <g id="line2d_10">
      <defs>
       <path d="M 0 0 
L -3.5 0 
" id="mcdece0accf" style="stroke:#000000;stroke-width:0.8;"/>
      </defs>
      <g>
       <use style="stroke:#000000;stroke-width:0.8;" x="54" xlink:href="#mcdece0accf" y="233.059267"/>
      </g>
     </g>
     <g id="text_11">
      <!-- −1.0 -->
      <g transform="translate(22.717187 236.858486)scale(0.1 -0.1)">
       <use xlink:href="#DejaVuSans-8722"/>
       <use x="83.789062" xlink:href="#DejaVuSans-49"/>
       <use x="147.412109" xlink:href="#DejaVuSans-46"/>
       <use x="179.199219" xlink:href="#DejaVuSans-48"/>
      </g>
     </g>
    </g>
    <g id="ytick_2">
     <g id="line2d_11">
      <g>
       <use style="stroke:#000000;stroke-width:0.8;" x="54" xlink:href="#mcdece0accf" y="194.089454"/>
      </g>
     </g>
     <g id="text_12">
      <!-- −0.5 -->
      <g transform="translate(22.717187 197.888673)scale(0.1 -0.1)">
       <use xlink:href="#DejaVuSans-8722"/>
       <use x="83.789062" xlink:href="#DejaVuSans-48"/>
       <use x="147.412109" xlink:href="#DejaVuSans-46"/>
       <use x="179.199219" xlink:href="#DejaVuSans-53"/>
      </g>
     </g>
    </g>
    <g id="ytick_3">
     <g id="line2d_12">
      <g>
       <use style="stroke:#000000;stroke-width:0.8;" x="54" xlink:href="#mcdece0accf" y="155.119641"/>
      </g>
     </g>
     <g id="text_13">
      <!-- 0.0 -->
      <g transform="translate(31.096875 158.91886)scale(0.1 -0.1)">
       <use xlink:href="#DejaVuSans-48"/>
       <use x="63.623047" xlink:href="#DejaVuSans-46"/>
       <use x="95.410156" xlink:href="#DejaVuSans-48"/>
      </g>
     </g>
    </g>
    <g id="ytick_4">
     <g id="line2d_13">
      <g>
       <use style="stroke:#000000;stroke-width:0.8;" x="54" xlink:href="#mcdece0accf" y="116.149828"/>
      </g>
     </g>
     <g id="text_14">
      <!-- 0.5 -->
      <g transform="translate(31.096875 119.949047)scale(0.1 -0.1)">
       <use xlink:href="#DejaVuSans-48"/>
       <use x="63.623047" xlink:href="#DejaVuSans-46"/>
       <use x="95.410156" xlink:href="#DejaVuSans-53"/>
      </g>
     </g>
    </g>
    <g id="ytick_5">
     <g id="line2d_14">
      <g>
       <use style="stroke:#000000;stroke-width:0.8;" x="54" xlink:href="#mcdece0accf" y="77.180015"/>
      </g>
     </g>
     <g id="text_15">
      <!-- 1.0 -->
      <g transform="translate(31.096875 80.979234)scale(0.1 -0.1)">
       <use xlink:href="#DejaVuSans-49"/>
       <use x="63.623047" xlink:href="#DejaVuSans-46"/>
       <use x="95.410156" xlink:href="#DejaVuSans-48"/>
      </g>
     </g>
    </g>
    <g id="ytick_6">
     <g id="line2d_15">
      <g>
       <use style="stroke:#000000;stroke-width:0.8;" x="54" xlink:href="#mcdece0accf" y="38.210202"/>
      </g>
     </g>
     <g id="text_16">
      <!-- 1.5 -->
      <g transform="translate(31.096875 42.009421)scale(0.1 -0.1)">
       <use xlink:href="#DejaVuSans-49"/>
       <use x="63.623047" xlink:href="#DejaVuSans-46"/>
       <use x="95.410156" xlink:href="#DejaVuSans-53"/>
      </g>
     </g>
    </g>
    <g id="text_17">
     <!-- 1e−1 -->
     <g transform="translate(54 31.56)scale(0.1 -0.1)">
      <defs>
       <path d="M 56.203125 29.59375 
L 56.203125 25.203125 
L 14.890625 25.203125 
Q 15.484375 15.921875 20.484375 11.0625 
Q 25.484375 6.203125 34.421875 6.203125 
Q 39.59375 6.203125 44.453125 7.46875 
Q 49.3125 8.734375 54.109375 11.28125 
L 54.109375 2.78125 
Q 49.265625 0.734375 44.1875 -0.34375 
Q 39.109375 -1.421875 33.890625 -1.421875 
Q 20.796875 -1.421875 13.15625 6.1875 
Q 5.515625 13.8125 5.515625 26.8125 
Q 5.515625 40.234375 12.765625 48.109375 
Q 20.015625 56 32.328125 56 
Q 43.359375 56 49.78125 48.890625 
Q 56.203125 41.796875 56.203125 29.59375 
z
M 47.21875 32.234375 
Q 47.125 39.59375 43.09375 43.984375 
Q 39.0625 48.390625 32.421875 48.390625 
Q 24.90625 48.390625 20.390625 44.140625 
Q 15.875 39.890625 15.1875 32.171875 
z
" id="DejaVuSans-101"/>
      </defs>
      <use xlink:href="#DejaVuSans-49"/>
      <use x="63.623047" xlink:href="#DejaVuSans-101"/>
      <use x="125.146484" xlink:href="#DejaVuSans-8722"/>
      <use x="208.935547" xlink:href="#DejaVuSans-49"/>
     </g>
    </g>
   </g>
   <g id="line2d_16">
    <path clip-path="url(#pdad9dd50f1)" d="M -1 155.115808 
L 7.128 155.02862 
L 10.476 154.820685 
L 12.15 154.594025 
L 13.824 154.214749 
L 15.498 153.595262 
L 17.172 152.608771 
L 18.846 151.079286 
L 20.52 148.774227 
L 22.194 145.404046 
L 23.868 140.635238 
L 25.542 134.124579 
L 27.216 125.582498 
L 28.89 114.870707 
L 30.564 102.132098 
L 35.586 60.361969 
L 37.26 51.09275 
L 38.934 48.288071 
L 40.608 54.461836 
L 42.282 71.279441 
L 43.956 98.76513 
L 45.63 134.621876 
L 47.304 173.955923 
L 48.978 209.700844 
L 50.652 233.915869 
L 52.326 239.870404 
L 54 224.464114 
L 55.674 190.186214 
L 59.022 104.095206 
L 60.696 79.424528 
L 62.37 81.288236 
L 64.044 110.443204 
L 67.392 202.722374 
L 69.066 228.221334 
L 70.74 221.259999 
L 72.414 183.732363 
L 74.088 132.469389 
L 75.762 92.480418 
L 77.436 84.765864 
L 79.11 114.517703 
L 80.784 166.586112 
L 82.458 212.158272 
L 84.132 224.463042 
L 85.806 195.17961 
L 87.48 141.217522 
L 89.154 96.04356 
L 90.828 89.153435 
L 92.502 126.047917 
L 94.176 182.68916 
L 95.85 220.182191 
L 97.524 211.50404 
L 99.198 161.972967 
L 100.872 107.37562 
L 102.546 88.764987 
L 104.22 121.117577 
L 105.894 180.064642 
L 107.568 219.15441 
L 109.242 206.392469 
L 112.59 99.543068 
L 114.264 94.88584 
L 115.938 142.182858 
L 117.612 200.802706 
L 119.286 218.867735 
L 120.96 179.556745 
L 122.634 117.955622 
L 124.308 90.69565 
L 125.982 123.719985 
L 127.656 186.487421 
L 129.33 219.187492 
L 131.004 189.764622 
L 132.678 126.370861 
L 134.352 91.474126 
L 136.026 120.333833 
L 137.7 184.398268 
L 139.374 218.535761 
L 141.048 187.22509 
L 142.722 122.468791 
L 144.396 92.036465 
L 146.07 128.506555 
L 147.744 193.443145 
L 149.418 217.04619 
L 151.092 173.320024 
L 152.766 109.650919 
L 154.44 96.181238 
L 156.114 148.259487 
L 157.788 208.021404 
L 159.462 208.123723 
L 161.136 148.053532 
L 162.81 96.056674 
L 164.484 111.96114 
L 166.158 177.780267 
L 167.832 217.239581 
L 169.506 184.034535 
L 171.18 116.824331 
L 172.854 94.884659 
L 174.528 144.50673 
L 176.202 206.79789 
L 177.876 207.114277 
L 179.55 144.800896 
L 181.224 94.969512 
L 182.898 118.193047 
L 184.572 186.439074 
L 186.246 216.358164 
L 187.92 171.073719 
L 189.594 106.131569 
L 191.268 101.74078 
L 192.942 163.526064 
L 194.616 214.860121 
L 196.29 191.725102 
L 197.964 122.846326 
L 199.638 94.391266 
L 201.312 142.16507 
L 202.986 206.232394 
L 204.66 205.895456 
L 206.334 141.47218 
L 208.008 94.299881 
L 209.682 124.109765 
L 211.356 193.216694 
L 213.03 213.995874 
L 214.704 160.023259 
L 216.378 99.820386 
L 218.052 109.916304 
L 219.726 177.49925 
L 221.4 216.614371 
L 223.074 177.499403 
L 224.748 109.916415 
L 226.422 99.820314 
L 228.096 160.023095 
L 229.77 213.995827 
L 231.444 193.216823 
L 233.118 124.109907 
L 234.792 94.299856 
L 236.466 141.47202 
L 238.14 205.895363 
L 239.814 206.232486 
L 241.488 142.165231 
L 243.162 94.391294 
L 244.836 122.846185 
L 246.51 191.724969 
L 248.184 214.860162 
L 249.858 163.526227 
L 251.532 101.740863 
L 253.206 106.131468 
L 254.88 171.073559 
L 256.554 216.358142 
L 258.228 186.439216 
L 259.902 118.193179 
L 261.576 94.969473 
L 263.25 144.800733 
L 264.924 207.114187 
L 266.598 206.797981 
L 268.272 144.506894 
L 269.946 94.884699 
L 271.62 116.824201 
L 273.294 184.034388 
L 274.968 217.23959 
L 276.642 177.780422 
L 278.316 111.96126 
L 279.99 96.05662 
L 281.664 148.053367 
L 283.338 208.123635 
L 285.012 208.021493 
L 286.686 148.259653 
L 288.36 96.181295 
L 290.034 109.650803 
L 291.708 173.319863 
L 293.382 217.04616 
L 295.056 193.443279 
L 296.73 128.506708 
L 298.404 92.036473 
L 300.078 122.468646 
L 301.752 187.224944 
L 303.426 218.535766 
L 305.1 184.398419 
L 306.774 120.333975 
L 308.448 91.474116 
L 310.122 126.370708 
L 311.796 189.764479 
L 313.47 219.187498 
L 315.144 186.487571 
L 316.818 123.720135 
L 318.492 90.695658 
L 320.166 117.955481 
L 321.84 179.556584 
L 323.514 218.867702 
L 325.188 200.80283 
L 326.862 142.183029 
L 328.536 94.885909 
L 330.21 99.542975 
L 333.558 206.392358 
L 335.232 219.154455 
L 336.906 180.064806 
L 338.58 121.11773 
L 340.254 88.765009 
L 341.928 107.375514 
L 343.602 161.972813 
L 345.276 211.503952 
L 346.95 220.182249 
L 348.624 182.689324 
L 350.298 126.048064 
L 351.972 89.153465 
L 353.646 96.043454 
L 355.32 141.21733 
L 356.994 195.179454 
L 358.668 224.463006 
L 360.342 212.158377 
L 362.016 166.586298 
L 363.69 114.517868 
L 365.364 84.765916 
L 367.038 92.480373 
L 368.712 132.469271 
L 370.386 183.73223 
L 372.06 221.259923 
L 373.734 228.22135 
L 375.408 202.722454 
L 378.756 110.443297 
L 380.43 81.288251 
L 382.104 79.424458 
L 383.778 104.0951 
L 385.452 145.667248 
L 387.126 190.186115 
L 388.8 224.464079 
L 390.474 239.870442 
L 392.148 233.915945 
L 393.822 209.700965 
L 395.496 173.956046 
L 397.17 134.621989 
L 398.844 98.765214 
L 400.518 71.279501 
L 402.192 54.461839 
L 403.866 48.288046 
L 405.54 51.092668 
L 407.214 60.361834 
L 408.888 73.425421 
L 412.236 102.132021 
L 413.91 114.870644 
L 415.584 125.582447 
L 417.258 134.124545 
L 418.932 140.635216 
L 420.606 145.404035 
L 422.28 148.77422 
L 423.954 151.079281 
L 425.628 152.608768 
L 427.302 153.59526 
L 428.976 154.214748 
L 430.65 154.594025 
L 433 154.874132 
L 433 154.874132 
" style="fill:none;stroke:#1f77b4;stroke-linecap:square;stroke-width:1.5;"/>
   </g>
   <g id="line2d_17">
    <path clip-path="url(#pdad9dd50f1)" d="M -1 155.100013 
L 3.78 154.999306 
L 7.128 154.723323 
L 8.802 154.423308 
L 10.476 153.923269 
L 12.15 153.111074 
L 13.824 151.827056 
L 15.498 149.854207 
L 17.172 146.913457 
L 18.846 142.669995 
L 20.52 136.758504 
L 22.194 128.836038 
L 23.868 118.669745 
L 25.542 106.261066 
L 28.89 76.803591 
L 30.564 62.253487 
L 32.238 50.56858 
L 33.912 44.443636 
L 35.586 46.639693 
L 37.26 59.340946 
L 38.934 83.352524 
L 40.608 117.32106 
L 43.956 196.656105 
L 45.63 227.505257 
L 47.304 242.116364 
L 48.978 235.547708 
L 50.652 207.877444 
L 52.326 165.415765 
L 54 119.996047 
L 55.674 85.986924 
L 57.348 75.544673 
L 59.022 93.605068 
L 60.696 134.735839 
L 62.37 183.763335 
L 64.044 220.835611 
L 65.718 229.574073 
L 67.392 205.031295 
L 70.74 108.857629 
L 72.414 83.438271 
L 74.088 94.899467 
L 75.762 138.214208 
L 77.436 190.618925 
L 79.11 222.949788 
L 80.784 216.081197 
L 82.458 173.16146 
L 84.132 119.419988 
L 85.806 88.017434 
L 87.48 99.379602 
L 89.154 146.958126 
L 90.828 199.82782 
L 92.502 222.227567 
L 94.176 198.129776 
L 95.85 143.755191 
L 97.524 97.691402 
L 99.198 93.769776 
L 100.872 135.537562 
L 102.546 192.026909 
L 104.22 219.970043 
L 105.894 197.141221 
L 107.568 141.008797 
L 109.242 96.380255 
L 110.916 99.864984 
L 112.59 149.131729 
L 114.264 203.314228 
L 115.938 216.362014 
L 117.612 176.602763 
L 119.286 118.188948 
L 120.96 92.506905 
L 122.634 122.800241 
L 124.308 182.219895 
L 125.982 216.77254 
L 127.656 194.365622 
L 129.33 135.417393 
L 131.004 95.135768 
L 132.678 111.956684 
L 134.352 170.165019 
L 136.026 213.695232 
L 137.7 199.920824 
L 139.374 142.027058 
L 141.048 97.243547 
L 142.722 110.505222 
L 144.396 168.779978 
L 146.07 213.063823 
L 147.744 197.904954 
L 149.418 138.618088 
L 151.092 96.570104 
L 152.766 115.833017 
L 154.44 176.431168 
L 156.114 214.361876 
L 157.788 189.089155 
L 159.462 127.427667 
L 161.136 95.710869 
L 162.81 128.452606 
L 164.484 190.221801 
L 166.158 213.453827 
L 167.832 172.425095 
L 169.506 112.297615 
L 171.18 99.834265 
L 172.854 149.106512 
L 174.528 205.068548 
L 176.202 204.74108 
L 177.876 148.330014 
L 179.55 99.675387 
L 181.224 114.19505 
L 182.898 175.460958 
L 184.572 213.35716 
L 186.246 184.25171 
L 187.92 121.567024 
L 189.594 97.739108 
L 191.268 140.480586 
L 192.942 200.216503 
L 194.616 207.348898 
L 197.964 101.542681 
L 199.638 112.504337 
L 201.312 173.545081 
L 202.986 212.867169 
L 204.66 184.081968 
L 206.334 121.108265 
L 208.008 98.368428 
L 209.682 142.812385 
L 211.356 201.828089 
L 213.03 205.43565 
L 214.704 149.323935 
L 216.378 100.103477 
L 218.052 116.257717 
L 219.726 178.602103 
L 221.4 213.026819 
L 223.074 178.602103 
L 224.748 116.257717 
L 226.422 100.103477 
L 228.096 149.323935 
L 229.77 205.43565 
L 231.444 201.828089 
L 233.118 142.812385 
L 234.792 98.368428 
L 236.466 121.108265 
L 238.14 184.081968 
L 239.814 212.867169 
L 241.488 173.545081 
L 243.162 112.504337 
L 244.836 101.542681 
L 248.184 207.348898 
L 249.858 200.216503 
L 251.532 140.480586 
L 253.206 97.739108 
L 254.88 121.567024 
L 256.554 184.25171 
L 258.228 213.35716 
L 259.902 175.460958 
L 261.576 114.19505 
L 263.25 99.675387 
L 264.924 148.330014 
L 266.598 204.74108 
L 268.272 205.068548 
L 269.946 149.106512 
L 271.62 99.834265 
L 273.294 112.297615 
L 274.968 172.425095 
L 276.642 213.453827 
L 278.316 190.221801 
L 279.99 128.452606 
L 281.664 95.710869 
L 283.338 127.427667 
L 285.012 189.089155 
L 286.686 214.361876 
L 288.36 176.431168 
L 290.034 115.833017 
L 291.708 96.570104 
L 293.382 138.618088 
L 295.056 197.904954 
L 296.73 213.063823 
L 298.404 168.779978 
L 300.078 110.505222 
L 301.752 97.243547 
L 303.426 142.027058 
L 305.1 199.920824 
L 306.774 213.695232 
L 308.448 170.165019 
L 310.122 111.956684 
L 311.796 95.135768 
L 313.47 135.417393 
L 315.144 194.365622 
L 316.818 216.77254 
L 318.492 182.219895 
L 320.166 122.800241 
L 321.84 92.506905 
L 323.514 118.188948 
L 325.188 176.602763 
L 326.862 216.362014 
L 328.536 203.314228 
L 330.21 149.131729 
L 331.884 99.864984 
L 333.558 96.380255 
L 335.232 141.008797 
L 336.906 197.141221 
L 338.58 219.970043 
L 340.254 192.026909 
L 341.928 135.537562 
L 343.602 93.769776 
L 345.276 97.691402 
L 346.95 143.755191 
L 348.624 198.129776 
L 350.298 222.227567 
L 351.972 199.82782 
L 353.646 146.958126 
L 355.32 99.379602 
L 356.994 88.017434 
L 358.668 119.419988 
L 360.342 173.16146 
L 362.016 216.081197 
L 363.69 222.949788 
L 365.364 190.618925 
L 367.038 138.214208 
L 368.712 94.899467 
L 370.386 83.438271 
L 372.06 108.857629 
L 375.408 205.031295 
L 377.082 229.574073 
L 378.756 220.835611 
L 380.43 183.763335 
L 382.104 134.735839 
L 383.778 93.605068 
L 385.452 75.544673 
L 387.126 85.986924 
L 388.8 119.996047 
L 392.148 207.877444 
L 393.822 235.547708 
L 395.496 242.116364 
L 397.17 227.505257 
L 398.844 196.656105 
L 402.192 117.32106 
L 403.866 83.352524 
L 405.54 59.340946 
L 407.214 46.639693 
L 408.888 44.443636 
L 410.562 50.56858 
L 412.236 62.253487 
L 417.258 106.261066 
L 418.932 118.669745 
L 420.606 128.836038 
L 422.28 136.758504 
L 423.954 142.669995 
L 425.628 146.913457 
L 427.302 149.854207 
L 428.976 151.827056 
L 430.65 153.111074 
L 432.324 153.923269 
L 433 154.125196 
L 433 154.125196 
" style="fill:none;stroke:#ff7f0e;stroke-linecap:square;stroke-width:1.5;"/>
   </g>
   <g id="patch_3">
    <path d="M 54 252 
L 54 34.56 
" style="fill:none;stroke:#000000;stroke-linecap:square;stroke-linejoin:miter;stroke-width:0.8;"/>
   </g>
   <g id="patch_4">
    <path d="M 388.8 252 
L 388.8 34.56 
" style="fill:none;stroke:#000000;stroke-linecap:square;stroke-linejoin:miter;stroke-width:0.8;"/>
   </g>
   <g id="patch_5">
    <path d="M 54 252 
L 388.8 252 
" style="fill:none;stroke:#000000;stroke-linecap:square;stroke-linejoin:miter;stroke-width:0.8;"/>
   </g>
   <g id="patch_6">
    <path d="M 54 34.56 
L 388.8 34.56 
" style="fill:none;stroke:#000000;stroke-linecap:square;stroke-linejoin:miter;stroke-width:0.8;"/>
   </g>
   <g id="text_18">
    <!-- N=500, L=50 -->
    <g transform="translate(180.61125 28.56)scale(0.12 -0.12)">
     <defs>
      <path d="M 9.8125 72.90625 
L 23.09375 72.90625 
L 55.421875 11.921875 
L 55.421875 72.90625 
L 64.984375 72.90625 
L 64.984375 0 
L 51.703125 0 
L 19.390625 60.984375 
L 19.390625 0 
L 9.8125 0 
z
" id="DejaVuSans-78"/>
      <path d="M 10.59375 45.40625 
L 73.1875 45.40625 
L 73.1875 37.203125 
L 10.59375 37.203125 
z
M 10.59375 25.484375 
L 73.1875 25.484375 
L 73.1875 17.1875 
L 10.59375 17.1875 
z
" id="DejaVuSans-61"/>
      <path d="M 11.71875 12.40625 
L 22.015625 12.40625 
L 22.015625 4 
L 14.015625 -11.625 
L 7.71875 -11.625 
L 11.71875 4 
z
" id="DejaVuSans-44"/>
      <path id="DejaVuSans-32"/>
      <path d="M 9.8125 72.90625 
L 19.671875 72.90625 
L 19.671875 8.296875 
L 55.171875 8.296875 
L 55.171875 0 
L 9.8125 0 
z
" id="DejaVuSans-76"/>
     </defs>
     <use xlink:href="#DejaVuSans-78"/>
     <use x="74.804688" xlink:href="#DejaVuSans-61"/>
     <use x="158.59375" xlink:href="#DejaVuSans-53"/>
     <use x="222.216797" xlink:href="#DejaVuSans-48"/>
     <use x="285.839844" xlink:href="#DejaVuSans-48"/>
     <use x="349.462891" xlink:href="#DejaVuSans-44"/>
     <use x="381.25" xlink:href="#DejaVuSans-32"/>
     <use x="413.037109" xlink:href="#DejaVuSans-76"/>
     <use x="468.75" xlink:href="#DejaVuSans-61"/>
     <use x="552.539062" xlink:href="#DejaVuSans-53"/>
     <use x="616.162109" xlink:href="#DejaVuSans-48"/>
    </g>
   </g>
   <g id="legend_1">
    <g id="patch_7">
     <path d="M 187.92 84.72 
L 254.88 84.72 
Q 257.28 84.72 257.28 82.32 
L 257.28 42.96 
Q 257.28 40.56 254.88 40.56 
L 187.92 40.56 
Q 185.52 40.56 185.52 42.96 
L 185.52 82.32 
Q 185.52 84.72 187.92 84.72 
z
" style="fill:#ffffff;opacity:0.8;stroke:#cccccc;stroke-linejoin:miter;"/>
    </g>
    <g id="line2d_18">
     <path d="M 190.32 51.96 
L 214.32 51.96 
" style="fill:none;stroke:#1f77b4;stroke-linecap:square;stroke-width:1.5;"/>
    </g>
    <g id="line2d_19"/>
    <g id="text_19">
     <!-- $\psi^{NUM}_{66}$ -->
     <g transform="translate(223.92 56.16)scale(0.12 -0.12)">
      <defs>
       <path d="M 24.859375 -1.21875 
Q 13.921875 0.59375 9.625 5.328125 
Q 4.34375 11.140625 6.640625 23 
L 12.796875 54.6875 
L 21.875 54.6875 
L 15.765625 23.34375 
Q 14.0625 14.40625 17.484375 10.6875 
Q 20.515625 7.46875 26.421875 6.78125 
L 35.6875 54.6875 
L 44.625 54.6875 
L 35.359375 6.84375 
Q 41.890625 7.515625 45.75 10.75 
Q 50.734375 14.84375 52.390625 23.390625 
L 58.453125 54.6875 
L 67.53125 54.6875 
L 61.375 23.046875 
Q 58.984375 10.75 51.5625 5.375 
Q 44.875 0.53125 33.796875 -1.171875 
L 29.984375 -20.796875 
L 21.046875 -20.796875 
z
" id="DejaVuSans-Oblique-968"/>
       <path d="M 16.890625 72.90625 
L 30.171875 72.90625 
L 50.296875 10.40625 
L 62.5 72.90625 
L 72.125 72.90625 
L 57.90625 0 
L 44.578125 0 
L 24.515625 62.890625 
L 12.3125 0 
L 2.6875 0 
z
" id="DejaVuSans-Oblique-78"/>
       <path d="M 15.484375 72.90625 
L 25.390625 72.90625 
L 16.796875 28.609375 
Q 16.265625 25.640625 16.046875 23.703125 
Q 15.828125 21.78125 15.828125 20.3125 
Q 15.828125 13.578125 19.578125 10.078125 
Q 23.34375 6.59375 30.609375 6.59375 
Q 40.046875 6.59375 45.28125 11.765625 
Q 50.53125 16.9375 52.78125 28.609375 
L 61.375 72.90625 
L 71.296875 72.90625 
L 62.5 27.390625 
Q 59.625 12.640625 51.5625 5.609375 
Q 43.5 -1.421875 29.5 -1.421875 
Q 18.5625 -1.421875 12.1875 4.078125 
Q 5.8125 9.578125 5.8125 19 
Q 5.8125 20.703125 6.046875 22.828125 
Q 6.296875 24.953125 6.78125 27.390625 
z
" id="DejaVuSans-Oblique-85"/>
       <path d="M 16.890625 72.90625 
L 31.6875 72.90625 
L 40.1875 23.78125 
L 68.40625 72.90625 
L 83.59375 72.90625 
L 69.390625 0 
L 59.8125 0 
L 72.21875 63.921875 
L 43.609375 14.015625 
L 33.984375 14.015625 
L 24.703125 64.109375 
L 12.3125 0 
L 2.6875 0 
z
" id="DejaVuSans-Oblique-77"/>
       <path d="M 33.015625 40.375 
Q 26.375 40.375 22.484375 35.828125 
Q 18.609375 31.296875 18.609375 23.390625 
Q 18.609375 15.53125 22.484375 10.953125 
Q 26.375 6.390625 33.015625 6.390625 
Q 39.65625 6.390625 43.53125 10.953125 
Q 47.40625 15.53125 47.40625 23.390625 
Q 47.40625 31.296875 43.53125 35.828125 
Q 39.65625 40.375 33.015625 40.375 
z
M 52.59375 71.296875 
L 52.59375 62.3125 
Q 48.875 64.0625 45.09375 64.984375 
Q 41.3125 65.921875 37.59375 65.921875 
Q 27.828125 65.921875 22.671875 59.328125 
Q 17.53125 52.734375 16.796875 39.40625 
Q 19.671875 43.65625 24.015625 45.921875 
Q 28.375 48.1875 33.59375 48.1875 
Q 44.578125 48.1875 50.953125 41.515625 
Q 57.328125 34.859375 57.328125 23.390625 
Q 57.328125 12.15625 50.6875 5.359375 
Q 44.046875 -1.421875 33.015625 -1.421875 
Q 20.359375 -1.421875 13.671875 8.265625 
Q 6.984375 17.96875 6.984375 36.375 
Q 6.984375 53.65625 15.1875 63.9375 
Q 23.390625 74.21875 37.203125 74.21875 
Q 40.921875 74.21875 44.703125 73.484375 
Q 48.484375 72.75 52.59375 71.296875 
z
" id="DejaVuSans-54"/>
      </defs>
      <use transform="translate(0 0.684375)" xlink:href="#DejaVuSans-Oblique-968"/>
      <use transform="translate(70.432943 38.965625)scale(0.7)" xlink:href="#DejaVuSans-Oblique-78"/>
      <use transform="translate(122.796224 38.965625)scale(0.7)" xlink:href="#DejaVuSans-Oblique-85"/>
      <use transform="translate(174.031576 38.965625)scale(0.7)" xlink:href="#DejaVuSans-Oblique-77"/>
      <use transform="translate(65.966797 -26.659375)scale(0.7)" xlink:href="#DejaVuSans-54"/>
      <use transform="translate(110.50293 -26.659375)scale(0.7)" xlink:href="#DejaVuSans-54"/>
     </g>
    </g>
    <g id="line2d_20">
     <path d="M 190.32 72.24 
L 214.32 72.24 
" style="fill:none;stroke:#ff7f0e;stroke-linecap:square;stroke-width:1.5;"/>
    </g>
    <g id="line2d_21"/>
    <g id="text_20">
     <!-- $\psi^{TH}_{66}$ -->
     <g transform="translate(223.92 76.44)scale(0.12 -0.12)">
      <defs>
       <path d="M 5.90625 72.90625 
L 67.578125 72.90625 
L 66.015625 64.59375 
L 39.984375 64.59375 
L 27.484375 0 
L 17.578125 0 
L 30.078125 64.59375 
L 4.296875 64.59375 
z
" id="DejaVuSans-Oblique-84"/>
       <path d="M 16.890625 72.90625 
L 26.8125 72.90625 
L 21 43.015625 
L 56.78125 43.015625 
L 62.59375 72.90625 
L 72.515625 72.90625 
L 58.296875 0 
L 48.390625 0 
L 55.171875 34.71875 
L 19.390625 34.71875 
L 12.59375 0 
L 2.6875 0 
z
" id="DejaVuSans-Oblique-72"/>
      </defs>
      <use transform="translate(0 0.684375)" xlink:href="#DejaVuSans-Oblique-968"/>
      <use transform="translate(70.432943 38.965625)scale(0.7)" xlink:href="#DejaVuSans-Oblique-84"/>
      <use transform="translate(113.191732 38.965625)scale(0.7)" xlink:href="#DejaVuSans-Oblique-72"/>
      <use transform="translate(65.966797 -26.659375)scale(0.7)" xlink:href="#DejaVuSans-54"/>
      <use transform="translate(110.50293 -26.659375)scale(0.7)" xlink:href="#DejaVuSans-54"/>
     </g>
    </g>
   </g>
  </g>
 </g>
 <defs>
  <clipPath id="pdad9dd50f1">
   <rect height="217.44" width="334.8" x="54" y="34.56"/>
  </clipPath>
 </defs>
</svg>
