<?xml version="1.0" encoding="utf-8" standalone="no"?>
<!DOCTYPE svg PUBLIC "-//W3C//DTD SVG 1.1//EN"
  "http://www.w3.org/Graphics/SVG/1.1/DTD/svg11.dtd">
<!-- Created with matplotlib (https://matplotlib.org/) -->
<svg height="288pt" version="1.1" viewBox="0 0 432 288" width="432pt" xmlns="http://www.w3.org/2000/svg" xmlns:xlink="http://www.w3.org/1999/xlink">
 <metadata>
  <rdf:RDF xmlns:cc="http://creativecommons.org/ns#" xmlns:dc="http://purl.org/dc/elements/1.1/" xmlns:rdf="http://www.w3.org/1999/02/22-rdf-syntax-ns#">
   <cc:Work>
    <dc:type rdf:resource="http://purl.org/dc/dcmitype/StillImage"/>
    <dc:date>2021-11-23T18:26:10.177856</dc:date>
    <dc:format>image/svg+xml</dc:format>
    <dc:creator>
     <cc:Agent>
      <dc:title>Matplotlib v3.3.4, https://matplotlib.org/</dc:title>
     </cc:Agent>
    </dc:creator>
   </cc:Work>
  </rdf:RDF>
 </metadata>
 <defs>
  <style type="text/css">*{stroke-linecap:butt;stroke-linejoin:round;}</style>
 </defs>
 <g id="figure_1">
  <g id="patch_1">
   <path d="M 0 288 
L 432 288 
L 432 0 
L 0 0 
z
" style="fill:none;"/>
  </g>
  <g id="axes_1">
   <g id="patch_2">
    <path d="M 54 252 
L 388.8 252 
L 388.8 34.56 
L 54 34.56 
z
" style="fill:#ffffff;"/>
   </g>
   <g id="matplotlib.axis_1">
    <g id="xtick_1">
     <g id="line2d_1">
      <defs>
       <path d="M 0 0 
L 0 3.5 
" id="mcd76624cac" style="stroke:#000000;stroke-width:0.8;"/>
      </defs>
      <g>
       <use style="stroke:#000000;stroke-width:0.8;" x="54" xlink:href="#mcd76624cac" y="252"/>
      </g>
     </g>
     <g id="text_1">
      <!-- −10.0 -->
      <g transform="translate(38.677344 266.598437)scale(0.1 -0.1)">
       <defs>
        <path d="M 10.59375 35.5 
L 73.1875 35.5 
L 73.1875 27.203125 
L 10.59375 27.203125 
z
" id="DejaVuSans-8722"/>
        <path d="M 12.40625 8.296875 
L 28.515625 8.296875 
L 28.515625 63.921875 
L 10.984375 60.40625 
L 10.984375 69.390625 
L 28.421875 72.90625 
L 38.28125 72.90625 
L 38.28125 8.296875 
L 54.390625 8.296875 
L 54.390625 0 
L 12.40625 0 
z
" id="DejaVuSans-49"/>
        <path d="M 31.78125 66.40625 
Q 24.171875 66.40625 20.328125 58.90625 
Q 16.5 51.421875 16.5 36.375 
Q 16.5 21.390625 20.328125 13.890625 
Q 24.171875 6.390625 31.78125 6.390625 
Q 39.453125 6.390625 43.28125 13.890625 
Q 47.125 21.390625 47.125 36.375 
Q 47.125 51.421875 43.28125 58.90625 
Q 39.453125 66.40625 31.78125 66.40625 
z
M 31.78125 74.21875 
Q 44.046875 74.21875 50.515625 64.515625 
Q 56.984375 54.828125 56.984375 36.375 
Q 56.984375 17.96875 50.515625 8.265625 
Q 44.046875 -1.421875 31.78125 -1.421875 
Q 19.53125 -1.421875 13.0625 8.265625 
Q 6.59375 17.96875 6.59375 36.375 
Q 6.59375 54.828125 13.0625 64.515625 
Q 19.53125 74.21875 31.78125 74.21875 
z
" id="DejaVuSans-48"/>
        <path d="M 10.6875 12.40625 
L 21 12.40625 
L 21 0 
L 10.6875 0 
z
" id="DejaVuSans-46"/>
       </defs>
       <use xlink:href="#DejaVuSans-8722"/>
       <use x="83.789062" xlink:href="#DejaVuSans-49"/>
       <use x="147.412109" xlink:href="#DejaVuSans-48"/>
       <use x="211.035156" xlink:href="#DejaVuSans-46"/>
       <use x="242.822266" xlink:href="#DejaVuSans-48"/>
      </g>
     </g>
    </g>
    <g id="xtick_2">
     <g id="line2d_2">
      <g>
       <use style="stroke:#000000;stroke-width:0.8;" x="95.85" xlink:href="#mcd76624cac" y="252"/>
      </g>
     </g>
     <g id="text_2">
      <!-- −7.5 -->
      <g transform="translate(83.708594 266.598437)scale(0.1 -0.1)">
       <defs>
        <path d="M 8.203125 72.90625 
L 55.078125 72.90625 
L 55.078125 68.703125 
L 28.609375 0 
L 18.3125 0 
L 43.21875 64.59375 
L 8.203125 64.59375 
z
" id="DejaVuSans-55"/>
        <path d="M 10.796875 72.90625 
L 49.515625 72.90625 
L 49.515625 64.59375 
L 19.828125 64.59375 
L 19.828125 46.734375 
Q 21.96875 47.46875 24.109375 47.828125 
Q 26.265625 48.1875 28.421875 48.1875 
Q 40.625 48.1875 47.75 41.5 
Q 54.890625 34.8125 54.890625 23.390625 
Q 54.890625 11.625 47.5625 5.09375 
Q 40.234375 -1.421875 26.90625 -1.421875 
Q 22.3125 -1.421875 17.546875 -0.640625 
Q 12.796875 0.140625 7.71875 1.703125 
L 7.71875 11.625 
Q 12.109375 9.234375 16.796875 8.0625 
Q 21.484375 6.890625 26.703125 6.890625 
Q 35.15625 6.890625 40.078125 11.328125 
Q 45.015625 15.765625 45.015625 23.390625 
Q 45.015625 31 40.078125 35.4375 
Q 35.15625 39.890625 26.703125 39.890625 
Q 22.75 39.890625 18.8125 39.015625 
Q 14.890625 38.140625 10.796875 36.28125 
z
" id="DejaVuSans-53"/>
       </defs>
       <use xlink:href="#DejaVuSans-8722"/>
       <use x="83.789062" xlink:href="#DejaVuSans-55"/>
       <use x="147.412109" xlink:href="#DejaVuSans-46"/>
       <use x="179.199219" xlink:href="#DejaVuSans-53"/>
      </g>
     </g>
    </g>
    <g id="xtick_3">
     <g id="line2d_3">
      <g>
       <use style="stroke:#000000;stroke-width:0.8;" x="137.7" xlink:href="#mcd76624cac" y="252"/>
      </g>
     </g>
     <g id="text_3">
      <!-- −5.0 -->
      <g transform="translate(125.558594 266.598437)scale(0.1 -0.1)">
       <use xlink:href="#DejaVuSans-8722"/>
       <use x="83.789062" xlink:href="#DejaVuSans-53"/>
       <use x="147.412109" xlink:href="#DejaVuSans-46"/>
       <use x="179.199219" xlink:href="#DejaVuSans-48"/>
      </g>
     </g>
    </g>
    <g id="xtick_4">
     <g id="line2d_4">
      <g>
       <use style="stroke:#000000;stroke-width:0.8;" x="179.55" xlink:href="#mcd76624cac" y="252"/>
      </g>
     </g>
     <g id="text_4">
      <!-- −2.5 -->
      <g transform="translate(167.408594 266.598437)scale(0.1 -0.1)">
       <defs>
        <path d="M 19.1875 8.296875 
L 53.609375 8.296875 
L 53.609375 0 
L 7.328125 0 
L 7.328125 8.296875 
Q 12.9375 14.109375 22.625 23.890625 
Q 32.328125 33.6875 34.8125 36.53125 
Q 39.546875 41.84375 41.421875 45.53125 
Q 43.3125 49.21875 43.3125 52.78125 
Q 43.3125 58.59375 39.234375 62.25 
Q 35.15625 65.921875 28.609375 65.921875 
Q 23.96875 65.921875 18.8125 64.3125 
Q 13.671875 62.703125 7.8125 59.421875 
L 7.8125 69.390625 
Q 13.765625 71.78125 18.9375 73 
Q 24.125 74.21875 28.421875 74.21875 
Q 39.75 74.21875 46.484375 68.546875 
Q 53.21875 62.890625 53.21875 53.421875 
Q 53.21875 48.921875 51.53125 44.890625 
Q 49.859375 40.875 45.40625 35.40625 
Q 44.1875 33.984375 37.640625 27.21875 
Q 31.109375 20.453125 19.1875 8.296875 
z
" id="DejaVuSans-50"/>
       </defs>
       <use xlink:href="#DejaVuSans-8722"/>
       <use x="83.789062" xlink:href="#DejaVuSans-50"/>
       <use x="147.412109" xlink:href="#DejaVuSans-46"/>
       <use x="179.199219" xlink:href="#DejaVuSans-53"/>
      </g>
     </g>
    </g>
    <g id="xtick_5">
     <g id="line2d_5">
      <g>
       <use style="stroke:#000000;stroke-width:0.8;" x="221.4" xlink:href="#mcd76624cac" y="252"/>
      </g>
     </g>
     <g id="text_5">
      <!-- 0.0 -->
      <g transform="translate(213.448438 266.598437)scale(0.1 -0.1)">
       <use xlink:href="#DejaVuSans-48"/>
       <use x="63.623047" xlink:href="#DejaVuSans-46"/>
       <use x="95.410156" xlink:href="#DejaVuSans-48"/>
      </g>
     </g>
    </g>
    <g id="xtick_6">
     <g id="line2d_6">
      <g>
       <use style="stroke:#000000;stroke-width:0.8;" x="263.25" xlink:href="#mcd76624cac" y="252"/>
      </g>
     </g>
     <g id="text_6">
      <!-- 2.5 -->
      <g transform="translate(255.298438 266.598437)scale(0.1 -0.1)">
       <use xlink:href="#DejaVuSans-50"/>
       <use x="63.623047" xlink:href="#DejaVuSans-46"/>
       <use x="95.410156" xlink:href="#DejaVuSans-53"/>
      </g>
     </g>
    </g>
    <g id="xtick_7">
     <g id="line2d_7">
      <g>
       <use style="stroke:#000000;stroke-width:0.8;" x="305.1" xlink:href="#mcd76624cac" y="252"/>
      </g>
     </g>
     <g id="text_7">
      <!-- 5.0 -->
      <g transform="translate(297.148438 266.598437)scale(0.1 -0.1)">
       <use xlink:href="#DejaVuSans-53"/>
       <use x="63.623047" xlink:href="#DejaVuSans-46"/>
       <use x="95.410156" xlink:href="#DejaVuSans-48"/>
      </g>
     </g>
    </g>
    <g id="xtick_8">
     <g id="line2d_8">
      <g>
       <use style="stroke:#000000;stroke-width:0.8;" x="346.95" xlink:href="#mcd76624cac" y="252"/>
      </g>
     </g>
     <g id="text_8">
      <!-- 7.5 -->
      <g transform="translate(338.998438 266.598437)scale(0.1 -0.1)">
       <use xlink:href="#DejaVuSans-55"/>
       <use x="63.623047" xlink:href="#DejaVuSans-46"/>
       <use x="95.410156" xlink:href="#DejaVuSans-53"/>
      </g>
     </g>
    </g>
    <g id="xtick_9">
     <g id="line2d_9">
      <g>
       <use style="stroke:#000000;stroke-width:0.8;" x="388.8" xlink:href="#mcd76624cac" y="252"/>
      </g>
     </g>
     <g id="text_9">
      <!-- 10.0 -->
      <g transform="translate(377.667188 266.598437)scale(0.1 -0.1)">
       <use xlink:href="#DejaVuSans-49"/>
       <use x="63.623047" xlink:href="#DejaVuSans-48"/>
       <use x="127.246094" xlink:href="#DejaVuSans-46"/>
       <use x="159.033203" xlink:href="#DejaVuSans-48"/>
      </g>
     </g>
    </g>
    <g id="text_10">
     <!-- x -->
     <g transform="translate(218.440625 280.276563)scale(0.1 -0.1)">
      <defs>
       <path d="M 54.890625 54.6875 
L 35.109375 28.078125 
L 55.90625 0 
L 45.3125 0 
L 29.390625 21.484375 
L 13.484375 0 
L 2.875 0 
L 24.125 28.609375 
L 4.6875 54.6875 
L 15.28125 54.6875 
L 29.78125 35.203125 
L 44.28125 54.6875 
z
" id="DejaVuSans-120"/>
      </defs>
      <use xlink:href="#DejaVuSans-120"/>
     </g>
    </g>
   </g>
   <g id="matplotlib.axis_2">
    <g id="ytick_1">
     <g id="line2d_10">
      <defs>
       <path d="M 0 0 
L -3.5 0 
" id="m9a39b069e2" style="stroke:#000000;stroke-width:0.8;"/>
      </defs>
      <g>
       <use style="stroke:#000000;stroke-width:0.8;" x="54" xlink:href="#m9a39b069e2" y="234.985363"/>
      </g>
     </g>
     <g id="text_11">
      <!-- −1.5 -->
      <g transform="translate(22.717187 238.784582)scale(0.1 -0.1)">
       <use xlink:href="#DejaVuSans-8722"/>
       <use x="83.789062" xlink:href="#DejaVuSans-49"/>
       <use x="147.412109" xlink:href="#DejaVuSans-46"/>
       <use x="179.199219" xlink:href="#DejaVuSans-53"/>
      </g>
     </g>
    </g>
    <g id="ytick_2">
     <g id="line2d_11">
      <g>
       <use style="stroke:#000000;stroke-width:0.8;" x="54" xlink:href="#m9a39b069e2" y="204.416909"/>
      </g>
     </g>
     <g id="text_12">
      <!-- −1.0 -->
      <g transform="translate(22.717187 208.216127)scale(0.1 -0.1)">
       <use xlink:href="#DejaVuSans-8722"/>
       <use x="83.789062" xlink:href="#DejaVuSans-49"/>
       <use x="147.412109" xlink:href="#DejaVuSans-46"/>
       <use x="179.199219" xlink:href="#DejaVuSans-48"/>
      </g>
     </g>
    </g>
    <g id="ytick_3">
     <g id="line2d_12">
      <g>
       <use style="stroke:#000000;stroke-width:0.8;" x="54" xlink:href="#m9a39b069e2" y="173.848454"/>
      </g>
     </g>
     <g id="text_13">
      <!-- −0.5 -->
      <g transform="translate(22.717187 177.647673)scale(0.1 -0.1)">
       <use xlink:href="#DejaVuSans-8722"/>
       <use x="83.789062" xlink:href="#DejaVuSans-48"/>
       <use x="147.412109" xlink:href="#DejaVuSans-46"/>
       <use x="179.199219" xlink:href="#DejaVuSans-53"/>
      </g>
     </g>
    </g>
    <g id="ytick_4">
     <g id="line2d_13">
      <g>
       <use style="stroke:#000000;stroke-width:0.8;" x="54" xlink:href="#m9a39b069e2" y="143.28"/>
      </g>
     </g>
     <g id="text_14">
      <!-- 0.0 -->
      <g transform="translate(31.096875 147.079219)scale(0.1 -0.1)">
       <use xlink:href="#DejaVuSans-48"/>
       <use x="63.623047" xlink:href="#DejaVuSans-46"/>
       <use x="95.410156" xlink:href="#DejaVuSans-48"/>
      </g>
     </g>
    </g>
    <g id="ytick_5">
     <g id="line2d_14">
      <g>
       <use style="stroke:#000000;stroke-width:0.8;" x="54" xlink:href="#m9a39b069e2" y="112.711546"/>
      </g>
     </g>
     <g id="text_15">
      <!-- 0.5 -->
      <g transform="translate(31.096875 116.510764)scale(0.1 -0.1)">
       <use xlink:href="#DejaVuSans-48"/>
       <use x="63.623047" xlink:href="#DejaVuSans-46"/>
       <use x="95.410156" xlink:href="#DejaVuSans-53"/>
      </g>
     </g>
    </g>
    <g id="ytick_6">
     <g id="line2d_15">
      <g>
       <use style="stroke:#000000;stroke-width:0.8;" x="54" xlink:href="#m9a39b069e2" y="82.143091"/>
      </g>
     </g>
     <g id="text_16">
      <!-- 1.0 -->
      <g transform="translate(31.096875 85.94231)scale(0.1 -0.1)">
       <use xlink:href="#DejaVuSans-49"/>
       <use x="63.623047" xlink:href="#DejaVuSans-46"/>
       <use x="95.410156" xlink:href="#DejaVuSans-48"/>
      </g>
     </g>
    </g>
    <g id="ytick_7">
     <g id="line2d_16">
      <g>
       <use style="stroke:#000000;stroke-width:0.8;" x="54" xlink:href="#m9a39b069e2" y="51.574637"/>
      </g>
     </g>
     <g id="text_17">
      <!-- 1.5 -->
      <g transform="translate(31.096875 55.373856)scale(0.1 -0.1)">
       <use xlink:href="#DejaVuSans-49"/>
       <use x="63.623047" xlink:href="#DejaVuSans-46"/>
       <use x="95.410156" xlink:href="#DejaVuSans-53"/>
      </g>
     </g>
    </g>
    <g id="text_18">
     <!-- 1e−1 -->
     <g transform="translate(54 31.56)scale(0.1 -0.1)">
      <defs>
       <path d="M 56.203125 29.59375 
L 56.203125 25.203125 
L 14.890625 25.203125 
Q 15.484375 15.921875 20.484375 11.0625 
Q 25.484375 6.203125 34.421875 6.203125 
Q 39.59375 6.203125 44.453125 7.46875 
Q 49.3125 8.734375 54.109375 11.28125 
L 54.109375 2.78125 
Q 49.265625 0.734375 44.1875 -0.34375 
Q 39.109375 -1.421875 33.890625 -1.421875 
Q 20.796875 -1.421875 13.15625 6.1875 
Q 5.515625 13.8125 5.515625 26.8125 
Q 5.515625 40.234375 12.765625 48.109375 
Q 20.015625 56 32.328125 56 
Q 43.359375 56 49.78125 48.890625 
Q 56.203125 41.796875 56.203125 29.59375 
z
M 47.21875 32.234375 
Q 47.125 39.59375 43.09375 43.984375 
Q 39.0625 48.390625 32.421875 48.390625 
Q 24.90625 48.390625 20.390625 44.140625 
Q 15.875 39.890625 15.1875 32.171875 
z
" id="DejaVuSans-101"/>
      </defs>
      <use xlink:href="#DejaVuSans-49"/>
      <use x="63.623047" xlink:href="#DejaVuSans-101"/>
      <use x="125.146484" xlink:href="#DejaVuSans-8722"/>
      <use x="208.935547" xlink:href="#DejaVuSans-49"/>
     </g>
    </g>
   </g>
   <g id="line2d_17">
    <path clip-path="url(#p5060e0a6f0)" d="M -1 143.28 
L 97.524 143.37504 
L 100.872 143.531698 
L 104.22 143.909008 
L 105.894 144.252304 
L 107.568 144.760051 
L 109.242 145.497852 
L 110.916 146.550447 
L 112.59 148.02374 
L 114.264 150.045106 
L 115.938 152.760816 
L 117.612 156.329193 
L 119.286 160.908049 
L 120.96 166.635131 
L 122.634 173.600878 
L 124.308 181.81391 
L 125.982 191.161226 
L 132.678 231.315823 
L 134.352 238.093111 
L 136.026 241.403676 
L 137.7 240.115798 
L 139.374 233.311782 
L 141.048 220.48789 
L 142.722 201.752661 
L 144.396 177.985056 
L 149.418 97.454944 
L 151.092 77.469673 
L 152.766 66.076841 
L 154.44 65.404738 
L 156.114 76.177483 
L 157.788 97.341986 
L 159.462 125.974356 
L 161.136 157.549789 
L 162.81 186.594279 
L 164.484 207.64885 
L 166.158 216.38555 
L 167.832 210.642684 
L 169.506 191.119852 
L 171.18 161.509325 
L 172.854 127.943695 
L 174.528 97.795971 
L 176.202 78.044254 
L 177.876 73.56186 
L 179.55 85.767461 
L 181.224 112.032798 
L 184.572 179.433385 
L 186.246 203.428753 
L 187.92 211.61319 
L 189.594 201.555137 
L 191.268 175.712457 
L 194.616 106.86125 
L 196.29 83.004427 
L 197.964 76.293824 
L 199.638 88.832632 
L 201.312 117.164651 
L 202.986 153.137076 
L 204.66 186.203007 
L 206.334 206.522356 
L 208.008 207.940851 
L 209.682 189.924632 
L 211.356 157.818759 
L 213.03 121.302352 
L 214.704 91.477344 
L 216.378 77.470993 
L 218.052 83.606401 
L 219.726 108.03558 
L 223.074 178.52442 
L 224.748 202.953599 
L 226.422 209.089007 
L 228.096 195.082656 
L 229.77 165.257648 
L 231.444 128.741241 
L 233.118 96.635368 
L 234.792 78.619149 
L 236.466 80.037644 
L 238.14 100.356993 
L 239.814 133.422924 
L 241.488 169.395349 
L 243.162 197.727368 
L 244.836 210.266176 
L 246.51 203.555573 
L 248.184 179.69875 
L 251.532 110.847543 
L 253.206 85.004863 
L 254.88 74.94681 
L 256.554 83.131247 
L 258.228 107.126615 
L 261.576 174.527202 
L 263.25 200.792539 
L 264.924 212.99814 
L 266.598 208.515746 
L 268.272 188.764029 
L 269.946 158.616305 
L 271.62 125.050675 
L 273.294 95.440148 
L 274.968 75.917316 
L 276.642 70.17445 
L 278.316 78.91115 
L 279.99 99.965721 
L 281.664 129.010211 
L 283.338 160.585644 
L 285.012 189.218014 
L 286.686 210.382517 
L 288.36 221.155262 
L 290.034 220.483159 
L 291.708 209.090327 
L 293.382 189.105056 
L 295.056 163.526199 
L 298.404 108.574944 
L 300.078 84.807339 
L 301.752 66.07211 
L 303.426 53.248218 
L 305.1 46.444202 
L 306.774 45.156324 
L 308.448 48.466889 
L 310.122 55.244177 
L 311.796 64.316019 
L 316.818 95.398774 
L 318.492 104.74609 
L 320.166 112.959122 
L 321.84 119.924869 
L 323.514 125.651951 
L 325.188 130.230807 
L 326.862 133.799184 
L 328.536 136.514894 
L 330.21 138.53626 
L 331.884 140.009553 
L 333.558 141.062148 
L 335.232 141.799949 
L 336.906 142.307696 
L 338.58 142.650992 
L 341.928 143.028302 
L 346.95 143.222822 
L 358.668 143.278881 
L 433 143.28 
L 433 143.28 
" style="fill:none;stroke:#1f77b4;stroke-linecap:square;stroke-width:1.5;"/>
   </g>
   <g id="line2d_18">
    <path clip-path="url(#p5060e0a6f0)" d="M -1 143.28 
L 97.524 143.38655 
L 100.872 143.562456 
L 104.22 143.985204 
L 105.894 144.368816 
L 107.568 144.934732 
L 109.242 145.754518 
L 110.916 146.919849 
L 112.59 148.544159 
L 114.264 150.762203 
L 115.938 153.726296 
L 117.612 157.597778 
L 119.286 162.532275 
L 120.96 168.657618 
L 122.634 176.044038 
L 124.308 184.667506 
L 125.982 194.368929 
L 131.004 225.551199 
L 132.678 234.113159 
L 134.352 240.0268 
L 136.026 242.116364 
L 137.7 239.296548 
L 139.374 230.755412 
L 141.048 216.155561 
L 142.722 195.822371 
L 144.396 170.878772 
L 147.744 115.72783 
L 149.418 91.38708 
L 151.092 73.500479 
L 152.766 64.850789 
L 154.44 67.20239 
L 156.114 80.811806 
L 157.788 104.130639 
L 162.81 192.414896 
L 164.484 210.668557 
L 166.158 216.020206 
L 167.832 206.99046 
L 169.506 184.979417 
L 171.18 154.235018 
L 172.854 121.156934 
L 174.528 93.012785 
L 176.202 76.308054 
L 177.876 75.178229 
L 179.55 90.218327 
L 181.224 118.103551 
L 182.898 152.185172 
L 184.572 184.000341 
L 186.246 205.37405 
L 187.92 210.591054 
L 189.594 198.042849 
L 191.268 170.848018 
L 194.616 103.50677 
L 196.29 81.878602 
L 197.964 77.490121 
L 199.638 91.745759 
L 201.312 120.730384 
L 202.986 156.204586 
L 204.66 187.910824 
L 206.334 206.551342 
L 208.008 206.564118 
L 209.682 187.848559 
L 211.356 155.884087 
L 213.03 120.162434 
L 214.704 91.374262 
L 216.378 78.188681 
L 218.052 84.609224 
L 219.726 108.728458 
L 223.074 177.831542 
L 224.748 201.950776 
L 226.422 208.371319 
L 228.096 195.185738 
L 229.77 166.397566 
L 231.444 130.675913 
L 233.118 98.711441 
L 234.792 79.995882 
L 236.466 80.008658 
L 238.14 98.649176 
L 239.814 130.355414 
L 241.488 165.829616 
L 243.162 194.814241 
L 244.836 209.069879 
L 246.51 204.681398 
L 248.184 183.05323 
L 251.532 115.711982 
L 253.206 88.517151 
L 254.88 75.968946 
L 256.554 81.18595 
L 258.228 102.559659 
L 259.902 134.374828 
L 261.576 168.456449 
L 263.25 196.341673 
L 264.924 211.381771 
L 266.598 210.251946 
L 268.272 193.547215 
L 269.946 165.403066 
L 271.62 132.324982 
L 273.294 101.580583 
L 274.968 79.56954 
L 276.642 70.539794 
L 278.316 75.891443 
L 279.99 94.145104 
L 281.664 121.4947 
L 285.012 182.429361 
L 286.686 205.748194 
L 288.36 219.35761 
L 290.034 221.709211 
L 291.708 213.059521 
L 293.382 195.17292 
L 295.056 170.83217 
L 298.404 115.681228 
L 300.078 90.737629 
L 301.752 70.404439 
L 303.426 55.804588 
L 305.1 47.263452 
L 306.774 44.443636 
L 308.448 46.5332 
L 310.122 52.446841 
L 311.796 61.008801 
L 315.144 81.745854 
L 316.818 92.191071 
L 318.492 101.892494 
L 320.166 110.515962 
L 321.84 117.902382 
L 323.514 124.027725 
L 325.188 128.962222 
L 326.862 132.833704 
L 328.536 135.797797 
L 330.21 138.015841 
L 331.884 139.640151 
L 333.558 140.805482 
L 335.232 141.625268 
L 336.906 142.191184 
L 338.58 142.574796 
L 341.928 142.997544 
L 346.95 143.215976 
L 356.994 143.277757 
L 433 143.28 
L 433 143.28 
" style="fill:none;stroke:#ff7f0e;stroke-linecap:square;stroke-width:1.5;"/>
   </g>
   <g id="patch_3">
    <path d="M 54 252 
L 54 34.56 
" style="fill:none;stroke:#000000;stroke-linecap:square;stroke-linejoin:miter;stroke-width:0.8;"/>
   </g>
   <g id="patch_4">
    <path d="M 388.8 252 
L 388.8 34.56 
" style="fill:none;stroke:#000000;stroke-linecap:square;stroke-linejoin:miter;stroke-width:0.8;"/>
   </g>
   <g id="patch_5">
    <path d="M 54 252 
L 388.8 252 
" style="fill:none;stroke:#000000;stroke-linecap:square;stroke-linejoin:miter;stroke-width:0.8;"/>
   </g>
   <g id="patch_6">
    <path d="M 54 34.56 
L 388.8 34.56 
" style="fill:none;stroke:#000000;stroke-linecap:square;stroke-linejoin:miter;stroke-width:0.8;"/>
   </g>
   <g id="text_19">
    <!-- N=500, L=50 -->
    <g transform="translate(180.61125 28.56)scale(0.12 -0.12)">
     <defs>
      <path d="M 9.8125 72.90625 
L 23.09375 72.90625 
L 55.421875 11.921875 
L 55.421875 72.90625 
L 64.984375 72.90625 
L 64.984375 0 
L 51.703125 0 
L 19.390625 60.984375 
L 19.390625 0 
L 9.8125 0 
z
" id="DejaVuSans-78"/>
      <path d="M 10.59375 45.40625 
L 73.1875 45.40625 
L 73.1875 37.203125 
L 10.59375 37.203125 
z
M 10.59375 25.484375 
L 73.1875 25.484375 
L 73.1875 17.1875 
L 10.59375 17.1875 
z
" id="DejaVuSans-61"/>
      <path d="M 11.71875 12.40625 
L 22.015625 12.40625 
L 22.015625 4 
L 14.015625 -11.625 
L 7.71875 -11.625 
L 11.71875 4 
z
" id="DejaVuSans-44"/>
      <path id="DejaVuSans-32"/>
      <path d="M 9.8125 72.90625 
L 19.671875 72.90625 
L 19.671875 8.296875 
L 55.171875 8.296875 
L 55.171875 0 
L 9.8125 0 
z
" id="DejaVuSans-76"/>
     </defs>
     <use xlink:href="#DejaVuSans-78"/>
     <use x="74.804688" xlink:href="#DejaVuSans-61"/>
     <use x="158.59375" xlink:href="#DejaVuSans-53"/>
     <use x="222.216797" xlink:href="#DejaVuSans-48"/>
     <use x="285.839844" xlink:href="#DejaVuSans-48"/>
     <use x="349.462891" xlink:href="#DejaVuSans-44"/>
     <use x="381.25" xlink:href="#DejaVuSans-32"/>
     <use x="413.037109" xlink:href="#DejaVuSans-76"/>
     <use x="468.75" xlink:href="#DejaVuSans-61"/>
     <use x="552.539062" xlink:href="#DejaVuSans-53"/>
     <use x="616.162109" xlink:href="#DejaVuSans-48"/>
    </g>
   </g>
   <g id="legend_1">
    <g id="patch_7">
     <path d="M 62.4 84.72 
L 129.36 84.72 
Q 131.76 84.72 131.76 82.32 
L 131.76 42.96 
Q 131.76 40.56 129.36 40.56 
L 62.4 40.56 
Q 60 40.56 60 42.96 
L 60 82.32 
Q 60 84.72 62.4 84.72 
z
" style="fill:#ffffff;opacity:0.8;stroke:#cccccc;stroke-linejoin:miter;"/>
    </g>
    <g id="line2d_19">
     <path d="M 64.8 51.96 
L 88.8 51.96 
" style="fill:none;stroke:#1f77b4;stroke-linecap:square;stroke-width:1.5;"/>
    </g>
    <g id="line2d_20"/>
    <g id="text_20">
     <!-- $\psi^{NUM}_{15}$ -->
     <g transform="translate(98.4 56.16)scale(0.12 -0.12)">
      <defs>
       <path d="M 24.859375 -1.21875 
Q 13.921875 0.59375 9.625 5.328125 
Q 4.34375 11.140625 6.640625 23 
L 12.796875 54.6875 
L 21.875 54.6875 
L 15.765625 23.34375 
Q 14.0625 14.40625 17.484375 10.6875 
Q 20.515625 7.46875 26.421875 6.78125 
L 35.6875 54.6875 
L 44.625 54.6875 
L 35.359375 6.84375 
Q 41.890625 7.515625 45.75 10.75 
Q 50.734375 14.84375 52.390625 23.390625 
L 58.453125 54.6875 
L 67.53125 54.6875 
L 61.375 23.046875 
Q 58.984375 10.75 51.5625 5.375 
Q 44.875 0.53125 33.796875 -1.171875 
L 29.984375 -20.796875 
L 21.046875 -20.796875 
z
" id="DejaVuSans-Oblique-968"/>
       <path d="M 16.890625 72.90625 
L 30.171875 72.90625 
L 50.296875 10.40625 
L 62.5 72.90625 
L 72.125 72.90625 
L 57.90625 0 
L 44.578125 0 
L 24.515625 62.890625 
L 12.3125 0 
L 2.6875 0 
z
" id="DejaVuSans-Oblique-78"/>
       <path d="M 15.484375 72.90625 
L 25.390625 72.90625 
L 16.796875 28.609375 
Q 16.265625 25.640625 16.046875 23.703125 
Q 15.828125 21.78125 15.828125 20.3125 
Q 15.828125 13.578125 19.578125 10.078125 
Q 23.34375 6.59375 30.609375 6.59375 
Q 40.046875 6.59375 45.28125 11.765625 
Q 50.53125 16.9375 52.78125 28.609375 
L 61.375 72.90625 
L 71.296875 72.90625 
L 62.5 27.390625 
Q 59.625 12.640625 51.5625 5.609375 
Q 43.5 -1.421875 29.5 -1.421875 
Q 18.5625 -1.421875 12.1875 4.078125 
Q 5.8125 9.578125 5.8125 19 
Q 5.8125 20.703125 6.046875 22.828125 
Q 6.296875 24.953125 6.78125 27.390625 
z
" id="DejaVuSans-Oblique-85"/>
       <path d="M 16.890625 72.90625 
L 31.6875 72.90625 
L 40.1875 23.78125 
L 68.40625 72.90625 
L 83.59375 72.90625 
L 69.390625 0 
L 59.8125 0 
L 72.21875 63.921875 
L 43.609375 14.015625 
L 33.984375 14.015625 
L 24.703125 64.109375 
L 12.3125 0 
L 2.6875 0 
z
" id="DejaVuSans-Oblique-77"/>
      </defs>
      <use transform="translate(0 0.684375)" xlink:href="#DejaVuSans-Oblique-968"/>
      <use transform="translate(70.432943 38.965625)scale(0.7)" xlink:href="#DejaVuSans-Oblique-78"/>
      <use transform="translate(122.796224 38.965625)scale(0.7)" xlink:href="#DejaVuSans-Oblique-85"/>
      <use transform="translate(174.031576 38.965625)scale(0.7)" xlink:href="#DejaVuSans-Oblique-77"/>
      <use transform="translate(65.966797 -26.659375)scale(0.7)" xlink:href="#DejaVuSans-49"/>
      <use transform="translate(110.50293 -26.659375)scale(0.7)" xlink:href="#DejaVuSans-53"/>
     </g>
    </g>
    <g id="line2d_21">
     <path d="M 64.8 72.24 
L 88.8 72.24 
" style="fill:none;stroke:#ff7f0e;stroke-linecap:square;stroke-width:1.5;"/>
    </g>
    <g id="line2d_22"/>
    <g id="text_21">
     <!-- $\psi^{TH}_{15}$ -->
     <g transform="translate(98.4 76.44)scale(0.12 -0.12)">
      <defs>
       <path d="M 5.90625 72.90625 
L 67.578125 72.90625 
L 66.015625 64.59375 
L 39.984375 64.59375 
L 27.484375 0 
L 17.578125 0 
L 30.078125 64.59375 
L 4.296875 64.59375 
z
" id="DejaVuSans-Oblique-84"/>
       <path d="M 16.890625 72.90625 
L 26.8125 72.90625 
L 21 43.015625 
L 56.78125 43.015625 
L 62.59375 72.90625 
L 72.515625 72.90625 
L 58.296875 0 
L 48.390625 0 
L 55.171875 34.71875 
L 19.390625 34.71875 
L 12.59375 0 
L 2.6875 0 
z
" id="DejaVuSans-Oblique-72"/>
      </defs>
      <use transform="translate(0 0.684375)" xlink:href="#DejaVuSans-Oblique-968"/>
      <use transform="translate(70.432943 38.965625)scale(0.7)" xlink:href="#DejaVuSans-Oblique-84"/>
      <use transform="translate(113.191732 38.965625)scale(0.7)" xlink:href="#DejaVuSans-Oblique-72"/>
      <use transform="translate(65.966797 -26.659375)scale(0.7)" xlink:href="#DejaVuSans-49"/>
      <use transform="translate(110.50293 -26.659375)scale(0.7)" xlink:href="#DejaVuSans-53"/>
     </g>
    </g>
   </g>
  </g>
 </g>
 <defs>
  <clipPath id="p5060e0a6f0">
   <rect height="217.44" width="334.8" x="54" y="34.56"/>
  </clipPath>
 </defs>
</svg>
