<?xml version="1.0" encoding="utf-8" standalone="no"?>
<!DOCTYPE svg PUBLIC "-//W3C//DTD SVG 1.1//EN"
  "http://www.w3.org/Graphics/SVG/1.1/DTD/svg11.dtd">
<!-- Created with matplotlib (https://matplotlib.org/) -->
<svg height="288pt" version="1.1" viewBox="0 0 432 288" width="432pt" xmlns="http://www.w3.org/2000/svg" xmlns:xlink="http://www.w3.org/1999/xlink">
 <metadata>
  <rdf:RDF xmlns:cc="http://creativecommons.org/ns#" xmlns:dc="http://purl.org/dc/elements/1.1/" xmlns:rdf="http://www.w3.org/1999/02/22-rdf-syntax-ns#">
   <cc:Work>
    <dc:type rdf:resource="http://purl.org/dc/dcmitype/StillImage"/>
    <dc:date>2021-11-23T18:23:19.324470</dc:date>
    <dc:format>image/svg+xml</dc:format>
    <dc:creator>
     <cc:Agent>
      <dc:title>Matplotlib v3.3.4, https://matplotlib.org/</dc:title>
     </cc:Agent>
    </dc:creator>
   </cc:Work>
  </rdf:RDF>
 </metadata>
 <defs>
  <style type="text/css">*{stroke-linecap:butt;stroke-linejoin:round;}</style>
 </defs>
 <g id="figure_1">
  <g id="patch_1">
   <path d="M 0 288 
L 432 288 
L 432 0 
L 0 0 
z
" style="fill:none;"/>
  </g>
  <g id="axes_1">
   <g id="patch_2">
    <path d="M 54 252 
L 388.8 252 
L 388.8 34.56 
L 54 34.56 
z
" style="fill:#ffffff;"/>
   </g>
   <g id="matplotlib.axis_1">
    <g id="xtick_1">
     <g id="line2d_1">
      <defs>
       <path d="M 0 0 
L 0 3.5 
" id="mf7ad53e7bb" style="stroke:#000000;stroke-width:0.8;"/>
      </defs>
      <g>
       <use style="stroke:#000000;stroke-width:0.8;" x="54" xlink:href="#mf7ad53e7bb" y="252"/>
      </g>
     </g>
     <g id="text_1">
      <!-- −10.0 -->
      <g transform="translate(38.677344 266.598437)scale(0.1 -0.1)">
       <defs>
        <path d="M 10.59375 35.5 
L 73.1875 35.5 
L 73.1875 27.203125 
L 10.59375 27.203125 
z
" id="DejaVuSans-8722"/>
        <path d="M 12.40625 8.296875 
L 28.515625 8.296875 
L 28.515625 63.921875 
L 10.984375 60.40625 
L 10.984375 69.390625 
L 28.421875 72.90625 
L 38.28125 72.90625 
L 38.28125 8.296875 
L 54.390625 8.296875 
L 54.390625 0 
L 12.40625 0 
z
" id="DejaVuSans-49"/>
        <path d="M 31.78125 66.40625 
Q 24.171875 66.40625 20.328125 58.90625 
Q 16.5 51.421875 16.5 36.375 
Q 16.5 21.390625 20.328125 13.890625 
Q 24.171875 6.390625 31.78125 6.390625 
Q 39.453125 6.390625 43.28125 13.890625 
Q 47.125 21.390625 47.125 36.375 
Q 47.125 51.421875 43.28125 58.90625 
Q 39.453125 66.40625 31.78125 66.40625 
z
M 31.78125 74.21875 
Q 44.046875 74.21875 50.515625 64.515625 
Q 56.984375 54.828125 56.984375 36.375 
Q 56.984375 17.96875 50.515625 8.265625 
Q 44.046875 -1.421875 31.78125 -1.421875 
Q 19.53125 -1.421875 13.0625 8.265625 
Q 6.59375 17.96875 6.59375 36.375 
Q 6.59375 54.828125 13.0625 64.515625 
Q 19.53125 74.21875 31.78125 74.21875 
z
" id="DejaVuSans-48"/>
        <path d="M 10.6875 12.40625 
L 21 12.40625 
L 21 0 
L 10.6875 0 
z
" id="DejaVuSans-46"/>
       </defs>
       <use xlink:href="#DejaVuSans-8722"/>
       <use x="83.789062" xlink:href="#DejaVuSans-49"/>
       <use x="147.412109" xlink:href="#DejaVuSans-48"/>
       <use x="211.035156" xlink:href="#DejaVuSans-46"/>
       <use x="242.822266" xlink:href="#DejaVuSans-48"/>
      </g>
     </g>
    </g>
    <g id="xtick_2">
     <g id="line2d_2">
      <g>
       <use style="stroke:#000000;stroke-width:0.8;" x="95.85" xlink:href="#mf7ad53e7bb" y="252"/>
      </g>
     </g>
     <g id="text_2">
      <!-- −7.5 -->
      <g transform="translate(83.708594 266.598437)scale(0.1 -0.1)">
       <defs>
        <path d="M 8.203125 72.90625 
L 55.078125 72.90625 
L 55.078125 68.703125 
L 28.609375 0 
L 18.3125 0 
L 43.21875 64.59375 
L 8.203125 64.59375 
z
" id="DejaVuSans-55"/>
        <path d="M 10.796875 72.90625 
L 49.515625 72.90625 
L 49.515625 64.59375 
L 19.828125 64.59375 
L 19.828125 46.734375 
Q 21.96875 47.46875 24.109375 47.828125 
Q 26.265625 48.1875 28.421875 48.1875 
Q 40.625 48.1875 47.75 41.5 
Q 54.890625 34.8125 54.890625 23.390625 
Q 54.890625 11.625 47.5625 5.09375 
Q 40.234375 -1.421875 26.90625 -1.421875 
Q 22.3125 -1.421875 17.546875 -0.640625 
Q 12.796875 0.140625 7.71875 1.703125 
L 7.71875 11.625 
Q 12.109375 9.234375 16.796875 8.0625 
Q 21.484375 6.890625 26.703125 6.890625 
Q 35.15625 6.890625 40.078125 11.328125 
Q 45.015625 15.765625 45.015625 23.390625 
Q 45.015625 31 40.078125 35.4375 
Q 35.15625 39.890625 26.703125 39.890625 
Q 22.75 39.890625 18.8125 39.015625 
Q 14.890625 38.140625 10.796875 36.28125 
z
" id="DejaVuSans-53"/>
       </defs>
       <use xlink:href="#DejaVuSans-8722"/>
       <use x="83.789062" xlink:href="#DejaVuSans-55"/>
       <use x="147.412109" xlink:href="#DejaVuSans-46"/>
       <use x="179.199219" xlink:href="#DejaVuSans-53"/>
      </g>
     </g>
    </g>
    <g id="xtick_3">
     <g id="line2d_3">
      <g>
       <use style="stroke:#000000;stroke-width:0.8;" x="137.7" xlink:href="#mf7ad53e7bb" y="252"/>
      </g>
     </g>
     <g id="text_3">
      <!-- −5.0 -->
      <g transform="translate(125.558594 266.598437)scale(0.1 -0.1)">
       <use xlink:href="#DejaVuSans-8722"/>
       <use x="83.789062" xlink:href="#DejaVuSans-53"/>
       <use x="147.412109" xlink:href="#DejaVuSans-46"/>
       <use x="179.199219" xlink:href="#DejaVuSans-48"/>
      </g>
     </g>
    </g>
    <g id="xtick_4">
     <g id="line2d_4">
      <g>
       <use style="stroke:#000000;stroke-width:0.8;" x="179.55" xlink:href="#mf7ad53e7bb" y="252"/>
      </g>
     </g>
     <g id="text_4">
      <!-- −2.5 -->
      <g transform="translate(167.408594 266.598437)scale(0.1 -0.1)">
       <defs>
        <path d="M 19.1875 8.296875 
L 53.609375 8.296875 
L 53.609375 0 
L 7.328125 0 
L 7.328125 8.296875 
Q 12.9375 14.109375 22.625 23.890625 
Q 32.328125 33.6875 34.8125 36.53125 
Q 39.546875 41.84375 41.421875 45.53125 
Q 43.3125 49.21875 43.3125 52.78125 
Q 43.3125 58.59375 39.234375 62.25 
Q 35.15625 65.921875 28.609375 65.921875 
Q 23.96875 65.921875 18.8125 64.3125 
Q 13.671875 62.703125 7.8125 59.421875 
L 7.8125 69.390625 
Q 13.765625 71.78125 18.9375 73 
Q 24.125 74.21875 28.421875 74.21875 
Q 39.75 74.21875 46.484375 68.546875 
Q 53.21875 62.890625 53.21875 53.421875 
Q 53.21875 48.921875 51.53125 44.890625 
Q 49.859375 40.875 45.40625 35.40625 
Q 44.1875 33.984375 37.640625 27.21875 
Q 31.109375 20.453125 19.1875 8.296875 
z
" id="DejaVuSans-50"/>
       </defs>
       <use xlink:href="#DejaVuSans-8722"/>
       <use x="83.789062" xlink:href="#DejaVuSans-50"/>
       <use x="147.412109" xlink:href="#DejaVuSans-46"/>
       <use x="179.199219" xlink:href="#DejaVuSans-53"/>
      </g>
     </g>
    </g>
    <g id="xtick_5">
     <g id="line2d_5">
      <g>
       <use style="stroke:#000000;stroke-width:0.8;" x="221.4" xlink:href="#mf7ad53e7bb" y="252"/>
      </g>
     </g>
     <g id="text_5">
      <!-- 0.0 -->
      <g transform="translate(213.448438 266.598437)scale(0.1 -0.1)">
       <use xlink:href="#DejaVuSans-48"/>
       <use x="63.623047" xlink:href="#DejaVuSans-46"/>
       <use x="95.410156" xlink:href="#DejaVuSans-48"/>
      </g>
     </g>
    </g>
    <g id="xtick_6">
     <g id="line2d_6">
      <g>
       <use style="stroke:#000000;stroke-width:0.8;" x="263.25" xlink:href="#mf7ad53e7bb" y="252"/>
      </g>
     </g>
     <g id="text_6">
      <!-- 2.5 -->
      <g transform="translate(255.298438 266.598437)scale(0.1 -0.1)">
       <use xlink:href="#DejaVuSans-50"/>
       <use x="63.623047" xlink:href="#DejaVuSans-46"/>
       <use x="95.410156" xlink:href="#DejaVuSans-53"/>
      </g>
     </g>
    </g>
    <g id="xtick_7">
     <g id="line2d_7">
      <g>
       <use style="stroke:#000000;stroke-width:0.8;" x="305.1" xlink:href="#mf7ad53e7bb" y="252"/>
      </g>
     </g>
     <g id="text_7">
      <!-- 5.0 -->
      <g transform="translate(297.148438 266.598437)scale(0.1 -0.1)">
       <use xlink:href="#DejaVuSans-53"/>
       <use x="63.623047" xlink:href="#DejaVuSans-46"/>
       <use x="95.410156" xlink:href="#DejaVuSans-48"/>
      </g>
     </g>
    </g>
    <g id="xtick_8">
     <g id="line2d_8">
      <g>
       <use style="stroke:#000000;stroke-width:0.8;" x="346.95" xlink:href="#mf7ad53e7bb" y="252"/>
      </g>
     </g>
     <g id="text_8">
      <!-- 7.5 -->
      <g transform="translate(338.998438 266.598437)scale(0.1 -0.1)">
       <use xlink:href="#DejaVuSans-55"/>
       <use x="63.623047" xlink:href="#DejaVuSans-46"/>
       <use x="95.410156" xlink:href="#DejaVuSans-53"/>
      </g>
     </g>
    </g>
    <g id="xtick_9">
     <g id="line2d_9">
      <g>
       <use style="stroke:#000000;stroke-width:0.8;" x="388.8" xlink:href="#mf7ad53e7bb" y="252"/>
      </g>
     </g>
     <g id="text_9">
      <!-- 10.0 -->
      <g transform="translate(377.667188 266.598437)scale(0.1 -0.1)">
       <use xlink:href="#DejaVuSans-49"/>
       <use x="63.623047" xlink:href="#DejaVuSans-48"/>
       <use x="127.246094" xlink:href="#DejaVuSans-46"/>
       <use x="159.033203" xlink:href="#DejaVuSans-48"/>
      </g>
     </g>
    </g>
    <g id="text_10">
     <!-- x -->
     <g transform="translate(218.440625 280.276563)scale(0.1 -0.1)">
      <defs>
       <path d="M 54.890625 54.6875 
L 35.109375 28.078125 
L 55.90625 0 
L 45.3125 0 
L 29.390625 21.484375 
L 13.484375 0 
L 2.875 0 
L 24.125 28.609375 
L 4.6875 54.6875 
L 15.28125 54.6875 
L 29.78125 35.203125 
L 44.28125 54.6875 
z
" id="DejaVuSans-120"/>
      </defs>
      <use xlink:href="#DejaVuSans-120"/>
     </g>
    </g>
   </g>
   <g id="matplotlib.axis_2">
    <g id="ytick_1">
     <g id="line2d_10">
      <defs>
       <path d="M 0 0 
L -3.5 0 
" id="mb8de1bbc26" style="stroke:#000000;stroke-width:0.8;"/>
      </defs>
      <g>
       <use style="stroke:#000000;stroke-width:0.8;" x="54" xlink:href="#mb8de1bbc26" y="216.723276"/>
      </g>
     </g>
     <g id="text_11">
      <!-- −1.0 -->
      <g transform="translate(22.717187 220.522495)scale(0.1 -0.1)">
       <use xlink:href="#DejaVuSans-8722"/>
       <use x="83.789062" xlink:href="#DejaVuSans-49"/>
       <use x="147.412109" xlink:href="#DejaVuSans-46"/>
       <use x="179.199219" xlink:href="#DejaVuSans-48"/>
      </g>
     </g>
    </g>
    <g id="ytick_2">
     <g id="line2d_11">
      <g>
       <use style="stroke:#000000;stroke-width:0.8;" x="54" xlink:href="#mb8de1bbc26" y="181.022446"/>
      </g>
     </g>
     <g id="text_12">
      <!-- −0.5 -->
      <g transform="translate(22.717187 184.821665)scale(0.1 -0.1)">
       <use xlink:href="#DejaVuSans-8722"/>
       <use x="83.789062" xlink:href="#DejaVuSans-48"/>
       <use x="147.412109" xlink:href="#DejaVuSans-46"/>
       <use x="179.199219" xlink:href="#DejaVuSans-53"/>
      </g>
     </g>
    </g>
    <g id="ytick_3">
     <g id="line2d_12">
      <g>
       <use style="stroke:#000000;stroke-width:0.8;" x="54" xlink:href="#mb8de1bbc26" y="145.321617"/>
      </g>
     </g>
     <g id="text_13">
      <!-- 0.0 -->
      <g transform="translate(31.096875 149.120836)scale(0.1 -0.1)">
       <use xlink:href="#DejaVuSans-48"/>
       <use x="63.623047" xlink:href="#DejaVuSans-46"/>
       <use x="95.410156" xlink:href="#DejaVuSans-48"/>
      </g>
     </g>
    </g>
    <g id="ytick_4">
     <g id="line2d_13">
      <g>
       <use style="stroke:#000000;stroke-width:0.8;" x="54" xlink:href="#mb8de1bbc26" y="109.620787"/>
      </g>
     </g>
     <g id="text_14">
      <!-- 0.5 -->
      <g transform="translate(31.096875 113.420006)scale(0.1 -0.1)">
       <use xlink:href="#DejaVuSans-48"/>
       <use x="63.623047" xlink:href="#DejaVuSans-46"/>
       <use x="95.410156" xlink:href="#DejaVuSans-53"/>
      </g>
     </g>
    </g>
    <g id="ytick_5">
     <g id="line2d_14">
      <g>
       <use style="stroke:#000000;stroke-width:0.8;" x="54" xlink:href="#mb8de1bbc26" y="73.919958"/>
      </g>
     </g>
     <g id="text_15">
      <!-- 1.0 -->
      <g transform="translate(31.096875 77.719176)scale(0.1 -0.1)">
       <use xlink:href="#DejaVuSans-49"/>
       <use x="63.623047" xlink:href="#DejaVuSans-46"/>
       <use x="95.410156" xlink:href="#DejaVuSans-48"/>
      </g>
     </g>
    </g>
    <g id="ytick_6">
     <g id="line2d_15">
      <g>
       <use style="stroke:#000000;stroke-width:0.8;" x="54" xlink:href="#mb8de1bbc26" y="38.219128"/>
      </g>
     </g>
     <g id="text_16">
      <!-- 1.5 -->
      <g transform="translate(31.096875 42.018347)scale(0.1 -0.1)">
       <use xlink:href="#DejaVuSans-49"/>
       <use x="63.623047" xlink:href="#DejaVuSans-46"/>
       <use x="95.410156" xlink:href="#DejaVuSans-53"/>
      </g>
     </g>
    </g>
    <g id="text_17">
     <!-- 1e−1 -->
     <g transform="translate(54 31.56)scale(0.1 -0.1)">
      <defs>
       <path d="M 56.203125 29.59375 
L 56.203125 25.203125 
L 14.890625 25.203125 
Q 15.484375 15.921875 20.484375 11.0625 
Q 25.484375 6.203125 34.421875 6.203125 
Q 39.59375 6.203125 44.453125 7.46875 
Q 49.3125 8.734375 54.109375 11.28125 
L 54.109375 2.78125 
Q 49.265625 0.734375 44.1875 -0.34375 
Q 39.109375 -1.421875 33.890625 -1.421875 
Q 20.796875 -1.421875 13.15625 6.1875 
Q 5.515625 13.8125 5.515625 26.8125 
Q 5.515625 40.234375 12.765625 48.109375 
Q 20.015625 56 32.328125 56 
Q 43.359375 56 49.78125 48.890625 
Q 56.203125 41.796875 56.203125 29.59375 
z
M 47.21875 32.234375 
Q 47.125 39.59375 43.09375 43.984375 
Q 39.0625 48.390625 32.421875 48.390625 
Q 24.90625 48.390625 20.390625 44.140625 
Q 15.875 39.890625 15.1875 32.171875 
z
" id="DejaVuSans-101"/>
      </defs>
      <use xlink:href="#DejaVuSans-49"/>
      <use x="63.623047" xlink:href="#DejaVuSans-101"/>
      <use x="125.146484" xlink:href="#DejaVuSans-8722"/>
      <use x="208.935547" xlink:href="#DejaVuSans-49"/>
     </g>
    </g>
   </g>
   <g id="line2d_16">
    <path clip-path="url(#pe1e6baaa1d)" d="M -1 145.390621 
L 2.106 145.529939 
L 3.78 145.693884 
L 5.454 145.972891 
L 7.128 146.436326 
L 8.802 147.18678 
L 10.476 148.369919 
L 12.15 150.183089 
L 13.824 152.879017 
L 15.498 156.759059 
L 17.172 162.148643 
L 18.846 169.346838 
L 20.52 178.543511 
L 22.194 189.703016 
L 27.216 228.330232 
L 28.89 237.928221 
L 30.564 242.116364 
L 32.238 238.433391 
L 33.912 225.065166 
L 35.586 201.607988 
L 37.26 169.774425 
L 40.608 99.977476 
L 42.282 75.920609 
L 43.956 68.243601 
L 45.63 80.400103 
L 47.304 110.631892 
L 50.652 189.965766 
L 52.326 213.482477 
L 54 212.405563 
L 55.674 185.7752 
L 59.022 101.091048 
L 60.696 78.713985 
L 62.37 86.930972 
L 64.044 123.083065 
L 65.718 170.294782 
L 67.392 204.619907 
L 69.066 207.249066 
L 70.74 175.643646 
L 72.414 126.726848 
L 74.088 88.758978 
L 75.762 85.097337 
L 77.436 119.016699 
L 79.11 169.80586 
L 80.784 204.474166 
L 82.458 199.19572 
L 84.132 156.635442 
L 85.806 106.059123 
L 87.48 83.940941 
L 89.154 107.300776 
L 90.828 159.435447 
L 92.502 200.666937 
L 94.176 198.28535 
L 95.85 153.357075 
L 97.524 101.85244 
L 99.198 86.571433 
L 100.872 121.111615 
L 102.546 176.533344 
L 104.22 204.588086 
L 105.894 179.841293 
L 107.568 123.860488 
L 109.242 87.592108 
L 110.916 105.128632 
L 112.59 160.66029 
L 114.264 201.491095 
L 115.938 187.763498 
L 117.612 132.272342 
L 119.286 89.785016 
L 120.96 103.323982 
L 122.634 159.739068 
L 124.308 201.263558 
L 125.982 184.355702 
L 127.656 126.227171 
L 129.33 88.478476 
L 131.004 112.030419 
L 132.678 171.847045 
L 134.352 202.485235 
L 136.026 169.642231 
L 137.7 109.540259 
L 139.374 89.904051 
L 141.048 133.489175 
L 142.722 190.687731 
L 144.396 195.260805 
L 146.07 141.439114 
L 147.744 92.192632 
L 149.418 106.027123 
L 151.092 166.85852 
L 152.766 201.748343 
L 154.44 168.202843 
L 156.114 106.721253 
L 157.788 92.672469 
L 161.136 196.763965 
L 162.81 185.431939 
L 164.484 123.624381 
L 166.158 89.270716 
L 167.832 126.214778 
L 169.506 187.587267 
L 171.18 194.656109 
L 172.854 138.038191 
L 174.528 90.865547 
L 176.202 114.622889 
L 177.876 178.534702 
L 179.55 198.827192 
L 181.224 148.576995 
L 182.898 94.018899 
L 184.572 107.591714 
L 186.246 171.440286 
L 187.92 200.372965 
L 189.594 155.486328 
L 191.268 96.930009 
L 192.942 103.630626 
L 194.616 166.698192 
L 196.29 200.793711 
L 197.964 159.534967 
L 199.638 98.927339 
L 201.312 101.602317 
L 202.986 164.020483 
L 204.66 200.843314 
L 206.334 161.550479 
L 208.008 99.978377 
L 209.682 100.731352 
L 211.356 162.841309 
L 213.03 200.821088 
L 214.704 162.299424 
L 216.378 100.359974 
L 218.052 100.46838 
L 219.726 162.497467 
L 221.4 200.809838 
L 223.074 162.497553 
L 224.748 100.468433 
L 226.422 100.359922 
L 228.096 162.299338 
L 229.77 200.821087 
L 231.444 162.841395 
L 233.118 100.731406 
L 234.792 99.978325 
L 236.466 161.550393 
L 238.14 200.843312 
L 239.814 164.020567 
L 241.488 101.602373 
L 243.162 98.927289 
L 244.836 159.53488 
L 246.51 200.793705 
L 248.184 166.698275 
L 249.858 103.630685 
L 251.532 96.929965 
L 253.206 155.486239 
L 254.88 200.372951 
L 256.554 171.440365 
L 258.228 107.59178 
L 259.902 94.018864 
L 261.576 148.576905 
L 263.25 198.827166 
L 264.924 178.534774 
L 266.598 114.622965 
L 268.272 90.865527 
L 269.946 138.038101 
L 271.62 194.656066 
L 273.294 187.587326 
L 274.968 126.214864 
L 276.642 89.270718 
L 278.316 123.624297 
L 279.99 185.431875 
L 281.664 196.764002 
L 285.012 92.672501 
L 286.686 106.721187 
L 288.36 168.20276 
L 290.034 201.748345 
L 291.708 166.858605 
L 293.382 106.027189 
L 295.056 92.1926 
L 296.73 141.439023 
L 298.404 195.260762 
L 300.078 190.687786 
L 301.752 133.489265 
L 303.426 89.904073 
L 305.1 109.540187 
L 306.774 169.642147 
L 308.448 202.485233 
L 310.122 171.847127 
L 311.796 112.030495 
L 313.47 88.478463 
L 315.144 126.227083 
L 316.818 184.355633 
L 318.492 201.263581 
L 320.166 159.739159 
L 321.84 103.324047 
L 323.514 89.784989 
L 325.188 132.27225 
L 326.862 187.763433 
L 328.536 201.491121 
L 330.21 160.660381 
L 331.884 105.128701 
L 333.558 87.592089 
L 335.232 123.860399 
L 336.906 179.841215 
L 338.58 204.588089 
L 340.254 176.533426 
L 341.928 121.111694 
L 343.602 86.571441 
L 345.276 101.85237 
L 346.95 153.356972 
L 348.624 198.285299 
L 350.298 200.666962 
L 351.972 159.435529 
L 353.646 107.300851 
L 355.32 83.940941 
L 356.994 106.059049 
L 358.668 156.635358 
L 360.342 199.195686 
L 362.016 204.474207 
L 363.69 169.805964 
L 365.364 119.016799 
L 367.038 85.097384 
L 368.712 88.758943 
L 370.386 126.726752 
L 372.06 175.64354 
L 373.734 207.24901 
L 375.408 204.619913 
L 377.082 170.294848 
L 378.756 123.083155 
L 380.43 86.931029 
L 382.104 78.713982 
L 383.778 101.091005 
L 387.126 185.775123 
L 388.8 212.405529 
L 390.474 213.482498 
L 392.148 189.965814 
L 395.496 110.631963 
L 397.17 80.400132 
L 398.844 68.243578 
L 400.518 75.920564 
L 402.192 99.977399 
L 407.214 201.60794 
L 408.888 225.065112 
L 410.562 238.433338 
L 412.236 242.116289 
L 413.91 237.92816 
L 415.584 228.330188 
L 417.258 215.800533 
L 420.606 189.702954 
L 422.28 178.543467 
L 423.954 169.346809 
L 425.628 162.148621 
L 427.302 156.759045 
L 428.976 152.879007 
L 430.65 150.183083 
L 432.324 148.369916 
L 433 147.892138 
L 433 147.892138 
" style="fill:none;stroke:#1f77b4;stroke-linecap:square;stroke-width:1.5;"/>
   </g>
   <g id="line2d_17">
    <path clip-path="url(#pe1e6baaa1d)" d="M -1 144.939682 
L 0.432 144.712432 
L 2.106 144.265804 
L 3.78 143.534459 
L 5.454 142.369583 
L 7.128 140.567591 
L 8.802 137.865251 
L 10.476 133.945511 
L 12.15 128.461881 
L 13.824 121.090156 
L 15.498 111.614669 
L 17.172 100.050603 
L 22.194 59.512326 
L 23.868 49.208662 
L 25.542 44.443636 
L 27.216 47.806682 
L 28.89 61.228621 
L 30.564 85.186088 
L 32.238 117.965796 
L 35.586 190.539095 
L 37.26 216.010142 
L 38.934 224.789286 
L 40.608 213.211948 
L 42.282 182.909061 
L 45.63 101.548651 
L 47.304 76.431691 
L 48.978 75.969034 
L 50.652 101.582818 
L 54 187.432791 
L 55.674 212.110768 
L 57.348 206.582342 
L 59.022 172.332329 
L 60.696 125.041512 
L 62.37 88.142592 
L 64.044 81.21823 
L 65.718 108.885933 
L 67.392 156.730548 
L 69.066 197.886036 
L 70.74 207.930541 
L 72.414 180.025905 
L 74.088 130.634296 
L 75.762 90.756314 
L 77.436 86.62946 
L 79.11 121.739664 
L 80.784 172.861804 
L 82.458 204.60169 
L 84.132 193.983265 
L 87.48 100.157565 
L 89.154 86.583601 
L 90.828 118.247295 
L 92.502 171.026118 
L 94.176 203.18739 
L 95.85 188.408699 
L 97.524 138.22291 
L 99.198 94.099433 
L 100.872 93.527164 
L 102.546 137.518891 
L 104.22 188.207591 
L 105.894 200.837154 
L 107.568 163.678893 
L 109.242 109.945485 
L 110.916 88.858818 
L 112.59 120.354181 
L 114.264 175.27983 
L 115.938 201.554299 
L 117.612 173.630481 
L 119.286 118.219336 
L 120.96 89.582132 
L 122.634 116.380344 
L 124.308 172.1579 
L 125.982 200.635038 
L 127.656 172.499676 
L 129.33 116.381033 
L 131.004 90.496397 
L 132.678 122.216104 
L 134.352 178.332553 
L 136.026 199.117497 
L 137.7 162.007247 
L 139.374 106.882111 
L 141.048 93.821196 
L 142.722 137.413313 
L 144.396 189.687695 
L 146.07 192.414652 
L 147.744 142.291488 
L 149.418 95.670771 
L 151.092 105.542596 
L 152.766 160.872652 
L 154.44 198.239095 
L 156.114 174.362653 
L 157.788 116.756769 
L 159.462 92.616669 
L 161.136 130.424421 
L 162.81 185.769404 
L 164.484 193.063402 
L 167.832 96.140472 
L 169.506 108.007117 
L 171.18 164.90541 
L 172.854 198.005225 
L 174.528 166.970927 
L 176.202 109.530929 
L 177.876 96.010405 
L 181.224 192.918564 
L 182.898 183.746347 
L 184.572 126.88556 
L 186.246 93.02082 
L 187.92 124.465229 
L 189.594 181.987023 
L 191.268 193.471251 
L 194.616 96.523582 
L 196.29 110.29246 
L 197.964 168.372653 
L 199.638 197.205987 
L 201.312 160.152798 
L 202.986 104.257162 
L 204.66 100.675043 
L 206.334 154.020279 
L 208.008 196.243576 
L 209.682 173.382266 
L 211.356 114.635452 
L 213.03 95.183018 
L 214.704 139.960507 
L 216.378 191.602676 
L 218.052 183.894578 
L 219.726 126.710473 
L 221.4 93.405311 
L 223.074 126.710473 
L 224.748 183.894578 
L 226.422 191.602676 
L 228.096 139.960507 
L 229.77 95.183018 
L 231.444 114.635452 
L 233.118 173.382266 
L 234.792 196.243576 
L 236.466 154.020279 
L 238.14 100.675043 
L 239.814 104.257162 
L 241.488 160.152798 
L 243.162 197.205987 
L 244.836 168.372653 
L 246.51 110.29246 
L 248.184 96.523582 
L 251.532 193.471251 
L 253.206 181.987023 
L 254.88 124.465229 
L 256.554 93.02082 
L 258.228 126.88556 
L 259.902 183.746347 
L 261.576 192.918564 
L 264.924 96.010405 
L 266.598 109.530929 
L 268.272 166.970927 
L 269.946 198.005225 
L 271.62 164.90541 
L 273.294 108.007117 
L 274.968 96.140472 
L 278.316 193.063402 
L 279.99 185.769404 
L 281.664 130.424421 
L 283.338 92.616669 
L 285.012 116.756769 
L 286.686 174.362653 
L 288.36 198.239095 
L 290.034 160.872652 
L 291.708 105.542596 
L 293.382 95.670771 
L 295.056 142.291488 
L 296.73 192.414652 
L 298.404 189.687695 
L 300.078 137.413313 
L 301.752 93.821196 
L 303.426 106.882111 
L 305.1 162.007247 
L 306.774 199.117497 
L 308.448 178.332553 
L 310.122 122.216104 
L 311.796 90.496397 
L 313.47 116.381033 
L 315.144 172.499676 
L 316.818 200.635038 
L 318.492 172.1579 
L 320.166 116.380344 
L 321.84 89.582132 
L 323.514 118.219336 
L 325.188 173.630481 
L 326.862 201.554299 
L 328.536 175.27983 
L 330.21 120.354181 
L 331.884 88.858818 
L 333.558 109.945485 
L 335.232 163.678893 
L 336.906 200.837154 
L 338.58 188.207591 
L 340.254 137.518891 
L 341.928 93.527164 
L 343.602 94.099433 
L 345.276 138.22291 
L 346.95 188.408699 
L 348.624 203.18739 
L 350.298 171.026118 
L 351.972 118.247295 
L 353.646 86.583601 
L 355.32 100.157565 
L 358.668 193.983265 
L 360.342 204.60169 
L 362.016 172.861804 
L 363.69 121.739664 
L 365.364 86.62946 
L 367.038 90.756314 
L 368.712 130.634296 
L 370.386 180.025905 
L 372.06 207.930541 
L 373.734 197.886036 
L 375.408 156.730548 
L 377.082 108.885933 
L 378.756 81.21823 
L 380.43 88.142592 
L 382.104 125.041512 
L 383.778 172.332329 
L 385.452 206.582342 
L 387.126 212.110768 
L 388.8 187.432791 
L 392.148 101.582818 
L 393.822 75.969034 
L 395.496 76.431691 
L 397.17 101.548651 
L 400.518 182.909061 
L 402.192 213.211948 
L 403.866 224.789286 
L 405.54 216.010142 
L 407.214 190.539095 
L 412.236 85.186088 
L 413.91 61.228621 
L 415.584 47.806682 
L 417.258 44.443636 
L 418.932 49.208662 
L 420.606 59.512326 
L 425.628 100.050603 
L 427.302 111.614669 
L 428.976 121.090156 
L 430.65 128.461881 
L 432.324 133.945511 
L 433 135.528393 
L 433 135.528393 
" style="fill:none;stroke:#ff7f0e;stroke-linecap:square;stroke-width:1.5;"/>
   </g>
   <g id="patch_3">
    <path d="M 54 252 
L 54 34.56 
" style="fill:none;stroke:#000000;stroke-linecap:square;stroke-linejoin:miter;stroke-width:0.8;"/>
   </g>
   <g id="patch_4">
    <path d="M 388.8 252 
L 388.8 34.56 
" style="fill:none;stroke:#000000;stroke-linecap:square;stroke-linejoin:miter;stroke-width:0.8;"/>
   </g>
   <g id="patch_5">
    <path d="M 54 252 
L 388.8 252 
" style="fill:none;stroke:#000000;stroke-linecap:square;stroke-linejoin:miter;stroke-width:0.8;"/>
   </g>
   <g id="patch_6">
    <path d="M 54 34.56 
L 388.8 34.56 
" style="fill:none;stroke:#000000;stroke-linecap:square;stroke-linejoin:miter;stroke-width:0.8;"/>
   </g>
   <g id="text_18">
    <!-- N=500, L=50 -->
    <g transform="translate(180.61125 28.56)scale(0.12 -0.12)">
     <defs>
      <path d="M 9.8125 72.90625 
L 23.09375 72.90625 
L 55.421875 11.921875 
L 55.421875 72.90625 
L 64.984375 72.90625 
L 64.984375 0 
L 51.703125 0 
L 19.390625 60.984375 
L 19.390625 0 
L 9.8125 0 
z
" id="DejaVuSans-78"/>
      <path d="M 10.59375 45.40625 
L 73.1875 45.40625 
L 73.1875 37.203125 
L 10.59375 37.203125 
z
M 10.59375 25.484375 
L 73.1875 25.484375 
L 73.1875 17.1875 
L 10.59375 17.1875 
z
" id="DejaVuSans-61"/>
      <path d="M 11.71875 12.40625 
L 22.015625 12.40625 
L 22.015625 4 
L 14.015625 -11.625 
L 7.71875 -11.625 
L 11.71875 4 
z
" id="DejaVuSans-44"/>
      <path id="DejaVuSans-32"/>
      <path d="M 9.8125 72.90625 
L 19.671875 72.90625 
L 19.671875 8.296875 
L 55.171875 8.296875 
L 55.171875 0 
L 9.8125 0 
z
" id="DejaVuSans-76"/>
     </defs>
     <use xlink:href="#DejaVuSans-78"/>
     <use x="74.804688" xlink:href="#DejaVuSans-61"/>
     <use x="158.59375" xlink:href="#DejaVuSans-53"/>
     <use x="222.216797" xlink:href="#DejaVuSans-48"/>
     <use x="285.839844" xlink:href="#DejaVuSans-48"/>
     <use x="349.462891" xlink:href="#DejaVuSans-44"/>
     <use x="381.25" xlink:href="#DejaVuSans-32"/>
     <use x="413.037109" xlink:href="#DejaVuSans-76"/>
     <use x="468.75" xlink:href="#DejaVuSans-61"/>
     <use x="552.539062" xlink:href="#DejaVuSans-53"/>
     <use x="616.162109" xlink:href="#DejaVuSans-48"/>
    </g>
   </g>
   <g id="legend_1">
    <g id="patch_7">
     <path d="M 187.92 246 
L 254.88 246 
Q 257.28 246 257.28 243.6 
L 257.28 204.48 
Q 257.28 202.08 254.88 202.08 
L 187.92 202.08 
Q 185.52 202.08 185.52 204.48 
L 185.52 243.6 
Q 185.52 246 187.92 246 
z
" style="fill:#ffffff;opacity:0.8;stroke:#cccccc;stroke-linejoin:miter;"/>
    </g>
    <g id="line2d_18">
     <path d="M 190.32 213.48 
L 214.32 213.48 
" style="fill:none;stroke:#1f77b4;stroke-linecap:square;stroke-width:1.5;"/>
    </g>
    <g id="line2d_19"/>
    <g id="text_19">
     <!-- $\psi^{NUM}_{72}$ -->
     <g transform="translate(223.92 217.68)scale(0.12 -0.12)">
      <defs>
       <path d="M 24.859375 -1.21875 
Q 13.921875 0.59375 9.625 5.328125 
Q 4.34375 11.140625 6.640625 23 
L 12.796875 54.6875 
L 21.875 54.6875 
L 15.765625 23.34375 
Q 14.0625 14.40625 17.484375 10.6875 
Q 20.515625 7.46875 26.421875 6.78125 
L 35.6875 54.6875 
L 44.625 54.6875 
L 35.359375 6.84375 
Q 41.890625 7.515625 45.75 10.75 
Q 50.734375 14.84375 52.390625 23.390625 
L 58.453125 54.6875 
L 67.53125 54.6875 
L 61.375 23.046875 
Q 58.984375 10.75 51.5625 5.375 
Q 44.875 0.53125 33.796875 -1.171875 
L 29.984375 -20.796875 
L 21.046875 -20.796875 
z
" id="DejaVuSans-Oblique-968"/>
       <path d="M 16.890625 72.90625 
L 30.171875 72.90625 
L 50.296875 10.40625 
L 62.5 72.90625 
L 72.125 72.90625 
L 57.90625 0 
L 44.578125 0 
L 24.515625 62.890625 
L 12.3125 0 
L 2.6875 0 
z
" id="DejaVuSans-Oblique-78"/>
       <path d="M 15.484375 72.90625 
L 25.390625 72.90625 
L 16.796875 28.609375 
Q 16.265625 25.640625 16.046875 23.703125 
Q 15.828125 21.78125 15.828125 20.3125 
Q 15.828125 13.578125 19.578125 10.078125 
Q 23.34375 6.59375 30.609375 6.59375 
Q 40.046875 6.59375 45.28125 11.765625 
Q 50.53125 16.9375 52.78125 28.609375 
L 61.375 72.90625 
L 71.296875 72.90625 
L 62.5 27.390625 
Q 59.625 12.640625 51.5625 5.609375 
Q 43.5 -1.421875 29.5 -1.421875 
Q 18.5625 -1.421875 12.1875 4.078125 
Q 5.8125 9.578125 5.8125 19 
Q 5.8125 20.703125 6.046875 22.828125 
Q 6.296875 24.953125 6.78125 27.390625 
z
" id="DejaVuSans-Oblique-85"/>
       <path d="M 16.890625 72.90625 
L 31.6875 72.90625 
L 40.1875 23.78125 
L 68.40625 72.90625 
L 83.59375 72.90625 
L 69.390625 0 
L 59.8125 0 
L 72.21875 63.921875 
L 43.609375 14.015625 
L 33.984375 14.015625 
L 24.703125 64.109375 
L 12.3125 0 
L 2.6875 0 
z
" id="DejaVuSans-Oblique-77"/>
      </defs>
      <use transform="translate(0 0.684375)" xlink:href="#DejaVuSans-Oblique-968"/>
      <use transform="translate(70.432943 38.965625)scale(0.7)" xlink:href="#DejaVuSans-Oblique-78"/>
      <use transform="translate(122.796224 38.965625)scale(0.7)" xlink:href="#DejaVuSans-Oblique-85"/>
      <use transform="translate(174.031576 38.965625)scale(0.7)" xlink:href="#DejaVuSans-Oblique-77"/>
      <use transform="translate(65.966797 -26.659375)scale(0.7)" xlink:href="#DejaVuSans-55"/>
      <use transform="translate(110.50293 -26.659375)scale(0.7)" xlink:href="#DejaVuSans-50"/>
     </g>
    </g>
    <g id="line2d_20">
     <path d="M 190.32 233.64 
L 214.32 233.64 
" style="fill:none;stroke:#ff7f0e;stroke-linecap:square;stroke-width:1.5;"/>
    </g>
    <g id="line2d_21"/>
    <g id="text_20">
     <!-- $\psi^{TH}_{72}$ -->
     <g transform="translate(223.92 237.84)scale(0.12 -0.12)">
      <defs>
       <path d="M 5.90625 72.90625 
L 67.578125 72.90625 
L 66.015625 64.59375 
L 39.984375 64.59375 
L 27.484375 0 
L 17.578125 0 
L 30.078125 64.59375 
L 4.296875 64.59375 
z
" id="DejaVuSans-Oblique-84"/>
       <path d="M 16.890625 72.90625 
L 26.8125 72.90625 
L 21 43.015625 
L 56.78125 43.015625 
L 62.59375 72.90625 
L 72.515625 72.90625 
L 58.296875 0 
L 48.390625 0 
L 55.171875 34.71875 
L 19.390625 34.71875 
L 12.59375 0 
L 2.6875 0 
z
" id="DejaVuSans-Oblique-72"/>
      </defs>
      <use transform="translate(0 0.684375)" xlink:href="#DejaVuSans-Oblique-968"/>
      <use transform="translate(70.432943 38.965625)scale(0.7)" xlink:href="#DejaVuSans-Oblique-84"/>
      <use transform="translate(113.191732 38.965625)scale(0.7)" xlink:href="#DejaVuSans-Oblique-72"/>
      <use transform="translate(65.966797 -26.659375)scale(0.7)" xlink:href="#DejaVuSans-55"/>
      <use transform="translate(110.50293 -26.659375)scale(0.7)" xlink:href="#DejaVuSans-50"/>
     </g>
    </g>
   </g>
  </g>
 </g>
 <defs>
  <clipPath id="pe1e6baaa1d">
   <rect height="217.44" width="334.8" x="54" y="34.56"/>
  </clipPath>
 </defs>
</svg>
