<?xml version="1.0" encoding="utf-8" standalone="no"?>
<!DOCTYPE svg PUBLIC "-//W3C//DTD SVG 1.1//EN"
  "http://www.w3.org/Graphics/SVG/1.1/DTD/svg11.dtd">
<!-- Created with matplotlib (https://matplotlib.org/) -->
<svg height="288pt" version="1.1" viewBox="0 0 432 288" width="432pt" xmlns="http://www.w3.org/2000/svg" xmlns:xlink="http://www.w3.org/1999/xlink">
 <metadata>
  <rdf:RDF xmlns:cc="http://creativecommons.org/ns#" xmlns:dc="http://purl.org/dc/elements/1.1/" xmlns:rdf="http://www.w3.org/1999/02/22-rdf-syntax-ns#">
   <cc:Work>
    <dc:type rdf:resource="http://purl.org/dc/dcmitype/StillImage"/>
    <dc:date>2021-11-23T18:23:07.990930</dc:date>
    <dc:format>image/svg+xml</dc:format>
    <dc:creator>
     <cc:Agent>
      <dc:title>Matplotlib v3.3.4, https://matplotlib.org/</dc:title>
     </cc:Agent>
    </dc:creator>
   </cc:Work>
  </rdf:RDF>
 </metadata>
 <defs>
  <style type="text/css">*{stroke-linecap:butt;stroke-linejoin:round;}</style>
 </defs>
 <g id="figure_1">
  <g id="patch_1">
   <path d="M 0 288 
L 432 288 
L 432 0 
L 0 0 
z
" style="fill:none;"/>
  </g>
  <g id="axes_1">
   <g id="patch_2">
    <path d="M 54 252 
L 388.8 252 
L 388.8 34.56 
L 54 34.56 
z
" style="fill:#ffffff;"/>
   </g>
   <g id="matplotlib.axis_1">
    <g id="xtick_1">
     <g id="line2d_1">
      <defs>
       <path d="M 0 0 
L 0 3.5 
" id="m93d4940a10" style="stroke:#000000;stroke-width:0.8;"/>
      </defs>
      <g>
       <use style="stroke:#000000;stroke-width:0.8;" x="54" xlink:href="#m93d4940a10" y="252"/>
      </g>
     </g>
     <g id="text_1">
      <!-- −10.0 -->
      <g transform="translate(38.677344 266.598437)scale(0.1 -0.1)">
       <defs>
        <path d="M 10.59375 35.5 
L 73.1875 35.5 
L 73.1875 27.203125 
L 10.59375 27.203125 
z
" id="DejaVuSans-8722"/>
        <path d="M 12.40625 8.296875 
L 28.515625 8.296875 
L 28.515625 63.921875 
L 10.984375 60.40625 
L 10.984375 69.390625 
L 28.421875 72.90625 
L 38.28125 72.90625 
L 38.28125 8.296875 
L 54.390625 8.296875 
L 54.390625 0 
L 12.40625 0 
z
" id="DejaVuSans-49"/>
        <path d="M 31.78125 66.40625 
Q 24.171875 66.40625 20.328125 58.90625 
Q 16.5 51.421875 16.5 36.375 
Q 16.5 21.390625 20.328125 13.890625 
Q 24.171875 6.390625 31.78125 6.390625 
Q 39.453125 6.390625 43.28125 13.890625 
Q 47.125 21.390625 47.125 36.375 
Q 47.125 51.421875 43.28125 58.90625 
Q 39.453125 66.40625 31.78125 66.40625 
z
M 31.78125 74.21875 
Q 44.046875 74.21875 50.515625 64.515625 
Q 56.984375 54.828125 56.984375 36.375 
Q 56.984375 17.96875 50.515625 8.265625 
Q 44.046875 -1.421875 31.78125 -1.421875 
Q 19.53125 -1.421875 13.0625 8.265625 
Q 6.59375 17.96875 6.59375 36.375 
Q 6.59375 54.828125 13.0625 64.515625 
Q 19.53125 74.21875 31.78125 74.21875 
z
" id="DejaVuSans-48"/>
        <path d="M 10.6875 12.40625 
L 21 12.40625 
L 21 0 
L 10.6875 0 
z
" id="DejaVuSans-46"/>
       </defs>
       <use xlink:href="#DejaVuSans-8722"/>
       <use x="83.789062" xlink:href="#DejaVuSans-49"/>
       <use x="147.412109" xlink:href="#DejaVuSans-48"/>
       <use x="211.035156" xlink:href="#DejaVuSans-46"/>
       <use x="242.822266" xlink:href="#DejaVuSans-48"/>
      </g>
     </g>
    </g>
    <g id="xtick_2">
     <g id="line2d_2">
      <g>
       <use style="stroke:#000000;stroke-width:0.8;" x="95.85" xlink:href="#m93d4940a10" y="252"/>
      </g>
     </g>
     <g id="text_2">
      <!-- −7.5 -->
      <g transform="translate(83.708594 266.598437)scale(0.1 -0.1)">
       <defs>
        <path d="M 8.203125 72.90625 
L 55.078125 72.90625 
L 55.078125 68.703125 
L 28.609375 0 
L 18.3125 0 
L 43.21875 64.59375 
L 8.203125 64.59375 
z
" id="DejaVuSans-55"/>
        <path d="M 10.796875 72.90625 
L 49.515625 72.90625 
L 49.515625 64.59375 
L 19.828125 64.59375 
L 19.828125 46.734375 
Q 21.96875 47.46875 24.109375 47.828125 
Q 26.265625 48.1875 28.421875 48.1875 
Q 40.625 48.1875 47.75 41.5 
Q 54.890625 34.8125 54.890625 23.390625 
Q 54.890625 11.625 47.5625 5.09375 
Q 40.234375 -1.421875 26.90625 -1.421875 
Q 22.3125 -1.421875 17.546875 -0.640625 
Q 12.796875 0.140625 7.71875 1.703125 
L 7.71875 11.625 
Q 12.109375 9.234375 16.796875 8.0625 
Q 21.484375 6.890625 26.703125 6.890625 
Q 35.15625 6.890625 40.078125 11.328125 
Q 45.015625 15.765625 45.015625 23.390625 
Q 45.015625 31 40.078125 35.4375 
Q 35.15625 39.890625 26.703125 39.890625 
Q 22.75 39.890625 18.8125 39.015625 
Q 14.890625 38.140625 10.796875 36.28125 
z
" id="DejaVuSans-53"/>
       </defs>
       <use xlink:href="#DejaVuSans-8722"/>
       <use x="83.789062" xlink:href="#DejaVuSans-55"/>
       <use x="147.412109" xlink:href="#DejaVuSans-46"/>
       <use x="179.199219" xlink:href="#DejaVuSans-53"/>
      </g>
     </g>
    </g>
    <g id="xtick_3">
     <g id="line2d_3">
      <g>
       <use style="stroke:#000000;stroke-width:0.8;" x="137.7" xlink:href="#m93d4940a10" y="252"/>
      </g>
     </g>
     <g id="text_3">
      <!-- −5.0 -->
      <g transform="translate(125.558594 266.598437)scale(0.1 -0.1)">
       <use xlink:href="#DejaVuSans-8722"/>
       <use x="83.789062" xlink:href="#DejaVuSans-53"/>
       <use x="147.412109" xlink:href="#DejaVuSans-46"/>
       <use x="179.199219" xlink:href="#DejaVuSans-48"/>
      </g>
     </g>
    </g>
    <g id="xtick_4">
     <g id="line2d_4">
      <g>
       <use style="stroke:#000000;stroke-width:0.8;" x="179.55" xlink:href="#m93d4940a10" y="252"/>
      </g>
     </g>
     <g id="text_4">
      <!-- −2.5 -->
      <g transform="translate(167.408594 266.598437)scale(0.1 -0.1)">
       <defs>
        <path d="M 19.1875 8.296875 
L 53.609375 8.296875 
L 53.609375 0 
L 7.328125 0 
L 7.328125 8.296875 
Q 12.9375 14.109375 22.625 23.890625 
Q 32.328125 33.6875 34.8125 36.53125 
Q 39.546875 41.84375 41.421875 45.53125 
Q 43.3125 49.21875 43.3125 52.78125 
Q 43.3125 58.59375 39.234375 62.25 
Q 35.15625 65.921875 28.609375 65.921875 
Q 23.96875 65.921875 18.8125 64.3125 
Q 13.671875 62.703125 7.8125 59.421875 
L 7.8125 69.390625 
Q 13.765625 71.78125 18.9375 73 
Q 24.125 74.21875 28.421875 74.21875 
Q 39.75 74.21875 46.484375 68.546875 
Q 53.21875 62.890625 53.21875 53.421875 
Q 53.21875 48.921875 51.53125 44.890625 
Q 49.859375 40.875 45.40625 35.40625 
Q 44.1875 33.984375 37.640625 27.21875 
Q 31.109375 20.453125 19.1875 8.296875 
z
" id="DejaVuSans-50"/>
       </defs>
       <use xlink:href="#DejaVuSans-8722"/>
       <use x="83.789062" xlink:href="#DejaVuSans-50"/>
       <use x="147.412109" xlink:href="#DejaVuSans-46"/>
       <use x="179.199219" xlink:href="#DejaVuSans-53"/>
      </g>
     </g>
    </g>
    <g id="xtick_5">
     <g id="line2d_5">
      <g>
       <use style="stroke:#000000;stroke-width:0.8;" x="221.4" xlink:href="#m93d4940a10" y="252"/>
      </g>
     </g>
     <g id="text_5">
      <!-- 0.0 -->
      <g transform="translate(213.448438 266.598437)scale(0.1 -0.1)">
       <use xlink:href="#DejaVuSans-48"/>
       <use x="63.623047" xlink:href="#DejaVuSans-46"/>
       <use x="95.410156" xlink:href="#DejaVuSans-48"/>
      </g>
     </g>
    </g>
    <g id="xtick_6">
     <g id="line2d_6">
      <g>
       <use style="stroke:#000000;stroke-width:0.8;" x="263.25" xlink:href="#m93d4940a10" y="252"/>
      </g>
     </g>
     <g id="text_6">
      <!-- 2.5 -->
      <g transform="translate(255.298438 266.598437)scale(0.1 -0.1)">
       <use xlink:href="#DejaVuSans-50"/>
       <use x="63.623047" xlink:href="#DejaVuSans-46"/>
       <use x="95.410156" xlink:href="#DejaVuSans-53"/>
      </g>
     </g>
    </g>
    <g id="xtick_7">
     <g id="line2d_7">
      <g>
       <use style="stroke:#000000;stroke-width:0.8;" x="305.1" xlink:href="#m93d4940a10" y="252"/>
      </g>
     </g>
     <g id="text_7">
      <!-- 5.0 -->
      <g transform="translate(297.148438 266.598437)scale(0.1 -0.1)">
       <use xlink:href="#DejaVuSans-53"/>
       <use x="63.623047" xlink:href="#DejaVuSans-46"/>
       <use x="95.410156" xlink:href="#DejaVuSans-48"/>
      </g>
     </g>
    </g>
    <g id="xtick_8">
     <g id="line2d_8">
      <g>
       <use style="stroke:#000000;stroke-width:0.8;" x="346.95" xlink:href="#m93d4940a10" y="252"/>
      </g>
     </g>
     <g id="text_8">
      <!-- 7.5 -->
      <g transform="translate(338.998438 266.598437)scale(0.1 -0.1)">
       <use xlink:href="#DejaVuSans-55"/>
       <use x="63.623047" xlink:href="#DejaVuSans-46"/>
       <use x="95.410156" xlink:href="#DejaVuSans-53"/>
      </g>
     </g>
    </g>
    <g id="xtick_9">
     <g id="line2d_9">
      <g>
       <use style="stroke:#000000;stroke-width:0.8;" x="388.8" xlink:href="#m93d4940a10" y="252"/>
      </g>
     </g>
     <g id="text_9">
      <!-- 10.0 -->
      <g transform="translate(377.667188 266.598437)scale(0.1 -0.1)">
       <use xlink:href="#DejaVuSans-49"/>
       <use x="63.623047" xlink:href="#DejaVuSans-48"/>
       <use x="127.246094" xlink:href="#DejaVuSans-46"/>
       <use x="159.033203" xlink:href="#DejaVuSans-48"/>
      </g>
     </g>
    </g>
    <g id="text_10">
     <!-- x -->
     <g transform="translate(218.440625 280.276563)scale(0.1 -0.1)">
      <defs>
       <path d="M 54.890625 54.6875 
L 35.109375 28.078125 
L 55.90625 0 
L 45.3125 0 
L 29.390625 21.484375 
L 13.484375 0 
L 2.875 0 
L 24.125 28.609375 
L 4.6875 54.6875 
L 15.28125 54.6875 
L 29.78125 35.203125 
L 44.28125 54.6875 
z
" id="DejaVuSans-120"/>
      </defs>
      <use xlink:href="#DejaVuSans-120"/>
     </g>
    </g>
   </g>
   <g id="matplotlib.axis_2">
    <g id="ytick_1">
     <g id="line2d_10">
      <defs>
       <path d="M 0 0 
L -3.5 0 
" id="ma68187b08f" style="stroke:#000000;stroke-width:0.8;"/>
      </defs>
      <g>
       <use style="stroke:#000000;stroke-width:0.8;" x="54" xlink:href="#ma68187b08f" y="232.421207"/>
      </g>
     </g>
     <g id="text_11">
      <!-- −1.0 -->
      <g transform="translate(22.717187 236.220426)scale(0.1 -0.1)">
       <use xlink:href="#DejaVuSans-8722"/>
       <use x="83.789062" xlink:href="#DejaVuSans-49"/>
       <use x="147.412109" xlink:href="#DejaVuSans-46"/>
       <use x="179.199219" xlink:href="#DejaVuSans-48"/>
      </g>
     </g>
    </g>
    <g id="ytick_2">
     <g id="line2d_11">
      <g>
       <use style="stroke:#000000;stroke-width:0.8;" x="54" xlink:href="#ma68187b08f" y="193.709933"/>
      </g>
     </g>
     <g id="text_12">
      <!-- −0.5 -->
      <g transform="translate(22.717187 197.509151)scale(0.1 -0.1)">
       <use xlink:href="#DejaVuSans-8722"/>
       <use x="83.789062" xlink:href="#DejaVuSans-48"/>
       <use x="147.412109" xlink:href="#DejaVuSans-46"/>
       <use x="179.199219" xlink:href="#DejaVuSans-53"/>
      </g>
     </g>
    </g>
    <g id="ytick_3">
     <g id="line2d_12">
      <g>
       <use style="stroke:#000000;stroke-width:0.8;" x="54" xlink:href="#ma68187b08f" y="154.998658"/>
      </g>
     </g>
     <g id="text_13">
      <!-- 0.0 -->
      <g transform="translate(31.096875 158.797877)scale(0.1 -0.1)">
       <use xlink:href="#DejaVuSans-48"/>
       <use x="63.623047" xlink:href="#DejaVuSans-46"/>
       <use x="95.410156" xlink:href="#DejaVuSans-48"/>
      </g>
     </g>
    </g>
    <g id="ytick_4">
     <g id="line2d_13">
      <g>
       <use style="stroke:#000000;stroke-width:0.8;" x="54" xlink:href="#ma68187b08f" y="116.287384"/>
      </g>
     </g>
     <g id="text_14">
      <!-- 0.5 -->
      <g transform="translate(31.096875 120.086602)scale(0.1 -0.1)">
       <use xlink:href="#DejaVuSans-48"/>
       <use x="63.623047" xlink:href="#DejaVuSans-46"/>
       <use x="95.410156" xlink:href="#DejaVuSans-53"/>
      </g>
     </g>
    </g>
    <g id="ytick_5">
     <g id="line2d_14">
      <g>
       <use style="stroke:#000000;stroke-width:0.8;" x="54" xlink:href="#ma68187b08f" y="77.576109"/>
      </g>
     </g>
     <g id="text_15">
      <!-- 1.0 -->
      <g transform="translate(31.096875 81.375328)scale(0.1 -0.1)">
       <use xlink:href="#DejaVuSans-49"/>
       <use x="63.623047" xlink:href="#DejaVuSans-46"/>
       <use x="95.410156" xlink:href="#DejaVuSans-48"/>
      </g>
     </g>
    </g>
    <g id="ytick_6">
     <g id="line2d_15">
      <g>
       <use style="stroke:#000000;stroke-width:0.8;" x="54" xlink:href="#ma68187b08f" y="38.864835"/>
      </g>
     </g>
     <g id="text_16">
      <!-- 1.5 -->
      <g transform="translate(31.096875 42.664053)scale(0.1 -0.1)">
       <use xlink:href="#DejaVuSans-49"/>
       <use x="63.623047" xlink:href="#DejaVuSans-46"/>
       <use x="95.410156" xlink:href="#DejaVuSans-53"/>
      </g>
     </g>
    </g>
    <g id="text_17">
     <!-- 1e−1 -->
     <g transform="translate(54 31.56)scale(0.1 -0.1)">
      <defs>
       <path d="M 56.203125 29.59375 
L 56.203125 25.203125 
L 14.890625 25.203125 
Q 15.484375 15.921875 20.484375 11.0625 
Q 25.484375 6.203125 34.421875 6.203125 
Q 39.59375 6.203125 44.453125 7.46875 
Q 49.3125 8.734375 54.109375 11.28125 
L 54.109375 2.78125 
Q 49.265625 0.734375 44.1875 -0.34375 
Q 39.109375 -1.421875 33.890625 -1.421875 
Q 20.796875 -1.421875 13.15625 6.1875 
Q 5.515625 13.8125 5.515625 26.8125 
Q 5.515625 40.234375 12.765625 48.109375 
Q 20.015625 56 32.328125 56 
Q 43.359375 56 49.78125 48.890625 
Q 56.203125 41.796875 56.203125 29.59375 
z
M 47.21875 32.234375 
Q 47.125 39.59375 43.09375 43.984375 
Q 39.0625 48.390625 32.421875 48.390625 
Q 24.90625 48.390625 20.390625 44.140625 
Q 15.875 39.890625 15.1875 32.171875 
z
" id="DejaVuSans-101"/>
      </defs>
      <use xlink:href="#DejaVuSans-49"/>
      <use x="63.623047" xlink:href="#DejaVuSans-101"/>
      <use x="125.146484" xlink:href="#DejaVuSans-8722"/>
      <use x="208.935547" xlink:href="#DejaVuSans-49"/>
     </g>
    </g>
   </g>
   <g id="line2d_16">
    <path clip-path="url(#pe1e0239232)" d="M -1 154.997379 
L 10.476 154.880072 
L 13.824 154.61778 
L 15.498 154.336548 
L 17.172 153.871749 
L 18.846 153.122126 
L 20.52 151.943813 
L 22.194 150.14125 
L 23.868 147.462179 
L 25.542 143.601783 
L 27.216 138.222777 
L 28.89 130.999303 
L 30.564 121.69154 
L 32.238 110.253865 
L 33.912 96.97057 
L 37.26 68.485357 
L 38.934 56.590599 
L 40.608 49.375372 
L 42.282 49.474785 
L 43.956 59.150742 
L 45.63 79.566662 
L 47.304 110.026526 
L 50.652 186.127754 
L 52.326 218.763011 
L 54 237.653723 
L 55.674 237.066579 
L 57.348 215.506797 
L 59.022 177.292016 
L 60.696 132.506217 
L 62.37 94.784219 
L 64.044 77.1228 
L 65.718 86.877766 
L 67.392 121.888717 
L 69.066 169.787783 
L 70.74 211.659507 
L 72.414 229.413411 
L 74.088 214.160474 
L 75.762 171.619015 
L 77.436 121.120523 
L 79.11 87.42735 
L 80.784 88.408549 
L 82.458 124.685989 
L 84.132 177.536956 
L 85.806 217.693179 
L 87.48 221.514659 
L 89.154 185.71573 
L 90.828 131.131706 
L 92.502 91.518284 
L 94.176 92.707012 
L 95.85 134.886895 
L 97.524 190.605057 
L 99.198 221.824153 
L 100.872 206.081474 
L 104.22 102.267971 
L 105.894 90.155166 
L 107.568 127.294393 
L 109.242 185.856009 
L 110.916 220.140538 
L 112.59 202.308155 
L 114.264 146.005946 
L 115.938 97.132188 
L 117.612 96.794072 
L 119.286 146.002742 
L 120.96 202.979856 
L 122.634 217.942123 
L 124.308 177.038772 
L 125.982 116.315795 
L 127.656 90.823321 
L 129.33 124.503864 
L 131.004 186.640694 
L 132.678 218.905788 
L 134.352 190.155401 
L 136.026 127.46989 
L 137.7 91.640129 
L 139.374 118.259848 
L 141.048 181.454975 
L 142.722 218.054827 
L 144.396 190.668295 
L 146.07 126.75419 
L 147.744 92.020922 
L 149.418 122.913748 
L 151.092 187.51987 
L 152.766 217.677828 
L 154.44 180.922493 
L 156.114 116.282125 
L 157.788 93.593149 
L 159.462 137.913083 
L 161.136 201.005832 
L 162.81 213.212243 
L 164.484 160.618069 
L 166.158 101.72986 
L 167.832 102.862392 
L 169.506 163.078464 
L 171.18 214.087174 
L 172.854 197.400991 
L 174.528 131.886305 
L 176.202 93.118444 
L 177.876 126.301939 
L 179.55 193.0047 
L 181.224 215.120586 
L 182.898 166.409694 
L 184.572 104.202372 
L 186.246 102.30306 
L 187.92 163.193306 
L 189.594 214.285603 
L 191.268 194.260109 
L 192.942 126.993181 
L 194.616 93.521926 
L 196.29 134.440734 
L 197.964 200.299434 
L 199.638 211.070018 
L 202.986 97.762951 
L 204.66 112.053274 
L 206.334 178.979706 
L 208.008 216.468147 
L 209.682 178.395077 
L 211.356 111.526812 
L 213.03 98.218134 
L 216.378 211.725436 
L 218.052 198.478862 
L 219.726 131.523263 
L 221.4 93.572744 
L 223.074 131.523297 
L 224.748 198.478887 
L 226.422 211.725422 
L 229.77 98.21812 
L 231.444 111.526838 
L 233.118 178.395111 
L 234.792 216.468147 
L 236.466 178.979672 
L 238.14 112.053248 
L 239.814 97.762964 
L 243.162 211.070033 
L 244.836 200.299409 
L 246.51 134.440699 
L 248.184 93.521924 
L 249.858 126.993213 
L 251.532 194.260138 
L 253.206 214.285593 
L 254.88 163.19327 
L 256.554 102.30304 
L 258.228 104.202393 
L 259.902 166.40973 
L 261.576 215.120594 
L 263.25 193.00467 
L 264.924 126.301906 
L 266.598 93.118446 
L 268.272 131.886339 
L 269.946 197.401017 
L 271.62 214.087163 
L 273.294 163.078427 
L 274.968 102.862372 
L 276.642 101.72988 
L 278.316 160.618106 
L 279.99 213.212257 
L 281.664 201.005807 
L 283.338 137.913047 
L 285.012 93.593142 
L 286.686 116.282155 
L 288.36 180.922527 
L 290.034 217.67783 
L 291.708 187.519838 
L 293.382 122.913716 
L 295.056 92.020924 
L 296.73 126.754224 
L 298.404 190.668326 
L 300.078 218.054824 
L 301.752 181.454941 
L 303.426 118.259817 
L 305.1 91.640133 
L 306.774 127.469924 
L 308.448 190.155433 
L 310.122 218.905787 
L 311.796 186.640661 
L 313.47 124.503831 
L 315.144 90.823319 
L 316.818 116.315825 
L 318.492 177.038809 
L 320.166 217.942132 
L 321.84 202.97983 
L 323.514 146.002704 
L 325.188 96.794054 
L 326.862 97.132206 
L 328.536 146.005984 
L 330.21 202.308182 
L 331.884 220.140532 
L 333.558 185.855975 
L 335.232 127.294357 
L 336.906 90.155157 
L 338.58 102.267996 
L 341.928 206.081501 
L 343.602 221.824147 
L 345.276 190.605023 
L 346.95 134.886867 
L 348.624 92.707009 
L 350.298 91.518327 
L 351.972 131.131768 
L 353.646 185.715771 
L 355.32 221.514664 
L 356.994 217.693146 
L 358.668 177.536884 
L 360.342 124.685919 
L 362.016 88.408519 
L 363.69 87.427356 
L 365.364 121.120562 
L 367.038 171.619088 
L 368.712 214.160546 
L 370.386 229.413449 
L 372.06 211.659517 
L 373.734 169.78776 
L 375.408 121.888666 
L 377.082 86.877708 
L 378.756 77.122755 
L 380.43 94.784156 
L 382.104 132.506157 
L 383.778 177.291985 
L 385.452 215.50681 
L 387.126 237.066614 
L 388.8 237.653797 
L 390.474 218.763107 
L 392.148 186.12783 
L 395.496 110.026546 
L 397.17 79.566621 
L 398.844 59.150644 
L 400.518 49.474671 
L 402.192 49.375221 
L 403.866 56.590452 
L 405.54 68.485192 
L 410.562 110.253745 
L 412.236 121.691456 
L 413.91 130.999241 
L 415.584 138.222731 
L 417.258 143.601752 
L 418.932 147.462159 
L 420.606 150.141239 
L 422.28 151.943806 
L 423.954 153.122121 
L 425.628 153.871746 
L 427.302 154.336547 
L 428.976 154.617779 
L 432.324 154.880072 
L 433 154.902012 
L 433 154.902012 
" style="fill:none;stroke:#1f77b4;stroke-linecap:square;stroke-width:1.5;"/>
   </g>
   <g id="line2d_17">
    <path clip-path="url(#pe1e0239232)" d="M -1 154.992405 
L 5.454 154.919934 
L 8.802 154.73338 
L 10.476 154.526799 
L 12.15 154.177418 
L 13.824 153.60101 
L 15.498 152.674391 
L 17.172 151.224781 
L 18.846 149.021276 
L 20.52 145.772749 
L 22.194 141.138492 
L 23.868 134.759581 
L 25.542 126.319235 
L 27.216 115.638035 
L 28.89 102.803214 
L 33.912 59.30505 
L 35.586 48.801378 
L 37.26 44.443636 
L 38.934 48.870437 
L 40.608 63.983544 
L 42.282 90.155015 
L 43.956 125.510721 
L 47.304 203.540755 
L 48.978 231.453856 
L 50.652 242.116364 
L 52.326 231.483567 
L 54 200.73927 
L 57.348 113.100218 
L 59.022 82.584793 
L 60.696 76.681741 
L 62.37 98.728466 
L 64.044 141.778444 
L 65.718 189.874662 
L 67.392 223.532782 
L 69.066 227.837186 
L 70.74 199.810564 
L 74.088 104.610833 
L 75.762 82.967463 
L 77.436 98.057178 
L 79.11 142.986181 
L 80.784 194.27403 
L 82.458 223.588491 
L 84.132 213.670636 
L 85.806 169.4218 
L 87.48 116.640046 
L 89.154 87.583533 
L 90.828 101.003141 
L 92.502 149.098165 
L 94.176 200.938264 
L 95.85 221.851981 
L 97.524 197.013737 
L 99.198 142.969034 
L 100.872 97.599059 
L 102.546 93.804701 
L 104.22 134.986984 
L 105.894 191.019193 
L 107.568 219.566952 
L 109.242 198.255175 
L 110.916 143.131086 
L 112.59 97.56246 
L 114.264 98.371215 
L 115.938 145.427809 
L 117.612 200.300504 
L 119.286 217.073506 
L 120.96 181.116698 
L 122.634 122.796158 
L 124.308 92.59258 
L 125.982 117.323093 
L 127.656 175.497691 
L 129.33 215.135901 
L 131.004 200.093955 
L 132.678 143.721837 
L 134.352 97.900721 
L 136.026 105.550166 
L 137.7 159.845898 
L 139.374 209.429354 
L 141.048 206.653577 
L 144.396 102.265566 
L 146.07 102.651769 
L 149.418 207.210238 
L 151.092 206.857177 
L 154.44 102.200235 
L 156.114 104.72729 
L 157.788 159.194617 
L 159.462 209.224971 
L 161.136 202.480803 
L 162.81 145.806405 
L 164.484 98.925224 
L 166.158 111.719336 
L 167.832 170.74988 
L 169.506 212.795269 
L 171.18 192.423555 
L 172.854 131.501874 
L 174.528 96.230023 
L 176.202 125.259647 
L 177.876 186.914343 
L 179.55 213.329749 
L 181.224 175.180801 
L 182.898 114.654512 
L 184.572 99.131639 
L 186.246 146.07361 
L 187.92 202.987803 
L 189.594 205.888272 
L 191.268 151.391883 
L 192.942 101.00992 
L 194.616 111.863694 
L 196.29 171.726264 
L 197.964 212.506193 
L 199.638 187.639329 
L 201.312 125.464429 
L 202.986 97.144615 
L 204.66 135.208545 
L 206.334 195.996183 
L 208.008 209.597019 
L 209.682 160.304262 
L 211.356 104.906349 
L 213.03 107.334063 
L 214.704 164.815768 
L 216.378 210.942656 
L 218.052 192.373163 
L 219.726 130.570992 
L 221.4 97.03486 
L 223.074 130.570992 
L 224.748 192.373163 
L 226.422 210.942656 
L 228.096 164.815768 
L 229.77 107.334063 
L 231.444 104.906349 
L 233.118 160.304262 
L 234.792 209.597019 
L 236.466 195.996183 
L 238.14 135.208545 
L 239.814 97.144615 
L 241.488 125.464429 
L 243.162 187.639329 
L 244.836 212.506193 
L 246.51 171.726264 
L 248.184 111.863694 
L 249.858 101.00992 
L 251.532 151.391883 
L 253.206 205.888272 
L 254.88 202.987803 
L 256.554 146.07361 
L 258.228 99.131639 
L 259.902 114.654512 
L 261.576 175.180801 
L 263.25 213.329749 
L 264.924 186.914343 
L 266.598 125.259647 
L 268.272 96.230023 
L 269.946 131.501874 
L 271.62 192.423555 
L 273.294 212.795269 
L 274.968 170.74988 
L 276.642 111.719336 
L 278.316 98.925224 
L 279.99 145.806405 
L 281.664 202.480803 
L 283.338 209.224971 
L 285.012 159.194617 
L 286.686 104.72729 
L 288.36 102.200235 
L 291.708 206.857177 
L 293.382 207.210238 
L 296.73 102.651769 
L 298.404 102.265566 
L 301.752 206.653577 
L 303.426 209.429354 
L 305.1 159.845898 
L 306.774 105.550166 
L 308.448 97.900721 
L 310.122 143.721837 
L 311.796 200.093955 
L 313.47 215.135901 
L 315.144 175.497691 
L 316.818 117.323093 
L 318.492 92.59258 
L 320.166 122.796158 
L 321.84 181.116698 
L 323.514 217.073506 
L 325.188 200.300504 
L 326.862 145.427809 
L 328.536 98.371215 
L 330.21 97.56246 
L 331.884 143.131086 
L 333.558 198.255175 
L 335.232 219.566952 
L 336.906 191.019193 
L 338.58 134.986984 
L 340.254 93.804701 
L 341.928 97.599059 
L 343.602 142.969034 
L 345.276 197.013737 
L 346.95 221.851981 
L 348.624 200.938264 
L 350.298 149.098165 
L 351.972 101.003141 
L 353.646 87.583533 
L 355.32 116.640046 
L 356.994 169.4218 
L 358.668 213.670636 
L 360.342 223.588491 
L 362.016 194.27403 
L 363.69 142.986181 
L 365.364 98.057178 
L 367.038 82.967463 
L 368.712 104.610833 
L 372.06 199.810564 
L 373.734 227.837186 
L 375.408 223.532782 
L 377.082 189.874662 
L 378.756 141.778444 
L 380.43 98.728466 
L 382.104 76.681741 
L 383.778 82.584793 
L 385.452 113.100218 
L 388.8 200.73927 
L 390.474 231.483567 
L 392.148 242.116364 
L 393.822 231.453856 
L 395.496 203.540755 
L 400.518 90.155015 
L 402.192 63.983544 
L 403.866 48.870437 
L 405.54 44.443636 
L 407.214 48.801378 
L 408.888 59.30505 
L 410.562 73.250281 
L 413.91 102.803214 
L 415.584 115.638035 
L 417.258 126.319235 
L 418.932 134.759581 
L 420.606 141.138492 
L 422.28 145.772749 
L 423.954 149.021276 
L 425.628 151.224781 
L 427.302 152.674391 
L 428.976 153.60101 
L 430.65 154.177418 
L 433 154.610221 
L 433 154.610221 
" style="fill:none;stroke:#ff7f0e;stroke-linecap:square;stroke-width:1.5;"/>
   </g>
   <g id="patch_3">
    <path d="M 54 252 
L 54 34.56 
" style="fill:none;stroke:#000000;stroke-linecap:square;stroke-linejoin:miter;stroke-width:0.8;"/>
   </g>
   <g id="patch_4">
    <path d="M 388.8 252 
L 388.8 34.56 
" style="fill:none;stroke:#000000;stroke-linecap:square;stroke-linejoin:miter;stroke-width:0.8;"/>
   </g>
   <g id="patch_5">
    <path d="M 54 252 
L 388.8 252 
" style="fill:none;stroke:#000000;stroke-linecap:square;stroke-linejoin:miter;stroke-width:0.8;"/>
   </g>
   <g id="patch_6">
    <path d="M 54 34.56 
L 388.8 34.56 
" style="fill:none;stroke:#000000;stroke-linecap:square;stroke-linejoin:miter;stroke-width:0.8;"/>
   </g>
   <g id="text_18">
    <!-- N=500, L=50 -->
    <g transform="translate(180.61125 28.56)scale(0.12 -0.12)">
     <defs>
      <path d="M 9.8125 72.90625 
L 23.09375 72.90625 
L 55.421875 11.921875 
L 55.421875 72.90625 
L 64.984375 72.90625 
L 64.984375 0 
L 51.703125 0 
L 19.390625 60.984375 
L 19.390625 0 
L 9.8125 0 
z
" id="DejaVuSans-78"/>
      <path d="M 10.59375 45.40625 
L 73.1875 45.40625 
L 73.1875 37.203125 
L 10.59375 37.203125 
z
M 10.59375 25.484375 
L 73.1875 25.484375 
L 73.1875 17.1875 
L 10.59375 17.1875 
z
" id="DejaVuSans-61"/>
      <path d="M 11.71875 12.40625 
L 22.015625 12.40625 
L 22.015625 4 
L 14.015625 -11.625 
L 7.71875 -11.625 
L 11.71875 4 
z
" id="DejaVuSans-44"/>
      <path id="DejaVuSans-32"/>
      <path d="M 9.8125 72.90625 
L 19.671875 72.90625 
L 19.671875 8.296875 
L 55.171875 8.296875 
L 55.171875 0 
L 9.8125 0 
z
" id="DejaVuSans-76"/>
     </defs>
     <use xlink:href="#DejaVuSans-78"/>
     <use x="74.804688" xlink:href="#DejaVuSans-61"/>
     <use x="158.59375" xlink:href="#DejaVuSans-53"/>
     <use x="222.216797" xlink:href="#DejaVuSans-48"/>
     <use x="285.839844" xlink:href="#DejaVuSans-48"/>
     <use x="349.462891" xlink:href="#DejaVuSans-44"/>
     <use x="381.25" xlink:href="#DejaVuSans-32"/>
     <use x="413.037109" xlink:href="#DejaVuSans-76"/>
     <use x="468.75" xlink:href="#DejaVuSans-61"/>
     <use x="552.539062" xlink:href="#DejaVuSans-53"/>
     <use x="616.162109" xlink:href="#DejaVuSans-48"/>
    </g>
   </g>
   <g id="legend_1">
    <g id="patch_7">
     <path d="M 187.92 84.72 
L 254.88 84.72 
Q 257.28 84.72 257.28 82.32 
L 257.28 42.96 
Q 257.28 40.56 254.88 40.56 
L 187.92 40.56 
Q 185.52 40.56 185.52 42.96 
L 185.52 82.32 
Q 185.52 84.72 187.92 84.72 
z
" style="fill:#ffffff;opacity:0.8;stroke:#cccccc;stroke-linejoin:miter;"/>
    </g>
    <g id="line2d_18">
     <path d="M 190.32 51.96 
L 214.32 51.96 
" style="fill:none;stroke:#1f77b4;stroke-linecap:square;stroke-width:1.5;"/>
    </g>
    <g id="line2d_19"/>
    <g id="text_19">
     <!-- $\psi^{NUM}_{64}$ -->
     <g transform="translate(223.92 56.16)scale(0.12 -0.12)">
      <defs>
       <path d="M 24.859375 -1.21875 
Q 13.921875 0.59375 9.625 5.328125 
Q 4.34375 11.140625 6.640625 23 
L 12.796875 54.6875 
L 21.875 54.6875 
L 15.765625 23.34375 
Q 14.0625 14.40625 17.484375 10.6875 
Q 20.515625 7.46875 26.421875 6.78125 
L 35.6875 54.6875 
L 44.625 54.6875 
L 35.359375 6.84375 
Q 41.890625 7.515625 45.75 10.75 
Q 50.734375 14.84375 52.390625 23.390625 
L 58.453125 54.6875 
L 67.53125 54.6875 
L 61.375 23.046875 
Q 58.984375 10.75 51.5625 5.375 
Q 44.875 0.53125 33.796875 -1.171875 
L 29.984375 -20.796875 
L 21.046875 -20.796875 
z
" id="DejaVuSans-Oblique-968"/>
       <path d="M 16.890625 72.90625 
L 30.171875 72.90625 
L 50.296875 10.40625 
L 62.5 72.90625 
L 72.125 72.90625 
L 57.90625 0 
L 44.578125 0 
L 24.515625 62.890625 
L 12.3125 0 
L 2.6875 0 
z
" id="DejaVuSans-Oblique-78"/>
       <path d="M 15.484375 72.90625 
L 25.390625 72.90625 
L 16.796875 28.609375 
Q 16.265625 25.640625 16.046875 23.703125 
Q 15.828125 21.78125 15.828125 20.3125 
Q 15.828125 13.578125 19.578125 10.078125 
Q 23.34375 6.59375 30.609375 6.59375 
Q 40.046875 6.59375 45.28125 11.765625 
Q 50.53125 16.9375 52.78125 28.609375 
L 61.375 72.90625 
L 71.296875 72.90625 
L 62.5 27.390625 
Q 59.625 12.640625 51.5625 5.609375 
Q 43.5 -1.421875 29.5 -1.421875 
Q 18.5625 -1.421875 12.1875 4.078125 
Q 5.8125 9.578125 5.8125 19 
Q 5.8125 20.703125 6.046875 22.828125 
Q 6.296875 24.953125 6.78125 27.390625 
z
" id="DejaVuSans-Oblique-85"/>
       <path d="M 16.890625 72.90625 
L 31.6875 72.90625 
L 40.1875 23.78125 
L 68.40625 72.90625 
L 83.59375 72.90625 
L 69.390625 0 
L 59.8125 0 
L 72.21875 63.921875 
L 43.609375 14.015625 
L 33.984375 14.015625 
L 24.703125 64.109375 
L 12.3125 0 
L 2.6875 0 
z
" id="DejaVuSans-Oblique-77"/>
       <path d="M 33.015625 40.375 
Q 26.375 40.375 22.484375 35.828125 
Q 18.609375 31.296875 18.609375 23.390625 
Q 18.609375 15.53125 22.484375 10.953125 
Q 26.375 6.390625 33.015625 6.390625 
Q 39.65625 6.390625 43.53125 10.953125 
Q 47.40625 15.53125 47.40625 23.390625 
Q 47.40625 31.296875 43.53125 35.828125 
Q 39.65625 40.375 33.015625 40.375 
z
M 52.59375 71.296875 
L 52.59375 62.3125 
Q 48.875 64.0625 45.09375 64.984375 
Q 41.3125 65.921875 37.59375 65.921875 
Q 27.828125 65.921875 22.671875 59.328125 
Q 17.53125 52.734375 16.796875 39.40625 
Q 19.671875 43.65625 24.015625 45.921875 
Q 28.375 48.1875 33.59375 48.1875 
Q 44.578125 48.1875 50.953125 41.515625 
Q 57.328125 34.859375 57.328125 23.390625 
Q 57.328125 12.15625 50.6875 5.359375 
Q 44.046875 -1.421875 33.015625 -1.421875 
Q 20.359375 -1.421875 13.671875 8.265625 
Q 6.984375 17.96875 6.984375 36.375 
Q 6.984375 53.65625 15.1875 63.9375 
Q 23.390625 74.21875 37.203125 74.21875 
Q 40.921875 74.21875 44.703125 73.484375 
Q 48.484375 72.75 52.59375 71.296875 
z
" id="DejaVuSans-54"/>
       <path d="M 37.796875 64.3125 
L 12.890625 25.390625 
L 37.796875 25.390625 
z
M 35.203125 72.90625 
L 47.609375 72.90625 
L 47.609375 25.390625 
L 58.015625 25.390625 
L 58.015625 17.1875 
L 47.609375 17.1875 
L 47.609375 0 
L 37.796875 0 
L 37.796875 17.1875 
L 4.890625 17.1875 
L 4.890625 26.703125 
z
" id="DejaVuSans-52"/>
      </defs>
      <use transform="translate(0 0.684375)" xlink:href="#DejaVuSans-Oblique-968"/>
      <use transform="translate(70.432943 38.965625)scale(0.7)" xlink:href="#DejaVuSans-Oblique-78"/>
      <use transform="translate(122.796224 38.965625)scale(0.7)" xlink:href="#DejaVuSans-Oblique-85"/>
      <use transform="translate(174.031576 38.965625)scale(0.7)" xlink:href="#DejaVuSans-Oblique-77"/>
      <use transform="translate(65.966797 -26.659375)scale(0.7)" xlink:href="#DejaVuSans-54"/>
      <use transform="translate(110.50293 -26.659375)scale(0.7)" xlink:href="#DejaVuSans-52"/>
     </g>
    </g>
    <g id="line2d_20">
     <path d="M 190.32 72.24 
L 214.32 72.24 
" style="fill:none;stroke:#ff7f0e;stroke-linecap:square;stroke-width:1.5;"/>
    </g>
    <g id="line2d_21"/>
    <g id="text_20">
     <!-- $\psi^{TH}_{64}$ -->
     <g transform="translate(223.92 76.44)scale(0.12 -0.12)">
      <defs>
       <path d="M 5.90625 72.90625 
L 67.578125 72.90625 
L 66.015625 64.59375 
L 39.984375 64.59375 
L 27.484375 0 
L 17.578125 0 
L 30.078125 64.59375 
L 4.296875 64.59375 
z
" id="DejaVuSans-Oblique-84"/>
       <path d="M 16.890625 72.90625 
L 26.8125 72.90625 
L 21 43.015625 
L 56.78125 43.015625 
L 62.59375 72.90625 
L 72.515625 72.90625 
L 58.296875 0 
L 48.390625 0 
L 55.171875 34.71875 
L 19.390625 34.71875 
L 12.59375 0 
L 2.6875 0 
z
" id="DejaVuSans-Oblique-72"/>
      </defs>
      <use transform="translate(0 0.684375)" xlink:href="#DejaVuSans-Oblique-968"/>
      <use transform="translate(70.432943 38.965625)scale(0.7)" xlink:href="#DejaVuSans-Oblique-84"/>
      <use transform="translate(113.191732 38.965625)scale(0.7)" xlink:href="#DejaVuSans-Oblique-72"/>
      <use transform="translate(65.966797 -26.659375)scale(0.7)" xlink:href="#DejaVuSans-54"/>
      <use transform="translate(110.50293 -26.659375)scale(0.7)" xlink:href="#DejaVuSans-52"/>
     </g>
    </g>
   </g>
  </g>
 </g>
 <defs>
  <clipPath id="pe1e0239232">
   <rect height="217.44" width="334.8" x="54" y="34.56"/>
  </clipPath>
 </defs>
</svg>
