<?xml version="1.0" encoding="utf-8" standalone="no"?>
<!DOCTYPE svg PUBLIC "-//W3C//DTD SVG 1.1//EN"
  "http://www.w3.org/Graphics/SVG/1.1/DTD/svg11.dtd">
<!-- Created with matplotlib (https://matplotlib.org/) -->
<svg height="288pt" version="1.1" viewBox="0 0 432 288" width="432pt" xmlns="http://www.w3.org/2000/svg" xmlns:xlink="http://www.w3.org/1999/xlink">
 <metadata>
  <rdf:RDF xmlns:cc="http://creativecommons.org/ns#" xmlns:dc="http://purl.org/dc/elements/1.1/" xmlns:rdf="http://www.w3.org/1999/02/22-rdf-syntax-ns#">
   <cc:Work>
    <dc:type rdf:resource="http://purl.org/dc/dcmitype/StillImage"/>
    <dc:date>2021-11-23T18:23:13.421631</dc:date>
    <dc:format>image/svg+xml</dc:format>
    <dc:creator>
     <cc:Agent>
      <dc:title>Matplotlib v3.3.4, https://matplotlib.org/</dc:title>
     </cc:Agent>
    </dc:creator>
   </cc:Work>
  </rdf:RDF>
 </metadata>
 <defs>
  <style type="text/css">*{stroke-linecap:butt;stroke-linejoin:round;}</style>
 </defs>
 <g id="figure_1">
  <g id="patch_1">
   <path d="M 0 288 
L 432 288 
L 432 0 
L 0 0 
z
" style="fill:none;"/>
  </g>
  <g id="axes_1">
   <g id="patch_2">
    <path d="M 54 252 
L 388.8 252 
L 388.8 34.56 
L 54 34.56 
z
" style="fill:#ffffff;"/>
   </g>
   <g id="matplotlib.axis_1">
    <g id="xtick_1">
     <g id="line2d_1">
      <defs>
       <path d="M 0 0 
L 0 3.5 
" id="m4e9ec6dca0" style="stroke:#000000;stroke-width:0.8;"/>
      </defs>
      <g>
       <use style="stroke:#000000;stroke-width:0.8;" x="54" xlink:href="#m4e9ec6dca0" y="252"/>
      </g>
     </g>
     <g id="text_1">
      <!-- −10.0 -->
      <g transform="translate(38.677344 266.598437)scale(0.1 -0.1)">
       <defs>
        <path d="M 10.59375 35.5 
L 73.1875 35.5 
L 73.1875 27.203125 
L 10.59375 27.203125 
z
" id="DejaVuSans-8722"/>
        <path d="M 12.40625 8.296875 
L 28.515625 8.296875 
L 28.515625 63.921875 
L 10.984375 60.40625 
L 10.984375 69.390625 
L 28.421875 72.90625 
L 38.28125 72.90625 
L 38.28125 8.296875 
L 54.390625 8.296875 
L 54.390625 0 
L 12.40625 0 
z
" id="DejaVuSans-49"/>
        <path d="M 31.78125 66.40625 
Q 24.171875 66.40625 20.328125 58.90625 
Q 16.5 51.421875 16.5 36.375 
Q 16.5 21.390625 20.328125 13.890625 
Q 24.171875 6.390625 31.78125 6.390625 
Q 39.453125 6.390625 43.28125 13.890625 
Q 47.125 21.390625 47.125 36.375 
Q 47.125 51.421875 43.28125 58.90625 
Q 39.453125 66.40625 31.78125 66.40625 
z
M 31.78125 74.21875 
Q 44.046875 74.21875 50.515625 64.515625 
Q 56.984375 54.828125 56.984375 36.375 
Q 56.984375 17.96875 50.515625 8.265625 
Q 44.046875 -1.421875 31.78125 -1.421875 
Q 19.53125 -1.421875 13.0625 8.265625 
Q 6.59375 17.96875 6.59375 36.375 
Q 6.59375 54.828125 13.0625 64.515625 
Q 19.53125 74.21875 31.78125 74.21875 
z
" id="DejaVuSans-48"/>
        <path d="M 10.6875 12.40625 
L 21 12.40625 
L 21 0 
L 10.6875 0 
z
" id="DejaVuSans-46"/>
       </defs>
       <use xlink:href="#DejaVuSans-8722"/>
       <use x="83.789062" xlink:href="#DejaVuSans-49"/>
       <use x="147.412109" xlink:href="#DejaVuSans-48"/>
       <use x="211.035156" xlink:href="#DejaVuSans-46"/>
       <use x="242.822266" xlink:href="#DejaVuSans-48"/>
      </g>
     </g>
    </g>
    <g id="xtick_2">
     <g id="line2d_2">
      <g>
       <use style="stroke:#000000;stroke-width:0.8;" x="95.85" xlink:href="#m4e9ec6dca0" y="252"/>
      </g>
     </g>
     <g id="text_2">
      <!-- −7.5 -->
      <g transform="translate(83.708594 266.598437)scale(0.1 -0.1)">
       <defs>
        <path d="M 8.203125 72.90625 
L 55.078125 72.90625 
L 55.078125 68.703125 
L 28.609375 0 
L 18.3125 0 
L 43.21875 64.59375 
L 8.203125 64.59375 
z
" id="DejaVuSans-55"/>
        <path d="M 10.796875 72.90625 
L 49.515625 72.90625 
L 49.515625 64.59375 
L 19.828125 64.59375 
L 19.828125 46.734375 
Q 21.96875 47.46875 24.109375 47.828125 
Q 26.265625 48.1875 28.421875 48.1875 
Q 40.625 48.1875 47.75 41.5 
Q 54.890625 34.8125 54.890625 23.390625 
Q 54.890625 11.625 47.5625 5.09375 
Q 40.234375 -1.421875 26.90625 -1.421875 
Q 22.3125 -1.421875 17.546875 -0.640625 
Q 12.796875 0.140625 7.71875 1.703125 
L 7.71875 11.625 
Q 12.109375 9.234375 16.796875 8.0625 
Q 21.484375 6.890625 26.703125 6.890625 
Q 35.15625 6.890625 40.078125 11.328125 
Q 45.015625 15.765625 45.015625 23.390625 
Q 45.015625 31 40.078125 35.4375 
Q 35.15625 39.890625 26.703125 39.890625 
Q 22.75 39.890625 18.8125 39.015625 
Q 14.890625 38.140625 10.796875 36.28125 
z
" id="DejaVuSans-53"/>
       </defs>
       <use xlink:href="#DejaVuSans-8722"/>
       <use x="83.789062" xlink:href="#DejaVuSans-55"/>
       <use x="147.412109" xlink:href="#DejaVuSans-46"/>
       <use x="179.199219" xlink:href="#DejaVuSans-53"/>
      </g>
     </g>
    </g>
    <g id="xtick_3">
     <g id="line2d_3">
      <g>
       <use style="stroke:#000000;stroke-width:0.8;" x="137.7" xlink:href="#m4e9ec6dca0" y="252"/>
      </g>
     </g>
     <g id="text_3">
      <!-- −5.0 -->
      <g transform="translate(125.558594 266.598437)scale(0.1 -0.1)">
       <use xlink:href="#DejaVuSans-8722"/>
       <use x="83.789062" xlink:href="#DejaVuSans-53"/>
       <use x="147.412109" xlink:href="#DejaVuSans-46"/>
       <use x="179.199219" xlink:href="#DejaVuSans-48"/>
      </g>
     </g>
    </g>
    <g id="xtick_4">
     <g id="line2d_4">
      <g>
       <use style="stroke:#000000;stroke-width:0.8;" x="179.55" xlink:href="#m4e9ec6dca0" y="252"/>
      </g>
     </g>
     <g id="text_4">
      <!-- −2.5 -->
      <g transform="translate(167.408594 266.598437)scale(0.1 -0.1)">
       <defs>
        <path d="M 19.1875 8.296875 
L 53.609375 8.296875 
L 53.609375 0 
L 7.328125 0 
L 7.328125 8.296875 
Q 12.9375 14.109375 22.625 23.890625 
Q 32.328125 33.6875 34.8125 36.53125 
Q 39.546875 41.84375 41.421875 45.53125 
Q 43.3125 49.21875 43.3125 52.78125 
Q 43.3125 58.59375 39.234375 62.25 
Q 35.15625 65.921875 28.609375 65.921875 
Q 23.96875 65.921875 18.8125 64.3125 
Q 13.671875 62.703125 7.8125 59.421875 
L 7.8125 69.390625 
Q 13.765625 71.78125 18.9375 73 
Q 24.125 74.21875 28.421875 74.21875 
Q 39.75 74.21875 46.484375 68.546875 
Q 53.21875 62.890625 53.21875 53.421875 
Q 53.21875 48.921875 51.53125 44.890625 
Q 49.859375 40.875 45.40625 35.40625 
Q 44.1875 33.984375 37.640625 27.21875 
Q 31.109375 20.453125 19.1875 8.296875 
z
" id="DejaVuSans-50"/>
       </defs>
       <use xlink:href="#DejaVuSans-8722"/>
       <use x="83.789062" xlink:href="#DejaVuSans-50"/>
       <use x="147.412109" xlink:href="#DejaVuSans-46"/>
       <use x="179.199219" xlink:href="#DejaVuSans-53"/>
      </g>
     </g>
    </g>
    <g id="xtick_5">
     <g id="line2d_5">
      <g>
       <use style="stroke:#000000;stroke-width:0.8;" x="221.4" xlink:href="#m4e9ec6dca0" y="252"/>
      </g>
     </g>
     <g id="text_5">
      <!-- 0.0 -->
      <g transform="translate(213.448438 266.598437)scale(0.1 -0.1)">
       <use xlink:href="#DejaVuSans-48"/>
       <use x="63.623047" xlink:href="#DejaVuSans-46"/>
       <use x="95.410156" xlink:href="#DejaVuSans-48"/>
      </g>
     </g>
    </g>
    <g id="xtick_6">
     <g id="line2d_6">
      <g>
       <use style="stroke:#000000;stroke-width:0.8;" x="263.25" xlink:href="#m4e9ec6dca0" y="252"/>
      </g>
     </g>
     <g id="text_6">
      <!-- 2.5 -->
      <g transform="translate(255.298438 266.598437)scale(0.1 -0.1)">
       <use xlink:href="#DejaVuSans-50"/>
       <use x="63.623047" xlink:href="#DejaVuSans-46"/>
       <use x="95.410156" xlink:href="#DejaVuSans-53"/>
      </g>
     </g>
    </g>
    <g id="xtick_7">
     <g id="line2d_7">
      <g>
       <use style="stroke:#000000;stroke-width:0.8;" x="305.1" xlink:href="#m4e9ec6dca0" y="252"/>
      </g>
     </g>
     <g id="text_7">
      <!-- 5.0 -->
      <g transform="translate(297.148438 266.598437)scale(0.1 -0.1)">
       <use xlink:href="#DejaVuSans-53"/>
       <use x="63.623047" xlink:href="#DejaVuSans-46"/>
       <use x="95.410156" xlink:href="#DejaVuSans-48"/>
      </g>
     </g>
    </g>
    <g id="xtick_8">
     <g id="line2d_8">
      <g>
       <use style="stroke:#000000;stroke-width:0.8;" x="346.95" xlink:href="#m4e9ec6dca0" y="252"/>
      </g>
     </g>
     <g id="text_8">
      <!-- 7.5 -->
      <g transform="translate(338.998438 266.598437)scale(0.1 -0.1)">
       <use xlink:href="#DejaVuSans-55"/>
       <use x="63.623047" xlink:href="#DejaVuSans-46"/>
       <use x="95.410156" xlink:href="#DejaVuSans-53"/>
      </g>
     </g>
    </g>
    <g id="xtick_9">
     <g id="line2d_9">
      <g>
       <use style="stroke:#000000;stroke-width:0.8;" x="388.8" xlink:href="#m4e9ec6dca0" y="252"/>
      </g>
     </g>
     <g id="text_9">
      <!-- 10.0 -->
      <g transform="translate(377.667188 266.598437)scale(0.1 -0.1)">
       <use xlink:href="#DejaVuSans-49"/>
       <use x="63.623047" xlink:href="#DejaVuSans-48"/>
       <use x="127.246094" xlink:href="#DejaVuSans-46"/>
       <use x="159.033203" xlink:href="#DejaVuSans-48"/>
      </g>
     </g>
    </g>
    <g id="text_10">
     <!-- x -->
     <g transform="translate(218.440625 280.276563)scale(0.1 -0.1)">
      <defs>
       <path d="M 54.890625 54.6875 
L 35.109375 28.078125 
L 55.90625 0 
L 45.3125 0 
L 29.390625 21.484375 
L 13.484375 0 
L 2.875 0 
L 24.125 28.609375 
L 4.6875 54.6875 
L 15.28125 54.6875 
L 29.78125 35.203125 
L 44.28125 54.6875 
z
" id="DejaVuSans-120"/>
      </defs>
      <use xlink:href="#DejaVuSans-120"/>
     </g>
    </g>
   </g>
   <g id="matplotlib.axis_2">
    <g id="ytick_1">
     <g id="line2d_10">
      <defs>
       <path d="M 0 0 
L -3.5 0 
" id="mc5eab32d69" style="stroke:#000000;stroke-width:0.8;"/>
      </defs>
      <g>
       <use style="stroke:#000000;stroke-width:0.8;" x="54" xlink:href="#mc5eab32d69" y="248.171552"/>
      </g>
     </g>
     <g id="text_11">
      <!-- −1.5 -->
      <g transform="translate(22.717187 251.970771)scale(0.1 -0.1)">
       <use xlink:href="#DejaVuSans-8722"/>
       <use x="83.789062" xlink:href="#DejaVuSans-49"/>
       <use x="147.412109" xlink:href="#DejaVuSans-46"/>
       <use x="179.199219" xlink:href="#DejaVuSans-53"/>
      </g>
     </g>
    </g>
    <g id="ytick_2">
     <g id="line2d_11">
      <g>
       <use style="stroke:#000000;stroke-width:0.8;" x="54" xlink:href="#mc5eab32d69" y="213.207701"/>
      </g>
     </g>
     <g id="text_12">
      <!-- −1.0 -->
      <g transform="translate(22.717187 217.00692)scale(0.1 -0.1)">
       <use xlink:href="#DejaVuSans-8722"/>
       <use x="83.789062" xlink:href="#DejaVuSans-49"/>
       <use x="147.412109" xlink:href="#DejaVuSans-46"/>
       <use x="179.199219" xlink:href="#DejaVuSans-48"/>
      </g>
     </g>
    </g>
    <g id="ytick_3">
     <g id="line2d_12">
      <g>
       <use style="stroke:#000000;stroke-width:0.8;" x="54" xlink:href="#mc5eab32d69" y="178.243851"/>
      </g>
     </g>
     <g id="text_13">
      <!-- −0.5 -->
      <g transform="translate(22.717187 182.043069)scale(0.1 -0.1)">
       <use xlink:href="#DejaVuSans-8722"/>
       <use x="83.789062" xlink:href="#DejaVuSans-48"/>
       <use x="147.412109" xlink:href="#DejaVuSans-46"/>
       <use x="179.199219" xlink:href="#DejaVuSans-53"/>
      </g>
     </g>
    </g>
    <g id="ytick_4">
     <g id="line2d_13">
      <g>
       <use style="stroke:#000000;stroke-width:0.8;" x="54" xlink:href="#mc5eab32d69" y="143.28"/>
      </g>
     </g>
     <g id="text_14">
      <!-- 0.0 -->
      <g transform="translate(31.096875 147.079219)scale(0.1 -0.1)">
       <use xlink:href="#DejaVuSans-48"/>
       <use x="63.623047" xlink:href="#DejaVuSans-46"/>
       <use x="95.410156" xlink:href="#DejaVuSans-48"/>
      </g>
     </g>
    </g>
    <g id="ytick_5">
     <g id="line2d_14">
      <g>
       <use style="stroke:#000000;stroke-width:0.8;" x="54" xlink:href="#mc5eab32d69" y="108.316149"/>
      </g>
     </g>
     <g id="text_15">
      <!-- 0.5 -->
      <g transform="translate(31.096875 112.115368)scale(0.1 -0.1)">
       <use xlink:href="#DejaVuSans-48"/>
       <use x="63.623047" xlink:href="#DejaVuSans-46"/>
       <use x="95.410156" xlink:href="#DejaVuSans-53"/>
      </g>
     </g>
    </g>
    <g id="ytick_6">
     <g id="line2d_15">
      <g>
       <use style="stroke:#000000;stroke-width:0.8;" x="54" xlink:href="#mc5eab32d69" y="73.352299"/>
      </g>
     </g>
     <g id="text_16">
      <!-- 1.0 -->
      <g transform="translate(31.096875 77.151517)scale(0.1 -0.1)">
       <use xlink:href="#DejaVuSans-49"/>
       <use x="63.623047" xlink:href="#DejaVuSans-46"/>
       <use x="95.410156" xlink:href="#DejaVuSans-48"/>
      </g>
     </g>
    </g>
    <g id="ytick_7">
     <g id="line2d_16">
      <g>
       <use style="stroke:#000000;stroke-width:0.8;" x="54" xlink:href="#mc5eab32d69" y="38.388448"/>
      </g>
     </g>
     <g id="text_17">
      <!-- 1.5 -->
      <g transform="translate(31.096875 42.187667)scale(0.1 -0.1)">
       <use xlink:href="#DejaVuSans-49"/>
       <use x="63.623047" xlink:href="#DejaVuSans-46"/>
       <use x="95.410156" xlink:href="#DejaVuSans-53"/>
      </g>
     </g>
    </g>
    <g id="text_18">
     <!-- 1e−1 -->
     <g transform="translate(54 31.56)scale(0.1 -0.1)">
      <defs>
       <path d="M 56.203125 29.59375 
L 56.203125 25.203125 
L 14.890625 25.203125 
Q 15.484375 15.921875 20.484375 11.0625 
Q 25.484375 6.203125 34.421875 6.203125 
Q 39.59375 6.203125 44.453125 7.46875 
Q 49.3125 8.734375 54.109375 11.28125 
L 54.109375 2.78125 
Q 49.265625 0.734375 44.1875 -0.34375 
Q 39.109375 -1.421875 33.890625 -1.421875 
Q 20.796875 -1.421875 13.15625 6.1875 
Q 5.515625 13.8125 5.515625 26.8125 
Q 5.515625 40.234375 12.765625 48.109375 
Q 20.015625 56 32.328125 56 
Q 43.359375 56 49.78125 48.890625 
Q 56.203125 41.796875 56.203125 29.59375 
z
M 47.21875 32.234375 
Q 47.125 39.59375 43.09375 43.984375 
Q 39.0625 48.390625 32.421875 48.390625 
Q 24.90625 48.390625 20.390625 44.140625 
Q 15.875 39.890625 15.1875 32.171875 
z
" id="DejaVuSans-101"/>
      </defs>
      <use xlink:href="#DejaVuSans-49"/>
      <use x="63.623047" xlink:href="#DejaVuSans-101"/>
      <use x="125.146484" xlink:href="#DejaVuSans-8722"/>
      <use x="208.935547" xlink:href="#DejaVuSans-49"/>
     </g>
    </g>
   </g>
   <g id="line2d_17">
    <path clip-path="url(#pc0e1e0e577)" d="M -1 143.285826 
L 7.128 143.410191 
L 10.476 143.69555 
L 12.15 143.99965 
L 13.824 144.499606 
L 15.498 145.301116 
L 17.172 146.552436 
L 18.846 148.451878 
L 20.52 151.249961 
L 22.194 155.240789 
L 23.868 160.735746 
L 25.542 168.012149 
L 27.216 177.231392 
L 28.89 188.326622 
L 33.912 226.073637 
L 35.586 235.224229 
L 37.26 239.019558 
L 38.934 235.122703 
L 40.608 221.835397 
L 42.282 198.811563 
L 43.956 167.71094 
L 47.304 99.380329 
L 48.978 75.387915 
L 50.652 66.972996 
L 52.326 77.630641 
L 54 106.029683 
L 57.348 183.849275 
L 59.022 209.068763 
L 60.696 211.298701 
L 62.37 188.447093 
L 65.718 105.756799 
L 67.392 79.399999 
L 69.066 81.40239 
L 70.74 112.007392 
L 72.414 157.634031 
L 74.088 196.108847 
L 75.762 207.32689 
L 77.436 184.379448 
L 80.784 95.759776 
L 82.458 80.510058 
L 84.132 103.013012 
L 85.806 150.398737 
L 87.48 193.269441 
L 89.154 203.629766 
L 90.828 173.782371 
L 92.502 123.134038 
L 94.176 86.536402 
L 95.85 90.38247 
L 97.524 132.729736 
L 99.198 182.913157 
L 100.872 203.076643 
L 102.546 177.080422 
L 104.22 124.508793 
L 105.894 86.960604 
L 107.568 95.270204 
L 110.916 191.346883 
L 112.59 198.279568 
L 114.264 157.481158 
L 115.938 104.17515 
L 117.612 85.807175 
L 119.286 119.506412 
L 120.96 175.035623 
L 122.634 201.021152 
L 124.308 172.600374 
L 125.982 116.20957 
L 127.656 85.953773 
L 129.33 111.691076 
L 131.004 168.633336 
L 132.678 200.254082 
L 134.352 174.36263 
L 136.026 116.76861 
L 137.7 86.487812 
L 139.374 115.290477 
L 141.048 173.488997 
L 142.722 199.667643 
L 144.396 165.542818 
L 146.07 107.402093 
L 147.744 88.290966 
L 149.418 129.488781 
L 151.092 185.93203 
L 152.766 194.863274 
L 156.114 93.979962 
L 157.788 98.169995 
L 159.462 154.053613 
L 161.136 197.510463 
L 162.81 178.019583 
L 164.484 117.958258 
L 166.158 87.643521 
L 167.832 123.060218 
L 169.506 182.496901 
L 171.18 195.099 
L 174.528 93.223475 
L 176.202 101.612275 
L 177.876 160.729231 
L 179.55 198.51023 
L 181.224 168.477073 
L 182.898 107.382351 
L 184.572 90.708994 
L 186.246 139.325932 
L 187.92 192.870606 
L 189.594 184.409919 
L 191.268 124.362241 
L 192.942 88.112063 
L 194.616 121.453198 
L 196.29 182.39967 
L 197.964 193.748468 
L 201.312 91.129349 
L 202.986 107.83534 
L 204.66 169.848285 
L 206.334 197.844662 
L 208.008 155.875778 
L 209.682 97.73461 
L 211.356 98.139528 
L 213.03 156.628718 
L 214.704 197.92683 
L 216.378 168.79912 
L 218.052 106.76591 
L 219.726 91.833867 
L 223.074 194.726089 
L 224.748 179.794184 
L 226.422 117.760992 
L 228.096 88.633155 
L 229.77 129.931159 
L 231.444 188.4204 
L 233.118 188.825461 
L 234.792 130.684345 
L 236.466 88.715355 
L 238.14 116.711605 
L 239.814 178.724563 
L 241.488 195.430692 
L 244.836 92.811583 
L 246.51 104.160241 
L 248.184 165.106686 
L 249.858 198.447941 
L 251.532 162.197878 
L 253.206 102.150165 
L 254.88 93.689338 
L 256.554 147.233942 
L 258.228 195.850966 
L 259.902 179.177745 
L 261.576 118.08304 
L 263.25 88.04976 
L 264.924 125.830648 
L 266.598 184.947641 
L 268.272 193.33658 
L 271.62 91.461046 
L 273.294 104.063009 
L 274.968 163.499663 
L 276.642 198.916473 
L 278.316 168.601856 
L 279.99 108.540517 
L 281.664 89.049506 
L 283.338 132.506261 
L 285.012 188.38993 
L 286.686 192.580099 
L 290.034 91.696776 
L 291.708 100.627886 
L 293.382 157.071094 
L 295.056 198.269006 
L 296.73 179.158007 
L 298.404 121.017301 
L 300.078 86.892367 
L 301.752 113.070893 
L 303.426 171.26941 
L 305.1 200.07219 
L 306.774 169.791505 
L 308.448 112.19748 
L 310.122 86.30591 
L 311.796 117.926547 
L 313.47 174.868815 
L 315.144 200.606234 
L 316.818 170.350546 
L 318.492 113.95974 
L 320.166 85.53885 
L 321.84 111.524266 
L 323.514 167.053467 
L 325.188 200.752804 
L 326.862 182.38495 
L 328.536 129.078972 
L 330.21 88.280479 
L 331.884 95.213039 
L 335.232 191.289717 
L 336.906 199.599439 
L 338.58 162.051336 
L 340.254 109.479691 
L 341.928 83.483375 
L 343.602 103.646752 
L 345.276 153.830133 
L 346.95 196.177459 
L 348.624 200.02364 
L 350.298 163.426069 
L 351.972 112.777726 
L 353.646 82.930255 
L 355.32 93.290473 
L 356.994 136.161125 
L 358.668 183.546888 
L 360.342 206.049941 
L 362.016 190.800324 
L 365.364 102.180676 
L 367.038 79.233158 
L 368.712 90.4511 
L 370.386 128.925842 
L 372.06 174.552466 
L 373.734 205.157522 
L 375.408 207.159988 
L 377.082 180.803268 
L 380.43 98.113028 
L 382.104 75.261373 
L 383.778 77.491258 
L 385.452 102.710666 
L 388.8 180.530193 
L 390.474 208.929256 
L 392.148 219.586928 
L 393.822 211.17208 
L 395.496 187.179717 
L 400.518 87.748625 
L 402.192 64.724774 
L 403.866 51.437454 
L 405.54 47.540541 
L 407.214 51.335804 
L 408.888 60.486384 
L 410.562 72.61297 
L 413.91 98.233387 
L 415.584 109.328609 
L 417.258 118.547854 
L 418.932 125.824259 
L 420.606 131.319219 
L 422.28 135.310044 
L 423.954 138.108124 
L 425.628 140.007566 
L 427.302 141.258885 
L 428.976 142.060395 
L 430.65 142.560351 
L 433 142.937371 
L 433 142.937371 
" style="fill:none;stroke:#1f77b4;stroke-linecap:square;stroke-width:1.5;"/>
   </g>
   <g id="line2d_18">
    <path clip-path="url(#pc0e1e0e577)" d="M -1 143.310419 
L 3.78 143.458792 
L 7.128 143.849679 
L 8.802 144.263625 
L 10.476 144.939619 
L 12.15 146.014201 
L 13.824 147.674562 
L 15.498 150.163872 
L 17.172 153.777542 
L 18.846 158.843491 
L 20.52 165.678477 
L 22.194 174.5135 
L 23.868 185.385771 
L 25.542 198.003891 
L 28.89 224.858712 
L 30.564 235.826004 
L 32.238 242.116364 
L 33.912 241.216275 
L 35.586 231.049409 
L 37.26 210.69343 
L 38.934 181.102157 
L 42.282 109.789301 
L 43.956 80.858177 
L 45.63 65.872978 
L 47.304 69.67336 
L 48.978 92.743751 
L 50.652 129.969564 
L 52.326 171.074946 
L 54 203.134397 
L 55.674 214.774686 
L 57.348 200.778933 
L 59.022 165.183229 
L 60.696 121.060997 
L 62.37 86.252231 
L 64.044 76.098671 
L 65.718 96.062934 
L 69.066 182.230535 
L 70.74 206.971887 
L 72.414 198.814534 
L 74.088 161.159543 
L 75.762 113.827243 
L 77.436 83.234324 
L 79.11 87.505216 
L 80.784 124.920265 
L 82.458 173.418525 
L 84.132 202.953257 
L 85.806 194.256393 
L 87.48 152.258042 
L 89.154 104.379631 
L 90.828 83.166951 
L 92.502 103.846398 
L 94.176 152.450153 
L 95.85 194.294373 
L 97.524 198.472676 
L 99.198 161.291231 
L 100.872 110.481584 
L 102.546 85.205012 
L 104.22 105.692709 
L 105.894 156.165888 
L 107.568 196.064254 
L 109.242 192.432632 
L 110.916 147.795154 
L 112.59 99.443358 
L 114.264 88.770859 
L 115.938 125.435256 
L 117.612 177.698729 
L 119.286 199.235863 
L 120.96 170.378665 
L 122.634 116.923921 
L 124.308 87.829845 
L 125.982 110.3564 
L 127.656 163.768605 
L 129.33 197.630689 
L 131.004 179.345045 
L 132.678 126.20803 
L 134.352 89.838595 
L 136.026 106.175237 
L 137.7 159.345938 
L 139.374 196.324741 
L 141.048 179.65969 
L 142.722 125.986476 
L 144.396 90.145747 
L 146.07 109.281429 
L 147.744 163.779272 
L 149.418 196.70047 
L 151.092 173.187889 
L 152.766 117.937002 
L 154.44 89.864406 
L 156.114 119.296077 
L 157.788 174.641834 
L 159.462 195.774503 
L 161.136 159.419814 
L 162.81 105.350985 
L 164.484 93.309895 
L 166.158 136.842085 
L 167.832 187.514683 
L 169.506 188.474727 
L 171.18 138.472846 
L 172.854 93.969822 
L 174.528 105.592094 
L 176.202 160.236053 
L 177.876 195.389993 
L 179.55 170.556852 
L 181.224 114.252126 
L 182.898 91.627032 
L 184.572 129.058095 
L 186.246 183.040648 
L 187.92 190.486849 
L 191.268 95.521693 
L 192.942 104.798305 
L 194.616 159.536544 
L 196.29 194.992079 
L 197.964 169.063783 
L 199.638 112.492579 
L 201.312 92.620328 
L 202.986 133.200686 
L 204.66 185.809201 
L 206.334 187.505348 
L 208.008 136.210755 
L 209.682 93.41117 
L 211.356 110.503067 
L 213.03 166.982801 
L 214.704 194.944793 
L 216.378 160.727553 
L 218.052 105.507094 
L 219.726 95.785331 
L 223.074 190.774669 
L 224.748 181.052906 
L 226.422 125.832447 
L 228.096 91.615207 
L 229.77 119.577199 
L 231.444 176.056933 
L 233.118 193.14883 
L 234.792 150.349245 
L 236.466 99.054652 
L 238.14 100.750799 
L 239.814 153.359314 
L 241.488 193.939672 
L 243.162 174.067421 
L 244.836 117.496217 
L 246.51 91.567921 
L 248.184 127.023456 
L 249.858 181.761695 
L 251.532 191.038307 
L 254.88 96.073151 
L 256.554 103.519352 
L 258.228 157.501905 
L 259.902 194.932968 
L 261.576 172.307874 
L 263.25 116.003148 
L 264.924 91.170007 
L 266.598 126.323947 
L 268.272 180.967906 
L 269.946 192.590178 
L 271.62 148.087154 
L 273.294 98.085273 
L 274.968 99.045317 
L 276.642 149.717915 
L 278.316 193.250105 
L 279.99 181.209015 
L 281.664 127.140186 
L 283.338 90.785497 
L 285.012 111.918166 
L 286.686 167.263923 
L 288.36 196.695594 
L 290.034 168.622998 
L 291.708 113.372111 
L 293.382 89.85953 
L 295.056 122.780728 
L 296.73 177.278571 
L 298.404 196.414253 
L 300.078 160.573524 
L 301.752 106.90031 
L 303.426 90.235259 
L 305.1 127.214062 
L 306.774 180.384763 
L 308.448 196.721405 
L 310.122 160.35197 
L 311.796 107.214955 
L 313.47 88.929311 
L 315.144 122.791395 
L 316.818 176.2036 
L 318.492 198.730155 
L 320.166 169.636079 
L 321.84 116.181335 
L 323.514 87.324137 
L 325.188 108.861271 
L 326.862 161.124744 
L 328.536 197.789141 
L 330.21 187.116642 
L 331.884 138.764846 
L 333.558 94.127368 
L 335.232 90.495746 
L 336.906 130.394112 
L 338.58 180.867291 
L 340.254 201.354988 
L 341.928 176.078416 
L 343.602 125.268769 
L 345.276 88.087324 
L 346.95 92.265627 
L 348.624 134.109847 
L 350.298 182.713602 
L 351.972 203.393049 
L 353.646 182.180369 
L 355.32 134.301958 
L 356.994 92.303607 
L 358.668 83.606743 
L 360.342 113.141475 
L 362.016 161.639735 
L 363.69 199.054784 
L 365.364 203.325676 
L 367.038 172.732757 
L 368.712 125.400457 
L 370.386 87.745466 
L 372.06 79.588113 
L 373.734 104.329465 
L 377.082 190.497066 
L 378.756 210.461329 
L 380.43 200.307769 
L 382.104 165.499003 
L 383.778 121.376771 
L 385.452 85.781067 
L 387.126 71.785314 
L 388.8 83.425603 
L 390.474 115.485054 
L 392.148 156.590436 
L 393.822 193.816249 
L 395.496 216.88664 
L 397.17 220.687022 
L 398.844 205.701823 
L 400.518 176.770699 
L 403.866 105.457843 
L 405.54 75.86657 
L 407.214 55.510591 
L 408.888 45.343725 
L 410.562 44.443636 
L 412.236 50.733996 
L 413.91 61.701288 
L 418.932 101.174229 
L 420.606 112.0465 
L 422.28 120.881523 
L 423.954 127.716509 
L 425.628 132.782458 
L 427.302 136.396128 
L 428.976 138.885438 
L 430.65 140.545799 
L 432.324 141.620381 
L 433 141.893363 
L 433 141.893363 
" style="fill:none;stroke:#ff7f0e;stroke-linecap:square;stroke-width:1.5;"/>
   </g>
   <g id="patch_3">
    <path d="M 54 252 
L 54 34.56 
" style="fill:none;stroke:#000000;stroke-linecap:square;stroke-linejoin:miter;stroke-width:0.8;"/>
   </g>
   <g id="patch_4">
    <path d="M 388.8 252 
L 388.8 34.56 
" style="fill:none;stroke:#000000;stroke-linecap:square;stroke-linejoin:miter;stroke-width:0.8;"/>
   </g>
   <g id="patch_5">
    <path d="M 54 252 
L 388.8 252 
" style="fill:none;stroke:#000000;stroke-linecap:square;stroke-linejoin:miter;stroke-width:0.8;"/>
   </g>
   <g id="patch_6">
    <path d="M 54 34.56 
L 388.8 34.56 
" style="fill:none;stroke:#000000;stroke-linecap:square;stroke-linejoin:miter;stroke-width:0.8;"/>
   </g>
   <g id="text_19">
    <!-- N=500, L=50 -->
    <g transform="translate(180.61125 28.56)scale(0.12 -0.12)">
     <defs>
      <path d="M 9.8125 72.90625 
L 23.09375 72.90625 
L 55.421875 11.921875 
L 55.421875 72.90625 
L 64.984375 72.90625 
L 64.984375 0 
L 51.703125 0 
L 19.390625 60.984375 
L 19.390625 0 
L 9.8125 0 
z
" id="DejaVuSans-78"/>
      <path d="M 10.59375 45.40625 
L 73.1875 45.40625 
L 73.1875 37.203125 
L 10.59375 37.203125 
z
M 10.59375 25.484375 
L 73.1875 25.484375 
L 73.1875 17.1875 
L 10.59375 17.1875 
z
" id="DejaVuSans-61"/>
      <path d="M 11.71875 12.40625 
L 22.015625 12.40625 
L 22.015625 4 
L 14.015625 -11.625 
L 7.71875 -11.625 
L 11.71875 4 
z
" id="DejaVuSans-44"/>
      <path id="DejaVuSans-32"/>
      <path d="M 9.8125 72.90625 
L 19.671875 72.90625 
L 19.671875 8.296875 
L 55.171875 8.296875 
L 55.171875 0 
L 9.8125 0 
z
" id="DejaVuSans-76"/>
     </defs>
     <use xlink:href="#DejaVuSans-78"/>
     <use x="74.804688" xlink:href="#DejaVuSans-61"/>
     <use x="158.59375" xlink:href="#DejaVuSans-53"/>
     <use x="222.216797" xlink:href="#DejaVuSans-48"/>
     <use x="285.839844" xlink:href="#DejaVuSans-48"/>
     <use x="349.462891" xlink:href="#DejaVuSans-44"/>
     <use x="381.25" xlink:href="#DejaVuSans-32"/>
     <use x="413.037109" xlink:href="#DejaVuSans-76"/>
     <use x="468.75" xlink:href="#DejaVuSans-61"/>
     <use x="552.539062" xlink:href="#DejaVuSans-53"/>
     <use x="616.162109" xlink:href="#DejaVuSans-48"/>
    </g>
   </g>
   <g id="legend_1">
    <g id="patch_7">
     <path d="M 187.92 246 
L 254.88 246 
Q 257.28 246 257.28 243.6 
L 257.28 204.24 
Q 257.28 201.84 254.88 201.84 
L 187.92 201.84 
Q 185.52 201.84 185.52 204.24 
L 185.52 243.6 
Q 185.52 246 187.92 246 
z
" style="fill:#ffffff;opacity:0.8;stroke:#cccccc;stroke-linejoin:miter;"/>
    </g>
    <g id="line2d_19">
     <path d="M 190.32 213.24 
L 214.32 213.24 
" style="fill:none;stroke:#1f77b4;stroke-linecap:square;stroke-width:1.5;"/>
    </g>
    <g id="line2d_20"/>
    <g id="text_20">
     <!-- $\psi^{NUM}_{67}$ -->
     <g transform="translate(223.92 217.44)scale(0.12 -0.12)">
      <defs>
       <path d="M 24.859375 -1.21875 
Q 13.921875 0.59375 9.625 5.328125 
Q 4.34375 11.140625 6.640625 23 
L 12.796875 54.6875 
L 21.875 54.6875 
L 15.765625 23.34375 
Q 14.0625 14.40625 17.484375 10.6875 
Q 20.515625 7.46875 26.421875 6.78125 
L 35.6875 54.6875 
L 44.625 54.6875 
L 35.359375 6.84375 
Q 41.890625 7.515625 45.75 10.75 
Q 50.734375 14.84375 52.390625 23.390625 
L 58.453125 54.6875 
L 67.53125 54.6875 
L 61.375 23.046875 
Q 58.984375 10.75 51.5625 5.375 
Q 44.875 0.53125 33.796875 -1.171875 
L 29.984375 -20.796875 
L 21.046875 -20.796875 
z
" id="DejaVuSans-Oblique-968"/>
       <path d="M 16.890625 72.90625 
L 30.171875 72.90625 
L 50.296875 10.40625 
L 62.5 72.90625 
L 72.125 72.90625 
L 57.90625 0 
L 44.578125 0 
L 24.515625 62.890625 
L 12.3125 0 
L 2.6875 0 
z
" id="DejaVuSans-Oblique-78"/>
       <path d="M 15.484375 72.90625 
L 25.390625 72.90625 
L 16.796875 28.609375 
Q 16.265625 25.640625 16.046875 23.703125 
Q 15.828125 21.78125 15.828125 20.3125 
Q 15.828125 13.578125 19.578125 10.078125 
Q 23.34375 6.59375 30.609375 6.59375 
Q 40.046875 6.59375 45.28125 11.765625 
Q 50.53125 16.9375 52.78125 28.609375 
L 61.375 72.90625 
L 71.296875 72.90625 
L 62.5 27.390625 
Q 59.625 12.640625 51.5625 5.609375 
Q 43.5 -1.421875 29.5 -1.421875 
Q 18.5625 -1.421875 12.1875 4.078125 
Q 5.8125 9.578125 5.8125 19 
Q 5.8125 20.703125 6.046875 22.828125 
Q 6.296875 24.953125 6.78125 27.390625 
z
" id="DejaVuSans-Oblique-85"/>
       <path d="M 16.890625 72.90625 
L 31.6875 72.90625 
L 40.1875 23.78125 
L 68.40625 72.90625 
L 83.59375 72.90625 
L 69.390625 0 
L 59.8125 0 
L 72.21875 63.921875 
L 43.609375 14.015625 
L 33.984375 14.015625 
L 24.703125 64.109375 
L 12.3125 0 
L 2.6875 0 
z
" id="DejaVuSans-Oblique-77"/>
       <path d="M 33.015625 40.375 
Q 26.375 40.375 22.484375 35.828125 
Q 18.609375 31.296875 18.609375 23.390625 
Q 18.609375 15.53125 22.484375 10.953125 
Q 26.375 6.390625 33.015625 6.390625 
Q 39.65625 6.390625 43.53125 10.953125 
Q 47.40625 15.53125 47.40625 23.390625 
Q 47.40625 31.296875 43.53125 35.828125 
Q 39.65625 40.375 33.015625 40.375 
z
M 52.59375 71.296875 
L 52.59375 62.3125 
Q 48.875 64.0625 45.09375 64.984375 
Q 41.3125 65.921875 37.59375 65.921875 
Q 27.828125 65.921875 22.671875 59.328125 
Q 17.53125 52.734375 16.796875 39.40625 
Q 19.671875 43.65625 24.015625 45.921875 
Q 28.375 48.1875 33.59375 48.1875 
Q 44.578125 48.1875 50.953125 41.515625 
Q 57.328125 34.859375 57.328125 23.390625 
Q 57.328125 12.15625 50.6875 5.359375 
Q 44.046875 -1.421875 33.015625 -1.421875 
Q 20.359375 -1.421875 13.671875 8.265625 
Q 6.984375 17.96875 6.984375 36.375 
Q 6.984375 53.65625 15.1875 63.9375 
Q 23.390625 74.21875 37.203125 74.21875 
Q 40.921875 74.21875 44.703125 73.484375 
Q 48.484375 72.75 52.59375 71.296875 
z
" id="DejaVuSans-54"/>
      </defs>
      <use transform="translate(0 0.684375)" xlink:href="#DejaVuSans-Oblique-968"/>
      <use transform="translate(70.432943 38.965625)scale(0.7)" xlink:href="#DejaVuSans-Oblique-78"/>
      <use transform="translate(122.796224 38.965625)scale(0.7)" xlink:href="#DejaVuSans-Oblique-85"/>
      <use transform="translate(174.031576 38.965625)scale(0.7)" xlink:href="#DejaVuSans-Oblique-77"/>
      <use transform="translate(65.966797 -26.659375)scale(0.7)" xlink:href="#DejaVuSans-54"/>
      <use transform="translate(110.50293 -26.659375)scale(0.7)" xlink:href="#DejaVuSans-55"/>
     </g>
    </g>
    <g id="line2d_21">
     <path d="M 190.32 233.52 
L 214.32 233.52 
" style="fill:none;stroke:#ff7f0e;stroke-linecap:square;stroke-width:1.5;"/>
    </g>
    <g id="line2d_22"/>
    <g id="text_21">
     <!-- $\psi^{TH}_{67}$ -->
     <g transform="translate(223.92 237.72)scale(0.12 -0.12)">
      <defs>
       <path d="M 5.90625 72.90625 
L 67.578125 72.90625 
L 66.015625 64.59375 
L 39.984375 64.59375 
L 27.484375 0 
L 17.578125 0 
L 30.078125 64.59375 
L 4.296875 64.59375 
z
" id="DejaVuSans-Oblique-84"/>
       <path d="M 16.890625 72.90625 
L 26.8125 72.90625 
L 21 43.015625 
L 56.78125 43.015625 
L 62.59375 72.90625 
L 72.515625 72.90625 
L 58.296875 0 
L 48.390625 0 
L 55.171875 34.71875 
L 19.390625 34.71875 
L 12.59375 0 
L 2.6875 0 
z
" id="DejaVuSans-Oblique-72"/>
      </defs>
      <use transform="translate(0 0.684375)" xlink:href="#DejaVuSans-Oblique-968"/>
      <use transform="translate(70.432943 38.965625)scale(0.7)" xlink:href="#DejaVuSans-Oblique-84"/>
      <use transform="translate(113.191732 38.965625)scale(0.7)" xlink:href="#DejaVuSans-Oblique-72"/>
      <use transform="translate(65.966797 -26.659375)scale(0.7)" xlink:href="#DejaVuSans-54"/>
      <use transform="translate(110.50293 -26.659375)scale(0.7)" xlink:href="#DejaVuSans-55"/>
     </g>
    </g>
   </g>
  </g>
 </g>
 <defs>
  <clipPath id="pc0e1e0e577">
   <rect height="217.44" width="334.8" x="54" y="34.56"/>
  </clipPath>
 </defs>
</svg>
