<?xml version="1.0" encoding="utf-8" standalone="no"?>
<!DOCTYPE svg PUBLIC "-//W3C//DTD SVG 1.1//EN"
  "http://www.w3.org/Graphics/SVG/1.1/DTD/svg11.dtd">
<!-- Created with matplotlib (https://matplotlib.org/) -->
<svg height="288pt" version="1.1" viewBox="0 0 432 288" width="432pt" xmlns="http://www.w3.org/2000/svg" xmlns:xlink="http://www.w3.org/1999/xlink">
 <metadata>
  <rdf:RDF xmlns:cc="http://creativecommons.org/ns#" xmlns:dc="http://purl.org/dc/elements/1.1/" xmlns:rdf="http://www.w3.org/1999/02/22-rdf-syntax-ns#">
   <cc:Work>
    <dc:type rdf:resource="http://purl.org/dc/dcmitype/StillImage"/>
    <dc:date>2021-11-23T18:23:14.640291</dc:date>
    <dc:format>image/svg+xml</dc:format>
    <dc:creator>
     <cc:Agent>
      <dc:title>Matplotlib v3.3.4, https://matplotlib.org/</dc:title>
     </cc:Agent>
    </dc:creator>
   </cc:Work>
  </rdf:RDF>
 </metadata>
 <defs>
  <style type="text/css">*{stroke-linecap:butt;stroke-linejoin:round;}</style>
 </defs>
 <g id="figure_1">
  <g id="patch_1">
   <path d="M 0 288 
L 432 288 
L 432 0 
L 0 0 
z
" style="fill:none;"/>
  </g>
  <g id="axes_1">
   <g id="patch_2">
    <path d="M 54 252 
L 388.8 252 
L 388.8 34.56 
L 54 34.56 
z
" style="fill:#ffffff;"/>
   </g>
   <g id="matplotlib.axis_1">
    <g id="xtick_1">
     <g id="line2d_1">
      <defs>
       <path d="M 0 0 
L 0 3.5 
" id="mf7363eaaa2" style="stroke:#000000;stroke-width:0.8;"/>
      </defs>
      <g>
       <use style="stroke:#000000;stroke-width:0.8;" x="54" xlink:href="#mf7363eaaa2" y="252"/>
      </g>
     </g>
     <g id="text_1">
      <!-- −10.0 -->
      <g transform="translate(38.677344 266.598437)scale(0.1 -0.1)">
       <defs>
        <path d="M 10.59375 35.5 
L 73.1875 35.5 
L 73.1875 27.203125 
L 10.59375 27.203125 
z
" id="DejaVuSans-8722"/>
        <path d="M 12.40625 8.296875 
L 28.515625 8.296875 
L 28.515625 63.921875 
L 10.984375 60.40625 
L 10.984375 69.390625 
L 28.421875 72.90625 
L 38.28125 72.90625 
L 38.28125 8.296875 
L 54.390625 8.296875 
L 54.390625 0 
L 12.40625 0 
z
" id="DejaVuSans-49"/>
        <path d="M 31.78125 66.40625 
Q 24.171875 66.40625 20.328125 58.90625 
Q 16.5 51.421875 16.5 36.375 
Q 16.5 21.390625 20.328125 13.890625 
Q 24.171875 6.390625 31.78125 6.390625 
Q 39.453125 6.390625 43.28125 13.890625 
Q 47.125 21.390625 47.125 36.375 
Q 47.125 51.421875 43.28125 58.90625 
Q 39.453125 66.40625 31.78125 66.40625 
z
M 31.78125 74.21875 
Q 44.046875 74.21875 50.515625 64.515625 
Q 56.984375 54.828125 56.984375 36.375 
Q 56.984375 17.96875 50.515625 8.265625 
Q 44.046875 -1.421875 31.78125 -1.421875 
Q 19.53125 -1.421875 13.0625 8.265625 
Q 6.59375 17.96875 6.59375 36.375 
Q 6.59375 54.828125 13.0625 64.515625 
Q 19.53125 74.21875 31.78125 74.21875 
z
" id="DejaVuSans-48"/>
        <path d="M 10.6875 12.40625 
L 21 12.40625 
L 21 0 
L 10.6875 0 
z
" id="DejaVuSans-46"/>
       </defs>
       <use xlink:href="#DejaVuSans-8722"/>
       <use x="83.789062" xlink:href="#DejaVuSans-49"/>
       <use x="147.412109" xlink:href="#DejaVuSans-48"/>
       <use x="211.035156" xlink:href="#DejaVuSans-46"/>
       <use x="242.822266" xlink:href="#DejaVuSans-48"/>
      </g>
     </g>
    </g>
    <g id="xtick_2">
     <g id="line2d_2">
      <g>
       <use style="stroke:#000000;stroke-width:0.8;" x="95.85" xlink:href="#mf7363eaaa2" y="252"/>
      </g>
     </g>
     <g id="text_2">
      <!-- −7.5 -->
      <g transform="translate(83.708594 266.598437)scale(0.1 -0.1)">
       <defs>
        <path d="M 8.203125 72.90625 
L 55.078125 72.90625 
L 55.078125 68.703125 
L 28.609375 0 
L 18.3125 0 
L 43.21875 64.59375 
L 8.203125 64.59375 
z
" id="DejaVuSans-55"/>
        <path d="M 10.796875 72.90625 
L 49.515625 72.90625 
L 49.515625 64.59375 
L 19.828125 64.59375 
L 19.828125 46.734375 
Q 21.96875 47.46875 24.109375 47.828125 
Q 26.265625 48.1875 28.421875 48.1875 
Q 40.625 48.1875 47.75 41.5 
Q 54.890625 34.8125 54.890625 23.390625 
Q 54.890625 11.625 47.5625 5.09375 
Q 40.234375 -1.421875 26.90625 -1.421875 
Q 22.3125 -1.421875 17.546875 -0.640625 
Q 12.796875 0.140625 7.71875 1.703125 
L 7.71875 11.625 
Q 12.109375 9.234375 16.796875 8.0625 
Q 21.484375 6.890625 26.703125 6.890625 
Q 35.15625 6.890625 40.078125 11.328125 
Q 45.015625 15.765625 45.015625 23.390625 
Q 45.015625 31 40.078125 35.4375 
Q 35.15625 39.890625 26.703125 39.890625 
Q 22.75 39.890625 18.8125 39.015625 
Q 14.890625 38.140625 10.796875 36.28125 
z
" id="DejaVuSans-53"/>
       </defs>
       <use xlink:href="#DejaVuSans-8722"/>
       <use x="83.789062" xlink:href="#DejaVuSans-55"/>
       <use x="147.412109" xlink:href="#DejaVuSans-46"/>
       <use x="179.199219" xlink:href="#DejaVuSans-53"/>
      </g>
     </g>
    </g>
    <g id="xtick_3">
     <g id="line2d_3">
      <g>
       <use style="stroke:#000000;stroke-width:0.8;" x="137.7" xlink:href="#mf7363eaaa2" y="252"/>
      </g>
     </g>
     <g id="text_3">
      <!-- −5.0 -->
      <g transform="translate(125.558594 266.598437)scale(0.1 -0.1)">
       <use xlink:href="#DejaVuSans-8722"/>
       <use x="83.789062" xlink:href="#DejaVuSans-53"/>
       <use x="147.412109" xlink:href="#DejaVuSans-46"/>
       <use x="179.199219" xlink:href="#DejaVuSans-48"/>
      </g>
     </g>
    </g>
    <g id="xtick_4">
     <g id="line2d_4">
      <g>
       <use style="stroke:#000000;stroke-width:0.8;" x="179.55" xlink:href="#mf7363eaaa2" y="252"/>
      </g>
     </g>
     <g id="text_4">
      <!-- −2.5 -->
      <g transform="translate(167.408594 266.598437)scale(0.1 -0.1)">
       <defs>
        <path d="M 19.1875 8.296875 
L 53.609375 8.296875 
L 53.609375 0 
L 7.328125 0 
L 7.328125 8.296875 
Q 12.9375 14.109375 22.625 23.890625 
Q 32.328125 33.6875 34.8125 36.53125 
Q 39.546875 41.84375 41.421875 45.53125 
Q 43.3125 49.21875 43.3125 52.78125 
Q 43.3125 58.59375 39.234375 62.25 
Q 35.15625 65.921875 28.609375 65.921875 
Q 23.96875 65.921875 18.8125 64.3125 
Q 13.671875 62.703125 7.8125 59.421875 
L 7.8125 69.390625 
Q 13.765625 71.78125 18.9375 73 
Q 24.125 74.21875 28.421875 74.21875 
Q 39.75 74.21875 46.484375 68.546875 
Q 53.21875 62.890625 53.21875 53.421875 
Q 53.21875 48.921875 51.53125 44.890625 
Q 49.859375 40.875 45.40625 35.40625 
Q 44.1875 33.984375 37.640625 27.21875 
Q 31.109375 20.453125 19.1875 8.296875 
z
" id="DejaVuSans-50"/>
       </defs>
       <use xlink:href="#DejaVuSans-8722"/>
       <use x="83.789062" xlink:href="#DejaVuSans-50"/>
       <use x="147.412109" xlink:href="#DejaVuSans-46"/>
       <use x="179.199219" xlink:href="#DejaVuSans-53"/>
      </g>
     </g>
    </g>
    <g id="xtick_5">
     <g id="line2d_5">
      <g>
       <use style="stroke:#000000;stroke-width:0.8;" x="221.4" xlink:href="#mf7363eaaa2" y="252"/>
      </g>
     </g>
     <g id="text_5">
      <!-- 0.0 -->
      <g transform="translate(213.448438 266.598437)scale(0.1 -0.1)">
       <use xlink:href="#DejaVuSans-48"/>
       <use x="63.623047" xlink:href="#DejaVuSans-46"/>
       <use x="95.410156" xlink:href="#DejaVuSans-48"/>
      </g>
     </g>
    </g>
    <g id="xtick_6">
     <g id="line2d_6">
      <g>
       <use style="stroke:#000000;stroke-width:0.8;" x="263.25" xlink:href="#mf7363eaaa2" y="252"/>
      </g>
     </g>
     <g id="text_6">
      <!-- 2.5 -->
      <g transform="translate(255.298438 266.598437)scale(0.1 -0.1)">
       <use xlink:href="#DejaVuSans-50"/>
       <use x="63.623047" xlink:href="#DejaVuSans-46"/>
       <use x="95.410156" xlink:href="#DejaVuSans-53"/>
      </g>
     </g>
    </g>
    <g id="xtick_7">
     <g id="line2d_7">
      <g>
       <use style="stroke:#000000;stroke-width:0.8;" x="305.1" xlink:href="#mf7363eaaa2" y="252"/>
      </g>
     </g>
     <g id="text_7">
      <!-- 5.0 -->
      <g transform="translate(297.148438 266.598437)scale(0.1 -0.1)">
       <use xlink:href="#DejaVuSans-53"/>
       <use x="63.623047" xlink:href="#DejaVuSans-46"/>
       <use x="95.410156" xlink:href="#DejaVuSans-48"/>
      </g>
     </g>
    </g>
    <g id="xtick_8">
     <g id="line2d_8">
      <g>
       <use style="stroke:#000000;stroke-width:0.8;" x="346.95" xlink:href="#mf7363eaaa2" y="252"/>
      </g>
     </g>
     <g id="text_8">
      <!-- 7.5 -->
      <g transform="translate(338.998438 266.598437)scale(0.1 -0.1)">
       <use xlink:href="#DejaVuSans-55"/>
       <use x="63.623047" xlink:href="#DejaVuSans-46"/>
       <use x="95.410156" xlink:href="#DejaVuSans-53"/>
      </g>
     </g>
    </g>
    <g id="xtick_9">
     <g id="line2d_9">
      <g>
       <use style="stroke:#000000;stroke-width:0.8;" x="388.8" xlink:href="#mf7363eaaa2" y="252"/>
      </g>
     </g>
     <g id="text_9">
      <!-- 10.0 -->
      <g transform="translate(377.667188 266.598437)scale(0.1 -0.1)">
       <use xlink:href="#DejaVuSans-49"/>
       <use x="63.623047" xlink:href="#DejaVuSans-48"/>
       <use x="127.246094" xlink:href="#DejaVuSans-46"/>
       <use x="159.033203" xlink:href="#DejaVuSans-48"/>
      </g>
     </g>
    </g>
    <g id="text_10">
     <!-- x -->
     <g transform="translate(218.440625 280.276563)scale(0.1 -0.1)">
      <defs>
       <path d="M 54.890625 54.6875 
L 35.109375 28.078125 
L 55.90625 0 
L 45.3125 0 
L 29.390625 21.484375 
L 13.484375 0 
L 2.875 0 
L 24.125 28.609375 
L 4.6875 54.6875 
L 15.28125 54.6875 
L 29.78125 35.203125 
L 44.28125 54.6875 
z
" id="DejaVuSans-120"/>
      </defs>
      <use xlink:href="#DejaVuSans-120"/>
     </g>
    </g>
   </g>
   <g id="matplotlib.axis_2">
    <g id="ytick_1">
     <g id="line2d_10">
      <defs>
       <path d="M 0 0 
L -3.5 0 
" id="m24e9a1d905" style="stroke:#000000;stroke-width:0.8;"/>
      </defs>
      <g>
       <use style="stroke:#000000;stroke-width:0.8;" x="54" xlink:href="#m24e9a1d905" y="234.706799"/>
      </g>
     </g>
     <g id="text_11">
      <!-- −1.0 -->
      <g transform="translate(22.717187 238.506018)scale(0.1 -0.1)">
       <use xlink:href="#DejaVuSans-8722"/>
       <use x="83.789062" xlink:href="#DejaVuSans-49"/>
       <use x="147.412109" xlink:href="#DejaVuSans-46"/>
       <use x="179.199219" xlink:href="#DejaVuSans-48"/>
      </g>
     </g>
    </g>
    <g id="ytick_2">
     <g id="line2d_11">
      <g>
       <use style="stroke:#000000;stroke-width:0.8;" x="54" xlink:href="#m24e9a1d905" y="195.193021"/>
      </g>
     </g>
     <g id="text_12">
      <!-- −0.5 -->
      <g transform="translate(22.717187 198.99224)scale(0.1 -0.1)">
       <use xlink:href="#DejaVuSans-8722"/>
       <use x="83.789062" xlink:href="#DejaVuSans-48"/>
       <use x="147.412109" xlink:href="#DejaVuSans-46"/>
       <use x="179.199219" xlink:href="#DejaVuSans-53"/>
      </g>
     </g>
    </g>
    <g id="ytick_3">
     <g id="line2d_12">
      <g>
       <use style="stroke:#000000;stroke-width:0.8;" x="54" xlink:href="#m24e9a1d905" y="155.679244"/>
      </g>
     </g>
     <g id="text_13">
      <!-- 0.0 -->
      <g transform="translate(31.096875 159.478463)scale(0.1 -0.1)">
       <use xlink:href="#DejaVuSans-48"/>
       <use x="63.623047" xlink:href="#DejaVuSans-46"/>
       <use x="95.410156" xlink:href="#DejaVuSans-48"/>
      </g>
     </g>
    </g>
    <g id="ytick_4">
     <g id="line2d_13">
      <g>
       <use style="stroke:#000000;stroke-width:0.8;" x="54" xlink:href="#m24e9a1d905" y="116.165466"/>
      </g>
     </g>
     <g id="text_14">
      <!-- 0.5 -->
      <g transform="translate(31.096875 119.964685)scale(0.1 -0.1)">
       <use xlink:href="#DejaVuSans-48"/>
       <use x="63.623047" xlink:href="#DejaVuSans-46"/>
       <use x="95.410156" xlink:href="#DejaVuSans-53"/>
      </g>
     </g>
    </g>
    <g id="ytick_5">
     <g id="line2d_14">
      <g>
       <use style="stroke:#000000;stroke-width:0.8;" x="54" xlink:href="#m24e9a1d905" y="76.651689"/>
      </g>
     </g>
     <g id="text_15">
      <!-- 1.0 -->
      <g transform="translate(31.096875 80.450908)scale(0.1 -0.1)">
       <use xlink:href="#DejaVuSans-49"/>
       <use x="63.623047" xlink:href="#DejaVuSans-46"/>
       <use x="95.410156" xlink:href="#DejaVuSans-48"/>
      </g>
     </g>
    </g>
    <g id="ytick_6">
     <g id="line2d_15">
      <g>
       <use style="stroke:#000000;stroke-width:0.8;" x="54" xlink:href="#m24e9a1d905" y="37.137911"/>
      </g>
     </g>
     <g id="text_16">
      <!-- 1.5 -->
      <g transform="translate(31.096875 40.93713)scale(0.1 -0.1)">
       <use xlink:href="#DejaVuSans-49"/>
       <use x="63.623047" xlink:href="#DejaVuSans-46"/>
       <use x="95.410156" xlink:href="#DejaVuSans-53"/>
      </g>
     </g>
    </g>
    <g id="text_17">
     <!-- 1e−1 -->
     <g transform="translate(54 31.56)scale(0.1 -0.1)">
      <defs>
       <path d="M 56.203125 29.59375 
L 56.203125 25.203125 
L 14.890625 25.203125 
Q 15.484375 15.921875 20.484375 11.0625 
Q 25.484375 6.203125 34.421875 6.203125 
Q 39.59375 6.203125 44.453125 7.46875 
Q 49.3125 8.734375 54.109375 11.28125 
L 54.109375 2.78125 
Q 49.265625 0.734375 44.1875 -0.34375 
Q 39.109375 -1.421875 33.890625 -1.421875 
Q 20.796875 -1.421875 13.15625 6.1875 
Q 5.515625 13.8125 5.515625 26.8125 
Q 5.515625 40.234375 12.765625 48.109375 
Q 20.015625 56 32.328125 56 
Q 43.359375 56 49.78125 48.890625 
Q 56.203125 41.796875 56.203125 29.59375 
z
M 47.21875 32.234375 
Q 47.125 39.59375 43.09375 43.984375 
Q 39.0625 48.390625 32.421875 48.390625 
Q 24.90625 48.390625 20.390625 44.140625 
Q 15.875 39.890625 15.1875 32.171875 
z
" id="DejaVuSans-101"/>
      </defs>
      <use xlink:href="#DejaVuSans-49"/>
      <use x="63.623047" xlink:href="#DejaVuSans-101"/>
      <use x="125.146484" xlink:href="#DejaVuSans-8722"/>
      <use x="208.935547" xlink:href="#DejaVuSans-49"/>
     </g>
    </g>
   </g>
   <g id="line2d_16">
    <path clip-path="url(#p915b17386f)" d="M -1 155.668225 
L 5.454 155.551791 
L 8.802 155.267569 
L 10.476 154.961984 
L 12.15 154.456225 
L 13.824 153.639841 
L 15.498 152.356266 
L 17.172 150.393533 
L 18.846 147.479996 
L 20.52 143.290801 
L 22.194 137.472746 
L 23.868 129.695999 
L 25.542 119.739723 
L 27.216 107.613334 
L 30.564 78.929239 
L 32.238 64.838369 
L 33.912 53.619686 
L 35.586 47.92424 
L 37.26 50.463171 
L 38.934 63.367759 
L 40.608 87.388297 
L 42.282 121.114183 
L 45.63 198.986266 
L 47.304 228.554981 
L 48.978 241.586874 
L 50.652 233.346505 
L 52.326 204.282143 
L 55.674 116.414342 
L 57.348 84.524129 
L 59.022 77.404272 
L 60.696 99.059692 
L 62.37 142.622223 
L 64.044 191.486136 
L 65.718 225.135058 
L 67.392 227.972137 
L 69.066 197.401394 
L 70.74 146.786585 
L 72.414 100.604925 
L 74.088 82.864629 
L 75.762 104.015913 
L 79.11 204.460898 
L 80.784 226.669268 
L 82.458 206.076487 
L 85.806 103.341775 
L 87.48 86.57277 
L 89.154 116.002673 
L 90.828 172.587926 
L 92.502 217.335109 
L 94.176 217.960262 
L 95.85 173.063116 
L 97.524 115.197291 
L 99.198 88.134908 
L 100.872 113.461119 
L 102.546 172.144617 
L 104.22 217.583077 
L 105.894 212.352147 
L 107.568 159.945675 
L 109.242 103.929299 
L 110.916 92.39809 
L 112.59 136.106128 
L 114.264 197.156295 
L 115.938 220.921999 
L 117.612 185.211236 
L 119.286 122.209435 
L 120.96 90.549356 
L 122.634 120.666136 
L 124.308 184.410129 
L 125.982 220.224312 
L 127.656 192.550821 
L 129.33 128.193141 
L 131.004 91.48697 
L 132.678 120.059063 
L 134.352 185.23509 
L 136.026 219.728669 
L 137.7 187.071696 
L 139.374 121.185254 
L 141.048 92.152807 
L 142.722 131.609347 
L 144.396 197.244733 
L 146.07 217.286195 
L 147.744 169.189272 
L 149.418 106.029778 
L 151.092 98.657312 
L 154.44 212.839687 
L 156.114 204.189205 
L 157.788 139.440936 
L 159.462 93.595972 
L 161.136 120.488874 
L 162.81 188.868327 
L 164.484 217.884936 
L 166.158 172.695266 
L 167.832 107.092872 
L 169.506 100.091364 
L 171.18 160.485591 
L 172.854 215.023198 
L 174.528 196.899013 
L 176.202 128.069655 
L 177.876 93.355193 
L 179.55 135.97975 
L 181.224 203.150227 
L 182.898 210.938403 
L 184.572 149.342191 
L 186.246 95.731413 
L 187.92 117.919737 
L 189.594 188.006669 
L 191.268 216.959609 
L 192.942 167.711578 
L 194.616 103.066758 
L 196.29 105.919434 
L 197.964 172.764112 
L 199.638 217.587797 
L 201.312 182.449295 
L 202.986 112.667193 
L 204.66 98.646677 
L 208.008 214.81386 
L 209.682 193.943518 
L 211.356 123.191189 
L 213.03 94.833101 
L 214.704 145.941159 
L 216.378 209.776093 
L 218.052 202.873022 
L 219.726 134.234926 
L 221.4 93.654959 
L 223.074 134.234873 
L 224.748 202.872985 
L 226.422 209.77612 
L 228.096 145.941215 
L 229.77 94.833112 
L 231.444 123.191141 
L 233.118 193.943474 
L 234.792 214.813877 
L 236.466 158.684021 
L 238.14 98.646699 
L 239.814 112.667152 
L 241.488 182.449244 
L 243.162 217.587802 
L 244.836 172.764166 
L 246.51 105.919468 
L 248.184 103.066728 
L 249.858 167.711523 
L 251.532 216.959599 
L 253.206 188.006717 
L 254.88 117.919782 
L 256.554 95.731397 
L 258.228 149.342135 
L 259.902 210.938377 
L 261.576 203.150264 
L 263.25 135.979804 
L 264.924 93.355197 
L 266.598 128.069604 
L 268.272 196.898971 
L 269.946 215.023216 
L 271.62 160.485647 
L 273.294 100.09139 
L 274.968 107.092836 
L 276.642 172.695211 
L 278.316 217.884928 
L 279.99 188.868375 
L 281.664 120.488921 
L 283.338 93.595963 
L 285.012 139.44088 
L 286.686 204.189168 
L 288.36 212.839711 
L 291.708 98.657337 
L 293.382 106.029742 
L 295.056 169.189216 
L 296.73 217.286181 
L 298.404 197.244776 
L 300.078 131.6094 
L 301.752 92.152812 
L 303.426 121.185205 
L 305.1 187.071646 
L 306.774 219.72867 
L 308.448 185.235141 
L 310.122 120.059112 
L 311.796 91.486966 
L 313.47 128.193088 
L 315.144 192.550772 
L 316.818 220.224317 
L 318.492 184.410182 
L 320.166 120.666186 
L 321.84 90.549355 
L 323.514 122.209384 
L 325.188 185.211183 
L 326.862 220.921992 
L 328.536 197.156342 
L 330.21 136.106186 
L 331.884 92.398108 
L 333.558 103.929262 
L 336.906 212.352115 
L 338.58 217.5831 
L 340.254 172.144676 
L 341.928 113.461161 
L 343.602 88.1349 
L 345.276 115.19724 
L 346.95 173.063047 
L 348.624 217.960227 
L 350.298 217.335115 
L 351.972 172.587969 
L 353.646 116.002723 
L 355.32 86.57278 
L 356.994 103.34174 
L 360.342 206.076465 
L 362.016 226.66928 
L 363.69 204.460958 
L 367.038 104.015959 
L 368.712 82.864622 
L 370.386 100.60487 
L 372.06 146.786492 
L 373.734 197.40131 
L 375.408 227.972091 
L 377.082 225.13507 
L 378.756 191.486201 
L 380.43 142.622335 
L 382.104 99.059806 
L 383.778 77.404362 
L 385.452 84.524137 
L 387.126 116.414287 
L 390.474 204.282009 
L 392.148 233.346373 
L 393.822 241.586802 
L 395.496 228.554961 
L 397.17 198.986347 
L 400.518 121.114401 
L 402.192 87.38852 
L 403.866 63.367978 
L 405.54 50.46333 
L 407.214 47.924323 
L 408.888 53.619754 
L 410.562 64.838417 
L 415.584 107.613355 
L 417.258 119.739742 
L 418.932 129.696018 
L 420.606 137.472767 
L 422.28 143.290814 
L 423.954 147.480003 
L 425.628 150.393539 
L 427.302 152.356269 
L 428.976 153.639843 
L 430.65 154.456226 
L 433 155.085387 
L 433 155.085387 
" style="fill:none;stroke:#1f77b4;stroke-linecap:square;stroke-width:1.5;"/>
   </g>
   <g id="line2d_17">
    <path clip-path="url(#p915b17386f)" d="M -1 155.620729 
L 2.106 155.497639 
L 5.454 155.094718 
L 7.128 154.664841 
L 8.802 153.958929 
L 10.476 152.830435 
L 12.15 151.076665 
L 13.824 148.431612 
L 15.498 144.568049 
L 17.172 139.116538 
L 18.846 131.710399 
L 20.52 122.065053 
L 22.194 110.09574 
L 23.868 96.068011 
L 27.216 65.592579 
L 28.89 52.67285 
L 30.564 44.666028 
L 32.238 44.443636 
L 33.912 54.477709 
L 35.586 76.038169 
L 37.26 108.354262 
L 40.608 188.888248 
L 42.282 222.984368 
L 43.956 242.116364 
L 45.63 240.35353 
L 47.304 216.487155 
L 48.978 175.616176 
L 50.652 128.893535 
L 52.326 90.906658 
L 54 75.022823 
L 55.674 88.077098 
L 57.348 126.556152 
L 59.022 176.413725 
L 60.696 217.536483 
L 62.37 231.852614 
L 64.044 211.933469 
L 65.718 165.850961 
L 67.392 114.999025 
L 69.066 84.662603 
L 70.74 91.140207 
L 72.414 132.029752 
L 74.088 185.794349 
L 75.762 222.357386 
L 77.436 220.035325 
L 79.11 179.295299 
L 80.784 124.213598 
L 82.458 89.037547 
L 84.132 96.771838 
L 85.806 143.187598 
L 87.48 197.859511 
L 89.154 223.455797 
L 90.828 201.558395 
L 92.502 146.986839 
L 94.176 98.882943 
L 95.85 92.961734 
L 97.524 134.319861 
L 99.198 191.943049 
L 100.872 221.157523 
L 102.546 198.449643 
L 104.22 141.404061 
L 105.894 96.152857 
L 107.568 100.314484 
L 109.242 150.970965 
L 110.916 205.515975 
L 112.59 216.931533 
L 114.264 174.786968 
L 115.938 115.829472 
L 117.612 92.697407 
L 119.286 126.693684 
L 120.96 187.18448 
L 122.634 218.346496 
L 124.308 190.736872 
L 125.982 129.999521 
L 127.656 93.941409 
L 129.33 117.571862 
L 131.004 178.305612 
L 132.678 216.658458 
L 134.352 194.397023 
L 136.026 133.401002 
L 137.7 95.018767 
L 139.374 118.480077 
L 141.048 180.085456 
L 142.722 216.335848 
L 144.396 189.302507 
L 146.07 127.012465 
L 147.744 95.135287 
L 149.418 127.76654 
L 151.092 190.262067 
L 152.766 215.358976 
L 154.44 175.640923 
L 156.114 114.182424 
L 157.788 98.391735 
L 159.462 145.905701 
L 161.136 204.211352 
L 162.81 208.248346 
L 166.158 101.084966 
L 167.832 110.82687 
L 169.506 171.624218 
L 171.18 214.117727 
L 172.854 189.446918 
L 174.528 125.85956 
L 176.202 96.863324 
L 177.876 136.253473 
L 179.55 198.26579 
L 181.224 210.371405 
L 184.572 103.128767 
L 186.246 110.1754 
L 187.92 171.150234 
L 189.594 213.692634 
L 191.268 187.074484 
L 192.942 122.969593 
L 194.616 98.070532 
L 196.29 142.317017 
L 197.964 202.606901 
L 199.638 206.327727 
L 201.312 148.916883 
L 202.986 99.706662 
L 204.66 118.28653 
L 206.334 182.196432 
L 208.008 213.894052 
L 209.682 174.831961 
L 211.356 112.479957 
L 213.03 102.740425 
L 216.378 210.037176 
L 218.052 196.257014 
L 219.726 132.965246 
L 221.4 97.397093 
L 223.074 132.965246 
L 224.748 196.257014 
L 226.422 210.037176 
L 229.77 102.740425 
L 231.444 112.479957 
L 233.118 174.831961 
L 234.792 213.894052 
L 236.466 182.196432 
L 238.14 118.28653 
L 239.814 99.706662 
L 241.488 148.916883 
L 243.162 206.327727 
L 244.836 202.606901 
L 246.51 142.317017 
L 248.184 98.070532 
L 249.858 122.969593 
L 251.532 187.074484 
L 253.206 213.692634 
L 254.88 171.150234 
L 256.554 110.1754 
L 258.228 103.128767 
L 261.576 210.371405 
L 263.25 198.26579 
L 264.924 136.253473 
L 266.598 96.863324 
L 268.272 125.85956 
L 269.946 189.446918 
L 271.62 214.117727 
L 273.294 171.624218 
L 274.968 110.82687 
L 276.642 101.084966 
L 279.99 208.248346 
L 281.664 204.211352 
L 283.338 145.905701 
L 285.012 98.391735 
L 286.686 114.182424 
L 288.36 175.640923 
L 290.034 215.358976 
L 291.708 190.262067 
L 293.382 127.76654 
L 295.056 95.135287 
L 296.73 127.012465 
L 298.404 189.302507 
L 300.078 216.335848 
L 301.752 180.085456 
L 303.426 118.480077 
L 305.1 95.018767 
L 306.774 133.401002 
L 308.448 194.397023 
L 310.122 216.658458 
L 311.796 178.305612 
L 313.47 117.571862 
L 315.144 93.941409 
L 316.818 129.999521 
L 318.492 190.736872 
L 320.166 218.346496 
L 321.84 187.18448 
L 323.514 126.693684 
L 325.188 92.697407 
L 326.862 115.829472 
L 328.536 174.786968 
L 330.21 216.931533 
L 331.884 205.515975 
L 333.558 150.970965 
L 335.232 100.314484 
L 336.906 96.152857 
L 338.58 141.404061 
L 340.254 198.449643 
L 341.928 221.157523 
L 343.602 191.943049 
L 345.276 134.319861 
L 346.95 92.961734 
L 348.624 98.882943 
L 350.298 146.986839 
L 351.972 201.558395 
L 353.646 223.455797 
L 355.32 197.859511 
L 356.994 143.187598 
L 358.668 96.771838 
L 360.342 89.037547 
L 362.016 124.213598 
L 363.69 179.295299 
L 365.364 220.035325 
L 367.038 222.357386 
L 368.712 185.794349 
L 370.386 132.029752 
L 372.06 91.140207 
L 373.734 84.662603 
L 375.408 114.999025 
L 377.082 165.850961 
L 378.756 211.933469 
L 380.43 231.852614 
L 382.104 217.536483 
L 383.778 176.413725 
L 385.452 126.556152 
L 387.126 88.077098 
L 388.8 75.022823 
L 390.474 90.906658 
L 392.148 128.893535 
L 393.822 175.616176 
L 395.496 216.487155 
L 397.17 240.35353 
L 398.844 242.116364 
L 400.518 222.984368 
L 402.192 188.888248 
L 405.54 108.354262 
L 407.214 76.038169 
L 408.888 54.477709 
L 410.562 44.443636 
L 412.236 44.666028 
L 413.91 52.67285 
L 415.584 65.592579 
L 420.606 110.09574 
L 422.28 122.065053 
L 423.954 131.710399 
L 425.628 139.116538 
L 427.302 144.568049 
L 428.976 148.431612 
L 430.65 151.076665 
L 432.324 152.830435 
L 433 153.286147 
L 433 153.286147 
" style="fill:none;stroke:#ff7f0e;stroke-linecap:square;stroke-width:1.5;"/>
   </g>
   <g id="patch_3">
    <path d="M 54 252 
L 54 34.56 
" style="fill:none;stroke:#000000;stroke-linecap:square;stroke-linejoin:miter;stroke-width:0.8;"/>
   </g>
   <g id="patch_4">
    <path d="M 388.8 252 
L 388.8 34.56 
" style="fill:none;stroke:#000000;stroke-linecap:square;stroke-linejoin:miter;stroke-width:0.8;"/>
   </g>
   <g id="patch_5">
    <path d="M 54 252 
L 388.8 252 
" style="fill:none;stroke:#000000;stroke-linecap:square;stroke-linejoin:miter;stroke-width:0.8;"/>
   </g>
   <g id="patch_6">
    <path d="M 54 34.56 
L 388.8 34.56 
" style="fill:none;stroke:#000000;stroke-linecap:square;stroke-linejoin:miter;stroke-width:0.8;"/>
   </g>
   <g id="text_18">
    <!-- N=500, L=50 -->
    <g transform="translate(180.61125 28.56)scale(0.12 -0.12)">
     <defs>
      <path d="M 9.8125 72.90625 
L 23.09375 72.90625 
L 55.421875 11.921875 
L 55.421875 72.90625 
L 64.984375 72.90625 
L 64.984375 0 
L 51.703125 0 
L 19.390625 60.984375 
L 19.390625 0 
L 9.8125 0 
z
" id="DejaVuSans-78"/>
      <path d="M 10.59375 45.40625 
L 73.1875 45.40625 
L 73.1875 37.203125 
L 10.59375 37.203125 
z
M 10.59375 25.484375 
L 73.1875 25.484375 
L 73.1875 17.1875 
L 10.59375 17.1875 
z
" id="DejaVuSans-61"/>
      <path d="M 11.71875 12.40625 
L 22.015625 12.40625 
L 22.015625 4 
L 14.015625 -11.625 
L 7.71875 -11.625 
L 11.71875 4 
z
" id="DejaVuSans-44"/>
      <path id="DejaVuSans-32"/>
      <path d="M 9.8125 72.90625 
L 19.671875 72.90625 
L 19.671875 8.296875 
L 55.171875 8.296875 
L 55.171875 0 
L 9.8125 0 
z
" id="DejaVuSans-76"/>
     </defs>
     <use xlink:href="#DejaVuSans-78"/>
     <use x="74.804688" xlink:href="#DejaVuSans-61"/>
     <use x="158.59375" xlink:href="#DejaVuSans-53"/>
     <use x="222.216797" xlink:href="#DejaVuSans-48"/>
     <use x="285.839844" xlink:href="#DejaVuSans-48"/>
     <use x="349.462891" xlink:href="#DejaVuSans-44"/>
     <use x="381.25" xlink:href="#DejaVuSans-32"/>
     <use x="413.037109" xlink:href="#DejaVuSans-76"/>
     <use x="468.75" xlink:href="#DejaVuSans-61"/>
     <use x="552.539062" xlink:href="#DejaVuSans-53"/>
     <use x="616.162109" xlink:href="#DejaVuSans-48"/>
    </g>
   </g>
   <g id="legend_1">
    <g id="patch_7">
     <path d="M 187.92 84.72 
L 254.88 84.72 
Q 257.28 84.72 257.28 82.32 
L 257.28 42.96 
Q 257.28 40.56 254.88 40.56 
L 187.92 40.56 
Q 185.52 40.56 185.52 42.96 
L 185.52 82.32 
Q 185.52 84.72 187.92 84.72 
z
" style="fill:#ffffff;opacity:0.8;stroke:#cccccc;stroke-linejoin:miter;"/>
    </g>
    <g id="line2d_18">
     <path d="M 190.32 51.96 
L 214.32 51.96 
" style="fill:none;stroke:#1f77b4;stroke-linecap:square;stroke-width:1.5;"/>
    </g>
    <g id="line2d_19"/>
    <g id="text_19">
     <!-- $\psi^{NUM}_{68}$ -->
     <g transform="translate(223.92 56.16)scale(0.12 -0.12)">
      <defs>
       <path d="M 24.859375 -1.21875 
Q 13.921875 0.59375 9.625 5.328125 
Q 4.34375 11.140625 6.640625 23 
L 12.796875 54.6875 
L 21.875 54.6875 
L 15.765625 23.34375 
Q 14.0625 14.40625 17.484375 10.6875 
Q 20.515625 7.46875 26.421875 6.78125 
L 35.6875 54.6875 
L 44.625 54.6875 
L 35.359375 6.84375 
Q 41.890625 7.515625 45.75 10.75 
Q 50.734375 14.84375 52.390625 23.390625 
L 58.453125 54.6875 
L 67.53125 54.6875 
L 61.375 23.046875 
Q 58.984375 10.75 51.5625 5.375 
Q 44.875 0.53125 33.796875 -1.171875 
L 29.984375 -20.796875 
L 21.046875 -20.796875 
z
" id="DejaVuSans-Oblique-968"/>
       <path d="M 16.890625 72.90625 
L 30.171875 72.90625 
L 50.296875 10.40625 
L 62.5 72.90625 
L 72.125 72.90625 
L 57.90625 0 
L 44.578125 0 
L 24.515625 62.890625 
L 12.3125 0 
L 2.6875 0 
z
" id="DejaVuSans-Oblique-78"/>
       <path d="M 15.484375 72.90625 
L 25.390625 72.90625 
L 16.796875 28.609375 
Q 16.265625 25.640625 16.046875 23.703125 
Q 15.828125 21.78125 15.828125 20.3125 
Q 15.828125 13.578125 19.578125 10.078125 
Q 23.34375 6.59375 30.609375 6.59375 
Q 40.046875 6.59375 45.28125 11.765625 
Q 50.53125 16.9375 52.78125 28.609375 
L 61.375 72.90625 
L 71.296875 72.90625 
L 62.5 27.390625 
Q 59.625 12.640625 51.5625 5.609375 
Q 43.5 -1.421875 29.5 -1.421875 
Q 18.5625 -1.421875 12.1875 4.078125 
Q 5.8125 9.578125 5.8125 19 
Q 5.8125 20.703125 6.046875 22.828125 
Q 6.296875 24.953125 6.78125 27.390625 
z
" id="DejaVuSans-Oblique-85"/>
       <path d="M 16.890625 72.90625 
L 31.6875 72.90625 
L 40.1875 23.78125 
L 68.40625 72.90625 
L 83.59375 72.90625 
L 69.390625 0 
L 59.8125 0 
L 72.21875 63.921875 
L 43.609375 14.015625 
L 33.984375 14.015625 
L 24.703125 64.109375 
L 12.3125 0 
L 2.6875 0 
z
" id="DejaVuSans-Oblique-77"/>
       <path d="M 33.015625 40.375 
Q 26.375 40.375 22.484375 35.828125 
Q 18.609375 31.296875 18.609375 23.390625 
Q 18.609375 15.53125 22.484375 10.953125 
Q 26.375 6.390625 33.015625 6.390625 
Q 39.65625 6.390625 43.53125 10.953125 
Q 47.40625 15.53125 47.40625 23.390625 
Q 47.40625 31.296875 43.53125 35.828125 
Q 39.65625 40.375 33.015625 40.375 
z
M 52.59375 71.296875 
L 52.59375 62.3125 
Q 48.875 64.0625 45.09375 64.984375 
Q 41.3125 65.921875 37.59375 65.921875 
Q 27.828125 65.921875 22.671875 59.328125 
Q 17.53125 52.734375 16.796875 39.40625 
Q 19.671875 43.65625 24.015625 45.921875 
Q 28.375 48.1875 33.59375 48.1875 
Q 44.578125 48.1875 50.953125 41.515625 
Q 57.328125 34.859375 57.328125 23.390625 
Q 57.328125 12.15625 50.6875 5.359375 
Q 44.046875 -1.421875 33.015625 -1.421875 
Q 20.359375 -1.421875 13.671875 8.265625 
Q 6.984375 17.96875 6.984375 36.375 
Q 6.984375 53.65625 15.1875 63.9375 
Q 23.390625 74.21875 37.203125 74.21875 
Q 40.921875 74.21875 44.703125 73.484375 
Q 48.484375 72.75 52.59375 71.296875 
z
" id="DejaVuSans-54"/>
       <path d="M 31.78125 34.625 
Q 24.75 34.625 20.71875 30.859375 
Q 16.703125 27.09375 16.703125 20.515625 
Q 16.703125 13.921875 20.71875 10.15625 
Q 24.75 6.390625 31.78125 6.390625 
Q 38.8125 6.390625 42.859375 10.171875 
Q 46.921875 13.96875 46.921875 20.515625 
Q 46.921875 27.09375 42.890625 30.859375 
Q 38.875 34.625 31.78125 34.625 
z
M 21.921875 38.8125 
Q 15.578125 40.375 12.03125 44.71875 
Q 8.5 49.078125 8.5 55.328125 
Q 8.5 64.0625 14.71875 69.140625 
Q 20.953125 74.21875 31.78125 74.21875 
Q 42.671875 74.21875 48.875 69.140625 
Q 55.078125 64.0625 55.078125 55.328125 
Q 55.078125 49.078125 51.53125 44.71875 
Q 48 40.375 41.703125 38.8125 
Q 48.828125 37.15625 52.796875 32.3125 
Q 56.78125 27.484375 56.78125 20.515625 
Q 56.78125 9.90625 50.3125 4.234375 
Q 43.84375 -1.421875 31.78125 -1.421875 
Q 19.734375 -1.421875 13.25 4.234375 
Q 6.78125 9.90625 6.78125 20.515625 
Q 6.78125 27.484375 10.78125 32.3125 
Q 14.796875 37.15625 21.921875 38.8125 
z
M 18.3125 54.390625 
Q 18.3125 48.734375 21.84375 45.5625 
Q 25.390625 42.390625 31.78125 42.390625 
Q 38.140625 42.390625 41.71875 45.5625 
Q 45.3125 48.734375 45.3125 54.390625 
Q 45.3125 60.0625 41.71875 63.234375 
Q 38.140625 66.40625 31.78125 66.40625 
Q 25.390625 66.40625 21.84375 63.234375 
Q 18.3125 60.0625 18.3125 54.390625 
z
" id="DejaVuSans-56"/>
      </defs>
      <use transform="translate(0 0.684375)" xlink:href="#DejaVuSans-Oblique-968"/>
      <use transform="translate(70.432943 38.965625)scale(0.7)" xlink:href="#DejaVuSans-Oblique-78"/>
      <use transform="translate(122.796224 38.965625)scale(0.7)" xlink:href="#DejaVuSans-Oblique-85"/>
      <use transform="translate(174.031576 38.965625)scale(0.7)" xlink:href="#DejaVuSans-Oblique-77"/>
      <use transform="translate(65.966797 -26.659375)scale(0.7)" xlink:href="#DejaVuSans-54"/>
      <use transform="translate(110.50293 -26.659375)scale(0.7)" xlink:href="#DejaVuSans-56"/>
     </g>
    </g>
    <g id="line2d_20">
     <path d="M 190.32 72.24 
L 214.32 72.24 
" style="fill:none;stroke:#ff7f0e;stroke-linecap:square;stroke-width:1.5;"/>
    </g>
    <g id="line2d_21"/>
    <g id="text_20">
     <!-- $\psi^{TH}_{68}$ -->
     <g transform="translate(223.92 76.44)scale(0.12 -0.12)">
      <defs>
       <path d="M 5.90625 72.90625 
L 67.578125 72.90625 
L 66.015625 64.59375 
L 39.984375 64.59375 
L 27.484375 0 
L 17.578125 0 
L 30.078125 64.59375 
L 4.296875 64.59375 
z
" id="DejaVuSans-Oblique-84"/>
       <path d="M 16.890625 72.90625 
L 26.8125 72.90625 
L 21 43.015625 
L 56.78125 43.015625 
L 62.59375 72.90625 
L 72.515625 72.90625 
L 58.296875 0 
L 48.390625 0 
L 55.171875 34.71875 
L 19.390625 34.71875 
L 12.59375 0 
L 2.6875 0 
z
" id="DejaVuSans-Oblique-72"/>
      </defs>
      <use transform="translate(0 0.684375)" xlink:href="#DejaVuSans-Oblique-968"/>
      <use transform="translate(70.432943 38.965625)scale(0.7)" xlink:href="#DejaVuSans-Oblique-84"/>
      <use transform="translate(113.191732 38.965625)scale(0.7)" xlink:href="#DejaVuSans-Oblique-72"/>
      <use transform="translate(65.966797 -26.659375)scale(0.7)" xlink:href="#DejaVuSans-54"/>
      <use transform="translate(110.50293 -26.659375)scale(0.7)" xlink:href="#DejaVuSans-56"/>
     </g>
    </g>
   </g>
  </g>
 </g>
 <defs>
  <clipPath id="p915b17386f">
   <rect height="217.44" width="334.8" x="54" y="34.56"/>
  </clipPath>
 </defs>
</svg>
