<?xml version="1.0" encoding="utf-8" standalone="no"?>
<!DOCTYPE svg PUBLIC "-//W3C//DTD SVG 1.1//EN"
  "http://www.w3.org/Graphics/SVG/1.1/DTD/svg11.dtd">
<!-- Created with matplotlib (https://matplotlib.org/) -->
<svg height="216pt" version="1.1" viewBox="0 0 432 216" width="432pt" xmlns="http://www.w3.org/2000/svg" xmlns:xlink="http://www.w3.org/1999/xlink">
 <metadata>
  <rdf:RDF xmlns:cc="http://creativecommons.org/ns#" xmlns:dc="http://purl.org/dc/elements/1.1/" xmlns:rdf="http://www.w3.org/1999/02/22-rdf-syntax-ns#">
   <cc:Work>
    <dc:type rdf:resource="http://purl.org/dc/dcmitype/StillImage"/>
    <dc:date>2021-11-28T14:27:54.867135</dc:date>
    <dc:format>image/svg+xml</dc:format>
    <dc:creator>
     <cc:Agent>
      <dc:title>Matplotlib v3.3.4, https://matplotlib.org/</dc:title>
     </cc:Agent>
    </dc:creator>
   </cc:Work>
  </rdf:RDF>
 </metadata>
 <defs>
  <style type="text/css">*{stroke-linecap:butt;stroke-linejoin:round;}</style>
 </defs>
 <g id="figure_1">
  <g id="patch_1">
   <path d="M 0 216 
L 432 216 
L 432 0 
L 0 0 
z
" style="fill:none;"/>
  </g>
  <g id="axes_1">
   <g id="patch_2">
    <path d="M 54 189 
L 388.8 189 
L 388.8 25.92 
L 54 25.92 
z
" style="fill:#ffffff;"/>
   </g>
   <g id="PolyCollection_1">
    <defs>
     <path d="M 69.218182 -34.412727 
L 69.218182 -69.846371 
L 69.52285 -69.846372 
L 69.827518 -69.846376 
L 70.132187 -69.846387 
L 70.436855 -69.846406 
L 70.741523 -69.846435 
L 71.046192 -69.846477 
L 71.35086 -69.846535 
L 71.655528 -69.84661 
L 71.960197 -69.846706 
L 72.264865 -69.846824 
L 72.569533 -69.846966 
L 72.874201 -69.847136 
L 73.17887 -69.847335 
L 73.483538 -69.847567 
L 73.788206 -69.847832 
L 74.092875 -69.848134 
L 74.397543 -69.848476 
L 74.702211 -69.848858 
L 75.00688 -69.849284 
L 75.311548 -69.849757 
L 75.616216 -69.850277 
L 75.920885 -69.850849 
L 76.225553 -69.851473 
L 76.530221 -69.852153 
L 76.834889 -69.852891 
L 77.139558 -69.853689 
L 77.444226 -69.85455 
L 77.748894 -69.855475 
L 78.053563 -69.856468 
L 78.358231 -69.85753 
L 78.662899 -69.858664 
L 78.967568 -69.859872 
L 79.272236 -69.861157 
L 79.576904 -69.862521 
L 79.881572 -69.863966 
L 80.186241 -69.865494 
L 80.490909 -69.867109 
L 80.795577 -69.868812 
L 81.100246 -69.870605 
L 81.404914 -69.872491 
L 81.709582 -69.874473 
L 82.014251 -69.876552 
L 82.318919 -69.87873 
L 82.623587 -69.881011 
L 82.928256 -69.883397 
L 83.232924 -69.885889 
L 83.537592 -69.88849 
L 83.84226 -69.891203 
L 84.146929 -69.894029 
L 84.451597 -69.896971 
L 84.756265 -69.900032 
L 85.060934 -69.903213 
L 85.365602 -69.906517 
L 85.67027 -69.909946 
L 85.974939 -69.913502 
L 86.279607 -69.917189 
L 86.584275 -69.921007 
L 86.888943 -69.924959 
L 87.193612 -69.929048 
L 87.49828 -69.933276 
L 87.802948 -69.937645 
L 88.107617 -69.942157 
L 88.412285 -69.946815 
L 88.716953 -69.95162 
L 89.021622 -69.956576 
L 89.32629 -69.961683 
L 89.630958 -69.966946 
L 89.935627 -69.972365 
L 90.240295 -69.977943 
L 90.544963 -69.983683 
L 90.849631 -69.989585 
L 91.1543 -69.995654 
L 91.458968 -70.001891 
L 91.763636 -70.008297 
L 92.068305 -70.014876 
L 92.372973 -70.021629 
L 92.677641 -70.02856 
L 92.98231 -70.035669 
L 93.286978 -70.042959 
L 93.591646 -70.050433 
L 93.896314 -70.058092 
L 94.200983 -70.065938 
L 94.505651 -70.073975 
L 94.810319 -70.082203 
L 95.114988 -70.090626 
L 95.419656 -70.099245 
L 95.724324 -70.108062 
L 96.028993 -70.11708 
L 96.333661 -70.126301 
L 96.638329 -70.135727 
L 96.942998 -70.145359 
L 97.247666 -70.155201 
L 97.552334 -70.165254 
L 97.857002 -70.175521 
L 98.161671 -70.186003 
L 98.466339 -70.196703 
L 98.771007 -70.207622 
L 99.075676 -70.218763 
L 99.380344 -70.230129 
L 99.685012 -70.24172 
L 99.989681 -70.253539 
L 100.294349 -70.265588 
L 100.599017 -70.27787 
L 100.903686 -70.290385 
L 101.208354 -70.303137 
L 101.513022 -70.316128 
L 101.81769 -70.329359 
L 102.122359 -70.342832 
L 102.427027 -70.35655 
L 102.731695 -70.370514 
L 103.036364 -70.384727 
L 103.341032 -70.39919 
L 103.6457 -70.413906 
L 103.950369 -70.428876 
L 104.255037 -70.444103 
L 104.559705 -70.459589 
L 104.864373 -70.475335 
L 105.169042 -70.491343 
L 105.47371 -70.507616 
L 105.778378 -70.524155 
L 106.083047 -70.540963 
L 106.387715 -70.558041 
L 106.692383 -70.575391 
L 106.997052 -70.593016 
L 107.30172 -70.610916 
L 107.606388 -70.629095 
L 107.911057 -70.647554 
L 108.215725 -70.666294 
L 108.520393 -70.685318 
L 108.825061 -70.704628 
L 109.12973 -70.724225 
L 109.434398 -70.744112 
L 109.739066 -70.76429 
L 110.043735 -70.784761 
L 110.348403 -70.805527 
L 110.653071 -70.82659 
L 110.95774 -70.847952 
L 111.262408 -70.869614 
L 111.567076 -70.891579 
L 111.871744 -70.913848 
L 112.176413 -70.936423 
L 112.481081 -70.959305 
L 112.785749 -70.982497 
L 113.090418 -71.006001 
L 113.395086 -71.029817 
L 113.699754 -71.053949 
L 114.004423 -71.078397 
L 114.309091 -71.103164 
L 114.613759 -71.128251 
L 114.918428 -71.15366 
L 115.223096 -71.179392 
L 115.527764 -71.20545 
L 115.832432 -71.231836 
L 116.137101 -71.258549 
L 116.441769 -71.285594 
L 116.746437 -71.31297 
L 117.051106 -71.340681 
L 117.355774 -71.368727 
L 117.660442 -71.39711 
L 117.965111 -71.425833 
L 118.269779 -71.454895 
L 118.574447 -71.4843 
L 118.879115 -71.514049 
L 119.183784 -71.544143 
L 119.488452 -71.574585 
L 119.79312 -71.605375 
L 120.097789 -71.636515 
L 120.402457 -71.668007 
L 120.707125 -71.699853 
L 121.011794 -71.732053 
L 121.316462 -71.76461 
L 121.62113 -71.797526 
L 121.925799 -71.8308 
L 122.230467 -71.864437 
L 122.535135 -71.898435 
L 122.839803 -71.932799 
L 123.144472 -71.967528 
L 123.44914 -72.002624 
L 123.753808 -72.038089 
L 124.058477 -72.073924 
L 124.363145 -72.110131 
L 124.667813 -72.146711 
L 124.972482 -72.183665 
L 125.27715 -72.220996 
L 125.581818 -72.258704 
L 125.886486 -72.296791 
L 126.191155 -72.335259 
L 126.495823 -72.374108 
L 126.800491 -72.413341 
L 127.10516 -72.452958 
L 127.409828 -72.492961 
L 127.714496 -72.533351 
L 128.019165 -72.574129 
L 128.323833 -72.615298 
L 128.628501 -72.656858 
L 128.93317 -72.698811 
L 129.237838 -72.741158 
L 129.542506 -72.7839 
L 129.847174 -72.827039 
L 130.151843 -72.870575 
L 130.456511 -72.914511 
L 130.761179 -72.958847 
L 131.065848 -73.003584 
L 131.370516 -73.048725 
L 131.675184 -73.09427 
L 131.979853 -73.14022 
L 132.284521 -73.186577 
L 132.589189 -73.233342 
L 132.893857 -73.280516 
L 133.198526 -73.3281 
L 133.503194 -73.376095 
L 133.807862 -73.424503 
L 134.112531 -73.473324 
L 134.417199 -73.522561 
L 134.721867 -73.572213 
L 135.026536 -73.622283 
L 135.331204 -73.672771 
L 135.635872 -73.723678 
L 135.940541 -73.775006 
L 136.245209 -73.826755 
L 136.549877 -73.878927 
L 136.854545 -73.931523 
L 137.159214 -73.984543 
L 137.463882 -74.037989 
L 137.76855 -74.091862 
L 138.073219 -74.146162 
L 138.377887 -74.200892 
L 138.682555 -74.256051 
L 138.987224 -74.311641 
L 139.291892 -74.367663 
L 139.59656 -74.424118 
L 139.901229 -74.481006 
L 140.205897 -74.538329 
L 140.510565 -74.596088 
L 140.815233 -74.654283 
L 141.119902 -74.712916 
L 141.42457 -74.771987 
L 141.729238 -74.831497 
L 142.033907 -74.891447 
L 142.338575 -74.951839 
L 142.643243 -75.012672 
L 142.947912 -75.073948 
L 143.25258 -75.135667 
L 143.557248 -75.197831 
L 143.861916 -75.26044 
L 144.166585 -75.323495 
L 144.471253 -75.386996 
L 144.775921 -75.450945 
L 145.08059 -75.515343 
L 145.385258 -75.580189 
L 145.689926 -75.645486 
L 145.994595 -75.711233 
L 146.299263 -75.777431 
L 146.603931 -75.844081 
L 146.9086 -75.911184 
L 147.213268 -75.97874 
L 147.517936 -76.04675 
L 147.822604 -76.115215 
L 148.127273 -76.184135 
L 148.431941 -76.253512 
L 148.736609 -76.323345 
L 149.041278 -76.393635 
L 149.345946 -76.464383 
L 149.650614 -76.53559 
L 149.955283 -76.607256 
L 150.259951 -76.679381 
L 150.564619 -76.751967 
L 150.869287 -76.825013 
L 151.173956 -76.898521 
L 151.478624 -76.97249 
L 151.783292 -77.046922 
L 152.087961 -77.121817 
L 152.392629 -77.197175 
L 152.697297 -77.272997 
L 153.001966 -77.349283 
L 153.306634 -77.426034 
L 153.611302 -77.50325 
L 153.915971 -77.580932 
L 154.220639 -77.65908 
L 154.525307 -77.737695 
L 154.829975 -77.816776 
L 155.134644 -77.896325 
L 155.439312 -77.976342 
L 155.74398 -78.056826 
L 156.048649 -78.137779 
L 156.353317 -78.2192 
L 156.657985 -78.301091 
L 156.962654 -78.383451 
L 157.267322 -78.466281 
L 157.57199 -78.549581 
L 157.876658 -78.633351 
L 158.181327 -78.717591 
L 158.485995 -78.802303 
L 158.790663 -78.887485 
L 159.095332 -78.973139 
L 159.4 -79.059264 
L 159.704668 -79.145861 
L 160.009337 -79.23293 
L 160.314005 -79.320472 
L 160.618673 -79.408485 
L 160.923342 -79.496971 
L 161.22801 -79.58593 
L 161.532678 -79.675361 
L 161.837346 -79.765265 
L 162.142015 -79.855643 
L 162.446683 -79.946493 
L 162.751351 -80.037817 
L 163.05602 -80.129614 
L 163.360688 -80.221884 
L 163.665356 -80.314628 
L 163.970025 -80.407846 
L 164.274693 -80.501537 
L 164.579361 -80.595701 
L 164.884029 -80.690339 
L 165.188698 -80.785451 
L 165.493366 -80.881036 
L 165.798034 -80.977095 
L 166.102703 -81.073628 
L 166.407371 -81.170634 
L 166.712039 -81.268113 
L 167.016708 -81.366065 
L 167.321376 -81.464491 
L 167.626044 -81.56339 
L 167.930713 -81.662762 
L 168.235381 -81.762608 
L 168.540049 -81.862925 
L 168.844717 -81.963716 
L 169.149386 -82.064979 
L 169.454054 -82.166714 
L 169.758722 -82.268922 
L 170.063391 -82.371602 
L 170.368059 -82.474753 
L 170.672727 -82.578376 
L 170.977396 -82.682471 
L 171.282064 -82.787036 
L 171.586732 -82.892073 
L 171.8914 -82.99758 
L 172.196069 -83.103557 
L 172.500737 -83.210004 
L 172.805405 -83.316922 
L 173.110074 -83.424308 
L 173.414742 -83.532164 
L 173.71941 -83.640489 
L 174.024079 -83.749282 
L 174.328747 -83.858543 
L 174.633415 -83.968273 
L 174.938084 -84.078469 
L 175.242752 -84.189133 
L 175.54742 -84.300263 
L 175.852088 -84.411859 
L 176.156757 -84.523921 
L 176.461425 -84.636448 
L 176.766093 -84.749441 
L 177.070762 -84.862897 
L 177.37543 -84.976818 
L 177.680098 -85.091202 
L 177.984767 -85.206049 
L 178.289435 -85.321359 
L 178.594103 -85.437131 
L 178.898771 -85.553364 
L 179.20344 -85.670058 
L 179.508108 -85.787212 
L 179.812776 -85.904826 
L 180.117445 -86.0229 
L 180.422113 -86.141432 
L 180.726781 -86.260422 
L 181.03145 -86.379869 
L 181.336118 -86.499773 
L 181.640786 -86.620134 
L 181.945455 -86.74095 
L 182.250123 -86.862221 
L 182.554791 -86.983946 
L 182.859459 -87.106125 
L 183.164128 -87.228756 
L 183.468796 -87.35184 
L 183.773464 -87.475375 
L 184.078133 -87.599361 
L 184.382801 -87.723797 
L 184.687469 -87.848682 
L 184.992138 -87.974015 
L 185.296806 -88.099797 
L 185.601474 -88.226025 
L 185.906143 -88.3527 
L 186.210811 -88.47982 
L 186.515479 -88.607384 
L 186.820147 -88.735392 
L 187.124816 -88.863843 
L 187.429484 -88.992736 
L 187.734152 -89.122071 
L 188.038821 -89.251845 
L 188.343489 -89.382059 
L 188.648157 -89.512712 
L 188.952826 -89.643802 
L 189.257494 -89.77533 
L 189.562162 -89.907292 
L 189.86683 -90.03969 
L 190.171499 -90.172522 
L 190.476167 -90.305787 
L 190.780835 -90.439484 
L 191.085504 -90.573612 
L 191.390172 -90.70817 
L 191.69484 -90.843157 
L 191.999509 -90.978572 
L 192.304177 -91.114414 
L 192.608845 -91.250683 
L 192.913514 -91.387376 
L 193.218182 -91.524493 
L 193.52285 -91.662033 
L 193.827518 -91.799995 
L 194.132187 -91.938378 
L 194.436855 -92.07718 
L 194.741523 -92.216401 
L 195.046192 -92.356039 
L 195.35086 -92.496094 
L 195.655528 -92.636564 
L 195.960197 -92.777447 
L 196.264865 -92.918744 
L 196.569533 -93.060452 
L 196.874201 -93.202571 
L 197.17887 -93.345099 
L 197.483538 -93.488035 
L 197.788206 -93.631379 
L 198.092875 -93.775127 
L 198.397543 -93.919281 
L 198.702211 -94.063837 
L 199.00688 -94.208796 
L 199.311548 -94.354155 
L 199.616216 -94.499914 
L 199.920885 -94.646071 
L 200.225553 -94.792625 
L 200.530221 -94.939575 
L 200.834889 -95.086919 
L 201.139558 -95.234656 
L 201.444226 -95.382784 
L 201.748894 -95.531303 
L 202.053563 -95.680211 
L 202.358231 -95.829507 
L 202.662899 -95.979188 
L 202.967568 -96.129255 
L 203.272236 -96.279705 
L 203.576904 -96.430538 
L 203.881572 -96.581751 
L 204.186241 -96.733343 
L 204.490909 -96.885313 
L 204.795577 -97.03766 
L 205.100246 -97.190381 
L 205.404914 -97.343476 
L 205.709582 -97.496943 
L 206.014251 -97.650781 
L 206.318919 -97.804988 
L 206.623587 -97.959563 
L 206.928256 -98.114504 
L 207.232924 -98.269809 
L 207.537592 -98.425477 
L 207.84226 -98.581508 
L 208.146929 -98.737898 
L 208.451597 -98.894646 
L 208.756265 -99.051752 
L 209.060934 -99.209213 
L 209.365602 -99.367028 
L 209.67027 -99.525195 
L 209.974939 -99.683713 
L 210.279607 -99.84258 
L 210.584275 -100.001794 
L 210.888943 -100.161355 
L 211.193612 -100.321259 
L 211.49828 -100.481506 
L 211.802948 -100.642094 
L 212.107617 -100.803022 
L 212.412285 -100.964287 
L 212.716953 -101.125888 
L 213.021622 -101.287823 
L 213.32629 -101.450091 
L 213.630958 -101.61269 
L 213.935627 -101.775619 
L 214.240295 -101.938874 
L 214.544963 -102.102456 
L 214.849631 -102.266362 
L 215.1543 -102.43059 
L 215.458968 -102.595139 
L 215.763636 -102.760006 
L 216.068305 -102.925191 
L 216.372973 -103.090691 
L 216.677641 -103.256505 
L 216.98231 -103.422631 
L 217.286978 -103.589066 
L 217.591646 -103.75581 
L 217.896314 -103.922861 
L 218.200983 -104.090216 
L 218.505651 -104.257873 
L 218.810319 -104.425832 
L 219.114988 -104.59409 
L 219.419656 -104.762646 
L 219.724324 -104.931496 
L 220.028993 -105.100641 
L 220.333661 -105.270077 
L 220.638329 -105.439803 
L 220.942998 -105.609817 
L 221.247666 -105.780117 
L 221.552334 -105.950701 
L 221.857002 -106.121568 
L 222.161671 -106.292715 
L 222.466339 -106.464141 
L 222.771007 -106.635843 
L 223.075676 -106.80782 
L 223.380344 -106.98007 
L 223.685012 -107.152591 
L 223.989681 -107.32538 
L 224.294349 -107.498436 
L 224.599017 -107.671758 
L 224.903686 -107.845342 
L 225.208354 -108.019187 
L 225.513022 -108.193292 
L 225.81769 -108.367653 
L 226.122359 -108.542269 
L 226.427027 -108.717139 
L 226.731695 -108.892259 
L 227.036364 -109.067629 
L 227.341032 -109.243245 
L 227.6457 -109.419107 
L 227.950369 -109.595211 
L 228.255037 -109.771557 
L 228.559705 -109.948141 
L 228.864373 -110.124962 
L 229.169042 -110.302018 
L 229.47371 -110.479307 
L 229.778378 -110.656826 
L 230.083047 -110.834574 
L 230.387715 -111.012549 
L 230.692383 -111.190748 
L 230.997052 -111.369169 
L 231.30172 -111.54781 
L 231.606388 -111.72667 
L 231.911057 -111.905746 
L 232.215725 -112.085035 
L 232.520393 -112.264537 
L 232.825061 -112.444248 
L 233.12973 -112.624166 
L 233.434398 -112.80429 
L 233.739066 -112.984618 
L 234.043735 -113.165146 
L 234.348403 -113.345874 
L 234.653071 -113.526799 
L 234.95774 -113.707918 
L 235.262408 -113.88923 
L 235.567076 -114.070732 
L 235.871744 -114.252422 
L 236.176413 -114.434298 
L 236.481081 -114.616359 
L 236.785749 -114.7986 
L 237.090418 -114.981022 
L 237.395086 -115.16362 
L 237.699754 -115.346394 
L 238.004423 -115.529341 
L 238.309091 -115.712458 
L 238.613759 -115.895744 
L 238.918428 -116.079196 
L 239.223096 -116.262812 
L 239.527764 -116.44659 
L 239.832432 -116.630527 
L 240.137101 -116.814622 
L 240.441769 -116.998872 
L 240.746437 -117.183275 
L 241.051106 -117.367828 
L 241.355774 -117.55253 
L 241.660442 -117.737378 
L 241.965111 -117.92237 
L 242.269779 -118.107504 
L 242.574447 -118.292776 
L 242.879115 -118.478186 
L 243.183784 -118.663731 
L 243.488452 -118.849408 
L 243.79312 -119.035216 
L 244.097789 -119.221152 
L 244.402457 -119.407213 
L 244.707125 -119.593398 
L 245.011794 -119.779703 
L 245.316462 -119.966128 
L 245.62113 -120.15267 
L 245.925799 -120.339325 
L 246.230467 -120.526093 
L 246.535135 -120.71297 
L 246.839803 -120.899954 
L 247.144472 -121.087044 
L 247.44914 -121.274236 
L 247.753808 -121.461529 
L 248.058477 -121.64892 
L 248.363145 -121.836407 
L 248.667813 -122.023987 
L 248.972482 -122.211658 
L 249.27715 -122.399419 
L 249.581818 -122.587265 
L 249.886486 -122.775196 
L 250.191155 -122.963209 
L 250.495823 -123.151301 
L 250.800491 -123.33947 
L 251.10516 -123.527715 
L 251.409828 -123.716031 
L 251.714496 -123.904418 
L 252.019165 -124.092873 
L 252.323833 -124.281393 
L 252.628501 -124.469976 
L 252.93317 -124.65862 
L 253.237838 -124.847323 
L 253.542506 -125.036081 
L 253.847174 -125.224893 
L 254.151843 -125.413757 
L 254.456511 -125.602669 
L 254.761179 -125.791629 
L 255.065848 -125.980632 
L 255.370516 -126.169678 
L 255.675184 -126.358763 
L 255.979853 -126.547885 
L 256.284521 -126.737042 
L 256.589189 -126.926232 
L 256.893857 -127.115452 
L 257.198526 -127.304699 
L 257.503194 -127.493972 
L 257.807862 -127.683268 
L 258.112531 -127.872585 
L 258.417199 -128.06192 
L 258.721867 -128.251271 
L 259.026536 -128.440636 
L 259.331204 -128.630011 
L 259.635872 -128.819396 
L 259.940541 -129.008787 
L 260.245209 -129.198182 
L 260.549877 -129.387579 
L 260.854545 -129.576976 
L 261.159214 -129.766369 
L 261.463882 -129.955757 
L 261.76855 -130.145137 
L 262.073219 -130.334507 
L 262.377887 -130.523865 
L 262.682555 -130.713208 
L 262.987224 -130.902533 
L 263.291892 -131.091839 
L 263.59656 -131.281123 
L 263.901229 -131.470383 
L 264.205897 -131.659616 
L 264.510565 -131.84882 
L 264.815233 -132.037993 
L 265.119902 -132.227132 
L 265.42457 -132.416235 
L 265.729238 -132.6053 
L 266.033907 -132.794323 
L 266.338575 -132.983304 
L 266.643243 -133.172238 
L 266.947912 -133.361125 
L 267.25258 -133.549962 
L 267.557248 -133.738746 
L 267.861916 -133.927475 
L 268.166585 -134.116147 
L 268.471253 -134.304759 
L 268.775921 -134.493309 
L 269.08059 -134.681795 
L 269.385258 -134.870214 
L 269.689926 -135.058564 
L 269.994595 -135.246843 
L 270.299263 -135.435048 
L 270.603931 -135.623177 
L 270.9086 -135.811227 
L 271.213268 -135.999197 
L 271.517936 -136.187083 
L 271.822604 -136.374885 
L 272.127273 -136.562598 
L 272.431941 -136.750221 
L 272.736609 -136.937753 
L 273.041278 -137.125189 
L 273.345946 -137.312528 
L 273.650614 -137.499768 
L 273.955283 -137.686907 
L 274.259951 -137.873941 
L 274.564619 -138.060869 
L 274.869287 -138.247689 
L 275.173956 -138.434397 
L 275.478624 -138.620993 
L 275.783292 -138.807473 
L 276.087961 -138.993835 
L 276.392629 -139.180077 
L 276.697297 -139.366197 
L 277.001966 -139.552192 
L 277.306634 -139.738061 
L 277.611302 -139.9238 
L 277.915971 -140.109407 
L 278.220639 -140.294881 
L 278.525307 -140.480219 
L 278.829975 -140.665419 
L 279.134644 -140.850478 
L 279.439312 -141.035394 
L 279.74398 -141.220165 
L 280.048649 -141.404789 
L 280.353317 -141.589263 
L 280.657985 -141.773586 
L 280.962654 -141.957754 
L 281.267322 -142.141766 
L 281.57199 -142.32562 
L 281.876658 -142.509313 
L 282.181327 -142.692843 
L 282.485995 -142.876207 
L 282.790663 -143.059405 
L 283.095332 -143.242432 
L 283.4 -143.425288 
L 283.704668 -143.60797 
L 284.009337 -143.790476 
L 284.314005 -143.972803 
L 284.618673 -144.154949 
L 284.923342 -144.336913 
L 285.22801 -144.518692 
L 285.532678 -144.700283 
L 285.837346 -144.881685 
L 286.142015 -145.062896 
L 286.446683 -145.243913 
L 286.751351 -145.424734 
L 287.05602 -145.605358 
L 287.360688 -145.785781 
L 287.665356 -145.966002 
L 287.970025 -146.146018 
L 288.274693 -146.325828 
L 288.579361 -146.505429 
L 288.884029 -146.68482 
L 289.188698 -146.863997 
L 289.493366 -147.042959 
L 289.798034 -147.221705 
L 290.102703 -147.400231 
L 290.407371 -147.578536 
L 290.712039 -147.756617 
L 291.016708 -147.934473 
L 291.321376 -148.112101 
L 291.626044 -148.2895 
L 291.930713 -148.466667 
L 292.235381 -148.6436 
L 292.540049 -148.820297 
L 292.844717 -148.996757 
L 293.149386 -149.172976 
L 293.454054 -149.348954 
L 293.758722 -149.524687 
L 294.063391 -149.700174 
L 294.368059 -149.875414 
L 294.672727 -150.050403 
L 294.977396 -150.22514 
L 295.282064 -150.399624 
L 295.586732 -150.573851 
L 295.8914 -150.74782 
L 296.196069 -150.921529 
L 296.500737 -151.094976 
L 296.805405 -151.268159 
L 297.110074 -151.441076 
L 297.414742 -151.613725 
L 297.71941 -151.786104 
L 298.024079 -151.958212 
L 298.328747 -152.130046 
L 298.633415 -152.301604 
L 298.938084 -152.472885 
L 299.242752 -152.643886 
L 299.54742 -152.814605 
L 299.852088 -152.985042 
L 300.156757 -153.155193 
L 300.461425 -153.325057 
L 300.766093 -153.494632 
L 301.070762 -153.663917 
L 301.37543 -153.832908 
L 301.680098 -154.001605 
L 301.984767 -154.170006 
L 302.289435 -154.338109 
L 302.594103 -154.505911 
L 302.898771 -154.673411 
L 303.20344 -154.840608 
L 303.508108 -155.007499 
L 303.812776 -155.174083 
L 304.117445 -155.340358 
L 304.422113 -155.506322 
L 304.726781 -155.671973 
L 305.03145 -155.837309 
L 305.336118 -156.00233 
L 305.640786 -156.167032 
L 305.945455 -156.331415 
L 306.250123 -156.495476 
L 306.554791 -156.659213 
L 306.859459 -156.822626 
L 307.164128 -156.985713 
L 307.468796 -157.14847 
L 307.773464 -157.310898 
L 308.078133 -157.472994 
L 308.382801 -157.634756 
L 308.687469 -157.796184 
L 308.992138 -157.957274 
L 309.296806 -158.118026 
L 309.601474 -158.278438 
L 309.906143 -158.438508 
L 310.210811 -158.598235 
L 310.515479 -158.757617 
L 310.820147 -158.916652 
L 311.124816 -159.075338 
L 311.429484 -159.233675 
L 311.734152 -159.391661 
L 312.038821 -159.549293 
L 312.343489 -159.706571 
L 312.648157 -159.863493 
L 312.952826 -160.020057 
L 313.257494 -160.176262 
L 313.562162 -160.332105 
L 313.86683 -160.487587 
L 314.171499 -160.642705 
L 314.476167 -160.797457 
L 314.780835 -160.951843 
L 315.085504 -161.10586 
L 315.390172 -161.259507 
L 315.69484 -161.412783 
L 315.999509 -161.565686 
L 316.304177 -161.718215 
L 316.608845 -161.870369 
L 316.913514 -162.022145 
L 317.218182 -162.173542 
L 317.52285 -162.32456 
L 317.827518 -162.475196 
L 318.132187 -162.62545 
L 318.436855 -162.775319 
L 318.741523 -162.924803 
L 319.046192 -163.0739 
L 319.35086 -163.222609 
L 319.655528 -163.370928 
L 319.960197 -163.518856 
L 320.264865 -163.666392 
L 320.569533 -163.813534 
L 320.874201 -163.960282 
L 321.17887 -164.106633 
L 321.483538 -164.252586 
L 321.788206 -164.398141 
L 322.092875 -164.543296 
L 322.397543 -164.688049 
L 322.702211 -164.8324 
L 323.00688 -164.976347 
L 323.311548 -165.119889 
L 323.616216 -165.263025 
L 323.920885 -165.405753 
L 324.225553 -165.548073 
L 324.530221 -165.689983 
L 324.834889 -165.831481 
L 325.139558 -165.972568 
L 325.444226 -166.113241 
L 325.748894 -166.2535 
L 326.053563 -166.393342 
L 326.358231 -166.532769 
L 326.662899 -166.671777 
L 326.967568 -166.810366 
L 327.272236 -166.948535 
L 327.576904 -167.086283 
L 327.881572 -167.223608 
L 328.186241 -167.36051 
L 328.490909 -167.496988 
L 328.795577 -167.633041 
L 329.100246 -167.768666 
L 329.404914 -167.903865 
L 329.709582 -168.038635 
L 330.014251 -168.172975 
L 330.318919 -168.306885 
L 330.623587 -168.440363 
L 330.928256 -168.573409 
L 331.232924 -168.706022 
L 331.537592 -168.8382 
L 331.84226 -168.969943 
L 332.146929 -169.101249 
L 332.451597 -169.232119 
L 332.756265 -169.36255 
L 333.060934 -169.492542 
L 333.365602 -169.622095 
L 333.67027 -169.751207 
L 333.974939 -169.879877 
L 334.279607 -170.008105 
L 334.584275 -170.13589 
L 334.888943 -170.263231 
L 335.193612 -170.390126 
L 335.49828 -170.516577 
L 335.802948 -170.64258 
L 336.107617 -170.768137 
L 336.412285 -170.893245 
L 336.716953 -171.017904 
L 337.021622 -171.142114 
L 337.32629 -171.265874 
L 337.630958 -171.389183 
L 337.935627 -171.51204 
L 338.240295 -171.634444 
L 338.544963 -171.756396 
L 338.849631 -171.877893 
L 339.1543 -171.998936 
L 339.458968 -172.119524 
L 339.763636 -172.239657 
L 340.068305 -172.359332 
L 340.372973 -172.478551 
L 340.677641 -172.597312 
L 340.98231 -172.715615 
L 341.286978 -172.833459 
L 341.591646 -172.950844 
L 341.896314 -173.067768 
L 342.200983 -173.184232 
L 342.505651 -173.300235 
L 342.810319 -173.415777 
L 343.114988 -173.530856 
L 343.419656 -173.645472 
L 343.724324 -173.759626 
L 344.028993 -173.873316 
L 344.333661 -173.986541 
L 344.638329 -174.099302 
L 344.942998 -174.211598 
L 345.247666 -174.323429 
L 345.552334 -174.434794 
L 345.857002 -174.545692 
L 346.161671 -174.656124 
L 346.466339 -174.766088 
L 346.771007 -174.875585 
L 347.075676 -174.984615 
L 347.380344 -175.093176 
L 347.685012 -175.201268 
L 347.989681 -175.308892 
L 348.294349 -175.416046 
L 348.599017 -175.522731 
L 348.903686 -175.628946 
L 349.208354 -175.734691 
L 349.513022 -175.839965 
L 349.81769 -175.944769 
L 350.122359 -176.049102 
L 350.427027 -176.152963 
L 350.731695 -176.256354 
L 351.036364 -176.359272 
L 351.341032 -176.461719 
L 351.6457 -176.563694 
L 351.950369 -176.665197 
L 352.255037 -176.766227 
L 352.559705 -176.866785 
L 352.864373 -176.96687 
L 353.169042 -177.066483 
L 353.47371 -177.165622 
L 353.778378 -177.264289 
L 354.083047 -177.362482 
L 354.387715 -177.460202 
L 354.692383 -177.557449 
L 354.997052 -177.654222 
L 355.30172 -177.750522 
L 355.606388 -177.846349 
L 355.911057 -177.941702 
L 356.215725 -178.036582 
L 356.520393 -178.130988 
L 356.825061 -178.224921 
L 357.12973 -178.31838 
L 357.434398 -178.411366 
L 357.739066 -178.503878 
L 358.043735 -178.595917 
L 358.348403 -178.687483 
L 358.653071 -178.778576 
L 358.95774 -178.869195 
L 359.262408 -178.959342 
L 359.567076 -179.049015 
L 359.871744 -179.138216 
L 360.176413 -179.226944 
L 360.481081 -179.3152 
L 360.785749 -179.402984 
L 361.090418 -179.490295 
L 361.395086 -179.577134 
L 361.699754 -179.663502 
L 362.004423 -179.749398 
L 362.309091 -179.834823 
L 362.613759 -179.919776 
L 362.918428 -180.004259 
L 363.223096 -180.088271 
L 363.527764 -180.171813 
L 363.832432 -180.254885 
L 364.137101 -180.337487 
L 364.441769 -180.419619 
L 364.746437 -180.501282 
L 365.051106 -180.582477 
L 365.355774 -180.663203 
L 365.660442 -180.743461 
L 365.965111 -180.823251 
L 366.269779 -180.902574 
L 366.574447 -180.98143 
L 366.879115 -181.059819 
L 367.183784 -181.137742 
L 367.488452 -181.215199 
L 367.79312 -181.292191 
L 368.097789 -181.368717 
L 368.402457 -181.44478 
L 368.707125 -181.520378 
L 369.011794 -181.595513 
L 369.316462 -181.670185 
L 369.62113 -181.744394 
L 369.925799 -181.818141 
L 370.230467 -181.891427 
L 370.535135 -181.964252 
L 370.839803 -182.036616 
L 371.144472 -182.108521 
L 371.44914 -182.179966 
L 371.753808 -182.250952 
L 372.058477 -182.321481 
L 372.363145 -182.391552 
L 372.667813 -182.461166 
L 372.972482 -182.530323 
L 373.27715 -182.599026 
L 373.581818 -182.667273 
L 373.581818 -147.235352 
L 373.581818 -147.235352 
L 373.27715 -147.16711 
L 372.972482 -147.098413 
L 372.667813 -147.02926 
L 372.363145 -146.959651 
L 372.058477 -146.889585 
L 371.753808 -146.819061 
L 371.44914 -146.748079 
L 371.144472 -146.676638 
L 370.839803 -146.604738 
L 370.535135 -146.532378 
L 370.230467 -146.459558 
L 369.925799 -146.386276 
L 369.62113 -146.312533 
L 369.316462 -146.238328 
L 369.011794 -146.16366 
L 368.707125 -146.088529 
L 368.402457 -146.012934 
L 368.097789 -145.936875 
L 367.79312 -145.860352 
L 367.488452 -145.783364 
L 367.183784 -145.70591 
L 366.879115 -145.62799 
L 366.574447 -145.549605 
L 366.269779 -145.470752 
L 365.965111 -145.391432 
L 365.660442 -145.311645 
L 365.355774 -145.23139 
L 365.051106 -145.150667 
L 364.746437 -145.069475 
L 364.441769 -144.987814 
L 364.137101 -144.905684 
L 363.832432 -144.823085 
L 363.527764 -144.740015 
L 363.223096 -144.656476 
L 362.918428 -144.572466 
L 362.613759 -144.487985 
L 362.309091 -144.403033 
L 362.004423 -144.31761 
L 361.699754 -144.231716 
L 361.395086 -144.14535 
L 361.090418 -144.058513 
L 360.785749 -143.971203 
L 360.481081 -143.883421 
L 360.176413 -143.795166 
L 359.871744 -143.706439 
L 359.567076 -143.61724 
L 359.262408 -143.527567 
L 358.95774 -143.437421 
L 358.653071 -143.346803 
L 358.348403 -143.255711 
L 358.043735 -143.164146 
L 357.739066 -143.072107 
L 357.434398 -142.979595 
L 357.12973 -142.88661 
L 356.825061 -142.793151 
L 356.520393 -142.699219 
L 356.215725 -142.604812 
L 355.911057 -142.509933 
L 355.606388 -142.41458 
L 355.30172 -142.318753 
L 354.997052 -142.222452 
L 354.692383 -142.125679 
L 354.387715 -142.028431 
L 354.083047 -141.930711 
L 353.778378 -141.832517 
L 353.47371 -141.733849 
L 353.169042 -141.634709 
L 352.864373 -141.535096 
L 352.559705 -141.43501 
L 352.255037 -141.334451 
L 351.950369 -141.233419 
L 351.6457 -141.131915 
L 351.341032 -141.029939 
L 351.036364 -140.92749 
L 350.731695 -140.82457 
L 350.427027 -140.721178 
L 350.122359 -140.617315 
L 349.81769 -140.51298 
L 349.513022 -140.408174 
L 349.208354 -140.302898 
L 348.903686 -140.197151 
L 348.599017 -140.090934 
L 348.294349 -139.984246 
L 347.989681 -139.87709 
L 347.685012 -139.769464 
L 347.380344 -139.661369 
L 347.075676 -139.552805 
L 346.771007 -139.443773 
L 346.466339 -139.334273 
L 346.161671 -139.224306 
L 345.857002 -139.113871 
L 345.552334 -139.002969 
L 345.247666 -138.891602 
L 344.942998 -138.779768 
L 344.638329 -138.667468 
L 344.333661 -138.554704 
L 344.028993 -138.441474 
L 343.724324 -138.327781 
L 343.419656 -138.213624 
L 343.114988 -138.099004 
L 342.810319 -137.98392 
L 342.505651 -137.868375 
L 342.200983 -137.752368 
L 341.896314 -137.6359 
L 341.591646 -137.518971 
L 341.286978 -137.401582 
L 340.98231 -137.283734 
L 340.677641 -137.165426 
L 340.372973 -137.046661 
L 340.068305 -136.927437 
L 339.763636 -136.807757 
L 339.458968 -136.68762 
L 339.1543 -136.567027 
L 338.849631 -136.445979 
L 338.544963 -136.324476 
L 338.240295 -136.20252 
L 337.935627 -136.08011 
L 337.630958 -135.957248 
L 337.32629 -135.833934 
L 337.021622 -135.710168 
L 336.716953 -135.585953 
L 336.412285 -135.461288 
L 336.107617 -135.336174 
L 335.802948 -135.210612 
L 335.49828 -135.084602 
L 335.193612 -134.958146 
L 334.888943 -134.831245 
L 334.584275 -134.703898 
L 334.279607 -134.576107 
L 333.974939 -134.447873 
L 333.67027 -134.319196 
L 333.365602 -134.190078 
L 333.060934 -134.060519 
L 332.756265 -133.93052 
L 332.451597 -133.800082 
L 332.146929 -133.669206 
L 331.84226 -133.537893 
L 331.537592 -133.406143 
L 331.232924 -133.273959 
L 330.928256 -133.141339 
L 330.623587 -133.008286 
L 330.318919 -132.874801 
L 330.014251 -132.740884 
L 329.709582 -132.606537 
L 329.404914 -132.47176 
L 329.100246 -132.336554 
L 328.795577 -132.200921 
L 328.490909 -132.064861 
L 328.186241 -131.928376 
L 327.881572 -131.791467 
L 327.576904 -131.654134 
L 327.272236 -131.516378 
L 326.967568 -131.378201 
L 326.662899 -131.239605 
L 326.358231 -131.100589 
L 326.053563 -130.961155 
L 325.748894 -130.821304 
L 325.444226 -130.681038 
L 325.139558 -130.540357 
L 324.834889 -130.399262 
L 324.530221 -130.257756 
L 324.225553 -130.115838 
L 323.920885 -129.97351 
L 323.616216 -129.830774 
L 323.311548 -129.68763 
L 323.00688 -129.544079 
L 322.702211 -129.400124 
L 322.397543 -129.255765 
L 322.092875 -129.111003 
L 321.788206 -128.96584 
L 321.483538 -128.820277 
L 321.17887 -128.674314 
L 320.874201 -128.527955 
L 320.569533 -128.381199 
L 320.264865 -128.234048 
L 319.960197 -128.086503 
L 319.655528 -127.938567 
L 319.35086 -127.790239 
L 319.046192 -127.641521 
L 318.741523 -127.492415 
L 318.436855 -127.342923 
L 318.132187 -127.193044 
L 317.827518 -127.042782 
L 317.52285 -126.892137 
L 317.218182 -126.74111 
L 316.913514 -126.589704 
L 316.608845 -126.437918 
L 316.304177 -126.285756 
L 315.999509 -126.133218 
L 315.69484 -125.980306 
L 315.390172 -125.827021 
L 315.085504 -125.673364 
L 314.780835 -125.519338 
L 314.476167 -125.364943 
L 314.171499 -125.210182 
L 313.86683 -125.055055 
L 313.562162 -124.899564 
L 313.257494 -124.743711 
L 312.952826 -124.587497 
L 312.648157 -124.430924 
L 312.343489 -124.273993 
L 312.038821 -124.116705 
L 311.734152 -123.959064 
L 311.429484 -123.801069 
L 311.124816 -123.642723 
L 310.820147 -123.484027 
L 310.515479 -123.324982 
L 310.210811 -123.165591 
L 309.906143 -123.005855 
L 309.601474 -122.845776 
L 309.296806 -122.685354 
L 308.992138 -122.524593 
L 308.687469 -122.363493 
L 308.382801 -122.202056 
L 308.078133 -122.040285 
L 307.773464 -121.878179 
L 307.468796 -121.715742 
L 307.164128 -121.552975 
L 306.859459 -121.38988 
L 306.554791 -121.226457 
L 306.250123 -121.06271 
L 305.945455 -120.89864 
L 305.640786 -120.734248 
L 305.336118 -120.569536 
L 305.03145 -120.404506 
L 304.726781 -120.239161 
L 304.422113 -120.0735 
L 304.117445 -119.907527 
L 303.812776 -119.741243 
L 303.508108 -119.57465 
L 303.20344 -119.40775 
L 302.898771 -119.240544 
L 302.594103 -119.073034 
L 302.289435 -118.905222 
L 301.984767 -118.737111 
L 301.680098 -118.568701 
L 301.37543 -118.399995 
L 301.070762 -118.230994 
L 300.766093 -118.0617 
L 300.461425 -117.892116 
L 300.156757 -117.722243 
L 299.852088 -117.552083 
L 299.54742 -117.381637 
L 299.242752 -117.210909 
L 298.938084 -117.039898 
L 298.633415 -116.868609 
L 298.328747 -116.697042 
L 298.024079 -116.525199 
L 297.71941 -116.353083 
L 297.414742 -116.180695 
L 297.110074 -116.008037 
L 296.805405 -115.835111 
L 296.500737 -115.661919 
L 296.196069 -115.488463 
L 295.8914 -115.314746 
L 295.586732 -115.140768 
L 295.282064 -114.966532 
L 294.977396 -114.792041 
L 294.672727 -114.617295 
L 294.368059 -114.442297 
L 294.063391 -114.267049 
L 293.758722 -114.091554 
L 293.454054 -113.915812 
L 293.149386 -113.739826 
L 292.844717 -113.563598 
L 292.540049 -113.387131 
L 292.235381 -113.210425 
L 291.930713 -113.033484 
L 291.626044 -112.856309 
L 291.321376 -112.678903 
L 291.016708 -112.501266 
L 290.712039 -112.323403 
L 290.407371 -112.145313 
L 290.102703 -111.967001 
L 289.798034 -111.788467 
L 289.493366 -111.609714 
L 289.188698 -111.430744 
L 288.884029 -111.251559 
L 288.579361 -111.072161 
L 288.274693 -110.892552 
L 287.970025 -110.712735 
L 287.665356 -110.532711 
L 287.360688 -110.352483 
L 287.05602 -110.172053 
L 286.751351 -109.991422 
L 286.446683 -109.810594 
L 286.142015 -109.62957 
L 285.837346 -109.448352 
L 285.532678 -109.266943 
L 285.22801 -109.085344 
L 284.923342 -108.903559 
L 284.618673 -108.721588 
L 284.314005 -108.539435 
L 284.009337 -108.357101 
L 283.704668 -108.174589 
L 283.4 -107.991901 
L 283.095332 -107.809039 
L 282.790663 -107.626005 
L 282.485995 -107.442801 
L 282.181327 -107.25943 
L 281.876658 -107.075894 
L 281.57199 -106.892195 
L 281.267322 -106.708336 
L 280.962654 -106.524318 
L 280.657985 -106.340143 
L 280.353317 -106.155815 
L 280.048649 -105.971335 
L 279.74398 -105.786706 
L 279.439312 -105.601929 
L 279.134644 -105.417007 
L 278.829975 -105.231943 
L 278.525307 -105.046738 
L 278.220639 -104.861395 
L 277.915971 -104.675916 
L 277.611302 -104.490303 
L 277.306634 -104.304559 
L 277.001966 -104.118686 
L 276.697297 -103.932686 
L 276.392629 -103.746561 
L 276.087961 -103.560315 
L 275.783292 -103.373948 
L 275.478624 -103.187463 
L 275.173956 -103.000863 
L 274.869287 -102.81415 
L 274.564619 -102.627326 
L 274.259951 -102.440394 
L 273.955283 -102.253356 
L 273.650614 -102.066213 
L 273.345946 -101.878969 
L 273.041278 -101.691626 
L 272.736609 -101.504186 
L 272.431941 -101.316651 
L 272.127273 -101.129024 
L 271.822604 -100.941307 
L 271.517936 -100.753503 
L 271.213268 -100.565613 
L 270.9086 -100.37764 
L 270.603931 -100.189586 
L 270.299263 -100.001454 
L 269.994595 -99.813246 
L 269.689926 -99.624965 
L 269.385258 -99.436612 
L 269.08059 -99.24819 
L 268.775921 -99.059702 
L 268.471253 -98.871149 
L 268.166585 -98.682535 
L 267.861916 -98.493861 
L 267.557248 -98.305129 
L 267.25258 -98.116343 
L 266.947912 -97.927504 
L 266.643243 -97.738615 
L 266.338575 -97.549678 
L 266.033907 -97.360696 
L 265.729238 -97.171671 
L 265.42457 -96.982605 
L 265.119902 -96.793501 
L 264.815233 -96.60436 
L 264.510565 -96.415186 
L 264.205897 -96.225981 
L 263.901229 -96.036746 
L 263.59656 -95.847485 
L 263.291892 -95.6582 
L 262.987224 -95.468893 
L 262.682555 -95.279567 
L 262.377887 -95.090224 
L 262.073219 -94.900865 
L 261.76855 -94.711495 
L 261.463882 -94.522114 
L 261.159214 -94.332726 
L 260.854545 -94.143332 
L 260.549877 -93.953936 
L 260.245209 -93.764539 
L 259.940541 -93.575144 
L 259.635872 -93.385753 
L 259.331204 -93.196369 
L 259.026536 -93.006993 
L 258.721867 -92.817629 
L 258.417199 -92.628279 
L 258.112531 -92.438944 
L 257.807862 -92.249628 
L 257.503194 -92.060333 
L 257.198526 -91.871061 
L 256.893857 -91.681814 
L 256.589189 -91.492596 
L 256.284521 -91.303407 
L 255.979853 -91.114251 
L 255.675184 -90.92513 
L 255.370516 -90.736047 
L 255.065848 -90.547003 
L 254.761179 -90.358001 
L 254.456511 -90.169043 
L 254.151843 -89.980133 
L 253.847174 -89.791271 
L 253.542506 -89.602461 
L 253.237838 -89.413704 
L 252.93317 -89.225004 
L 252.628501 -89.036362 
L 252.323833 -88.847782 
L 252.019165 -88.659264 
L 251.714496 -88.470812 
L 251.409828 -88.282428 
L 251.10516 -88.094114 
L 250.800491 -87.905872 
L 250.495823 -87.717706 
L 250.191155 -87.529617 
L 249.886486 -87.341607 
L 249.581818 -87.15368 
L 249.27715 -86.965836 
L 248.972482 -86.778079 
L 248.667813 -86.590412 
L 248.363145 -86.402835 
L 248.058477 -86.215352 
L 247.753808 -86.027965 
L 247.44914 -85.840676 
L 247.144472 -85.653487 
L 246.839803 -85.466401 
L 246.535135 -85.279421 
L 246.230467 -85.092548 
L 245.925799 -84.905784 
L 245.62113 -84.719133 
L 245.316462 -84.532596 
L 245.011794 -84.346176 
L 244.707125 -84.159875 
L 244.402457 -83.973695 
L 244.097789 -83.787638 
L 243.79312 -83.601707 
L 243.488452 -83.415904 
L 243.183784 -83.230232 
L 242.879115 -83.044692 
L 242.574447 -82.859288 
L 242.269779 -82.67402 
L 241.965111 -82.488892 
L 241.660442 -82.303905 
L 241.355774 -82.119063 
L 241.051106 -81.934366 
L 240.746437 -81.749819 
L 240.441769 -81.565421 
L 240.137101 -81.381177 
L 239.832432 -81.197088 
L 239.527764 -81.013157 
L 239.223096 -80.829385 
L 238.918428 -80.645775 
L 238.613759 -80.462329 
L 238.309091 -80.279049 
L 238.004423 -80.095938 
L 237.699754 -79.912998 
L 237.395086 -79.73023 
L 237.090418 -79.547638 
L 236.785749 -79.365223 
L 236.481081 -79.182988 
L 236.176413 -79.000934 
L 235.871744 -78.819065 
L 235.567076 -78.637381 
L 235.262408 -78.455886 
L 234.95774 -78.274581 
L 234.653071 -78.093469 
L 234.348403 -77.912551 
L 234.043735 -77.731831 
L 233.739066 -77.551309 
L 233.434398 -77.370989 
L 233.12973 -77.190872 
L 232.825061 -77.010961 
L 232.520393 -76.831257 
L 232.215725 -76.651763 
L 231.911057 -76.472481 
L 231.606388 -76.293413 
L 231.30172 -76.114561 
L 230.997052 -75.935927 
L 230.692383 -75.757514 
L 230.387715 -75.579322 
L 230.083047 -75.401356 
L 229.778378 -75.223616 
L 229.47371 -75.046104 
L 229.169042 -74.868824 
L 228.864373 -74.691776 
L 228.559705 -74.514963 
L 228.255037 -74.338386 
L 227.950369 -74.162049 
L 227.6457 -73.985953 
L 227.341032 -73.8101 
L 227.036364 -73.634491 
L 226.731695 -73.45913 
L 226.427027 -73.284018 
L 226.122359 -73.109157 
L 225.81769 -72.934549 
L 225.513022 -72.760196 
L 225.208354 -72.5861 
L 224.903686 -72.412264 
L 224.599017 -72.238688 
L 224.294349 -72.065376 
L 223.989681 -71.892328 
L 223.685012 -71.719547 
L 223.380344 -71.547035 
L 223.075676 -71.374794 
L 222.771007 -71.202826 
L 222.466339 -71.031133 
L 222.161671 -70.859716 
L 221.857002 -70.688578 
L 221.552334 -70.51772 
L 221.247666 -70.347144 
L 220.942998 -70.176853 
L 220.638329 -70.006848 
L 220.333661 -69.837131 
L 220.028993 -69.667704 
L 219.724324 -69.498569 
L 219.419656 -69.329727 
L 219.114988 -69.161181 
L 218.810319 -68.992932 
L 218.505651 -68.824983 
L 218.200983 -68.657334 
L 217.896314 -68.489988 
L 217.591646 -68.322947 
L 217.286978 -68.156213 
L 216.98231 -67.989786 
L 216.677641 -67.82367 
L 216.372973 -67.657865 
L 216.068305 -67.492374 
L 215.763636 -67.327199 
L 215.458968 -67.162341 
L 215.1543 -66.997801 
L 214.849631 -66.833582 
L 214.544963 -66.669686 
L 214.240295 -66.506114 
L 213.935627 -66.342867 
L 213.630958 -66.179948 
L 213.32629 -66.017359 
L 213.021622 -65.8551 
L 212.716953 -65.693174 
L 212.412285 -65.531582 
L 212.107617 -65.370327 
L 211.802948 -65.209409 
L 211.49828 -65.04883 
L 211.193612 -64.888592 
L 210.888943 -64.728697 
L 210.584275 -64.569146 
L 210.279607 -64.409941 
L 209.974939 -64.251083 
L 209.67027 -64.092575 
L 209.365602 -63.934417 
L 209.060934 -63.776611 
L 208.756265 -63.61916 
L 208.451597 -63.462063 
L 208.146929 -63.305324 
L 207.84226 -63.148943 
L 207.537592 -62.992922 
L 207.232924 -62.837263 
L 206.928256 -62.681967 
L 206.623587 -62.527035 
L 206.318919 -62.37247 
L 206.014251 -62.218272 
L 205.709582 -62.064443 
L 205.404914 -61.910985 
L 205.100246 -61.757899 
L 204.795577 -61.605187 
L 204.490909 -61.452849 
L 204.186241 -61.300888 
L 203.881572 -61.149305 
L 203.576904 -60.998101 
L 203.272236 -60.847278 
L 202.967568 -60.696836 
L 202.662899 -60.546779 
L 202.358231 -60.397106 
L 202.053563 -60.247819 
L 201.748894 -60.09892 
L 201.444226 -59.95041 
L 201.139558 -59.80229 
L 200.834889 -59.654562 
L 200.530221 -59.507227 
L 200.225553 -59.360286 
L 199.920885 -59.21374 
L 199.616216 -59.067592 
L 199.311548 -58.921841 
L 199.00688 -58.77649 
L 198.702211 -58.63154 
L 198.397543 -58.486992 
L 198.092875 -58.342847 
L 197.788206 -58.199106 
L 197.483538 -58.055772 
L 197.17887 -57.912844 
L 196.874201 -57.770324 
L 196.569533 -57.628213 
L 196.264865 -57.486513 
L 195.960197 -57.345224 
L 195.655528 -57.204349 
L 195.35086 -57.063887 
L 195.046192 -56.92384 
L 194.741523 -56.78421 
L 194.436855 -56.644997 
L 194.132187 -56.506202 
L 193.827518 -56.367827 
L 193.52285 -56.229873 
L 193.218182 -56.09234 
L 192.913514 -55.955231 
L 192.608845 -55.818545 
L 192.304177 -55.682284 
L 191.999509 -55.546449 
L 191.69484 -55.411041 
L 191.390172 -55.276061 
L 191.085504 -55.14151 
L 190.780835 -55.00739 
L 190.476167 -54.8737 
L 190.171499 -54.740442 
L 189.86683 -54.607617 
L 189.562162 -54.475226 
L 189.257494 -54.34327 
L 188.952826 -54.21175 
L 188.648157 -54.080666 
L 188.343489 -53.95002 
L 188.038821 -53.819812 
L 187.734152 -53.690044 
L 187.429484 -53.560716 
L 187.124816 -53.431829 
L 186.820147 -53.303385 
L 186.515479 -53.175383 
L 186.210811 -53.047824 
L 185.906143 -52.920711 
L 185.601474 -52.794042 
L 185.296806 -52.66782 
L 184.992138 -52.542044 
L 184.687469 -52.416716 
L 184.382801 -52.291837 
L 184.078133 -52.167407 
L 183.773464 -52.043426 
L 183.468796 -51.919897 
L 183.164128 -51.796818 
L 182.859459 -51.674192 
L 182.554791 -51.552019 
L 182.250123 -51.430299 
L 181.945455 -51.309033 
L 181.640786 -51.188222 
L 181.336118 -51.067866 
L 181.03145 -50.947967 
L 180.726781 -50.828524 
L 180.422113 -50.709539 
L 180.117445 -50.591011 
L 179.812776 -50.472943 
L 179.508108 -50.355333 
L 179.20344 -50.238183 
L 178.898771 -50.121493 
L 178.594103 -50.005264 
L 178.289435 -49.889497 
L 177.984767 -49.774191 
L 177.680098 -49.659348 
L 177.37543 -49.544968 
L 177.070762 -49.431051 
L 176.766093 -49.317598 
L 176.461425 -49.204609 
L 176.156757 -49.092085 
L 175.852088 -48.980026 
L 175.54742 -48.868434 
L 175.242752 -48.757307 
L 174.938084 -48.646646 
L 174.633415 -48.536453 
L 174.328747 -48.426727 
L 174.024079 -48.317468 
L 173.71941 -48.208678 
L 173.414742 -48.100356 
L 173.110074 -47.992503 
L 172.805405 -47.885119 
L 172.500737 -47.778204 
L 172.196069 -47.671759 
L 171.8914 -47.565784 
L 171.586732 -47.460279 
L 171.282064 -47.355244 
L 170.977396 -47.250681 
L 170.672727 -47.146588 
L 170.368059 -47.042967 
L 170.063391 -46.939817 
L 169.758722 -46.837139 
L 169.454054 -46.734933 
L 169.149386 -46.633199 
L 168.844717 -46.531937 
L 168.540049 -46.431148 
L 168.235381 -46.330831 
L 167.930713 -46.230987 
L 167.626044 -46.131616 
L 167.321376 -46.032718 
L 167.016708 -45.934293 
L 166.712039 -45.836341 
L 166.407371 -45.738862 
L 166.102703 -45.641857 
L 165.798034 -45.545325 
L 165.493366 -45.449267 
L 165.188698 -45.353682 
L 164.884029 -45.25857 
L 164.579361 -45.163932 
L 164.274693 -45.069767 
L 163.970025 -44.976076 
L 163.665356 -44.882858 
L 163.360688 -44.790114 
L 163.05602 -44.697843 
L 162.751351 -44.606046 
L 162.446683 -44.514721 
L 162.142015 -44.42387 
L 161.837346 -44.333492 
L 161.532678 -44.243587 
L 161.22801 -44.154154 
L 160.923342 -44.065195 
L 160.618673 -43.976707 
L 160.314005 -43.888693 
L 160.009337 -43.80115 
L 159.704668 -43.71408 
L 159.4 -43.627481 
L 159.095332 -43.541354 
L 158.790663 -43.455699 
L 158.485995 -43.370514 
L 158.181327 -43.285801 
L 157.876658 -43.201558 
L 157.57199 -43.117786 
L 157.267322 -43.034484 
L 156.962654 -42.951652 
L 156.657985 -42.86929 
L 156.353317 -42.787397 
L 156.048649 -42.705973 
L 155.74398 -42.625017 
L 155.439312 -42.54453 
L 155.134644 -42.464511 
L 154.829975 -42.384959 
L 154.525307 -42.305875 
L 154.220639 -42.227257 
L 153.915971 -42.149106 
L 153.611302 -42.071421 
L 153.306634 -41.994201 
L 153.001966 -41.917446 
L 152.697297 -41.841157 
L 152.392629 -41.765331 
L 152.087961 -41.689969 
L 151.783292 -41.615071 
L 151.478624 -41.540635 
L 151.173956 -41.466661 
L 150.869287 -41.39315 
L 150.564619 -41.320099 
L 150.259951 -41.247509 
L 149.955283 -41.17538 
L 149.650614 -41.10371 
L 149.345946 -41.032498 
L 149.041278 -40.961746 
L 148.736609 -40.891451 
L 148.431941 -40.821613 
L 148.127273 -40.752232 
L 147.822604 -40.683307 
L 147.517936 -40.614837 
L 147.213268 -40.546822 
L 146.9086 -40.47926 
L 146.603931 -40.412152 
L 146.299263 -40.345497 
L 145.994595 -40.279293 
L 145.689926 -40.213541 
L 145.385258 -40.148239 
L 145.08059 -40.083387 
L 144.775921 -40.018984 
L 144.471253 -39.955029 
L 144.166585 -39.891522 
L 143.861916 -39.828461 
L 143.557248 -39.765846 
L 143.25258 -39.703677 
L 142.947912 -39.641951 
L 142.643243 -39.580669 
L 142.338575 -39.51983 
L 142.033907 -39.459432 
L 141.729238 -39.399475 
L 141.42457 -39.339959 
L 141.119902 -39.280881 
L 140.815233 -39.222242 
L 140.510565 -39.16404 
L 140.205897 -39.106275 
L 139.901229 -39.048945 
L 139.59656 -38.99205 
L 139.291892 -38.935588 
L 138.987224 -38.879559 
L 138.682555 -38.823962 
L 138.377887 -38.768796 
L 138.073219 -38.714059 
L 137.76855 -38.659751 
L 137.463882 -38.605871 
L 137.159214 -38.552418 
L 136.854545 -38.49939 
L 136.549877 -38.446787 
L 136.245209 -38.394608 
L 135.940541 -38.342851 
L 135.635872 -38.291516 
L 135.331204 -38.240601 
L 135.026536 -38.190105 
L 134.721867 -38.140028 
L 134.417199 -38.090368 
L 134.112531 -38.041123 
L 133.807862 -37.992294 
L 133.503194 -37.943878 
L 133.198526 -37.895874 
L 132.893857 -37.848282 
L 132.589189 -37.801101 
L 132.284521 -37.754328 
L 131.979853 -37.707963 
L 131.675184 -37.662004 
L 131.370516 -37.616451 
L 131.065848 -37.571302 
L 130.761179 -37.526556 
L 130.456511 -37.482211 
L 130.151843 -37.438267 
L 129.847174 -37.394722 
L 129.542506 -37.351575 
L 129.237838 -37.308824 
L 128.93317 -37.266469 
L 128.628501 -37.224508 
L 128.323833 -37.182939 
L 128.019165 -37.141761 
L 127.714496 -37.100974 
L 127.409828 -37.060575 
L 127.10516 -37.020563 
L 126.800491 -36.980937 
L 126.495823 -36.941696 
L 126.191155 -36.902838 
L 125.886486 -36.864361 
L 125.581818 -36.826265 
L 125.27715 -36.788548 
L 124.972482 -36.751208 
L 124.667813 -36.714245 
L 124.363145 -36.677656 
L 124.058477 -36.64144 
L 123.753808 -36.605595 
L 123.44914 -36.570121 
L 123.144472 -36.535016 
L 122.839803 -36.500278 
L 122.535135 -36.465906 
L 122.230467 -36.431897 
L 121.925799 -36.398252 
L 121.62113 -36.364968 
L 121.316462 -36.332043 
L 121.011794 -36.299477 
L 120.707125 -36.267267 
L 120.402457 -36.235412 
L 120.097789 -36.203911 
L 119.79312 -36.172761 
L 119.488452 -36.141962 
L 119.183784 -36.111511 
L 118.879115 -36.081408 
L 118.574447 -36.05165 
L 118.269779 -36.022235 
L 117.965111 -35.993163 
L 117.660442 -35.964432 
L 117.355774 -35.936039 
L 117.051106 -35.907983 
L 116.746437 -35.880263 
L 116.441769 -35.852877 
L 116.137101 -35.825824 
L 115.832432 -35.7991 
L 115.527764 -35.772706 
L 115.223096 -35.746639 
L 114.918428 -35.720897 
L 114.613759 -35.695479 
L 114.309091 -35.670382 
L 114.004423 -35.645606 
L 113.699754 -35.621149 
L 113.395086 -35.597008 
L 113.090418 -35.573182 
L 112.785749 -35.549669 
L 112.481081 -35.526467 
L 112.176413 -35.503576 
L 111.871744 -35.480992 
L 111.567076 -35.458714 
L 111.262408 -35.43674 
L 110.95774 -35.415068 
L 110.653071 -35.393697 
L 110.348403 -35.372625 
L 110.043735 -35.35185 
L 109.739066 -35.331369 
L 109.434398 -35.311182 
L 109.12973 -35.291286 
L 108.825061 -35.27168 
L 108.520393 -35.252361 
L 108.215725 -35.233328 
L 107.911057 -35.214579 
L 107.606388 -35.196111 
L 107.30172 -35.177924 
L 106.997052 -35.160014 
L 106.692383 -35.142381 
L 106.387715 -35.125022 
L 106.083047 -35.107935 
L 105.778378 -35.091118 
L 105.47371 -35.07457 
L 105.169042 -35.058289 
L 104.864373 -35.042272 
L 104.559705 -35.026517 
L 104.255037 -35.011023 
L 103.950369 -34.995787 
L 103.6457 -34.980808 
L 103.341032 -34.966084 
L 103.036364 -34.951612 
L 102.731695 -34.937391 
L 102.427027 -34.923418 
L 102.122359 -34.909692 
L 101.81769 -34.896211 
L 101.513022 -34.882972 
L 101.208354 -34.869973 
L 100.903686 -34.857213 
L 100.599017 -34.844689 
L 100.294349 -34.832399 
L 99.989681 -34.820342 
L 99.685012 -34.808515 
L 99.380344 -34.796916 
L 99.075676 -34.785543 
L 98.771007 -34.774394 
L 98.466339 -34.763467 
L 98.161671 -34.752759 
L 97.857002 -34.74227 
L 97.552334 -34.731996 
L 97.247666 -34.721935 
L 96.942998 -34.712086 
L 96.638329 -34.702445 
L 96.333661 -34.693012 
L 96.028993 -34.683784 
L 95.724324 -34.674759 
L 95.419656 -34.665934 
L 95.114988 -34.657308 
L 94.810319 -34.648878 
L 94.505651 -34.640643 
L 94.200983 -34.6326 
L 93.896314 -34.624746 
L 93.591646 -34.61708 
L 93.286978 -34.6096 
L 92.98231 -34.602303 
L 92.677641 -34.595187 
L 92.372973 -34.588251 
L 92.068305 -34.581491 
L 91.763636 -34.574905 
L 91.458968 -34.568492 
L 91.1543 -34.56225 
L 90.849631 -34.556175 
L 90.544963 -34.550266 
L 90.240295 -34.54452 
L 89.935627 -34.538936 
L 89.630958 -34.533511 
L 89.32629 -34.528243 
L 89.021622 -34.523129 
L 88.716953 -34.518168 
L 88.412285 -34.513357 
L 88.107617 -34.508693 
L 87.802948 -34.504176 
L 87.49828 -34.499802 
L 87.193612 -34.495569 
L 86.888943 -34.491474 
L 86.584275 -34.487517 
L 86.279607 -34.483693 
L 85.974939 -34.480002 
L 85.67027 -34.476441 
L 85.365602 -34.473007 
L 85.060934 -34.469698 
L 84.756265 -34.466512 
L 84.451597 -34.463447 
L 84.146929 -34.4605 
L 83.84226 -34.45767 
L 83.537592 -34.454953 
L 83.232924 -34.452347 
L 82.928256 -34.449851 
L 82.623587 -34.447461 
L 82.318919 -34.445176 
L 82.014251 -34.442993 
L 81.709582 -34.440911 
L 81.404914 -34.438926 
L 81.100246 -34.437036 
L 80.795577 -34.435239 
L 80.490909 -34.433532 
L 80.186241 -34.431914 
L 79.881572 -34.430383 
L 79.576904 -34.428934 
L 79.272236 -34.427567 
L 78.967568 -34.426279 
L 78.662899 -34.425068 
L 78.358231 -34.423931 
L 78.053563 -34.422866 
L 77.748894 -34.421871 
L 77.444226 -34.420943 
L 77.139558 -34.42008 
L 76.834889 -34.419279 
L 76.530221 -34.418539 
L 76.225553 -34.417857 
L 75.920885 -34.41723 
L 75.616216 -34.416656 
L 75.311548 -34.416134 
L 75.00688 -34.41566 
L 74.702211 -34.415232 
L 74.397543 -34.414847 
L 74.092875 -34.414505 
L 73.788206 -34.414201 
L 73.483538 -34.413934 
L 73.17887 -34.413701 
L 72.874201 -34.413501 
L 72.569533 -34.41333 
L 72.264865 -34.413186 
L 71.960197 -34.413067 
L 71.655528 -34.412971 
L 71.35086 -34.412894 
L 71.046192 -34.412836 
L 70.741523 -34.412793 
L 70.436855 -34.412763 
L 70.132187 -34.412744 
L 69.827518 -34.412733 
L 69.52285 -34.412729 
L 69.218182 -34.412727 
z
" id="m6b8afeb2e9" style="stroke:#008000;stroke-opacity:0.3;"/>
    </defs>
    <g clip-path="url(#p5a9d56ab4c)">
     <use style="fill:#008000;fill-opacity:0.3;stroke:#008000;stroke-opacity:0.3;" x="0" xlink:href="#m6b8afeb2e9" y="216"/>
    </g>
   </g>
   <g id="matplotlib.axis_1">
    <g id="xtick_1">
     <g id="line2d_1">
      <defs>
       <path d="M 0 0 
L 0 3.5 
" id="m7ae7f6bdb3" style="stroke:#000000;stroke-width:0.8;"/>
      </defs>
      <g>
       <use style="stroke:#000000;stroke-width:0.8;" x="69.218182" xlink:href="#m7ae7f6bdb3" y="189"/>
      </g>
     </g>
     <g id="text_1">
      <!-- 0 -->
      <g transform="translate(66.036932 203.598437)scale(0.1 -0.1)">
       <defs>
        <path d="M 31.78125 66.40625 
Q 24.171875 66.40625 20.328125 58.90625 
Q 16.5 51.421875 16.5 36.375 
Q 16.5 21.390625 20.328125 13.890625 
Q 24.171875 6.390625 31.78125 6.390625 
Q 39.453125 6.390625 43.28125 13.890625 
Q 47.125 21.390625 47.125 36.375 
Q 47.125 51.421875 43.28125 58.90625 
Q 39.453125 66.40625 31.78125 66.40625 
z
M 31.78125 74.21875 
Q 44.046875 74.21875 50.515625 64.515625 
Q 56.984375 54.828125 56.984375 36.375 
Q 56.984375 17.96875 50.515625 8.265625 
Q 44.046875 -1.421875 31.78125 -1.421875 
Q 19.53125 -1.421875 13.0625 8.265625 
Q 6.59375 17.96875 6.59375 36.375 
Q 6.59375 54.828125 13.0625 64.515625 
Q 19.53125 74.21875 31.78125 74.21875 
z
" id="DejaVuSans-48"/>
       </defs>
       <use xlink:href="#DejaVuSans-48"/>
      </g>
     </g>
    </g>
    <g id="xtick_2">
     <g id="line2d_2">
      <g>
       <use style="stroke:#000000;stroke-width:0.8;" x="130.151843" xlink:href="#m7ae7f6bdb3" y="189"/>
      </g>
     </g>
     <g id="text_2">
      <!-- 200 -->
      <g transform="translate(120.608093 203.598437)scale(0.1 -0.1)">
       <defs>
        <path d="M 19.1875 8.296875 
L 53.609375 8.296875 
L 53.609375 0 
L 7.328125 0 
L 7.328125 8.296875 
Q 12.9375 14.109375 22.625 23.890625 
Q 32.328125 33.6875 34.8125 36.53125 
Q 39.546875 41.84375 41.421875 45.53125 
Q 43.3125 49.21875 43.3125 52.78125 
Q 43.3125 58.59375 39.234375 62.25 
Q 35.15625 65.921875 28.609375 65.921875 
Q 23.96875 65.921875 18.8125 64.3125 
Q 13.671875 62.703125 7.8125 59.421875 
L 7.8125 69.390625 
Q 13.765625 71.78125 18.9375 73 
Q 24.125 74.21875 28.421875 74.21875 
Q 39.75 74.21875 46.484375 68.546875 
Q 53.21875 62.890625 53.21875 53.421875 
Q 53.21875 48.921875 51.53125 44.890625 
Q 49.859375 40.875 45.40625 35.40625 
Q 44.1875 33.984375 37.640625 27.21875 
Q 31.109375 20.453125 19.1875 8.296875 
z
" id="DejaVuSans-50"/>
       </defs>
       <use xlink:href="#DejaVuSans-50"/>
       <use x="63.623047" xlink:href="#DejaVuSans-48"/>
       <use x="127.246094" xlink:href="#DejaVuSans-48"/>
      </g>
     </g>
    </g>
    <g id="xtick_3">
     <g id="line2d_3">
      <g>
       <use style="stroke:#000000;stroke-width:0.8;" x="191.085504" xlink:href="#m7ae7f6bdb3" y="189"/>
      </g>
     </g>
     <g id="text_3">
      <!-- 400 -->
      <g transform="translate(181.541754 203.598437)scale(0.1 -0.1)">
       <defs>
        <path d="M 37.796875 64.3125 
L 12.890625 25.390625 
L 37.796875 25.390625 
z
M 35.203125 72.90625 
L 47.609375 72.90625 
L 47.609375 25.390625 
L 58.015625 25.390625 
L 58.015625 17.1875 
L 47.609375 17.1875 
L 47.609375 0 
L 37.796875 0 
L 37.796875 17.1875 
L 4.890625 17.1875 
L 4.890625 26.703125 
z
" id="DejaVuSans-52"/>
       </defs>
       <use xlink:href="#DejaVuSans-52"/>
       <use x="63.623047" xlink:href="#DejaVuSans-48"/>
       <use x="127.246094" xlink:href="#DejaVuSans-48"/>
      </g>
     </g>
    </g>
    <g id="xtick_4">
     <g id="line2d_4">
      <g>
       <use style="stroke:#000000;stroke-width:0.8;" x="252.019165" xlink:href="#m7ae7f6bdb3" y="189"/>
      </g>
     </g>
     <g id="text_4">
      <!-- 600 -->
      <g transform="translate(242.475415 203.598437)scale(0.1 -0.1)">
       <defs>
        <path d="M 33.015625 40.375 
Q 26.375 40.375 22.484375 35.828125 
Q 18.609375 31.296875 18.609375 23.390625 
Q 18.609375 15.53125 22.484375 10.953125 
Q 26.375 6.390625 33.015625 6.390625 
Q 39.65625 6.390625 43.53125 10.953125 
Q 47.40625 15.53125 47.40625 23.390625 
Q 47.40625 31.296875 43.53125 35.828125 
Q 39.65625 40.375 33.015625 40.375 
z
M 52.59375 71.296875 
L 52.59375 62.3125 
Q 48.875 64.0625 45.09375 64.984375 
Q 41.3125 65.921875 37.59375 65.921875 
Q 27.828125 65.921875 22.671875 59.328125 
Q 17.53125 52.734375 16.796875 39.40625 
Q 19.671875 43.65625 24.015625 45.921875 
Q 28.375 48.1875 33.59375 48.1875 
Q 44.578125 48.1875 50.953125 41.515625 
Q 57.328125 34.859375 57.328125 23.390625 
Q 57.328125 12.15625 50.6875 5.359375 
Q 44.046875 -1.421875 33.015625 -1.421875 
Q 20.359375 -1.421875 13.671875 8.265625 
Q 6.984375 17.96875 6.984375 36.375 
Q 6.984375 53.65625 15.1875 63.9375 
Q 23.390625 74.21875 37.203125 74.21875 
Q 40.921875 74.21875 44.703125 73.484375 
Q 48.484375 72.75 52.59375 71.296875 
z
" id="DejaVuSans-54"/>
       </defs>
       <use xlink:href="#DejaVuSans-54"/>
       <use x="63.623047" xlink:href="#DejaVuSans-48"/>
       <use x="127.246094" xlink:href="#DejaVuSans-48"/>
      </g>
     </g>
    </g>
    <g id="xtick_5">
     <g id="line2d_5">
      <g>
       <use style="stroke:#000000;stroke-width:0.8;" x="312.952826" xlink:href="#m7ae7f6bdb3" y="189"/>
      </g>
     </g>
     <g id="text_5">
      <!-- 800 -->
      <g transform="translate(303.409076 203.598437)scale(0.1 -0.1)">
       <defs>
        <path d="M 31.78125 34.625 
Q 24.75 34.625 20.71875 30.859375 
Q 16.703125 27.09375 16.703125 20.515625 
Q 16.703125 13.921875 20.71875 10.15625 
Q 24.75 6.390625 31.78125 6.390625 
Q 38.8125 6.390625 42.859375 10.171875 
Q 46.921875 13.96875 46.921875 20.515625 
Q 46.921875 27.09375 42.890625 30.859375 
Q 38.875 34.625 31.78125 34.625 
z
M 21.921875 38.8125 
Q 15.578125 40.375 12.03125 44.71875 
Q 8.5 49.078125 8.5 55.328125 
Q 8.5 64.0625 14.71875 69.140625 
Q 20.953125 74.21875 31.78125 74.21875 
Q 42.671875 74.21875 48.875 69.140625 
Q 55.078125 64.0625 55.078125 55.328125 
Q 55.078125 49.078125 51.53125 44.71875 
Q 48 40.375 41.703125 38.8125 
Q 48.828125 37.15625 52.796875 32.3125 
Q 56.78125 27.484375 56.78125 20.515625 
Q 56.78125 9.90625 50.3125 4.234375 
Q 43.84375 -1.421875 31.78125 -1.421875 
Q 19.734375 -1.421875 13.25 4.234375 
Q 6.78125 9.90625 6.78125 20.515625 
Q 6.78125 27.484375 10.78125 32.3125 
Q 14.796875 37.15625 21.921875 38.8125 
z
M 18.3125 54.390625 
Q 18.3125 48.734375 21.84375 45.5625 
Q 25.390625 42.390625 31.78125 42.390625 
Q 38.140625 42.390625 41.71875 45.5625 
Q 45.3125 48.734375 45.3125 54.390625 
Q 45.3125 60.0625 41.71875 63.234375 
Q 38.140625 66.40625 31.78125 66.40625 
Q 25.390625 66.40625 21.84375 63.234375 
Q 18.3125 60.0625 18.3125 54.390625 
z
" id="DejaVuSans-56"/>
       </defs>
       <use xlink:href="#DejaVuSans-56"/>
       <use x="63.623047" xlink:href="#DejaVuSans-48"/>
       <use x="127.246094" xlink:href="#DejaVuSans-48"/>
      </g>
     </g>
    </g>
    <g id="xtick_6">
     <g id="line2d_6">
      <g>
       <use style="stroke:#000000;stroke-width:0.8;" x="373.886486" xlink:href="#m7ae7f6bdb3" y="189"/>
      </g>
     </g>
     <g id="text_6">
      <!-- 1000 -->
      <g transform="translate(361.161486 203.598437)scale(0.1 -0.1)">
       <defs>
        <path d="M 12.40625 8.296875 
L 28.515625 8.296875 
L 28.515625 63.921875 
L 10.984375 60.40625 
L 10.984375 69.390625 
L 28.421875 72.90625 
L 38.28125 72.90625 
L 38.28125 8.296875 
L 54.390625 8.296875 
L 54.390625 0 
L 12.40625 0 
z
" id="DejaVuSans-49"/>
       </defs>
       <use xlink:href="#DejaVuSans-49"/>
       <use x="63.623047" xlink:href="#DejaVuSans-48"/>
       <use x="127.246094" xlink:href="#DejaVuSans-48"/>
       <use x="190.869141" xlink:href="#DejaVuSans-48"/>
      </g>
     </g>
    </g>
    <g id="text_7">
     <!-- Iteration -->
     <g transform="translate(200.191406 217.276563)scale(0.1 -0.1)">
      <defs>
       <path d="M 9.8125 72.90625 
L 19.671875 72.90625 
L 19.671875 0 
L 9.8125 0 
z
" id="DejaVuSans-73"/>
       <path d="M 18.3125 70.21875 
L 18.3125 54.6875 
L 36.8125 54.6875 
L 36.8125 47.703125 
L 18.3125 47.703125 
L 18.3125 18.015625 
Q 18.3125 11.328125 20.140625 9.421875 
Q 21.96875 7.515625 27.59375 7.515625 
L 36.8125 7.515625 
L 36.8125 0 
L 27.59375 0 
Q 17.1875 0 13.234375 3.875 
Q 9.28125 7.765625 9.28125 18.015625 
L 9.28125 47.703125 
L 2.6875 47.703125 
L 2.6875 54.6875 
L 9.28125 54.6875 
L 9.28125 70.21875 
z
" id="DejaVuSans-116"/>
       <path d="M 56.203125 29.59375 
L 56.203125 25.203125 
L 14.890625 25.203125 
Q 15.484375 15.921875 20.484375 11.0625 
Q 25.484375 6.203125 34.421875 6.203125 
Q 39.59375 6.203125 44.453125 7.46875 
Q 49.3125 8.734375 54.109375 11.28125 
L 54.109375 2.78125 
Q 49.265625 0.734375 44.1875 -0.34375 
Q 39.109375 -1.421875 33.890625 -1.421875 
Q 20.796875 -1.421875 13.15625 6.1875 
Q 5.515625 13.8125 5.515625 26.8125 
Q 5.515625 40.234375 12.765625 48.109375 
Q 20.015625 56 32.328125 56 
Q 43.359375 56 49.78125 48.890625 
Q 56.203125 41.796875 56.203125 29.59375 
z
M 47.21875 32.234375 
Q 47.125 39.59375 43.09375 43.984375 
Q 39.0625 48.390625 32.421875 48.390625 
Q 24.90625 48.390625 20.390625 44.140625 
Q 15.875 39.890625 15.1875 32.171875 
z
" id="DejaVuSans-101"/>
       <path d="M 41.109375 46.296875 
Q 39.59375 47.171875 37.8125 47.578125 
Q 36.03125 48 33.890625 48 
Q 26.265625 48 22.1875 43.046875 
Q 18.109375 38.09375 18.109375 28.8125 
L 18.109375 0 
L 9.078125 0 
L 9.078125 54.6875 
L 18.109375 54.6875 
L 18.109375 46.1875 
Q 20.953125 51.171875 25.484375 53.578125 
Q 30.03125 56 36.53125 56 
Q 37.453125 56 38.578125 55.875 
Q 39.703125 55.765625 41.0625 55.515625 
z
" id="DejaVuSans-114"/>
       <path d="M 34.28125 27.484375 
Q 23.390625 27.484375 19.1875 25 
Q 14.984375 22.515625 14.984375 16.5 
Q 14.984375 11.71875 18.140625 8.90625 
Q 21.296875 6.109375 26.703125 6.109375 
Q 34.1875 6.109375 38.703125 11.40625 
Q 43.21875 16.703125 43.21875 25.484375 
L 43.21875 27.484375 
z
M 52.203125 31.203125 
L 52.203125 0 
L 43.21875 0 
L 43.21875 8.296875 
Q 40.140625 3.328125 35.546875 0.953125 
Q 30.953125 -1.421875 24.3125 -1.421875 
Q 15.921875 -1.421875 10.953125 3.296875 
Q 6 8.015625 6 15.921875 
Q 6 25.140625 12.171875 29.828125 
Q 18.359375 34.515625 30.609375 34.515625 
L 43.21875 34.515625 
L 43.21875 35.40625 
Q 43.21875 41.609375 39.140625 45 
Q 35.0625 48.390625 27.6875 48.390625 
Q 23 48.390625 18.546875 47.265625 
Q 14.109375 46.140625 10.015625 43.890625 
L 10.015625 52.203125 
Q 14.9375 54.109375 19.578125 55.046875 
Q 24.21875 56 28.609375 56 
Q 40.484375 56 46.34375 49.84375 
Q 52.203125 43.703125 52.203125 31.203125 
z
" id="DejaVuSans-97"/>
       <path d="M 9.421875 54.6875 
L 18.40625 54.6875 
L 18.40625 0 
L 9.421875 0 
z
M 9.421875 75.984375 
L 18.40625 75.984375 
L 18.40625 64.59375 
L 9.421875 64.59375 
z
" id="DejaVuSans-105"/>
       <path d="M 30.609375 48.390625 
Q 23.390625 48.390625 19.1875 42.75 
Q 14.984375 37.109375 14.984375 27.296875 
Q 14.984375 17.484375 19.15625 11.84375 
Q 23.34375 6.203125 30.609375 6.203125 
Q 37.796875 6.203125 41.984375 11.859375 
Q 46.1875 17.53125 46.1875 27.296875 
Q 46.1875 37.015625 41.984375 42.703125 
Q 37.796875 48.390625 30.609375 48.390625 
z
M 30.609375 56 
Q 42.328125 56 49.015625 48.375 
Q 55.71875 40.765625 55.71875 27.296875 
Q 55.71875 13.875 49.015625 6.21875 
Q 42.328125 -1.421875 30.609375 -1.421875 
Q 18.84375 -1.421875 12.171875 6.21875 
Q 5.515625 13.875 5.515625 27.296875 
Q 5.515625 40.765625 12.171875 48.375 
Q 18.84375 56 30.609375 56 
z
" id="DejaVuSans-111"/>
       <path d="M 54.890625 33.015625 
L 54.890625 0 
L 45.90625 0 
L 45.90625 32.71875 
Q 45.90625 40.484375 42.875 44.328125 
Q 39.84375 48.1875 33.796875 48.1875 
Q 26.515625 48.1875 22.3125 43.546875 
Q 18.109375 38.921875 18.109375 30.90625 
L 18.109375 0 
L 9.078125 0 
L 9.078125 54.6875 
L 18.109375 54.6875 
L 18.109375 46.1875 
Q 21.34375 51.125 25.703125 53.5625 
Q 30.078125 56 35.796875 56 
Q 45.21875 56 50.046875 50.171875 
Q 54.890625 44.34375 54.890625 33.015625 
z
" id="DejaVuSans-110"/>
      </defs>
      <use xlink:href="#DejaVuSans-73"/>
      <use x="29.492188" xlink:href="#DejaVuSans-116"/>
      <use x="68.701172" xlink:href="#DejaVuSans-101"/>
      <use x="130.224609" xlink:href="#DejaVuSans-114"/>
      <use x="171.337891" xlink:href="#DejaVuSans-97"/>
      <use x="232.617188" xlink:href="#DejaVuSans-116"/>
      <use x="271.826172" xlink:href="#DejaVuSans-105"/>
      <use x="299.609375" xlink:href="#DejaVuSans-111"/>
      <use x="360.791016" xlink:href="#DejaVuSans-110"/>
     </g>
    </g>
   </g>
   <g id="matplotlib.axis_2">
    <g id="ytick_1">
     <g id="line2d_7">
      <defs>
       <path d="M 0 0 
L -3.5 0 
" id="m040fb69469" style="stroke:#000000;stroke-width:0.8;"/>
      </defs>
      <g>
       <use style="stroke:#000000;stroke-width:0.8;" x="54" xlink:href="#m040fb69469" y="187.545078"/>
      </g>
     </g>
     <g id="text_8">
      <!-- 0.25 -->
      <g transform="translate(16.354687 191.344297)scale(0.1 -0.1)">
       <defs>
        <path d="M 10.59375 35.5 
L 73.1875 35.5 
L 73.1875 27.203125 
L 10.59375 27.203125 
z
" id="DejaVuSans-8722"/>
        <path d="M 10.6875 12.40625 
L 21 12.40625 
L 21 0 
L 10.6875 0 
z
" id="DejaVuSans-46"/>
        <path d="M 10.796875 72.90625 
L 49.515625 72.90625 
L 49.515625 64.59375 
L 19.828125 64.59375 
L 19.828125 46.734375 
Q 21.96875 47.46875 24.109375 47.828125 
Q 26.265625 48.1875 28.421875 48.1875 
Q 40.625 48.1875 47.75 41.5 
Q 54.890625 34.8125 54.890625 23.390625 
Q 54.890625 11.625 47.5625 5.09375 
Q 40.234375 -1.421875 26.90625 -1.421875 
Q 22.3125 -1.421875 17.546875 -0.640625 
Q 12.796875 0.140625 7.71875 1.703125 
L 7.71875 11.625 
Q 12.109375 9.234375 16.796875 8.0625 
Q 21.484375 6.890625 26.703125 6.890625 
Q 35.15625 6.890625 40.078125 11.328125 
Q 45.015625 15.765625 45.015625 23.390625 
Q 45.015625 31 40.078125 35.4375 
Q 35.15625 39.890625 26.703125 39.890625 
Q 22.75 39.890625 18.8125 39.015625 
Q 14.890625 38.140625 10.796875 36.28125 
z
" id="DejaVuSans-53"/>
       </defs>
       <use xlink:href="#DejaVuSans-8722"/>
       <use x="83.789062" xlink:href="#DejaVuSans-48"/>
       <use x="147.412109" xlink:href="#DejaVuSans-46"/>
       <use x="179.199219" xlink:href="#DejaVuSans-50"/>
       <use x="242.822266" xlink:href="#DejaVuSans-53"/>
      </g>
     </g>
    </g>
    <g id="ytick_2">
     <g id="line2d_8">
      <g>
       <use style="stroke:#000000;stroke-width:0.8;" x="54" xlink:href="#m040fb69469" y="163.870451"/>
      </g>
     </g>
     <g id="text_9">
      <!-- 0.00 -->
      <g transform="translate(24.734375 167.66967)scale(0.1 -0.1)">
       <use xlink:href="#DejaVuSans-48"/>
       <use x="63.623047" xlink:href="#DejaVuSans-46"/>
       <use x="95.410156" xlink:href="#DejaVuSans-48"/>
       <use x="159.033203" xlink:href="#DejaVuSans-48"/>
      </g>
     </g>
    </g>
    <g id="ytick_3">
     <g id="line2d_9">
      <g>
       <use style="stroke:#000000;stroke-width:0.8;" x="54" xlink:href="#m040fb69469" y="140.195824"/>
      </g>
     </g>
     <g id="text_10">
      <!-- 0.25 -->
      <g transform="translate(24.734375 143.995043)scale(0.1 -0.1)">
       <use xlink:href="#DejaVuSans-48"/>
       <use x="63.623047" xlink:href="#DejaVuSans-46"/>
       <use x="95.410156" xlink:href="#DejaVuSans-50"/>
       <use x="159.033203" xlink:href="#DejaVuSans-53"/>
      </g>
     </g>
    </g>
    <g id="ytick_4">
     <g id="line2d_10">
      <g>
       <use style="stroke:#000000;stroke-width:0.8;" x="54" xlink:href="#m040fb69469" y="116.521197"/>
      </g>
     </g>
     <g id="text_11">
      <!-- 0.50 -->
      <g transform="translate(24.734375 120.320416)scale(0.1 -0.1)">
       <use xlink:href="#DejaVuSans-48"/>
       <use x="63.623047" xlink:href="#DejaVuSans-46"/>
       <use x="95.410156" xlink:href="#DejaVuSans-53"/>
       <use x="159.033203" xlink:href="#DejaVuSans-48"/>
      </g>
     </g>
    </g>
    <g id="ytick_5">
     <g id="line2d_11">
      <g>
       <use style="stroke:#000000;stroke-width:0.8;" x="54" xlink:href="#m040fb69469" y="92.84657"/>
      </g>
     </g>
     <g id="text_12">
      <!-- 0.75 -->
      <g transform="translate(24.734375 96.645789)scale(0.1 -0.1)">
       <defs>
        <path d="M 8.203125 72.90625 
L 55.078125 72.90625 
L 55.078125 68.703125 
L 28.609375 0 
L 18.3125 0 
L 43.21875 64.59375 
L 8.203125 64.59375 
z
" id="DejaVuSans-55"/>
       </defs>
       <use xlink:href="#DejaVuSans-48"/>
       <use x="63.623047" xlink:href="#DejaVuSans-46"/>
       <use x="95.410156" xlink:href="#DejaVuSans-55"/>
       <use x="159.033203" xlink:href="#DejaVuSans-53"/>
      </g>
     </g>
    </g>
    <g id="ytick_6">
     <g id="line2d_12">
      <g>
       <use style="stroke:#000000;stroke-width:0.8;" x="54" xlink:href="#m040fb69469" y="69.171943"/>
      </g>
     </g>
     <g id="text_13">
      <!-- 1.00 -->
      <g transform="translate(24.734375 72.971162)scale(0.1 -0.1)">
       <use xlink:href="#DejaVuSans-49"/>
       <use x="63.623047" xlink:href="#DejaVuSans-46"/>
       <use x="95.410156" xlink:href="#DejaVuSans-48"/>
       <use x="159.033203" xlink:href="#DejaVuSans-48"/>
      </g>
     </g>
    </g>
    <g id="ytick_7">
     <g id="line2d_13">
      <g>
       <use style="stroke:#000000;stroke-width:0.8;" x="54" xlink:href="#m040fb69469" y="45.497316"/>
      </g>
     </g>
     <g id="text_14">
      <!-- 1.25 -->
      <g transform="translate(24.734375 49.296535)scale(0.1 -0.1)">
       <use xlink:href="#DejaVuSans-49"/>
       <use x="63.623047" xlink:href="#DejaVuSans-46"/>
       <use x="95.410156" xlink:href="#DejaVuSans-50"/>
       <use x="159.033203" xlink:href="#DejaVuSans-53"/>
      </g>
     </g>
    </g>
    <g id="text_15">
     <!-- E[$\psi_x$] -->
     <g transform="translate(10.254687 120.06)rotate(-90)scale(0.1 -0.1)">
      <defs>
       <path d="M 9.8125 72.90625 
L 55.90625 72.90625 
L 55.90625 64.59375 
L 19.671875 64.59375 
L 19.671875 43.015625 
L 54.390625 43.015625 
L 54.390625 34.71875 
L 19.671875 34.71875 
L 19.671875 8.296875 
L 56.78125 8.296875 
L 56.78125 0 
L 9.8125 0 
z
" id="DejaVuSans-69"/>
       <path d="M 8.59375 75.984375 
L 29.296875 75.984375 
L 29.296875 69 
L 17.578125 69 
L 17.578125 -6.203125 
L 29.296875 -6.203125 
L 29.296875 -13.1875 
L 8.59375 -13.1875 
z
" id="DejaVuSans-91"/>
       <path d="M 24.859375 -1.21875 
Q 13.921875 0.59375 9.625 5.328125 
Q 4.34375 11.140625 6.640625 23 
L 12.796875 54.6875 
L 21.875 54.6875 
L 15.765625 23.34375 
Q 14.0625 14.40625 17.484375 10.6875 
Q 20.515625 7.46875 26.421875 6.78125 
L 35.6875 54.6875 
L 44.625 54.6875 
L 35.359375 6.84375 
Q 41.890625 7.515625 45.75 10.75 
Q 50.734375 14.84375 52.390625 23.390625 
L 58.453125 54.6875 
L 67.53125 54.6875 
L 61.375 23.046875 
Q 58.984375 10.75 51.5625 5.375 
Q 44.875 0.53125 33.796875 -1.171875 
L 29.984375 -20.796875 
L 21.046875 -20.796875 
z
" id="DejaVuSans-Oblique-968"/>
       <path d="M 60.015625 54.6875 
L 34.90625 27.875 
L 50.296875 0 
L 39.984375 0 
L 28.421875 21.6875 
L 8.296875 0 
L -2.59375 0 
L 24.3125 28.8125 
L 10.015625 54.6875 
L 20.3125 54.6875 
L 30.8125 34.90625 
L 49.125 54.6875 
z
" id="DejaVuSans-Oblique-120"/>
       <path d="M 30.421875 75.984375 
L 30.421875 -13.1875 
L 9.71875 -13.1875 
L 9.71875 -6.203125 
L 21.390625 -6.203125 
L 21.390625 69 
L 9.71875 69 
L 9.71875 75.984375 
z
" id="DejaVuSans-93"/>
      </defs>
      <use transform="translate(0 0.015625)" xlink:href="#DejaVuSans-69"/>
      <use transform="translate(63.183594 0.015625)" xlink:href="#DejaVuSans-91"/>
      <use transform="translate(102.197266 0.015625)" xlink:href="#DejaVuSans-Oblique-968"/>
      <use transform="translate(168.164062 -16.390625)scale(0.7)" xlink:href="#DejaVuSans-Oblique-120"/>
      <use transform="translate(212.324219 0.015625)" xlink:href="#DejaVuSans-93"/>
     </g>
    </g>
   </g>
   <g id="line2d_14">
    <path clip-path="url(#p5a9d56ab4c)" d="M 69.218182 163.870451 
L 89.021622 163.760148 
L 99.685012 163.474883 
L 108.825061 163.011846 
L 117.051106 162.375668 
L 124.667813 161.569522 
L 131.979853 160.575909 
L 138.987224 159.4044 
L 145.994595 158.004737 
L 152.697297 156.442923 
L 159.4 154.656627 
L 166.102703 152.642258 
L 172.805405 150.39898 
L 179.508108 147.928727 
L 186.515479 145.108617 
L 193.827518 141.916089 
L 201.139558 138.481527 
L 209.060934 134.507088 
L 217.286978 130.12736 
L 226.427027 124.999422 
L 236.785749 118.918088 
L 249.581818 111.129528 
L 288.274693 87.39081 
L 298.328747 81.586456 
L 307.164128 76.730656 
L 315.390172 72.456736 
L 323.00688 68.739787 
L 330.318919 65.409157 
L 337.630958 62.326785 
L 344.638329 59.616615 
L 351.341032 57.254171 
L 358.043735 55.119968 
L 364.746437 53.214621 
L 371.44914 51.535978 
L 373.581818 51.048688 
L 373.581818 51.048688 
" style="fill:none;stroke:#008000;stroke-linecap:square;stroke-width:1.5;"/>
   </g>
   <g id="patch_3">
    <path d="M 54 189 
L 54 25.92 
" style="fill:none;stroke:#000000;stroke-linecap:square;stroke-linejoin:miter;stroke-width:0.8;"/>
   </g>
   <g id="patch_4">
    <path d="M 388.8 189 
L 388.8 25.92 
" style="fill:none;stroke:#000000;stroke-linecap:square;stroke-linejoin:miter;stroke-width:0.8;"/>
   </g>
   <g id="patch_5">
    <path d="M 54 189 
L 388.8 189 
" style="fill:none;stroke:#000000;stroke-linecap:square;stroke-linejoin:miter;stroke-width:0.8;"/>
   </g>
   <g id="patch_6">
    <path d="M 54 25.92 
L 388.8 25.92 
" style="fill:none;stroke:#000000;stroke-linecap:square;stroke-linejoin:miter;stroke-width:0.8;"/>
   </g>
   <g id="text_16">
    <!-- Nx = 10000, Nt = 1000, T = 5 -->
    <g transform="translate(130.527188 19.92)scale(0.12 -0.12)">
     <defs>
      <path d="M 9.8125 72.90625 
L 23.09375 72.90625 
L 55.421875 11.921875 
L 55.421875 72.90625 
L 64.984375 72.90625 
L 64.984375 0 
L 51.703125 0 
L 19.390625 60.984375 
L 19.390625 0 
L 9.8125 0 
z
" id="DejaVuSans-78"/>
      <path d="M 54.890625 54.6875 
L 35.109375 28.078125 
L 55.90625 0 
L 45.3125 0 
L 29.390625 21.484375 
L 13.484375 0 
L 2.875 0 
L 24.125 28.609375 
L 4.6875 54.6875 
L 15.28125 54.6875 
L 29.78125 35.203125 
L 44.28125 54.6875 
z
" id="DejaVuSans-120"/>
      <path id="DejaVuSans-32"/>
      <path d="M 10.59375 45.40625 
L 73.1875 45.40625 
L 73.1875 37.203125 
L 10.59375 37.203125 
z
M 10.59375 25.484375 
L 73.1875 25.484375 
L 73.1875 17.1875 
L 10.59375 17.1875 
z
" id="DejaVuSans-61"/>
      <path d="M 11.71875 12.40625 
L 22.015625 12.40625 
L 22.015625 4 
L 14.015625 -11.625 
L 7.71875 -11.625 
L 11.71875 4 
z
" id="DejaVuSans-44"/>
      <path d="M -0.296875 72.90625 
L 61.375 72.90625 
L 61.375 64.59375 
L 35.5 64.59375 
L 35.5 0 
L 25.59375 0 
L 25.59375 64.59375 
L -0.296875 64.59375 
z
" id="DejaVuSans-84"/>
     </defs>
     <use xlink:href="#DejaVuSans-78"/>
     <use x="74.804688" xlink:href="#DejaVuSans-120"/>
     <use x="133.984375" xlink:href="#DejaVuSans-32"/>
     <use x="165.771484" xlink:href="#DejaVuSans-61"/>
     <use x="249.560547" xlink:href="#DejaVuSans-32"/>
     <use x="281.347656" xlink:href="#DejaVuSans-49"/>
     <use x="344.970703" xlink:href="#DejaVuSans-48"/>
     <use x="408.59375" xlink:href="#DejaVuSans-48"/>
     <use x="472.216797" xlink:href="#DejaVuSans-48"/>
     <use x="535.839844" xlink:href="#DejaVuSans-48"/>
     <use x="599.462891" xlink:href="#DejaVuSans-44"/>
     <use x="631.25" xlink:href="#DejaVuSans-32"/>
     <use x="663.037109" xlink:href="#DejaVuSans-78"/>
     <use x="737.841797" xlink:href="#DejaVuSans-116"/>
     <use x="777.050781" xlink:href="#DejaVuSans-32"/>
     <use x="808.837891" xlink:href="#DejaVuSans-61"/>
     <use x="892.626953" xlink:href="#DejaVuSans-32"/>
     <use x="924.414062" xlink:href="#DejaVuSans-49"/>
     <use x="988.037109" xlink:href="#DejaVuSans-48"/>
     <use x="1051.660156" xlink:href="#DejaVuSans-48"/>
     <use x="1115.283203" xlink:href="#DejaVuSans-48"/>
     <use x="1178.90625" xlink:href="#DejaVuSans-44"/>
     <use x="1210.693359" xlink:href="#DejaVuSans-32"/>
     <use x="1242.480469" xlink:href="#DejaVuSans-84"/>
     <use x="1303.564453" xlink:href="#DejaVuSans-32"/>
     <use x="1335.351562" xlink:href="#DejaVuSans-61"/>
     <use x="1419.140625" xlink:href="#DejaVuSans-32"/>
     <use x="1450.927734" xlink:href="#DejaVuSans-53"/>
    </g>
   </g>
  </g>
 </g>
 <defs>
  <clipPath id="p5a9d56ab4c">
   <rect height="163.08" width="334.8" x="54" y="25.92"/>
  </clipPath>
 </defs>
</svg>
