<?xml version="1.0" encoding="utf-8" standalone="no"?>
<!DOCTYPE svg PUBLIC "-//W3C//DTD SVG 1.1//EN"
  "http://www.w3.org/Graphics/SVG/1.1/DTD/svg11.dtd">
<!-- Created with matplotlib (https://matplotlib.org/) -->
<svg height="216pt" version="1.1" viewBox="0 0 432 216" width="432pt" xmlns="http://www.w3.org/2000/svg" xmlns:xlink="http://www.w3.org/1999/xlink">
 <metadata>
  <rdf:RDF xmlns:cc="http://creativecommons.org/ns#" xmlns:dc="http://purl.org/dc/elements/1.1/" xmlns:rdf="http://www.w3.org/1999/02/22-rdf-syntax-ns#">
   <cc:Work>
    <dc:type rdf:resource="http://purl.org/dc/dcmitype/StillImage"/>
    <dc:date>2021-11-28T14:29:49.159655</dc:date>
    <dc:format>image/svg+xml</dc:format>
    <dc:creator>
     <cc:Agent>
      <dc:title>Matplotlib v3.3.4, https://matplotlib.org/</dc:title>
     </cc:Agent>
    </dc:creator>
   </cc:Work>
  </rdf:RDF>
 </metadata>
 <defs>
  <style type="text/css">*{stroke-linecap:butt;stroke-linejoin:round;}</style>
 </defs>
 <g id="figure_1">
  <g id="patch_1">
   <path d="M 0 216 
L 432 216 
L 432 0 
L 0 0 
z
" style="fill:none;"/>
  </g>
  <g id="axes_1">
   <g id="patch_2">
    <path d="M 54 189 
L 388.8 189 
L 388.8 25.92 
L 54 25.92 
z
" style="fill:#ffffff;"/>
   </g>
   <g id="PolyCollection_1">
    <defs>
     <path d="M 69.218182 -34.435677 
L 69.218182 -36.00531 
L 69.52285 -36.189333 
L 69.827518 -36.556799 
L 70.132187 -37.106785 
L 70.436855 -37.837912 
L 70.741523 -38.748345 
L 71.046192 -39.835801 
L 71.35086 -41.097551 
L 71.655528 -42.530427 
L 71.960197 -44.130834 
L 72.264865 -45.894753 
L 72.569533 -47.817753 
L 72.874201 -49.895005 
L 73.17887 -52.121288 
L 73.483538 -54.491008 
L 73.788206 -56.998207 
L 74.092875 -59.63658 
L 74.397543 -62.399493 
L 74.702211 -65.279995 
L 75.00688 -68.27084 
L 75.311548 -71.364502 
L 75.616216 -74.553197 
L 75.920885 -77.828902 
L 76.225553 -81.183372 
L 76.530221 -84.608169 
L 76.834889 -88.094677 
L 77.139558 -91.634125 
L 77.444226 -95.217615 
L 77.748894 -98.836136 
L 78.053563 -102.480598 
L 78.358231 -106.141845 
L 78.662899 -109.810688 
L 78.967568 -113.477921 
L 79.272236 -117.134349 
L 79.576904 -120.770811 
L 79.881572 -124.378204 
L 80.186241 -127.947504 
L 80.490909 -131.46979 
L 80.795577 -134.936268 
L 81.100246 -138.338291 
L 81.404914 -141.667382 
L 81.709582 -144.915253 
L 82.014251 -148.073829 
L 82.318919 -151.135265 
L 82.623587 -154.091965 
L 82.928256 -156.936601 
L 83.232924 -159.662132 
L 83.537592 -162.261819 
L 83.84226 -164.72924 
L 84.146929 -167.058307 
L 84.451597 -169.243279 
L 84.756265 -171.278775 
L 85.060934 -173.159789 
L 85.365602 -174.881697 
L 85.67027 -176.440269 
L 85.974939 -177.83168 
L 86.279607 -179.052518 
L 86.584275 -180.09979 
L 86.888943 -180.97093 
L 87.193612 -181.663804 
L 87.49828 -182.176713 
L 87.802948 -182.508403 
L 88.107617 -182.658058 
L 88.412285 -182.625311 
L 88.716953 -182.410239 
L 89.021622 -182.013365 
L 89.32629 -181.435657 
L 89.630958 -180.678527 
L 89.935627 -179.743823 
L 90.240295 -178.633831 
L 90.544963 -177.351269 
L 90.849631 -175.899278 
L 91.1543 -174.281416 
L 91.458968 -172.501654 
L 91.763636 -170.564361 
L 92.068305 -168.474301 
L 92.372973 -166.236617 
L 92.677641 -163.85682 
L 92.98231 -161.340779 
L 93.286978 -158.694707 
L 93.591646 -155.925143 
L 93.896314 -153.03894 
L 94.200983 -150.04325 
L 94.505651 -146.945502 
L 94.810319 -143.753389 
L 95.114988 -140.474846 
L 95.419656 -137.118033 
L 95.724324 -133.691312 
L 96.028993 -130.20323 
L 96.333661 -126.662495 
L 96.638329 -123.077955 
L 96.942998 -119.458576 
L 97.247666 -115.813417 
L 97.552334 -112.151611 
L 97.857002 -108.482338 
L 98.161671 -104.814804 
L 98.466339 -101.158213 
L 98.771007 -97.52175 
L 99.075676 -93.914553 
L 99.380344 -90.345687 
L 99.685012 -86.824127 
L 99.989681 -83.358729 
L 100.294349 -79.958212 
L 100.599017 -76.63113 
L 100.903686 -73.385855 
L 101.208354 -70.230551 
L 101.513022 -67.173159 
L 101.81769 -64.221369 
L 102.122359 -61.382608 
L 102.427027 -58.664015 
L 102.731695 -56.072427 
L 103.036364 -53.614359 
L 103.341032 -51.29599 
L 103.6457 -49.123147 
L 103.950369 -47.101287 
L 104.255037 -45.23549 
L 104.559705 -43.53044 
L 104.864373 -41.990418 
L 105.169042 -40.619289 
L 105.47371 -39.420493 
L 105.778378 -38.397038 
L 106.083047 -37.551491 
L 106.387715 -36.885972 
L 106.692383 -36.402149 
L 106.997052 -36.101237 
L 107.30172 -35.983988 
L 107.606388 -36.050696 
L 107.911057 -36.301195 
L 108.215725 -36.734855 
L 108.520393 -37.350588 
L 108.825061 -38.146851 
L 109.12973 -39.121645 
L 109.434398 -40.272525 
L 109.739066 -41.596603 
L 110.043735 -43.090555 
L 110.348403 -44.750632 
L 110.653071 -46.572663 
L 110.95774 -48.552074 
L 111.262408 -50.68389 
L 111.567076 -52.962756 
L 111.871744 -55.382943 
L 112.176413 -57.938367 
L 112.481081 -60.6226 
L 112.785749 -63.428894 
L 113.090418 -66.350186 
L 113.395086 -69.379129 
L 113.699754 -72.508101 
L 114.004423 -75.729227 
L 114.309091 -79.034404 
L 114.613759 -82.415314 
L 114.918428 -85.863451 
L 115.223096 -89.37014 
L 115.527764 -92.926563 
L 115.832432 -96.523778 
L 116.137101 -100.152742 
L 116.441769 -103.804339 
L 116.746437 -107.469398 
L 117.051106 -111.13872 
L 117.355774 -114.803103 
L 117.660442 -118.45336 
L 117.965111 -122.080348 
L 118.269779 -125.67499 
L 118.574447 -129.228297 
L 118.879115 -132.731392 
L 119.183784 -136.17553 
L 119.488452 -139.552125 
L 119.79312 -142.852764 
L 120.097789 -146.069235 
L 120.402457 -149.193545 
L 120.707125 -152.217934 
L 121.011794 -155.134904 
L 121.316462 -157.937227 
L 121.62113 -160.617971 
L 121.925799 -163.170508 
L 122.230467 -165.588536 
L 122.535135 -167.866092 
L 122.839803 -169.997563 
L 123.144472 -171.977702 
L 123.44914 -173.80164 
L 123.753808 -175.464896 
L 124.058477 -176.963384 
L 124.363145 -178.293428 
L 124.667813 -179.451767 
L 124.972482 -180.435561 
L 125.27715 -181.242401 
L 125.581818 -181.870309 
L 125.886486 -182.317747 
L 126.191155 -182.583619 
L 126.495823 -182.667273 
L 126.800491 -182.5685 
L 127.10516 -182.287541 
L 127.409828 -181.825079 
L 127.714496 -181.182243 
L 128.019165 -180.360602 
L 128.323833 -179.362166 
L 128.628501 -178.189376 
L 128.93317 -176.845104 
L 129.237838 -175.332642 
L 129.542506 -173.655701 
L 129.847174 -171.818395 
L 130.151843 -169.825238 
L 130.456511 -167.681131 
L 130.761179 -165.391353 
L 131.065848 -162.961546 
L 131.370516 -160.397705 
L 131.675184 -157.706163 
L 131.979853 -154.893574 
L 132.284521 -151.966902 
L 132.589189 -148.933399 
L 132.893857 -145.800594 
L 133.198526 -142.576269 
L 133.503194 -139.268443 
L 133.807862 -135.88535 
L 134.112531 -132.435424 
L 134.417199 -128.927271 
L 134.721867 -125.369652 
L 135.026536 -121.771461 
L 135.331204 -118.141701 
L 135.635872 -114.489459 
L 135.940541 -110.823889 
L 136.245209 -107.154181 
L 136.549877 -103.489545 
L 136.854545 -99.839182 
L 137.159214 -96.21226 
L 137.463882 -92.617894 
L 137.76855 -89.06512 
L 138.073219 -85.562872 
L 138.377887 -82.119959 
L 138.682555 -78.745043 
L 138.987224 -75.446615 
L 139.291892 -72.232974 
L 139.59656 -69.112205 
L 139.901229 -66.092162 
L 140.205897 -63.18044 
L 140.510565 -60.384365 
L 140.815233 -57.710969 
L 141.119902 -55.166974 
L 141.42457 -52.758775 
L 141.729238 -50.492426 
L 142.033907 -48.373621 
L 142.338575 -46.407682 
L 142.643243 -44.599548 
L 142.947912 -42.953758 
L 143.25258 -41.474443 
L 143.557248 -40.165315 
L 143.861916 -39.02966 
L 144.166585 -38.070326 
L 144.471253 -37.289719 
L 144.775921 -36.689797 
L 145.08059 -36.272063 
L 145.385258 -36.037565 
L 145.689926 -35.98689 
L 145.994595 -36.120165 
L 146.299263 -36.437056 
L 146.603931 -36.936768 
L 146.9086 -37.618047 
L 147.213268 -38.479184 
L 147.517936 -39.518018 
L 147.822604 -40.731944 
L 148.127273 -42.117915 
L 148.431941 -43.672451 
L 148.736609 -45.391651 
L 149.041278 -47.271195 
L 149.345946 -49.306364 
L 149.650614 -51.492044 
L 149.955283 -53.822742 
L 150.259951 -56.292599 
L 150.564619 -58.895405 
L 150.869287 -61.624615 
L 151.173956 -64.473363 
L 151.478624 -67.434483 
L 151.783292 -70.500526 
L 152.087961 -73.663775 
L 152.392629 -76.916271 
L 152.697297 -80.24983 
L 153.001966 -83.656064 
L 153.306634 -87.126404 
L 153.611302 -90.65212 
L 153.915971 -94.224346 
L 154.220639 -97.834101 
L 154.525307 -101.472313 
L 154.829975 -105.129844 
L 155.134644 -108.797509 
L 155.439312 -112.466106 
L 155.74398 -116.126434 
L 156.048649 -119.769322 
L 156.353317 -123.385646 
L 156.657985 -126.96636 
L 156.962654 -130.502511 
L 157.267322 -133.985268 
L 157.57199 -137.405942 
L 157.876658 -140.756005 
L 158.181327 -144.027117 
L 158.485995 -147.211141 
L 158.790663 -150.300167 
L 159.095332 -153.286528 
L 159.4 -156.16282 
L 159.704668 -158.921923 
L 160.009337 -161.55701 
L 160.314005 -164.061571 
L 160.618673 -166.429426 
L 160.923342 -168.654735 
L 161.22801 -170.732017 
L 161.532678 -172.656161 
L 161.837346 -174.422437 
L 162.142015 -176.026505 
L 162.446683 -177.464427 
L 162.751351 -178.732677 
L 163.05602 -179.828144 
L 163.360688 -180.748145 
L 163.665356 -181.490425 
L 163.970025 -182.053166 
L 164.274693 -182.43499 
L 164.579361 -182.634959 
L 164.884029 -182.652584 
L 165.188698 -182.487817 
L 165.493366 -182.14106 
L 165.798034 -181.613158 
L 166.102703 -180.905399 
L 166.407371 -180.019512 
L 166.712039 -178.957663 
L 167.016708 -177.722451 
L 167.321376 -176.3169 
L 167.626044 -174.744455 
L 167.930713 -173.008972 
L 168.235381 -171.114714 
L 168.540049 -169.066334 
L 168.844717 -166.868873 
L 169.149386 -164.527741 
L 169.454054 -162.04871 
L 169.758722 -159.437898 
L 170.063391 -156.701758 
L 170.368059 -153.847057 
L 170.672727 -150.880864 
L 170.977396 -147.810536 
L 171.282064 -144.643694 
L 171.586732 -141.388208 
L 171.8914 -138.052177 
L 172.196069 -134.64391 
L 172.500737 -131.171906 
L 172.805405 -127.64483 
L 173.110074 -124.071493 
L 173.414742 -120.460831 
L 173.71941 -116.82188 
L 174.024079 -113.163754 
L 174.328747 -109.495624 
L 174.633415 -105.826689 
L 174.938084 -102.166157 
L 175.242752 -98.523222 
L 175.54742 -94.907035 
L 175.852088 -91.326684 
L 176.156757 -87.791173 
L 176.461425 -84.309392 
L 176.766093 -80.890099 
L 177.070762 -77.541897 
L 177.37543 -74.27321 
L 177.680098 -71.092263 
L 177.984767 -68.007058 
L 178.289435 -65.025358 
L 178.594103 -62.154665 
L 178.898771 -59.402197 
L 179.20344 -56.774879 
L 179.508108 -54.279315 
L 179.812776 -51.921778 
L 180.117445 -49.708195 
L 180.422113 -47.644125 
L 180.726781 -45.734755 
L 181.03145 -43.984878 
L 181.336118 -42.398889 
L 181.640786 -40.980767 
L 181.945455 -39.734072 
L 182.250123 -38.661931 
L 182.554791 -37.767033 
L 182.859459 -37.051623 
L 183.164128 -36.517495 
L 183.468796 -36.165987 
L 183.773464 -35.99798 
L 184.078133 -36.013896 
L 184.382801 -36.213694 
L 184.687469 -36.596874 
L 184.992138 -37.162473 
L 185.296806 -37.909073 
L 185.601474 -38.834801 
L 185.906143 -39.937334 
L 186.210811 -41.213907 
L 186.515479 -42.661314 
L 186.820147 -44.275924 
L 187.124816 -46.05368 
L 187.429484 -47.99012 
L 187.734152 -50.080377 
L 188.038821 -52.3192 
L 188.343489 -54.700962 
L 188.648157 -57.219676 
L 188.952826 -59.869007 
L 189.257494 -62.642293 
L 189.562162 -65.532557 
L 189.86683 -68.532529 
L 190.171499 -71.634659 
L 190.476167 -74.831143 
L 190.780835 -78.113936 
L 191.085504 -81.474779 
L 191.390172 -84.905215 
L 191.69484 -88.396614 
L 191.999509 -91.940195 
L 192.304177 -95.527047 
L 192.608845 -99.148153 
L 192.913514 -102.794416 
L 193.218182 -106.456676 
L 193.52285 -110.125742 
L 193.827518 -113.792407 
L 194.132187 -117.44748 
L 194.436855 -121.081803 
L 194.741523 -124.686279 
L 195.046192 -128.25189 
L 195.35086 -131.769728 
L 195.655528 -135.231009 
L 195.960197 -138.627101 
L 196.264865 -141.94954 
L 196.569533 -145.190059 
L 196.874201 -148.340599 
L 197.17887 -151.393337 
L 197.483538 -154.340698 
L 197.788206 -157.175381 
L 198.092875 -159.890368 
L 198.397543 -162.478946 
L 198.702211 -164.934722 
L 199.00688 -167.251637 
L 199.311548 -169.423981 
L 199.616216 -171.446406 
L 199.920885 -173.313935 
L 200.225553 -175.021979 
L 200.530221 -176.566343 
L 200.834889 -177.943238 
L 201.139558 -179.149285 
L 201.444226 -180.18153 
L 201.748894 -181.037442 
L 202.053563 -181.714924 
L 202.358231 -182.212318 
L 202.662899 -182.528403 
L 202.967568 -182.662406 
L 203.272236 -182.613996 
L 203.576904 -182.383288 
L 203.881572 -181.970844 
L 204.186241 -181.37767 
L 204.490909 -180.605214 
L 204.795577 -179.655364 
L 205.100246 -178.530444 
L 205.404914 -177.233206 
L 205.709582 -175.766827 
L 206.014251 -174.134904 
L 206.318919 -172.341439 
L 206.623587 -170.390838 
L 206.928256 -168.287896 
L 207.232924 -166.037789 
L 207.537592 -163.646059 
L 207.84226 -161.118606 
L 208.146929 -158.461669 
L 208.451597 -155.681817 
L 208.756265 -152.78593 
L 209.060934 -149.781182 
L 209.365602 -146.675027 
L 209.67027 -143.475178 
L 209.974939 -140.189592 
L 210.279607 -136.826445 
L 210.584275 -133.394118 
L 210.888943 -129.901172 
L 211.193612 -126.356327 
L 211.49828 -122.768443 
L 211.802948 -119.146493 
L 212.107617 -115.499546 
L 212.412285 -111.836738 
L 212.716953 -108.167253 
L 213.021622 -104.500297 
L 213.32629 -100.845075 
L 213.630958 -97.210767 
L 213.935627 -93.606506 
L 214.240295 -90.041351 
L 214.544963 -86.524267 
L 214.849631 -83.0641 
L 215.1543 -79.669554 
L 215.458968 -76.34917 
L 215.763636 -73.111302 
L 216.068305 -69.964097 
L 216.372973 -66.915473 
L 216.677641 -63.973101 
L 216.98231 -61.144381 
L 217.286978 -58.436428 
L 217.591646 -55.856053 
L 217.896314 -53.409742 
L 218.200983 -51.103644 
L 218.505651 -48.943555 
L 218.810319 -46.934901 
L 219.114988 -45.082727 
L 219.419656 -43.391684 
L 219.724324 -41.866017 
L 220.028993 -40.509555 
L 220.333661 -39.325702 
L 220.638329 -38.317427 
L 220.942998 -37.48726 
L 221.247666 -36.837281 
L 221.552334 -36.369122 
L 221.857002 -36.083955 
L 222.161671 -35.982495 
L 222.466339 -36.064997 
L 222.771007 -36.331252 
L 223.075676 -36.780594 
L 223.380344 -37.411894 
L 223.685012 -38.22357 
L 223.989681 -39.213585 
L 224.294349 -40.379455 
L 224.599017 -41.718254 
L 224.903686 -43.226623 
L 225.208354 -44.900774 
L 225.513022 -46.736503 
L 225.81769 -48.729199 
L 226.122359 -50.873857 
L 226.427027 -53.165086 
L 226.731695 -55.597128 
L 227.036364 -58.163868 
L 227.341032 -60.858851 
L 227.6457 -63.675299 
L 227.950369 -66.606126 
L 228.255037 -69.64396 
L 228.559705 -72.781156 
L 228.864373 -76.009821 
L 229.169042 -79.321829 
L 229.47371 -82.708847 
L 229.778378 -86.162354 
L 230.083047 -89.673661 
L 230.387715 -93.233939 
L 230.692383 -96.834235 
L 230.997052 -100.465502 
L 231.30172 -104.118615 
L 231.606388 -107.784401 
L 231.911057 -111.45366 
L 232.215725 -115.11719 
L 232.520393 -118.765807 
L 232.825061 -122.390374 
L 233.12973 -125.981818 
L 233.434398 -129.531161 
L 233.739066 -133.029535 
L 234.043735 -136.468208 
L 234.348403 -139.838609 
L 234.653071 -143.132341 
L 234.95774 -146.34121 
L 235.262408 -149.457241 
L 235.567076 -152.472699 
L 235.871744 -155.380104 
L 236.176413 -158.172257 
L 236.481081 -160.842249 
L 236.785749 -163.38348 
L 237.090418 -165.789677 
L 237.395086 -168.054905 
L 237.699754 -170.173583 
L 238.004423 -172.140497 
L 238.309091 -173.95081 
L 238.613759 -175.600073 
L 238.918428 -177.084238 
L 239.223096 -178.399662 
L 239.527764 -179.54312 
L 239.832432 -180.51181 
L 240.137101 -181.303358 
L 240.441769 -181.915825 
L 240.746437 -182.347712 
L 241.051106 -182.597958 
L 241.355774 -182.665951 
L 241.660442 -182.551521 
L 241.965111 -182.254945 
L 242.269779 -181.776946 
L 242.574447 -181.11869 
L 242.879115 -180.281785 
L 243.183784 -179.268277 
L 243.488452 -178.080645 
L 243.79312 -176.721798 
L 244.097789 -175.195063 
L 244.402457 -173.504186 
L 244.707125 -171.653316 
L 245.011794 -169.647001 
L 245.316462 -167.490175 
L 245.62113 -165.188148 
L 245.925799 -162.746593 
L 246.230467 -160.171535 
L 246.535135 -157.469334 
L 246.839803 -154.646672 
L 247.144472 -151.710539 
L 247.44914 -148.668212 
L 247.753808 -145.52724 
L 248.058477 -142.295428 
L 248.363145 -138.980813 
L 248.667813 -135.591649 
L 248.972482 -132.136383 
L 249.27715 -128.623637 
L 249.581818 -125.062185 
L 249.886486 -121.460929 
L 250.191155 -117.82888 
L 250.495823 -114.175134 
L 250.800491 -110.508848 
L 251.10516 -106.839214 
L 251.409828 -103.175443 
L 251.714496 -99.526733 
L 252.019165 -95.902249 
L 252.323833 -92.311101 
L 252.628501 -88.762316 
L 252.93317 -85.264819 
L 253.237838 -81.827407 
L 253.542506 -78.458727 
L 253.847174 -75.167256 
L 254.151843 -71.961274 
L 254.456511 -68.848849 
L 254.761179 -65.837811 
L 255.065848 -62.935735 
L 255.370516 -60.149922 
L 255.675184 -57.487376 
L 255.979853 -54.954794 
L 256.284521 -52.558542 
L 256.589189 -50.304642 
L 256.893857 -48.198758 
L 257.198526 -46.24618 
L 257.503194 -44.451812 
L 257.807862 -42.820159 
L 258.112531 -41.355316 
L 258.417199 -40.06096 
L 258.721867 -38.940338 
L 259.026536 -37.996261 
L 259.331204 -37.231096 
L 259.635872 -36.646764 
L 259.940541 -36.244727 
L 260.245209 -36.025995 
L 260.549877 -35.991116 
L 260.854545 -36.140175 
L 261.159214 -36.472801 
L 261.463882 -36.988157 
L 261.76855 -37.684951 
L 262.073219 -38.561436 
L 262.377887 -39.615412 
L 262.682555 -40.844235 
L 262.987224 -42.244821 
L 263.291892 -43.813654 
L 263.59656 -45.546796 
L 263.901229 -47.439893 
L 264.205897 -49.488191 
L 264.510565 -51.686542 
L 264.815233 -54.029423 
L 265.119902 -56.510943 
L 265.42457 -59.124864 
L 265.729238 -61.86461 
L 266.033907 -64.723292 
L 266.338575 -67.693717 
L 266.643243 -70.768412 
L 266.947912 -73.939639 
L 267.25258 -77.199419 
L 267.557248 -80.53955 
L 267.861916 -83.951627 
L 268.166585 -87.427066 
L 268.471253 -90.957125 
L 268.775921 -94.532927 
L 269.08059 -98.145482 
L 269.385258 -101.785713 
L 269.689926 -105.444474 
L 269.994595 -109.11258 
L 270.299263 -112.780828 
L 270.603931 -116.440019 
L 270.9086 -120.080983 
L 271.213268 -123.694604 
L 271.517936 -127.271841 
L 271.822604 -130.803752 
L 272.127273 -134.281518 
L 272.431941 -137.696461 
L 272.736609 -141.040071 
L 273.041278 -144.304022 
L 273.345946 -147.480197 
L 273.650614 -150.560705 
L 273.955283 -153.537902 
L 274.259951 -156.404408 
L 274.564619 -159.153126 
L 274.869287 -161.777258 
L 275.173956 -164.27032 
L 275.478624 -166.62616 
L 275.783292 -168.83897 
L 276.087961 -170.903299 
L 276.392629 -172.814069 
L 276.697297 -174.566583 
L 277.001966 -176.156534 
L 277.306634 -177.580022 
L 277.611302 -178.833553 
L 277.915971 -179.914054 
L 278.220639 -180.818879 
L 278.525307 -181.545809 
L 278.829975 -182.093065 
L 279.134644 -182.459305 
L 279.439312 -182.643632 
L 279.74398 -182.645592 
L 280.048649 -182.465179 
L 280.353317 -182.102829 
L 280.657985 -181.559428 
L 280.962654 -180.836301 
L 281.267322 -179.935215 
L 281.57199 -178.858374 
L 281.876658 -177.608412 
L 282.181327 -176.188391 
L 282.485995 -174.60179 
L 282.790663 -172.852503 
L 283.095332 -170.944824 
L 283.4 -168.883441 
L 283.704668 -166.673427 
L 284.009337 -164.320224 
L 284.314005 -161.829634 
L 284.618673 -159.207804 
L 284.923342 -156.461214 
L 285.22801 -153.596659 
L 285.532678 -150.621233 
L 285.837346 -147.542316 
L 286.142015 -144.367551 
L 286.446683 -141.104828 
L 286.751351 -137.762266 
L 287.05602 -134.348191 
L 287.360688 -130.871116 
L 287.665356 -127.339721 
L 287.970025 -123.762827 
L 288.274693 -120.14938 
L 288.579361 -116.508424 
L 288.884029 -112.849079 
L 289.188698 -109.180518 
L 289.493366 -105.511943 
L 289.798034 -101.852562 
L 290.102703 -98.211565 
L 290.407371 -94.598099 
L 290.712039 -91.021247 
L 291.016708 -87.490001 
L 291.321376 -84.013244 
L 291.626044 -80.59972 
L 291.930713 -77.258017 
L 292.235381 -73.996543 
L 292.540049 -70.823505 
L 292.844717 -67.746886 
L 293.149386 -64.774426 
L 293.454054 -61.913604 
L 293.758722 -59.171615 
L 294.063391 -56.555353 
L 294.368059 -54.071399 
L 294.672727 -51.725994 
L 294.977396 -49.525035 
L 295.282064 -47.474049 
L 295.586732 -45.57819 
L 295.8914 -43.842218 
L 296.196069 -42.270491 
L 296.500737 -40.866954 
L 296.805405 -39.635129 
L 297.110074 -38.578107 
L 297.414742 -37.698538 
L 297.71941 -36.998628 
L 298.024079 -36.480133 
L 298.328747 -36.144352 
L 298.633415 -35.992126 
L 298.938084 -36.023838 
L 299.242752 -36.239407 
L 299.54742 -36.638293 
L 299.852088 -37.219494 
L 300.156757 -37.981554 
L 300.461425 -38.92256 
L 300.766093 -40.040151 
L 301.070762 -41.331523 
L 301.37543 -42.793434 
L 301.680098 -44.422216 
L 301.984767 -46.213778 
L 302.289435 -48.16362 
L 302.594103 -50.266844 
L 302.898771 -52.518166 
L 303.20344 -54.911926 
L 303.508108 -57.442108 
L 303.812776 -60.102347 
L 304.117445 -62.885955 
L 304.422113 -65.785928 
L 304.726781 -68.794971 
L 305.03145 -71.905512 
L 305.336118 -75.109725 
L 305.640786 -78.399547 
L 305.945455 -81.766699 
L 306.250123 -85.20271 
L 306.554791 -88.698936 
L 306.859459 -92.246583 
L 307.164128 -95.836731 
L 307.468796 -99.460355 
L 307.773464 -103.108352 
L 308.078133 -106.771558 
L 308.382801 -110.440778 
L 308.687469 -114.106809 
L 308.992138 -117.760459 
L 309.296806 -121.392575 
L 309.601474 -124.994066 
L 309.906143 -128.555924 
L 310.210811 -132.069249 
L 310.515479 -135.52527 
L 310.820147 -138.915367 
L 311.124816 -142.231095 
L 311.429484 -145.464201 
L 311.734152 -148.606647 
L 312.038821 -151.650631 
L 312.343489 -154.588601 
L 312.648157 -157.413278 
L 312.952826 -160.117671 
L 313.257494 -162.695093 
L 313.562162 -165.13918 
L 313.86683 -167.443901 
L 314.171499 -169.603579 
L 314.476167 -171.612894 
L 314.780835 -173.466904 
L 315.085504 -175.161054 
L 315.390172 -176.691183 
L 315.69484 -178.053536 
L 315.999509 -179.244771 
L 316.304177 -180.261969 
L 316.608845 -181.102637 
L 316.913514 -181.764717 
L 317.218182 -182.246585 
L 317.52285 -182.547062 
L 317.827518 -182.66541 
L 318.132187 -182.601337 
L 318.436855 -182.354997 
L 318.741523 -181.92699 
L 319.046192 -181.31836 
L 319.35086 -180.530593 
L 319.655528 -179.565615 
L 319.960197 -178.425786 
L 320.264865 -177.113895 
L 320.569533 -175.633157 
L 320.874201 -173.987201 
L 321.17887 -172.180066 
L 321.483538 -170.216192 
L 321.788206 -168.100406 
L 322.092875 -165.837917 
L 322.397543 -163.434297 
L 322.702211 -160.895477 
L 323.00688 -158.227725 
L 323.311548 -155.437637 
L 323.616216 -152.532117 
L 323.920885 -149.518366 
L 324.225553 -146.403861 
L 324.530221 -143.196335 
L 324.834889 -139.903766 
L 325.139558 -136.534348 
L 325.444226 -133.096478 
L 325.748894 -129.598731 
L 326.053563 -126.049842 
L 326.358231 -122.458679 
L 326.662899 -118.834226 
L 326.967568 -115.185558 
L 327.272236 -111.521816 
L 327.576904 -107.852187 
L 327.881572 -104.185877 
L 328.186241 -100.532091 
L 328.490909 -96.900005 
L 328.795577 -93.298747 
L 329.100246 -89.737369 
L 329.404914 -86.224827 
L 329.709582 -82.769954 
L 330.014251 -79.381443 
L 330.318919 -76.067819 
L 330.623587 -72.837418 
L 330.928256 -69.69837 
L 331.232924 -66.658571 
L 331.537592 -63.72567 
L 331.84226 -60.907044 
L 332.146929 -58.209782 
L 332.451597 -55.640667 
L 332.756265 -53.206158 
L 333.060934 -50.912374 
L 333.365602 -48.765079 
L 333.67027 -46.769668 
L 333.974939 -44.931151 
L 334.279607 -43.254146 
L 334.584275 -41.742863 
L 334.888943 -40.401093 
L 335.193612 -39.232204 
L 335.49828 -38.239129 
L 335.802948 -37.424356 
L 336.107617 -36.789931 
L 336.412285 -36.337444 
L 336.716953 -36.068028 
L 337.021622 -35.982359 
L 337.32629 -36.080652 
L 337.630958 -36.36266 
L 337.935627 -36.827675 
L 338.240295 -37.47453 
L 338.544963 -38.301604 
L 338.849631 -39.306821 
L 339.1543 -40.48766 
L 339.458968 -41.841156 
L 339.763636 -43.363913 
L 340.068305 -45.052107 
L 340.372973 -46.9015 
L 340.677641 -48.907445 
L 340.98231 -51.064904 
L 341.286978 -53.368454 
L 341.591646 -55.812306 
L 341.896314 -58.390314 
L 342.200983 -61.095996 
L 342.505651 -63.922547 
L 342.810319 -66.862855 
L 343.114988 -69.909524 
L 343.419656 -73.054887 
L 343.724324 -76.291028 
L 344.028993 -79.609807 
L 344.333661 -83.00287 
L 344.638329 -86.461683 
L 344.942998 -89.977543 
L 345.247666 -93.54161 
L 345.552334 -97.144921 
L 345.857002 -100.778422 
L 346.161671 -104.432984 
L 346.466339 -108.09943 
L 346.771007 -111.768558 
L 347.075676 -115.431167 
L 347.380344 -119.078077 
L 347.685012 -122.700155 
L 347.989681 -126.288335 
L 348.294349 -129.833648 
L 348.599017 -133.327237 
L 348.903686 -136.760383 
L 349.208354 -140.124527 
L 349.513022 -143.411292 
L 349.81769 -146.6125 
L 350.122359 -149.720196 
L 350.427027 -152.726666 
L 350.731695 -155.624455 
L 351.036364 -158.406387 
L 351.341032 -161.065577 
L 351.6457 -163.595456 
L 351.950369 -165.989778 
L 352.255037 -168.242637 
L 352.559705 -170.348485 
L 352.864373 -172.302138 
L 353.169042 -174.098792 
L 353.47371 -175.734034 
L 353.778378 -177.203848 
L 354.083047 -178.504628 
L 354.387715 -179.633185 
L 354.692383 -180.586752 
L 354.997052 -181.362995 
L 355.30172 -181.960011 
L 355.606388 -182.376337 
L 355.911057 -182.610954 
L 356.215725 -182.663284 
L 356.520393 -182.533198 
L 356.825061 -182.221011 
L 357.12973 -181.727483 
L 357.434398 -181.05382 
L 357.739066 -180.201666 
L 358.043735 -179.173104 
L 358.348403 -177.970652 
L 358.653071 -176.597254 
L 358.95774 -175.056273 
L 359.262408 -173.351491 
L 359.567076 -171.487091 
L 359.871744 -169.467654 
L 360.176413 -167.298148 
L 360.481081 -164.983914 
L 360.785749 -162.530655 
L 361.090418 -159.944427 
L 361.395086 -157.231617 
L 361.699754 -154.398934 
L 362.004423 -151.453394 
L 362.309091 -148.402297 
L 362.613759 -145.253217 
L 362.918428 -142.013976 
L 363.223096 -138.692634 
L 363.527764 -135.29746 
L 363.832432 -131.836919 
L 364.137101 -128.319645 
L 364.441769 -124.754424 
L 364.746437 -121.150169 
L 365.051106 -117.5159 
L 365.355774 -113.860717 
L 365.660442 -110.193782 
L 365.965111 -106.52429 
L 366.269779 -102.861452 
L 366.574447 -99.214462 
L 366.879115 -95.592484 
L 367.183784 -92.00462 
L 367.488452 -88.45989 
L 367.79312 -84.967209 
L 368.097789 -81.535361 
L 368.402457 -78.17298 
L 368.707125 -74.888526 
L 369.011794 -71.690264 
L 369.316462 -68.58624 
L 369.62113 -65.584264 
L 369.925799 -62.691888 
L 370.230467 -59.916387 
L 370.535135 -57.264742 
L 370.839803 -54.743619 
L 371.144472 -52.359358 
L 371.44914 -50.117949 
L 371.753808 -48.025026 
L 372.058477 -46.085844 
L 372.363145 -44.305275 
L 372.667813 -42.687789 
L 372.972482 -41.237446 
L 373.27715 -39.957885 
L 373.581818 -38.852316 
L 373.581818 -37.282664 
L 373.581818 -37.282664 
L 373.27715 -38.388224 
L 372.972482 -39.667775 
L 372.667813 -41.118107 
L 372.363145 -42.735581 
L 372.058477 -44.516136 
L 371.753808 -46.455303 
L 371.44914 -48.548212 
L 371.144472 -50.789605 
L 370.839803 -53.173851 
L 370.535135 -55.694957 
L 370.230467 -58.346586 
L 369.925799 -61.122071 
L 369.62113 -64.014431 
L 369.316462 -67.016391 
L 369.011794 -70.1204 
L 368.707125 -73.318648 
L 368.402457 -76.603088 
L 368.097789 -79.965457 
L 367.79312 -83.397293 
L 367.488452 -86.889964 
L 367.183784 -90.434685 
L 366.879115 -94.022542 
L 366.574447 -97.644514 
L 366.269779 -101.291499 
L 365.965111 -104.954335 
L 365.660442 -108.623825 
L 365.355774 -112.29076 
L 365.051106 -115.945945 
L 364.746437 -119.580218 
L 364.441769 -123.184478 
L 364.137101 -126.749706 
L 363.832432 -130.266988 
L 363.527764 -133.727539 
L 363.223096 -137.122723 
L 362.918428 -140.444077 
L 362.613759 -143.68333 
L 362.309091 -146.832425 
L 362.004423 -149.883536 
L 361.699754 -152.829092 
L 361.395086 -155.66179 
L 361.090418 -158.374616 
L 360.785749 -160.960861 
L 360.481081 -163.414135 
L 360.176413 -165.728386 
L 359.871744 -167.897908 
L 359.567076 -169.91736 
L 359.262408 -171.781774 
L 358.95774 -173.486571 
L 358.653071 -175.027564 
L 358.348403 -176.400975 
L 358.043735 -177.603437 
L 357.739066 -178.632008 
L 357.434398 -179.48417 
L 357.12973 -180.15784 
L 356.825061 -180.651373 
L 356.520393 -180.963564 
L 356.215725 -181.093652 
L 355.911057 -181.041322 
L 355.606388 -180.806704 
L 355.30172 -180.390375 
L 354.997052 -179.793355 
L 354.692383 -179.017106 
L 354.387715 -178.063531 
L 354.083047 -176.934965 
L 353.778378 -175.634174 
L 353.47371 -174.164349 
L 353.169042 -172.529095 
L 352.864373 -170.732428 
L 352.559705 -168.77876 
L 352.255037 -166.672897 
L 351.950369 -164.420022 
L 351.6457 -162.025685 
L 351.341032 -159.49579 
L 351.036364 -156.836583 
L 350.731695 -154.054635 
L 350.427027 -151.15683 
L 350.122359 -148.150345 
L 349.81769 -145.042634 
L 349.513022 -141.841412 
L 349.208354 -138.554634 
L 348.903686 -135.190477 
L 348.599017 -131.757319 
L 348.294349 -128.263721 
L 347.989681 -124.718399 
L 347.685012 -121.130211 
L 347.380344 -117.508128 
L 347.075676 -113.861214 
L 346.771007 -110.198602 
L 346.466339 -106.529473 
L 346.161671 -102.863027 
L 345.857002 -99.208468 
L 345.552334 -95.574971 
L 345.247666 -91.971665 
L 344.942998 -88.407605 
L 344.638329 -84.891753 
L 344.333661 -81.43295 
L 344.028993 -78.039897 
L 343.724324 -74.721131 
L 343.419656 -71.485003 
L 343.114988 -68.339654 
L 342.810319 -65.293 
L 342.505651 -62.352707 
L 342.200983 -59.526172 
L 341.896314 -56.820506 
L 341.591646 -54.242514 
L 341.286978 -51.798679 
L 340.98231 -49.495144 
L 340.677641 -47.337701 
L 340.372973 -45.331771 
L 340.068305 -43.482393 
L 339.763636 -41.794212 
L 339.458968 -40.271468 
L 339.1543 -38.917984 
L 338.849631 -37.737156 
L 338.544963 -36.731948 
L 338.240295 -35.904882 
L 337.935627 -35.258033 
L 337.630958 -34.793023 
L 337.32629 -34.511018 
L 337.021622 -34.412727 
L 336.716953 -34.498396 
L 336.412285 -34.76781 
L 336.107617 -35.220295 
L 335.802948 -35.854715 
L 335.49828 -36.669481 
L 335.193612 -37.662549 
L 334.888943 -38.831428 
L 334.584275 -40.173188 
L 334.279607 -41.68446 
L 333.974939 -43.361452 
L 333.67027 -45.199955 
L 333.365602 -47.195352 
L 333.060934 -49.342632 
L 332.756265 -51.6364 
L 332.451597 -54.070893 
L 332.146929 -56.639992 
L 331.84226 -59.337237 
L 331.537592 -62.155847 
L 331.232924 -65.088733 
L 330.928256 -68.128516 
L 330.623587 -71.26755 
L 330.318919 -74.497936 
L 330.014251 -77.811547 
L 329.709582 -81.200046 
L 329.404914 -84.654907 
L 329.100246 -88.16744 
L 328.795577 -91.728809 
L 328.490909 -95.33006 
L 328.186241 -98.962141 
L 327.881572 -102.615923 
L 327.576904 -106.282231 
L 327.272236 -109.951859 
L 326.967568 -113.615602 
L 326.662899 -117.264273 
L 326.358231 -120.88873 
L 326.053563 -124.479898 
L 325.748894 -128.028795 
L 325.444226 -131.52655 
L 325.139558 -134.96443 
L 324.834889 -138.333859 
L 324.530221 -141.626441 
L 324.225553 -144.833979 
L 323.920885 -147.948499 
L 323.616216 -150.962265 
L 323.311548 -153.8678 
L 323.00688 -156.657904 
L 322.702211 -159.325672 
L 322.397543 -161.864509 
L 322.092875 -164.268144 
L 321.788206 -166.53065 
L 321.483538 -168.646451 
L 321.17887 -170.61034 
L 320.874201 -172.417489 
L 320.569533 -174.063459 
L 320.264865 -175.54421 
L 319.960197 -176.856112 
L 319.655528 -177.995952 
L 319.35086 -178.960939 
L 319.046192 -179.748713 
L 318.741523 -180.357349 
L 318.436855 -180.785361 
L 318.132187 -181.031703 
L 317.827518 -181.095778 
L 317.52285 -180.97743 
L 317.218182 -180.676951 
L 316.913514 -180.195079 
L 316.608845 -179.532995 
L 316.304177 -178.69232 
L 315.999509 -177.675114 
L 315.69484 -176.483869 
L 315.390172 -175.121506 
L 315.085504 -173.591365 
L 314.780835 -171.897203 
L 314.476167 -170.043178 
L 314.171499 -168.033848 
L 313.86683 -165.874156 
L 313.562162 -163.569418 
L 313.257494 -161.125316 
L 312.952826 -158.547877 
L 312.648157 -155.843468 
L 312.343489 -153.018776 
L 312.038821 -150.08079 
L 311.734152 -147.036791 
L 311.429484 -143.894329 
L 311.124816 -140.661209 
L 310.820147 -137.345468 
L 310.515479 -133.955359 
L 310.210811 -130.499328 
L 309.906143 -126.985994 
L 309.601474 -123.424127 
L 309.296806 -119.82263 
L 308.992138 -116.190508 
L 308.687469 -112.536854 
L 308.382801 -108.870822 
L 308.078133 -105.201601 
L 307.773464 -101.538396 
L 307.468796 -97.890403 
L 307.164128 -94.266782 
L 306.859459 -90.67664 
L 306.554791 -87.129 
L 306.250123 -83.632783 
L 305.945455 -80.196782 
L 305.640786 -76.829642 
L 305.336118 -73.539833 
L 305.03145 -70.335633 
L 304.726781 -67.225106 
L 304.422113 -64.216078 
L 304.117445 -61.316121 
L 303.812776 -58.532529 
L 303.508108 -55.872306 
L 303.20344 -53.342141 
L 302.898771 -50.948397 
L 302.594103 -48.697091 
L 302.289435 -46.593882 
L 301.984767 -44.644054 
L 301.680098 -42.852507 
L 301.37543 -41.223739 
L 301.070762 -39.761839 
L 300.766093 -38.470479 
L 300.461425 -37.352898 
L 300.156757 -36.411901 
L 299.852088 -35.649849 
L 299.54742 -35.068653 
L 299.242752 -34.669772 
L 298.938084 -34.454205 
L 298.633415 -34.422495 
L 298.328747 -34.574719 
L 298.024079 -34.910498 
L 297.71941 -35.42899 
L 297.414742 -36.128894 
L 297.110074 -37.008456 
L 296.805405 -38.065471 
L 296.500737 -39.297286 
L 296.196069 -40.700812 
L 295.8914 -42.272527 
L 295.586732 -44.008486 
L 295.282064 -45.904331 
L 294.977396 -47.955302 
L 294.672727 -50.156246 
L 294.368059 -52.501635 
L 294.063391 -54.985573 
L 293.758722 -57.601818 
L 293.454054 -60.343791 
L 293.149386 -63.204598 
L 292.844717 -66.177042 
L 292.540049 -69.253645 
L 292.235381 -72.426669 
L 291.930713 -75.688129 
L 291.626044 -79.029819 
L 291.321376 -82.443331 
L 291.016708 -85.920078 
L 290.712039 -89.451314 
L 290.407371 -93.028159 
L 290.102703 -96.641618 
L 289.798034 -100.282611 
L 289.493366 -103.941988 
L 289.188698 -107.610561 
L 288.884029 -111.279122 
L 288.579361 -114.938469 
L 288.274693 -118.579428 
L 287.970025 -122.192879 
L 287.665356 -125.769779 
L 287.360688 -129.301183 
L 287.05602 -132.778266 
L 286.751351 -136.192352 
L 286.446683 -139.534925 
L 286.142015 -142.797661 
L 285.837346 -145.97244 
L 285.532678 -149.051371 
L 285.22801 -152.026812 
L 284.923342 -154.891383 
L 284.618673 -157.637989 
L 284.314005 -160.259834 
L 284.009337 -162.750441 
L 283.704668 -165.10366 
L 283.4 -167.313691 
L 283.095332 -169.375089 
L 282.790663 -171.282783 
L 282.485995 -173.032084 
L 282.181327 -174.618698 
L 281.876658 -176.038731 
L 281.57199 -177.288704 
L 281.267322 -178.365555 
L 280.962654 -179.266649 
L 280.657985 -179.989783 
L 280.353317 -180.53319 
L 280.048649 -180.895543 
L 279.74398 -181.07596 
L 279.439312 -181.074 
L 279.134644 -180.889672 
L 278.829975 -180.52343 
L 278.525307 -179.97617 
L 278.220639 -179.249234 
L 277.915971 -178.344402 
L 277.611302 -177.263892 
L 277.306634 -176.010351 
L 277.001966 -174.586853 
L 276.697297 -172.996889 
L 276.392629 -171.244363 
L 276.087961 -169.333578 
L 275.783292 -167.269234 
L 275.478624 -165.056409 
L 275.173956 -162.700553 
L 274.869287 -160.207475 
L 274.564619 -157.583327 
L 274.259951 -154.834593 
L 273.955283 -151.968071 
L 273.650614 -148.990858 
L 273.345946 -145.910334 
L 273.041278 -142.734145 
L 272.736609 -139.47018 
L 272.431941 -136.126558 
L 272.127273 -132.711604 
L 271.822604 -129.233828 
L 271.517936 -125.701907 
L 271.213268 -122.124662 
L 270.9086 -118.511035 
L 270.603931 -114.870066 
L 270.299263 -111.210873 
L 269.994595 -107.542623 
L 269.689926 -103.874517 
L 269.385258 -100.215758 
L 269.08059 -96.575531 
L 268.775921 -92.96298 
L 268.471253 -89.387185 
L 268.166585 -85.857134 
L 267.861916 -82.381704 
L 267.557248 -78.969638 
L 267.25258 -75.629519 
L 266.947912 -72.369751 
L 266.643243 -69.198538 
L 266.338575 -66.123858 
L 266.033907 -63.153448 
L 265.729238 -60.294782 
L 265.42457 -57.555051 
L 265.119902 -54.941147 
L 264.815233 -52.459643 
L 264.510565 -50.116779 
L 264.205897 -47.918443 
L 263.901229 -45.87016 
L 263.59656 -43.977078 
L 263.291892 -42.24395 
L 262.987224 -40.67513 
L 262.682555 -39.274556 
L 262.377887 -38.045744 
L 262.073219 -36.991778 
L 261.76855 -36.115301 
L 261.463882 -35.418513 
L 261.159214 -34.903162 
L 260.854545 -34.570541 
L 260.549877 -34.421483 
L 260.245209 -34.456363 
L 259.940541 -34.675094 
L 259.635872 -35.077128 
L 259.331204 -35.661456 
L 259.026536 -36.426615 
L 258.721867 -37.370684 
L 258.417199 -38.491298 
L 258.112531 -39.785644 
L 257.807862 -41.250475 
L 257.503194 -42.882116 
L 257.198526 -44.676471 
L 256.893857 -46.629035 
L 256.589189 -48.734903 
L 256.284521 -50.988788 
L 255.979853 -53.385024 
L 255.675184 -55.91759 
L 255.370516 -58.580119 
L 255.065848 -61.365917 
L 254.761179 -64.267977 
L 254.456511 -67.278999 
L 254.151843 -70.391409 
L 253.847174 -73.597376 
L 253.542506 -76.888834 
L 253.237838 -80.257502 
L 252.93317 -83.694902 
L 252.628501 -87.192389 
L 252.323833 -90.741165 
L 252.019165 -94.332306 
L 251.714496 -97.956784 
L 251.409828 -101.60549 
L 251.10516 -105.269258 
L 250.800491 -108.938891 
L 250.495823 -112.605178 
L 250.191155 -116.258926 
L 249.886486 -119.890978 
L 249.581818 -123.492239 
L 249.27715 -127.053699 
L 248.972482 -130.566453 
L 248.667813 -134.021728 
L 248.363145 -137.410903 
L 248.058477 -140.72553 
L 247.753808 -143.957355 
L 247.44914 -147.098341 
L 247.144472 -150.140683 
L 246.839803 -153.076831 
L 246.535135 -155.899508 
L 246.230467 -158.601725 
L 245.925799 -161.1768 
L 245.62113 -163.618371 
L 245.316462 -165.920414 
L 245.011794 -168.077256 
L 244.707125 -170.083586 
L 244.402457 -171.93447 
L 244.097789 -173.625361 
L 243.79312 -175.152109 
L 243.488452 -176.510968 
L 243.183784 -177.698611 
L 242.879115 -178.712128 
L 242.574447 -179.549041 
L 242.269779 -180.207303 
L 241.965111 -180.685307 
L 241.660442 -180.981887 
L 241.355774 -181.096319 
L 241.051106 -181.028326 
L 240.746437 -180.778078 
L 240.441769 -180.346189 
L 240.137101 -179.733717 
L 239.832432 -178.942163 
L 239.527764 -177.973465 
L 239.223096 -176.829998 
L 238.918428 -175.514564 
L 238.613759 -174.030388 
L 238.309091 -172.381112 
L 238.004423 -170.570786 
L 237.699754 -168.603857 
L 237.395086 -166.485164 
L 237.090418 -164.21992 
L 236.785749 -161.813707 
L 236.481081 -159.27246 
L 236.176413 -156.602452 
L 235.871744 -153.810283 
L 235.567076 -150.902861 
L 235.262408 -147.887388 
L 234.95774 -144.771342 
L 234.653071 -141.562459 
L 234.348403 -138.268714 
L 234.043735 -134.898301 
L 233.739066 -131.459616 
L 233.434398 -127.961232 
L 233.12973 -124.411881 
L 232.825061 -120.82043 
L 232.520393 -117.195858 
L 232.215725 -113.547236 
L 231.911057 -109.883704 
L 231.606388 -106.214444 
L 231.30172 -102.548658 
L 230.997052 -98.895548 
L 230.692383 -95.264285 
L 230.387715 -91.663995 
L 230.083047 -88.103724 
L 229.778378 -84.592425 
L 229.47371 -81.138928 
L 229.169042 -77.751921 
L 228.864373 -74.439925 
L 228.559705 -71.211274 
L 228.255037 -68.074092 
L 227.950369 -65.036273 
L 227.6457 -62.10546 
L 227.341032 -59.289028 
L 227.036364 -56.594061 
L 226.731695 -54.027338 
L 226.427027 -51.595312 
L 226.122359 -49.304099 
L 225.81769 -47.159457 
L 225.513022 -45.166775 
L 225.208354 -43.331061 
L 224.903686 -41.656924 
L 224.599017 -40.148568 
L 224.294349 -38.80978 
L 223.989681 -37.643921 
L 223.685012 -36.653915 
L 223.380344 -35.842247 
L 223.075676 -35.210952 
L 222.771007 -34.761616 
L 222.466339 -34.495363 
L 222.161671 -34.412863 
L 221.857002 -34.514323 
L 221.552334 -34.799488 
L 221.247666 -35.267644 
L 220.942998 -35.917618 
L 220.638329 -36.747778 
L 220.333661 -37.756045 
L 220.028993 -38.939889 
L 219.724324 -40.296341 
L 219.419656 -41.821996 
L 219.114988 -43.513026 
L 218.810319 -45.365186 
L 218.505651 -47.373826 
L 218.200983 -49.5339 
L 217.896314 -51.839982 
L 217.591646 -54.286277 
L 217.286978 -56.866636 
L 216.98231 -59.574573 
L 216.677641 -62.403276 
L 216.372973 -65.345633 
L 216.068305 -68.394242 
L 215.763636 -71.541432 
L 215.458968 -74.779286 
L 215.1543 -78.099657 
L 214.849631 -81.494191 
L 214.544963 -84.954347 
L 214.240295 -88.471421 
L 213.935627 -92.036567 
L 213.630958 -95.640822 
L 213.32629 -99.275124 
L 213.021622 -102.930343 
L 212.716953 -106.597297 
L 212.412285 -110.266781 
L 212.107617 -113.92959 
L 211.802948 -117.57654 
L 211.49828 -121.198494 
L 211.193612 -124.786384 
L 210.888943 -128.331236 
L 210.584275 -131.824191 
L 210.279607 -135.256528 
L 209.974939 -138.619686 
L 209.67027 -141.905285 
L 209.365602 -145.105147 
L 209.060934 -148.211316 
L 208.756265 -151.216079 
L 208.451597 -154.111982 
L 208.146929 -156.891849 
L 207.84226 -159.548802 
L 207.537592 -162.076272 
L 207.232924 -164.468018 
L 206.928256 -166.718141 
L 206.623587 -168.821099 
L 206.318919 -170.771715 
L 206.014251 -172.565194 
L 205.709582 -174.197131 
L 205.404914 -175.663521 
L 205.100246 -176.960771 
L 204.795577 -178.085702 
L 204.490909 -179.03556 
L 204.186241 -179.808023 
L 203.881572 -180.401203 
L 203.576904 -180.813652 
L 203.272236 -181.044363 
L 202.967568 -181.092774 
L 202.662899 -180.958771 
L 202.358231 -180.642683 
L 202.053563 -180.145286 
L 201.748894 -179.467799 
L 201.444226 -178.61188 
L 201.139558 -177.579627 
L 200.834889 -176.37357 
L 200.530221 -174.996665 
L 200.225553 -173.452289 
L 199.920885 -171.744232 
L 199.616216 -169.876689 
L 199.311548 -167.85425 
L 199.00688 -165.68189 
L 198.702211 -163.364959 
L 198.397543 -160.909167 
L 198.092875 -158.320573 
L 197.788206 -155.60557 
L 197.483538 -152.770871 
L 197.17887 -149.823494 
L 196.874201 -146.770741 
L 196.569533 -143.620186 
L 196.264865 -140.379654 
L 195.960197 -137.057201 
L 195.655528 -133.661098 
L 195.35086 -130.199806 
L 195.046192 -126.681959 
L 194.741523 -123.116339 
L 194.436855 -119.511857 
L 194.132187 -115.877529 
L 193.827518 -112.222453 
L 193.52285 -108.555785 
L 193.218182 -104.88672 
L 192.913514 -101.22446 
L 192.608845 -97.578201 
L 192.304177 -93.957098 
L 191.999509 -90.370253 
L 191.69484 -86.826679 
L 191.390172 -83.335289 
L 191.085504 -79.904864 
L 190.780835 -76.544032 
L 190.476167 -73.261252 
L 190.171499 -70.064782 
L 189.86683 -66.962665 
L 189.562162 -63.962709 
L 189.257494 -61.07246 
L 188.952826 -58.29919 
L 188.648157 -55.649875 
L 188.343489 -53.131178 
L 188.038821 -50.749432 
L 187.734152 -48.510625 
L 187.429484 -46.420383 
L 187.124816 -44.483958 
L 186.820147 -42.706216 
L 186.515479 -41.09162 
L 186.210811 -39.644225 
L 185.906143 -38.367663 
L 185.601474 -37.26514 
L 185.296806 -36.33942 
L 184.992138 -35.592827 
L 184.687469 -35.027234 
L 184.382801 -34.644059 
L 184.078133 -34.444263 
L 183.773464 -34.428348 
L 183.468796 -34.596354 
L 183.164128 -34.94786 
L 182.859459 -35.481985 
L 182.554791 -36.197389 
L 182.250123 -37.09228 
L 181.945455 -38.164413 
L 181.640786 -39.411098 
L 181.336118 -40.829209 
L 181.03145 -42.415186 
L 180.726781 -44.16505 
L 180.422113 -46.074406 
L 180.117445 -48.13846 
L 179.812776 -50.352029 
L 179.508108 -52.709549 
L 179.20344 -55.205097 
L 178.898771 -57.8324 
L 178.594103 -60.584851 
L 178.289435 -63.455528 
L 177.984767 -66.437212 
L 177.680098 -69.522402 
L 177.37543 -72.703335 
L 177.070762 -75.972008 
L 176.766093 -79.320197 
L 176.461425 -82.739478 
L 176.156757 -86.221249 
L 175.852088 -89.756751 
L 175.54742 -93.337094 
L 175.242752 -96.953275 
L 174.938084 -100.596205 
L 174.633415 -104.256733 
L 174.328747 -107.925667 
L 174.024079 -111.593797 
L 173.71941 -115.251925 
L 173.414742 -118.890879 
L 173.110074 -122.501546 
L 172.805405 -126.074889 
L 172.500737 -129.601973 
L 172.196069 -133.073986 
L 171.8914 -136.482263 
L 171.586732 -139.818306 
L 171.282064 -143.073805 
L 170.977396 -146.240661 
L 170.672727 -149.311004 
L 170.368059 -152.277211 
L 170.063391 -155.131928 
L 169.758722 -157.868085 
L 169.454054 -160.478912 
L 169.149386 -162.957959 
L 168.844717 -165.299107 
L 168.540049 -167.496585 
L 168.235381 -169.54498 
L 167.930713 -171.439253 
L 167.626044 -173.174749 
L 167.321376 -174.747208 
L 167.016708 -176.152771 
L 166.712039 -177.387994 
L 166.407371 -178.449852 
L 166.102703 -179.335748 
L 165.798034 -180.043514 
L 165.493366 -180.571422 
L 165.188698 -180.918183 
L 164.884029 -181.082951 
L 164.579361 -181.065327 
L 164.274693 -180.865357 
L 163.970025 -180.483531 
L 163.665356 -179.920786 
L 163.360688 -179.1785 
L 163.05602 -178.258492 
L 162.751351 -177.163016 
L 162.446683 -175.894756 
L 162.142015 -174.456822 
L 161.837346 -172.852742 
L 161.532678 -171.086454 
L 161.22801 -169.162295 
L 160.923342 -167.084998 
L 160.618673 -164.859673 
L 160.314005 -162.491803 
L 160.009337 -159.987225 
L 159.704668 -157.352122 
L 159.4 -154.593003 
L 159.095332 -151.716695 
L 158.790663 -148.730318 
L 158.485995 -145.641278 
L 158.181327 -142.457239 
L 157.876658 -139.186114 
L 157.57199 -135.836038 
L 157.267322 -132.415353 
L 156.962654 -128.932585 
L 156.657985 -125.396425 
L 156.353317 -121.815704 
L 156.048649 -118.199374 
L 155.74398 -114.556482 
L 155.439312 -110.89615 
L 155.134644 -107.227552 
L 154.829975 -103.559887 
L 154.525307 -99.902359 
L 154.220639 -96.26415 
L 153.915971 -92.6544 
L 153.611302 -89.082181 
L 153.306634 -85.556473 
L 153.001966 -82.086142 
L 152.697297 -78.679919 
L 152.392629 -75.346372 
L 152.087961 -72.093888 
L 151.783292 -68.930653 
L 151.478624 -65.864625 
L 151.173956 -62.90352 
L 150.869287 -60.054788 
L 150.564619 -57.325594 
L 150.259951 -54.722804 
L 149.955283 -52.252963 
L 149.650614 -49.922282 
L 149.345946 -47.736618 
L 149.041278 -45.701464 
L 148.736609 -43.821934 
L 148.431941 -42.102748 
L 148.127273 -40.548225 
L 147.822604 -39.162266 
L 147.517936 -37.948351 
L 147.213268 -36.909526 
L 146.9086 -36.048397 
L 146.603931 -35.367125 
L 146.299263 -34.867418 
L 145.994595 -34.550531 
L 145.689926 -34.417258 
L 145.385258 -34.467933 
L 145.08059 -34.70243 
L 144.775921 -35.120161 
L 144.471253 -35.720079 
L 144.166585 -36.50068 
L 143.861916 -37.460006 
L 143.557248 -38.595653 
L 143.25258 -39.90477 
L 142.947912 -41.384073 
L 142.643243 -43.029851 
L 142.338575 -44.837972 
L 142.033907 -46.803896 
L 141.729238 -48.922686 
L 141.42457 -51.18902 
L 141.119902 -53.597202 
L 140.815233 -56.141181 
L 140.510565 -58.814561 
L 140.205897 -61.61062 
L 139.901229 -64.522326 
L 139.59656 -67.542354 
L 139.291892 -70.663108 
L 138.987224 -73.876735 
L 138.682555 -77.17515 
L 138.377887 -80.550053 
L 138.073219 -83.992955 
L 137.76855 -87.495192 
L 137.463882 -91.047958 
L 137.159214 -94.642316 
L 136.854545 -98.269233 
L 136.549877 -101.919592 
L 136.245209 -105.584225 
L 135.940541 -109.253932 
L 135.635872 -112.919503 
L 135.331204 -116.571747 
L 135.026536 -120.201511 
L 134.721867 -123.799707 
L 134.417199 -127.357332 
L 134.112531 -130.865494 
L 133.807862 -134.31543 
L 133.503194 -137.698533 
L 133.198526 -141.006372 
L 132.893857 -144.23071 
L 132.589189 -147.363529 
L 132.284521 -150.397046 
L 131.979853 -153.323734 
L 131.675184 -156.136339 
L 131.370516 -158.827897 
L 131.065848 -161.391754 
L 130.761179 -163.821577 
L 130.456511 -166.111371 
L 130.151843 -168.255494 
L 129.847174 -170.248666 
L 129.542506 -172.085987 
L 129.237838 -173.762942 
L 128.93317 -175.275416 
L 128.628501 -176.6197 
L 128.323833 -177.7925 
L 128.019165 -178.790946 
L 127.714496 -179.612594 
L 127.409828 -180.255437 
L 127.10516 -180.717904 
L 126.800491 -180.998867 
L 126.495823 -181.097641 
L 126.191155 -181.013987 
L 125.886486 -180.748113 
L 125.581818 -180.300672 
L 125.27715 -179.672759 
L 124.972482 -178.865913 
L 124.667813 -177.882111 
L 124.363145 -176.723763 
L 124.058477 -175.393709 
L 123.753808 -173.895209 
L 123.44914 -172.231941 
L 123.144472 -170.407989 
L 122.839803 -168.427835 
L 122.535135 -166.296349 
L 122.230467 -164.018778 
L 121.925799 -161.600734 
L 121.62113 -159.04818 
L 121.316462 -156.367421 
L 121.011794 -153.565081 
L 120.707125 -150.648096 
L 120.402457 -147.623691 
L 120.097789 -144.499367 
L 119.79312 -141.282881 
L 119.488452 -137.982229 
L 119.183784 -134.605622 
L 118.879115 -131.161473 
L 118.574447 -127.658368 
L 118.269779 -124.105053 
L 117.965111 -120.510404 
L 117.660442 -116.88341 
L 117.355774 -113.233149 
L 117.051106 -109.568764 
L 116.746437 -105.899441 
L 116.441769 -102.234383 
L 116.137101 -98.582788 
L 115.832432 -94.953828 
L 115.527764 -91.356619 
L 115.223096 -87.800204 
L 114.918428 -84.293522 
L 114.613759 -80.845396 
L 114.309091 -77.464497 
L 114.004423 -74.159333 
L 113.699754 -70.938219 
L 113.395086 -67.809262 
L 113.090418 -64.780334 
L 112.785749 -61.859056 
L 112.481081 -59.052779 
L 112.176413 -56.368561 
L 111.871744 -53.813154 
L 111.567076 -51.392984 
L 111.262408 -49.114134 
L 110.95774 -46.982333 
L 110.653071 -45.002937 
L 110.348403 -43.18092 
L 110.043735 -41.520857 
L 109.739066 -40.026918 
L 109.434398 -38.702851 
L 109.12973 -37.551982 
L 108.825061 -36.577196 
L 108.520393 -35.780941 
L 108.215725 -35.165214 
L 107.911057 -34.731558 
L 107.606388 -34.481063 
L 107.30172 -34.414356 
L 106.997052 -34.531604 
L 106.692383 -34.832515 
L 106.387715 -35.316334 
L 106.083047 -35.981849 
L 105.778378 -36.827389 
L 105.47371 -37.850836 
L 105.169042 -39.049623 
L 104.864373 -40.420741 
L 104.559705 -41.960752 
L 104.255037 -43.665788 
L 103.950369 -45.531572 
L 103.6457 -47.553417 
L 103.341032 -49.726245 
L 103.036364 -52.044598 
L 102.731695 -54.50265 
L 102.427027 -57.094222 
L 102.122359 -59.812798 
L 101.81769 -62.651543 
L 101.513022 -65.603317 
L 101.208354 -68.660694 
L 100.903686 -71.815983 
L 100.599017 -75.061245 
L 100.294349 -78.388314 
L 99.989681 -81.788819 
L 99.685012 -85.254206 
L 99.380344 -88.775756 
L 99.075676 -92.344614 
L 98.771007 -95.951805 
L 98.466339 -99.588262 
L 98.161671 -103.244849 
L 97.857002 -106.912382 
L 97.552334 -110.581654 
L 97.247666 -114.243461 
L 96.942998 -117.888623 
L 96.638329 -121.508007 
L 96.333661 -125.092552 
L 96.028993 -128.633295 
L 95.724324 -132.121385 
L 95.419656 -135.548116 
L 95.114988 -138.904941 
L 94.810319 -142.183497 
L 94.505651 -145.375623 
L 94.200983 -148.473385 
L 93.896314 -151.46909 
L 93.591646 -154.355308 
L 93.286978 -157.124888 
L 92.98231 -159.770977 
L 92.677641 -162.287034 
L 92.372973 -164.666847 
L 92.068305 -166.904548 
L 91.763636 -168.994623 
L 91.458968 -170.93193 
L 91.1543 -172.711707 
L 90.849631 -174.329582 
L 90.544963 -175.781586 
L 90.240295 -177.064159 
L 89.935627 -178.174161 
L 89.630958 -179.108873 
L 89.32629 -179.866012 
L 89.021622 -180.443725 
L 88.716953 -180.840603 
L 88.412285 -181.055678 
L 88.107617 -181.088426 
L 87.802948 -180.93877 
L 87.49828 -180.607079 
L 87.193612 -180.094165 
L 86.888943 -179.401287 
L 86.584275 -178.53014 
L 86.279607 -177.48286 
L 85.974939 -176.262012 
L 85.67027 -174.87059 
L 85.365602 -173.312006 
L 85.060934 -171.590085 
L 84.756265 -169.709057 
L 84.451597 -167.673546 
L 84.146929 -165.488559 
L 83.84226 -163.159476 
L 83.537592 -160.692039 
L 83.232924 -158.092336 
L 82.928256 -155.366789 
L 82.623587 -152.522136 
L 82.318919 -149.565421 
L 82.014251 -146.50397 
L 81.709582 -143.345379 
L 81.404914 -140.097494 
L 81.100246 -136.768391 
L 80.795577 -133.366356 
L 80.490909 -129.899867 
L 80.186241 -126.377572 
L 79.881572 -122.808264 
L 79.576904 -119.200865 
L 79.272236 -115.564397 
L 78.967568 -111.907966 
L 78.662899 -108.240731 
L 78.358231 -104.571888 
L 78.053563 -100.910642 
L 77.748894 -97.266184 
L 77.444226 -93.647667 
L 77.139558 -90.064184 
L 76.834889 -86.524743 
L 76.530221 -83.038245 
L 76.225553 -79.613458 
L 75.920885 -76.258999 
L 75.616216 -72.983307 
L 75.311548 -69.794626 
L 75.00688 -66.700978 
L 74.702211 -63.710148 
L 74.397543 -60.829661 
L 74.092875 -58.066765 
L 73.788206 -55.428407 
L 73.483538 -52.921225 
L 73.17887 -50.551521 
L 72.874201 -48.325254 
L 72.569533 -46.248018 
L 72.264865 -44.325032 
L 71.960197 -42.561128 
L 71.655528 -40.960734 
L 71.35086 -39.52787 
L 71.046192 -38.266131 
L 70.741523 -37.178685 
L 70.436855 -36.26826 
L 70.132187 -35.537141 
L 69.827518 -34.98716 
L 69.52285 -34.619698 
L 69.218182 -34.435677 
z
" id="m2eb3dddcc0" style="stroke:#4169e1;stroke-opacity:0.3;"/>
    </defs>
    <g clip-path="url(#pb4fef64b15)">
     <use style="fill:#4169e1;fill-opacity:0.3;stroke:#4169e1;stroke-opacity:0.3;" x="0" xlink:href="#m2eb3dddcc0" y="216"/>
    </g>
   </g>
   <g id="matplotlib.axis_1">
    <g id="xtick_1">
     <g id="line2d_1">
      <defs>
       <path d="M 0 0 
L 0 3.5 
" id="m10475c0d9b" style="stroke:#000000;stroke-width:0.8;"/>
      </defs>
      <g>
       <use style="stroke:#000000;stroke-width:0.8;" x="69.218182" xlink:href="#m10475c0d9b" y="189"/>
      </g>
     </g>
     <g id="text_1">
      <!-- 0 -->
      <g transform="translate(66.036932 203.598437)scale(0.1 -0.1)">
       <defs>
        <path d="M 31.78125 66.40625 
Q 24.171875 66.40625 20.328125 58.90625 
Q 16.5 51.421875 16.5 36.375 
Q 16.5 21.390625 20.328125 13.890625 
Q 24.171875 6.390625 31.78125 6.390625 
Q 39.453125 6.390625 43.28125 13.890625 
Q 47.125 21.390625 47.125 36.375 
Q 47.125 51.421875 43.28125 58.90625 
Q 39.453125 66.40625 31.78125 66.40625 
z
M 31.78125 74.21875 
Q 44.046875 74.21875 50.515625 64.515625 
Q 56.984375 54.828125 56.984375 36.375 
Q 56.984375 17.96875 50.515625 8.265625 
Q 44.046875 -1.421875 31.78125 -1.421875 
Q 19.53125 -1.421875 13.0625 8.265625 
Q 6.59375 17.96875 6.59375 36.375 
Q 6.59375 54.828125 13.0625 64.515625 
Q 19.53125 74.21875 31.78125 74.21875 
z
" id="DejaVuSans-48"/>
       </defs>
       <use xlink:href="#DejaVuSans-48"/>
      </g>
     </g>
    </g>
    <g id="xtick_2">
     <g id="line2d_2">
      <g>
       <use style="stroke:#000000;stroke-width:0.8;" x="130.151843" xlink:href="#m10475c0d9b" y="189"/>
      </g>
     </g>
     <g id="text_2">
      <!-- 200 -->
      <g transform="translate(120.608093 203.598437)scale(0.1 -0.1)">
       <defs>
        <path d="M 19.1875 8.296875 
L 53.609375 8.296875 
L 53.609375 0 
L 7.328125 0 
L 7.328125 8.296875 
Q 12.9375 14.109375 22.625 23.890625 
Q 32.328125 33.6875 34.8125 36.53125 
Q 39.546875 41.84375 41.421875 45.53125 
Q 43.3125 49.21875 43.3125 52.78125 
Q 43.3125 58.59375 39.234375 62.25 
Q 35.15625 65.921875 28.609375 65.921875 
Q 23.96875 65.921875 18.8125 64.3125 
Q 13.671875 62.703125 7.8125 59.421875 
L 7.8125 69.390625 
Q 13.765625 71.78125 18.9375 73 
Q 24.125 74.21875 28.421875 74.21875 
Q 39.75 74.21875 46.484375 68.546875 
Q 53.21875 62.890625 53.21875 53.421875 
Q 53.21875 48.921875 51.53125 44.890625 
Q 49.859375 40.875 45.40625 35.40625 
Q 44.1875 33.984375 37.640625 27.21875 
Q 31.109375 20.453125 19.1875 8.296875 
z
" id="DejaVuSans-50"/>
       </defs>
       <use xlink:href="#DejaVuSans-50"/>
       <use x="63.623047" xlink:href="#DejaVuSans-48"/>
       <use x="127.246094" xlink:href="#DejaVuSans-48"/>
      </g>
     </g>
    </g>
    <g id="xtick_3">
     <g id="line2d_3">
      <g>
       <use style="stroke:#000000;stroke-width:0.8;" x="191.085504" xlink:href="#m10475c0d9b" y="189"/>
      </g>
     </g>
     <g id="text_3">
      <!-- 400 -->
      <g transform="translate(181.541754 203.598437)scale(0.1 -0.1)">
       <defs>
        <path d="M 37.796875 64.3125 
L 12.890625 25.390625 
L 37.796875 25.390625 
z
M 35.203125 72.90625 
L 47.609375 72.90625 
L 47.609375 25.390625 
L 58.015625 25.390625 
L 58.015625 17.1875 
L 47.609375 17.1875 
L 47.609375 0 
L 37.796875 0 
L 37.796875 17.1875 
L 4.890625 17.1875 
L 4.890625 26.703125 
z
" id="DejaVuSans-52"/>
       </defs>
       <use xlink:href="#DejaVuSans-52"/>
       <use x="63.623047" xlink:href="#DejaVuSans-48"/>
       <use x="127.246094" xlink:href="#DejaVuSans-48"/>
      </g>
     </g>
    </g>
    <g id="xtick_4">
     <g id="line2d_4">
      <g>
       <use style="stroke:#000000;stroke-width:0.8;" x="252.019165" xlink:href="#m10475c0d9b" y="189"/>
      </g>
     </g>
     <g id="text_4">
      <!-- 600 -->
      <g transform="translate(242.475415 203.598437)scale(0.1 -0.1)">
       <defs>
        <path d="M 33.015625 40.375 
Q 26.375 40.375 22.484375 35.828125 
Q 18.609375 31.296875 18.609375 23.390625 
Q 18.609375 15.53125 22.484375 10.953125 
Q 26.375 6.390625 33.015625 6.390625 
Q 39.65625 6.390625 43.53125 10.953125 
Q 47.40625 15.53125 47.40625 23.390625 
Q 47.40625 31.296875 43.53125 35.828125 
Q 39.65625 40.375 33.015625 40.375 
z
M 52.59375 71.296875 
L 52.59375 62.3125 
Q 48.875 64.0625 45.09375 64.984375 
Q 41.3125 65.921875 37.59375 65.921875 
Q 27.828125 65.921875 22.671875 59.328125 
Q 17.53125 52.734375 16.796875 39.40625 
Q 19.671875 43.65625 24.015625 45.921875 
Q 28.375 48.1875 33.59375 48.1875 
Q 44.578125 48.1875 50.953125 41.515625 
Q 57.328125 34.859375 57.328125 23.390625 
Q 57.328125 12.15625 50.6875 5.359375 
Q 44.046875 -1.421875 33.015625 -1.421875 
Q 20.359375 -1.421875 13.671875 8.265625 
Q 6.984375 17.96875 6.984375 36.375 
Q 6.984375 53.65625 15.1875 63.9375 
Q 23.390625 74.21875 37.203125 74.21875 
Q 40.921875 74.21875 44.703125 73.484375 
Q 48.484375 72.75 52.59375 71.296875 
z
" id="DejaVuSans-54"/>
       </defs>
       <use xlink:href="#DejaVuSans-54"/>
       <use x="63.623047" xlink:href="#DejaVuSans-48"/>
       <use x="127.246094" xlink:href="#DejaVuSans-48"/>
      </g>
     </g>
    </g>
    <g id="xtick_5">
     <g id="line2d_5">
      <g>
       <use style="stroke:#000000;stroke-width:0.8;" x="312.952826" xlink:href="#m10475c0d9b" y="189"/>
      </g>
     </g>
     <g id="text_5">
      <!-- 800 -->
      <g transform="translate(303.409076 203.598437)scale(0.1 -0.1)">
       <defs>
        <path d="M 31.78125 34.625 
Q 24.75 34.625 20.71875 30.859375 
Q 16.703125 27.09375 16.703125 20.515625 
Q 16.703125 13.921875 20.71875 10.15625 
Q 24.75 6.390625 31.78125 6.390625 
Q 38.8125 6.390625 42.859375 10.171875 
Q 46.921875 13.96875 46.921875 20.515625 
Q 46.921875 27.09375 42.890625 30.859375 
Q 38.875 34.625 31.78125 34.625 
z
M 21.921875 38.8125 
Q 15.578125 40.375 12.03125 44.71875 
Q 8.5 49.078125 8.5 55.328125 
Q 8.5 64.0625 14.71875 69.140625 
Q 20.953125 74.21875 31.78125 74.21875 
Q 42.671875 74.21875 48.875 69.140625 
Q 55.078125 64.0625 55.078125 55.328125 
Q 55.078125 49.078125 51.53125 44.71875 
Q 48 40.375 41.703125 38.8125 
Q 48.828125 37.15625 52.796875 32.3125 
Q 56.78125 27.484375 56.78125 20.515625 
Q 56.78125 9.90625 50.3125 4.234375 
Q 43.84375 -1.421875 31.78125 -1.421875 
Q 19.734375 -1.421875 13.25 4.234375 
Q 6.78125 9.90625 6.78125 20.515625 
Q 6.78125 27.484375 10.78125 32.3125 
Q 14.796875 37.15625 21.921875 38.8125 
z
M 18.3125 54.390625 
Q 18.3125 48.734375 21.84375 45.5625 
Q 25.390625 42.390625 31.78125 42.390625 
Q 38.140625 42.390625 41.71875 45.5625 
Q 45.3125 48.734375 45.3125 54.390625 
Q 45.3125 60.0625 41.71875 63.234375 
Q 38.140625 66.40625 31.78125 66.40625 
Q 25.390625 66.40625 21.84375 63.234375 
Q 18.3125 60.0625 18.3125 54.390625 
z
" id="DejaVuSans-56"/>
       </defs>
       <use xlink:href="#DejaVuSans-56"/>
       <use x="63.623047" xlink:href="#DejaVuSans-48"/>
       <use x="127.246094" xlink:href="#DejaVuSans-48"/>
      </g>
     </g>
    </g>
    <g id="xtick_6">
     <g id="line2d_6">
      <g>
       <use style="stroke:#000000;stroke-width:0.8;" x="373.886486" xlink:href="#m10475c0d9b" y="189"/>
      </g>
     </g>
     <g id="text_6">
      <!-- 1000 -->
      <g transform="translate(361.161486 203.598437)scale(0.1 -0.1)">
       <defs>
        <path d="M 12.40625 8.296875 
L 28.515625 8.296875 
L 28.515625 63.921875 
L 10.984375 60.40625 
L 10.984375 69.390625 
L 28.421875 72.90625 
L 38.28125 72.90625 
L 38.28125 8.296875 
L 54.390625 8.296875 
L 54.390625 0 
L 12.40625 0 
z
" id="DejaVuSans-49"/>
       </defs>
       <use xlink:href="#DejaVuSans-49"/>
       <use x="63.623047" xlink:href="#DejaVuSans-48"/>
       <use x="127.246094" xlink:href="#DejaVuSans-48"/>
       <use x="190.869141" xlink:href="#DejaVuSans-48"/>
      </g>
     </g>
    </g>
    <g id="text_7">
     <!-- Iteration -->
     <g transform="translate(200.191406 217.276563)scale(0.1 -0.1)">
      <defs>
       <path d="M 9.8125 72.90625 
L 19.671875 72.90625 
L 19.671875 0 
L 9.8125 0 
z
" id="DejaVuSans-73"/>
       <path d="M 18.3125 70.21875 
L 18.3125 54.6875 
L 36.8125 54.6875 
L 36.8125 47.703125 
L 18.3125 47.703125 
L 18.3125 18.015625 
Q 18.3125 11.328125 20.140625 9.421875 
Q 21.96875 7.515625 27.59375 7.515625 
L 36.8125 7.515625 
L 36.8125 0 
L 27.59375 0 
Q 17.1875 0 13.234375 3.875 
Q 9.28125 7.765625 9.28125 18.015625 
L 9.28125 47.703125 
L 2.6875 47.703125 
L 2.6875 54.6875 
L 9.28125 54.6875 
L 9.28125 70.21875 
z
" id="DejaVuSans-116"/>
       <path d="M 56.203125 29.59375 
L 56.203125 25.203125 
L 14.890625 25.203125 
Q 15.484375 15.921875 20.484375 11.0625 
Q 25.484375 6.203125 34.421875 6.203125 
Q 39.59375 6.203125 44.453125 7.46875 
Q 49.3125 8.734375 54.109375 11.28125 
L 54.109375 2.78125 
Q 49.265625 0.734375 44.1875 -0.34375 
Q 39.109375 -1.421875 33.890625 -1.421875 
Q 20.796875 -1.421875 13.15625 6.1875 
Q 5.515625 13.8125 5.515625 26.8125 
Q 5.515625 40.234375 12.765625 48.109375 
Q 20.015625 56 32.328125 56 
Q 43.359375 56 49.78125 48.890625 
Q 56.203125 41.796875 56.203125 29.59375 
z
M 47.21875 32.234375 
Q 47.125 39.59375 43.09375 43.984375 
Q 39.0625 48.390625 32.421875 48.390625 
Q 24.90625 48.390625 20.390625 44.140625 
Q 15.875 39.890625 15.1875 32.171875 
z
" id="DejaVuSans-101"/>
       <path d="M 41.109375 46.296875 
Q 39.59375 47.171875 37.8125 47.578125 
Q 36.03125 48 33.890625 48 
Q 26.265625 48 22.1875 43.046875 
Q 18.109375 38.09375 18.109375 28.8125 
L 18.109375 0 
L 9.078125 0 
L 9.078125 54.6875 
L 18.109375 54.6875 
L 18.109375 46.1875 
Q 20.953125 51.171875 25.484375 53.578125 
Q 30.03125 56 36.53125 56 
Q 37.453125 56 38.578125 55.875 
Q 39.703125 55.765625 41.0625 55.515625 
z
" id="DejaVuSans-114"/>
       <path d="M 34.28125 27.484375 
Q 23.390625 27.484375 19.1875 25 
Q 14.984375 22.515625 14.984375 16.5 
Q 14.984375 11.71875 18.140625 8.90625 
Q 21.296875 6.109375 26.703125 6.109375 
Q 34.1875 6.109375 38.703125 11.40625 
Q 43.21875 16.703125 43.21875 25.484375 
L 43.21875 27.484375 
z
M 52.203125 31.203125 
L 52.203125 0 
L 43.21875 0 
L 43.21875 8.296875 
Q 40.140625 3.328125 35.546875 0.953125 
Q 30.953125 -1.421875 24.3125 -1.421875 
Q 15.921875 -1.421875 10.953125 3.296875 
Q 6 8.015625 6 15.921875 
Q 6 25.140625 12.171875 29.828125 
Q 18.359375 34.515625 30.609375 34.515625 
L 43.21875 34.515625 
L 43.21875 35.40625 
Q 43.21875 41.609375 39.140625 45 
Q 35.0625 48.390625 27.6875 48.390625 
Q 23 48.390625 18.546875 47.265625 
Q 14.109375 46.140625 10.015625 43.890625 
L 10.015625 52.203125 
Q 14.9375 54.109375 19.578125 55.046875 
Q 24.21875 56 28.609375 56 
Q 40.484375 56 46.34375 49.84375 
Q 52.203125 43.703125 52.203125 31.203125 
z
" id="DejaVuSans-97"/>
       <path d="M 9.421875 54.6875 
L 18.40625 54.6875 
L 18.40625 0 
L 9.421875 0 
z
M 9.421875 75.984375 
L 18.40625 75.984375 
L 18.40625 64.59375 
L 9.421875 64.59375 
z
" id="DejaVuSans-105"/>
       <path d="M 30.609375 48.390625 
Q 23.390625 48.390625 19.1875 42.75 
Q 14.984375 37.109375 14.984375 27.296875 
Q 14.984375 17.484375 19.15625 11.84375 
Q 23.34375 6.203125 30.609375 6.203125 
Q 37.796875 6.203125 41.984375 11.859375 
Q 46.1875 17.53125 46.1875 27.296875 
Q 46.1875 37.015625 41.984375 42.703125 
Q 37.796875 48.390625 30.609375 48.390625 
z
M 30.609375 56 
Q 42.328125 56 49.015625 48.375 
Q 55.71875 40.765625 55.71875 27.296875 
Q 55.71875 13.875 49.015625 6.21875 
Q 42.328125 -1.421875 30.609375 -1.421875 
Q 18.84375 -1.421875 12.171875 6.21875 
Q 5.515625 13.875 5.515625 27.296875 
Q 5.515625 40.765625 12.171875 48.375 
Q 18.84375 56 30.609375 56 
z
" id="DejaVuSans-111"/>
       <path d="M 54.890625 33.015625 
L 54.890625 0 
L 45.90625 0 
L 45.90625 32.71875 
Q 45.90625 40.484375 42.875 44.328125 
Q 39.84375 48.1875 33.796875 48.1875 
Q 26.515625 48.1875 22.3125 43.546875 
Q 18.109375 38.921875 18.109375 30.90625 
L 18.109375 0 
L 9.078125 0 
L 9.078125 54.6875 
L 18.109375 54.6875 
L 18.109375 46.1875 
Q 21.34375 51.125 25.703125 53.5625 
Q 30.078125 56 35.796875 56 
Q 45.21875 56 50.046875 50.171875 
Q 54.890625 44.34375 54.890625 33.015625 
z
" id="DejaVuSans-110"/>
      </defs>
      <use xlink:href="#DejaVuSans-73"/>
      <use x="29.492188" xlink:href="#DejaVuSans-116"/>
      <use x="68.701172" xlink:href="#DejaVuSans-101"/>
      <use x="130.224609" xlink:href="#DejaVuSans-114"/>
      <use x="171.337891" xlink:href="#DejaVuSans-97"/>
      <use x="232.617188" xlink:href="#DejaVuSans-116"/>
      <use x="271.826172" xlink:href="#DejaVuSans-105"/>
      <use x="299.609375" xlink:href="#DejaVuSans-111"/>
      <use x="360.791016" xlink:href="#DejaVuSans-110"/>
     </g>
    </g>
   </g>
   <g id="matplotlib.axis_2">
    <g id="ytick_1">
     <g id="line2d_7">
      <defs>
       <path d="M 0 0 
L -3.5 0 
" id="ma482d7a81a" style="stroke:#000000;stroke-width:0.8;"/>
      </defs>
      <g>
       <use style="stroke:#000000;stroke-width:0.8;" x="54" xlink:href="#ma482d7a81a" y="165.56521"/>
      </g>
     </g>
     <g id="text_8">
      <!-- 0.00020 -->
      <g transform="translate(5.646875 169.364429)scale(0.1 -0.1)">
       <defs>
        <path d="M 10.6875 12.40625 
L 21 12.40625 
L 21 0 
L 10.6875 0 
z
" id="DejaVuSans-46"/>
       </defs>
       <use xlink:href="#DejaVuSans-48"/>
       <use x="63.623047" xlink:href="#DejaVuSans-46"/>
       <use x="95.410156" xlink:href="#DejaVuSans-48"/>
       <use x="159.033203" xlink:href="#DejaVuSans-48"/>
       <use x="222.65625" xlink:href="#DejaVuSans-48"/>
       <use x="286.279297" xlink:href="#DejaVuSans-50"/>
       <use x="349.902344" xlink:href="#DejaVuSans-48"/>
      </g>
     </g>
    </g>
    <g id="ytick_2">
     <g id="line2d_8">
      <g>
       <use style="stroke:#000000;stroke-width:0.8;" x="54" xlink:href="#ma482d7a81a" y="132.877372"/>
      </g>
     </g>
     <g id="text_9">
      <!-- 0.00025 -->
      <g transform="translate(5.646875 136.67659)scale(0.1 -0.1)">
       <defs>
        <path d="M 10.796875 72.90625 
L 49.515625 72.90625 
L 49.515625 64.59375 
L 19.828125 64.59375 
L 19.828125 46.734375 
Q 21.96875 47.46875 24.109375 47.828125 
Q 26.265625 48.1875 28.421875 48.1875 
Q 40.625 48.1875 47.75 41.5 
Q 54.890625 34.8125 54.890625 23.390625 
Q 54.890625 11.625 47.5625 5.09375 
Q 40.234375 -1.421875 26.90625 -1.421875 
Q 22.3125 -1.421875 17.546875 -0.640625 
Q 12.796875 0.140625 7.71875 1.703125 
L 7.71875 11.625 
Q 12.109375 9.234375 16.796875 8.0625 
Q 21.484375 6.890625 26.703125 6.890625 
Q 35.15625 6.890625 40.078125 11.328125 
Q 45.015625 15.765625 45.015625 23.390625 
Q 45.015625 31 40.078125 35.4375 
Q 35.15625 39.890625 26.703125 39.890625 
Q 22.75 39.890625 18.8125 39.015625 
Q 14.890625 38.140625 10.796875 36.28125 
z
" id="DejaVuSans-53"/>
       </defs>
       <use xlink:href="#DejaVuSans-48"/>
       <use x="63.623047" xlink:href="#DejaVuSans-46"/>
       <use x="95.410156" xlink:href="#DejaVuSans-48"/>
       <use x="159.033203" xlink:href="#DejaVuSans-48"/>
       <use x="222.65625" xlink:href="#DejaVuSans-48"/>
       <use x="286.279297" xlink:href="#DejaVuSans-50"/>
       <use x="349.902344" xlink:href="#DejaVuSans-53"/>
      </g>
     </g>
    </g>
    <g id="ytick_3">
     <g id="line2d_9">
      <g>
       <use style="stroke:#000000;stroke-width:0.8;" x="54" xlink:href="#ma482d7a81a" y="100.189533"/>
      </g>
     </g>
     <g id="text_10">
      <!-- 0.00030 -->
      <g transform="translate(5.646875 103.988752)scale(0.1 -0.1)">
       <defs>
        <path d="M 40.578125 39.3125 
Q 47.65625 37.796875 51.625 33 
Q 55.609375 28.21875 55.609375 21.1875 
Q 55.609375 10.40625 48.1875 4.484375 
Q 40.765625 -1.421875 27.09375 -1.421875 
Q 22.515625 -1.421875 17.65625 -0.515625 
Q 12.796875 0.390625 7.625 2.203125 
L 7.625 11.71875 
Q 11.71875 9.328125 16.59375 8.109375 
Q 21.484375 6.890625 26.8125 6.890625 
Q 36.078125 6.890625 40.9375 10.546875 
Q 45.796875 14.203125 45.796875 21.1875 
Q 45.796875 27.640625 41.28125 31.265625 
Q 36.765625 34.90625 28.71875 34.90625 
L 20.21875 34.90625 
L 20.21875 43.015625 
L 29.109375 43.015625 
Q 36.375 43.015625 40.234375 45.921875 
Q 44.09375 48.828125 44.09375 54.296875 
Q 44.09375 59.90625 40.109375 62.90625 
Q 36.140625 65.921875 28.71875 65.921875 
Q 24.65625 65.921875 20.015625 65.03125 
Q 15.375 64.15625 9.8125 62.3125 
L 9.8125 71.09375 
Q 15.4375 72.65625 20.34375 73.4375 
Q 25.25 74.21875 29.59375 74.21875 
Q 40.828125 74.21875 47.359375 69.109375 
Q 53.90625 64.015625 53.90625 55.328125 
Q 53.90625 49.265625 50.4375 45.09375 
Q 46.96875 40.921875 40.578125 39.3125 
z
" id="DejaVuSans-51"/>
       </defs>
       <use xlink:href="#DejaVuSans-48"/>
       <use x="63.623047" xlink:href="#DejaVuSans-46"/>
       <use x="95.410156" xlink:href="#DejaVuSans-48"/>
       <use x="159.033203" xlink:href="#DejaVuSans-48"/>
       <use x="222.65625" xlink:href="#DejaVuSans-48"/>
       <use x="286.279297" xlink:href="#DejaVuSans-51"/>
       <use x="349.902344" xlink:href="#DejaVuSans-48"/>
      </g>
     </g>
    </g>
    <g id="ytick_4">
     <g id="line2d_10">
      <g>
       <use style="stroke:#000000;stroke-width:0.8;" x="54" xlink:href="#ma482d7a81a" y="67.501695"/>
      </g>
     </g>
     <g id="text_11">
      <!-- 0.00035 -->
      <g transform="translate(5.646875 71.300913)scale(0.1 -0.1)">
       <use xlink:href="#DejaVuSans-48"/>
       <use x="63.623047" xlink:href="#DejaVuSans-46"/>
       <use x="95.410156" xlink:href="#DejaVuSans-48"/>
       <use x="159.033203" xlink:href="#DejaVuSans-48"/>
       <use x="222.65625" xlink:href="#DejaVuSans-48"/>
       <use x="286.279297" xlink:href="#DejaVuSans-51"/>
       <use x="349.902344" xlink:href="#DejaVuSans-53"/>
      </g>
     </g>
    </g>
    <g id="ytick_5">
     <g id="line2d_11">
      <g>
       <use style="stroke:#000000;stroke-width:0.8;" x="54" xlink:href="#ma482d7a81a" y="34.813856"/>
      </g>
     </g>
     <g id="text_12">
      <!-- 0.00040 -->
      <g transform="translate(5.646875 38.613075)scale(0.1 -0.1)">
       <use xlink:href="#DejaVuSans-48"/>
       <use x="63.623047" xlink:href="#DejaVuSans-46"/>
       <use x="95.410156" xlink:href="#DejaVuSans-48"/>
       <use x="159.033203" xlink:href="#DejaVuSans-48"/>
       <use x="222.65625" xlink:href="#DejaVuSans-48"/>
       <use x="286.279297" xlink:href="#DejaVuSans-52"/>
       <use x="349.902344" xlink:href="#DejaVuSans-48"/>
      </g>
     </g>
    </g>
    <g id="text_13">
     <!-- E[$\psi_p$] -->
     <g transform="translate(-1.453125 120.21)rotate(-90)scale(0.1 -0.1)">
      <defs>
       <path d="M 9.8125 72.90625 
L 55.90625 72.90625 
L 55.90625 64.59375 
L 19.671875 64.59375 
L 19.671875 43.015625 
L 54.390625 43.015625 
L 54.390625 34.71875 
L 19.671875 34.71875 
L 19.671875 8.296875 
L 56.78125 8.296875 
L 56.78125 0 
L 9.8125 0 
z
" id="DejaVuSans-69"/>
       <path d="M 8.59375 75.984375 
L 29.296875 75.984375 
L 29.296875 69 
L 17.578125 69 
L 17.578125 -6.203125 
L 29.296875 -6.203125 
L 29.296875 -13.1875 
L 8.59375 -13.1875 
z
" id="DejaVuSans-91"/>
       <path d="M 24.859375 -1.21875 
Q 13.921875 0.59375 9.625 5.328125 
Q 4.34375 11.140625 6.640625 23 
L 12.796875 54.6875 
L 21.875 54.6875 
L 15.765625 23.34375 
Q 14.0625 14.40625 17.484375 10.6875 
Q 20.515625 7.46875 26.421875 6.78125 
L 35.6875 54.6875 
L 44.625 54.6875 
L 35.359375 6.84375 
Q 41.890625 7.515625 45.75 10.75 
Q 50.734375 14.84375 52.390625 23.390625 
L 58.453125 54.6875 
L 67.53125 54.6875 
L 61.375 23.046875 
Q 58.984375 10.75 51.5625 5.375 
Q 44.875 0.53125 33.796875 -1.171875 
L 29.984375 -20.796875 
L 21.046875 -20.796875 
z
" id="DejaVuSans-Oblique-968"/>
       <path d="M 49.609375 33.6875 
Q 49.609375 40.875 46.484375 44.671875 
Q 43.359375 48.484375 37.5 48.484375 
Q 33.5 48.484375 29.859375 46.4375 
Q 26.21875 44.390625 23.390625 40.484375 
Q 20.609375 36.625 18.9375 31.15625 
Q 17.28125 25.6875 17.28125 20.3125 
Q 17.28125 13.484375 20.40625 9.796875 
Q 23.53125 6.109375 29.296875 6.109375 
Q 33.546875 6.109375 37.1875 8.109375 
Q 40.828125 10.109375 43.40625 13.921875 
Q 46.1875 17.921875 47.890625 23.34375 
Q 49.609375 28.765625 49.609375 33.6875 
z
M 21.78125 46.390625 
Q 25.390625 51.125 30.296875 53.5625 
Q 35.203125 56 41.21875 56 
Q 49.609375 56 54.25 50.5 
Q 58.890625 45.015625 58.890625 35.109375 
Q 58.890625 27 56 19.65625 
Q 53.125 12.3125 47.703125 6.5 
Q 44.09375 2.640625 39.546875 0.609375 
Q 35.015625 -1.421875 29.984375 -1.421875 
Q 24.171875 -1.421875 20.21875 1 
Q 16.265625 3.421875 14.3125 8.203125 
L 8.6875 -20.796875 
L -0.296875 -20.796875 
L 14.40625 54.6875 
L 23.390625 54.6875 
z
" id="DejaVuSans-Oblique-112"/>
       <path d="M 30.421875 75.984375 
L 30.421875 -13.1875 
L 9.71875 -13.1875 
L 9.71875 -6.203125 
L 21.390625 -6.203125 
L 21.390625 69 
L 9.71875 69 
L 9.71875 75.984375 
z
" id="DejaVuSans-93"/>
      </defs>
      <use transform="translate(0 0.015625)" xlink:href="#DejaVuSans-69"/>
      <use transform="translate(63.183594 0.015625)" xlink:href="#DejaVuSans-91"/>
      <use transform="translate(102.197266 0.015625)" xlink:href="#DejaVuSans-Oblique-968"/>
      <use transform="translate(168.164062 -16.390625)scale(0.7)" xlink:href="#DejaVuSans-Oblique-112"/>
      <use transform="translate(215.332031 0.015625)" xlink:href="#DejaVuSans-93"/>
     </g>
    </g>
   </g>
   <g id="line2d_12">
    <path clip-path="url(#pb4fef64b15)" d="M 69.218182 180.779507 
L 69.52285 180.595484 
L 69.827518 180.22802 
L 70.436855 178.946914 
L 71.046192 176.949034 
L 71.655528 174.254419 
L 72.569533 168.967115 
L 73.483538 162.293884 
L 74.702211 151.504928 
L 76.225553 135.601585 
L 78.662899 106.974291 
L 81.404914 75.117562 
L 82.928256 59.848305 
L 84.146929 49.726567 
L 85.060934 43.625063 
L 85.974939 38.953154 
L 86.584275 36.685035 
L 87.193612 35.121016 
L 87.802948 34.276414 
L 88.107617 34.126758 
L 88.412285 34.159506 
L 88.716953 34.374579 
L 89.32629 35.349166 
L 89.935627 37.041008 
L 90.544963 39.433572 
L 91.458968 44.283208 
L 92.372973 50.548268 
L 93.591646 60.859775 
L 95.114988 76.310106 
L 97.247666 100.971561 
L 100.599017 140.153813 
L 102.122359 155.402297 
L 103.341032 165.488882 
L 104.255037 171.549361 
L 105.169042 176.165544 
L 105.778378 178.387786 
L 106.387715 179.898847 
L 106.997052 180.683579 
L 107.30172 180.800828 
L 107.606388 180.73412 
L 107.911057 180.483623 
L 108.520393 179.434235 
L 109.12973 177.663187 
L 109.739066 175.18824 
L 110.653071 170.2122 
L 111.567076 163.82213 
L 112.785749 153.356025 
L 114.309091 137.75055 
L 116.441769 112.980639 
L 119.79312 73.932178 
L 121.316462 58.847676 
L 122.535135 48.91878 
L 123.44914 42.983209 
L 124.363145 38.491404 
L 124.972482 36.349263 
L 125.581818 34.91451 
L 126.191155 34.201197 
L 126.495823 34.117543 
L 126.800491 34.216317 
L 127.10516 34.497278 
L 127.714496 35.602582 
L 128.323833 37.422667 
L 128.93317 39.93974 
L 129.847174 44.96647 
L 130.761179 51.393535 
L 131.979853 61.891346 
L 133.503194 77.516512 
L 135.635872 102.295519 
L 138.987224 141.338325 
L 140.510565 156.400537 
L 141.729238 166.292444 
L 142.643243 172.1853 
L 143.557248 176.619516 
L 144.166585 178.714497 
L 144.775921 180.095021 
L 145.385258 180.747251 
L 145.689926 180.797926 
L 145.994595 180.664652 
L 146.299263 180.347763 
L 146.9086 179.166778 
L 147.517936 177.266815 
L 148.127273 174.66693 
L 149.041278 169.51367 
L 149.955283 162.962147 
L 151.173956 152.311558 
L 152.697297 136.535126 
L 154.829975 111.655135 
L 157.876658 76.028941 
L 159.4 60.622088 
L 160.618673 50.355451 
L 161.532678 44.128692 
L 162.446683 39.320408 
L 163.05602 36.956682 
L 163.665356 35.294395 
L 164.274693 34.349827 
L 164.579361 34.149857 
L 164.884029 34.132232 
L 165.188698 34.297 
L 165.493366 34.643759 
L 166.102703 35.879427 
L 166.712039 37.827172 
L 167.321376 40.467946 
L 168.235381 45.670153 
L 169.149386 52.25715 
L 170.368059 62.937866 
L 171.8914 78.73278 
L 174.024079 103.621224 
L 177.070762 139.243047 
L 178.594103 154.630242 
L 179.812776 164.863097 
L 180.726781 171.050098 
L 181.640786 175.804067 
L 182.250123 178.122894 
L 182.859459 179.733196 
L 183.468796 180.61883 
L 183.773464 180.786836 
L 184.078133 180.77092 
L 184.382801 180.571123 
L 184.687469 180.187946 
L 185.296806 178.875754 
L 185.906143 176.847501 
L 186.515479 174.123533 
L 187.429484 168.794749 
L 188.343489 162.08393 
L 189.562162 151.252367 
L 191.085504 135.310179 
L 193.52285 106.659236 
L 196.264865 74.835403 
L 197.788206 59.609525 
L 199.00688 49.533236 
L 199.920885 43.470917 
L 200.834889 38.841596 
L 201.444226 36.603295 
L 202.053563 35.069895 
L 202.662899 34.256413 
L 202.967568 34.12241 
L 203.272236 34.170821 
L 203.576904 34.40153 
L 204.186241 35.407154 
L 204.795577 37.129467 
L 205.404914 39.551636 
L 206.318919 44.443423 
L 207.232924 50.747097 
L 208.451597 61.1031 
L 209.974939 76.595361 
L 212.107617 101.285432 
L 215.458968 140.435772 
L 216.98231 155.640523 
L 218.200983 165.681228 
L 219.114988 171.702124 
L 220.028993 176.275278 
L 220.638329 178.467397 
L 221.247666 179.947537 
L 221.857002 180.700861 
L 222.161671 180.802321 
L 222.466339 180.71982 
L 222.771007 180.453566 
L 223.380344 179.372929 
L 223.989681 177.571247 
L 224.599017 175.066589 
L 225.513022 170.048361 
L 226.427027 163.619801 
L 227.6457 153.109621 
L 229.169042 137.463125 
L 231.30172 112.666364 
L 234.653071 73.6526 
L 236.176413 58.612645 
L 237.395086 48.729966 
L 238.309091 42.834039 
L 239.223096 38.38517 
L 239.832432 36.273014 
L 240.441769 34.868993 
L 241.051106 34.186858 
L 241.355774 34.118865 
L 241.660442 34.233296 
L 241.965111 34.529874 
L 242.574447 35.666135 
L 243.183784 37.516556 
L 243.79312 40.063047 
L 244.707125 45.131549 
L 245.62113 51.596741 
L 246.839803 62.138248 
L 248.363145 77.804142 
L 250.495823 102.609844 
L 253.847174 141.617684 
L 255.370516 156.63498 
L 256.589189 166.480227 
L 257.503194 172.333036 
L 258.417199 176.723871 
L 259.026536 178.788562 
L 259.635872 180.138054 
L 260.245209 180.758821 
L 260.549877 180.793701 
L 260.854545 180.644642 
L 261.159214 180.312018 
L 261.76855 179.099874 
L 262.377887 177.169422 
L 262.987224 174.540024 
L 263.901229 169.344973 
L 264.815233 162.755467 
L 266.033907 152.06163 
L 267.557248 136.245406 
L 269.689926 111.340504 
L 272.736609 75.744875 
L 274.259951 60.380499 
L 275.478624 50.158716 
L 276.392629 43.970784 
L 277.306634 39.204813 
L 277.915971 36.870772 
L 278.525307 35.239011 
L 279.134644 34.325511 
L 279.439312 34.141184 
L 279.74398 34.139224 
L 280.048649 34.319639 
L 280.353317 34.68199 
L 280.962654 35.948525 
L 281.57199 37.926461 
L 282.181327 40.596456 
L 283.095332 45.840044 
L 284.009337 52.464668 
L 285.22801 63.188265 
L 286.751351 79.022691 
L 288.884029 103.935899 
L 291.930713 139.526927 
L 293.454054 154.871302 
L 294.672727 165.05888 
L 295.586732 171.206662 
L 296.500737 175.91788 
L 297.110074 178.206718 
L 297.71941 179.786191 
L 298.328747 180.640464 
L 298.633415 180.79269 
L 298.938084 180.760978 
L 299.242752 180.545411 
L 299.852088 179.565329 
L 300.461425 177.862271 
L 301.070762 175.453319 
L 301.984767 170.571084 
L 302.898771 164.266719 
L 304.117445 153.898962 
L 305.640786 138.385406 
L 307.773464 113.676626 
L 311.124816 74.553848 
L 312.648157 59.371627 
L 313.86683 49.340971 
L 314.780835 43.317946 
L 315.69484 38.731298 
L 316.304177 36.522856 
L 316.913514 35.020102 
L 317.52285 34.237754 
L 317.827518 34.119406 
L 318.132187 34.18348 
L 318.436855 34.429821 
L 319.046192 35.466463 
L 319.655528 37.219216 
L 320.264865 39.670948 
L 321.17887 44.604797 
L 322.092875 50.94697 
L 323.311548 61.347282 
L 324.834889 76.881188 
L 326.967568 101.59942 
L 330.318919 140.717122 
L 331.84226 155.877859 
L 333.060934 165.872497 
L 333.974939 171.853698 
L 334.888943 176.383739 
L 335.49828 178.545695 
L 336.107617 179.994887 
L 336.716953 180.716788 
L 337.021622 180.802457 
L 337.32629 180.704165 
L 337.630958 180.422159 
L 338.240295 179.310294 
L 338.849631 177.478011 
L 339.458968 174.943688 
L 340.372973 169.883365 
L 341.286978 163.416434 
L 342.505651 152.862373 
L 344.028993 137.175148 
L 346.161671 112.351994 
L 349.208354 76.660419 
L 350.731695 61.160455 
L 351.950369 50.7951 
L 352.864373 44.482717 
L 353.778378 39.580989 
L 354.387715 37.151642 
L 354.997052 35.421825 
L 355.606388 34.408479 
L 355.911057 34.173862 
L 356.215725 34.121532 
L 356.520393 34.251619 
L 356.825061 34.563808 
L 357.434398 35.731005 
L 358.043735 37.611729 
L 358.653071 40.187591 
L 359.567076 45.297775 
L 360.481081 51.800976 
L 361.699754 62.385987 
L 363.223096 78.092321 
L 365.355774 102.924261 
L 368.402457 138.611966 
L 369.925799 154.093021 
L 371.144472 164.425519 
L 372.058477 170.69901 
L 372.972482 175.54739 
L 373.581818 177.93251 
L 373.581818 177.93251 
" style="fill:none;stroke:#4169e1;stroke-linecap:square;stroke-width:1.5;"/>
   </g>
   <g id="patch_3">
    <path d="M 54 189 
L 54 25.92 
" style="fill:none;stroke:#000000;stroke-linecap:square;stroke-linejoin:miter;stroke-width:0.8;"/>
   </g>
   <g id="patch_4">
    <path d="M 388.8 189 
L 388.8 25.92 
" style="fill:none;stroke:#000000;stroke-linecap:square;stroke-linejoin:miter;stroke-width:0.8;"/>
   </g>
   <g id="patch_5">
    <path d="M 54 189 
L 388.8 189 
" style="fill:none;stroke:#000000;stroke-linecap:square;stroke-linejoin:miter;stroke-width:0.8;"/>
   </g>
   <g id="patch_6">
    <path d="M 54 25.92 
L 388.8 25.92 
" style="fill:none;stroke:#000000;stroke-linecap:square;stroke-linejoin:miter;stroke-width:0.8;"/>
   </g>
   <g id="text_14">
    <!-- Nx = 10000, Nt = 1000, T = 50 -->
    <g transform="translate(126.709688 19.92)scale(0.12 -0.12)">
     <defs>
      <path d="M 9.8125 72.90625 
L 23.09375 72.90625 
L 55.421875 11.921875 
L 55.421875 72.90625 
L 64.984375 72.90625 
L 64.984375 0 
L 51.703125 0 
L 19.390625 60.984375 
L 19.390625 0 
L 9.8125 0 
z
" id="DejaVuSans-78"/>
      <path d="M 54.890625 54.6875 
L 35.109375 28.078125 
L 55.90625 0 
L 45.3125 0 
L 29.390625 21.484375 
L 13.484375 0 
L 2.875 0 
L 24.125 28.609375 
L 4.6875 54.6875 
L 15.28125 54.6875 
L 29.78125 35.203125 
L 44.28125 54.6875 
z
" id="DejaVuSans-120"/>
      <path id="DejaVuSans-32"/>
      <path d="M 10.59375 45.40625 
L 73.1875 45.40625 
L 73.1875 37.203125 
L 10.59375 37.203125 
z
M 10.59375 25.484375 
L 73.1875 25.484375 
L 73.1875 17.1875 
L 10.59375 17.1875 
z
" id="DejaVuSans-61"/>
      <path d="M 11.71875 12.40625 
L 22.015625 12.40625 
L 22.015625 4 
L 14.015625 -11.625 
L 7.71875 -11.625 
L 11.71875 4 
z
" id="DejaVuSans-44"/>
      <path d="M -0.296875 72.90625 
L 61.375 72.90625 
L 61.375 64.59375 
L 35.5 64.59375 
L 35.5 0 
L 25.59375 0 
L 25.59375 64.59375 
L -0.296875 64.59375 
z
" id="DejaVuSans-84"/>
     </defs>
     <use xlink:href="#DejaVuSans-78"/>
     <use x="74.804688" xlink:href="#DejaVuSans-120"/>
     <use x="133.984375" xlink:href="#DejaVuSans-32"/>
     <use x="165.771484" xlink:href="#DejaVuSans-61"/>
     <use x="249.560547" xlink:href="#DejaVuSans-32"/>
     <use x="281.347656" xlink:href="#DejaVuSans-49"/>
     <use x="344.970703" xlink:href="#DejaVuSans-48"/>
     <use x="408.59375" xlink:href="#DejaVuSans-48"/>
     <use x="472.216797" xlink:href="#DejaVuSans-48"/>
     <use x="535.839844" xlink:href="#DejaVuSans-48"/>
     <use x="599.462891" xlink:href="#DejaVuSans-44"/>
     <use x="631.25" xlink:href="#DejaVuSans-32"/>
     <use x="663.037109" xlink:href="#DejaVuSans-78"/>
     <use x="737.841797" xlink:href="#DejaVuSans-116"/>
     <use x="777.050781" xlink:href="#DejaVuSans-32"/>
     <use x="808.837891" xlink:href="#DejaVuSans-61"/>
     <use x="892.626953" xlink:href="#DejaVuSans-32"/>
     <use x="924.414062" xlink:href="#DejaVuSans-49"/>
     <use x="988.037109" xlink:href="#DejaVuSans-48"/>
     <use x="1051.660156" xlink:href="#DejaVuSans-48"/>
     <use x="1115.283203" xlink:href="#DejaVuSans-48"/>
     <use x="1178.90625" xlink:href="#DejaVuSans-44"/>
     <use x="1210.693359" xlink:href="#DejaVuSans-32"/>
     <use x="1242.480469" xlink:href="#DejaVuSans-84"/>
     <use x="1303.564453" xlink:href="#DejaVuSans-32"/>
     <use x="1335.351562" xlink:href="#DejaVuSans-61"/>
     <use x="1419.140625" xlink:href="#DejaVuSans-32"/>
     <use x="1450.927734" xlink:href="#DejaVuSans-53"/>
     <use x="1514.550781" xlink:href="#DejaVuSans-48"/>
    </g>
   </g>
  </g>
 </g>
 <defs>
  <clipPath id="pb4fef64b15">
   <rect height="163.08" width="334.8" x="54" y="25.92"/>
  </clipPath>
 </defs>
</svg>
