<?xml version="1.0" encoding="utf-8" standalone="no"?>
<!DOCTYPE svg PUBLIC "-//W3C//DTD SVG 1.1//EN"
  "http://www.w3.org/Graphics/SVG/1.1/DTD/svg11.dtd">
<!-- Created with matplotlib (https://matplotlib.org/) -->
<svg height="288pt" version="1.1" viewBox="0 0 432 288" width="432pt" xmlns="http://www.w3.org/2000/svg" xmlns:xlink="http://www.w3.org/1999/xlink">
 <metadata>
  <rdf:RDF xmlns:cc="http://creativecommons.org/ns#" xmlns:dc="http://purl.org/dc/elements/1.1/" xmlns:rdf="http://www.w3.org/1999/02/22-rdf-syntax-ns#">
   <cc:Work>
    <dc:type rdf:resource="http://purl.org/dc/dcmitype/StillImage"/>
    <dc:date>2021-11-12T10:27:19.391787</dc:date>
    <dc:format>image/svg+xml</dc:format>
    <dc:creator>
     <cc:Agent>
      <dc:title>Matplotlib v3.3.4, https://matplotlib.org/</dc:title>
     </cc:Agent>
    </dc:creator>
   </cc:Work>
  </rdf:RDF>
 </metadata>
 <defs>
  <style type="text/css">*{stroke-linecap:butt;stroke-linejoin:round;}</style>
 </defs>
 <g id="figure_1">
  <g id="patch_1">
   <path d="M 0 288 
L 432 288 
L 432 0 
L 0 0 
z
" style="fill:none;"/>
  </g>
  <g id="axes_1">
   <g id="patch_2">
    <path d="M 54 252 
L 388.8 252 
L 388.8 34.56 
L 54 34.56 
z
" style="fill:#ffffff;"/>
   </g>
   <g id="patch_3">
    <path clip-path="url(#pbd7ded01d6)" d="M 63.3 252 
L 69.034729 252 
L 69.034729 53.63793 
L 63.3 53.63793 
z
" style="fill:#1f77b4;opacity:0.5;"/>
   </g>
   <g id="patch_4">
    <path clip-path="url(#pbd7ded01d6)" d="M 69.034729 252 
L 74.769457 252 
L 74.769457 74.929183 
L 69.034729 74.929183 
z
" style="fill:#1f77b4;opacity:0.5;"/>
   </g>
   <g id="patch_5">
    <path clip-path="url(#pbd7ded01d6)" d="M 74.769457 252 
L 80.504186 252 
L 80.504186 98.720218 
L 74.769457 98.720218 
z
" style="fill:#1f77b4;opacity:0.5;"/>
   </g>
   <g id="patch_6">
    <path clip-path="url(#pbd7ded01d6)" d="M 80.504186 252 
L 86.238914 252 
L 86.238914 113.736155 
L 80.504186 113.736155 
z
" style="fill:#1f77b4;opacity:0.5;"/>
   </g>
   <g id="patch_7">
    <path clip-path="url(#pbd7ded01d6)" d="M 86.238914 252 
L 91.973643 252 
L 91.973643 128.562452 
L 86.238914 128.562452 
z
" style="fill:#1f77b4;opacity:0.5;"/>
   </g>
   <g id="patch_8">
    <path clip-path="url(#pbd7ded01d6)" d="M 91.973643 252 
L 97.708372 252 
L 97.708372 143.819747 
L 91.973643 143.819747 
z
" style="fill:#1f77b4;opacity:0.5;"/>
   </g>
   <g id="patch_9">
    <path clip-path="url(#pbd7ded01d6)" d="M 97.708372 252 
L 103.4431 252 
L 103.4431 159.128761 
L 97.708372 159.128761 
z
" style="fill:#1f77b4;opacity:0.5;"/>
   </g>
   <g id="patch_10">
    <path clip-path="url(#pbd7ded01d6)" d="M 103.4431 252 
L 109.177829 252 
L 109.177829 168.369337 
L 103.4431 168.369337 
z
" style="fill:#1f77b4;opacity:0.5;"/>
   </g>
   <g id="patch_11">
    <path clip-path="url(#pbd7ded01d6)" d="M 109.177829 252 
L 114.912557 252 
L 114.912557 176.76516 
L 109.177829 176.76516 
z
" style="fill:#1f77b4;opacity:0.5;"/>
   </g>
   <g id="patch_12">
    <path clip-path="url(#pbd7ded01d6)" d="M 114.912557 252 
L 120.647286 252 
L 120.647286 186.022976 
L 114.912557 186.022976 
z
" style="fill:#1f77b4;opacity:0.5;"/>
   </g>
   <g id="patch_13">
    <path clip-path="url(#pbd7ded01d6)" d="M 120.647286 252 
L 126.382015 252 
L 126.382015 193.487844 
L 120.647286 193.487844 
z
" style="fill:#1f77b4;opacity:0.5;"/>
   </g>
   <g id="patch_14">
    <path clip-path="url(#pbd7ded01d6)" d="M 126.382015 252 
L 132.116743 252 
L 132.116743 201.418189 
L 126.382015 201.418189 
z
" style="fill:#1f77b4;opacity:0.5;"/>
   </g>
   <g id="patch_15">
    <path clip-path="url(#pbd7ded01d6)" d="M 132.116743 252 
L 137.851472 252 
L 137.851472 206.417755 
L 132.116743 206.417755 
z
" style="fill:#1f77b4;opacity:0.5;"/>
   </g>
   <g id="patch_16">
    <path clip-path="url(#pbd7ded01d6)" d="M 137.851472 252 
L 143.5862 252 
L 143.5862 212.296554 
L 137.851472 212.296554 
z
" style="fill:#1f77b4;opacity:0.5;"/>
   </g>
   <g id="patch_17">
    <path clip-path="url(#pbd7ded01d6)" d="M 143.5862 252 
L 149.320929 252 
L 149.320929 214.261901 
L 143.5862 214.261901 
z
" style="fill:#1f77b4;opacity:0.5;"/>
   </g>
   <g id="patch_18">
    <path clip-path="url(#pbd7ded01d6)" d="M 149.320929 252 
L 155.055657 252 
L 155.055657 220.451018 
L 149.320929 220.451018 
z
" style="fill:#1f77b4;opacity:0.5;"/>
   </g>
   <g id="patch_19">
    <path clip-path="url(#pbd7ded01d6)" d="M 155.055657 252 
L 160.790386 252 
L 160.790386 224.036913 
L 155.055657 224.036913 
z
" style="fill:#1f77b4;opacity:0.5;"/>
   </g>
   <g id="patch_20">
    <path clip-path="url(#pbd7ded01d6)" d="M 160.790386 252 
L 166.525115 252 
L 166.525115 227.157332 
L 160.790386 227.157332 
z
" style="fill:#1f77b4;opacity:0.5;"/>
   </g>
   <g id="patch_21">
    <path clip-path="url(#pbd7ded01d6)" d="M 166.525115 252 
L 172.259843 252 
L 172.259843 229.967432 
L 166.525115 229.967432 
z
" style="fill:#1f77b4;opacity:0.5;"/>
   </g>
   <g id="patch_22">
    <path clip-path="url(#pbd7ded01d6)" d="M 172.259843 252 
L 177.994572 252 
L 177.994572 232.415495 
L 172.259843 232.415495 
z
" style="fill:#1f77b4;opacity:0.5;"/>
   </g>
   <g id="patch_23">
    <path clip-path="url(#pbd7ded01d6)" d="M 177.994572 252 
L 183.7293 252 
L 183.7293 235.570393 
L 177.994572 235.570393 
z
" style="fill:#1f77b4;opacity:0.5;"/>
   </g>
   <g id="patch_24">
    <path clip-path="url(#pbd7ded01d6)" d="M 183.7293 252 
L 189.464029 252 
L 189.464029 237.346101 
L 183.7293 237.346101 
z
" style="fill:#1f77b4;opacity:0.5;"/>
   </g>
   <g id="patch_25">
    <path clip-path="url(#pbd7ded01d6)" d="M 189.464029 252 
L 195.198758 252 
L 195.198758 238.845971 
L 189.464029 238.845971 
z
" style="fill:#1f77b4;opacity:0.5;"/>
   </g>
   <g id="patch_26">
    <path clip-path="url(#pbd7ded01d6)" d="M 195.198758 252 
L 200.933486 252 
L 200.933486 240.38032 
L 195.198758 240.38032 
z
" style="fill:#1f77b4;opacity:0.5;"/>
   </g>
   <g id="patch_27">
    <path clip-path="url(#pbd7ded01d6)" d="M 200.933486 252 
L 206.668215 252 
L 206.668215 241.949149 
L 200.933486 241.949149 
z
" style="fill:#1f77b4;opacity:0.5;"/>
   </g>
   <g id="patch_28">
    <path clip-path="url(#pbd7ded01d6)" d="M 206.668215 252 
L 212.402943 252 
L 212.402943 242.500826 
L 206.668215 242.500826 
z
" style="fill:#1f77b4;opacity:0.5;"/>
   </g>
   <g id="patch_29">
    <path clip-path="url(#pbd7ded01d6)" d="M 212.402943 252 
L 218.137672 252 
L 218.137672 244.673051 
L 212.402943 244.673051 
z
" style="fill:#1f77b4;opacity:0.5;"/>
   </g>
   <g id="patch_30">
    <path clip-path="url(#pbd7ded01d6)" d="M 218.137672 252 
L 223.872401 252 
L 223.872401 244.79373 
L 218.137672 244.79373 
z
" style="fill:#1f77b4;opacity:0.5;"/>
   </g>
   <g id="patch_31">
    <path clip-path="url(#pbd7ded01d6)" d="M 223.872401 252 
L 229.607129 252 
L 229.607129 244.966129 
L 223.872401 244.966129 
z
" style="fill:#1f77b4;opacity:0.5;"/>
   </g>
   <g id="patch_32">
    <path clip-path="url(#pbd7ded01d6)" d="M 229.607129 252 
L 235.341858 252 
L 235.341858 246.25912 
L 229.607129 246.25912 
z
" style="fill:#1f77b4;opacity:0.5;"/>
   </g>
   <g id="patch_33">
    <path clip-path="url(#pbd7ded01d6)" d="M 235.341858 252 
L 241.076586 252 
L 241.076586 247.034914 
L 235.341858 247.034914 
z
" style="fill:#1f77b4;opacity:0.5;"/>
   </g>
   <g id="patch_34">
    <path clip-path="url(#pbd7ded01d6)" d="M 241.076586 252 
L 246.811315 252 
L 246.811315 247.931388 
L 241.076586 247.931388 
z
" style="fill:#1f77b4;opacity:0.5;"/>
   </g>
   <g id="patch_35">
    <path clip-path="url(#pbd7ded01d6)" d="M 246.811315 252 
L 252.546044 252 
L 252.546044 248.034827 
L 246.811315 248.034827 
z
" style="fill:#1f77b4;opacity:0.5;"/>
   </g>
   <g id="patch_36">
    <path clip-path="url(#pbd7ded01d6)" d="M 252.546044 252 
L 258.280772 252 
L 258.280772 248.483064 
L 252.546044 248.483064 
z
" style="fill:#1f77b4;opacity:0.5;"/>
   </g>
   <g id="patch_37">
    <path clip-path="url(#pbd7ded01d6)" d="M 258.280772 252 
L 264.015501 252 
L 264.015501 248.896821 
L 258.280772 248.896821 
z
" style="fill:#1f77b4;opacity:0.5;"/>
   </g>
   <g id="patch_38">
    <path clip-path="url(#pbd7ded01d6)" d="M 264.015501 252 
L 269.750229 252 
L 269.750229 249.414018 
L 264.015501 249.414018 
z
" style="fill:#1f77b4;opacity:0.5;"/>
   </g>
   <g id="patch_39">
    <path clip-path="url(#pbd7ded01d6)" d="M 269.750229 252 
L 275.484958 252 
L 275.484958 249.672616 
L 269.750229 249.672616 
z
" style="fill:#1f77b4;opacity:0.5;"/>
   </g>
   <g id="patch_40">
    <path clip-path="url(#pbd7ded01d6)" d="M 275.484958 252 
L 281.219686 252 
L 281.219686 250.327732 
L 275.484958 250.327732 
z
" style="fill:#1f77b4;opacity:0.5;"/>
   </g>
   <g id="patch_41">
    <path clip-path="url(#pbd7ded01d6)" d="M 281.219686 252 
L 286.954415 252 
L 286.954415 249.827775 
L 281.219686 249.827775 
z
" style="fill:#1f77b4;opacity:0.5;"/>
   </g>
   <g id="patch_42">
    <path clip-path="url(#pbd7ded01d6)" d="M 286.954415 252 
L 292.689144 252 
L 292.689144 250.224292 
L 286.954415 250.224292 
z
" style="fill:#1f77b4;opacity:0.5;"/>
   </g>
   <g id="patch_43">
    <path clip-path="url(#pbd7ded01d6)" d="M 292.689144 252 
L 298.423872 252 
L 298.423872 250.707009 
L 292.689144 250.707009 
z
" style="fill:#1f77b4;opacity:0.5;"/>
   </g>
   <g id="patch_44">
    <path clip-path="url(#pbd7ded01d6)" d="M 298.423872 252 
L 304.158601 252 
L 304.158601 250.775968 
L 298.423872 250.775968 
z
" style="fill:#1f77b4;opacity:0.5;"/>
   </g>
   <g id="patch_45">
    <path clip-path="url(#pbd7ded01d6)" d="M 304.158601 252 
L 309.893329 252 
L 309.893329 250.827688 
L 304.158601 250.827688 
z
" style="fill:#1f77b4;opacity:0.5;"/>
   </g>
   <g id="patch_46">
    <path clip-path="url(#pbd7ded01d6)" d="M 309.893329 252 
L 315.628058 252 
L 315.628058 251.069046 
L 309.893329 251.069046 
z
" style="fill:#1f77b4;opacity:0.5;"/>
   </g>
   <g id="patch_47">
    <path clip-path="url(#pbd7ded01d6)" d="M 315.628058 252 
L 321.362787 252 
L 321.362787 251.103526 
L 315.628058 251.103526 
z
" style="fill:#1f77b4;opacity:0.5;"/>
   </g>
   <g id="patch_48">
    <path clip-path="url(#pbd7ded01d6)" d="M 321.362787 252 
L 327.097515 252 
L 327.097515 251.069046 
L 321.362787 251.069046 
z
" style="fill:#1f77b4;opacity:0.5;"/>
   </g>
   <g id="patch_49">
    <path clip-path="url(#pbd7ded01d6)" d="M 327.097515 252 
L 332.832244 252 
L 332.832244 251.362124 
L 327.097515 251.362124 
z
" style="fill:#1f77b4;opacity:0.5;"/>
   </g>
   <g id="patch_50">
    <path clip-path="url(#pbd7ded01d6)" d="M 332.832244 252 
L 338.566972 252 
L 338.566972 251.362124 
L 332.832244 251.362124 
z
" style="fill:#1f77b4;opacity:0.5;"/>
   </g>
   <g id="patch_51">
    <path clip-path="url(#pbd7ded01d6)" d="M 338.566972 252 
L 344.301701 252 
L 344.301701 251.637962 
L 338.566972 251.637962 
z
" style="fill:#1f77b4;opacity:0.5;"/>
   </g>
   <g id="patch_52">
    <path clip-path="url(#pbd7ded01d6)" d="M 344.301701 252 
L 350.03643 252 
L 350.03643 251.551763 
L 344.301701 251.551763 
z
" style="fill:#1f77b4;opacity:0.5;"/>
   </g>
   <g id="patch_53">
    <path clip-path="url(#pbd7ded01d6)" d="M 350.03643 252 
L 355.771158 252 
L 355.771158 251.741402 
L 350.03643 251.741402 
z
" style="fill:#1f77b4;opacity:0.5;"/>
   </g>
   <g id="patch_54">
    <path clip-path="url(#pbd7ded01d6)" d="M 355.771158 252 
L 361.505887 252 
L 361.505887 251.672442 
L 355.771158 251.672442 
z
" style="fill:#1f77b4;opacity:0.5;"/>
   </g>
   <g id="patch_55">
    <path clip-path="url(#pbd7ded01d6)" d="M 361.505887 252 
L 367.240615 252 
L 367.240615 251.741402 
L 361.505887 251.741402 
z
" style="fill:#1f77b4;opacity:0.5;"/>
   </g>
   <g id="patch_56">
    <path clip-path="url(#pbd7ded01d6)" d="M 367.240615 252 
L 372.975344 252 
L 372.975344 251.827601 
L 367.240615 251.827601 
z
" style="fill:#1f77b4;opacity:0.5;"/>
   </g>
   <g id="patch_57">
    <path clip-path="url(#pbd7ded01d6)" d="M 372.975344 252 
L 378.710073 252 
L 378.710073 251.827601 
L 372.975344 251.827601 
z
" style="fill:#1f77b4;opacity:0.5;"/>
   </g>
   <g id="patch_58">
    <path clip-path="url(#pbd7ded01d6)" d="M 378.710073 252 
L 384.444801 252 
L 384.444801 251.775882 
L 378.710073 251.775882 
z
" style="fill:#1f77b4;opacity:0.5;"/>
   </g>
   <g id="patch_59">
    <path clip-path="url(#pbd7ded01d6)" d="M 384.444801 252 
L 390.17953 252 
L 390.17953 251.810361 
L 384.444801 251.810361 
z
" style="fill:#1f77b4;opacity:0.5;"/>
   </g>
   <g id="patch_60">
    <path clip-path="url(#pbd7ded01d6)" d="M 390.17953 252 
L 395.914258 252 
L 395.914258 251.793121 
L 390.17953 251.793121 
z
" style="fill:#1f77b4;opacity:0.5;"/>
   </g>
   <g id="patch_61">
    <path clip-path="url(#pbd7ded01d6)" d="M 395.914258 252 
L 401.648987 252 
L 401.648987 251.810361 
L 395.914258 251.810361 
z
" style="fill:#1f77b4;opacity:0.5;"/>
   </g>
   <g id="patch_62">
    <path clip-path="url(#pbd7ded01d6)" d="M 401.648987 252 
L 407.383716 252 
L 407.383716 251.862081 
L 401.648987 251.862081 
z
" style="fill:#1f77b4;opacity:0.5;"/>
   </g>
   <g id="patch_63">
    <path clip-path="url(#pbd7ded01d6)" d="M 407.383716 252 
L 413.118444 252 
L 413.118444 251.913801 
L 407.383716 251.913801 
z
" style="fill:#1f77b4;opacity:0.5;"/>
   </g>
   <g id="patch_64">
    <path clip-path="url(#pbd7ded01d6)" d="M 413.118444 252 
L 418.853173 252 
L 418.853173 251.879321 
L 413.118444 251.879321 
z
" style="fill:#1f77b4;opacity:0.5;"/>
   </g>
   <g id="patch_65">
    <path clip-path="url(#pbd7ded01d6)" d="M 418.853173 252 
L 424.587901 252 
L 424.587901 251.913801 
L 418.853173 251.913801 
z
" style="fill:#1f77b4;opacity:0.5;"/>
   </g>
   <g id="patch_66">
    <path clip-path="url(#pbd7ded01d6)" d="M 424.587901 252 
L 430.32263 252 
L 430.32263 251.913801 
L 424.587901 251.913801 
z
" style="fill:#1f77b4;opacity:0.5;"/>
   </g>
   <g id="patch_67">
    <path clip-path="url(#pbd7ded01d6)" d="M 430.32263 252 
L 436.057358 252 
L 436.057358 251.94828 
L 430.32263 251.94828 
z
" style="fill:#1f77b4;opacity:0.5;"/>
   </g>
   <g id="patch_68">
    <path clip-path="url(#pbd7ded01d6)" d="M 436.057358 252 
L 441.792087 252 
L 441.792087 251.93104 
L 436.057358 251.93104 
z
" style="fill:#1f77b4;opacity:0.5;"/>
   </g>
   <g id="patch_69">
    <path clip-path="url(#pbd7ded01d6)" d="M 441.792087 252 
L 447.526816 252 
L 447.526816 251.96552 
L 441.792087 251.96552 
z
" style="fill:#1f77b4;opacity:0.5;"/>
   </g>
   <g id="patch_70">
    <path clip-path="url(#pbd7ded01d6)" d="M 447.526816 252 
L 453.261544 252 
L 453.261544 251.913801 
L 447.526816 251.913801 
z
" style="fill:#1f77b4;opacity:0.5;"/>
   </g>
   <g id="patch_71">
    <path clip-path="url(#pbd7ded01d6)" d="M 453.261544 252 
L 458.996273 252 
L 458.996273 251.98276 
L 453.261544 251.98276 
z
" style="fill:#1f77b4;opacity:0.5;"/>
   </g>
   <g id="patch_72">
    <path clip-path="url(#pbd7ded01d6)" d="M 458.996273 252 
L 464.731001 252 
L 464.731001 251.98276 
L 458.996273 251.98276 
z
" style="fill:#1f77b4;opacity:0.5;"/>
   </g>
   <g id="patch_73">
    <path clip-path="url(#pbd7ded01d6)" d="M 464.731001 252 
L 470.46573 252 
L 470.46573 252 
L 464.731001 252 
z
" style="fill:#1f77b4;opacity:0.5;"/>
   </g>
   <g id="patch_74">
    <path clip-path="url(#pbd7ded01d6)" d="M 470.46573 252 
L 476.200459 252 
L 476.200459 251.98276 
L 470.46573 251.98276 
z
" style="fill:#1f77b4;opacity:0.5;"/>
   </g>
   <g id="patch_75">
    <path clip-path="url(#pbd7ded01d6)" d="M 476.200459 252 
L 481.935187 252 
L 481.935187 251.98276 
L 476.200459 251.98276 
z
" style="fill:#1f77b4;opacity:0.5;"/>
   </g>
   <g id="patch_76">
    <path clip-path="url(#pbd7ded01d6)" d="M 481.935187 252 
L 487.669916 252 
L 487.669916 251.98276 
L 481.935187 251.98276 
z
" style="fill:#1f77b4;opacity:0.5;"/>
   </g>
   <g id="patch_77">
    <path clip-path="url(#pbd7ded01d6)" d="M 487.669916 252 
L 493.404644 252 
L 493.404644 252 
L 487.669916 252 
z
" style="fill:#1f77b4;opacity:0.5;"/>
   </g>
   <g id="patch_78">
    <path clip-path="url(#pbd7ded01d6)" d="M 493.404644 252 
L 499.139373 252 
L 499.139373 251.98276 
L 493.404644 251.98276 
z
" style="fill:#1f77b4;opacity:0.5;"/>
   </g>
   <g id="patch_79">
    <path clip-path="url(#pbd7ded01d6)" d="M 499.139373 252 
L 504.874102 252 
L 504.874102 251.96552 
L 499.139373 251.96552 
z
" style="fill:#1f77b4;opacity:0.5;"/>
   </g>
   <g id="patch_80">
    <path clip-path="url(#pbd7ded01d6)" d="M 504.874102 252 
L 510.60883 252 
L 510.60883 251.98276 
L 504.874102 251.98276 
z
" style="fill:#1f77b4;opacity:0.5;"/>
   </g>
   <g id="patch_81">
    <path clip-path="url(#pbd7ded01d6)" d="M 510.60883 252 
L 516.343559 252 
L 516.343559 252 
L 510.60883 252 
z
" style="fill:#1f77b4;opacity:0.5;"/>
   </g>
   <g id="patch_82">
    <path clip-path="url(#pbd7ded01d6)" d="M 516.343559 252 
L 522.078287 252 
L 522.078287 252 
L 516.343559 252 
z
" style="fill:#1f77b4;opacity:0.5;"/>
   </g>
   <g id="patch_83">
    <path clip-path="url(#pbd7ded01d6)" d="M 522.078287 252 
L 527.813016 252 
L 527.813016 252 
L 522.078287 252 
z
" style="fill:#1f77b4;opacity:0.5;"/>
   </g>
   <g id="patch_84">
    <path clip-path="url(#pbd7ded01d6)" d="M 527.813016 252 
L 533.547745 252 
L 533.547745 251.98276 
L 527.813016 251.98276 
z
" style="fill:#1f77b4;opacity:0.5;"/>
   </g>
   <g id="patch_85">
    <path clip-path="url(#pbd7ded01d6)" d="M 533.547745 252 
L 539.282473 252 
L 539.282473 252 
L 533.547745 252 
z
" style="fill:#1f77b4;opacity:0.5;"/>
   </g>
   <g id="patch_86">
    <path clip-path="url(#pbd7ded01d6)" d="M 539.282473 252 
L 545.017202 252 
L 545.017202 252 
L 539.282473 252 
z
" style="fill:#1f77b4;opacity:0.5;"/>
   </g>
   <g id="patch_87">
    <path clip-path="url(#pbd7ded01d6)" d="M 545.017202 252 
L 550.75193 252 
L 550.75193 251.98276 
L 545.017202 251.98276 
z
" style="fill:#1f77b4;opacity:0.5;"/>
   </g>
   <g id="patch_88">
    <path clip-path="url(#pbd7ded01d6)" d="M 550.75193 252 
L 556.486659 252 
L 556.486659 252 
L 550.75193 252 
z
" style="fill:#1f77b4;opacity:0.5;"/>
   </g>
   <g id="patch_89">
    <path clip-path="url(#pbd7ded01d6)" d="M 556.486659 252 
L 562.221388 252 
L 562.221388 252 
L 556.486659 252 
z
" style="fill:#1f77b4;opacity:0.5;"/>
   </g>
   <g id="patch_90">
    <path clip-path="url(#pbd7ded01d6)" d="M 562.221388 252 
L 567.956116 252 
L 567.956116 251.96552 
L 562.221388 251.96552 
z
" style="fill:#1f77b4;opacity:0.5;"/>
   </g>
   <g id="patch_91">
    <path clip-path="url(#pbd7ded01d6)" d="M 567.956116 252 
L 573.690845 252 
L 573.690845 252 
L 567.956116 252 
z
" style="fill:#1f77b4;opacity:0.5;"/>
   </g>
   <g id="patch_92">
    <path clip-path="url(#pbd7ded01d6)" d="M 573.690845 252 
L 579.425573 252 
L 579.425573 252 
L 573.690845 252 
z
" style="fill:#1f77b4;opacity:0.5;"/>
   </g>
   <g id="patch_93">
    <path clip-path="url(#pbd7ded01d6)" d="M 579.425573 252 
L 585.160302 252 
L 585.160302 252 
L 579.425573 252 
z
" style="fill:#1f77b4;opacity:0.5;"/>
   </g>
   <g id="patch_94">
    <path clip-path="url(#pbd7ded01d6)" d="M 585.160302 252 
L 590.89503 252 
L 590.89503 252 
L 585.160302 252 
z
" style="fill:#1f77b4;opacity:0.5;"/>
   </g>
   <g id="patch_95">
    <path clip-path="url(#pbd7ded01d6)" d="M 590.89503 252 
L 596.629759 252 
L 596.629759 252 
L 590.89503 252 
z
" style="fill:#1f77b4;opacity:0.5;"/>
   </g>
   <g id="patch_96">
    <path clip-path="url(#pbd7ded01d6)" d="M 596.629759 252 
L 602.364488 252 
L 602.364488 252 
L 596.629759 252 
z
" style="fill:#1f77b4;opacity:0.5;"/>
   </g>
   <g id="patch_97">
    <path clip-path="url(#pbd7ded01d6)" d="M 602.364488 252 
L 608.099216 252 
L 608.099216 252 
L 602.364488 252 
z
" style="fill:#1f77b4;opacity:0.5;"/>
   </g>
   <g id="patch_98">
    <path clip-path="url(#pbd7ded01d6)" d="M 608.099216 252 
L 613.833945 252 
L 613.833945 252 
L 608.099216 252 
z
" style="fill:#1f77b4;opacity:0.5;"/>
   </g>
   <g id="patch_99">
    <path clip-path="url(#pbd7ded01d6)" d="M 613.833945 252 
L 619.568673 252 
L 619.568673 252 
L 613.833945 252 
z
" style="fill:#1f77b4;opacity:0.5;"/>
   </g>
   <g id="patch_100">
    <path clip-path="url(#pbd7ded01d6)" d="M 619.568673 252 
L 625.303402 252 
L 625.303402 252 
L 619.568673 252 
z
" style="fill:#1f77b4;opacity:0.5;"/>
   </g>
   <g id="patch_101">
    <path clip-path="url(#pbd7ded01d6)" d="M 625.303402 252 
L 631.038131 252 
L 631.038131 251.98276 
L 625.303402 251.98276 
z
" style="fill:#1f77b4;opacity:0.5;"/>
   </g>
   <g id="patch_102">
    <path clip-path="url(#pbd7ded01d6)" d="M 631.038131 252 
L 636.772859 252 
L 636.772859 251.98276 
L 631.038131 251.98276 
z
" style="fill:#1f77b4;opacity:0.5;"/>
   </g>
   <g id="patch_103">
    <path clip-path="url(#pbd7ded01d6)" d="M 63.735813 252 
L 67.939939 252 
L 67.939939 248.519568 
L 63.735813 248.519568 
z
" style="fill:#228b22;opacity:0.5;"/>
   </g>
   <g id="patch_104">
    <path clip-path="url(#pbd7ded01d6)" d="M 67.939939 252 
L 72.144064 252 
L 72.144064 232.387294 
L 67.939939 232.387294 
z
" style="fill:#228b22;opacity:0.5;"/>
   </g>
   <g id="patch_105">
    <path clip-path="url(#pbd7ded01d6)" d="M 72.144064 252 
L 76.34819 252 
L 76.34819 204.637903 
L 72.144064 204.637903 
z
" style="fill:#228b22;opacity:0.5;"/>
   </g>
   <g id="patch_106">
    <path clip-path="url(#pbd7ded01d6)" d="M 76.34819 252 
L 80.552315 252 
L 80.552315 168.187431 
L 76.34819 168.187431 
z
" style="fill:#228b22;opacity:0.5;"/>
   </g>
   <g id="patch_107">
    <path clip-path="url(#pbd7ded01d6)" d="M 80.552315 252 
L 84.756441 252 
L 84.756441 129.973226 
L 80.552315 129.973226 
z
" style="fill:#228b22;opacity:0.5;"/>
   </g>
   <g id="patch_108">
    <path clip-path="url(#pbd7ded01d6)" d="M 84.756441 252 
L 88.960566 252 
L 88.960566 98.908017 
L 84.756441 98.908017 
z
" style="fill:#228b22;opacity:0.5;"/>
   </g>
   <g id="patch_109">
    <path clip-path="url(#pbd7ded01d6)" d="M 88.960566 252 
L 93.164692 252 
L 93.164692 69.912255 
L 88.960566 69.912255 
z
" style="fill:#228b22;opacity:0.5;"/>
   </g>
   <g id="patch_110">
    <path clip-path="url(#pbd7ded01d6)" d="M 93.164692 252 
L 97.368817 252 
L 97.368817 53.92108 
L 93.164692 53.92108 
z
" style="fill:#228b22;opacity:0.5;"/>
   </g>
   <g id="patch_111">
    <path clip-path="url(#pbd7ded01d6)" d="M 97.368817 252 
L 101.572943 252 
L 101.572943 44.914286 
L 97.368817 44.914286 
z
" style="fill:#228b22;opacity:0.5;"/>
   </g>
   <g id="patch_112">
    <path clip-path="url(#pbd7ded01d6)" d="M 101.572943 252 
L 105.777068 252 
L 105.777068 53.568333 
L 101.572943 53.568333 
z
" style="fill:#228b22;opacity:0.5;"/>
   </g>
   <g id="patch_113">
    <path clip-path="url(#pbd7ded01d6)" d="M 105.777068 252 
L 109.981194 252 
L 109.981194 69.230278 
L 105.777068 69.230278 
z
" style="fill:#228b22;opacity:0.5;"/>
   </g>
   <g id="patch_114">
    <path clip-path="url(#pbd7ded01d6)" d="M 109.981194 252 
L 114.185319 252 
L 114.185319 85.221453 
L 109.981194 85.221453 
z
" style="fill:#228b22;opacity:0.5;"/>
   </g>
   <g id="patch_115">
    <path clip-path="url(#pbd7ded01d6)" d="M 114.185319 252 
L 118.389445 252 
L 118.389445 109.70206 
L 114.185319 109.70206 
z
" style="fill:#228b22;opacity:0.5;"/>
   </g>
   <g id="patch_116">
    <path clip-path="url(#pbd7ded01d6)" d="M 118.389445 252 
L 122.59357 252 
L 122.59357 130.584653 
L 118.389445 130.584653 
z
" style="fill:#228b22;opacity:0.5;"/>
   </g>
   <g id="patch_117">
    <path clip-path="url(#pbd7ded01d6)" d="M 122.59357 252 
L 126.797696 252 
L 126.797696 155.559106 
L 122.59357 155.559106 
z
" style="fill:#228b22;opacity:0.5;"/>
   </g>
   <g id="patch_118">
    <path clip-path="url(#pbd7ded01d6)" d="M 126.797696 252 
L 131.001821 252 
L 131.001821 170.63314 
L 126.797696 170.63314 
z
" style="fill:#228b22;opacity:0.5;"/>
   </g>
   <g id="patch_119">
    <path clip-path="url(#pbd7ded01d6)" d="M 131.001821 252 
L 135.205947 252 
L 135.205947 189.42277 
L 131.001821 189.42277 
z
" style="fill:#228b22;opacity:0.5;"/>
   </g>
   <g id="patch_120">
    <path clip-path="url(#pbd7ded01d6)" d="M 135.205947 252 
L 139.410072 252 
L 139.410072 200.546043 
L 135.205947 200.546043 
z
" style="fill:#228b22;opacity:0.5;"/>
   </g>
   <g id="patch_121">
    <path clip-path="url(#pbd7ded01d6)" d="M 139.410072 252 
L 143.614198 252 
L 143.614198 212.30426 
L 139.410072 212.30426 
z
" style="fill:#228b22;opacity:0.5;"/>
   </g>
   <g id="patch_122">
    <path clip-path="url(#pbd7ded01d6)" d="M 143.614198 252 
L 147.818323 252 
L 147.818323 220.652594 
L 143.614198 220.652594 
z
" style="fill:#228b22;opacity:0.5;"/>
   </g>
   <g id="patch_123">
    <path clip-path="url(#pbd7ded01d6)" d="M 147.818323 252 
L 152.022449 252 
L 152.022449 227.754557 
L 147.818323 227.754557 
z
" style="fill:#228b22;opacity:0.5;"/>
   </g>
   <g id="patch_124">
    <path clip-path="url(#pbd7ded01d6)" d="M 152.022449 252 
L 156.226574 252 
L 156.226574 231.376088 
L 152.022449 231.376088 
z
" style="fill:#228b22;opacity:0.5;"/>
   </g>
   <g id="patch_125">
    <path clip-path="url(#pbd7ded01d6)" d="M 156.226574 252 
L 160.4307 252 
L 160.4307 234.245093 
L 156.226574 234.245093 
z
" style="fill:#228b22;opacity:0.5;"/>
   </g>
   <g id="patch_126">
    <path clip-path="url(#pbd7ded01d6)" d="M 160.4307 252 
L 164.634825 252 
L 164.634825 239.112994 
L 160.4307 239.112994 
z
" style="fill:#228b22;opacity:0.5;"/>
   </g>
   <g id="patch_127">
    <path clip-path="url(#pbd7ded01d6)" d="M 164.634825 252 
L 168.838951 252 
L 168.838951 241.088375 
L 164.634825 241.088375 
z
" style="fill:#228b22;opacity:0.5;"/>
   </g>
   <g id="patch_128">
    <path clip-path="url(#pbd7ded01d6)" d="M 168.838951 252 
L 173.043076 252 
L 173.043076 242.56991 
L 168.838951 242.56991 
z
" style="fill:#228b22;opacity:0.5;"/>
   </g>
   <g id="patch_129">
    <path clip-path="url(#pbd7ded01d6)" d="M 173.043076 252 
L 177.247202 252 
L 177.247202 245.180234 
L 173.043076 245.180234 
z
" style="fill:#228b22;opacity:0.5;"/>
   </g>
   <g id="patch_130">
    <path clip-path="url(#pbd7ded01d6)" d="M 177.247202 252 
L 181.451327 252 
L 181.451327 246.003309 
L 177.247202 246.003309 
z
" style="fill:#228b22;opacity:0.5;"/>
   </g>
   <g id="patch_131">
    <path clip-path="url(#pbd7ded01d6)" d="M 181.451327 252 
L 185.655453 252 
L 185.655453 245.956277 
L 181.451327 245.956277 
z
" style="fill:#228b22;opacity:0.5;"/>
   </g>
   <g id="patch_132">
    <path clip-path="url(#pbd7ded01d6)" d="M 185.655453 252 
L 189.859578 252 
L 189.859578 247.767042 
L 185.655453 247.767042 
z
" style="fill:#228b22;opacity:0.5;"/>
   </g>
   <g id="patch_133">
    <path clip-path="url(#pbd7ded01d6)" d="M 189.859578 252 
L 194.063704 252 
L 194.063704 248.378469 
L 189.859578 248.378469 
z
" style="fill:#228b22;opacity:0.5;"/>
   </g>
   <g id="patch_134">
    <path clip-path="url(#pbd7ded01d6)" d="M 194.063704 252 
L 198.267829 252 
L 198.267829 248.63715 
L 194.063704 248.63715 
z
" style="fill:#228b22;opacity:0.5;"/>
   </g>
   <g id="patch_135">
    <path clip-path="url(#pbd7ded01d6)" d="M 198.267829 252 
L 202.471955 252 
L 202.471955 249.225061 
L 198.267829 249.225061 
z
" style="fill:#228b22;opacity:0.5;"/>
   </g>
   <g id="patch_136">
    <path clip-path="url(#pbd7ded01d6)" d="M 202.471955 252 
L 206.67608 252 
L 206.67608 249.342643 
L 202.471955 249.342643 
z
" style="fill:#228b22;opacity:0.5;"/>
   </g>
   <g id="patch_137">
    <path clip-path="url(#pbd7ded01d6)" d="M 206.67608 252 
L 210.880206 252 
L 210.880206 249.460225 
L 206.67608 249.460225 
z
" style="fill:#228b22;opacity:0.5;"/>
   </g>
   <g id="patch_138">
    <path clip-path="url(#pbd7ded01d6)" d="M 210.880206 252 
L 215.084331 252 
L 215.084331 249.95407 
L 210.880206 249.95407 
z
" style="fill:#228b22;opacity:0.5;"/>
   </g>
   <g id="patch_139">
    <path clip-path="url(#pbd7ded01d6)" d="M 215.084331 252 
L 219.288457 252 
L 219.288457 250.259784 
L 215.084331 250.259784 
z
" style="fill:#228b22;opacity:0.5;"/>
   </g>
   <g id="patch_140">
    <path clip-path="url(#pbd7ded01d6)" d="M 219.288457 252 
L 223.492582 252 
L 223.492582 250.61253 
L 219.288457 250.61253 
z
" style="fill:#228b22;opacity:0.5;"/>
   </g>
   <g id="patch_141">
    <path clip-path="url(#pbd7ded01d6)" d="M 223.492582 252 
L 227.696708 252 
L 227.696708 250.165718 
L 223.492582 250.165718 
z
" style="fill:#228b22;opacity:0.5;"/>
   </g>
   <g id="patch_142">
    <path clip-path="url(#pbd7ded01d6)" d="M 227.696708 252 
L 231.900833 252 
L 231.900833 250.565498 
L 227.696708 250.565498 
z
" style="fill:#228b22;opacity:0.5;"/>
   </g>
   <g id="patch_143">
    <path clip-path="url(#pbd7ded01d6)" d="M 231.900833 252 
L 236.104959 252 
L 236.104959 250.894728 
L 231.900833 250.894728 
z
" style="fill:#228b22;opacity:0.5;"/>
   </g>
   <g id="patch_144">
    <path clip-path="url(#pbd7ded01d6)" d="M 236.104959 252 
L 240.309084 252 
L 240.309084 251.176925 
L 236.104959 251.176925 
z
" style="fill:#228b22;opacity:0.5;"/>
   </g>
   <g id="patch_145">
    <path clip-path="url(#pbd7ded01d6)" d="M 240.309084 252 
L 244.51321 252 
L 244.51321 251.129892 
L 240.309084 251.129892 
z
" style="fill:#228b22;opacity:0.5;"/>
   </g>
   <g id="patch_146">
    <path clip-path="url(#pbd7ded01d6)" d="M 244.51321 252 
L 248.717335 252 
L 248.717335 251.176925 
L 244.51321 251.176925 
z
" style="fill:#228b22;opacity:0.5;"/>
   </g>
   <g id="patch_147">
    <path clip-path="url(#pbd7ded01d6)" d="M 248.717335 252 
L 252.921461 252 
L 252.921461 251.153408 
L 248.717335 251.153408 
z
" style="fill:#228b22;opacity:0.5;"/>
   </g>
   <g id="patch_148">
    <path clip-path="url(#pbd7ded01d6)" d="M 252.921461 252 
L 257.125586 252 
L 257.125586 251.412089 
L 252.921461 251.412089 
z
" style="fill:#228b22;opacity:0.5;"/>
   </g>
   <g id="patch_149">
    <path clip-path="url(#pbd7ded01d6)" d="M 257.125586 252 
L 261.329712 252 
L 261.329712 251.388573 
L 257.125586 251.388573 
z
" style="fill:#228b22;opacity:0.5;"/>
   </g>
   <g id="patch_150">
    <path clip-path="url(#pbd7ded01d6)" d="M 261.329712 252 
L 265.533837 252 
L 265.533837 251.412089 
L 261.329712 251.412089 
z
" style="fill:#228b22;opacity:0.5;"/>
   </g>
   <g id="patch_151">
    <path clip-path="url(#pbd7ded01d6)" d="M 265.533837 252 
L 269.737963 252 
L 269.737963 251.67077 
L 265.533837 251.67077 
z
" style="fill:#228b22;opacity:0.5;"/>
   </g>
   <g id="patch_152">
    <path clip-path="url(#pbd7ded01d6)" d="M 269.737963 252 
L 273.942088 252 
L 273.942088 251.576704 
L 269.737963 251.576704 
z
" style="fill:#228b22;opacity:0.5;"/>
   </g>
   <g id="patch_153">
    <path clip-path="url(#pbd7ded01d6)" d="M 273.942088 252 
L 278.146214 252 
L 278.146214 251.600221 
L 273.942088 251.600221 
z
" style="fill:#228b22;opacity:0.5;"/>
   </g>
   <g id="patch_154">
    <path clip-path="url(#pbd7ded01d6)" d="M 278.146214 252 
L 282.350339 252 
L 282.350339 251.694286 
L 278.146214 251.694286 
z
" style="fill:#228b22;opacity:0.5;"/>
   </g>
   <g id="patch_155">
    <path clip-path="url(#pbd7ded01d6)" d="M 282.350339 252 
L 286.554465 252 
L 286.554465 251.647253 
L 282.350339 251.647253 
z
" style="fill:#228b22;opacity:0.5;"/>
   </g>
   <g id="patch_156">
    <path clip-path="url(#pbd7ded01d6)" d="M 286.554465 252 
L 290.75859 252 
L 290.75859 251.623737 
L 286.554465 251.623737 
z
" style="fill:#228b22;opacity:0.5;"/>
   </g>
   <g id="patch_157">
    <path clip-path="url(#pbd7ded01d6)" d="M 290.75859 252 
L 294.962716 252 
L 294.962716 251.788352 
L 290.75859 251.788352 
z
" style="fill:#228b22;opacity:0.5;"/>
   </g>
   <g id="patch_158">
    <path clip-path="url(#pbd7ded01d6)" d="M 294.962716 252 
L 299.166841 252 
L 299.166841 251.882418 
L 294.962716 251.882418 
z
" style="fill:#228b22;opacity:0.5;"/>
   </g>
   <g id="patch_159">
    <path clip-path="url(#pbd7ded01d6)" d="M 299.166841 252 
L 303.370967 252 
L 303.370967 251.694286 
L 299.166841 251.694286 
z
" style="fill:#228b22;opacity:0.5;"/>
   </g>
   <g id="patch_160">
    <path clip-path="url(#pbd7ded01d6)" d="M 303.370967 252 
L 307.575092 252 
L 307.575092 251.741319 
L 303.370967 251.741319 
z
" style="fill:#228b22;opacity:0.5;"/>
   </g>
   <g id="patch_161">
    <path clip-path="url(#pbd7ded01d6)" d="M 307.575092 252 
L 311.779218 252 
L 311.779218 251.811869 
L 307.575092 251.811869 
z
" style="fill:#228b22;opacity:0.5;"/>
   </g>
   <g id="patch_162">
    <path clip-path="url(#pbd7ded01d6)" d="M 311.779218 252 
L 315.983343 252 
L 315.983343 251.929451 
L 311.779218 251.929451 
z
" style="fill:#228b22;opacity:0.5;"/>
   </g>
   <g id="patch_163">
    <path clip-path="url(#pbd7ded01d6)" d="M 315.983343 252 
L 320.187469 252 
L 320.187469 251.929451 
L 315.983343 251.929451 
z
" style="fill:#228b22;opacity:0.5;"/>
   </g>
   <g id="patch_164">
    <path clip-path="url(#pbd7ded01d6)" d="M 320.187469 252 
L 324.391594 252 
L 324.391594 251.976484 
L 320.187469 251.976484 
z
" style="fill:#228b22;opacity:0.5;"/>
   </g>
   <g id="patch_165">
    <path clip-path="url(#pbd7ded01d6)" d="M 324.391594 252 
L 328.59572 252 
L 328.59572 251.835385 
L 324.391594 251.835385 
z
" style="fill:#228b22;opacity:0.5;"/>
   </g>
   <g id="patch_166">
    <path clip-path="url(#pbd7ded01d6)" d="M 328.59572 252 
L 332.799845 252 
L 332.799845 251.835385 
L 328.59572 251.835385 
z
" style="fill:#228b22;opacity:0.5;"/>
   </g>
   <g id="patch_167">
    <path clip-path="url(#pbd7ded01d6)" d="M 332.799845 252 
L 337.003971 252 
L 337.003971 251.835385 
L 332.799845 251.835385 
z
" style="fill:#228b22;opacity:0.5;"/>
   </g>
   <g id="patch_168">
    <path clip-path="url(#pbd7ded01d6)" d="M 337.003971 252 
L 341.208096 252 
L 341.208096 251.811869 
L 337.003971 251.811869 
z
" style="fill:#228b22;opacity:0.5;"/>
   </g>
   <g id="patch_169">
    <path clip-path="url(#pbd7ded01d6)" d="M 341.208096 252 
L 345.412222 252 
L 345.412222 251.929451 
L 341.208096 251.929451 
z
" style="fill:#228b22;opacity:0.5;"/>
   </g>
   <g id="patch_170">
    <path clip-path="url(#pbd7ded01d6)" d="M 345.412222 252 
L 349.616347 252 
L 349.616347 251.952967 
L 345.412222 251.952967 
z
" style="fill:#228b22;opacity:0.5;"/>
   </g>
   <g id="patch_171">
    <path clip-path="url(#pbd7ded01d6)" d="M 349.616347 252 
L 353.820473 252 
L 353.820473 251.929451 
L 349.616347 251.929451 
z
" style="fill:#228b22;opacity:0.5;"/>
   </g>
   <g id="patch_172">
    <path clip-path="url(#pbd7ded01d6)" d="M 353.820473 252 
L 358.024598 252 
L 358.024598 251.952967 
L 353.820473 251.952967 
z
" style="fill:#228b22;opacity:0.5;"/>
   </g>
   <g id="patch_173">
    <path clip-path="url(#pbd7ded01d6)" d="M 358.024598 252 
L 362.228724 252 
L 362.228724 251.952967 
L 358.024598 251.952967 
z
" style="fill:#228b22;opacity:0.5;"/>
   </g>
   <g id="patch_174">
    <path clip-path="url(#pbd7ded01d6)" d="M 362.228724 252 
L 366.432849 252 
L 366.432849 251.952967 
L 362.228724 251.952967 
z
" style="fill:#228b22;opacity:0.5;"/>
   </g>
   <g id="patch_175">
    <path clip-path="url(#pbd7ded01d6)" d="M 366.432849 252 
L 370.636975 252 
L 370.636975 251.976484 
L 366.432849 251.976484 
z
" style="fill:#228b22;opacity:0.5;"/>
   </g>
   <g id="patch_176">
    <path clip-path="url(#pbd7ded01d6)" d="M 370.636975 252 
L 374.8411 252 
L 374.8411 251.976484 
L 370.636975 251.976484 
z
" style="fill:#228b22;opacity:0.5;"/>
   </g>
   <g id="patch_177">
    <path clip-path="url(#pbd7ded01d6)" d="M 374.8411 252 
L 379.045226 252 
L 379.045226 251.976484 
L 374.8411 251.976484 
z
" style="fill:#228b22;opacity:0.5;"/>
   </g>
   <g id="patch_178">
    <path clip-path="url(#pbd7ded01d6)" d="M 379.045226 252 
L 383.249351 252 
L 383.249351 251.976484 
L 379.045226 251.976484 
z
" style="fill:#228b22;opacity:0.5;"/>
   </g>
   <g id="patch_179">
    <path clip-path="url(#pbd7ded01d6)" d="M 383.249351 252 
L 387.453477 252 
L 387.453477 252 
L 383.249351 252 
z
" style="fill:#228b22;opacity:0.5;"/>
   </g>
   <g id="patch_180">
    <path clip-path="url(#pbd7ded01d6)" d="M 387.453477 252 
L 391.657602 252 
L 391.657602 251.976484 
L 387.453477 251.976484 
z
" style="fill:#228b22;opacity:0.5;"/>
   </g>
   <g id="patch_181">
    <path clip-path="url(#pbd7ded01d6)" d="M 391.657602 252 
L 395.861728 252 
L 395.861728 251.976484 
L 391.657602 251.976484 
z
" style="fill:#228b22;opacity:0.5;"/>
   </g>
   <g id="patch_182">
    <path clip-path="url(#pbd7ded01d6)" d="M 395.861728 252 
L 400.065853 252 
L 400.065853 251.952967 
L 395.861728 251.952967 
z
" style="fill:#228b22;opacity:0.5;"/>
   </g>
   <g id="patch_183">
    <path clip-path="url(#pbd7ded01d6)" d="M 400.065853 252 
L 404.269979 252 
L 404.269979 252 
L 400.065853 252 
z
" style="fill:#228b22;opacity:0.5;"/>
   </g>
   <g id="patch_184">
    <path clip-path="url(#pbd7ded01d6)" d="M 404.269979 252 
L 408.474104 252 
L 408.474104 252 
L 404.269979 252 
z
" style="fill:#228b22;opacity:0.5;"/>
   </g>
   <g id="patch_185">
    <path clip-path="url(#pbd7ded01d6)" d="M 408.474104 252 
L 412.67823 252 
L 412.67823 251.976484 
L 408.474104 251.976484 
z
" style="fill:#228b22;opacity:0.5;"/>
   </g>
   <g id="patch_186">
    <path clip-path="url(#pbd7ded01d6)" d="M 412.67823 252 
L 416.882355 252 
L 416.882355 251.976484 
L 412.67823 251.976484 
z
" style="fill:#228b22;opacity:0.5;"/>
   </g>
   <g id="patch_187">
    <path clip-path="url(#pbd7ded01d6)" d="M 416.882355 252 
L 421.086481 252 
L 421.086481 252 
L 416.882355 252 
z
" style="fill:#228b22;opacity:0.5;"/>
   </g>
   <g id="patch_188">
    <path clip-path="url(#pbd7ded01d6)" d="M 421.086481 252 
L 425.290606 252 
L 425.290606 252 
L 421.086481 252 
z
" style="fill:#228b22;opacity:0.5;"/>
   </g>
   <g id="patch_189">
    <path clip-path="url(#pbd7ded01d6)" d="M 425.290606 252 
L 429.494732 252 
L 429.494732 252 
L 425.290606 252 
z
" style="fill:#228b22;opacity:0.5;"/>
   </g>
   <g id="patch_190">
    <path clip-path="url(#pbd7ded01d6)" d="M 429.494732 252 
L 433.698857 252 
L 433.698857 252 
L 429.494732 252 
z
" style="fill:#228b22;opacity:0.5;"/>
   </g>
   <g id="patch_191">
    <path clip-path="url(#pbd7ded01d6)" d="M 433.698857 252 
L 437.902983 252 
L 437.902983 252 
L 433.698857 252 
z
" style="fill:#228b22;opacity:0.5;"/>
   </g>
   <g id="patch_192">
    <path clip-path="url(#pbd7ded01d6)" d="M 437.902983 252 
L 442.107108 252 
L 442.107108 251.952967 
L 437.902983 251.952967 
z
" style="fill:#228b22;opacity:0.5;"/>
   </g>
   <g id="patch_193">
    <path clip-path="url(#pbd7ded01d6)" d="M 442.107108 252 
L 446.311234 252 
L 446.311234 252 
L 442.107108 252 
z
" style="fill:#228b22;opacity:0.5;"/>
   </g>
   <g id="patch_194">
    <path clip-path="url(#pbd7ded01d6)" d="M 446.311234 252 
L 450.515359 252 
L 450.515359 252 
L 446.311234 252 
z
" style="fill:#228b22;opacity:0.5;"/>
   </g>
   <g id="patch_195">
    <path clip-path="url(#pbd7ded01d6)" d="M 450.515359 252 
L 454.719485 252 
L 454.719485 252 
L 450.515359 252 
z
" style="fill:#228b22;opacity:0.5;"/>
   </g>
   <g id="patch_196">
    <path clip-path="url(#pbd7ded01d6)" d="M 454.719485 252 
L 458.92361 252 
L 458.92361 252 
L 454.719485 252 
z
" style="fill:#228b22;opacity:0.5;"/>
   </g>
   <g id="patch_197">
    <path clip-path="url(#pbd7ded01d6)" d="M 458.92361 252 
L 463.127736 252 
L 463.127736 252 
L 458.92361 252 
z
" style="fill:#228b22;opacity:0.5;"/>
   </g>
   <g id="patch_198">
    <path clip-path="url(#pbd7ded01d6)" d="M 463.127736 252 
L 467.331861 252 
L 467.331861 251.976484 
L 463.127736 251.976484 
z
" style="fill:#228b22;opacity:0.5;"/>
   </g>
   <g id="patch_199">
    <path clip-path="url(#pbd7ded01d6)" d="M 467.331861 252 
L 471.535987 252 
L 471.535987 252 
L 467.331861 252 
z
" style="fill:#228b22;opacity:0.5;"/>
   </g>
   <g id="patch_200">
    <path clip-path="url(#pbd7ded01d6)" d="M 471.535987 252 
L 475.740112 252 
L 475.740112 252 
L 471.535987 252 
z
" style="fill:#228b22;opacity:0.5;"/>
   </g>
   <g id="patch_201">
    <path clip-path="url(#pbd7ded01d6)" d="M 475.740112 252 
L 479.944238 252 
L 479.944238 252 
L 475.740112 252 
z
" style="fill:#228b22;opacity:0.5;"/>
   </g>
   <g id="patch_202">
    <path clip-path="url(#pbd7ded01d6)" d="M 479.944238 252 
L 484.148363 252 
L 484.148363 251.976484 
L 479.944238 251.976484 
z
" style="fill:#228b22;opacity:0.5;"/>
   </g>
   <g id="matplotlib.axis_1">
    <g id="xtick_1">
     <g id="line2d_1">
      <defs>
       <path d="M 0 0 
L 0 3.5 
" id="mc761775853" style="stroke:#000000;stroke-width:0.8;"/>
      </defs>
      <g>
       <use style="stroke:#000000;stroke-width:0.8;" x="63.3" xlink:href="#mc761775853" y="252"/>
      </g>
     </g>
     <g id="text_1">
      <!-- 0 -->
      <g transform="translate(60.11875 266.598437)scale(0.1 -0.1)">
       <defs>
        <path d="M 31.78125 66.40625 
Q 24.171875 66.40625 20.328125 58.90625 
Q 16.5 51.421875 16.5 36.375 
Q 16.5 21.390625 20.328125 13.890625 
Q 24.171875 6.390625 31.78125 6.390625 
Q 39.453125 6.390625 43.28125 13.890625 
Q 47.125 21.390625 47.125 36.375 
Q 47.125 51.421875 43.28125 58.90625 
Q 39.453125 66.40625 31.78125 66.40625 
z
M 31.78125 74.21875 
Q 44.046875 74.21875 50.515625 64.515625 
Q 56.984375 54.828125 56.984375 36.375 
Q 56.984375 17.96875 50.515625 8.265625 
Q 44.046875 -1.421875 31.78125 -1.421875 
Q 19.53125 -1.421875 13.0625 8.265625 
Q 6.59375 17.96875 6.59375 36.375 
Q 6.59375 54.828125 13.0625 64.515625 
Q 19.53125 74.21875 31.78125 74.21875 
z
" id="DejaVuSans-48"/>
       </defs>
       <use xlink:href="#DejaVuSans-48"/>
      </g>
     </g>
    </g>
    <g id="xtick_2">
     <g id="line2d_2">
      <g>
       <use style="stroke:#000000;stroke-width:0.8;" x="109.8" xlink:href="#mc761775853" y="252"/>
      </g>
     </g>
     <g id="text_2">
      <!-- 1 -->
      <g transform="translate(106.61875 266.598437)scale(0.1 -0.1)">
       <defs>
        <path d="M 12.40625 8.296875 
L 28.515625 8.296875 
L 28.515625 63.921875 
L 10.984375 60.40625 
L 10.984375 69.390625 
L 28.421875 72.90625 
L 38.28125 72.90625 
L 38.28125 8.296875 
L 54.390625 8.296875 
L 54.390625 0 
L 12.40625 0 
z
" id="DejaVuSans-49"/>
       </defs>
       <use xlink:href="#DejaVuSans-49"/>
      </g>
     </g>
    </g>
    <g id="xtick_3">
     <g id="line2d_3">
      <g>
       <use style="stroke:#000000;stroke-width:0.8;" x="156.3" xlink:href="#mc761775853" y="252"/>
      </g>
     </g>
     <g id="text_3">
      <!-- 2 -->
      <g transform="translate(153.11875 266.598437)scale(0.1 -0.1)">
       <defs>
        <path d="M 19.1875 8.296875 
L 53.609375 8.296875 
L 53.609375 0 
L 7.328125 0 
L 7.328125 8.296875 
Q 12.9375 14.109375 22.625 23.890625 
Q 32.328125 33.6875 34.8125 36.53125 
Q 39.546875 41.84375 41.421875 45.53125 
Q 43.3125 49.21875 43.3125 52.78125 
Q 43.3125 58.59375 39.234375 62.25 
Q 35.15625 65.921875 28.609375 65.921875 
Q 23.96875 65.921875 18.8125 64.3125 
Q 13.671875 62.703125 7.8125 59.421875 
L 7.8125 69.390625 
Q 13.765625 71.78125 18.9375 73 
Q 24.125 74.21875 28.421875 74.21875 
Q 39.75 74.21875 46.484375 68.546875 
Q 53.21875 62.890625 53.21875 53.421875 
Q 53.21875 48.921875 51.53125 44.890625 
Q 49.859375 40.875 45.40625 35.40625 
Q 44.1875 33.984375 37.640625 27.21875 
Q 31.109375 20.453125 19.1875 8.296875 
z
" id="DejaVuSans-50"/>
       </defs>
       <use xlink:href="#DejaVuSans-50"/>
      </g>
     </g>
    </g>
    <g id="xtick_4">
     <g id="line2d_4">
      <g>
       <use style="stroke:#000000;stroke-width:0.8;" x="202.8" xlink:href="#mc761775853" y="252"/>
      </g>
     </g>
     <g id="text_4">
      <!-- 3 -->
      <g transform="translate(199.61875 266.598437)scale(0.1 -0.1)">
       <defs>
        <path d="M 40.578125 39.3125 
Q 47.65625 37.796875 51.625 33 
Q 55.609375 28.21875 55.609375 21.1875 
Q 55.609375 10.40625 48.1875 4.484375 
Q 40.765625 -1.421875 27.09375 -1.421875 
Q 22.515625 -1.421875 17.65625 -0.515625 
Q 12.796875 0.390625 7.625 2.203125 
L 7.625 11.71875 
Q 11.71875 9.328125 16.59375 8.109375 
Q 21.484375 6.890625 26.8125 6.890625 
Q 36.078125 6.890625 40.9375 10.546875 
Q 45.796875 14.203125 45.796875 21.1875 
Q 45.796875 27.640625 41.28125 31.265625 
Q 36.765625 34.90625 28.71875 34.90625 
L 20.21875 34.90625 
L 20.21875 43.015625 
L 29.109375 43.015625 
Q 36.375 43.015625 40.234375 45.921875 
Q 44.09375 48.828125 44.09375 54.296875 
Q 44.09375 59.90625 40.109375 62.90625 
Q 36.140625 65.921875 28.71875 65.921875 
Q 24.65625 65.921875 20.015625 65.03125 
Q 15.375 64.15625 9.8125 62.3125 
L 9.8125 71.09375 
Q 15.4375 72.65625 20.34375 73.4375 
Q 25.25 74.21875 29.59375 74.21875 
Q 40.828125 74.21875 47.359375 69.109375 
Q 53.90625 64.015625 53.90625 55.328125 
Q 53.90625 49.265625 50.4375 45.09375 
Q 46.96875 40.921875 40.578125 39.3125 
z
" id="DejaVuSans-51"/>
       </defs>
       <use xlink:href="#DejaVuSans-51"/>
      </g>
     </g>
    </g>
    <g id="xtick_5">
     <g id="line2d_5">
      <g>
       <use style="stroke:#000000;stroke-width:0.8;" x="249.3" xlink:href="#mc761775853" y="252"/>
      </g>
     </g>
     <g id="text_5">
      <!-- 4 -->
      <g transform="translate(246.11875 266.598437)scale(0.1 -0.1)">
       <defs>
        <path d="M 37.796875 64.3125 
L 12.890625 25.390625 
L 37.796875 25.390625 
z
M 35.203125 72.90625 
L 47.609375 72.90625 
L 47.609375 25.390625 
L 58.015625 25.390625 
L 58.015625 17.1875 
L 47.609375 17.1875 
L 47.609375 0 
L 37.796875 0 
L 37.796875 17.1875 
L 4.890625 17.1875 
L 4.890625 26.703125 
z
" id="DejaVuSans-52"/>
       </defs>
       <use xlink:href="#DejaVuSans-52"/>
      </g>
     </g>
    </g>
    <g id="xtick_6">
     <g id="line2d_6">
      <g>
       <use style="stroke:#000000;stroke-width:0.8;" x="295.8" xlink:href="#mc761775853" y="252"/>
      </g>
     </g>
     <g id="text_6">
      <!-- 5 -->
      <g transform="translate(292.61875 266.598437)scale(0.1 -0.1)">
       <defs>
        <path d="M 10.796875 72.90625 
L 49.515625 72.90625 
L 49.515625 64.59375 
L 19.828125 64.59375 
L 19.828125 46.734375 
Q 21.96875 47.46875 24.109375 47.828125 
Q 26.265625 48.1875 28.421875 48.1875 
Q 40.625 48.1875 47.75 41.5 
Q 54.890625 34.8125 54.890625 23.390625 
Q 54.890625 11.625 47.5625 5.09375 
Q 40.234375 -1.421875 26.90625 -1.421875 
Q 22.3125 -1.421875 17.546875 -0.640625 
Q 12.796875 0.140625 7.71875 1.703125 
L 7.71875 11.625 
Q 12.109375 9.234375 16.796875 8.0625 
Q 21.484375 6.890625 26.703125 6.890625 
Q 35.15625 6.890625 40.078125 11.328125 
Q 45.015625 15.765625 45.015625 23.390625 
Q 45.015625 31 40.078125 35.4375 
Q 35.15625 39.890625 26.703125 39.890625 
Q 22.75 39.890625 18.8125 39.015625 
Q 14.890625 38.140625 10.796875 36.28125 
z
" id="DejaVuSans-53"/>
       </defs>
       <use xlink:href="#DejaVuSans-53"/>
      </g>
     </g>
    </g>
    <g id="xtick_7">
     <g id="line2d_7">
      <g>
       <use style="stroke:#000000;stroke-width:0.8;" x="342.3" xlink:href="#mc761775853" y="252"/>
      </g>
     </g>
     <g id="text_7">
      <!-- 6 -->
      <g transform="translate(339.11875 266.598437)scale(0.1 -0.1)">
       <defs>
        <path d="M 33.015625 40.375 
Q 26.375 40.375 22.484375 35.828125 
Q 18.609375 31.296875 18.609375 23.390625 
Q 18.609375 15.53125 22.484375 10.953125 
Q 26.375 6.390625 33.015625 6.390625 
Q 39.65625 6.390625 43.53125 10.953125 
Q 47.40625 15.53125 47.40625 23.390625 
Q 47.40625 31.296875 43.53125 35.828125 
Q 39.65625 40.375 33.015625 40.375 
z
M 52.59375 71.296875 
L 52.59375 62.3125 
Q 48.875 64.0625 45.09375 64.984375 
Q 41.3125 65.921875 37.59375 65.921875 
Q 27.828125 65.921875 22.671875 59.328125 
Q 17.53125 52.734375 16.796875 39.40625 
Q 19.671875 43.65625 24.015625 45.921875 
Q 28.375 48.1875 33.59375 48.1875 
Q 44.578125 48.1875 50.953125 41.515625 
Q 57.328125 34.859375 57.328125 23.390625 
Q 57.328125 12.15625 50.6875 5.359375 
Q 44.046875 -1.421875 33.015625 -1.421875 
Q 20.359375 -1.421875 13.671875 8.265625 
Q 6.984375 17.96875 6.984375 36.375 
Q 6.984375 53.65625 15.1875 63.9375 
Q 23.390625 74.21875 37.203125 74.21875 
Q 40.921875 74.21875 44.703125 73.484375 
Q 48.484375 72.75 52.59375 71.296875 
z
" id="DejaVuSans-54"/>
       </defs>
       <use xlink:href="#DejaVuSans-54"/>
      </g>
     </g>
    </g>
    <g id="xtick_8">
     <g id="line2d_8">
      <g>
       <use style="stroke:#000000;stroke-width:0.8;" x="388.8" xlink:href="#mc761775853" y="252"/>
      </g>
     </g>
     <g id="text_8">
      <!-- 7 -->
      <g transform="translate(385.61875 266.598437)scale(0.1 -0.1)">
       <defs>
        <path d="M 8.203125 72.90625 
L 55.078125 72.90625 
L 55.078125 68.703125 
L 28.609375 0 
L 18.3125 0 
L 43.21875 64.59375 
L 8.203125 64.59375 
z
" id="DejaVuSans-55"/>
       </defs>
       <use xlink:href="#DejaVuSans-55"/>
      </g>
     </g>
    </g>
   </g>
   <g id="matplotlib.axis_2">
    <g id="ytick_1">
     <g id="line2d_9">
      <defs>
       <path d="M 0 0 
L -3.5 0 
" id="m43ca8cd9ea" style="stroke:#000000;stroke-width:0.8;"/>
      </defs>
      <g>
       <use style="stroke:#000000;stroke-width:0.8;" x="54" xlink:href="#m43ca8cd9ea" y="252"/>
      </g>
     </g>
     <g id="text_9">
      <!-- 0.0 -->
      <g transform="translate(31.096875 255.799219)scale(0.1 -0.1)">
       <defs>
        <path d="M 10.6875 12.40625 
L 21 12.40625 
L 21 0 
L 10.6875 0 
z
" id="DejaVuSans-46"/>
       </defs>
       <use xlink:href="#DejaVuSans-48"/>
       <use x="63.623047" xlink:href="#DejaVuSans-46"/>
       <use x="95.410156" xlink:href="#DejaVuSans-48"/>
      </g>
     </g>
    </g>
    <g id="ytick_2">
     <g id="line2d_10">
      <g>
       <use style="stroke:#000000;stroke-width:0.8;" x="54" xlink:href="#m43ca8cd9ea" y="209.604542"/>
      </g>
     </g>
     <g id="text_10">
      <!-- 0.2 -->
      <g transform="translate(31.096875 213.403761)scale(0.1 -0.1)">
       <use xlink:href="#DejaVuSans-48"/>
       <use x="63.623047" xlink:href="#DejaVuSans-46"/>
       <use x="95.410156" xlink:href="#DejaVuSans-50"/>
      </g>
     </g>
    </g>
    <g id="ytick_3">
     <g id="line2d_11">
      <g>
       <use style="stroke:#000000;stroke-width:0.8;" x="54" xlink:href="#m43ca8cd9ea" y="167.209084"/>
      </g>
     </g>
     <g id="text_11">
      <!-- 0.4 -->
      <g transform="translate(31.096875 171.008303)scale(0.1 -0.1)">
       <use xlink:href="#DejaVuSans-48"/>
       <use x="63.623047" xlink:href="#DejaVuSans-46"/>
       <use x="95.410156" xlink:href="#DejaVuSans-52"/>
      </g>
     </g>
    </g>
    <g id="ytick_4">
     <g id="line2d_12">
      <g>
       <use style="stroke:#000000;stroke-width:0.8;" x="54" xlink:href="#m43ca8cd9ea" y="124.813626"/>
      </g>
     </g>
     <g id="text_12">
      <!-- 0.6 -->
      <g transform="translate(31.096875 128.612844)scale(0.1 -0.1)">
       <use xlink:href="#DejaVuSans-48"/>
       <use x="63.623047" xlink:href="#DejaVuSans-46"/>
       <use x="95.410156" xlink:href="#DejaVuSans-54"/>
      </g>
     </g>
    </g>
    <g id="ytick_5">
     <g id="line2d_13">
      <g>
       <use style="stroke:#000000;stroke-width:0.8;" x="54" xlink:href="#m43ca8cd9ea" y="82.418168"/>
      </g>
     </g>
     <g id="text_13">
      <!-- 0.8 -->
      <g transform="translate(31.096875 86.217386)scale(0.1 -0.1)">
       <defs>
        <path d="M 31.78125 34.625 
Q 24.75 34.625 20.71875 30.859375 
Q 16.703125 27.09375 16.703125 20.515625 
Q 16.703125 13.921875 20.71875 10.15625 
Q 24.75 6.390625 31.78125 6.390625 
Q 38.8125 6.390625 42.859375 10.171875 
Q 46.921875 13.96875 46.921875 20.515625 
Q 46.921875 27.09375 42.890625 30.859375 
Q 38.875 34.625 31.78125 34.625 
z
M 21.921875 38.8125 
Q 15.578125 40.375 12.03125 44.71875 
Q 8.5 49.078125 8.5 55.328125 
Q 8.5 64.0625 14.71875 69.140625 
Q 20.953125 74.21875 31.78125 74.21875 
Q 42.671875 74.21875 48.875 69.140625 
Q 55.078125 64.0625 55.078125 55.328125 
Q 55.078125 49.078125 51.53125 44.71875 
Q 48 40.375 41.703125 38.8125 
Q 48.828125 37.15625 52.796875 32.3125 
Q 56.78125 27.484375 56.78125 20.515625 
Q 56.78125 9.90625 50.3125 4.234375 
Q 43.84375 -1.421875 31.78125 -1.421875 
Q 19.734375 -1.421875 13.25 4.234375 
Q 6.78125 9.90625 6.78125 20.515625 
Q 6.78125 27.484375 10.78125 32.3125 
Q 14.796875 37.15625 21.921875 38.8125 
z
M 18.3125 54.390625 
Q 18.3125 48.734375 21.84375 45.5625 
Q 25.390625 42.390625 31.78125 42.390625 
Q 38.140625 42.390625 41.71875 45.5625 
Q 45.3125 48.734375 45.3125 54.390625 
Q 45.3125 60.0625 41.71875 63.234375 
Q 38.140625 66.40625 31.78125 66.40625 
Q 25.390625 66.40625 21.84375 63.234375 
Q 18.3125 60.0625 18.3125 54.390625 
z
" id="DejaVuSans-56"/>
       </defs>
       <use xlink:href="#DejaVuSans-48"/>
       <use x="63.623047" xlink:href="#DejaVuSans-46"/>
       <use x="95.410156" xlink:href="#DejaVuSans-56"/>
      </g>
     </g>
    </g>
    <g id="ytick_6">
     <g id="line2d_14">
      <g>
       <use style="stroke:#000000;stroke-width:0.8;" x="54" xlink:href="#m43ca8cd9ea" y="40.022709"/>
      </g>
     </g>
     <g id="text_14">
      <!-- 1.0 -->
      <g transform="translate(31.096875 43.821928)scale(0.1 -0.1)">
       <use xlink:href="#DejaVuSans-49"/>
       <use x="63.623047" xlink:href="#DejaVuSans-46"/>
       <use x="95.410156" xlink:href="#DejaVuSans-48"/>
      </g>
     </g>
    </g>
   </g>
   <g id="patch_203">
    <path d="M 54 252 
L 54 34.56 
" style="fill:none;stroke:#000000;stroke-linecap:square;stroke-linejoin:miter;stroke-width:0.8;"/>
   </g>
   <g id="patch_204">
    <path d="M 388.8 252 
L 388.8 34.56 
" style="fill:none;stroke:#000000;stroke-linecap:square;stroke-linejoin:miter;stroke-width:0.8;"/>
   </g>
   <g id="patch_205">
    <path d="M 54 252 
L 388.8 252 
" style="fill:none;stroke:#000000;stroke-linecap:square;stroke-linejoin:miter;stroke-width:0.8;"/>
   </g>
   <g id="patch_206">
    <path d="M 54 34.56 
L 388.8 34.56 
" style="fill:none;stroke:#000000;stroke-linecap:square;stroke-linejoin:miter;stroke-width:0.8;"/>
   </g>
   <g id="text_15">
    <!-- Comparison spacings generated -->
    <g transform="translate(124.355625 28.56)scale(0.12 -0.12)">
     <defs>
      <path d="M 64.40625 67.28125 
L 64.40625 56.890625 
Q 59.421875 61.53125 53.78125 63.8125 
Q 48.140625 66.109375 41.796875 66.109375 
Q 29.296875 66.109375 22.65625 58.46875 
Q 16.015625 50.828125 16.015625 36.375 
Q 16.015625 21.96875 22.65625 14.328125 
Q 29.296875 6.6875 41.796875 6.6875 
Q 48.140625 6.6875 53.78125 8.984375 
Q 59.421875 11.28125 64.40625 15.921875 
L 64.40625 5.609375 
Q 59.234375 2.09375 53.4375 0.328125 
Q 47.65625 -1.421875 41.21875 -1.421875 
Q 24.65625 -1.421875 15.125 8.703125 
Q 5.609375 18.84375 5.609375 36.375 
Q 5.609375 53.953125 15.125 64.078125 
Q 24.65625 74.21875 41.21875 74.21875 
Q 47.75 74.21875 53.53125 72.484375 
Q 59.328125 70.75 64.40625 67.28125 
z
" id="DejaVuSans-67"/>
      <path d="M 30.609375 48.390625 
Q 23.390625 48.390625 19.1875 42.75 
Q 14.984375 37.109375 14.984375 27.296875 
Q 14.984375 17.484375 19.15625 11.84375 
Q 23.34375 6.203125 30.609375 6.203125 
Q 37.796875 6.203125 41.984375 11.859375 
Q 46.1875 17.53125 46.1875 27.296875 
Q 46.1875 37.015625 41.984375 42.703125 
Q 37.796875 48.390625 30.609375 48.390625 
z
M 30.609375 56 
Q 42.328125 56 49.015625 48.375 
Q 55.71875 40.765625 55.71875 27.296875 
Q 55.71875 13.875 49.015625 6.21875 
Q 42.328125 -1.421875 30.609375 -1.421875 
Q 18.84375 -1.421875 12.171875 6.21875 
Q 5.515625 13.875 5.515625 27.296875 
Q 5.515625 40.765625 12.171875 48.375 
Q 18.84375 56 30.609375 56 
z
" id="DejaVuSans-111"/>
      <path d="M 52 44.1875 
Q 55.375 50.25 60.0625 53.125 
Q 64.75 56 71.09375 56 
Q 79.640625 56 84.28125 50.015625 
Q 88.921875 44.046875 88.921875 33.015625 
L 88.921875 0 
L 79.890625 0 
L 79.890625 32.71875 
Q 79.890625 40.578125 77.09375 44.375 
Q 74.3125 48.1875 68.609375 48.1875 
Q 61.625 48.1875 57.5625 43.546875 
Q 53.515625 38.921875 53.515625 30.90625 
L 53.515625 0 
L 44.484375 0 
L 44.484375 32.71875 
Q 44.484375 40.625 41.703125 44.40625 
Q 38.921875 48.1875 33.109375 48.1875 
Q 26.21875 48.1875 22.15625 43.53125 
Q 18.109375 38.875 18.109375 30.90625 
L 18.109375 0 
L 9.078125 0 
L 9.078125 54.6875 
L 18.109375 54.6875 
L 18.109375 46.1875 
Q 21.1875 51.21875 25.484375 53.609375 
Q 29.78125 56 35.6875 56 
Q 41.65625 56 45.828125 52.96875 
Q 50 49.953125 52 44.1875 
z
" id="DejaVuSans-109"/>
      <path d="M 18.109375 8.203125 
L 18.109375 -20.796875 
L 9.078125 -20.796875 
L 9.078125 54.6875 
L 18.109375 54.6875 
L 18.109375 46.390625 
Q 20.953125 51.265625 25.265625 53.625 
Q 29.59375 56 35.59375 56 
Q 45.5625 56 51.78125 48.09375 
Q 58.015625 40.1875 58.015625 27.296875 
Q 58.015625 14.40625 51.78125 6.484375 
Q 45.5625 -1.421875 35.59375 -1.421875 
Q 29.59375 -1.421875 25.265625 0.953125 
Q 20.953125 3.328125 18.109375 8.203125 
z
M 48.6875 27.296875 
Q 48.6875 37.203125 44.609375 42.84375 
Q 40.53125 48.484375 33.40625 48.484375 
Q 26.265625 48.484375 22.1875 42.84375 
Q 18.109375 37.203125 18.109375 27.296875 
Q 18.109375 17.390625 22.1875 11.75 
Q 26.265625 6.109375 33.40625 6.109375 
Q 40.53125 6.109375 44.609375 11.75 
Q 48.6875 17.390625 48.6875 27.296875 
z
" id="DejaVuSans-112"/>
      <path d="M 34.28125 27.484375 
Q 23.390625 27.484375 19.1875 25 
Q 14.984375 22.515625 14.984375 16.5 
Q 14.984375 11.71875 18.140625 8.90625 
Q 21.296875 6.109375 26.703125 6.109375 
Q 34.1875 6.109375 38.703125 11.40625 
Q 43.21875 16.703125 43.21875 25.484375 
L 43.21875 27.484375 
z
M 52.203125 31.203125 
L 52.203125 0 
L 43.21875 0 
L 43.21875 8.296875 
Q 40.140625 3.328125 35.546875 0.953125 
Q 30.953125 -1.421875 24.3125 -1.421875 
Q 15.921875 -1.421875 10.953125 3.296875 
Q 6 8.015625 6 15.921875 
Q 6 25.140625 12.171875 29.828125 
Q 18.359375 34.515625 30.609375 34.515625 
L 43.21875 34.515625 
L 43.21875 35.40625 
Q 43.21875 41.609375 39.140625 45 
Q 35.0625 48.390625 27.6875 48.390625 
Q 23 48.390625 18.546875 47.265625 
Q 14.109375 46.140625 10.015625 43.890625 
L 10.015625 52.203125 
Q 14.9375 54.109375 19.578125 55.046875 
Q 24.21875 56 28.609375 56 
Q 40.484375 56 46.34375 49.84375 
Q 52.203125 43.703125 52.203125 31.203125 
z
" id="DejaVuSans-97"/>
      <path d="M 41.109375 46.296875 
Q 39.59375 47.171875 37.8125 47.578125 
Q 36.03125 48 33.890625 48 
Q 26.265625 48 22.1875 43.046875 
Q 18.109375 38.09375 18.109375 28.8125 
L 18.109375 0 
L 9.078125 0 
L 9.078125 54.6875 
L 18.109375 54.6875 
L 18.109375 46.1875 
Q 20.953125 51.171875 25.484375 53.578125 
Q 30.03125 56 36.53125 56 
Q 37.453125 56 38.578125 55.875 
Q 39.703125 55.765625 41.0625 55.515625 
z
" id="DejaVuSans-114"/>
      <path d="M 9.421875 54.6875 
L 18.40625 54.6875 
L 18.40625 0 
L 9.421875 0 
z
M 9.421875 75.984375 
L 18.40625 75.984375 
L 18.40625 64.59375 
L 9.421875 64.59375 
z
" id="DejaVuSans-105"/>
      <path d="M 44.28125 53.078125 
L 44.28125 44.578125 
Q 40.484375 46.53125 36.375 47.5 
Q 32.28125 48.484375 27.875 48.484375 
Q 21.1875 48.484375 17.84375 46.4375 
Q 14.5 44.390625 14.5 40.28125 
Q 14.5 37.15625 16.890625 35.375 
Q 19.28125 33.59375 26.515625 31.984375 
L 29.59375 31.296875 
Q 39.15625 29.25 43.1875 25.515625 
Q 47.21875 21.78125 47.21875 15.09375 
Q 47.21875 7.46875 41.1875 3.015625 
Q 35.15625 -1.421875 24.609375 -1.421875 
Q 20.21875 -1.421875 15.453125 -0.5625 
Q 10.6875 0.296875 5.421875 2 
L 5.421875 11.28125 
Q 10.40625 8.6875 15.234375 7.390625 
Q 20.0625 6.109375 24.8125 6.109375 
Q 31.15625 6.109375 34.5625 8.28125 
Q 37.984375 10.453125 37.984375 14.40625 
Q 37.984375 18.0625 35.515625 20.015625 
Q 33.0625 21.96875 24.703125 23.78125 
L 21.578125 24.515625 
Q 13.234375 26.265625 9.515625 29.90625 
Q 5.8125 33.546875 5.8125 39.890625 
Q 5.8125 47.609375 11.28125 51.796875 
Q 16.75 56 26.8125 56 
Q 31.78125 56 36.171875 55.265625 
Q 40.578125 54.546875 44.28125 53.078125 
z
" id="DejaVuSans-115"/>
      <path d="M 54.890625 33.015625 
L 54.890625 0 
L 45.90625 0 
L 45.90625 32.71875 
Q 45.90625 40.484375 42.875 44.328125 
Q 39.84375 48.1875 33.796875 48.1875 
Q 26.515625 48.1875 22.3125 43.546875 
Q 18.109375 38.921875 18.109375 30.90625 
L 18.109375 0 
L 9.078125 0 
L 9.078125 54.6875 
L 18.109375 54.6875 
L 18.109375 46.1875 
Q 21.34375 51.125 25.703125 53.5625 
Q 30.078125 56 35.796875 56 
Q 45.21875 56 50.046875 50.171875 
Q 54.890625 44.34375 54.890625 33.015625 
z
" id="DejaVuSans-110"/>
      <path id="DejaVuSans-32"/>
      <path d="M 48.78125 52.59375 
L 48.78125 44.1875 
Q 44.96875 46.296875 41.140625 47.34375 
Q 37.3125 48.390625 33.40625 48.390625 
Q 24.65625 48.390625 19.8125 42.84375 
Q 14.984375 37.3125 14.984375 27.296875 
Q 14.984375 17.28125 19.8125 11.734375 
Q 24.65625 6.203125 33.40625 6.203125 
Q 37.3125 6.203125 41.140625 7.25 
Q 44.96875 8.296875 48.78125 10.40625 
L 48.78125 2.09375 
Q 45.015625 0.34375 40.984375 -0.53125 
Q 36.96875 -1.421875 32.421875 -1.421875 
Q 20.0625 -1.421875 12.78125 6.34375 
Q 5.515625 14.109375 5.515625 27.296875 
Q 5.515625 40.671875 12.859375 48.328125 
Q 20.21875 56 33.015625 56 
Q 37.15625 56 41.109375 55.140625 
Q 45.0625 54.296875 48.78125 52.59375 
z
" id="DejaVuSans-99"/>
      <path d="M 45.40625 27.984375 
Q 45.40625 37.75 41.375 43.109375 
Q 37.359375 48.484375 30.078125 48.484375 
Q 22.859375 48.484375 18.828125 43.109375 
Q 14.796875 37.75 14.796875 27.984375 
Q 14.796875 18.265625 18.828125 12.890625 
Q 22.859375 7.515625 30.078125 7.515625 
Q 37.359375 7.515625 41.375 12.890625 
Q 45.40625 18.265625 45.40625 27.984375 
z
M 54.390625 6.78125 
Q 54.390625 -7.171875 48.1875 -13.984375 
Q 42 -20.796875 29.203125 -20.796875 
Q 24.46875 -20.796875 20.265625 -20.09375 
Q 16.0625 -19.390625 12.109375 -17.921875 
L 12.109375 -9.1875 
Q 16.0625 -11.328125 19.921875 -12.34375 
Q 23.78125 -13.375 27.78125 -13.375 
Q 36.625 -13.375 41.015625 -8.765625 
Q 45.40625 -4.15625 45.40625 5.171875 
L 45.40625 9.625 
Q 42.625 4.78125 38.28125 2.390625 
Q 33.9375 0 27.875 0 
Q 17.828125 0 11.671875 7.65625 
Q 5.515625 15.328125 5.515625 27.984375 
Q 5.515625 40.671875 11.671875 48.328125 
Q 17.828125 56 27.875 56 
Q 33.9375 56 38.28125 53.609375 
Q 42.625 51.21875 45.40625 46.390625 
L 45.40625 54.6875 
L 54.390625 54.6875 
z
" id="DejaVuSans-103"/>
      <path d="M 56.203125 29.59375 
L 56.203125 25.203125 
L 14.890625 25.203125 
Q 15.484375 15.921875 20.484375 11.0625 
Q 25.484375 6.203125 34.421875 6.203125 
Q 39.59375 6.203125 44.453125 7.46875 
Q 49.3125 8.734375 54.109375 11.28125 
L 54.109375 2.78125 
Q 49.265625 0.734375 44.1875 -0.34375 
Q 39.109375 -1.421875 33.890625 -1.421875 
Q 20.796875 -1.421875 13.15625 6.1875 
Q 5.515625 13.8125 5.515625 26.8125 
Q 5.515625 40.234375 12.765625 48.109375 
Q 20.015625 56 32.328125 56 
Q 43.359375 56 49.78125 48.890625 
Q 56.203125 41.796875 56.203125 29.59375 
z
M 47.21875 32.234375 
Q 47.125 39.59375 43.09375 43.984375 
Q 39.0625 48.390625 32.421875 48.390625 
Q 24.90625 48.390625 20.390625 44.140625 
Q 15.875 39.890625 15.1875 32.171875 
z
" id="DejaVuSans-101"/>
      <path d="M 18.3125 70.21875 
L 18.3125 54.6875 
L 36.8125 54.6875 
L 36.8125 47.703125 
L 18.3125 47.703125 
L 18.3125 18.015625 
Q 18.3125 11.328125 20.140625 9.421875 
Q 21.96875 7.515625 27.59375 7.515625 
L 36.8125 7.515625 
L 36.8125 0 
L 27.59375 0 
Q 17.1875 0 13.234375 3.875 
Q 9.28125 7.765625 9.28125 18.015625 
L 9.28125 47.703125 
L 2.6875 47.703125 
L 2.6875 54.6875 
L 9.28125 54.6875 
L 9.28125 70.21875 
z
" id="DejaVuSans-116"/>
      <path d="M 45.40625 46.390625 
L 45.40625 75.984375 
L 54.390625 75.984375 
L 54.390625 0 
L 45.40625 0 
L 45.40625 8.203125 
Q 42.578125 3.328125 38.25 0.953125 
Q 33.9375 -1.421875 27.875 -1.421875 
Q 17.96875 -1.421875 11.734375 6.484375 
Q 5.515625 14.40625 5.515625 27.296875 
Q 5.515625 40.1875 11.734375 48.09375 
Q 17.96875 56 27.875 56 
Q 33.9375 56 38.25 53.625 
Q 42.578125 51.265625 45.40625 46.390625 
z
M 14.796875 27.296875 
Q 14.796875 17.390625 18.875 11.75 
Q 22.953125 6.109375 30.078125 6.109375 
Q 37.203125 6.109375 41.296875 11.75 
Q 45.40625 17.390625 45.40625 27.296875 
Q 45.40625 37.203125 41.296875 42.84375 
Q 37.203125 48.484375 30.078125 48.484375 
Q 22.953125 48.484375 18.875 42.84375 
Q 14.796875 37.203125 14.796875 27.296875 
z
" id="DejaVuSans-100"/>
     </defs>
     <use xlink:href="#DejaVuSans-67"/>
     <use x="69.824219" xlink:href="#DejaVuSans-111"/>
     <use x="131.005859" xlink:href="#DejaVuSans-109"/>
     <use x="228.417969" xlink:href="#DejaVuSans-112"/>
     <use x="291.894531" xlink:href="#DejaVuSans-97"/>
     <use x="353.173828" xlink:href="#DejaVuSans-114"/>
     <use x="394.287109" xlink:href="#DejaVuSans-105"/>
     <use x="422.070312" xlink:href="#DejaVuSans-115"/>
     <use x="474.169922" xlink:href="#DejaVuSans-111"/>
     <use x="535.351562" xlink:href="#DejaVuSans-110"/>
     <use x="598.730469" xlink:href="#DejaVuSans-32"/>
     <use x="630.517578" xlink:href="#DejaVuSans-115"/>
     <use x="682.617188" xlink:href="#DejaVuSans-112"/>
     <use x="746.09375" xlink:href="#DejaVuSans-97"/>
     <use x="807.373047" xlink:href="#DejaVuSans-99"/>
     <use x="862.353516" xlink:href="#DejaVuSans-105"/>
     <use x="890.136719" xlink:href="#DejaVuSans-110"/>
     <use x="953.515625" xlink:href="#DejaVuSans-103"/>
     <use x="1016.992188" xlink:href="#DejaVuSans-115"/>
     <use x="1069.091797" xlink:href="#DejaVuSans-32"/>
     <use x="1100.878906" xlink:href="#DejaVuSans-103"/>
     <use x="1164.355469" xlink:href="#DejaVuSans-101"/>
     <use x="1225.878906" xlink:href="#DejaVuSans-110"/>
     <use x="1289.257812" xlink:href="#DejaVuSans-101"/>
     <use x="1350.78125" xlink:href="#DejaVuSans-114"/>
     <use x="1391.894531" xlink:href="#DejaVuSans-97"/>
     <use x="1453.173828" xlink:href="#DejaVuSans-116"/>
     <use x="1492.382812" xlink:href="#DejaVuSans-101"/>
     <use x="1553.90625" xlink:href="#DejaVuSans-100"/>
    </g>
   </g>
   <g id="legend_1">
    <g id="patch_207">
     <path d="M 191.489062 71.91625 
L 381.8 71.91625 
Q 383.8 71.91625 383.8 69.91625 
L 383.8 41.56 
Q 383.8 39.56 381.8 39.56 
L 191.489062 39.56 
Q 189.489062 39.56 189.489062 41.56 
L 189.489062 69.91625 
Q 189.489062 71.91625 191.489062 71.91625 
z
" style="fill:#ffffff;opacity:0.8;stroke:#cccccc;stroke-linejoin:miter;"/>
    </g>
    <g id="patch_208">
     <path d="M 193.489062 51.158437 
L 213.489062 51.158437 
L 213.489062 44.158437 
L 193.489062 44.158437 
z
" style="fill:#1f77b4;opacity:0.5;"/>
    </g>
    <g id="text_16">
     <!-- Random Real-diagonal Matrices -->
     <g transform="translate(221.489062 51.158437)scale(0.1 -0.1)">
      <defs>
       <path d="M 44.390625 34.1875 
Q 47.5625 33.109375 50.5625 29.59375 
Q 53.5625 26.078125 56.59375 19.921875 
L 66.609375 0 
L 56 0 
L 46.6875 18.703125 
Q 43.0625 26.03125 39.671875 28.421875 
Q 36.28125 30.8125 30.421875 30.8125 
L 19.671875 30.8125 
L 19.671875 0 
L 9.8125 0 
L 9.8125 72.90625 
L 32.078125 72.90625 
Q 44.578125 72.90625 50.734375 67.671875 
Q 56.890625 62.453125 56.890625 51.90625 
Q 56.890625 45.015625 53.6875 40.46875 
Q 50.484375 35.9375 44.390625 34.1875 
z
M 19.671875 64.796875 
L 19.671875 38.921875 
L 32.078125 38.921875 
Q 39.203125 38.921875 42.84375 42.21875 
Q 46.484375 45.515625 46.484375 51.90625 
Q 46.484375 58.296875 42.84375 61.546875 
Q 39.203125 64.796875 32.078125 64.796875 
z
" id="DejaVuSans-82"/>
       <path d="M 9.421875 75.984375 
L 18.40625 75.984375 
L 18.40625 0 
L 9.421875 0 
z
" id="DejaVuSans-108"/>
       <path d="M 4.890625 31.390625 
L 31.203125 31.390625 
L 31.203125 23.390625 
L 4.890625 23.390625 
z
" id="DejaVuSans-45"/>
       <path d="M 9.8125 72.90625 
L 24.515625 72.90625 
L 43.109375 23.296875 
L 61.8125 72.90625 
L 76.515625 72.90625 
L 76.515625 0 
L 66.890625 0 
L 66.890625 64.015625 
L 48.09375 14.015625 
L 38.1875 14.015625 
L 19.390625 64.015625 
L 19.390625 0 
L 9.8125 0 
z
" id="DejaVuSans-77"/>
      </defs>
      <use xlink:href="#DejaVuSans-82"/>
      <use x="67.232422" xlink:href="#DejaVuSans-97"/>
      <use x="128.511719" xlink:href="#DejaVuSans-110"/>
      <use x="191.890625" xlink:href="#DejaVuSans-100"/>
      <use x="255.367188" xlink:href="#DejaVuSans-111"/>
      <use x="316.548828" xlink:href="#DejaVuSans-109"/>
      <use x="413.960938" xlink:href="#DejaVuSans-32"/>
      <use x="445.748047" xlink:href="#DejaVuSans-82"/>
      <use x="510.730469" xlink:href="#DejaVuSans-101"/>
      <use x="572.253906" xlink:href="#DejaVuSans-97"/>
      <use x="633.533203" xlink:href="#DejaVuSans-108"/>
      <use x="661.316406" xlink:href="#DejaVuSans-45"/>
      <use x="697.400391" xlink:href="#DejaVuSans-100"/>
      <use x="760.876953" xlink:href="#DejaVuSans-105"/>
      <use x="788.660156" xlink:href="#DejaVuSans-97"/>
      <use x="849.939453" xlink:href="#DejaVuSans-103"/>
      <use x="913.416016" xlink:href="#DejaVuSans-111"/>
      <use x="974.597656" xlink:href="#DejaVuSans-110"/>
      <use x="1037.976562" xlink:href="#DejaVuSans-97"/>
      <use x="1099.255859" xlink:href="#DejaVuSans-108"/>
      <use x="1127.039062" xlink:href="#DejaVuSans-32"/>
      <use x="1158.826172" xlink:href="#DejaVuSans-77"/>
      <use x="1245.105469" xlink:href="#DejaVuSans-97"/>
      <use x="1306.384766" xlink:href="#DejaVuSans-116"/>
      <use x="1345.59375" xlink:href="#DejaVuSans-114"/>
      <use x="1386.707031" xlink:href="#DejaVuSans-105"/>
      <use x="1414.490234" xlink:href="#DejaVuSans-99"/>
      <use x="1469.470703" xlink:href="#DejaVuSans-101"/>
      <use x="1530.994141" xlink:href="#DejaVuSans-115"/>
     </g>
    </g>
    <g id="patch_209">
     <path d="M 193.489062 65.836562 
L 213.489062 65.836562 
L 213.489062 58.836562 
L 193.489062 58.836562 
z
" style="fill:#228b22;opacity:0.5;"/>
    </g>
    <g id="text_17">
     <!-- Random Hermitian Matrices -->
     <g transform="translate(221.489062 65.836562)scale(0.1 -0.1)">
      <defs>
       <path d="M 9.8125 72.90625 
L 19.671875 72.90625 
L 19.671875 43.015625 
L 55.515625 43.015625 
L 55.515625 72.90625 
L 65.375 72.90625 
L 65.375 0 
L 55.515625 0 
L 55.515625 34.71875 
L 19.671875 34.71875 
L 19.671875 0 
L 9.8125 0 
z
" id="DejaVuSans-72"/>
      </defs>
      <use xlink:href="#DejaVuSans-82"/>
      <use x="67.232422" xlink:href="#DejaVuSans-97"/>
      <use x="128.511719" xlink:href="#DejaVuSans-110"/>
      <use x="191.890625" xlink:href="#DejaVuSans-100"/>
      <use x="255.367188" xlink:href="#DejaVuSans-111"/>
      <use x="316.548828" xlink:href="#DejaVuSans-109"/>
      <use x="413.960938" xlink:href="#DejaVuSans-32"/>
      <use x="445.748047" xlink:href="#DejaVuSans-72"/>
      <use x="520.943359" xlink:href="#DejaVuSans-101"/>
      <use x="582.466797" xlink:href="#DejaVuSans-114"/>
      <use x="621.830078" xlink:href="#DejaVuSans-109"/>
      <use x="719.242188" xlink:href="#DejaVuSans-105"/>
      <use x="747.025391" xlink:href="#DejaVuSans-116"/>
      <use x="786.234375" xlink:href="#DejaVuSans-105"/>
      <use x="814.017578" xlink:href="#DejaVuSans-97"/>
      <use x="875.296875" xlink:href="#DejaVuSans-110"/>
      <use x="938.675781" xlink:href="#DejaVuSans-32"/>
      <use x="970.462891" xlink:href="#DejaVuSans-77"/>
      <use x="1056.742188" xlink:href="#DejaVuSans-97"/>
      <use x="1118.021484" xlink:href="#DejaVuSans-116"/>
      <use x="1157.230469" xlink:href="#DejaVuSans-114"/>
      <use x="1198.34375" xlink:href="#DejaVuSans-105"/>
      <use x="1226.126953" xlink:href="#DejaVuSans-99"/>
      <use x="1281.107422" xlink:href="#DejaVuSans-101"/>
      <use x="1342.630859" xlink:href="#DejaVuSans-115"/>
     </g>
    </g>
   </g>
  </g>
 </g>
 <defs>
  <clipPath id="pbd7ded01d6">
   <rect height="217.44" width="334.8" x="54" y="34.56"/>
  </clipPath>
 </defs>
</svg>
