<?xml version="1.0" encoding="utf-8" standalone="no"?>
<!DOCTYPE svg PUBLIC "-//W3C//DTD SVG 1.1//EN"
  "http://www.w3.org/Graphics/SVG/1.1/DTD/svg11.dtd">
<!-- Created with matplotlib (https://matplotlib.org/) -->
<svg height="216pt" version="1.1" viewBox="0 0 1080 216" width="1080pt" xmlns="http://www.w3.org/2000/svg" xmlns:xlink="http://www.w3.org/1999/xlink">
 <metadata>
  <rdf:RDF xmlns:cc="http://creativecommons.org/ns#" xmlns:dc="http://purl.org/dc/elements/1.1/" xmlns:rdf="http://www.w3.org/1999/02/22-rdf-syntax-ns#">
   <cc:Work>
    <dc:type rdf:resource="http://purl.org/dc/dcmitype/StillImage"/>
    <dc:date>2021-11-12T10:27:18.600206</dc:date>
    <dc:format>image/svg+xml</dc:format>
    <dc:creator>
     <cc:Agent>
      <dc:title>Matplotlib v3.3.4, https://matplotlib.org/</dc:title>
     </cc:Agent>
    </dc:creator>
   </cc:Work>
  </rdf:RDF>
 </metadata>
 <defs>
  <style type="text/css">*{stroke-linecap:butt;stroke-linejoin:round;}</style>
 </defs>
 <g id="figure_1">
  <g id="patch_1">
   <path d="M 0 216 
L 1080 216 
L 1080 0 
L 0 0 
z
" style="fill:none;"/>
  </g>
  <g id="axes_1">
   <g id="patch_2">
    <path d="M 135 189 
L 515.454545 189 
L 515.454545 25.92 
L 135 25.92 
z
" style="fill:#ffffff;"/>
   </g>
   <g id="patch_3">
    <path clip-path="url(#p00fa626d89)" d="M 152.293388 189 
L 155.752066 189 
L 155.752066 186.389676 
L 152.293388 186.389676 
z
" style="fill:#228b22;"/>
   </g>
   <g id="patch_4">
    <path clip-path="url(#p00fa626d89)" d="M 155.752066 189 
L 159.210744 189 
L 159.210744 174.290471 
L 155.752066 174.290471 
z
" style="fill:#228b22;"/>
   </g>
   <g id="patch_5">
    <path clip-path="url(#p00fa626d89)" d="M 159.210744 189 
L 162.669421 189 
L 162.669421 153.478427 
L 159.210744 153.478427 
z
" style="fill:#228b22;"/>
   </g>
   <g id="patch_6">
    <path clip-path="url(#p00fa626d89)" d="M 162.669421 189 
L 166.128099 189 
L 166.128099 126.140573 
L 162.669421 126.140573 
z
" style="fill:#228b22;"/>
   </g>
   <g id="patch_7">
    <path clip-path="url(#p00fa626d89)" d="M 166.128099 189 
L 169.586777 189 
L 169.586777 97.47992 
L 166.128099 97.47992 
z
" style="fill:#228b22;"/>
   </g>
   <g id="patch_8">
    <path clip-path="url(#p00fa626d89)" d="M 169.586777 189 
L 173.045455 189 
L 173.045455 74.181013 
L 169.586777 74.181013 
z
" style="fill:#228b22;"/>
   </g>
   <g id="patch_9">
    <path clip-path="url(#p00fa626d89)" d="M 173.045455 189 
L 176.504132 189 
L 176.504132 52.434191 
L 173.045455 52.434191 
z
" style="fill:#228b22;"/>
   </g>
   <g id="patch_10">
    <path clip-path="url(#p00fa626d89)" d="M 176.504132 189 
L 179.96281 189 
L 179.96281 40.44081 
L 176.504132 40.44081 
z
" style="fill:#228b22;"/>
   </g>
   <g id="patch_11">
    <path clip-path="url(#p00fa626d89)" d="M 179.96281 189 
L 183.421488 189 
L 183.421488 33.685714 
L 179.96281 33.685714 
z
" style="fill:#228b22;"/>
   </g>
   <g id="patch_12">
    <path clip-path="url(#p00fa626d89)" d="M 183.421488 189 
L 186.880165 189 
L 186.880165 40.17625 
L 183.421488 40.17625 
z
" style="fill:#228b22;"/>
   </g>
   <g id="patch_13">
    <path clip-path="url(#p00fa626d89)" d="M 186.880165 189 
L 190.338843 189 
L 190.338843 51.922709 
L 186.880165 51.922709 
z
" style="fill:#228b22;"/>
   </g>
   <g id="patch_14">
    <path clip-path="url(#p00fa626d89)" d="M 190.338843 189 
L 193.797521 189 
L 193.797521 63.91609 
L 190.338843 63.91609 
z
" style="fill:#228b22;"/>
   </g>
   <g id="patch_15">
    <path clip-path="url(#p00fa626d89)" d="M 193.797521 189 
L 197.256198 189 
L 197.256198 82.276545 
L 193.797521 82.276545 
z
" style="fill:#228b22;"/>
   </g>
   <g id="patch_16">
    <path clip-path="url(#p00fa626d89)" d="M 197.256198 189 
L 200.714876 189 
L 200.714876 97.93849 
L 197.256198 97.93849 
z
" style="fill:#228b22;"/>
   </g>
   <g id="patch_17">
    <path clip-path="url(#p00fa626d89)" d="M 200.714876 189 
L 204.173554 189 
L 204.173554 116.669329 
L 200.714876 116.669329 
z
" style="fill:#228b22;"/>
   </g>
   <g id="patch_18">
    <path clip-path="url(#p00fa626d89)" d="M 204.173554 189 
L 207.632231 189 
L 207.632231 127.974855 
L 204.173554 127.974855 
z
" style="fill:#228b22;"/>
   </g>
   <g id="patch_19">
    <path clip-path="url(#p00fa626d89)" d="M 207.632231 189 
L 211.090909 189 
L 211.090909 142.067078 
L 207.632231 142.067078 
z
" style="fill:#228b22;"/>
   </g>
   <g id="patch_20">
    <path clip-path="url(#p00fa626d89)" d="M 211.090909 189 
L 214.549587 189 
L 214.549587 150.409532 
L 211.090909 150.409532 
z
" style="fill:#228b22;"/>
   </g>
   <g id="patch_21">
    <path clip-path="url(#p00fa626d89)" d="M 214.549587 189 
L 218.008264 189 
L 218.008264 159.228195 
L 214.549587 159.228195 
z
" style="fill:#228b22;"/>
   </g>
   <g id="patch_22">
    <path clip-path="url(#p00fa626d89)" d="M 218.008264 189 
L 221.466942 189 
L 221.466942 165.489446 
L 218.008264 165.489446 
z
" style="fill:#228b22;"/>
   </g>
   <g id="patch_23">
    <path clip-path="url(#p00fa626d89)" d="M 221.466942 189 
L 224.92562 189 
L 224.92562 170.815918 
L 221.466942 170.815918 
z
" style="fill:#228b22;"/>
   </g>
   <g id="patch_24">
    <path clip-path="url(#p00fa626d89)" d="M 224.92562 189 
L 228.384298 189 
L 228.384298 173.532066 
L 224.92562 173.532066 
z
" style="fill:#228b22;"/>
   </g>
   <g id="patch_25">
    <path clip-path="url(#p00fa626d89)" d="M 228.384298 189 
L 231.842975 189 
L 231.842975 175.683819 
L 228.384298 175.683819 
z
" style="fill:#228b22;"/>
   </g>
   <g id="patch_26">
    <path clip-path="url(#p00fa626d89)" d="M 231.842975 189 
L 235.301653 189 
L 235.301653 179.334746 
L 231.842975 179.334746 
z
" style="fill:#228b22;"/>
   </g>
   <g id="patch_27">
    <path clip-path="url(#p00fa626d89)" d="M 235.301653 189 
L 238.760331 189 
L 238.760331 180.816281 
L 235.301653 180.816281 
z
" style="fill:#228b22;"/>
   </g>
   <g id="patch_28">
    <path clip-path="url(#p00fa626d89)" d="M 238.760331 189 
L 242.219008 189 
L 242.219008 181.927433 
L 238.760331 181.927433 
z
" style="fill:#228b22;"/>
   </g>
   <g id="patch_29">
    <path clip-path="url(#p00fa626d89)" d="M 242.219008 189 
L 245.677686 189 
L 245.677686 183.885176 
L 242.219008 183.885176 
z
" style="fill:#228b22;"/>
   </g>
   <g id="patch_30">
    <path clip-path="url(#p00fa626d89)" d="M 245.677686 189 
L 249.136364 189 
L 249.136364 184.502482 
L 245.677686 184.502482 
z
" style="fill:#228b22;"/>
   </g>
   <g id="patch_31">
    <path clip-path="url(#p00fa626d89)" d="M 249.136364 189 
L 252.595041 189 
L 252.595041 184.467207 
L 249.136364 184.467207 
z
" style="fill:#228b22;"/>
   </g>
   <g id="patch_32">
    <path clip-path="url(#p00fa626d89)" d="M 252.595041 189 
L 256.053719 189 
L 256.053719 185.825281 
L 252.595041 185.825281 
z
" style="fill:#228b22;"/>
   </g>
   <g id="patch_33">
    <path clip-path="url(#p00fa626d89)" d="M 256.053719 189 
L 259.512397 189 
L 259.512397 186.283852 
L 256.053719 186.283852 
z
" style="fill:#228b22;"/>
   </g>
   <g id="patch_34">
    <path clip-path="url(#p00fa626d89)" d="M 259.512397 189 
L 262.971074 189 
L 262.971074 186.477862 
L 259.512397 186.477862 
z
" style="fill:#228b22;"/>
   </g>
   <g id="patch_35">
    <path clip-path="url(#p00fa626d89)" d="M 262.971074 189 
L 266.429752 189 
L 266.429752 186.918796 
L 262.971074 186.918796 
z
" style="fill:#228b22;"/>
   </g>
   <g id="patch_36">
    <path clip-path="url(#p00fa626d89)" d="M 266.429752 189 
L 269.88843 189 
L 269.88843 187.006982 
L 266.429752 187.006982 
z
" style="fill:#228b22;"/>
   </g>
   <g id="patch_37">
    <path clip-path="url(#p00fa626d89)" d="M 269.88843 189 
L 273.347107 189 
L 273.347107 187.095169 
L 269.88843 187.095169 
z
" style="fill:#228b22;"/>
   </g>
   <g id="patch_38">
    <path clip-path="url(#p00fa626d89)" d="M 273.347107 189 
L 276.805785 189 
L 276.805785 187.465553 
L 273.347107 187.465553 
z
" style="fill:#228b22;"/>
   </g>
   <g id="patch_39">
    <path clip-path="url(#p00fa626d89)" d="M 276.805785 189 
L 280.264463 189 
L 280.264463 187.694838 
L 276.805785 187.694838 
z
" style="fill:#228b22;"/>
   </g>
   <g id="patch_40">
    <path clip-path="url(#p00fa626d89)" d="M 280.264463 189 
L 283.72314 189 
L 283.72314 187.959398 
L 280.264463 187.959398 
z
" style="fill:#228b22;"/>
   </g>
   <g id="patch_41">
    <path clip-path="url(#p00fa626d89)" d="M 283.72314 189 
L 287.181818 189 
L 287.181818 187.624289 
L 283.72314 187.624289 
z
" style="fill:#228b22;"/>
   </g>
   <g id="patch_42">
    <path clip-path="url(#p00fa626d89)" d="M 287.181818 189 
L 290.640496 189 
L 290.640496 187.924123 
L 287.181818 187.924123 
z
" style="fill:#228b22;"/>
   </g>
   <g id="patch_43">
    <path clip-path="url(#p00fa626d89)" d="M 290.640496 189 
L 294.099174 189 
L 294.099174 188.171046 
L 290.640496 188.171046 
z
" style="fill:#228b22;"/>
   </g>
   <g id="patch_44">
    <path clip-path="url(#p00fa626d89)" d="M 294.099174 189 
L 297.557851 189 
L 297.557851 188.382694 
L 294.099174 188.382694 
z
" style="fill:#228b22;"/>
   </g>
   <g id="patch_45">
    <path clip-path="url(#p00fa626d89)" d="M 297.557851 189 
L 301.016529 189 
L 301.016529 188.347419 
L 297.557851 188.347419 
z
" style="fill:#228b22;"/>
   </g>
   <g id="patch_46">
    <path clip-path="url(#p00fa626d89)" d="M 301.016529 189 
L 304.475207 189 
L 304.475207 188.382694 
L 301.016529 188.382694 
z
" style="fill:#228b22;"/>
   </g>
   <g id="patch_47">
    <path clip-path="url(#p00fa626d89)" d="M 304.475207 189 
L 307.933884 189 
L 307.933884 188.365056 
L 304.475207 188.365056 
z
" style="fill:#228b22;"/>
   </g>
   <g id="patch_48">
    <path clip-path="url(#p00fa626d89)" d="M 307.933884 189 
L 311.392562 189 
L 311.392562 188.559067 
L 307.933884 188.559067 
z
" style="fill:#228b22;"/>
   </g>
   <g id="patch_49">
    <path clip-path="url(#p00fa626d89)" d="M 311.392562 189 
L 314.85124 189 
L 314.85124 188.54143 
L 311.392562 188.54143 
z
" style="fill:#228b22;"/>
   </g>
   <g id="patch_50">
    <path clip-path="url(#p00fa626d89)" d="M 314.85124 189 
L 318.309917 189 
L 318.309917 188.559067 
L 314.85124 188.559067 
z
" style="fill:#228b22;"/>
   </g>
   <g id="patch_51">
    <path clip-path="url(#p00fa626d89)" d="M 318.309917 189 
L 321.768595 189 
L 321.768595 188.753077 
L 318.309917 188.753077 
z
" style="fill:#228b22;"/>
   </g>
   <g id="patch_52">
    <path clip-path="url(#p00fa626d89)" d="M 321.768595 189 
L 325.227273 189 
L 325.227273 188.682528 
L 321.768595 188.682528 
z
" style="fill:#228b22;"/>
   </g>
   <g id="patch_53">
    <path clip-path="url(#p00fa626d89)" d="M 325.227273 189 
L 328.68595 189 
L 328.68595 188.700165 
L 325.227273 188.700165 
z
" style="fill:#228b22;"/>
   </g>
   <g id="patch_54">
    <path clip-path="url(#p00fa626d89)" d="M 328.68595 189 
L 332.144628 189 
L 332.144628 188.770715 
L 328.68595 188.770715 
z
" style="fill:#228b22;"/>
   </g>
   <g id="patch_55">
    <path clip-path="url(#p00fa626d89)" d="M 332.144628 189 
L 335.603306 189 
L 335.603306 188.73544 
L 332.144628 188.73544 
z
" style="fill:#228b22;"/>
   </g>
   <g id="patch_56">
    <path clip-path="url(#p00fa626d89)" d="M 335.603306 189 
L 339.061983 189 
L 339.061983 188.717803 
L 335.603306 188.717803 
z
" style="fill:#228b22;"/>
   </g>
   <g id="patch_57">
    <path clip-path="url(#p00fa626d89)" d="M 339.061983 189 
L 342.520661 189 
L 342.520661 188.841264 
L 339.061983 188.841264 
z
" style="fill:#228b22;"/>
   </g>
   <g id="patch_58">
    <path clip-path="url(#p00fa626d89)" d="M 342.520661 189 
L 345.979339 189 
L 345.979339 188.911813 
L 342.520661 188.911813 
z
" style="fill:#228b22;"/>
   </g>
   <g id="patch_59">
    <path clip-path="url(#p00fa626d89)" d="M 345.979339 189 
L 349.438017 189 
L 349.438017 188.770715 
L 345.979339 188.770715 
z
" style="fill:#228b22;"/>
   </g>
   <g id="patch_60">
    <path clip-path="url(#p00fa626d89)" d="M 349.438017 189 
L 352.896694 189 
L 352.896694 188.805989 
L 349.438017 188.805989 
z
" style="fill:#228b22;"/>
   </g>
   <g id="patch_61">
    <path clip-path="url(#p00fa626d89)" d="M 352.896694 189 
L 356.355372 189 
L 356.355372 188.858901 
L 352.896694 188.858901 
z
" style="fill:#228b22;"/>
   </g>
   <g id="patch_62">
    <path clip-path="url(#p00fa626d89)" d="M 356.355372 189 
L 359.81405 189 
L 359.81405 188.947088 
L 356.355372 188.947088 
z
" style="fill:#228b22;"/>
   </g>
   <g id="patch_63">
    <path clip-path="url(#p00fa626d89)" d="M 359.81405 189 
L 363.272727 189 
L 363.272727 188.947088 
L 359.81405 188.947088 
z
" style="fill:#228b22;"/>
   </g>
   <g id="patch_64">
    <path clip-path="url(#p00fa626d89)" d="M 363.272727 189 
L 366.731405 189 
L 366.731405 188.982363 
L 363.272727 188.982363 
z
" style="fill:#228b22;"/>
   </g>
   <g id="patch_65">
    <path clip-path="url(#p00fa626d89)" d="M 366.731405 189 
L 370.190083 189 
L 370.190083 188.876539 
L 366.731405 188.876539 
z
" style="fill:#228b22;"/>
   </g>
   <g id="patch_66">
    <path clip-path="url(#p00fa626d89)" d="M 370.190083 189 
L 373.64876 189 
L 373.64876 188.876539 
L 370.190083 188.876539 
z
" style="fill:#228b22;"/>
   </g>
   <g id="patch_67">
    <path clip-path="url(#p00fa626d89)" d="M 373.64876 189 
L 377.107438 189 
L 377.107438 188.876539 
L 373.64876 188.876539 
z
" style="fill:#228b22;"/>
   </g>
   <g id="patch_68">
    <path clip-path="url(#p00fa626d89)" d="M 377.107438 189 
L 380.566116 189 
L 380.566116 188.858901 
L 377.107438 188.858901 
z
" style="fill:#228b22;"/>
   </g>
   <g id="patch_69">
    <path clip-path="url(#p00fa626d89)" d="M 380.566116 189 
L 384.024793 189 
L 384.024793 188.947088 
L 380.566116 188.947088 
z
" style="fill:#228b22;"/>
   </g>
   <g id="patch_70">
    <path clip-path="url(#p00fa626d89)" d="M 384.024793 189 
L 387.483471 189 
L 387.483471 188.964725 
L 384.024793 188.964725 
z
" style="fill:#228b22;"/>
   </g>
   <g id="patch_71">
    <path clip-path="url(#p00fa626d89)" d="M 387.483471 189 
L 390.942149 189 
L 390.942149 188.947088 
L 387.483471 188.947088 
z
" style="fill:#228b22;"/>
   </g>
   <g id="patch_72">
    <path clip-path="url(#p00fa626d89)" d="M 390.942149 189 
L 394.400826 189 
L 394.400826 188.964725 
L 390.942149 188.964725 
z
" style="fill:#228b22;"/>
   </g>
   <g id="patch_73">
    <path clip-path="url(#p00fa626d89)" d="M 394.400826 189 
L 397.859504 189 
L 397.859504 188.964725 
L 394.400826 188.964725 
z
" style="fill:#228b22;"/>
   </g>
   <g id="patch_74">
    <path clip-path="url(#p00fa626d89)" d="M 397.859504 189 
L 401.318182 189 
L 401.318182 188.964725 
L 397.859504 188.964725 
z
" style="fill:#228b22;"/>
   </g>
   <g id="patch_75">
    <path clip-path="url(#p00fa626d89)" d="M 401.318182 189 
L 404.77686 189 
L 404.77686 188.982363 
L 401.318182 188.982363 
z
" style="fill:#228b22;"/>
   </g>
   <g id="patch_76">
    <path clip-path="url(#p00fa626d89)" d="M 404.77686 189 
L 408.235537 189 
L 408.235537 188.982363 
L 404.77686 188.982363 
z
" style="fill:#228b22;"/>
   </g>
   <g id="patch_77">
    <path clip-path="url(#p00fa626d89)" d="M 408.235537 189 
L 411.694215 189 
L 411.694215 188.982363 
L 408.235537 188.982363 
z
" style="fill:#228b22;"/>
   </g>
   <g id="patch_78">
    <path clip-path="url(#p00fa626d89)" d="M 411.694215 189 
L 415.152893 189 
L 415.152893 188.982363 
L 411.694215 188.982363 
z
" style="fill:#228b22;"/>
   </g>
   <g id="patch_79">
    <path clip-path="url(#p00fa626d89)" d="M 415.152893 189 
L 418.61157 189 
L 418.61157 189 
L 415.152893 189 
z
" style="fill:#228b22;"/>
   </g>
   <g id="patch_80">
    <path clip-path="url(#p00fa626d89)" d="M 418.61157 189 
L 422.070248 189 
L 422.070248 188.982363 
L 418.61157 188.982363 
z
" style="fill:#228b22;"/>
   </g>
   <g id="patch_81">
    <path clip-path="url(#p00fa626d89)" d="M 422.070248 189 
L 425.528926 189 
L 425.528926 188.982363 
L 422.070248 188.982363 
z
" style="fill:#228b22;"/>
   </g>
   <g id="patch_82">
    <path clip-path="url(#p00fa626d89)" d="M 425.528926 189 
L 428.987603 189 
L 428.987603 188.964725 
L 425.528926 188.964725 
z
" style="fill:#228b22;"/>
   </g>
   <g id="patch_83">
    <path clip-path="url(#p00fa626d89)" d="M 428.987603 189 
L 432.446281 189 
L 432.446281 189 
L 428.987603 189 
z
" style="fill:#228b22;"/>
   </g>
   <g id="patch_84">
    <path clip-path="url(#p00fa626d89)" d="M 432.446281 189 
L 435.904959 189 
L 435.904959 189 
L 432.446281 189 
z
" style="fill:#228b22;"/>
   </g>
   <g id="patch_85">
    <path clip-path="url(#p00fa626d89)" d="M 435.904959 189 
L 439.363636 189 
L 439.363636 188.982363 
L 435.904959 188.982363 
z
" style="fill:#228b22;"/>
   </g>
   <g id="patch_86">
    <path clip-path="url(#p00fa626d89)" d="M 439.363636 189 
L 442.822314 189 
L 442.822314 188.982363 
L 439.363636 188.982363 
z
" style="fill:#228b22;"/>
   </g>
   <g id="patch_87">
    <path clip-path="url(#p00fa626d89)" d="M 442.822314 189 
L 446.280992 189 
L 446.280992 189 
L 442.822314 189 
z
" style="fill:#228b22;"/>
   </g>
   <g id="patch_88">
    <path clip-path="url(#p00fa626d89)" d="M 446.280992 189 
L 449.739669 189 
L 449.739669 189 
L 446.280992 189 
z
" style="fill:#228b22;"/>
   </g>
   <g id="patch_89">
    <path clip-path="url(#p00fa626d89)" d="M 449.739669 189 
L 453.198347 189 
L 453.198347 189 
L 449.739669 189 
z
" style="fill:#228b22;"/>
   </g>
   <g id="patch_90">
    <path clip-path="url(#p00fa626d89)" d="M 453.198347 189 
L 456.657025 189 
L 456.657025 189 
L 453.198347 189 
z
" style="fill:#228b22;"/>
   </g>
   <g id="patch_91">
    <path clip-path="url(#p00fa626d89)" d="M 456.657025 189 
L 460.115702 189 
L 460.115702 189 
L 456.657025 189 
z
" style="fill:#228b22;"/>
   </g>
   <g id="patch_92">
    <path clip-path="url(#p00fa626d89)" d="M 460.115702 189 
L 463.57438 189 
L 463.57438 188.964725 
L 460.115702 188.964725 
z
" style="fill:#228b22;"/>
   </g>
   <g id="patch_93">
    <path clip-path="url(#p00fa626d89)" d="M 463.57438 189 
L 467.033058 189 
L 467.033058 189 
L 463.57438 189 
z
" style="fill:#228b22;"/>
   </g>
   <g id="patch_94">
    <path clip-path="url(#p00fa626d89)" d="M 467.033058 189 
L 470.491736 189 
L 470.491736 189 
L 467.033058 189 
z
" style="fill:#228b22;"/>
   </g>
   <g id="patch_95">
    <path clip-path="url(#p00fa626d89)" d="M 470.491736 189 
L 473.950413 189 
L 473.950413 189 
L 470.491736 189 
z
" style="fill:#228b22;"/>
   </g>
   <g id="patch_96">
    <path clip-path="url(#p00fa626d89)" d="M 473.950413 189 
L 477.409091 189 
L 477.409091 189 
L 473.950413 189 
z
" style="fill:#228b22;"/>
   </g>
   <g id="patch_97">
    <path clip-path="url(#p00fa626d89)" d="M 477.409091 189 
L 480.867769 189 
L 480.867769 189 
L 477.409091 189 
z
" style="fill:#228b22;"/>
   </g>
   <g id="patch_98">
    <path clip-path="url(#p00fa626d89)" d="M 480.867769 189 
L 484.326446 189 
L 484.326446 188.982363 
L 480.867769 188.982363 
z
" style="fill:#228b22;"/>
   </g>
   <g id="patch_99">
    <path clip-path="url(#p00fa626d89)" d="M 484.326446 189 
L 487.785124 189 
L 487.785124 189 
L 484.326446 189 
z
" style="fill:#228b22;"/>
   </g>
   <g id="patch_100">
    <path clip-path="url(#p00fa626d89)" d="M 487.785124 189 
L 491.243802 189 
L 491.243802 189 
L 487.785124 189 
z
" style="fill:#228b22;"/>
   </g>
   <g id="patch_101">
    <path clip-path="url(#p00fa626d89)" d="M 491.243802 189 
L 494.702479 189 
L 494.702479 189 
L 491.243802 189 
z
" style="fill:#228b22;"/>
   </g>
   <g id="patch_102">
    <path clip-path="url(#p00fa626d89)" d="M 494.702479 189 
L 498.161157 189 
L 498.161157 188.982363 
L 494.702479 188.982363 
z
" style="fill:#228b22;"/>
   </g>
   <g id="matplotlib.axis_1">
    <g id="xtick_1">
     <g id="line2d_1">
      <defs>
       <path d="M 0 0 
L 0 3.5 
" id="md5a5a39913" style="stroke:#000000;stroke-width:0.8;"/>
      </defs>
      <g>
       <use style="stroke:#000000;stroke-width:0.8;" x="151.934851" xlink:href="#md5a5a39913" y="189"/>
      </g>
     </g>
     <g id="text_1">
      <!-- 0 -->
      <g transform="translate(148.753601 203.598437)scale(0.1 -0.1)">
       <defs>
        <path d="M 31.78125 66.40625 
Q 24.171875 66.40625 20.328125 58.90625 
Q 16.5 51.421875 16.5 36.375 
Q 16.5 21.390625 20.328125 13.890625 
Q 24.171875 6.390625 31.78125 6.390625 
Q 39.453125 6.390625 43.28125 13.890625 
Q 47.125 21.390625 47.125 36.375 
Q 47.125 51.421875 43.28125 58.90625 
Q 39.453125 66.40625 31.78125 66.40625 
z
M 31.78125 74.21875 
Q 44.046875 74.21875 50.515625 64.515625 
Q 56.984375 54.828125 56.984375 36.375 
Q 56.984375 17.96875 50.515625 8.265625 
Q 44.046875 -1.421875 31.78125 -1.421875 
Q 19.53125 -1.421875 13.0625 8.265625 
Q 6.59375 17.96875 6.59375 36.375 
Q 6.59375 54.828125 13.0625 64.515625 
Q 19.53125 74.21875 31.78125 74.21875 
z
" id="DejaVuSans-48"/>
       </defs>
       <use xlink:href="#DejaVuSans-48"/>
      </g>
     </g>
    </g>
    <g id="xtick_2">
     <g id="line2d_2">
      <g>
       <use style="stroke:#000000;stroke-width:0.8;" x="228.444704" xlink:href="#md5a5a39913" y="189"/>
      </g>
     </g>
     <g id="text_2">
      <!-- 2 -->
      <g transform="translate(225.263454 203.598437)scale(0.1 -0.1)">
       <defs>
        <path d="M 19.1875 8.296875 
L 53.609375 8.296875 
L 53.609375 0 
L 7.328125 0 
L 7.328125 8.296875 
Q 12.9375 14.109375 22.625 23.890625 
Q 32.328125 33.6875 34.8125 36.53125 
Q 39.546875 41.84375 41.421875 45.53125 
Q 43.3125 49.21875 43.3125 52.78125 
Q 43.3125 58.59375 39.234375 62.25 
Q 35.15625 65.921875 28.609375 65.921875 
Q 23.96875 65.921875 18.8125 64.3125 
Q 13.671875 62.703125 7.8125 59.421875 
L 7.8125 69.390625 
Q 13.765625 71.78125 18.9375 73 
Q 24.125 74.21875 28.421875 74.21875 
Q 39.75 74.21875 46.484375 68.546875 
Q 53.21875 62.890625 53.21875 53.421875 
Q 53.21875 48.921875 51.53125 44.890625 
Q 49.859375 40.875 45.40625 35.40625 
Q 44.1875 33.984375 37.640625 27.21875 
Q 31.109375 20.453125 19.1875 8.296875 
z
" id="DejaVuSans-50"/>
       </defs>
       <use xlink:href="#DejaVuSans-50"/>
      </g>
     </g>
    </g>
    <g id="xtick_3">
     <g id="line2d_3">
      <g>
       <use style="stroke:#000000;stroke-width:0.8;" x="304.954557" xlink:href="#md5a5a39913" y="189"/>
      </g>
     </g>
     <g id="text_3">
      <!-- 4 -->
      <g transform="translate(301.773307 203.598437)scale(0.1 -0.1)">
       <defs>
        <path d="M 37.796875 64.3125 
L 12.890625 25.390625 
L 37.796875 25.390625 
z
M 35.203125 72.90625 
L 47.609375 72.90625 
L 47.609375 25.390625 
L 58.015625 25.390625 
L 58.015625 17.1875 
L 47.609375 17.1875 
L 47.609375 0 
L 37.796875 0 
L 37.796875 17.1875 
L 4.890625 17.1875 
L 4.890625 26.703125 
z
" id="DejaVuSans-52"/>
       </defs>
       <use xlink:href="#DejaVuSans-52"/>
      </g>
     </g>
    </g>
    <g id="xtick_4">
     <g id="line2d_4">
      <g>
       <use style="stroke:#000000;stroke-width:0.8;" x="381.46441" xlink:href="#md5a5a39913" y="189"/>
      </g>
     </g>
     <g id="text_4">
      <!-- 6 -->
      <g transform="translate(378.28316 203.598437)scale(0.1 -0.1)">
       <defs>
        <path d="M 33.015625 40.375 
Q 26.375 40.375 22.484375 35.828125 
Q 18.609375 31.296875 18.609375 23.390625 
Q 18.609375 15.53125 22.484375 10.953125 
Q 26.375 6.390625 33.015625 6.390625 
Q 39.65625 6.390625 43.53125 10.953125 
Q 47.40625 15.53125 47.40625 23.390625 
Q 47.40625 31.296875 43.53125 35.828125 
Q 39.65625 40.375 33.015625 40.375 
z
M 52.59375 71.296875 
L 52.59375 62.3125 
Q 48.875 64.0625 45.09375 64.984375 
Q 41.3125 65.921875 37.59375 65.921875 
Q 27.828125 65.921875 22.671875 59.328125 
Q 17.53125 52.734375 16.796875 39.40625 
Q 19.671875 43.65625 24.015625 45.921875 
Q 28.375 48.1875 33.59375 48.1875 
Q 44.578125 48.1875 50.953125 41.515625 
Q 57.328125 34.859375 57.328125 23.390625 
Q 57.328125 12.15625 50.6875 5.359375 
Q 44.046875 -1.421875 33.015625 -1.421875 
Q 20.359375 -1.421875 13.671875 8.265625 
Q 6.984375 17.96875 6.984375 36.375 
Q 6.984375 53.65625 15.1875 63.9375 
Q 23.390625 74.21875 37.203125 74.21875 
Q 40.921875 74.21875 44.703125 73.484375 
Q 48.484375 72.75 52.59375 71.296875 
z
" id="DejaVuSans-54"/>
       </defs>
       <use xlink:href="#DejaVuSans-54"/>
      </g>
     </g>
    </g>
    <g id="xtick_5">
     <g id="line2d_5">
      <g>
       <use style="stroke:#000000;stroke-width:0.8;" x="457.974263" xlink:href="#md5a5a39913" y="189"/>
      </g>
     </g>
     <g id="text_5">
      <!-- 8 -->
      <g transform="translate(454.793013 203.598437)scale(0.1 -0.1)">
       <defs>
        <path d="M 31.78125 34.625 
Q 24.75 34.625 20.71875 30.859375 
Q 16.703125 27.09375 16.703125 20.515625 
Q 16.703125 13.921875 20.71875 10.15625 
Q 24.75 6.390625 31.78125 6.390625 
Q 38.8125 6.390625 42.859375 10.171875 
Q 46.921875 13.96875 46.921875 20.515625 
Q 46.921875 27.09375 42.890625 30.859375 
Q 38.875 34.625 31.78125 34.625 
z
M 21.921875 38.8125 
Q 15.578125 40.375 12.03125 44.71875 
Q 8.5 49.078125 8.5 55.328125 
Q 8.5 64.0625 14.71875 69.140625 
Q 20.953125 74.21875 31.78125 74.21875 
Q 42.671875 74.21875 48.875 69.140625 
Q 55.078125 64.0625 55.078125 55.328125 
Q 55.078125 49.078125 51.53125 44.71875 
Q 48 40.375 41.703125 38.8125 
Q 48.828125 37.15625 52.796875 32.3125 
Q 56.78125 27.484375 56.78125 20.515625 
Q 56.78125 9.90625 50.3125 4.234375 
Q 43.84375 -1.421875 31.78125 -1.421875 
Q 19.734375 -1.421875 13.25 4.234375 
Q 6.78125 9.90625 6.78125 20.515625 
Q 6.78125 27.484375 10.78125 32.3125 
Q 14.796875 37.15625 21.921875 38.8125 
z
M 18.3125 54.390625 
Q 18.3125 48.734375 21.84375 45.5625 
Q 25.390625 42.390625 31.78125 42.390625 
Q 38.140625 42.390625 41.71875 45.5625 
Q 45.3125 48.734375 45.3125 54.390625 
Q 45.3125 60.0625 41.71875 63.234375 
Q 38.140625 66.40625 31.78125 66.40625 
Q 25.390625 66.40625 21.84375 63.234375 
Q 18.3125 60.0625 18.3125 54.390625 
z
" id="DejaVuSans-56"/>
       </defs>
       <use xlink:href="#DejaVuSans-56"/>
      </g>
     </g>
    </g>
   </g>
   <g id="matplotlib.axis_2">
    <g id="ytick_1">
     <g id="line2d_6">
      <defs>
       <path d="M 0 0 
L -3.5 0 
" id="m48e5153709" style="stroke:#000000;stroke-width:0.8;"/>
      </defs>
      <g>
       <use style="stroke:#000000;stroke-width:0.8;" x="135" xlink:href="#m48e5153709" y="189"/>
      </g>
     </g>
     <g id="text_6">
      <!-- 0.0 -->
      <g transform="translate(112.096875 192.799219)scale(0.1 -0.1)">
       <defs>
        <path d="M 10.6875 12.40625 
L 21 12.40625 
L 21 0 
L 10.6875 0 
z
" id="DejaVuSans-46"/>
       </defs>
       <use xlink:href="#DejaVuSans-48"/>
       <use x="63.623047" xlink:href="#DejaVuSans-46"/>
       <use x="95.410156" xlink:href="#DejaVuSans-48"/>
      </g>
     </g>
    </g>
    <g id="ytick_2">
     <g id="line2d_7">
      <g>
       <use style="stroke:#000000;stroke-width:0.8;" x="135" xlink:href="#m48e5153709" y="157.203406"/>
      </g>
     </g>
     <g id="text_7">
      <!-- 0.2 -->
      <g transform="translate(112.096875 161.002625)scale(0.1 -0.1)">
       <use xlink:href="#DejaVuSans-48"/>
       <use x="63.623047" xlink:href="#DejaVuSans-46"/>
       <use x="95.410156" xlink:href="#DejaVuSans-50"/>
      </g>
     </g>
    </g>
    <g id="ytick_3">
     <g id="line2d_8">
      <g>
       <use style="stroke:#000000;stroke-width:0.8;" x="135" xlink:href="#m48e5153709" y="125.406813"/>
      </g>
     </g>
     <g id="text_8">
      <!-- 0.4 -->
      <g transform="translate(112.096875 129.206032)scale(0.1 -0.1)">
       <use xlink:href="#DejaVuSans-48"/>
       <use x="63.623047" xlink:href="#DejaVuSans-46"/>
       <use x="95.410156" xlink:href="#DejaVuSans-52"/>
      </g>
     </g>
    </g>
    <g id="ytick_4">
     <g id="line2d_9">
      <g>
       <use style="stroke:#000000;stroke-width:0.8;" x="135" xlink:href="#m48e5153709" y="93.610219"/>
      </g>
     </g>
     <g id="text_9">
      <!-- 0.6 -->
      <g transform="translate(112.096875 97.409438)scale(0.1 -0.1)">
       <use xlink:href="#DejaVuSans-48"/>
       <use x="63.623047" xlink:href="#DejaVuSans-46"/>
       <use x="95.410156" xlink:href="#DejaVuSans-54"/>
      </g>
     </g>
    </g>
    <g id="ytick_5">
     <g id="line2d_10">
      <g>
       <use style="stroke:#000000;stroke-width:0.8;" x="135" xlink:href="#m48e5153709" y="61.813626"/>
      </g>
     </g>
     <g id="text_10">
      <!-- 0.8 -->
      <g transform="translate(112.096875 65.612844)scale(0.1 -0.1)">
       <use xlink:href="#DejaVuSans-48"/>
       <use x="63.623047" xlink:href="#DejaVuSans-46"/>
       <use x="95.410156" xlink:href="#DejaVuSans-56"/>
      </g>
     </g>
    </g>
    <g id="ytick_6">
     <g id="line2d_11">
      <g>
       <use style="stroke:#000000;stroke-width:0.8;" x="135" xlink:href="#m48e5153709" y="30.017032"/>
      </g>
     </g>
     <g id="text_11">
      <!-- 1.0 -->
      <g transform="translate(112.096875 33.816251)scale(0.1 -0.1)">
       <defs>
        <path d="M 12.40625 8.296875 
L 28.515625 8.296875 
L 28.515625 63.921875 
L 10.984375 60.40625 
L 10.984375 69.390625 
L 28.421875 72.90625 
L 38.28125 72.90625 
L 38.28125 8.296875 
L 54.390625 8.296875 
L 54.390625 0 
L 12.40625 0 
z
" id="DejaVuSans-49"/>
       </defs>
       <use xlink:href="#DejaVuSans-49"/>
       <use x="63.623047" xlink:href="#DejaVuSans-46"/>
       <use x="95.410156" xlink:href="#DejaVuSans-48"/>
      </g>
     </g>
    </g>
   </g>
   <g id="patch_103">
    <path d="M 135 189 
L 135 25.92 
" style="fill:none;stroke:#000000;stroke-linecap:square;stroke-linejoin:miter;stroke-width:0.8;"/>
   </g>
   <g id="patch_104">
    <path d="M 515.454545 189 
L 515.454545 25.92 
" style="fill:none;stroke:#000000;stroke-linecap:square;stroke-linejoin:miter;stroke-width:0.8;"/>
   </g>
   <g id="patch_105">
    <path d="M 135 189 
L 515.454545 189 
" style="fill:none;stroke:#000000;stroke-linecap:square;stroke-linejoin:miter;stroke-width:0.8;"/>
   </g>
   <g id="patch_106">
    <path d="M 135 25.92 
L 515.454545 25.92 
" style="fill:none;stroke:#000000;stroke-linecap:square;stroke-linejoin:miter;stroke-width:0.8;"/>
   </g>
   <g id="text_12">
    <!-- Histogram of normalized spacing for random hermitian matrices -->
    <g transform="translate(131.931648 19.92)scale(0.12 -0.12)">
     <defs>
      <path d="M 9.8125 72.90625 
L 19.671875 72.90625 
L 19.671875 43.015625 
L 55.515625 43.015625 
L 55.515625 72.90625 
L 65.375 72.90625 
L 65.375 0 
L 55.515625 0 
L 55.515625 34.71875 
L 19.671875 34.71875 
L 19.671875 0 
L 9.8125 0 
z
" id="DejaVuSans-72"/>
      <path d="M 9.421875 54.6875 
L 18.40625 54.6875 
L 18.40625 0 
L 9.421875 0 
z
M 9.421875 75.984375 
L 18.40625 75.984375 
L 18.40625 64.59375 
L 9.421875 64.59375 
z
" id="DejaVuSans-105"/>
      <path d="M 44.28125 53.078125 
L 44.28125 44.578125 
Q 40.484375 46.53125 36.375 47.5 
Q 32.28125 48.484375 27.875 48.484375 
Q 21.1875 48.484375 17.84375 46.4375 
Q 14.5 44.390625 14.5 40.28125 
Q 14.5 37.15625 16.890625 35.375 
Q 19.28125 33.59375 26.515625 31.984375 
L 29.59375 31.296875 
Q 39.15625 29.25 43.1875 25.515625 
Q 47.21875 21.78125 47.21875 15.09375 
Q 47.21875 7.46875 41.1875 3.015625 
Q 35.15625 -1.421875 24.609375 -1.421875 
Q 20.21875 -1.421875 15.453125 -0.5625 
Q 10.6875 0.296875 5.421875 2 
L 5.421875 11.28125 
Q 10.40625 8.6875 15.234375 7.390625 
Q 20.0625 6.109375 24.8125 6.109375 
Q 31.15625 6.109375 34.5625 8.28125 
Q 37.984375 10.453125 37.984375 14.40625 
Q 37.984375 18.0625 35.515625 20.015625 
Q 33.0625 21.96875 24.703125 23.78125 
L 21.578125 24.515625 
Q 13.234375 26.265625 9.515625 29.90625 
Q 5.8125 33.546875 5.8125 39.890625 
Q 5.8125 47.609375 11.28125 51.796875 
Q 16.75 56 26.8125 56 
Q 31.78125 56 36.171875 55.265625 
Q 40.578125 54.546875 44.28125 53.078125 
z
" id="DejaVuSans-115"/>
      <path d="M 18.3125 70.21875 
L 18.3125 54.6875 
L 36.8125 54.6875 
L 36.8125 47.703125 
L 18.3125 47.703125 
L 18.3125 18.015625 
Q 18.3125 11.328125 20.140625 9.421875 
Q 21.96875 7.515625 27.59375 7.515625 
L 36.8125 7.515625 
L 36.8125 0 
L 27.59375 0 
Q 17.1875 0 13.234375 3.875 
Q 9.28125 7.765625 9.28125 18.015625 
L 9.28125 47.703125 
L 2.6875 47.703125 
L 2.6875 54.6875 
L 9.28125 54.6875 
L 9.28125 70.21875 
z
" id="DejaVuSans-116"/>
      <path d="M 30.609375 48.390625 
Q 23.390625 48.390625 19.1875 42.75 
Q 14.984375 37.109375 14.984375 27.296875 
Q 14.984375 17.484375 19.15625 11.84375 
Q 23.34375 6.203125 30.609375 6.203125 
Q 37.796875 6.203125 41.984375 11.859375 
Q 46.1875 17.53125 46.1875 27.296875 
Q 46.1875 37.015625 41.984375 42.703125 
Q 37.796875 48.390625 30.609375 48.390625 
z
M 30.609375 56 
Q 42.328125 56 49.015625 48.375 
Q 55.71875 40.765625 55.71875 27.296875 
Q 55.71875 13.875 49.015625 6.21875 
Q 42.328125 -1.421875 30.609375 -1.421875 
Q 18.84375 -1.421875 12.171875 6.21875 
Q 5.515625 13.875 5.515625 27.296875 
Q 5.515625 40.765625 12.171875 48.375 
Q 18.84375 56 30.609375 56 
z
" id="DejaVuSans-111"/>
      <path d="M 45.40625 27.984375 
Q 45.40625 37.75 41.375 43.109375 
Q 37.359375 48.484375 30.078125 48.484375 
Q 22.859375 48.484375 18.828125 43.109375 
Q 14.796875 37.75 14.796875 27.984375 
Q 14.796875 18.265625 18.828125 12.890625 
Q 22.859375 7.515625 30.078125 7.515625 
Q 37.359375 7.515625 41.375 12.890625 
Q 45.40625 18.265625 45.40625 27.984375 
z
M 54.390625 6.78125 
Q 54.390625 -7.171875 48.1875 -13.984375 
Q 42 -20.796875 29.203125 -20.796875 
Q 24.46875 -20.796875 20.265625 -20.09375 
Q 16.0625 -19.390625 12.109375 -17.921875 
L 12.109375 -9.1875 
Q 16.0625 -11.328125 19.921875 -12.34375 
Q 23.78125 -13.375 27.78125 -13.375 
Q 36.625 -13.375 41.015625 -8.765625 
Q 45.40625 -4.15625 45.40625 5.171875 
L 45.40625 9.625 
Q 42.625 4.78125 38.28125 2.390625 
Q 33.9375 0 27.875 0 
Q 17.828125 0 11.671875 7.65625 
Q 5.515625 15.328125 5.515625 27.984375 
Q 5.515625 40.671875 11.671875 48.328125 
Q 17.828125 56 27.875 56 
Q 33.9375 56 38.28125 53.609375 
Q 42.625 51.21875 45.40625 46.390625 
L 45.40625 54.6875 
L 54.390625 54.6875 
z
" id="DejaVuSans-103"/>
      <path d="M 41.109375 46.296875 
Q 39.59375 47.171875 37.8125 47.578125 
Q 36.03125 48 33.890625 48 
Q 26.265625 48 22.1875 43.046875 
Q 18.109375 38.09375 18.109375 28.8125 
L 18.109375 0 
L 9.078125 0 
L 9.078125 54.6875 
L 18.109375 54.6875 
L 18.109375 46.1875 
Q 20.953125 51.171875 25.484375 53.578125 
Q 30.03125 56 36.53125 56 
Q 37.453125 56 38.578125 55.875 
Q 39.703125 55.765625 41.0625 55.515625 
z
" id="DejaVuSans-114"/>
      <path d="M 34.28125 27.484375 
Q 23.390625 27.484375 19.1875 25 
Q 14.984375 22.515625 14.984375 16.5 
Q 14.984375 11.71875 18.140625 8.90625 
Q 21.296875 6.109375 26.703125 6.109375 
Q 34.1875 6.109375 38.703125 11.40625 
Q 43.21875 16.703125 43.21875 25.484375 
L 43.21875 27.484375 
z
M 52.203125 31.203125 
L 52.203125 0 
L 43.21875 0 
L 43.21875 8.296875 
Q 40.140625 3.328125 35.546875 0.953125 
Q 30.953125 -1.421875 24.3125 -1.421875 
Q 15.921875 -1.421875 10.953125 3.296875 
Q 6 8.015625 6 15.921875 
Q 6 25.140625 12.171875 29.828125 
Q 18.359375 34.515625 30.609375 34.515625 
L 43.21875 34.515625 
L 43.21875 35.40625 
Q 43.21875 41.609375 39.140625 45 
Q 35.0625 48.390625 27.6875 48.390625 
Q 23 48.390625 18.546875 47.265625 
Q 14.109375 46.140625 10.015625 43.890625 
L 10.015625 52.203125 
Q 14.9375 54.109375 19.578125 55.046875 
Q 24.21875 56 28.609375 56 
Q 40.484375 56 46.34375 49.84375 
Q 52.203125 43.703125 52.203125 31.203125 
z
" id="DejaVuSans-97"/>
      <path d="M 52 44.1875 
Q 55.375 50.25 60.0625 53.125 
Q 64.75 56 71.09375 56 
Q 79.640625 56 84.28125 50.015625 
Q 88.921875 44.046875 88.921875 33.015625 
L 88.921875 0 
L 79.890625 0 
L 79.890625 32.71875 
Q 79.890625 40.578125 77.09375 44.375 
Q 74.3125 48.1875 68.609375 48.1875 
Q 61.625 48.1875 57.5625 43.546875 
Q 53.515625 38.921875 53.515625 30.90625 
L 53.515625 0 
L 44.484375 0 
L 44.484375 32.71875 
Q 44.484375 40.625 41.703125 44.40625 
Q 38.921875 48.1875 33.109375 48.1875 
Q 26.21875 48.1875 22.15625 43.53125 
Q 18.109375 38.875 18.109375 30.90625 
L 18.109375 0 
L 9.078125 0 
L 9.078125 54.6875 
L 18.109375 54.6875 
L 18.109375 46.1875 
Q 21.1875 51.21875 25.484375 53.609375 
Q 29.78125 56 35.6875 56 
Q 41.65625 56 45.828125 52.96875 
Q 50 49.953125 52 44.1875 
z
" id="DejaVuSans-109"/>
      <path id="DejaVuSans-32"/>
      <path d="M 37.109375 75.984375 
L 37.109375 68.5 
L 28.515625 68.5 
Q 23.6875 68.5 21.796875 66.546875 
Q 19.921875 64.59375 19.921875 59.515625 
L 19.921875 54.6875 
L 34.71875 54.6875 
L 34.71875 47.703125 
L 19.921875 47.703125 
L 19.921875 0 
L 10.890625 0 
L 10.890625 47.703125 
L 2.296875 47.703125 
L 2.296875 54.6875 
L 10.890625 54.6875 
L 10.890625 58.5 
Q 10.890625 67.625 15.140625 71.796875 
Q 19.390625 75.984375 28.609375 75.984375 
z
" id="DejaVuSans-102"/>
      <path d="M 54.890625 33.015625 
L 54.890625 0 
L 45.90625 0 
L 45.90625 32.71875 
Q 45.90625 40.484375 42.875 44.328125 
Q 39.84375 48.1875 33.796875 48.1875 
Q 26.515625 48.1875 22.3125 43.546875 
Q 18.109375 38.921875 18.109375 30.90625 
L 18.109375 0 
L 9.078125 0 
L 9.078125 54.6875 
L 18.109375 54.6875 
L 18.109375 46.1875 
Q 21.34375 51.125 25.703125 53.5625 
Q 30.078125 56 35.796875 56 
Q 45.21875 56 50.046875 50.171875 
Q 54.890625 44.34375 54.890625 33.015625 
z
" id="DejaVuSans-110"/>
      <path d="M 9.421875 75.984375 
L 18.40625 75.984375 
L 18.40625 0 
L 9.421875 0 
z
" id="DejaVuSans-108"/>
      <path d="M 5.515625 54.6875 
L 48.1875 54.6875 
L 48.1875 46.484375 
L 14.40625 7.171875 
L 48.1875 7.171875 
L 48.1875 0 
L 4.296875 0 
L 4.296875 8.203125 
L 38.09375 47.515625 
L 5.515625 47.515625 
z
" id="DejaVuSans-122"/>
      <path d="M 56.203125 29.59375 
L 56.203125 25.203125 
L 14.890625 25.203125 
Q 15.484375 15.921875 20.484375 11.0625 
Q 25.484375 6.203125 34.421875 6.203125 
Q 39.59375 6.203125 44.453125 7.46875 
Q 49.3125 8.734375 54.109375 11.28125 
L 54.109375 2.78125 
Q 49.265625 0.734375 44.1875 -0.34375 
Q 39.109375 -1.421875 33.890625 -1.421875 
Q 20.796875 -1.421875 13.15625 6.1875 
Q 5.515625 13.8125 5.515625 26.8125 
Q 5.515625 40.234375 12.765625 48.109375 
Q 20.015625 56 32.328125 56 
Q 43.359375 56 49.78125 48.890625 
Q 56.203125 41.796875 56.203125 29.59375 
z
M 47.21875 32.234375 
Q 47.125 39.59375 43.09375 43.984375 
Q 39.0625 48.390625 32.421875 48.390625 
Q 24.90625 48.390625 20.390625 44.140625 
Q 15.875 39.890625 15.1875 32.171875 
z
" id="DejaVuSans-101"/>
      <path d="M 45.40625 46.390625 
L 45.40625 75.984375 
L 54.390625 75.984375 
L 54.390625 0 
L 45.40625 0 
L 45.40625 8.203125 
Q 42.578125 3.328125 38.25 0.953125 
Q 33.9375 -1.421875 27.875 -1.421875 
Q 17.96875 -1.421875 11.734375 6.484375 
Q 5.515625 14.40625 5.515625 27.296875 
Q 5.515625 40.1875 11.734375 48.09375 
Q 17.96875 56 27.875 56 
Q 33.9375 56 38.25 53.625 
Q 42.578125 51.265625 45.40625 46.390625 
z
M 14.796875 27.296875 
Q 14.796875 17.390625 18.875 11.75 
Q 22.953125 6.109375 30.078125 6.109375 
Q 37.203125 6.109375 41.296875 11.75 
Q 45.40625 17.390625 45.40625 27.296875 
Q 45.40625 37.203125 41.296875 42.84375 
Q 37.203125 48.484375 30.078125 48.484375 
Q 22.953125 48.484375 18.875 42.84375 
Q 14.796875 37.203125 14.796875 27.296875 
z
" id="DejaVuSans-100"/>
      <path d="M 18.109375 8.203125 
L 18.109375 -20.796875 
L 9.078125 -20.796875 
L 9.078125 54.6875 
L 18.109375 54.6875 
L 18.109375 46.390625 
Q 20.953125 51.265625 25.265625 53.625 
Q 29.59375 56 35.59375 56 
Q 45.5625 56 51.78125 48.09375 
Q 58.015625 40.1875 58.015625 27.296875 
Q 58.015625 14.40625 51.78125 6.484375 
Q 45.5625 -1.421875 35.59375 -1.421875 
Q 29.59375 -1.421875 25.265625 0.953125 
Q 20.953125 3.328125 18.109375 8.203125 
z
M 48.6875 27.296875 
Q 48.6875 37.203125 44.609375 42.84375 
Q 40.53125 48.484375 33.40625 48.484375 
Q 26.265625 48.484375 22.1875 42.84375 
Q 18.109375 37.203125 18.109375 27.296875 
Q 18.109375 17.390625 22.1875 11.75 
Q 26.265625 6.109375 33.40625 6.109375 
Q 40.53125 6.109375 44.609375 11.75 
Q 48.6875 17.390625 48.6875 27.296875 
z
" id="DejaVuSans-112"/>
      <path d="M 48.78125 52.59375 
L 48.78125 44.1875 
Q 44.96875 46.296875 41.140625 47.34375 
Q 37.3125 48.390625 33.40625 48.390625 
Q 24.65625 48.390625 19.8125 42.84375 
Q 14.984375 37.3125 14.984375 27.296875 
Q 14.984375 17.28125 19.8125 11.734375 
Q 24.65625 6.203125 33.40625 6.203125 
Q 37.3125 6.203125 41.140625 7.25 
Q 44.96875 8.296875 48.78125 10.40625 
L 48.78125 2.09375 
Q 45.015625 0.34375 40.984375 -0.53125 
Q 36.96875 -1.421875 32.421875 -1.421875 
Q 20.0625 -1.421875 12.78125 6.34375 
Q 5.515625 14.109375 5.515625 27.296875 
Q 5.515625 40.671875 12.859375 48.328125 
Q 20.21875 56 33.015625 56 
Q 37.15625 56 41.109375 55.140625 
Q 45.0625 54.296875 48.78125 52.59375 
z
" id="DejaVuSans-99"/>
      <path d="M 54.890625 33.015625 
L 54.890625 0 
L 45.90625 0 
L 45.90625 32.71875 
Q 45.90625 40.484375 42.875 44.328125 
Q 39.84375 48.1875 33.796875 48.1875 
Q 26.515625 48.1875 22.3125 43.546875 
Q 18.109375 38.921875 18.109375 30.90625 
L 18.109375 0 
L 9.078125 0 
L 9.078125 75.984375 
L 18.109375 75.984375 
L 18.109375 46.1875 
Q 21.34375 51.125 25.703125 53.5625 
Q 30.078125 56 35.796875 56 
Q 45.21875 56 50.046875 50.171875 
Q 54.890625 44.34375 54.890625 33.015625 
z
" id="DejaVuSans-104"/>
     </defs>
     <use xlink:href="#DejaVuSans-72"/>
     <use x="75.195312" xlink:href="#DejaVuSans-105"/>
     <use x="102.978516" xlink:href="#DejaVuSans-115"/>
     <use x="155.078125" xlink:href="#DejaVuSans-116"/>
     <use x="194.287109" xlink:href="#DejaVuSans-111"/>
     <use x="255.46875" xlink:href="#DejaVuSans-103"/>
     <use x="318.945312" xlink:href="#DejaVuSans-114"/>
     <use x="360.058594" xlink:href="#DejaVuSans-97"/>
     <use x="421.337891" xlink:href="#DejaVuSans-109"/>
     <use x="518.75" xlink:href="#DejaVuSans-32"/>
     <use x="550.537109" xlink:href="#DejaVuSans-111"/>
     <use x="611.71875" xlink:href="#DejaVuSans-102"/>
     <use x="646.923828" xlink:href="#DejaVuSans-32"/>
     <use x="678.710938" xlink:href="#DejaVuSans-110"/>
     <use x="742.089844" xlink:href="#DejaVuSans-111"/>
     <use x="803.271484" xlink:href="#DejaVuSans-114"/>
     <use x="842.634766" xlink:href="#DejaVuSans-109"/>
     <use x="940.046875" xlink:href="#DejaVuSans-97"/>
     <use x="1001.326172" xlink:href="#DejaVuSans-108"/>
     <use x="1029.109375" xlink:href="#DejaVuSans-105"/>
     <use x="1056.892578" xlink:href="#DejaVuSans-122"/>
     <use x="1109.382812" xlink:href="#DejaVuSans-101"/>
     <use x="1170.90625" xlink:href="#DejaVuSans-100"/>
     <use x="1234.382812" xlink:href="#DejaVuSans-32"/>
     <use x="1266.169922" xlink:href="#DejaVuSans-115"/>
     <use x="1318.269531" xlink:href="#DejaVuSans-112"/>
     <use x="1381.746094" xlink:href="#DejaVuSans-97"/>
     <use x="1443.025391" xlink:href="#DejaVuSans-99"/>
     <use x="1498.005859" xlink:href="#DejaVuSans-105"/>
     <use x="1525.789062" xlink:href="#DejaVuSans-110"/>
     <use x="1589.167969" xlink:href="#DejaVuSans-103"/>
     <use x="1652.644531" xlink:href="#DejaVuSans-32"/>
     <use x="1684.431641" xlink:href="#DejaVuSans-102"/>
     <use x="1719.636719" xlink:href="#DejaVuSans-111"/>
     <use x="1780.818359" xlink:href="#DejaVuSans-114"/>
     <use x="1821.931641" xlink:href="#DejaVuSans-32"/>
     <use x="1853.71875" xlink:href="#DejaVuSans-114"/>
     <use x="1894.832031" xlink:href="#DejaVuSans-97"/>
     <use x="1956.111328" xlink:href="#DejaVuSans-110"/>
     <use x="2019.490234" xlink:href="#DejaVuSans-100"/>
     <use x="2082.966797" xlink:href="#DejaVuSans-111"/>
     <use x="2144.148438" xlink:href="#DejaVuSans-109"/>
     <use x="2241.560547" xlink:href="#DejaVuSans-32"/>
     <use x="2273.347656" xlink:href="#DejaVuSans-104"/>
     <use x="2336.726562" xlink:href="#DejaVuSans-101"/>
     <use x="2398.25" xlink:href="#DejaVuSans-114"/>
     <use x="2437.613281" xlink:href="#DejaVuSans-109"/>
     <use x="2535.025391" xlink:href="#DejaVuSans-105"/>
     <use x="2562.808594" xlink:href="#DejaVuSans-116"/>
     <use x="2602.017578" xlink:href="#DejaVuSans-105"/>
     <use x="2629.800781" xlink:href="#DejaVuSans-97"/>
     <use x="2691.080078" xlink:href="#DejaVuSans-110"/>
     <use x="2754.458984" xlink:href="#DejaVuSans-32"/>
     <use x="2786.246094" xlink:href="#DejaVuSans-109"/>
     <use x="2883.658203" xlink:href="#DejaVuSans-97"/>
     <use x="2944.9375" xlink:href="#DejaVuSans-116"/>
     <use x="2984.146484" xlink:href="#DejaVuSans-114"/>
     <use x="3025.259766" xlink:href="#DejaVuSans-105"/>
     <use x="3053.042969" xlink:href="#DejaVuSans-99"/>
     <use x="3108.023438" xlink:href="#DejaVuSans-101"/>
     <use x="3169.546875" xlink:href="#DejaVuSans-115"/>
    </g>
   </g>
  </g>
  <g id="axes_2">
   <g id="patch_107">
    <path d="M 591.545455 189 
L 972 189 
L 972 25.92 
L 591.545455 25.92 
z
" style="fill:#ffffff;"/>
   </g>
   <g id="patch_108">
    <path clip-path="url(#p53f1f1f2b0)" d="M 608.838843 189 
L 612.297521 189 
L 612.297521 33.685714 
L 608.838843 33.685714 
z
" style="fill:#1f77b4;"/>
   </g>
   <g id="patch_109">
    <path clip-path="url(#p53f1f1f2b0)" d="M 612.297521 189 
L 615.756198 189 
L 615.756198 50.35642 
L 612.297521 50.35642 
z
" style="fill:#1f77b4;"/>
   </g>
   <g id="patch_110">
    <path clip-path="url(#p53f1f1f2b0)" d="M 615.756198 189 
L 619.214876 189 
L 619.214876 68.984416 
L 615.756198 68.984416 
z
" style="fill:#1f77b4;"/>
   </g>
   <g id="patch_111">
    <path clip-path="url(#p53f1f1f2b0)" d="M 619.214876 189 
L 622.673554 189 
L 622.673554 80.74165 
L 619.214876 80.74165 
z
" style="fill:#1f77b4;"/>
   </g>
   <g id="patch_112">
    <path clip-path="url(#p53f1f1f2b0)" d="M 622.673554 189 
L 626.132231 189 
L 626.132231 92.350401 
L 622.673554 92.350401 
z
" style="fill:#1f77b4;"/>
   </g>
   <g id="patch_113">
    <path clip-path="url(#p53f1f1f2b0)" d="M 626.132231 189 
L 629.590909 189 
L 629.590909 104.296615 
L 626.132231 104.296615 
z
" style="fill:#1f77b4;"/>
   </g>
   <g id="patch_114">
    <path clip-path="url(#p53f1f1f2b0)" d="M 629.590909 189 
L 633.049587 189 
L 633.049587 116.283325 
L 629.590909 116.283325 
z
" style="fill:#1f77b4;"/>
   </g>
   <g id="patch_115">
    <path clip-path="url(#p53f1f1f2b0)" d="M 633.049587 189 
L 636.508264 189 
L 636.508264 123.518547 
L 633.049587 123.518547 
z
" style="fill:#1f77b4;"/>
   </g>
   <g id="patch_116">
    <path clip-path="url(#p53f1f1f2b0)" d="M 636.508264 189 
L 639.966942 189 
L 639.966942 130.092339 
L 636.508264 130.092339 
z
" style="fill:#1f77b4;"/>
   </g>
   <g id="patch_117">
    <path clip-path="url(#p53f1f1f2b0)" d="M 639.966942 189 
L 643.42562 189 
L 643.42562 137.341059 
L 639.966942 137.341059 
z
" style="fill:#1f77b4;"/>
   </g>
   <g id="patch_118">
    <path clip-path="url(#p53f1f1f2b0)" d="M 643.42562 189 
L 646.884298 189 
L 646.884298 143.18593 
L 643.42562 143.18593 
z
" style="fill:#1f77b4;"/>
   </g>
   <g id="patch_119">
    <path clip-path="url(#p53f1f1f2b0)" d="M 646.884298 189 
L 650.342975 189 
L 650.342975 149.395262 
L 646.884298 149.395262 
z
" style="fill:#1f77b4;"/>
   </g>
   <g id="patch_120">
    <path clip-path="url(#p53f1f1f2b0)" d="M 650.342975 189 
L 653.801653 189 
L 653.801653 153.309841 
L 650.342975 153.309841 
z
" style="fill:#1f77b4;"/>
   </g>
   <g id="patch_121">
    <path clip-path="url(#p53f1f1f2b0)" d="M 653.801653 189 
L 657.260331 189 
L 657.260331 157.912845 
L 653.801653 157.912845 
z
" style="fill:#1f77b4;"/>
   </g>
   <g id="patch_122">
    <path clip-path="url(#p53f1f1f2b0)" d="M 657.260331 189 
L 660.719008 189 
L 660.719008 159.45168 
L 657.260331 159.45168 
z
" style="fill:#1f77b4;"/>
   </g>
   <g id="patch_123">
    <path clip-path="url(#p53f1f1f2b0)" d="M 660.719008 189 
L 664.177686 189 
L 664.177686 164.297658 
L 660.719008 164.297658 
z
" style="fill:#1f77b4;"/>
   </g>
   <g id="patch_124">
    <path clip-path="url(#p53f1f1f2b0)" d="M 664.177686 189 
L 667.636364 189 
L 667.636364 167.105356 
L 664.177686 167.105356 
z
" style="fill:#1f77b4;"/>
   </g>
   <g id="patch_125">
    <path clip-path="url(#p53f1f1f2b0)" d="M 667.636364 189 
L 671.095041 189 
L 671.095041 169.548593 
L 667.636364 169.548593 
z
" style="fill:#1f77b4;"/>
   </g>
   <g id="patch_126">
    <path clip-path="url(#p53f1f1f2b0)" d="M 671.095041 189 
L 674.553719 189 
L 674.553719 171.748856 
L 671.095041 171.748856 
z
" style="fill:#1f77b4;"/>
   </g>
   <g id="patch_127">
    <path clip-path="url(#p53f1f1f2b0)" d="M 674.553719 189 
L 678.012397 189 
L 678.012397 173.66565 
L 674.553719 173.66565 
z
" style="fill:#1f77b4;"/>
   </g>
   <g id="patch_128">
    <path clip-path="url(#p53f1f1f2b0)" d="M 678.012397 189 
L 681.471074 189 
L 681.471074 176.135884 
L 678.012397 176.135884 
z
" style="fill:#1f77b4;"/>
   </g>
   <g id="patch_129">
    <path clip-path="url(#p53f1f1f2b0)" d="M 681.471074 189 
L 684.929752 189 
L 684.929752 177.526235 
L 681.471074 177.526235 
z
" style="fill:#1f77b4;"/>
   </g>
   <g id="patch_130">
    <path clip-path="url(#p53f1f1f2b0)" d="M 684.929752 189 
L 688.38843 189 
L 688.38843 178.700608 
L 684.929752 178.700608 
z
" style="fill:#1f77b4;"/>
   </g>
   <g id="patch_131">
    <path clip-path="url(#p53f1f1f2b0)" d="M 688.38843 189 
L 691.847107 189 
L 691.847107 179.901979 
L 688.38843 179.901979 
z
" style="fill:#1f77b4;"/>
   </g>
   <g id="patch_132">
    <path clip-path="url(#p53f1f1f2b0)" d="M 691.847107 189 
L 695.305785 189 
L 695.305785 181.130347 
L 691.847107 181.130347 
z
" style="fill:#1f77b4;"/>
   </g>
   <g id="patch_133">
    <path clip-path="url(#p53f1f1f2b0)" d="M 695.305785 189 
L 698.764463 189 
L 698.764463 181.5623 
L 695.305785 181.5623 
z
" style="fill:#1f77b4;"/>
   </g>
   <g id="patch_134">
    <path clip-path="url(#p53f1f1f2b0)" d="M 698.764463 189 
L 702.22314 189 
L 702.22314 183.263117 
L 698.764463 183.263117 
z
" style="fill:#1f77b4;"/>
   </g>
   <g id="patch_135">
    <path clip-path="url(#p53f1f1f2b0)" d="M 702.22314 189 
L 705.681818 189 
L 705.681818 183.357607 
L 702.22314 183.357607 
z
" style="fill:#1f77b4;"/>
   </g>
   <g id="patch_136">
    <path clip-path="url(#p53f1f1f2b0)" d="M 705.681818 189 
L 709.140496 189 
L 709.140496 183.492593 
L 705.681818 183.492593 
z
" style="fill:#1f77b4;"/>
   </g>
   <g id="patch_137">
    <path clip-path="url(#p53f1f1f2b0)" d="M 709.140496 189 
L 712.599174 189 
L 712.599174 184.504984 
L 709.140496 184.504984 
z
" style="fill:#1f77b4;"/>
   </g>
   <g id="patch_138">
    <path clip-path="url(#p53f1f1f2b0)" d="M 712.599174 189 
L 716.057851 189 
L 716.057851 185.112418 
L 712.599174 185.112418 
z
" style="fill:#1f77b4;"/>
   </g>
   <g id="patch_139">
    <path clip-path="url(#p53f1f1f2b0)" d="M 716.057851 189 
L 719.516529 189 
L 719.516529 185.814343 
L 716.057851 185.814343 
z
" style="fill:#1f77b4;"/>
   </g>
   <g id="patch_140">
    <path clip-path="url(#p53f1f1f2b0)" d="M 719.516529 189 
L 722.975207 189 
L 722.975207 185.895334 
L 719.516529 185.895334 
z
" style="fill:#1f77b4;"/>
   </g>
   <g id="patch_141">
    <path clip-path="url(#p53f1f1f2b0)" d="M 722.975207 189 
L 726.433884 189 
L 726.433884 186.246296 
L 722.975207 186.246296 
z
" style="fill:#1f77b4;"/>
   </g>
   <g id="patch_142">
    <path clip-path="url(#p53f1f1f2b0)" d="M 726.433884 189 
L 729.892562 189 
L 729.892562 186.570261 
L 726.433884 186.570261 
z
" style="fill:#1f77b4;"/>
   </g>
   <g id="patch_143">
    <path clip-path="url(#p53f1f1f2b0)" d="M 729.892562 189 
L 733.35124 189 
L 733.35124 186.975218 
L 729.892562 186.975218 
z
" style="fill:#1f77b4;"/>
   </g>
   <g id="patch_144">
    <path clip-path="url(#p53f1f1f2b0)" d="M 733.35124 189 
L 736.809917 189 
L 736.809917 187.177696 
L 733.35124 187.177696 
z
" style="fill:#1f77b4;"/>
   </g>
   <g id="patch_145">
    <path clip-path="url(#p53f1f1f2b0)" d="M 736.809917 189 
L 740.268595 189 
L 740.268595 187.690641 
L 736.809917 187.690641 
z
" style="fill:#1f77b4;"/>
   </g>
   <g id="patch_146">
    <path clip-path="url(#p53f1f1f2b0)" d="M 740.268595 189 
L 743.727273 189 
L 743.727273 187.299183 
L 740.268595 187.299183 
z
" style="fill:#1f77b4;"/>
   </g>
   <g id="patch_147">
    <path clip-path="url(#p53f1f1f2b0)" d="M 743.727273 189 
L 747.18595 189 
L 747.18595 187.60965 
L 743.727273 187.60965 
z
" style="fill:#1f77b4;"/>
   </g>
   <g id="patch_148">
    <path clip-path="url(#p53f1f1f2b0)" d="M 747.18595 189 
L 750.644628 189 
L 750.644628 187.987609 
L 747.18595 187.987609 
z
" style="fill:#1f77b4;"/>
   </g>
   <g id="patch_149">
    <path clip-path="url(#p53f1f1f2b0)" d="M 750.644628 189 
L 754.103306 189 
L 754.103306 188.041603 
L 750.644628 188.041603 
z
" style="fill:#1f77b4;"/>
   </g>
   <g id="patch_150">
    <path clip-path="url(#p53f1f1f2b0)" d="M 754.103306 189 
L 757.561983 189 
L 757.561983 188.082099 
L 754.103306 188.082099 
z
" style="fill:#1f77b4;"/>
   </g>
   <g id="patch_151">
    <path clip-path="url(#p53f1f1f2b0)" d="M 757.561983 189 
L 761.020661 189 
L 761.020661 188.271078 
L 757.561983 188.271078 
z
" style="fill:#1f77b4;"/>
   </g>
   <g id="patch_152">
    <path clip-path="url(#p53f1f1f2b0)" d="M 761.020661 189 
L 764.479339 189 
L 764.479339 188.298076 
L 761.020661 188.298076 
z
" style="fill:#1f77b4;"/>
   </g>
   <g id="patch_153">
    <path clip-path="url(#p53f1f1f2b0)" d="M 764.479339 189 
L 767.938017 189 
L 767.938017 188.271078 
L 764.479339 188.271078 
z
" style="fill:#1f77b4;"/>
   </g>
   <g id="patch_154">
    <path clip-path="url(#p53f1f1f2b0)" d="M 767.938017 189 
L 771.396694 189 
L 771.396694 188.500554 
L 767.938017 188.500554 
z
" style="fill:#1f77b4;"/>
   </g>
   <g id="patch_155">
    <path clip-path="url(#p53f1f1f2b0)" d="M 771.396694 189 
L 774.855372 189 
L 774.855372 188.500554 
L 771.396694 188.500554 
z
" style="fill:#1f77b4;"/>
   </g>
   <g id="patch_156">
    <path clip-path="url(#p53f1f1f2b0)" d="M 774.855372 189 
L 778.31405 189 
L 778.31405 188.716531 
L 774.855372 188.716531 
z
" style="fill:#1f77b4;"/>
   </g>
   <g id="patch_157">
    <path clip-path="url(#p53f1f1f2b0)" d="M 778.31405 189 
L 781.772727 189 
L 781.772727 188.649038 
L 778.31405 188.649038 
z
" style="fill:#1f77b4;"/>
   </g>
   <g id="patch_158">
    <path clip-path="url(#p53f1f1f2b0)" d="M 781.772727 189 
L 785.231405 189 
L 785.231405 188.797522 
L 781.772727 188.797522 
z
" style="fill:#1f77b4;"/>
   </g>
   <g id="patch_159">
    <path clip-path="url(#p53f1f1f2b0)" d="M 785.231405 189 
L 788.690083 189 
L 788.690083 188.743528 
L 785.231405 188.743528 
z
" style="fill:#1f77b4;"/>
   </g>
   <g id="patch_160">
    <path clip-path="url(#p53f1f1f2b0)" d="M 788.690083 189 
L 792.14876 189 
L 792.14876 188.797522 
L 788.690083 188.797522 
z
" style="fill:#1f77b4;"/>
   </g>
   <g id="patch_161">
    <path clip-path="url(#p53f1f1f2b0)" d="M 792.14876 189 
L 795.607438 189 
L 795.607438 188.865015 
L 792.14876 188.865015 
z
" style="fill:#1f77b4;"/>
   </g>
   <g id="patch_162">
    <path clip-path="url(#p53f1f1f2b0)" d="M 795.607438 189 
L 799.066116 189 
L 799.066116 188.865015 
L 795.607438 188.865015 
z
" style="fill:#1f77b4;"/>
   </g>
   <g id="patch_163">
    <path clip-path="url(#p53f1f1f2b0)" d="M 799.066116 189 
L 802.524793 189 
L 802.524793 188.824519 
L 799.066116 188.824519 
z
" style="fill:#1f77b4;"/>
   </g>
   <g id="patch_164">
    <path clip-path="url(#p53f1f1f2b0)" d="M 802.524793 189 
L 805.983471 189 
L 805.983471 188.851516 
L 802.524793 188.851516 
z
" style="fill:#1f77b4;"/>
   </g>
   <g id="patch_165">
    <path clip-path="url(#p53f1f1f2b0)" d="M 805.983471 189 
L 809.442149 189 
L 809.442149 188.838017 
L 805.983471 188.838017 
z
" style="fill:#1f77b4;"/>
   </g>
   <g id="patch_166">
    <path clip-path="url(#p53f1f1f2b0)" d="M 809.442149 189 
L 812.900826 189 
L 812.900826 188.851516 
L 809.442149 188.851516 
z
" style="fill:#1f77b4;"/>
   </g>
   <g id="patch_167">
    <path clip-path="url(#p53f1f1f2b0)" d="M 812.900826 189 
L 816.359504 189 
L 816.359504 188.892012 
L 812.900826 188.892012 
z
" style="fill:#1f77b4;"/>
   </g>
   <g id="patch_168">
    <path clip-path="url(#p53f1f1f2b0)" d="M 816.359504 189 
L 819.818182 189 
L 819.818182 188.932507 
L 816.359504 188.932507 
z
" style="fill:#1f77b4;"/>
   </g>
   <g id="patch_169">
    <path clip-path="url(#p53f1f1f2b0)" d="M 819.818182 189 
L 823.27686 189 
L 823.27686 188.90551 
L 819.818182 188.90551 
z
" style="fill:#1f77b4;"/>
   </g>
   <g id="patch_170">
    <path clip-path="url(#p53f1f1f2b0)" d="M 823.27686 189 
L 826.735537 189 
L 826.735537 188.932507 
L 823.27686 188.932507 
z
" style="fill:#1f77b4;"/>
   </g>
   <g id="patch_171">
    <path clip-path="url(#p53f1f1f2b0)" d="M 826.735537 189 
L 830.194215 189 
L 830.194215 188.932507 
L 826.735537 188.932507 
z
" style="fill:#1f77b4;"/>
   </g>
   <g id="patch_172">
    <path clip-path="url(#p53f1f1f2b0)" d="M 830.194215 189 
L 833.652893 189 
L 833.652893 188.959504 
L 830.194215 188.959504 
z
" style="fill:#1f77b4;"/>
   </g>
   <g id="patch_173">
    <path clip-path="url(#p53f1f1f2b0)" d="M 833.652893 189 
L 837.11157 189 
L 837.11157 188.946006 
L 833.652893 188.946006 
z
" style="fill:#1f77b4;"/>
   </g>
   <g id="patch_174">
    <path clip-path="url(#p53f1f1f2b0)" d="M 837.11157 189 
L 840.570248 189 
L 840.570248 188.973003 
L 837.11157 188.973003 
z
" style="fill:#1f77b4;"/>
   </g>
   <g id="patch_175">
    <path clip-path="url(#p53f1f1f2b0)" d="M 840.570248 189 
L 844.028926 189 
L 844.028926 188.932507 
L 840.570248 188.932507 
z
" style="fill:#1f77b4;"/>
   </g>
   <g id="patch_176">
    <path clip-path="url(#p53f1f1f2b0)" d="M 844.028926 189 
L 847.487603 189 
L 847.487603 188.986501 
L 844.028926 188.986501 
z
" style="fill:#1f77b4;"/>
   </g>
   <g id="patch_177">
    <path clip-path="url(#p53f1f1f2b0)" d="M 847.487603 189 
L 850.946281 189 
L 850.946281 188.986501 
L 847.487603 188.986501 
z
" style="fill:#1f77b4;"/>
   </g>
   <g id="patch_178">
    <path clip-path="url(#p53f1f1f2b0)" d="M 850.946281 189 
L 854.404959 189 
L 854.404959 189 
L 850.946281 189 
z
" style="fill:#1f77b4;"/>
   </g>
   <g id="patch_179">
    <path clip-path="url(#p53f1f1f2b0)" d="M 854.404959 189 
L 857.863636 189 
L 857.863636 188.986501 
L 854.404959 188.986501 
z
" style="fill:#1f77b4;"/>
   </g>
   <g id="patch_180">
    <path clip-path="url(#p53f1f1f2b0)" d="M 857.863636 189 
L 861.322314 189 
L 861.322314 188.986501 
L 857.863636 188.986501 
z
" style="fill:#1f77b4;"/>
   </g>
   <g id="patch_181">
    <path clip-path="url(#p53f1f1f2b0)" d="M 861.322314 189 
L 864.780992 189 
L 864.780992 188.986501 
L 861.322314 188.986501 
z
" style="fill:#1f77b4;"/>
   </g>
   <g id="patch_182">
    <path clip-path="url(#p53f1f1f2b0)" d="M 864.780992 189 
L 868.239669 189 
L 868.239669 189 
L 864.780992 189 
z
" style="fill:#1f77b4;"/>
   </g>
   <g id="patch_183">
    <path clip-path="url(#p53f1f1f2b0)" d="M 868.239669 189 
L 871.698347 189 
L 871.698347 188.986501 
L 868.239669 188.986501 
z
" style="fill:#1f77b4;"/>
   </g>
   <g id="patch_184">
    <path clip-path="url(#p53f1f1f2b0)" d="M 871.698347 189 
L 875.157025 189 
L 875.157025 188.973003 
L 871.698347 188.973003 
z
" style="fill:#1f77b4;"/>
   </g>
   <g id="patch_185">
    <path clip-path="url(#p53f1f1f2b0)" d="M 875.157025 189 
L 878.615702 189 
L 878.615702 188.986501 
L 875.157025 188.986501 
z
" style="fill:#1f77b4;"/>
   </g>
   <g id="patch_186">
    <path clip-path="url(#p53f1f1f2b0)" d="M 878.615702 189 
L 882.07438 189 
L 882.07438 189 
L 878.615702 189 
z
" style="fill:#1f77b4;"/>
   </g>
   <g id="patch_187">
    <path clip-path="url(#p53f1f1f2b0)" d="M 882.07438 189 
L 885.533058 189 
L 885.533058 189 
L 882.07438 189 
z
" style="fill:#1f77b4;"/>
   </g>
   <g id="patch_188">
    <path clip-path="url(#p53f1f1f2b0)" d="M 885.533058 189 
L 888.991736 189 
L 888.991736 189 
L 885.533058 189 
z
" style="fill:#1f77b4;"/>
   </g>
   <g id="patch_189">
    <path clip-path="url(#p53f1f1f2b0)" d="M 888.991736 189 
L 892.450413 189 
L 892.450413 188.986501 
L 888.991736 188.986501 
z
" style="fill:#1f77b4;"/>
   </g>
   <g id="patch_190">
    <path clip-path="url(#p53f1f1f2b0)" d="M 892.450413 189 
L 895.909091 189 
L 895.909091 189 
L 892.450413 189 
z
" style="fill:#1f77b4;"/>
   </g>
   <g id="patch_191">
    <path clip-path="url(#p53f1f1f2b0)" d="M 895.909091 189 
L 899.367769 189 
L 899.367769 189 
L 895.909091 189 
z
" style="fill:#1f77b4;"/>
   </g>
   <g id="patch_192">
    <path clip-path="url(#p53f1f1f2b0)" d="M 899.367769 189 
L 902.826446 189 
L 902.826446 188.986501 
L 899.367769 188.986501 
z
" style="fill:#1f77b4;"/>
   </g>
   <g id="patch_193">
    <path clip-path="url(#p53f1f1f2b0)" d="M 902.826446 189 
L 906.285124 189 
L 906.285124 189 
L 902.826446 189 
z
" style="fill:#1f77b4;"/>
   </g>
   <g id="patch_194">
    <path clip-path="url(#p53f1f1f2b0)" d="M 906.285124 189 
L 909.743802 189 
L 909.743802 189 
L 906.285124 189 
z
" style="fill:#1f77b4;"/>
   </g>
   <g id="patch_195">
    <path clip-path="url(#p53f1f1f2b0)" d="M 909.743802 189 
L 913.202479 189 
L 913.202479 188.973003 
L 909.743802 188.973003 
z
" style="fill:#1f77b4;"/>
   </g>
   <g id="patch_196">
    <path clip-path="url(#p53f1f1f2b0)" d="M 913.202479 189 
L 916.661157 189 
L 916.661157 189 
L 913.202479 189 
z
" style="fill:#1f77b4;"/>
   </g>
   <g id="patch_197">
    <path clip-path="url(#p53f1f1f2b0)" d="M 916.661157 189 
L 920.119835 189 
L 920.119835 189 
L 916.661157 189 
z
" style="fill:#1f77b4;"/>
   </g>
   <g id="patch_198">
    <path clip-path="url(#p53f1f1f2b0)" d="M 920.119835 189 
L 923.578512 189 
L 923.578512 189 
L 920.119835 189 
z
" style="fill:#1f77b4;"/>
   </g>
   <g id="patch_199">
    <path clip-path="url(#p53f1f1f2b0)" d="M 923.578512 189 
L 927.03719 189 
L 927.03719 189 
L 923.578512 189 
z
" style="fill:#1f77b4;"/>
   </g>
   <g id="patch_200">
    <path clip-path="url(#p53f1f1f2b0)" d="M 927.03719 189 
L 930.495868 189 
L 930.495868 189 
L 927.03719 189 
z
" style="fill:#1f77b4;"/>
   </g>
   <g id="patch_201">
    <path clip-path="url(#p53f1f1f2b0)" d="M 930.495868 189 
L 933.954545 189 
L 933.954545 189 
L 930.495868 189 
z
" style="fill:#1f77b4;"/>
   </g>
   <g id="patch_202">
    <path clip-path="url(#p53f1f1f2b0)" d="M 933.954545 189 
L 937.413223 189 
L 937.413223 189 
L 933.954545 189 
z
" style="fill:#1f77b4;"/>
   </g>
   <g id="patch_203">
    <path clip-path="url(#p53f1f1f2b0)" d="M 937.413223 189 
L 940.871901 189 
L 940.871901 189 
L 937.413223 189 
z
" style="fill:#1f77b4;"/>
   </g>
   <g id="patch_204">
    <path clip-path="url(#p53f1f1f2b0)" d="M 940.871901 189 
L 944.330579 189 
L 944.330579 189 
L 940.871901 189 
z
" style="fill:#1f77b4;"/>
   </g>
   <g id="patch_205">
    <path clip-path="url(#p53f1f1f2b0)" d="M 944.330579 189 
L 947.789256 189 
L 947.789256 189 
L 944.330579 189 
z
" style="fill:#1f77b4;"/>
   </g>
   <g id="patch_206">
    <path clip-path="url(#p53f1f1f2b0)" d="M 947.789256 189 
L 951.247934 189 
L 951.247934 188.986501 
L 947.789256 188.986501 
z
" style="fill:#1f77b4;"/>
   </g>
   <g id="patch_207">
    <path clip-path="url(#p53f1f1f2b0)" d="M 951.247934 189 
L 954.706612 189 
L 954.706612 188.986501 
L 951.247934 188.986501 
z
" style="fill:#1f77b4;"/>
   </g>
   <g id="matplotlib.axis_3">
    <g id="xtick_6">
     <g id="line2d_12">
      <g>
       <use style="stroke:#000000;stroke-width:0.8;" x="608.838843" xlink:href="#md5a5a39913" y="189"/>
      </g>
     </g>
     <g id="text_13">
      <!-- 0 -->
      <g transform="translate(605.657593 203.598437)scale(0.1 -0.1)">
       <use xlink:href="#DejaVuSans-48"/>
      </g>
     </g>
    </g>
    <g id="xtick_7">
     <g id="line2d_13">
      <g>
       <use style="stroke:#000000;stroke-width:0.8;" x="664.928163" xlink:href="#md5a5a39913" y="189"/>
      </g>
     </g>
     <g id="text_14">
      <!-- 2 -->
      <g transform="translate(661.746913 203.598437)scale(0.1 -0.1)">
       <use xlink:href="#DejaVuSans-50"/>
      </g>
     </g>
    </g>
    <g id="xtick_8">
     <g id="line2d_14">
      <g>
       <use style="stroke:#000000;stroke-width:0.8;" x="721.017482" xlink:href="#md5a5a39913" y="189"/>
      </g>
     </g>
     <g id="text_15">
      <!-- 4 -->
      <g transform="translate(717.836232 203.598437)scale(0.1 -0.1)">
       <use xlink:href="#DejaVuSans-52"/>
      </g>
     </g>
    </g>
    <g id="xtick_9">
     <g id="line2d_15">
      <g>
       <use style="stroke:#000000;stroke-width:0.8;" x="777.106802" xlink:href="#md5a5a39913" y="189"/>
      </g>
     </g>
     <g id="text_16">
      <!-- 6 -->
      <g transform="translate(773.925552 203.598437)scale(0.1 -0.1)">
       <use xlink:href="#DejaVuSans-54"/>
      </g>
     </g>
    </g>
    <g id="xtick_10">
     <g id="line2d_16">
      <g>
       <use style="stroke:#000000;stroke-width:0.8;" x="833.196121" xlink:href="#md5a5a39913" y="189"/>
      </g>
     </g>
     <g id="text_17">
      <!-- 8 -->
      <g transform="translate(830.014871 203.598437)scale(0.1 -0.1)">
       <use xlink:href="#DejaVuSans-56"/>
      </g>
     </g>
    </g>
    <g id="xtick_11">
     <g id="line2d_17">
      <g>
       <use style="stroke:#000000;stroke-width:0.8;" x="889.285441" xlink:href="#md5a5a39913" y="189"/>
      </g>
     </g>
     <g id="text_18">
      <!-- 10 -->
      <g transform="translate(882.922941 203.598437)scale(0.1 -0.1)">
       <use xlink:href="#DejaVuSans-49"/>
       <use x="63.623047" xlink:href="#DejaVuSans-48"/>
      </g>
     </g>
    </g>
    <g id="xtick_12">
     <g id="line2d_18">
      <g>
       <use style="stroke:#000000;stroke-width:0.8;" x="945.374761" xlink:href="#md5a5a39913" y="189"/>
      </g>
     </g>
     <g id="text_19">
      <!-- 12 -->
      <g transform="translate(939.012261 203.598437)scale(0.1 -0.1)">
       <use xlink:href="#DejaVuSans-49"/>
       <use x="63.623047" xlink:href="#DejaVuSans-50"/>
      </g>
     </g>
    </g>
   </g>
   <g id="matplotlib.axis_4">
    <g id="ytick_7">
     <g id="line2d_19">
      <g>
       <use style="stroke:#000000;stroke-width:0.8;" x="591.545455" xlink:href="#m48e5153709" y="189"/>
      </g>
     </g>
     <g id="text_20">
      <!-- 0.0 -->
      <g transform="translate(568.64233 192.799219)scale(0.1 -0.1)">
       <use xlink:href="#DejaVuSans-48"/>
       <use x="63.623047" xlink:href="#DejaVuSans-46"/>
       <use x="95.410156" xlink:href="#DejaVuSans-48"/>
      </g>
     </g>
    </g>
    <g id="ytick_8">
     <g id="line2d_20">
      <g>
       <use style="stroke:#000000;stroke-width:0.8;" x="591.545455" xlink:href="#m48e5153709" y="155.805043"/>
      </g>
     </g>
     <g id="text_21">
      <!-- 0.2 -->
      <g transform="translate(568.64233 159.604262)scale(0.1 -0.1)">
       <use xlink:href="#DejaVuSans-48"/>
       <use x="63.623047" xlink:href="#DejaVuSans-46"/>
       <use x="95.410156" xlink:href="#DejaVuSans-50"/>
      </g>
     </g>
    </g>
    <g id="ytick_9">
     <g id="line2d_21">
      <g>
       <use style="stroke:#000000;stroke-width:0.8;" x="591.545455" xlink:href="#m48e5153709" y="122.610087"/>
      </g>
     </g>
     <g id="text_22">
      <!-- 0.4 -->
      <g transform="translate(568.64233 126.409306)scale(0.1 -0.1)">
       <use xlink:href="#DejaVuSans-48"/>
       <use x="63.623047" xlink:href="#DejaVuSans-46"/>
       <use x="95.410156" xlink:href="#DejaVuSans-52"/>
      </g>
     </g>
    </g>
    <g id="ytick_10">
     <g id="line2d_22">
      <g>
       <use style="stroke:#000000;stroke-width:0.8;" x="591.545455" xlink:href="#m48e5153709" y="89.41513"/>
      </g>
     </g>
     <g id="text_23">
      <!-- 0.6 -->
      <g transform="translate(568.64233 93.214349)scale(0.1 -0.1)">
       <use xlink:href="#DejaVuSans-48"/>
       <use x="63.623047" xlink:href="#DejaVuSans-46"/>
       <use x="95.410156" xlink:href="#DejaVuSans-54"/>
      </g>
     </g>
    </g>
    <g id="ytick_11">
     <g id="line2d_23">
      <g>
       <use style="stroke:#000000;stroke-width:0.8;" x="591.545455" xlink:href="#m48e5153709" y="56.220174"/>
      </g>
     </g>
     <g id="text_24">
      <!-- 0.8 -->
      <g transform="translate(568.64233 60.019393)scale(0.1 -0.1)">
       <use xlink:href="#DejaVuSans-48"/>
       <use x="63.623047" xlink:href="#DejaVuSans-46"/>
       <use x="95.410156" xlink:href="#DejaVuSans-56"/>
      </g>
     </g>
    </g>
   </g>
   <g id="patch_208">
    <path d="M 591.545455 189 
L 591.545455 25.92 
" style="fill:none;stroke:#000000;stroke-linecap:square;stroke-linejoin:miter;stroke-width:0.8;"/>
   </g>
   <g id="patch_209">
    <path d="M 972 189 
L 972 25.92 
" style="fill:none;stroke:#000000;stroke-linecap:square;stroke-linejoin:miter;stroke-width:0.8;"/>
   </g>
   <g id="patch_210">
    <path d="M 591.545455 189 
L 972 189 
" style="fill:none;stroke:#000000;stroke-linecap:square;stroke-linejoin:miter;stroke-width:0.8;"/>
   </g>
   <g id="patch_211">
    <path d="M 591.545455 25.92 
L 972 25.92 
" style="fill:none;stroke:#000000;stroke-linecap:square;stroke-linejoin:miter;stroke-width:0.8;"/>
   </g>
   <g id="text_25">
    <!-- Histogram of normalized spacing for random diagonal matrices -->
    <g transform="translate(591.563352 19.92)scale(0.12 -0.12)">
     <use xlink:href="#DejaVuSans-72"/>
     <use x="75.195312" xlink:href="#DejaVuSans-105"/>
     <use x="102.978516" xlink:href="#DejaVuSans-115"/>
     <use x="155.078125" xlink:href="#DejaVuSans-116"/>
     <use x="194.287109" xlink:href="#DejaVuSans-111"/>
     <use x="255.46875" xlink:href="#DejaVuSans-103"/>
     <use x="318.945312" xlink:href="#DejaVuSans-114"/>
     <use x="360.058594" xlink:href="#DejaVuSans-97"/>
     <use x="421.337891" xlink:href="#DejaVuSans-109"/>
     <use x="518.75" xlink:href="#DejaVuSans-32"/>
     <use x="550.537109" xlink:href="#DejaVuSans-111"/>
     <use x="611.71875" xlink:href="#DejaVuSans-102"/>
     <use x="646.923828" xlink:href="#DejaVuSans-32"/>
     <use x="678.710938" xlink:href="#DejaVuSans-110"/>
     <use x="742.089844" xlink:href="#DejaVuSans-111"/>
     <use x="803.271484" xlink:href="#DejaVuSans-114"/>
     <use x="842.634766" xlink:href="#DejaVuSans-109"/>
     <use x="940.046875" xlink:href="#DejaVuSans-97"/>
     <use x="1001.326172" xlink:href="#DejaVuSans-108"/>
     <use x="1029.109375" xlink:href="#DejaVuSans-105"/>
     <use x="1056.892578" xlink:href="#DejaVuSans-122"/>
     <use x="1109.382812" xlink:href="#DejaVuSans-101"/>
     <use x="1170.90625" xlink:href="#DejaVuSans-100"/>
     <use x="1234.382812" xlink:href="#DejaVuSans-32"/>
     <use x="1266.169922" xlink:href="#DejaVuSans-115"/>
     <use x="1318.269531" xlink:href="#DejaVuSans-112"/>
     <use x="1381.746094" xlink:href="#DejaVuSans-97"/>
     <use x="1443.025391" xlink:href="#DejaVuSans-99"/>
     <use x="1498.005859" xlink:href="#DejaVuSans-105"/>
     <use x="1525.789062" xlink:href="#DejaVuSans-110"/>
     <use x="1589.167969" xlink:href="#DejaVuSans-103"/>
     <use x="1652.644531" xlink:href="#DejaVuSans-32"/>
     <use x="1684.431641" xlink:href="#DejaVuSans-102"/>
     <use x="1719.636719" xlink:href="#DejaVuSans-111"/>
     <use x="1780.818359" xlink:href="#DejaVuSans-114"/>
     <use x="1821.931641" xlink:href="#DejaVuSans-32"/>
     <use x="1853.71875" xlink:href="#DejaVuSans-114"/>
     <use x="1894.832031" xlink:href="#DejaVuSans-97"/>
     <use x="1956.111328" xlink:href="#DejaVuSans-110"/>
     <use x="2019.490234" xlink:href="#DejaVuSans-100"/>
     <use x="2082.966797" xlink:href="#DejaVuSans-111"/>
     <use x="2144.148438" xlink:href="#DejaVuSans-109"/>
     <use x="2241.560547" xlink:href="#DejaVuSans-32"/>
     <use x="2273.347656" xlink:href="#DejaVuSans-100"/>
     <use x="2336.824219" xlink:href="#DejaVuSans-105"/>
     <use x="2364.607422" xlink:href="#DejaVuSans-97"/>
     <use x="2425.886719" xlink:href="#DejaVuSans-103"/>
     <use x="2489.363281" xlink:href="#DejaVuSans-111"/>
     <use x="2550.544922" xlink:href="#DejaVuSans-110"/>
     <use x="2613.923828" xlink:href="#DejaVuSans-97"/>
     <use x="2675.203125" xlink:href="#DejaVuSans-108"/>
     <use x="2702.986328" xlink:href="#DejaVuSans-32"/>
     <use x="2734.773438" xlink:href="#DejaVuSans-109"/>
     <use x="2832.185547" xlink:href="#DejaVuSans-97"/>
     <use x="2893.464844" xlink:href="#DejaVuSans-116"/>
     <use x="2932.673828" xlink:href="#DejaVuSans-114"/>
     <use x="2973.787109" xlink:href="#DejaVuSans-105"/>
     <use x="3001.570312" xlink:href="#DejaVuSans-99"/>
     <use x="3056.550781" xlink:href="#DejaVuSans-101"/>
     <use x="3118.074219" xlink:href="#DejaVuSans-115"/>
    </g>
   </g>
  </g>
 </g>
 <defs>
  <clipPath id="p00fa626d89">
   <rect height="163.08" width="380.454545" x="135" y="25.92"/>
  </clipPath>
  <clipPath id="p53f1f1f2b0">
   <rect height="163.08" width="380.454545" x="591.545455" y="25.92"/>
  </clipPath>
 </defs>
</svg>
