<?xml version="1.0" encoding="utf-8" standalone="no"?>
<!DOCTYPE svg PUBLIC "-//W3C//DTD SVG 1.1//EN"
  "http://www.w3.org/Graphics/SVG/1.1/DTD/svg11.dtd">
<!-- Created with matplotlib (https://matplotlib.org/) -->
<svg height="288pt" version="1.1" viewBox="0 0 432 288" width="432pt" xmlns="http://www.w3.org/2000/svg" xmlns:xlink="http://www.w3.org/1999/xlink">
 <metadata>
  <rdf:RDF xmlns:cc="http://creativecommons.org/ns#" xmlns:dc="http://purl.org/dc/elements/1.1/" xmlns:rdf="http://www.w3.org/1999/02/22-rdf-syntax-ns#">
   <cc:Work>
    <dc:type rdf:resource="http://purl.org/dc/dcmitype/StillImage"/>
    <dc:date>2021-11-23T18:23:11.135288</dc:date>
    <dc:format>image/svg+xml</dc:format>
    <dc:creator>
     <cc:Agent>
      <dc:title>Matplotlib v3.3.4, https://matplotlib.org/</dc:title>
     </cc:Agent>
    </dc:creator>
   </cc:Work>
  </rdf:RDF>
 </metadata>
 <defs>
  <style type="text/css">*{stroke-linecap:butt;stroke-linejoin:round;}</style>
 </defs>
 <g id="figure_1">
  <g id="patch_1">
   <path d="M 0 288 
L 432 288 
L 432 0 
L 0 0 
z
" style="fill:none;"/>
  </g>
  <g id="axes_1">
   <g id="patch_2">
    <path d="M 54 252 
L 388.8 252 
L 388.8 34.56 
L 54 34.56 
z
" style="fill:#ffffff;"/>
   </g>
   <g id="matplotlib.axis_1">
    <g id="xtick_1">
     <g id="line2d_1">
      <defs>
       <path d="M 0 0 
L 0 3.5 
" id="mda2f0c5d75" style="stroke:#000000;stroke-width:0.8;"/>
      </defs>
      <g>
       <use style="stroke:#000000;stroke-width:0.8;" x="54" xlink:href="#mda2f0c5d75" y="252"/>
      </g>
     </g>
     <g id="text_1">
      <!-- −10.0 -->
      <g transform="translate(38.677344 266.598437)scale(0.1 -0.1)">
       <defs>
        <path d="M 10.59375 35.5 
L 73.1875 35.5 
L 73.1875 27.203125 
L 10.59375 27.203125 
z
" id="DejaVuSans-8722"/>
        <path d="M 12.40625 8.296875 
L 28.515625 8.296875 
L 28.515625 63.921875 
L 10.984375 60.40625 
L 10.984375 69.390625 
L 28.421875 72.90625 
L 38.28125 72.90625 
L 38.28125 8.296875 
L 54.390625 8.296875 
L 54.390625 0 
L 12.40625 0 
z
" id="DejaVuSans-49"/>
        <path d="M 31.78125 66.40625 
Q 24.171875 66.40625 20.328125 58.90625 
Q 16.5 51.421875 16.5 36.375 
Q 16.5 21.390625 20.328125 13.890625 
Q 24.171875 6.390625 31.78125 6.390625 
Q 39.453125 6.390625 43.28125 13.890625 
Q 47.125 21.390625 47.125 36.375 
Q 47.125 51.421875 43.28125 58.90625 
Q 39.453125 66.40625 31.78125 66.40625 
z
M 31.78125 74.21875 
Q 44.046875 74.21875 50.515625 64.515625 
Q 56.984375 54.828125 56.984375 36.375 
Q 56.984375 17.96875 50.515625 8.265625 
Q 44.046875 -1.421875 31.78125 -1.421875 
Q 19.53125 -1.421875 13.0625 8.265625 
Q 6.59375 17.96875 6.59375 36.375 
Q 6.59375 54.828125 13.0625 64.515625 
Q 19.53125 74.21875 31.78125 74.21875 
z
" id="DejaVuSans-48"/>
        <path d="M 10.6875 12.40625 
L 21 12.40625 
L 21 0 
L 10.6875 0 
z
" id="DejaVuSans-46"/>
       </defs>
       <use xlink:href="#DejaVuSans-8722"/>
       <use x="83.789062" xlink:href="#DejaVuSans-49"/>
       <use x="147.412109" xlink:href="#DejaVuSans-48"/>
       <use x="211.035156" xlink:href="#DejaVuSans-46"/>
       <use x="242.822266" xlink:href="#DejaVuSans-48"/>
      </g>
     </g>
    </g>
    <g id="xtick_2">
     <g id="line2d_2">
      <g>
       <use style="stroke:#000000;stroke-width:0.8;" x="95.85" xlink:href="#mda2f0c5d75" y="252"/>
      </g>
     </g>
     <g id="text_2">
      <!-- −7.5 -->
      <g transform="translate(83.708594 266.598437)scale(0.1 -0.1)">
       <defs>
        <path d="M 8.203125 72.90625 
L 55.078125 72.90625 
L 55.078125 68.703125 
L 28.609375 0 
L 18.3125 0 
L 43.21875 64.59375 
L 8.203125 64.59375 
z
" id="DejaVuSans-55"/>
        <path d="M 10.796875 72.90625 
L 49.515625 72.90625 
L 49.515625 64.59375 
L 19.828125 64.59375 
L 19.828125 46.734375 
Q 21.96875 47.46875 24.109375 47.828125 
Q 26.265625 48.1875 28.421875 48.1875 
Q 40.625 48.1875 47.75 41.5 
Q 54.890625 34.8125 54.890625 23.390625 
Q 54.890625 11.625 47.5625 5.09375 
Q 40.234375 -1.421875 26.90625 -1.421875 
Q 22.3125 -1.421875 17.546875 -0.640625 
Q 12.796875 0.140625 7.71875 1.703125 
L 7.71875 11.625 
Q 12.109375 9.234375 16.796875 8.0625 
Q 21.484375 6.890625 26.703125 6.890625 
Q 35.15625 6.890625 40.078125 11.328125 
Q 45.015625 15.765625 45.015625 23.390625 
Q 45.015625 31 40.078125 35.4375 
Q 35.15625 39.890625 26.703125 39.890625 
Q 22.75 39.890625 18.8125 39.015625 
Q 14.890625 38.140625 10.796875 36.28125 
z
" id="DejaVuSans-53"/>
       </defs>
       <use xlink:href="#DejaVuSans-8722"/>
       <use x="83.789062" xlink:href="#DejaVuSans-55"/>
       <use x="147.412109" xlink:href="#DejaVuSans-46"/>
       <use x="179.199219" xlink:href="#DejaVuSans-53"/>
      </g>
     </g>
    </g>
    <g id="xtick_3">
     <g id="line2d_3">
      <g>
       <use style="stroke:#000000;stroke-width:0.8;" x="137.7" xlink:href="#mda2f0c5d75" y="252"/>
      </g>
     </g>
     <g id="text_3">
      <!-- −5.0 -->
      <g transform="translate(125.558594 266.598437)scale(0.1 -0.1)">
       <use xlink:href="#DejaVuSans-8722"/>
       <use x="83.789062" xlink:href="#DejaVuSans-53"/>
       <use x="147.412109" xlink:href="#DejaVuSans-46"/>
       <use x="179.199219" xlink:href="#DejaVuSans-48"/>
      </g>
     </g>
    </g>
    <g id="xtick_4">
     <g id="line2d_4">
      <g>
       <use style="stroke:#000000;stroke-width:0.8;" x="179.55" xlink:href="#mda2f0c5d75" y="252"/>
      </g>
     </g>
     <g id="text_4">
      <!-- −2.5 -->
      <g transform="translate(167.408594 266.598437)scale(0.1 -0.1)">
       <defs>
        <path d="M 19.1875 8.296875 
L 53.609375 8.296875 
L 53.609375 0 
L 7.328125 0 
L 7.328125 8.296875 
Q 12.9375 14.109375 22.625 23.890625 
Q 32.328125 33.6875 34.8125 36.53125 
Q 39.546875 41.84375 41.421875 45.53125 
Q 43.3125 49.21875 43.3125 52.78125 
Q 43.3125 58.59375 39.234375 62.25 
Q 35.15625 65.921875 28.609375 65.921875 
Q 23.96875 65.921875 18.8125 64.3125 
Q 13.671875 62.703125 7.8125 59.421875 
L 7.8125 69.390625 
Q 13.765625 71.78125 18.9375 73 
Q 24.125 74.21875 28.421875 74.21875 
Q 39.75 74.21875 46.484375 68.546875 
Q 53.21875 62.890625 53.21875 53.421875 
Q 53.21875 48.921875 51.53125 44.890625 
Q 49.859375 40.875 45.40625 35.40625 
Q 44.1875 33.984375 37.640625 27.21875 
Q 31.109375 20.453125 19.1875 8.296875 
z
" id="DejaVuSans-50"/>
       </defs>
       <use xlink:href="#DejaVuSans-8722"/>
       <use x="83.789062" xlink:href="#DejaVuSans-50"/>
       <use x="147.412109" xlink:href="#DejaVuSans-46"/>
       <use x="179.199219" xlink:href="#DejaVuSans-53"/>
      </g>
     </g>
    </g>
    <g id="xtick_5">
     <g id="line2d_5">
      <g>
       <use style="stroke:#000000;stroke-width:0.8;" x="221.4" xlink:href="#mda2f0c5d75" y="252"/>
      </g>
     </g>
     <g id="text_5">
      <!-- 0.0 -->
      <g transform="translate(213.448438 266.598437)scale(0.1 -0.1)">
       <use xlink:href="#DejaVuSans-48"/>
       <use x="63.623047" xlink:href="#DejaVuSans-46"/>
       <use x="95.410156" xlink:href="#DejaVuSans-48"/>
      </g>
     </g>
    </g>
    <g id="xtick_6">
     <g id="line2d_6">
      <g>
       <use style="stroke:#000000;stroke-width:0.8;" x="263.25" xlink:href="#mda2f0c5d75" y="252"/>
      </g>
     </g>
     <g id="text_6">
      <!-- 2.5 -->
      <g transform="translate(255.298438 266.598437)scale(0.1 -0.1)">
       <use xlink:href="#DejaVuSans-50"/>
       <use x="63.623047" xlink:href="#DejaVuSans-46"/>
       <use x="95.410156" xlink:href="#DejaVuSans-53"/>
      </g>
     </g>
    </g>
    <g id="xtick_7">
     <g id="line2d_7">
      <g>
       <use style="stroke:#000000;stroke-width:0.8;" x="305.1" xlink:href="#mda2f0c5d75" y="252"/>
      </g>
     </g>
     <g id="text_7">
      <!-- 5.0 -->
      <g transform="translate(297.148438 266.598437)scale(0.1 -0.1)">
       <use xlink:href="#DejaVuSans-53"/>
       <use x="63.623047" xlink:href="#DejaVuSans-46"/>
       <use x="95.410156" xlink:href="#DejaVuSans-48"/>
      </g>
     </g>
    </g>
    <g id="xtick_8">
     <g id="line2d_8">
      <g>
       <use style="stroke:#000000;stroke-width:0.8;" x="346.95" xlink:href="#mda2f0c5d75" y="252"/>
      </g>
     </g>
     <g id="text_8">
      <!-- 7.5 -->
      <g transform="translate(338.998438 266.598437)scale(0.1 -0.1)">
       <use xlink:href="#DejaVuSans-55"/>
       <use x="63.623047" xlink:href="#DejaVuSans-46"/>
       <use x="95.410156" xlink:href="#DejaVuSans-53"/>
      </g>
     </g>
    </g>
    <g id="xtick_9">
     <g id="line2d_9">
      <g>
       <use style="stroke:#000000;stroke-width:0.8;" x="388.8" xlink:href="#mda2f0c5d75" y="252"/>
      </g>
     </g>
     <g id="text_9">
      <!-- 10.0 -->
      <g transform="translate(377.667188 266.598437)scale(0.1 -0.1)">
       <use xlink:href="#DejaVuSans-49"/>
       <use x="63.623047" xlink:href="#DejaVuSans-48"/>
       <use x="127.246094" xlink:href="#DejaVuSans-46"/>
       <use x="159.033203" xlink:href="#DejaVuSans-48"/>
      </g>
     </g>
    </g>
    <g id="text_10">
     <!-- x -->
     <g transform="translate(218.440625 280.276563)scale(0.1 -0.1)">
      <defs>
       <path d="M 54.890625 54.6875 
L 35.109375 28.078125 
L 55.90625 0 
L 45.3125 0 
L 29.390625 21.484375 
L 13.484375 0 
L 2.875 0 
L 24.125 28.609375 
L 4.6875 54.6875 
L 15.28125 54.6875 
L 29.78125 35.203125 
L 44.28125 54.6875 
z
" id="DejaVuSans-120"/>
      </defs>
      <use xlink:href="#DejaVuSans-120"/>
     </g>
    </g>
   </g>
   <g id="matplotlib.axis_2">
    <g id="ytick_1">
     <g id="line2d_10">
      <defs>
       <path d="M 0 0 
L -3.5 0 
" id="m4e74394ffb" style="stroke:#000000;stroke-width:0.8;"/>
      </defs>
      <g>
       <use style="stroke:#000000;stroke-width:0.8;" x="54" xlink:href="#m4e74394ffb" y="247.3334"/>
      </g>
     </g>
     <g id="text_11">
      <!-- −1.5 -->
      <g transform="translate(22.717187 251.132619)scale(0.1 -0.1)">
       <use xlink:href="#DejaVuSans-8722"/>
       <use x="83.789062" xlink:href="#DejaVuSans-49"/>
       <use x="147.412109" xlink:href="#DejaVuSans-46"/>
       <use x="179.199219" xlink:href="#DejaVuSans-53"/>
      </g>
     </g>
    </g>
    <g id="ytick_2">
     <g id="line2d_11">
      <g>
       <use style="stroke:#000000;stroke-width:0.8;" x="54" xlink:href="#m4e74394ffb" y="212.648933"/>
      </g>
     </g>
     <g id="text_12">
      <!-- −1.0 -->
      <g transform="translate(22.717187 216.448152)scale(0.1 -0.1)">
       <use xlink:href="#DejaVuSans-8722"/>
       <use x="83.789062" xlink:href="#DejaVuSans-49"/>
       <use x="147.412109" xlink:href="#DejaVuSans-46"/>
       <use x="179.199219" xlink:href="#DejaVuSans-48"/>
      </g>
     </g>
    </g>
    <g id="ytick_3">
     <g id="line2d_12">
      <g>
       <use style="stroke:#000000;stroke-width:0.8;" x="54" xlink:href="#m4e74394ffb" y="177.964467"/>
      </g>
     </g>
     <g id="text_13">
      <!-- −0.5 -->
      <g transform="translate(22.717187 181.763685)scale(0.1 -0.1)">
       <use xlink:href="#DejaVuSans-8722"/>
       <use x="83.789062" xlink:href="#DejaVuSans-48"/>
       <use x="147.412109" xlink:href="#DejaVuSans-46"/>
       <use x="179.199219" xlink:href="#DejaVuSans-53"/>
      </g>
     </g>
    </g>
    <g id="ytick_4">
     <g id="line2d_13">
      <g>
       <use style="stroke:#000000;stroke-width:0.8;" x="54" xlink:href="#m4e74394ffb" y="143.28"/>
      </g>
     </g>
     <g id="text_14">
      <!-- 0.0 -->
      <g transform="translate(31.096875 147.079219)scale(0.1 -0.1)">
       <use xlink:href="#DejaVuSans-48"/>
       <use x="63.623047" xlink:href="#DejaVuSans-46"/>
       <use x="95.410156" xlink:href="#DejaVuSans-48"/>
      </g>
     </g>
    </g>
    <g id="ytick_5">
     <g id="line2d_14">
      <g>
       <use style="stroke:#000000;stroke-width:0.8;" x="54" xlink:href="#m4e74394ffb" y="108.595533"/>
      </g>
     </g>
     <g id="text_15">
      <!-- 0.5 -->
      <g transform="translate(31.096875 112.394752)scale(0.1 -0.1)">
       <use xlink:href="#DejaVuSans-48"/>
       <use x="63.623047" xlink:href="#DejaVuSans-46"/>
       <use x="95.410156" xlink:href="#DejaVuSans-53"/>
      </g>
     </g>
    </g>
    <g id="ytick_6">
     <g id="line2d_15">
      <g>
       <use style="stroke:#000000;stroke-width:0.8;" x="54" xlink:href="#m4e74394ffb" y="73.911067"/>
      </g>
     </g>
     <g id="text_16">
      <!-- 1.0 -->
      <g transform="translate(31.096875 77.710286)scale(0.1 -0.1)">
       <use xlink:href="#DejaVuSans-49"/>
       <use x="63.623047" xlink:href="#DejaVuSans-46"/>
       <use x="95.410156" xlink:href="#DejaVuSans-48"/>
      </g>
     </g>
    </g>
    <g id="ytick_7">
     <g id="line2d_16">
      <g>
       <use style="stroke:#000000;stroke-width:0.8;" x="54" xlink:href="#m4e74394ffb" y="39.2266"/>
      </g>
     </g>
     <g id="text_17">
      <!-- 1.5 -->
      <g transform="translate(31.096875 43.025819)scale(0.1 -0.1)">
       <use xlink:href="#DejaVuSans-49"/>
       <use x="63.623047" xlink:href="#DejaVuSans-46"/>
       <use x="95.410156" xlink:href="#DejaVuSans-53"/>
      </g>
     </g>
    </g>
    <g id="text_18">
     <!-- 1e−1 -->
     <g transform="translate(54 31.56)scale(0.1 -0.1)">
      <defs>
       <path d="M 56.203125 29.59375 
L 56.203125 25.203125 
L 14.890625 25.203125 
Q 15.484375 15.921875 20.484375 11.0625 
Q 25.484375 6.203125 34.421875 6.203125 
Q 39.59375 6.203125 44.453125 7.46875 
Q 49.3125 8.734375 54.109375 11.28125 
L 54.109375 2.78125 
Q 49.265625 0.734375 44.1875 -0.34375 
Q 39.109375 -1.421875 33.890625 -1.421875 
Q 20.796875 -1.421875 13.15625 6.1875 
Q 5.515625 13.8125 5.515625 26.8125 
Q 5.515625 40.234375 12.765625 48.109375 
Q 20.015625 56 32.328125 56 
Q 43.359375 56 49.78125 48.890625 
Q 56.203125 41.796875 56.203125 29.59375 
z
M 47.21875 32.234375 
Q 47.125 39.59375 43.09375 43.984375 
Q 39.0625 48.390625 32.421875 48.390625 
Q 24.90625 48.390625 20.390625 44.140625 
Q 15.875 39.890625 15.1875 32.171875 
z
" id="DejaVuSans-101"/>
      </defs>
      <use xlink:href="#DejaVuSans-49"/>
      <use x="63.623047" xlink:href="#DejaVuSans-101"/>
      <use x="125.146484" xlink:href="#DejaVuSans-8722"/>
      <use x="208.935547" xlink:href="#DejaVuSans-49"/>
     </g>
    </g>
   </g>
   <g id="line2d_17">
    <path clip-path="url(#pbbaa78d7b7)" d="M -1 143.281989 
L 8.802 143.373033 
L 12.15 143.582128 
L 13.824 143.808161 
L 15.498 144.184026 
L 17.172 144.794023 
L 18.846 145.75904 
L 20.52 147.245121 
L 22.194 149.469064 
L 23.868 152.696797 
L 25.542 157.228642 
L 27.216 163.364414 
L 28.89 171.341684 
L 30.564 181.243647 
L 32.238 192.880087 
L 35.586 218.463812 
L 37.26 229.630994 
L 38.934 237.006325 
L 40.608 238.21333 
L 42.282 231.112536 
L 43.956 214.436927 
L 45.63 188.488722 
L 50.652 90.176137 
L 52.326 70.927904 
L 54 68.596457 
L 55.674 85.228064 
L 57.348 117.754986 
L 59.022 157.773806 
L 60.696 193.255889 
L 62.37 212.130382 
L 64.044 206.81002 
L 65.718 177.963715 
L 67.392 135.625023 
L 69.066 96.405825 
L 70.74 77.146218 
L 72.414 87.244195 
L 74.088 123.220189 
L 75.762 168.815103 
L 77.436 201.718764 
L 79.11 204.566675 
L 80.784 174.846108 
L 82.458 127.817461 
L 84.132 89.525338 
L 85.806 82.492189 
L 87.48 111.798718 
L 89.154 160.431986 
L 90.828 198.262727 
L 92.502 200.601451 
L 94.176 165.05001 
L 95.85 114.77525 
L 97.524 84.209018 
L 99.198 95.365338 
L 102.546 188.398513 
L 104.22 201.897912 
L 105.894 170.61838 
L 107.568 118.074722 
L 109.242 85.481349 
L 110.916 99.416579 
L 112.59 149.245778 
L 114.264 194.114957 
L 115.938 196.063564 
L 117.612 152.776012 
L 119.286 101.231564 
L 120.96 86.765931 
L 122.634 122.818907 
L 124.308 177.405788 
L 125.982 200.681841 
L 127.656 170.630894 
L 129.33 114.861571 
L 131.004 86.129884 
L 132.678 112.394442 
L 134.352 168.711022 
L 136.026 200.015886 
L 137.7 174.935948 
L 139.374 118.076221 
L 141.048 86.768391 
L 142.722 113.300879 
L 144.396 170.802158 
L 146.07 199.61676 
L 147.744 169.198213 
L 149.418 111.298272 
L 151.092 87.587188 
L 152.766 123.885773 
L 154.44 181.242845 
L 156.114 197.071902 
L 157.788 153.632387 
L 159.462 98.706772 
L 161.136 93.56999 
L 164.484 193.895746 
L 166.158 185.852208 
L 167.832 129.062977 
L 169.506 88.644819 
L 171.18 111.483933 
L 172.854 171.330873 
L 174.528 198.363564 
L 176.202 160.644858 
L 177.876 102.418047 
L 179.55 92.66626 
L 182.898 193.842541 
L 184.572 183.742562 
L 186.246 124.864475 
L 187.92 88.265712 
L 189.594 118.449457 
L 191.268 178.872138 
L 192.942 195.818589 
L 194.616 148.404634 
L 196.29 94.696029 
L 197.964 100.814313 
L 199.638 159.348511 
L 201.312 198.005767 
L 202.986 168.829776 
L 204.66 107.925766 
L 206.334 90.999315 
L 208.008 139.204774 
L 209.682 192.494126 
L 211.356 184.314444 
L 213.03 124.828901 
L 214.704 88.433286 
L 216.378 120.722872 
L 218.052 181.276812 
L 219.726 194.201287 
L 223.074 92.358739 
L 224.748 105.283138 
L 226.422 165.837065 
L 228.096 198.126717 
L 229.77 161.731165 
L 231.444 102.245603 
L 233.118 94.065843 
L 234.792 147.355157 
L 236.466 195.560663 
L 238.14 178.634287 
L 239.814 117.730286 
L 241.488 88.554227 
L 243.162 127.211423 
L 244.836 185.745642 
L 246.51 191.864004 
L 248.184 138.155436 
L 249.858 90.741432 
L 251.532 107.687809 
L 253.206 168.11048 
L 254.88 198.294293 
L 256.554 161.695591 
L 258.228 102.817486 
L 259.902 92.717431 
L 263.25 193.893712 
L 264.924 184.142001 
L 266.598 125.915209 
L 268.272 88.196443 
L 269.946 115.229066 
L 271.62 175.076009 
L 273.294 197.915193 
L 274.968 157.497091 
L 276.642 100.707838 
L 278.316 92.664224 
L 281.664 192.989978 
L 283.338 187.85327 
L 285.012 132.927682 
L 286.686 89.488117 
L 288.36 105.317103 
L 290.034 162.67416 
L 291.708 198.972804 
L 293.382 175.261787 
L 295.056 117.361851 
L 296.73 86.943241 
L 298.404 115.75778 
L 300.078 173.25906 
L 301.752 199.791613 
L 303.426 168.483844 
L 305.1 111.624112 
L 306.774 86.544109 
L 308.448 117.848913 
L 310.122 174.165497 
L 311.796 200.430118 
L 313.47 171.698493 
L 315.144 115.92917 
L 316.818 85.878163 
L 318.492 109.154153 
L 320.166 163.741024 
L 321.84 199.794052 
L 323.514 185.328487 
L 325.188 133.784061 
L 326.862 90.496468 
L 328.536 92.445007 
L 330.21 137.314148 
L 331.884 187.143371 
L 333.558 201.078667 
L 335.232 168.485346 
L 336.906 115.941688 
L 338.58 84.662102 
L 340.254 98.161437 
L 343.602 191.194633 
L 345.276 202.351007 
L 346.95 171.78483 
L 348.624 121.510069 
L 350.298 85.95858 
L 351.972 88.297237 
L 353.646 126.127933 
L 355.32 174.761202 
L 356.994 204.067781 
L 358.668 197.034682 
L 360.342 158.742597 
L 362.016 111.713956 
L 363.69 81.993349 
L 365.364 84.841208 
L 367.038 117.744867 
L 368.712 163.339794 
L 370.386 199.315809 
L 372.06 209.413822 
L 373.734 190.154234 
L 375.408 150.935015 
L 377.082 108.596286 
L 378.756 79.749944 
L 380.43 74.42952 
L 382.104 93.303985 
L 383.778 128.786097 
L 385.452 168.804972 
L 387.126 201.331953 
L 388.8 217.963633 
L 390.474 215.632236 
L 392.148 196.383998 
L 393.822 165.797419 
L 397.17 98.071281 
L 398.844 72.123009 
L 400.518 55.447363 
L 402.192 48.346516 
L 403.866 49.55351 
L 405.54 56.928813 
L 407.214 68.095976 
L 410.562 93.679762 
L 412.236 105.316244 
L 413.91 115.218233 
L 415.584 123.195523 
L 417.258 129.331315 
L 418.932 133.863176 
L 420.606 137.090921 
L 422.28 139.314869 
L 423.954 140.800953 
L 425.628 141.765973 
L 427.302 142.375972 
L 428.976 142.751838 
L 432.324 143.110671 
L 433 143.141481 
L 433 143.141481 
" style="fill:none;stroke:#1f77b4;stroke-linecap:square;stroke-width:1.5;"/>
   </g>
   <g id="line2d_18">
    <path clip-path="url(#pbbaa78d7b7)" d="M -1 143.289966 
L 5.454 143.398648 
L 8.802 143.667028 
L 10.476 143.956751 
L 12.15 144.437144 
L 13.824 145.213348 
L 15.498 146.433939 
L 17.172 148.299139 
L 18.846 151.063877 
L 20.52 155.030212 
L 22.194 160.522028 
L 23.868 167.834368 
L 25.542 177.151579 
L 27.216 188.433887 
L 32.238 227.537889 
L 33.912 237.446111 
L 35.586 242.116364 
L 37.26 239.13479 
L 38.934 226.676645 
L 40.608 204.219951 
L 42.282 173.214184 
L 45.63 102.889794 
L 47.304 76.669596 
L 48.978 65.441175 
L 50.652 73.208587 
L 52.326 99.387224 
L 55.674 177.861038 
L 57.348 206.633769 
L 59.022 213.836219 
L 60.696 195.806202 
L 62.37 158.118875 
L 64.044 114.719433 
L 65.718 83.19218 
L 67.392 77.491514 
L 69.066 101.101168 
L 72.414 186.616464 
L 74.088 207.51537 
L 75.762 195.505348 
L 77.436 155.994709 
L 79.11 109.697909 
L 80.784 82.291792 
L 82.458 89.955577 
L 84.132 128.99205 
L 85.806 176.540811 
L 87.48 203.395174 
L 89.154 192.150364 
L 90.828 149.333226 
L 92.502 102.633982 
L 94.176 83.469751 
L 95.85 105.49696 
L 97.524 153.957719 
L 99.198 194.666133 
L 100.872 197.906341 
L 102.546 160.726302 
L 104.22 110.515148 
L 105.894 85.477349 
L 107.568 105.388932 
L 109.242 155.127424 
L 110.916 195.268955 
L 112.59 193.124856 
L 114.264 149.972682 
L 115.938 101.337631 
L 117.612 88.241975 
L 119.286 122.255664 
L 120.96 174.400436 
L 122.634 199.166513 
L 124.308 174.349303 
L 125.982 121.739499 
L 127.656 88.750474 
L 129.33 105.745817 
L 131.004 157.418589 
L 132.678 195.786886 
L 134.352 184.572993 
L 136.026 134.081466 
L 137.7 92.515782 
L 139.374 100.201628 
L 141.048 149.960409 
L 142.722 193.052803 
L 144.396 186.65175 
L 146.07 136.86231 
L 147.744 93.623694 
L 149.418 100.880115 
L 151.092 151.486957 
L 152.766 193.566423 
L 154.44 183.461078 
L 156.114 131.454914 
L 157.788 91.9343 
L 159.462 106.686632 
L 161.136 160.284523 
L 162.81 195.650717 
L 164.484 174.733847 
L 166.158 119.889236 
L 167.832 90.487687 
L 169.506 118.675401 
L 171.18 173.781663 
L 172.854 195.26711 
L 174.528 159.280179 
L 176.202 105.574614 
L 177.876 93.931328 
L 179.55 137.492535 
L 181.224 187.510823 
L 182.898 187.658309 
L 184.572 137.644067 
L 186.246 94.060862 
L 187.92 106.493882 
L 189.594 160.880686 
L 191.268 195.096837 
L 192.942 169.864267 
L 194.616 114.084214 
L 196.29 91.97998 
L 197.964 129.130534 
L 199.638 182.635301 
L 201.312 190.48846 
L 204.66 96.284941 
L 206.334 103.819527 
L 208.008 157.379887 
L 209.682 194.45849 
L 211.356 171.698357 
L 213.03 115.691281 
L 214.704 92.000413 
L 216.378 128.398415 
L 218.052 182.238095 
L 219.726 190.386921 
L 223.074 96.173079 
L 224.748 104.321905 
L 226.422 158.161585 
L 228.096 194.559587 
L 229.77 170.868719 
L 231.444 114.861643 
L 233.118 92.10151 
L 234.792 129.180113 
L 236.466 182.740473 
L 238.14 190.275059 
L 241.488 96.07154 
L 243.162 103.924699 
L 244.836 157.429466 
L 246.51 194.58002 
L 248.184 172.475786 
L 249.858 116.695733 
L 251.532 91.463163 
L 253.206 125.679314 
L 254.88 180.066118 
L 256.554 192.499138 
L 258.228 148.915933 
L 259.902 98.901691 
L 261.576 99.049177 
L 263.25 149.067465 
L 264.924 192.628672 
L 266.598 180.985386 
L 268.272 127.279821 
L 269.946 91.29289 
L 271.62 112.778337 
L 273.294 167.884599 
L 274.968 196.072313 
L 276.642 166.670764 
L 278.316 111.826153 
L 279.99 90.909283 
L 281.664 126.275477 
L 283.338 179.873368 
L 285.012 194.6257 
L 286.686 155.105086 
L 288.36 103.098922 
L 290.034 92.993577 
L 291.708 135.073043 
L 293.382 185.679885 
L 295.056 192.936306 
L 296.73 149.69769 
L 298.404 99.90825 
L 300.078 93.507197 
L 301.752 136.599591 
L 303.426 186.358372 
L 305.1 194.044218 
L 306.774 152.478534 
L 308.448 101.987007 
L 310.122 90.773114 
L 311.796 129.141411 
L 313.47 180.814183 
L 315.144 197.809526 
L 316.818 164.820501 
L 318.492 112.210697 
L 320.166 87.393487 
L 321.84 112.159564 
L 323.514 164.304336 
L 325.188 198.318025 
L 326.862 185.222369 
L 328.536 136.587318 
L 330.21 93.435144 
L 331.884 91.291045 
L 333.558 131.432576 
L 335.232 181.171068 
L 336.906 201.082651 
L 338.58 176.044852 
L 340.254 125.833698 
L 341.928 88.653659 
L 343.602 91.893867 
L 345.276 132.602281 
L 346.95 181.06304 
L 348.624 203.090249 
L 350.298 183.926018 
L 351.972 137.226774 
L 353.646 94.409636 
L 355.32 83.164826 
L 356.994 110.019189 
L 358.668 157.56795 
L 360.342 196.604423 
L 362.016 204.268208 
L 363.69 176.862091 
L 365.364 130.565291 
L 367.038 91.054652 
L 368.712 79.04463 
L 370.386 99.943536 
L 373.734 185.458832 
L 375.408 209.068486 
L 377.082 203.36782 
L 378.756 171.840567 
L 380.43 128.441125 
L 382.104 90.753798 
L 383.778 72.723781 
L 385.452 79.926231 
L 387.126 108.698962 
L 390.474 187.172776 
L 392.148 213.351413 
L 393.822 221.118825 
L 395.496 209.890404 
L 397.17 183.670206 
L 400.518 113.345816 
L 402.192 82.340049 
L 403.866 59.883355 
L 405.54 47.42521 
L 407.214 44.443636 
L 408.888 49.113889 
L 410.562 59.022111 
L 413.91 85.277743 
L 415.584 98.126113 
L 417.258 109.408421 
L 418.932 118.725632 
L 420.606 126.037972 
L 422.28 131.529788 
L 423.954 135.496123 
L 425.628 138.260861 
L 427.302 140.126061 
L 428.976 141.346652 
L 430.65 142.122856 
L 433 142.720246 
L 433 142.720246 
" style="fill:none;stroke:#ff7f0e;stroke-linecap:square;stroke-width:1.5;"/>
   </g>
   <g id="patch_3">
    <path d="M 54 252 
L 54 34.56 
" style="fill:none;stroke:#000000;stroke-linecap:square;stroke-linejoin:miter;stroke-width:0.8;"/>
   </g>
   <g id="patch_4">
    <path d="M 388.8 252 
L 388.8 34.56 
" style="fill:none;stroke:#000000;stroke-linecap:square;stroke-linejoin:miter;stroke-width:0.8;"/>
   </g>
   <g id="patch_5">
    <path d="M 54 252 
L 388.8 252 
" style="fill:none;stroke:#000000;stroke-linecap:square;stroke-linejoin:miter;stroke-width:0.8;"/>
   </g>
   <g id="patch_6">
    <path d="M 54 34.56 
L 388.8 34.56 
" style="fill:none;stroke:#000000;stroke-linecap:square;stroke-linejoin:miter;stroke-width:0.8;"/>
   </g>
   <g id="text_19">
    <!-- N=500, L=50 -->
    <g transform="translate(180.61125 28.56)scale(0.12 -0.12)">
     <defs>
      <path d="M 9.8125 72.90625 
L 23.09375 72.90625 
L 55.421875 11.921875 
L 55.421875 72.90625 
L 64.984375 72.90625 
L 64.984375 0 
L 51.703125 0 
L 19.390625 60.984375 
L 19.390625 0 
L 9.8125 0 
z
" id="DejaVuSans-78"/>
      <path d="M 10.59375 45.40625 
L 73.1875 45.40625 
L 73.1875 37.203125 
L 10.59375 37.203125 
z
M 10.59375 25.484375 
L 73.1875 25.484375 
L 73.1875 17.1875 
L 10.59375 17.1875 
z
" id="DejaVuSans-61"/>
      <path d="M 11.71875 12.40625 
L 22.015625 12.40625 
L 22.015625 4 
L 14.015625 -11.625 
L 7.71875 -11.625 
L 11.71875 4 
z
" id="DejaVuSans-44"/>
      <path id="DejaVuSans-32"/>
      <path d="M 9.8125 72.90625 
L 19.671875 72.90625 
L 19.671875 8.296875 
L 55.171875 8.296875 
L 55.171875 0 
L 9.8125 0 
z
" id="DejaVuSans-76"/>
     </defs>
     <use xlink:href="#DejaVuSans-78"/>
     <use x="74.804688" xlink:href="#DejaVuSans-61"/>
     <use x="158.59375" xlink:href="#DejaVuSans-53"/>
     <use x="222.216797" xlink:href="#DejaVuSans-48"/>
     <use x="285.839844" xlink:href="#DejaVuSans-48"/>
     <use x="349.462891" xlink:href="#DejaVuSans-44"/>
     <use x="381.25" xlink:href="#DejaVuSans-32"/>
     <use x="413.037109" xlink:href="#DejaVuSans-76"/>
     <use x="468.75" xlink:href="#DejaVuSans-61"/>
     <use x="552.539062" xlink:href="#DejaVuSans-53"/>
     <use x="616.162109" xlink:href="#DejaVuSans-48"/>
    </g>
   </g>
   <g id="legend_1">
    <g id="patch_7">
     <path d="M 187.92 246 
L 254.88 246 
Q 257.28 246 257.28 243.6 
L 257.28 204.24 
Q 257.28 201.84 254.88 201.84 
L 187.92 201.84 
Q 185.52 201.84 185.52 204.24 
L 185.52 243.6 
Q 185.52 246 187.92 246 
z
" style="fill:#ffffff;opacity:0.8;stroke:#cccccc;stroke-linejoin:miter;"/>
    </g>
    <g id="line2d_19">
     <path d="M 190.32 213.24 
L 214.32 213.24 
" style="fill:none;stroke:#1f77b4;stroke-linecap:square;stroke-width:1.5;"/>
    </g>
    <g id="line2d_20"/>
    <g id="text_20">
     <!-- $\psi^{NUM}_{65}$ -->
     <g transform="translate(223.92 217.44)scale(0.12 -0.12)">
      <defs>
       <path d="M 24.859375 -1.21875 
Q 13.921875 0.59375 9.625 5.328125 
Q 4.34375 11.140625 6.640625 23 
L 12.796875 54.6875 
L 21.875 54.6875 
L 15.765625 23.34375 
Q 14.0625 14.40625 17.484375 10.6875 
Q 20.515625 7.46875 26.421875 6.78125 
L 35.6875 54.6875 
L 44.625 54.6875 
L 35.359375 6.84375 
Q 41.890625 7.515625 45.75 10.75 
Q 50.734375 14.84375 52.390625 23.390625 
L 58.453125 54.6875 
L 67.53125 54.6875 
L 61.375 23.046875 
Q 58.984375 10.75 51.5625 5.375 
Q 44.875 0.53125 33.796875 -1.171875 
L 29.984375 -20.796875 
L 21.046875 -20.796875 
z
" id="DejaVuSans-Oblique-968"/>
       <path d="M 16.890625 72.90625 
L 30.171875 72.90625 
L 50.296875 10.40625 
L 62.5 72.90625 
L 72.125 72.90625 
L 57.90625 0 
L 44.578125 0 
L 24.515625 62.890625 
L 12.3125 0 
L 2.6875 0 
z
" id="DejaVuSans-Oblique-78"/>
       <path d="M 15.484375 72.90625 
L 25.390625 72.90625 
L 16.796875 28.609375 
Q 16.265625 25.640625 16.046875 23.703125 
Q 15.828125 21.78125 15.828125 20.3125 
Q 15.828125 13.578125 19.578125 10.078125 
Q 23.34375 6.59375 30.609375 6.59375 
Q 40.046875 6.59375 45.28125 11.765625 
Q 50.53125 16.9375 52.78125 28.609375 
L 61.375 72.90625 
L 71.296875 72.90625 
L 62.5 27.390625 
Q 59.625 12.640625 51.5625 5.609375 
Q 43.5 -1.421875 29.5 -1.421875 
Q 18.5625 -1.421875 12.1875 4.078125 
Q 5.8125 9.578125 5.8125 19 
Q 5.8125 20.703125 6.046875 22.828125 
Q 6.296875 24.953125 6.78125 27.390625 
z
" id="DejaVuSans-Oblique-85"/>
       <path d="M 16.890625 72.90625 
L 31.6875 72.90625 
L 40.1875 23.78125 
L 68.40625 72.90625 
L 83.59375 72.90625 
L 69.390625 0 
L 59.8125 0 
L 72.21875 63.921875 
L 43.609375 14.015625 
L 33.984375 14.015625 
L 24.703125 64.109375 
L 12.3125 0 
L 2.6875 0 
z
" id="DejaVuSans-Oblique-77"/>
       <path d="M 33.015625 40.375 
Q 26.375 40.375 22.484375 35.828125 
Q 18.609375 31.296875 18.609375 23.390625 
Q 18.609375 15.53125 22.484375 10.953125 
Q 26.375 6.390625 33.015625 6.390625 
Q 39.65625 6.390625 43.53125 10.953125 
Q 47.40625 15.53125 47.40625 23.390625 
Q 47.40625 31.296875 43.53125 35.828125 
Q 39.65625 40.375 33.015625 40.375 
z
M 52.59375 71.296875 
L 52.59375 62.3125 
Q 48.875 64.0625 45.09375 64.984375 
Q 41.3125 65.921875 37.59375 65.921875 
Q 27.828125 65.921875 22.671875 59.328125 
Q 17.53125 52.734375 16.796875 39.40625 
Q 19.671875 43.65625 24.015625 45.921875 
Q 28.375 48.1875 33.59375 48.1875 
Q 44.578125 48.1875 50.953125 41.515625 
Q 57.328125 34.859375 57.328125 23.390625 
Q 57.328125 12.15625 50.6875 5.359375 
Q 44.046875 -1.421875 33.015625 -1.421875 
Q 20.359375 -1.421875 13.671875 8.265625 
Q 6.984375 17.96875 6.984375 36.375 
Q 6.984375 53.65625 15.1875 63.9375 
Q 23.390625 74.21875 37.203125 74.21875 
Q 40.921875 74.21875 44.703125 73.484375 
Q 48.484375 72.75 52.59375 71.296875 
z
" id="DejaVuSans-54"/>
      </defs>
      <use transform="translate(0 0.684375)" xlink:href="#DejaVuSans-Oblique-968"/>
      <use transform="translate(70.432943 38.965625)scale(0.7)" xlink:href="#DejaVuSans-Oblique-78"/>
      <use transform="translate(122.796224 38.965625)scale(0.7)" xlink:href="#DejaVuSans-Oblique-85"/>
      <use transform="translate(174.031576 38.965625)scale(0.7)" xlink:href="#DejaVuSans-Oblique-77"/>
      <use transform="translate(65.966797 -26.659375)scale(0.7)" xlink:href="#DejaVuSans-54"/>
      <use transform="translate(110.50293 -26.659375)scale(0.7)" xlink:href="#DejaVuSans-53"/>
     </g>
    </g>
    <g id="line2d_21">
     <path d="M 190.32 233.52 
L 214.32 233.52 
" style="fill:none;stroke:#ff7f0e;stroke-linecap:square;stroke-width:1.5;"/>
    </g>
    <g id="line2d_22"/>
    <g id="text_21">
     <!-- $\psi^{TH}_{65}$ -->
     <g transform="translate(223.92 237.72)scale(0.12 -0.12)">
      <defs>
       <path d="M 5.90625 72.90625 
L 67.578125 72.90625 
L 66.015625 64.59375 
L 39.984375 64.59375 
L 27.484375 0 
L 17.578125 0 
L 30.078125 64.59375 
L 4.296875 64.59375 
z
" id="DejaVuSans-Oblique-84"/>
       <path d="M 16.890625 72.90625 
L 26.8125 72.90625 
L 21 43.015625 
L 56.78125 43.015625 
L 62.59375 72.90625 
L 72.515625 72.90625 
L 58.296875 0 
L 48.390625 0 
L 55.171875 34.71875 
L 19.390625 34.71875 
L 12.59375 0 
L 2.6875 0 
z
" id="DejaVuSans-Oblique-72"/>
      </defs>
      <use transform="translate(0 0.684375)" xlink:href="#DejaVuSans-Oblique-968"/>
      <use transform="translate(70.432943 38.965625)scale(0.7)" xlink:href="#DejaVuSans-Oblique-84"/>
      <use transform="translate(113.191732 38.965625)scale(0.7)" xlink:href="#DejaVuSans-Oblique-72"/>
      <use transform="translate(65.966797 -26.659375)scale(0.7)" xlink:href="#DejaVuSans-54"/>
      <use transform="translate(110.50293 -26.659375)scale(0.7)" xlink:href="#DejaVuSans-53"/>
     </g>
    </g>
   </g>
  </g>
 </g>
 <defs>
  <clipPath id="pbbaa78d7b7">
   <rect height="217.44" width="334.8" x="54" y="34.56"/>
  </clipPath>
 </defs>
</svg>
