<?xml version="1.0" encoding="utf-8" standalone="no"?>
<!DOCTYPE svg PUBLIC "-//W3C//DTD SVG 1.1//EN"
  "http://www.w3.org/Graphics/SVG/1.1/DTD/svg11.dtd">
<!-- Created with matplotlib (https://matplotlib.org/) -->
<svg height="288pt" version="1.1" viewBox="0 0 432 288" width="432pt" xmlns="http://www.w3.org/2000/svg" xmlns:xlink="http://www.w3.org/1999/xlink">
 <metadata>
  <rdf:RDF xmlns:cc="http://creativecommons.org/ns#" xmlns:dc="http://purl.org/dc/elements/1.1/" xmlns:rdf="http://www.w3.org/1999/02/22-rdf-syntax-ns#">
   <cc:Work>
    <dc:type rdf:resource="http://purl.org/dc/dcmitype/StillImage"/>
    <dc:date>2021-11-23T18:23:02.644824</dc:date>
    <dc:format>image/svg+xml</dc:format>
    <dc:creator>
     <cc:Agent>
      <dc:title>Matplotlib v3.3.4, https://matplotlib.org/</dc:title>
     </cc:Agent>
    </dc:creator>
   </cc:Work>
  </rdf:RDF>
 </metadata>
 <defs>
  <style type="text/css">*{stroke-linecap:butt;stroke-linejoin:round;}</style>
 </defs>
 <g id="figure_1">
  <g id="patch_1">
   <path d="M 0 288 
L 432 288 
L 432 0 
L 0 0 
z
" style="fill:none;"/>
  </g>
  <g id="axes_1">
   <g id="patch_2">
    <path d="M 54 252 
L 388.8 252 
L 388.8 34.56 
L 54 34.56 
z
" style="fill:#ffffff;"/>
   </g>
   <g id="matplotlib.axis_1">
    <g id="xtick_1">
     <g id="line2d_1">
      <defs>
       <path d="M 0 0 
L 0 3.5 
" id="m97d70f1814" style="stroke:#000000;stroke-width:0.8;"/>
      </defs>
      <g>
       <use style="stroke:#000000;stroke-width:0.8;" x="54" xlink:href="#m97d70f1814" y="252"/>
      </g>
     </g>
     <g id="text_1">
      <!-- −10.0 -->
      <g transform="translate(38.677344 266.598437)scale(0.1 -0.1)">
       <defs>
        <path d="M 10.59375 35.5 
L 73.1875 35.5 
L 73.1875 27.203125 
L 10.59375 27.203125 
z
" id="DejaVuSans-8722"/>
        <path d="M 12.40625 8.296875 
L 28.515625 8.296875 
L 28.515625 63.921875 
L 10.984375 60.40625 
L 10.984375 69.390625 
L 28.421875 72.90625 
L 38.28125 72.90625 
L 38.28125 8.296875 
L 54.390625 8.296875 
L 54.390625 0 
L 12.40625 0 
z
" id="DejaVuSans-49"/>
        <path d="M 31.78125 66.40625 
Q 24.171875 66.40625 20.328125 58.90625 
Q 16.5 51.421875 16.5 36.375 
Q 16.5 21.390625 20.328125 13.890625 
Q 24.171875 6.390625 31.78125 6.390625 
Q 39.453125 6.390625 43.28125 13.890625 
Q 47.125 21.390625 47.125 36.375 
Q 47.125 51.421875 43.28125 58.90625 
Q 39.453125 66.40625 31.78125 66.40625 
z
M 31.78125 74.21875 
Q 44.046875 74.21875 50.515625 64.515625 
Q 56.984375 54.828125 56.984375 36.375 
Q 56.984375 17.96875 50.515625 8.265625 
Q 44.046875 -1.421875 31.78125 -1.421875 
Q 19.53125 -1.421875 13.0625 8.265625 
Q 6.59375 17.96875 6.59375 36.375 
Q 6.59375 54.828125 13.0625 64.515625 
Q 19.53125 74.21875 31.78125 74.21875 
z
" id="DejaVuSans-48"/>
        <path d="M 10.6875 12.40625 
L 21 12.40625 
L 21 0 
L 10.6875 0 
z
" id="DejaVuSans-46"/>
       </defs>
       <use xlink:href="#DejaVuSans-8722"/>
       <use x="83.789062" xlink:href="#DejaVuSans-49"/>
       <use x="147.412109" xlink:href="#DejaVuSans-48"/>
       <use x="211.035156" xlink:href="#DejaVuSans-46"/>
       <use x="242.822266" xlink:href="#DejaVuSans-48"/>
      </g>
     </g>
    </g>
    <g id="xtick_2">
     <g id="line2d_2">
      <g>
       <use style="stroke:#000000;stroke-width:0.8;" x="95.85" xlink:href="#m97d70f1814" y="252"/>
      </g>
     </g>
     <g id="text_2">
      <!-- −7.5 -->
      <g transform="translate(83.708594 266.598437)scale(0.1 -0.1)">
       <defs>
        <path d="M 8.203125 72.90625 
L 55.078125 72.90625 
L 55.078125 68.703125 
L 28.609375 0 
L 18.3125 0 
L 43.21875 64.59375 
L 8.203125 64.59375 
z
" id="DejaVuSans-55"/>
        <path d="M 10.796875 72.90625 
L 49.515625 72.90625 
L 49.515625 64.59375 
L 19.828125 64.59375 
L 19.828125 46.734375 
Q 21.96875 47.46875 24.109375 47.828125 
Q 26.265625 48.1875 28.421875 48.1875 
Q 40.625 48.1875 47.75 41.5 
Q 54.890625 34.8125 54.890625 23.390625 
Q 54.890625 11.625 47.5625 5.09375 
Q 40.234375 -1.421875 26.90625 -1.421875 
Q 22.3125 -1.421875 17.546875 -0.640625 
Q 12.796875 0.140625 7.71875 1.703125 
L 7.71875 11.625 
Q 12.109375 9.234375 16.796875 8.0625 
Q 21.484375 6.890625 26.703125 6.890625 
Q 35.15625 6.890625 40.078125 11.328125 
Q 45.015625 15.765625 45.015625 23.390625 
Q 45.015625 31 40.078125 35.4375 
Q 35.15625 39.890625 26.703125 39.890625 
Q 22.75 39.890625 18.8125 39.015625 
Q 14.890625 38.140625 10.796875 36.28125 
z
" id="DejaVuSans-53"/>
       </defs>
       <use xlink:href="#DejaVuSans-8722"/>
       <use x="83.789062" xlink:href="#DejaVuSans-55"/>
       <use x="147.412109" xlink:href="#DejaVuSans-46"/>
       <use x="179.199219" xlink:href="#DejaVuSans-53"/>
      </g>
     </g>
    </g>
    <g id="xtick_3">
     <g id="line2d_3">
      <g>
       <use style="stroke:#000000;stroke-width:0.8;" x="137.7" xlink:href="#m97d70f1814" y="252"/>
      </g>
     </g>
     <g id="text_3">
      <!-- −5.0 -->
      <g transform="translate(125.558594 266.598437)scale(0.1 -0.1)">
       <use xlink:href="#DejaVuSans-8722"/>
       <use x="83.789062" xlink:href="#DejaVuSans-53"/>
       <use x="147.412109" xlink:href="#DejaVuSans-46"/>
       <use x="179.199219" xlink:href="#DejaVuSans-48"/>
      </g>
     </g>
    </g>
    <g id="xtick_4">
     <g id="line2d_4">
      <g>
       <use style="stroke:#000000;stroke-width:0.8;" x="179.55" xlink:href="#m97d70f1814" y="252"/>
      </g>
     </g>
     <g id="text_4">
      <!-- −2.5 -->
      <g transform="translate(167.408594 266.598437)scale(0.1 -0.1)">
       <defs>
        <path d="M 19.1875 8.296875 
L 53.609375 8.296875 
L 53.609375 0 
L 7.328125 0 
L 7.328125 8.296875 
Q 12.9375 14.109375 22.625 23.890625 
Q 32.328125 33.6875 34.8125 36.53125 
Q 39.546875 41.84375 41.421875 45.53125 
Q 43.3125 49.21875 43.3125 52.78125 
Q 43.3125 58.59375 39.234375 62.25 
Q 35.15625 65.921875 28.609375 65.921875 
Q 23.96875 65.921875 18.8125 64.3125 
Q 13.671875 62.703125 7.8125 59.421875 
L 7.8125 69.390625 
Q 13.765625 71.78125 18.9375 73 
Q 24.125 74.21875 28.421875 74.21875 
Q 39.75 74.21875 46.484375 68.546875 
Q 53.21875 62.890625 53.21875 53.421875 
Q 53.21875 48.921875 51.53125 44.890625 
Q 49.859375 40.875 45.40625 35.40625 
Q 44.1875 33.984375 37.640625 27.21875 
Q 31.109375 20.453125 19.1875 8.296875 
z
" id="DejaVuSans-50"/>
       </defs>
       <use xlink:href="#DejaVuSans-8722"/>
       <use x="83.789062" xlink:href="#DejaVuSans-50"/>
       <use x="147.412109" xlink:href="#DejaVuSans-46"/>
       <use x="179.199219" xlink:href="#DejaVuSans-53"/>
      </g>
     </g>
    </g>
    <g id="xtick_5">
     <g id="line2d_5">
      <g>
       <use style="stroke:#000000;stroke-width:0.8;" x="221.4" xlink:href="#m97d70f1814" y="252"/>
      </g>
     </g>
     <g id="text_5">
      <!-- 0.0 -->
      <g transform="translate(213.448438 266.598437)scale(0.1 -0.1)">
       <use xlink:href="#DejaVuSans-48"/>
       <use x="63.623047" xlink:href="#DejaVuSans-46"/>
       <use x="95.410156" xlink:href="#DejaVuSans-48"/>
      </g>
     </g>
    </g>
    <g id="xtick_6">
     <g id="line2d_6">
      <g>
       <use style="stroke:#000000;stroke-width:0.8;" x="263.25" xlink:href="#m97d70f1814" y="252"/>
      </g>
     </g>
     <g id="text_6">
      <!-- 2.5 -->
      <g transform="translate(255.298438 266.598437)scale(0.1 -0.1)">
       <use xlink:href="#DejaVuSans-50"/>
       <use x="63.623047" xlink:href="#DejaVuSans-46"/>
       <use x="95.410156" xlink:href="#DejaVuSans-53"/>
      </g>
     </g>
    </g>
    <g id="xtick_7">
     <g id="line2d_7">
      <g>
       <use style="stroke:#000000;stroke-width:0.8;" x="305.1" xlink:href="#m97d70f1814" y="252"/>
      </g>
     </g>
     <g id="text_7">
      <!-- 5.0 -->
      <g transform="translate(297.148438 266.598437)scale(0.1 -0.1)">
       <use xlink:href="#DejaVuSans-53"/>
       <use x="63.623047" xlink:href="#DejaVuSans-46"/>
       <use x="95.410156" xlink:href="#DejaVuSans-48"/>
      </g>
     </g>
    </g>
    <g id="xtick_8">
     <g id="line2d_8">
      <g>
       <use style="stroke:#000000;stroke-width:0.8;" x="346.95" xlink:href="#m97d70f1814" y="252"/>
      </g>
     </g>
     <g id="text_8">
      <!-- 7.5 -->
      <g transform="translate(338.998438 266.598437)scale(0.1 -0.1)">
       <use xlink:href="#DejaVuSans-55"/>
       <use x="63.623047" xlink:href="#DejaVuSans-46"/>
       <use x="95.410156" xlink:href="#DejaVuSans-53"/>
      </g>
     </g>
    </g>
    <g id="xtick_9">
     <g id="line2d_9">
      <g>
       <use style="stroke:#000000;stroke-width:0.8;" x="388.8" xlink:href="#m97d70f1814" y="252"/>
      </g>
     </g>
     <g id="text_9">
      <!-- 10.0 -->
      <g transform="translate(377.667188 266.598437)scale(0.1 -0.1)">
       <use xlink:href="#DejaVuSans-49"/>
       <use x="63.623047" xlink:href="#DejaVuSans-48"/>
       <use x="127.246094" xlink:href="#DejaVuSans-46"/>
       <use x="159.033203" xlink:href="#DejaVuSans-48"/>
      </g>
     </g>
    </g>
    <g id="text_10">
     <!-- x -->
     <g transform="translate(218.440625 280.276563)scale(0.1 -0.1)">
      <defs>
       <path d="M 54.890625 54.6875 
L 35.109375 28.078125 
L 55.90625 0 
L 45.3125 0 
L 29.390625 21.484375 
L 13.484375 0 
L 2.875 0 
L 24.125 28.609375 
L 4.6875 54.6875 
L 15.28125 54.6875 
L 29.78125 35.203125 
L 44.28125 54.6875 
z
" id="DejaVuSans-120"/>
      </defs>
      <use xlink:href="#DejaVuSans-120"/>
     </g>
    </g>
   </g>
   <g id="matplotlib.axis_2">
    <g id="ytick_1">
     <g id="line2d_10">
      <defs>
       <path d="M 0 0 
L -3.5 0 
" id="m5cdecbabc2" style="stroke:#000000;stroke-width:0.8;"/>
      </defs>
      <g>
       <use style="stroke:#000000;stroke-width:0.8;" x="54" xlink:href="#m5cdecbabc2" y="232.414593"/>
      </g>
     </g>
     <g id="text_11">
      <!-- −1.0 -->
      <g transform="translate(22.717187 236.213811)scale(0.1 -0.1)">
       <use xlink:href="#DejaVuSans-8722"/>
       <use x="83.789062" xlink:href="#DejaVuSans-49"/>
       <use x="147.412109" xlink:href="#DejaVuSans-46"/>
       <use x="179.199219" xlink:href="#DejaVuSans-48"/>
      </g>
     </g>
    </g>
    <g id="ytick_2">
     <g id="line2d_11">
      <g>
       <use style="stroke:#000000;stroke-width:0.8;" x="54" xlink:href="#m5cdecbabc2" y="193.742651"/>
      </g>
     </g>
     <g id="text_12">
      <!-- −0.5 -->
      <g transform="translate(22.717187 197.54187)scale(0.1 -0.1)">
       <use xlink:href="#DejaVuSans-8722"/>
       <use x="83.789062" xlink:href="#DejaVuSans-48"/>
       <use x="147.412109" xlink:href="#DejaVuSans-46"/>
       <use x="179.199219" xlink:href="#DejaVuSans-53"/>
      </g>
     </g>
    </g>
    <g id="ytick_3">
     <g id="line2d_12">
      <g>
       <use style="stroke:#000000;stroke-width:0.8;" x="54" xlink:href="#m5cdecbabc2" y="155.07071"/>
      </g>
     </g>
     <g id="text_13">
      <!-- 0.0 -->
      <g transform="translate(31.096875 158.869929)scale(0.1 -0.1)">
       <use xlink:href="#DejaVuSans-48"/>
       <use x="63.623047" xlink:href="#DejaVuSans-46"/>
       <use x="95.410156" xlink:href="#DejaVuSans-48"/>
      </g>
     </g>
    </g>
    <g id="ytick_4">
     <g id="line2d_13">
      <g>
       <use style="stroke:#000000;stroke-width:0.8;" x="54" xlink:href="#m5cdecbabc2" y="116.398769"/>
      </g>
     </g>
     <g id="text_14">
      <!-- 0.5 -->
      <g transform="translate(31.096875 120.197987)scale(0.1 -0.1)">
       <use xlink:href="#DejaVuSans-48"/>
       <use x="63.623047" xlink:href="#DejaVuSans-46"/>
       <use x="95.410156" xlink:href="#DejaVuSans-53"/>
      </g>
     </g>
    </g>
    <g id="ytick_5">
     <g id="line2d_14">
      <g>
       <use style="stroke:#000000;stroke-width:0.8;" x="54" xlink:href="#m5cdecbabc2" y="77.726827"/>
      </g>
     </g>
     <g id="text_15">
      <!-- 1.0 -->
      <g transform="translate(31.096875 81.526046)scale(0.1 -0.1)">
       <use xlink:href="#DejaVuSans-49"/>
       <use x="63.623047" xlink:href="#DejaVuSans-46"/>
       <use x="95.410156" xlink:href="#DejaVuSans-48"/>
      </g>
     </g>
    </g>
    <g id="ytick_6">
     <g id="line2d_15">
      <g>
       <use style="stroke:#000000;stroke-width:0.8;" x="54" xlink:href="#m5cdecbabc2" y="39.054886"/>
      </g>
     </g>
     <g id="text_16">
      <!-- 1.5 -->
      <g transform="translate(31.096875 42.854105)scale(0.1 -0.1)">
       <use xlink:href="#DejaVuSans-49"/>
       <use x="63.623047" xlink:href="#DejaVuSans-46"/>
       <use x="95.410156" xlink:href="#DejaVuSans-53"/>
      </g>
     </g>
    </g>
    <g id="text_17">
     <!-- 1e−1 -->
     <g transform="translate(54 31.56)scale(0.1 -0.1)">
      <defs>
       <path d="M 56.203125 29.59375 
L 56.203125 25.203125 
L 14.890625 25.203125 
Q 15.484375 15.921875 20.484375 11.0625 
Q 25.484375 6.203125 34.421875 6.203125 
Q 39.59375 6.203125 44.453125 7.46875 
Q 49.3125 8.734375 54.109375 11.28125 
L 54.109375 2.78125 
Q 49.265625 0.734375 44.1875 -0.34375 
Q 39.109375 -1.421875 33.890625 -1.421875 
Q 20.796875 -1.421875 13.15625 6.1875 
Q 5.515625 13.8125 5.515625 26.8125 
Q 5.515625 40.234375 12.765625 48.109375 
Q 20.015625 56 32.328125 56 
Q 43.359375 56 49.78125 48.890625 
Q 56.203125 41.796875 56.203125 29.59375 
z
M 47.21875 32.234375 
Q 47.125 39.59375 43.09375 43.984375 
Q 39.0625 48.390625 32.421875 48.390625 
Q 24.90625 48.390625 20.390625 44.140625 
Q 15.875 39.890625 15.1875 32.171875 
z
" id="DejaVuSans-101"/>
      </defs>
      <use xlink:href="#DejaVuSans-49"/>
      <use x="63.623047" xlink:href="#DejaVuSans-101"/>
      <use x="125.146484" xlink:href="#DejaVuSans-8722"/>
      <use x="208.935547" xlink:href="#DejaVuSans-49"/>
     </g>
    </g>
   </g>
   <g id="line2d_16">
    <path clip-path="url(#pb13b0d66ef)" d="M -1 155.070302 
L 12.15 154.987474 
L 15.498 154.798487 
L 17.172 154.592825 
L 18.846 154.248886 
L 20.52 153.687119 
L 22.194 152.79197 
L 23.868 151.402214 
L 25.542 149.30314 
L 27.216 146.224424 
L 28.89 141.849252 
L 30.564 135.841843 
L 32.238 127.900903 
L 33.912 117.844695 
L 35.586 105.727891 
L 40.608 63.951094 
L 42.282 53.335628 
L 43.956 48.228758 
L 45.63 51.182709 
L 47.304 64.166669 
L 48.978 87.827003 
L 50.652 120.776814 
L 54 196.824597 
L 55.674 226.171 
L 57.348 239.95026 
L 59.022 233.47333 
L 60.696 206.757045 
L 62.37 165.700576 
L 64.044 121.491859 
L 65.718 87.875473 
L 67.392 76.712139 
L 69.066 93.181659 
L 70.74 132.608699 
L 72.414 180.774503 
L 74.088 218.48024 
L 75.762 229.259351 
L 77.436 207.236226 
L 80.784 112.312741 
L 82.458 84.478393 
L 84.132 92.65647 
L 85.806 133.704768 
L 87.48 186.353622 
L 89.154 221.513878 
L 90.828 218.472878 
L 92.502 177.983615 
L 94.176 123.60578 
L 95.85 88.781708 
L 97.524 96.15366 
L 99.198 141.906914 
L 100.872 196.429183 
L 102.546 222.800963 
L 104.22 202.103852 
L 105.894 148.058062 
L 107.568 99.082041 
L 109.242 91.349876 
L 110.916 131.417654 
L 112.59 189.543272 
L 114.264 220.899347 
L 115.938 200.287238 
L 117.612 143.404849 
L 119.286 96.026011 
L 120.96 97.473969 
L 122.634 147.248263 
L 124.308 203.67904 
L 125.982 218.17801 
L 127.656 177.511966 
L 129.33 116.975393 
L 131.004 90.593038 
L 132.678 122.720711 
L 134.352 184.550418 
L 136.026 219.003904 
L 137.7 193.427556 
L 139.374 131.448782 
L 141.048 92.122171 
L 142.722 113.770439 
L 144.396 175.816412 
L 146.07 217.377118 
L 147.744 196.846599 
L 149.418 134.312664 
L 151.092 92.830429 
L 152.766 114.997982 
L 154.44 178.478369 
L 156.114 217.637114 
L 157.788 191.292183 
L 159.462 126.746403 
L 161.136 92.285182 
L 162.81 124.969712 
L 164.484 190.059362 
L 166.158 217.240683 
L 167.832 176.647633 
L 169.506 112.39233 
L 171.18 95.20899 
L 172.854 144.415074 
L 174.528 205.50162 
L 176.202 210.072948 
L 179.55 98.012605 
L 181.224 108.170683 
L 182.898 171.862629 
L 184.572 216.308577 
L 186.246 190.291393 
L 187.92 123.596211 
L 189.594 93.381432 
L 191.268 134.907975 
L 192.942 199.957301 
L 194.616 212.482745 
L 197.964 99.772919 
L 199.638 107.128379 
L 201.312 171.15869 
L 202.986 216.130434 
L 204.66 188.627565 
L 206.334 121.224038 
L 208.008 94.130084 
L 209.682 139.716746 
L 211.356 203.638288 
L 213.03 209.499895 
L 214.704 150.234458 
L 216.378 96.760173 
L 218.052 113.150448 
L 219.726 179.788296 
L 221.4 216.791082 
L 223.074 179.78828 
L 224.748 113.150436 
L 226.422 96.760179 
L 228.096 150.234475 
L 229.77 209.499903 
L 231.444 203.638277 
L 233.118 139.71673 
L 234.792 94.130081 
L 236.466 121.224053 
L 238.14 188.627579 
L 239.814 216.130432 
L 241.488 171.158673 
L 243.162 107.128368 
L 244.836 99.772927 
L 248.184 212.482752 
L 249.858 199.95729 
L 251.532 134.907959 
L 253.206 93.381431 
L 254.88 123.596225 
L 256.554 190.291407 
L 258.228 216.308574 
L 259.902 171.862612 
L 261.576 108.170672 
L 263.25 98.012612 
L 266.598 210.072956 
L 268.272 205.50161 
L 269.946 144.415057 
L 271.62 95.208986 
L 273.294 112.392342 
L 274.968 176.647649 
L 276.642 217.240685 
L 278.316 190.059348 
L 279.99 124.969697 
L 281.664 92.285182 
L 283.338 126.746418 
L 285.012 191.292197 
L 286.686 217.637112 
L 288.36 178.478353 
L 290.034 114.997968 
L 291.708 92.830432 
L 293.382 134.312681 
L 295.056 196.846612 
L 296.73 217.377114 
L 298.404 175.816395 
L 300.078 113.770425 
L 301.752 92.122174 
L 303.426 131.448798 
L 305.1 193.42757 
L 306.774 219.003903 
L 308.448 184.550403 
L 310.122 122.720695 
L 311.796 90.593038 
L 313.47 116.975407 
L 315.144 177.511982 
L 316.818 218.178014 
L 318.492 203.679029 
L 320.166 147.248245 
L 321.84 97.47396 
L 323.514 96.026019 
L 325.188 143.404867 
L 326.862 200.287251 
L 328.536 220.899345 
L 330.21 189.543256 
L 331.884 131.417637 
L 333.558 91.349871 
L 335.232 99.082052 
L 336.906 148.05808 
L 338.58 202.103865 
L 340.254 222.800962 
L 341.928 196.429148 
L 343.602 141.906868 
L 345.276 96.153634 
L 346.95 88.781701 
L 348.624 123.605796 
L 350.298 177.983654 
L 351.972 218.472916 
L 353.646 221.513893 
L 355.32 186.353625 
L 356.994 133.704758 
L 358.668 92.656459 
L 360.342 84.478387 
L 362.016 112.312743 
L 365.364 207.236218 
L 367.038 229.259311 
L 368.712 218.480185 
L 370.386 180.774457 
L 372.06 132.608688 
L 373.734 93.181688 
L 375.408 76.712215 
L 377.082 87.87557 
L 378.756 121.491944 
L 380.43 165.700602 
L 382.104 206.757004 
L 383.778 233.473218 
L 385.452 239.950129 
L 387.126 226.170857 
L 388.8 196.824493 
L 392.148 120.776838 
L 393.822 87.82708 
L 395.496 64.166808 
L 397.17 51.182839 
L 398.844 48.228867 
L 400.518 53.33574 
L 402.192 63.951171 
L 405.54 91.980151 
L 407.214 105.727892 
L 408.888 117.844693 
L 410.562 127.900898 
L 412.236 135.841843 
L 413.91 141.849251 
L 415.584 146.224421 
L 417.258 149.303139 
L 418.932 151.402214 
L 420.606 152.791971 
L 422.28 153.687119 
L 423.954 154.248886 
L 425.628 154.592825 
L 428.976 154.918711 
L 433 155.03452 
L 433 155.03452 
" style="fill:none;stroke:#1f77b4;stroke-linecap:square;stroke-width:1.5;"/>
   </g>
   <g id="line2d_17">
    <path clip-path="url(#pb13b0d66ef)" d="M -1 155.06882 
L 8.802 154.975581 
L 12.15 154.755854 
L 13.824 154.515652 
L 15.498 154.113252 
L 17.172 153.455702 
L 18.846 152.408824 
L 20.52 150.787081 
L 22.194 148.346472 
L 23.868 144.785144 
L 25.542 139.758339 
L 27.216 132.915627 
L 28.89 123.968119 
L 30.564 112.790156 
L 32.238 99.552288 
L 35.586 69.932716 
L 37.26 56.569177 
L 38.934 47.173584 
L 40.608 44.443636 
L 42.282 50.890176 
L 43.956 68.147046 
L 45.63 96.194336 
L 47.304 132.705043 
L 48.978 172.79508 
L 50.652 209.452643 
L 52.326 234.80304 
L 54 242.116364 
L 55.674 228.129994 
L 57.348 194.944412 
L 60.696 107.774839 
L 62.37 80.159137 
L 64.044 77.877799 
L 65.718 102.989413 
L 69.066 194.676762 
L 70.74 225.69027 
L 72.414 226.705108 
L 74.088 196.197112 
L 75.762 147.013606 
L 77.436 101.784002 
L 79.11 82.70956 
L 80.784 100.158588 
L 82.458 146.077276 
L 84.132 196.671717 
L 85.806 224.261185 
L 87.48 212.730448 
L 89.154 167.858296 
L 90.828 115.525045 
L 92.502 87.34541 
L 94.176 101.302339 
L 95.85 149.349292 
L 97.524 200.978696 
L 99.198 222.11239 
L 100.872 197.98017 
L 102.546 144.421802 
L 104.22 98.448812 
L 105.894 92.913936 
L 107.568 132.416947 
L 109.242 188.506602 
L 110.916 219.449407 
L 112.59 201.410931 
L 114.264 147.681284 
L 115.938 99.853646 
L 117.612 95.933739 
L 119.286 139.570986 
L 120.96 195.740512 
L 122.634 218.236762 
L 124.308 187.927512 
L 125.982 129.908636 
L 127.656 93.522598 
L 129.33 110.429645 
L 131.004 166.326201 
L 132.678 212.172099 
L 134.352 206.970268 
L 137.7 103.187127 
L 139.374 99.126697 
L 141.048 146.927536 
L 142.722 202.260424 
L 144.396 212.99964 
L 146.07 168.64229 
L 147.744 111.349452 
L 149.418 96.374889 
L 151.092 138.539934 
L 152.766 196.844229 
L 154.44 213.829201 
L 156.114 172.396004 
L 157.788 113.689832 
L 159.462 96.722896 
L 161.136 138.880162 
L 162.81 197.479955 
L 164.484 212.544492 
L 166.158 168.364363 
L 167.832 110.464663 
L 169.506 99.082475 
L 171.18 146.306117 
L 172.854 202.69469 
L 174.528 208.715581 
L 177.876 104.036529 
L 179.55 104.912738 
L 181.224 159.659906 
L 182.898 209.412012 
L 184.572 200.33179 
L 186.246 142.125621 
L 187.92 98.061821 
L 189.594 116.306482 
L 191.268 177.007677 
L 192.942 213.569406 
L 194.616 185.675777 
L 196.29 124.006562 
L 197.964 96.748143 
L 199.638 134.183936 
L 201.312 194.811561 
L 202.986 211.171379 
L 204.66 164.965715 
L 206.334 107.725841 
L 208.008 103.454411 
L 211.356 208.353974 
L 213.03 199.926667 
L 214.704 141.128922 
L 216.378 98.006373 
L 218.052 119.045976 
L 219.726 180.601879 
L 221.4 213.433367 
L 223.074 180.601879 
L 224.748 119.045976 
L 226.422 98.006373 
L 228.096 141.128922 
L 229.77 199.926667 
L 231.444 208.353974 
L 234.792 103.454411 
L 236.466 107.725841 
L 238.14 164.965715 
L 239.814 211.171379 
L 241.488 194.811561 
L 243.162 134.183936 
L 244.836 96.748143 
L 246.51 124.006562 
L 248.184 185.675777 
L 249.858 213.569406 
L 251.532 177.007677 
L 253.206 116.306482 
L 254.88 98.061821 
L 256.554 142.125621 
L 258.228 200.33179 
L 259.902 209.412012 
L 261.576 159.659906 
L 263.25 104.912738 
L 264.924 104.036529 
L 268.272 208.715581 
L 269.946 202.69469 
L 271.62 146.306117 
L 273.294 99.082475 
L 274.968 110.464663 
L 276.642 168.364363 
L 278.316 212.544492 
L 279.99 197.479955 
L 281.664 138.880162 
L 283.338 96.722896 
L 285.012 113.689832 
L 286.686 172.396004 
L 288.36 213.829201 
L 290.034 196.844229 
L 291.708 138.539934 
L 293.382 96.374889 
L 295.056 111.349452 
L 296.73 168.64229 
L 298.404 212.99964 
L 300.078 202.260424 
L 301.752 146.927536 
L 303.426 99.126697 
L 305.1 103.187127 
L 308.448 206.970268 
L 310.122 212.172099 
L 311.796 166.326201 
L 313.47 110.429645 
L 315.144 93.522598 
L 316.818 129.908636 
L 318.492 187.927512 
L 320.166 218.236762 
L 321.84 195.740512 
L 323.514 139.570986 
L 325.188 95.933739 
L 326.862 99.853646 
L 328.536 147.681284 
L 330.21 201.410931 
L 331.884 219.449407 
L 333.558 188.506602 
L 335.232 132.416947 
L 336.906 92.913936 
L 338.58 98.448812 
L 340.254 144.421802 
L 341.928 197.98017 
L 343.602 222.11239 
L 345.276 200.978696 
L 346.95 149.349292 
L 348.624 101.302339 
L 350.298 87.34541 
L 351.972 115.525045 
L 353.646 167.858296 
L 355.32 212.730448 
L 356.994 224.261185 
L 358.668 196.671717 
L 360.342 146.077276 
L 362.016 100.158588 
L 363.69 82.70956 
L 365.364 101.784002 
L 367.038 147.013606 
L 368.712 196.197112 
L 370.386 226.705108 
L 372.06 225.69027 
L 373.734 194.676762 
L 377.082 102.989413 
L 378.756 77.877799 
L 380.43 80.159137 
L 382.104 107.774839 
L 385.452 194.944412 
L 387.126 228.129994 
L 388.8 242.116364 
L 390.474 234.80304 
L 392.148 209.452643 
L 393.822 172.79508 
L 395.496 132.705043 
L 397.17 96.194336 
L 398.844 68.147046 
L 400.518 50.890176 
L 402.192 44.443636 
L 403.866 47.173584 
L 405.54 56.569177 
L 407.214 69.932716 
L 410.562 99.552288 
L 412.236 112.790156 
L 413.91 123.968119 
L 415.584 132.915627 
L 417.258 139.758339 
L 418.932 144.785144 
L 420.606 148.346472 
L 422.28 150.787081 
L 423.954 152.408824 
L 425.628 153.455702 
L 427.302 154.113252 
L 428.976 154.515652 
L 432.324 154.895849 
L 433 154.928046 
L 433 154.928046 
" style="fill:none;stroke:#ff7f0e;stroke-linecap:square;stroke-width:1.5;"/>
   </g>
   <g id="patch_3">
    <path d="M 54 252 
L 54 34.56 
" style="fill:none;stroke:#000000;stroke-linecap:square;stroke-linejoin:miter;stroke-width:0.8;"/>
   </g>
   <g id="patch_4">
    <path d="M 388.8 252 
L 388.8 34.56 
" style="fill:none;stroke:#000000;stroke-linecap:square;stroke-linejoin:miter;stroke-width:0.8;"/>
   </g>
   <g id="patch_5">
    <path d="M 54 252 
L 388.8 252 
" style="fill:none;stroke:#000000;stroke-linecap:square;stroke-linejoin:miter;stroke-width:0.8;"/>
   </g>
   <g id="patch_6">
    <path d="M 54 34.56 
L 388.8 34.56 
" style="fill:none;stroke:#000000;stroke-linecap:square;stroke-linejoin:miter;stroke-width:0.8;"/>
   </g>
   <g id="text_18">
    <!-- N=500, L=50 -->
    <g transform="translate(180.61125 28.56)scale(0.12 -0.12)">
     <defs>
      <path d="M 9.8125 72.90625 
L 23.09375 72.90625 
L 55.421875 11.921875 
L 55.421875 72.90625 
L 64.984375 72.90625 
L 64.984375 0 
L 51.703125 0 
L 19.390625 60.984375 
L 19.390625 0 
L 9.8125 0 
z
" id="DejaVuSans-78"/>
      <path d="M 10.59375 45.40625 
L 73.1875 45.40625 
L 73.1875 37.203125 
L 10.59375 37.203125 
z
M 10.59375 25.484375 
L 73.1875 25.484375 
L 73.1875 17.1875 
L 10.59375 17.1875 
z
" id="DejaVuSans-61"/>
      <path d="M 11.71875 12.40625 
L 22.015625 12.40625 
L 22.015625 4 
L 14.015625 -11.625 
L 7.71875 -11.625 
L 11.71875 4 
z
" id="DejaVuSans-44"/>
      <path id="DejaVuSans-32"/>
      <path d="M 9.8125 72.90625 
L 19.671875 72.90625 
L 19.671875 8.296875 
L 55.171875 8.296875 
L 55.171875 0 
L 9.8125 0 
z
" id="DejaVuSans-76"/>
     </defs>
     <use xlink:href="#DejaVuSans-78"/>
     <use x="74.804688" xlink:href="#DejaVuSans-61"/>
     <use x="158.59375" xlink:href="#DejaVuSans-53"/>
     <use x="222.216797" xlink:href="#DejaVuSans-48"/>
     <use x="285.839844" xlink:href="#DejaVuSans-48"/>
     <use x="349.462891" xlink:href="#DejaVuSans-44"/>
     <use x="381.25" xlink:href="#DejaVuSans-32"/>
     <use x="413.037109" xlink:href="#DejaVuSans-76"/>
     <use x="468.75" xlink:href="#DejaVuSans-61"/>
     <use x="552.539062" xlink:href="#DejaVuSans-53"/>
     <use x="616.162109" xlink:href="#DejaVuSans-48"/>
    </g>
   </g>
   <g id="legend_1">
    <g id="patch_7">
     <path d="M 187.92 84.72 
L 254.88 84.72 
Q 257.28 84.72 257.28 82.32 
L 257.28 42.96 
Q 257.28 40.56 254.88 40.56 
L 187.92 40.56 
Q 185.52 40.56 185.52 42.96 
L 185.52 82.32 
Q 185.52 84.72 187.92 84.72 
z
" style="fill:#ffffff;opacity:0.8;stroke:#cccccc;stroke-linejoin:miter;"/>
    </g>
    <g id="line2d_18">
     <path d="M 190.32 51.96 
L 214.32 51.96 
" style="fill:none;stroke:#1f77b4;stroke-linecap:square;stroke-width:1.5;"/>
    </g>
    <g id="line2d_19"/>
    <g id="text_19">
     <!-- $\psi^{NUM}_{62}$ -->
     <g transform="translate(223.92 56.16)scale(0.12 -0.12)">
      <defs>
       <path d="M 24.859375 -1.21875 
Q 13.921875 0.59375 9.625 5.328125 
Q 4.34375 11.140625 6.640625 23 
L 12.796875 54.6875 
L 21.875 54.6875 
L 15.765625 23.34375 
Q 14.0625 14.40625 17.484375 10.6875 
Q 20.515625 7.46875 26.421875 6.78125 
L 35.6875 54.6875 
L 44.625 54.6875 
L 35.359375 6.84375 
Q 41.890625 7.515625 45.75 10.75 
Q 50.734375 14.84375 52.390625 23.390625 
L 58.453125 54.6875 
L 67.53125 54.6875 
L 61.375 23.046875 
Q 58.984375 10.75 51.5625 5.375 
Q 44.875 0.53125 33.796875 -1.171875 
L 29.984375 -20.796875 
L 21.046875 -20.796875 
z
" id="DejaVuSans-Oblique-968"/>
       <path d="M 16.890625 72.90625 
L 30.171875 72.90625 
L 50.296875 10.40625 
L 62.5 72.90625 
L 72.125 72.90625 
L 57.90625 0 
L 44.578125 0 
L 24.515625 62.890625 
L 12.3125 0 
L 2.6875 0 
z
" id="DejaVuSans-Oblique-78"/>
       <path d="M 15.484375 72.90625 
L 25.390625 72.90625 
L 16.796875 28.609375 
Q 16.265625 25.640625 16.046875 23.703125 
Q 15.828125 21.78125 15.828125 20.3125 
Q 15.828125 13.578125 19.578125 10.078125 
Q 23.34375 6.59375 30.609375 6.59375 
Q 40.046875 6.59375 45.28125 11.765625 
Q 50.53125 16.9375 52.78125 28.609375 
L 61.375 72.90625 
L 71.296875 72.90625 
L 62.5 27.390625 
Q 59.625 12.640625 51.5625 5.609375 
Q 43.5 -1.421875 29.5 -1.421875 
Q 18.5625 -1.421875 12.1875 4.078125 
Q 5.8125 9.578125 5.8125 19 
Q 5.8125 20.703125 6.046875 22.828125 
Q 6.296875 24.953125 6.78125 27.390625 
z
" id="DejaVuSans-Oblique-85"/>
       <path d="M 16.890625 72.90625 
L 31.6875 72.90625 
L 40.1875 23.78125 
L 68.40625 72.90625 
L 83.59375 72.90625 
L 69.390625 0 
L 59.8125 0 
L 72.21875 63.921875 
L 43.609375 14.015625 
L 33.984375 14.015625 
L 24.703125 64.109375 
L 12.3125 0 
L 2.6875 0 
z
" id="DejaVuSans-Oblique-77"/>
       <path d="M 33.015625 40.375 
Q 26.375 40.375 22.484375 35.828125 
Q 18.609375 31.296875 18.609375 23.390625 
Q 18.609375 15.53125 22.484375 10.953125 
Q 26.375 6.390625 33.015625 6.390625 
Q 39.65625 6.390625 43.53125 10.953125 
Q 47.40625 15.53125 47.40625 23.390625 
Q 47.40625 31.296875 43.53125 35.828125 
Q 39.65625 40.375 33.015625 40.375 
z
M 52.59375 71.296875 
L 52.59375 62.3125 
Q 48.875 64.0625 45.09375 64.984375 
Q 41.3125 65.921875 37.59375 65.921875 
Q 27.828125 65.921875 22.671875 59.328125 
Q 17.53125 52.734375 16.796875 39.40625 
Q 19.671875 43.65625 24.015625 45.921875 
Q 28.375 48.1875 33.59375 48.1875 
Q 44.578125 48.1875 50.953125 41.515625 
Q 57.328125 34.859375 57.328125 23.390625 
Q 57.328125 12.15625 50.6875 5.359375 
Q 44.046875 -1.421875 33.015625 -1.421875 
Q 20.359375 -1.421875 13.671875 8.265625 
Q 6.984375 17.96875 6.984375 36.375 
Q 6.984375 53.65625 15.1875 63.9375 
Q 23.390625 74.21875 37.203125 74.21875 
Q 40.921875 74.21875 44.703125 73.484375 
Q 48.484375 72.75 52.59375 71.296875 
z
" id="DejaVuSans-54"/>
      </defs>
      <use transform="translate(0 0.684375)" xlink:href="#DejaVuSans-Oblique-968"/>
      <use transform="translate(70.432943 38.965625)scale(0.7)" xlink:href="#DejaVuSans-Oblique-78"/>
      <use transform="translate(122.796224 38.965625)scale(0.7)" xlink:href="#DejaVuSans-Oblique-85"/>
      <use transform="translate(174.031576 38.965625)scale(0.7)" xlink:href="#DejaVuSans-Oblique-77"/>
      <use transform="translate(65.966797 -26.659375)scale(0.7)" xlink:href="#DejaVuSans-54"/>
      <use transform="translate(110.50293 -26.659375)scale(0.7)" xlink:href="#DejaVuSans-50"/>
     </g>
    </g>
    <g id="line2d_20">
     <path d="M 190.32 72.24 
L 214.32 72.24 
" style="fill:none;stroke:#ff7f0e;stroke-linecap:square;stroke-width:1.5;"/>
    </g>
    <g id="line2d_21"/>
    <g id="text_20">
     <!-- $\psi^{TH}_{62}$ -->
     <g transform="translate(223.92 76.44)scale(0.12 -0.12)">
      <defs>
       <path d="M 5.90625 72.90625 
L 67.578125 72.90625 
L 66.015625 64.59375 
L 39.984375 64.59375 
L 27.484375 0 
L 17.578125 0 
L 30.078125 64.59375 
L 4.296875 64.59375 
z
" id="DejaVuSans-Oblique-84"/>
       <path d="M 16.890625 72.90625 
L 26.8125 72.90625 
L 21 43.015625 
L 56.78125 43.015625 
L 62.59375 72.90625 
L 72.515625 72.90625 
L 58.296875 0 
L 48.390625 0 
L 55.171875 34.71875 
L 19.390625 34.71875 
L 12.59375 0 
L 2.6875 0 
z
" id="DejaVuSans-Oblique-72"/>
      </defs>
      <use transform="translate(0 0.684375)" xlink:href="#DejaVuSans-Oblique-968"/>
      <use transform="translate(70.432943 38.965625)scale(0.7)" xlink:href="#DejaVuSans-Oblique-84"/>
      <use transform="translate(113.191732 38.965625)scale(0.7)" xlink:href="#DejaVuSans-Oblique-72"/>
      <use transform="translate(65.966797 -26.659375)scale(0.7)" xlink:href="#DejaVuSans-54"/>
      <use transform="translate(110.50293 -26.659375)scale(0.7)" xlink:href="#DejaVuSans-50"/>
     </g>
    </g>
   </g>
  </g>
 </g>
 <defs>
  <clipPath id="pb13b0d66ef">
   <rect height="217.44" width="334.8" x="54" y="34.56"/>
  </clipPath>
 </defs>
</svg>
