<?xml version="1.0" encoding="utf-8" standalone="no"?>
<!DOCTYPE svg PUBLIC "-//W3C//DTD SVG 1.1//EN"
  "http://www.w3.org/Graphics/SVG/1.1/DTD/svg11.dtd">
<!-- Created with matplotlib (https://matplotlib.org/) -->
<svg height="288pt" version="1.1" viewBox="0 0 432 288" width="432pt" xmlns="http://www.w3.org/2000/svg" xmlns:xlink="http://www.w3.org/1999/xlink">
 <metadata>
  <rdf:RDF xmlns:cc="http://creativecommons.org/ns#" xmlns:dc="http://purl.org/dc/elements/1.1/" xmlns:rdf="http://www.w3.org/1999/02/22-rdf-syntax-ns#">
   <cc:Work>
    <dc:type rdf:resource="http://purl.org/dc/dcmitype/StillImage"/>
    <dc:date>2021-11-23T18:22:59.651639</dc:date>
    <dc:format>image/svg+xml</dc:format>
    <dc:creator>
     <cc:Agent>
      <dc:title>Matplotlib v3.3.4, https://matplotlib.org/</dc:title>
     </cc:Agent>
    </dc:creator>
   </cc:Work>
  </rdf:RDF>
 </metadata>
 <defs>
  <style type="text/css">*{stroke-linecap:butt;stroke-linejoin:round;}</style>
 </defs>
 <g id="figure_1">
  <g id="patch_1">
   <path d="M 0 288 
L 432 288 
L 432 0 
L 0 0 
z
" style="fill:none;"/>
  </g>
  <g id="axes_1">
   <g id="patch_2">
    <path d="M 54 252 
L 388.8 252 
L 388.8 34.56 
L 54 34.56 
z
" style="fill:#ffffff;"/>
   </g>
   <g id="matplotlib.axis_1">
    <g id="xtick_1">
     <g id="line2d_1">
      <defs>
       <path d="M 0 0 
L 0 3.5 
" id="ma4523af868" style="stroke:#000000;stroke-width:0.8;"/>
      </defs>
      <g>
       <use style="stroke:#000000;stroke-width:0.8;" x="54" xlink:href="#ma4523af868" y="252"/>
      </g>
     </g>
     <g id="text_1">
      <!-- −10.0 -->
      <g transform="translate(38.677344 266.598437)scale(0.1 -0.1)">
       <defs>
        <path d="M 10.59375 35.5 
L 73.1875 35.5 
L 73.1875 27.203125 
L 10.59375 27.203125 
z
" id="DejaVuSans-8722"/>
        <path d="M 12.40625 8.296875 
L 28.515625 8.296875 
L 28.515625 63.921875 
L 10.984375 60.40625 
L 10.984375 69.390625 
L 28.421875 72.90625 
L 38.28125 72.90625 
L 38.28125 8.296875 
L 54.390625 8.296875 
L 54.390625 0 
L 12.40625 0 
z
" id="DejaVuSans-49"/>
        <path d="M 31.78125 66.40625 
Q 24.171875 66.40625 20.328125 58.90625 
Q 16.5 51.421875 16.5 36.375 
Q 16.5 21.390625 20.328125 13.890625 
Q 24.171875 6.390625 31.78125 6.390625 
Q 39.453125 6.390625 43.28125 13.890625 
Q 47.125 21.390625 47.125 36.375 
Q 47.125 51.421875 43.28125 58.90625 
Q 39.453125 66.40625 31.78125 66.40625 
z
M 31.78125 74.21875 
Q 44.046875 74.21875 50.515625 64.515625 
Q 56.984375 54.828125 56.984375 36.375 
Q 56.984375 17.96875 50.515625 8.265625 
Q 44.046875 -1.421875 31.78125 -1.421875 
Q 19.53125 -1.421875 13.0625 8.265625 
Q 6.59375 17.96875 6.59375 36.375 
Q 6.59375 54.828125 13.0625 64.515625 
Q 19.53125 74.21875 31.78125 74.21875 
z
" id="DejaVuSans-48"/>
        <path d="M 10.6875 12.40625 
L 21 12.40625 
L 21 0 
L 10.6875 0 
z
" id="DejaVuSans-46"/>
       </defs>
       <use xlink:href="#DejaVuSans-8722"/>
       <use x="83.789062" xlink:href="#DejaVuSans-49"/>
       <use x="147.412109" xlink:href="#DejaVuSans-48"/>
       <use x="211.035156" xlink:href="#DejaVuSans-46"/>
       <use x="242.822266" xlink:href="#DejaVuSans-48"/>
      </g>
     </g>
    </g>
    <g id="xtick_2">
     <g id="line2d_2">
      <g>
       <use style="stroke:#000000;stroke-width:0.8;" x="95.85" xlink:href="#ma4523af868" y="252"/>
      </g>
     </g>
     <g id="text_2">
      <!-- −7.5 -->
      <g transform="translate(83.708594 266.598437)scale(0.1 -0.1)">
       <defs>
        <path d="M 8.203125 72.90625 
L 55.078125 72.90625 
L 55.078125 68.703125 
L 28.609375 0 
L 18.3125 0 
L 43.21875 64.59375 
L 8.203125 64.59375 
z
" id="DejaVuSans-55"/>
        <path d="M 10.796875 72.90625 
L 49.515625 72.90625 
L 49.515625 64.59375 
L 19.828125 64.59375 
L 19.828125 46.734375 
Q 21.96875 47.46875 24.109375 47.828125 
Q 26.265625 48.1875 28.421875 48.1875 
Q 40.625 48.1875 47.75 41.5 
Q 54.890625 34.8125 54.890625 23.390625 
Q 54.890625 11.625 47.5625 5.09375 
Q 40.234375 -1.421875 26.90625 -1.421875 
Q 22.3125 -1.421875 17.546875 -0.640625 
Q 12.796875 0.140625 7.71875 1.703125 
L 7.71875 11.625 
Q 12.109375 9.234375 16.796875 8.0625 
Q 21.484375 6.890625 26.703125 6.890625 
Q 35.15625 6.890625 40.078125 11.328125 
Q 45.015625 15.765625 45.015625 23.390625 
Q 45.015625 31 40.078125 35.4375 
Q 35.15625 39.890625 26.703125 39.890625 
Q 22.75 39.890625 18.8125 39.015625 
Q 14.890625 38.140625 10.796875 36.28125 
z
" id="DejaVuSans-53"/>
       </defs>
       <use xlink:href="#DejaVuSans-8722"/>
       <use x="83.789062" xlink:href="#DejaVuSans-55"/>
       <use x="147.412109" xlink:href="#DejaVuSans-46"/>
       <use x="179.199219" xlink:href="#DejaVuSans-53"/>
      </g>
     </g>
    </g>
    <g id="xtick_3">
     <g id="line2d_3">
      <g>
       <use style="stroke:#000000;stroke-width:0.8;" x="137.7" xlink:href="#ma4523af868" y="252"/>
      </g>
     </g>
     <g id="text_3">
      <!-- −5.0 -->
      <g transform="translate(125.558594 266.598437)scale(0.1 -0.1)">
       <use xlink:href="#DejaVuSans-8722"/>
       <use x="83.789062" xlink:href="#DejaVuSans-53"/>
       <use x="147.412109" xlink:href="#DejaVuSans-46"/>
       <use x="179.199219" xlink:href="#DejaVuSans-48"/>
      </g>
     </g>
    </g>
    <g id="xtick_4">
     <g id="line2d_4">
      <g>
       <use style="stroke:#000000;stroke-width:0.8;" x="179.55" xlink:href="#ma4523af868" y="252"/>
      </g>
     </g>
     <g id="text_4">
      <!-- −2.5 -->
      <g transform="translate(167.408594 266.598437)scale(0.1 -0.1)">
       <defs>
        <path d="M 19.1875 8.296875 
L 53.609375 8.296875 
L 53.609375 0 
L 7.328125 0 
L 7.328125 8.296875 
Q 12.9375 14.109375 22.625 23.890625 
Q 32.328125 33.6875 34.8125 36.53125 
Q 39.546875 41.84375 41.421875 45.53125 
Q 43.3125 49.21875 43.3125 52.78125 
Q 43.3125 58.59375 39.234375 62.25 
Q 35.15625 65.921875 28.609375 65.921875 
Q 23.96875 65.921875 18.8125 64.3125 
Q 13.671875 62.703125 7.8125 59.421875 
L 7.8125 69.390625 
Q 13.765625 71.78125 18.9375 73 
Q 24.125 74.21875 28.421875 74.21875 
Q 39.75 74.21875 46.484375 68.546875 
Q 53.21875 62.890625 53.21875 53.421875 
Q 53.21875 48.921875 51.53125 44.890625 
Q 49.859375 40.875 45.40625 35.40625 
Q 44.1875 33.984375 37.640625 27.21875 
Q 31.109375 20.453125 19.1875 8.296875 
z
" id="DejaVuSans-50"/>
       </defs>
       <use xlink:href="#DejaVuSans-8722"/>
       <use x="83.789062" xlink:href="#DejaVuSans-50"/>
       <use x="147.412109" xlink:href="#DejaVuSans-46"/>
       <use x="179.199219" xlink:href="#DejaVuSans-53"/>
      </g>
     </g>
    </g>
    <g id="xtick_5">
     <g id="line2d_5">
      <g>
       <use style="stroke:#000000;stroke-width:0.8;" x="221.4" xlink:href="#ma4523af868" y="252"/>
      </g>
     </g>
     <g id="text_5">
      <!-- 0.0 -->
      <g transform="translate(213.448438 266.598437)scale(0.1 -0.1)">
       <use xlink:href="#DejaVuSans-48"/>
       <use x="63.623047" xlink:href="#DejaVuSans-46"/>
       <use x="95.410156" xlink:href="#DejaVuSans-48"/>
      </g>
     </g>
    </g>
    <g id="xtick_6">
     <g id="line2d_6">
      <g>
       <use style="stroke:#000000;stroke-width:0.8;" x="263.25" xlink:href="#ma4523af868" y="252"/>
      </g>
     </g>
     <g id="text_6">
      <!-- 2.5 -->
      <g transform="translate(255.298438 266.598437)scale(0.1 -0.1)">
       <use xlink:href="#DejaVuSans-50"/>
       <use x="63.623047" xlink:href="#DejaVuSans-46"/>
       <use x="95.410156" xlink:href="#DejaVuSans-53"/>
      </g>
     </g>
    </g>
    <g id="xtick_7">
     <g id="line2d_7">
      <g>
       <use style="stroke:#000000;stroke-width:0.8;" x="305.1" xlink:href="#ma4523af868" y="252"/>
      </g>
     </g>
     <g id="text_7">
      <!-- 5.0 -->
      <g transform="translate(297.148438 266.598437)scale(0.1 -0.1)">
       <use xlink:href="#DejaVuSans-53"/>
       <use x="63.623047" xlink:href="#DejaVuSans-46"/>
       <use x="95.410156" xlink:href="#DejaVuSans-48"/>
      </g>
     </g>
    </g>
    <g id="xtick_8">
     <g id="line2d_8">
      <g>
       <use style="stroke:#000000;stroke-width:0.8;" x="346.95" xlink:href="#ma4523af868" y="252"/>
      </g>
     </g>
     <g id="text_8">
      <!-- 7.5 -->
      <g transform="translate(338.998438 266.598437)scale(0.1 -0.1)">
       <use xlink:href="#DejaVuSans-55"/>
       <use x="63.623047" xlink:href="#DejaVuSans-46"/>
       <use x="95.410156" xlink:href="#DejaVuSans-53"/>
      </g>
     </g>
    </g>
    <g id="xtick_9">
     <g id="line2d_9">
      <g>
       <use style="stroke:#000000;stroke-width:0.8;" x="388.8" xlink:href="#ma4523af868" y="252"/>
      </g>
     </g>
     <g id="text_9">
      <!-- 10.0 -->
      <g transform="translate(377.667188 266.598437)scale(0.1 -0.1)">
       <use xlink:href="#DejaVuSans-49"/>
       <use x="63.623047" xlink:href="#DejaVuSans-48"/>
       <use x="127.246094" xlink:href="#DejaVuSans-46"/>
       <use x="159.033203" xlink:href="#DejaVuSans-48"/>
      </g>
     </g>
    </g>
    <g id="text_10">
     <!-- x -->
     <g transform="translate(218.440625 280.276563)scale(0.1 -0.1)">
      <defs>
       <path d="M 54.890625 54.6875 
L 35.109375 28.078125 
L 55.90625 0 
L 45.3125 0 
L 29.390625 21.484375 
L 13.484375 0 
L 2.875 0 
L 24.125 28.609375 
L 4.6875 54.6875 
L 15.28125 54.6875 
L 29.78125 35.203125 
L 44.28125 54.6875 
z
" id="DejaVuSans-120"/>
      </defs>
      <use xlink:href="#DejaVuSans-120"/>
     </g>
    </g>
   </g>
   <g id="matplotlib.axis_2">
    <g id="ytick_1">
     <g id="line2d_10">
      <defs>
       <path d="M 0 0 
L -3.5 0 
" id="m5f3ebeda4b" style="stroke:#000000;stroke-width:0.8;"/>
      </defs>
      <g>
       <use style="stroke:#000000;stroke-width:0.8;" x="54" xlink:href="#m5f3ebeda4b" y="232.729733"/>
      </g>
     </g>
     <g id="text_11">
      <!-- −1.0 -->
      <g transform="translate(22.717187 236.528951)scale(0.1 -0.1)">
       <use xlink:href="#DejaVuSans-8722"/>
       <use x="83.789062" xlink:href="#DejaVuSans-49"/>
       <use x="147.412109" xlink:href="#DejaVuSans-46"/>
       <use x="179.199219" xlink:href="#DejaVuSans-48"/>
      </g>
     </g>
    </g>
    <g id="ytick_2">
     <g id="line2d_11">
      <g>
       <use style="stroke:#000000;stroke-width:0.8;" x="54" xlink:href="#m5f3ebeda4b" y="193.973391"/>
      </g>
     </g>
     <g id="text_12">
      <!-- −0.5 -->
      <g transform="translate(22.717187 197.77261)scale(0.1 -0.1)">
       <use xlink:href="#DejaVuSans-8722"/>
       <use x="83.789062" xlink:href="#DejaVuSans-48"/>
       <use x="147.412109" xlink:href="#DejaVuSans-46"/>
       <use x="179.199219" xlink:href="#DejaVuSans-53"/>
      </g>
     </g>
    </g>
    <g id="ytick_3">
     <g id="line2d_12">
      <g>
       <use style="stroke:#000000;stroke-width:0.8;" x="54" xlink:href="#m5f3ebeda4b" y="155.217049"/>
      </g>
     </g>
     <g id="text_13">
      <!-- 0.0 -->
      <g transform="translate(31.096875 159.016268)scale(0.1 -0.1)">
       <use xlink:href="#DejaVuSans-48"/>
       <use x="63.623047" xlink:href="#DejaVuSans-46"/>
       <use x="95.410156" xlink:href="#DejaVuSans-48"/>
      </g>
     </g>
    </g>
    <g id="ytick_4">
     <g id="line2d_13">
      <g>
       <use style="stroke:#000000;stroke-width:0.8;" x="54" xlink:href="#m5f3ebeda4b" y="116.460707"/>
      </g>
     </g>
     <g id="text_14">
      <!-- 0.5 -->
      <g transform="translate(31.096875 120.259926)scale(0.1 -0.1)">
       <use xlink:href="#DejaVuSans-48"/>
       <use x="63.623047" xlink:href="#DejaVuSans-46"/>
       <use x="95.410156" xlink:href="#DejaVuSans-53"/>
      </g>
     </g>
    </g>
    <g id="ytick_5">
     <g id="line2d_14">
      <g>
       <use style="stroke:#000000;stroke-width:0.8;" x="54" xlink:href="#m5f3ebeda4b" y="77.704365"/>
      </g>
     </g>
     <g id="text_15">
      <!-- 1.0 -->
      <g transform="translate(31.096875 81.503584)scale(0.1 -0.1)">
       <use xlink:href="#DejaVuSans-49"/>
       <use x="63.623047" xlink:href="#DejaVuSans-46"/>
       <use x="95.410156" xlink:href="#DejaVuSans-48"/>
      </g>
     </g>
    </g>
    <g id="ytick_6">
     <g id="line2d_15">
      <g>
       <use style="stroke:#000000;stroke-width:0.8;" x="54" xlink:href="#m5f3ebeda4b" y="38.948023"/>
      </g>
     </g>
     <g id="text_16">
      <!-- 1.5 -->
      <g transform="translate(31.096875 42.747242)scale(0.1 -0.1)">
       <use xlink:href="#DejaVuSans-49"/>
       <use x="63.623047" xlink:href="#DejaVuSans-46"/>
       <use x="95.410156" xlink:href="#DejaVuSans-53"/>
      </g>
     </g>
    </g>
    <g id="text_17">
     <!-- 1e−1 -->
     <g transform="translate(54 31.56)scale(0.1 -0.1)">
      <defs>
       <path d="M 56.203125 29.59375 
L 56.203125 25.203125 
L 14.890625 25.203125 
Q 15.484375 15.921875 20.484375 11.0625 
Q 25.484375 6.203125 34.421875 6.203125 
Q 39.59375 6.203125 44.453125 7.46875 
Q 49.3125 8.734375 54.109375 11.28125 
L 54.109375 2.78125 
Q 49.265625 0.734375 44.1875 -0.34375 
Q 39.109375 -1.421875 33.890625 -1.421875 
Q 20.796875 -1.421875 13.15625 6.1875 
Q 5.515625 13.8125 5.515625 26.8125 
Q 5.515625 40.234375 12.765625 48.109375 
Q 20.015625 56 32.328125 56 
Q 43.359375 56 49.78125 48.890625 
Q 56.203125 41.796875 56.203125 29.59375 
z
M 47.21875 32.234375 
Q 47.125 39.59375 43.09375 43.984375 
Q 39.0625 48.390625 32.421875 48.390625 
Q 24.90625 48.390625 20.390625 44.140625 
Q 15.875 39.890625 15.1875 32.171875 
z
" id="DejaVuSans-101"/>
      </defs>
      <use xlink:href="#DejaVuSans-49"/>
      <use x="63.623047" xlink:href="#DejaVuSans-101"/>
      <use x="125.146484" xlink:href="#DejaVuSans-8722"/>
      <use x="208.935547" xlink:href="#DejaVuSans-49"/>
     </g>
    </g>
   </g>
   <g id="line2d_16">
    <path clip-path="url(#p55ea83d7e7)" d="M -1 155.216925 
L 15.498 155.111267 
L 18.846 154.878003 
L 20.52 154.627878 
L 22.194 154.214154 
L 23.868 153.545922 
L 25.542 152.493206 
L 27.216 150.877815 
L 28.89 148.467154 
L 30.564 144.975334 
L 32.238 140.077592 
L 33.912 133.445257 
L 35.586 124.808302 
L 37.26 114.049594 
L 38.934 101.328259 
L 43.956 59.878988 
L 45.63 50.619344 
L 47.304 47.617341 
L 48.978 53.301437 
L 50.652 69.322409 
L 52.326 95.816171 
L 54 130.758264 
L 55.674 169.670649 
L 57.348 205.949217 
L 59.022 231.983655 
L 60.696 241.019985 
L 62.37 229.401338 
L 64.044 198.5077 
L 67.392 112.489585 
L 69.066 82.930037 
L 70.74 77.530674 
L 72.414 99.502225 
L 74.088 142.100845 
L 75.762 189.787579 
L 77.436 223.458529 
L 79.11 228.282061 
L 80.784 200.969716 
L 84.132 105.714961 
L 85.806 82.921314 
L 87.48 96.725621 
L 89.154 141.081509 
L 90.828 193.045509 
L 92.502 224.055348 
L 94.176 215.86689 
L 95.85 172.214912 
L 97.524 118.367177 
L 99.198 87.172011 
L 100.872 98.806151 
L 102.546 146.764717 
L 104.22 200.286825 
L 105.894 223.507361 
L 107.568 199.865313 
L 109.242 144.97279 
L 110.916 97.388783 
L 112.59 91.830071 
L 114.264 133.166679 
L 115.938 191.101172 
L 117.612 221.569027 
L 119.286 200.419969 
L 120.96 143.550401 
L 122.634 96.041286 
L 124.308 96.714605 
L 125.982 145.70661 
L 127.656 202.662902 
L 129.33 219.350675 
L 131.004 180.894702 
L 132.678 120.080536 
L 134.352 90.236599 
L 136.026 118.350396 
L 137.7 179.726234 
L 139.374 218.741711 
L 141.048 199.173102 
L 142.722 138.640711 
L 144.396 93.71371 
L 146.07 107.259517 
L 147.744 166.8362 
L 149.418 215.157112 
L 151.092 204.891054 
L 152.766 145.650121 
L 154.44 95.920875 
L 156.114 105.625713 
L 157.788 165.429002 
L 159.462 214.837279 
L 161.136 203.109437 
L 162.81 141.921893 
L 164.484 94.558996 
L 166.158 110.688448 
L 167.832 173.725478 
L 169.506 217.144947 
L 171.18 194.535295 
L 172.854 129.763674 
L 174.528 92.436537 
L 176.202 123.158819 
L 177.876 188.80616 
L 179.55 217.682639 
L 181.224 177.857851 
L 182.898 113.021184 
L 184.572 94.997701 
L 186.246 144.054105 
L 187.92 205.593201 
L 189.594 210.593842 
L 192.942 98.109385 
L 194.616 107.718358 
L 196.29 171.320319 
L 197.964 216.567358 
L 199.638 191.707811 
L 201.312 125.050805 
L 202.986 93.022408 
L 204.66 132.531887 
L 206.334 198.182063 
L 208.008 214.240911 
L 209.682 162.072554 
L 211.356 101.969459 
L 213.03 103.565719 
L 214.704 165.068523 
L 216.378 215.136468 
L 218.052 195.612452 
L 219.726 129.151973 
L 221.4 92.984999 
L 223.074 129.151942 
L 224.748 195.612426 
L 226.422 215.136477 
L 228.096 165.068557 
L 229.77 103.565738 
L 231.444 101.969442 
L 233.118 162.072521 
L 234.792 214.240901 
L 236.466 198.182088 
L 238.14 132.531918 
L 239.814 93.02241 
L 241.488 125.050775 
L 243.162 191.707784 
L 244.836 216.567364 
L 246.51 171.320352 
L 248.184 107.71838 
L 249.858 98.109371 
L 253.206 210.593826 
L 254.88 205.593221 
L 256.554 144.054138 
L 258.228 94.99771 
L 259.902 113.021159 
L 261.576 177.857819 
L 263.25 217.682636 
L 264.924 188.806189 
L 266.598 123.158848 
L 268.272 92.436535 
L 269.946 129.763642 
L 271.62 194.535268 
L 273.294 217.144954 
L 274.968 173.72551 
L 276.642 110.688473 
L 278.316 94.558986 
L 279.99 141.92186 
L 281.664 203.109414 
L 283.338 214.837291 
L 285.012 165.429036 
L 286.686 105.625734 
L 288.36 95.920862 
L 290.034 145.650087 
L 291.708 204.891033 
L 293.382 215.157124 
L 295.056 166.836234 
L 296.73 107.25954 
L 298.404 93.7137 
L 300.078 138.640677 
L 301.752 199.173077 
L 303.426 218.741717 
L 305.1 179.726267 
L 306.774 118.350425 
L 308.448 90.236598 
L 310.122 120.080506 
L 311.796 180.89467 
L 313.47 219.350668 
L 315.144 202.662927 
L 316.818 145.706645 
L 318.492 96.714621 
L 320.166 96.04127 
L 321.84 143.550366 
L 323.514 200.419942 
L 325.188 221.56903 
L 326.862 191.101202 
L 328.536 133.166713 
L 330.21 91.830083 
L 331.884 97.388765 
L 333.558 144.972753 
L 335.232 199.865285 
L 336.906 223.507361 
L 338.58 200.286853 
L 340.254 146.764754 
L 341.928 98.806175 
L 343.602 87.172007 
L 345.276 118.367147 
L 346.95 172.214863 
L 348.624 215.866852 
L 350.298 224.055324 
L 351.972 193.045513 
L 353.646 141.081539 
L 355.32 96.725656 
L 356.994 82.921336 
L 358.668 105.714981 
L 362.016 200.969708 
L 363.69 228.282055 
L 365.364 223.458527 
L 367.038 189.78754 
L 368.712 142.100786 
L 370.386 99.502167 
L 372.06 77.530623 
L 373.734 82.93001 
L 375.408 112.489613 
L 378.756 198.507799 
L 380.43 229.40146 
L 382.104 241.020098 
L 383.778 231.983707 
L 385.452 205.949218 
L 387.126 169.670584 
L 388.8 130.75815 
L 390.474 95.816026 
L 392.148 69.322271 
L 393.822 53.301298 
L 395.496 47.617245 
L 397.17 50.619234 
L 398.844 59.87887 
L 400.518 72.830567 
L 403.866 101.328192 
L 405.54 114.049531 
L 407.214 124.808241 
L 408.888 133.445212 
L 410.562 140.077558 
L 412.236 144.975313 
L 413.91 148.46714 
L 415.584 150.877805 
L 417.258 152.4932 
L 418.932 153.545918 
L 420.606 154.214152 
L 422.28 154.627876 
L 425.628 155.025813 
L 430.65 155.186461 
L 433 155.204185 
L 433 155.204185 
" style="fill:none;stroke:#1f77b4;stroke-linecap:square;stroke-width:1.5;"/>
   </g>
   <g id="line2d_17">
    <path clip-path="url(#p55ea83d7e7)" d="M -1 155.216508 
L 12.15 155.103933 
L 15.498 154.848936 
L 17.172 154.573524 
L 18.846 154.116218 
L 20.52 153.375585 
L 22.194 152.206981 
L 23.868 150.413048 
L 25.542 147.73811 
L 27.216 143.871512 
L 28.89 138.466669 
L 30.564 131.183677 
L 32.238 121.76252 
L 33.912 110.129946 
L 35.586 96.53466 
L 38.934 66.903303 
L 40.608 54.094456 
L 42.282 45.71592 
L 43.956 44.443636 
L 45.63 52.660135 
L 47.304 71.754027 
L 48.978 101.364482 
L 50.652 138.788354 
L 52.326 178.826026 
L 54 214.322287 
L 55.674 237.523473 
L 57.348 242.116364 
L 59.022 225.487424 
L 60.696 190.454724 
L 62.37 145.632017 
L 64.044 103.821922 
L 65.718 78.442966 
L 67.392 78.844391 
L 69.066 106.139351 
L 72.414 198.115732 
L 74.088 227.329862 
L 75.762 226.213764 
L 77.436 194.175806 
L 79.11 144.640027 
L 80.784 100.192019 
L 82.458 82.441039 
L 84.132 100.993239 
L 85.806 147.320799 
L 87.48 197.688188 
L 89.154 224.868205 
L 90.828 213.17309 
L 92.502 168.402058 
L 94.176 116.034713 
L 95.85 87.274598 
L 97.524 100.204054 
L 99.198 147.528076 
L 100.872 199.644184 
L 102.546 222.670856 
L 104.22 200.817077 
L 105.894 148.146453 
L 107.568 100.47663 
L 109.242 91.311139 
L 110.916 127.743903 
L 112.59 184.00591 
L 114.264 218.941895 
L 115.938 206.16081 
L 119.286 103.82458 
L 120.96 93.091765 
L 122.634 131.499278 
L 124.308 188.822107 
L 125.982 218.774158 
L 127.656 196.493515 
L 129.33 139.974117 
L 131.004 96.370383 
L 132.678 102.834757 
L 136.026 206.419073 
L 137.7 213.619188 
L 139.374 169.131384 
L 141.048 112.292991 
L 142.722 94.244322 
L 144.396 131.676901 
L 146.07 190.640866 
L 147.744 216.744801 
L 149.418 185.437389 
L 151.092 125.779177 
L 152.766 94.084306 
L 154.44 120.744904 
L 156.114 180.48043 
L 157.788 215.698162 
L 159.462 191.983662 
L 161.136 132.275278 
L 162.81 95.262846 
L 164.484 117.760358 
L 166.158 177.594789 
L 167.832 214.911107 
L 169.506 191.984403 
L 171.18 131.812769 
L 172.854 95.548902 
L 174.528 120.399326 
L 176.202 181.027752 
L 177.876 214.938775 
L 179.55 186.874444 
L 181.224 125.867513 
L 182.898 95.596451 
L 184.572 127.910073 
L 186.246 188.951913 
L 187.92 214.305723 
L 189.594 177.013914 
L 191.268 116.57587 
L 192.942 97.373414 
L 194.616 140.017054 
L 196.29 198.925693 
L 197.964 210.848838 
L 199.638 162.871971 
L 201.312 106.659414 
L 202.986 102.956235 
L 206.334 208.02962 
L 208.008 202.844333 
L 209.682 145.868305 
L 211.356 99.084617 
L 213.03 113.481957 
L 214.704 173.395909 
L 216.378 213.460381 
L 218.052 189.918374 
L 219.726 128.469254 
L 221.4 96.24954 
L 223.074 128.469254 
L 224.748 189.918374 
L 226.422 213.460381 
L 228.096 173.395909 
L 229.77 113.481957 
L 231.444 99.084617 
L 233.118 145.868305 
L 234.792 202.844333 
L 236.466 208.02962 
L 239.814 102.956235 
L 241.488 106.659414 
L 243.162 162.871971 
L 244.836 210.848838 
L 246.51 198.925693 
L 248.184 140.017054 
L 249.858 97.373414 
L 251.532 116.57587 
L 253.206 177.013914 
L 254.88 214.305723 
L 256.554 188.951913 
L 258.228 127.910073 
L 259.902 95.596451 
L 261.576 125.867513 
L 263.25 186.874444 
L 264.924 214.938775 
L 266.598 181.027752 
L 268.272 120.399326 
L 269.946 95.548902 
L 271.62 131.812769 
L 273.294 191.984403 
L 274.968 214.911107 
L 276.642 177.594789 
L 278.316 117.760358 
L 279.99 95.262846 
L 281.664 132.275278 
L 283.338 191.983662 
L 285.012 215.698162 
L 286.686 180.48043 
L 288.36 120.744904 
L 290.034 94.084306 
L 291.708 125.779177 
L 293.382 185.437389 
L 295.056 216.744801 
L 296.73 190.640866 
L 298.404 131.676901 
L 300.078 94.244322 
L 301.752 112.292991 
L 303.426 169.131384 
L 305.1 213.619188 
L 306.774 206.419073 
L 310.122 102.834757 
L 311.796 96.370383 
L 313.47 139.974117 
L 315.144 196.493515 
L 316.818 218.774158 
L 318.492 188.822107 
L 320.166 131.499278 
L 321.84 93.091765 
L 323.514 103.82458 
L 326.862 206.16081 
L 328.536 218.941895 
L 330.21 184.00591 
L 331.884 127.743903 
L 333.558 91.311139 
L 335.232 100.47663 
L 336.906 148.146453 
L 338.58 200.817077 
L 340.254 222.670856 
L 341.928 199.644184 
L 343.602 147.528076 
L 345.276 100.204054 
L 346.95 87.274598 
L 348.624 116.034713 
L 350.298 168.402058 
L 351.972 213.17309 
L 353.646 224.868205 
L 355.32 197.688188 
L 356.994 147.320799 
L 358.668 100.993239 
L 360.342 82.441039 
L 362.016 100.192019 
L 363.69 144.640027 
L 365.364 194.175806 
L 367.038 226.213764 
L 368.712 227.329862 
L 370.386 198.115732 
L 373.734 106.139351 
L 375.408 78.844391 
L 377.082 78.442966 
L 378.756 103.821922 
L 380.43 145.632017 
L 382.104 190.454724 
L 383.778 225.487424 
L 385.452 242.116364 
L 387.126 237.523473 
L 388.8 214.322287 
L 390.474 178.826026 
L 393.822 101.364482 
L 395.496 71.754027 
L 397.17 52.660135 
L 398.844 44.443636 
L 400.518 45.71592 
L 402.192 54.094456 
L 403.866 66.903303 
L 407.214 96.53466 
L 408.888 110.129946 
L 410.562 121.76252 
L 412.236 131.183677 
L 413.91 138.466669 
L 415.584 143.871512 
L 417.258 147.73811 
L 418.932 150.413048 
L 420.606 152.206981 
L 422.28 153.375585 
L 423.954 154.116218 
L 425.628 154.573524 
L 427.302 154.848936 
L 430.65 155.103933 
L 433 155.167834 
L 433 155.167834 
" style="fill:none;stroke:#ff7f0e;stroke-linecap:square;stroke-width:1.5;"/>
   </g>
   <g id="patch_3">
    <path d="M 54 252 
L 54 34.56 
" style="fill:none;stroke:#000000;stroke-linecap:square;stroke-linejoin:miter;stroke-width:0.8;"/>
   </g>
   <g id="patch_4">
    <path d="M 388.8 252 
L 388.8 34.56 
" style="fill:none;stroke:#000000;stroke-linecap:square;stroke-linejoin:miter;stroke-width:0.8;"/>
   </g>
   <g id="patch_5">
    <path d="M 54 252 
L 388.8 252 
" style="fill:none;stroke:#000000;stroke-linecap:square;stroke-linejoin:miter;stroke-width:0.8;"/>
   </g>
   <g id="patch_6">
    <path d="M 54 34.56 
L 388.8 34.56 
" style="fill:none;stroke:#000000;stroke-linecap:square;stroke-linejoin:miter;stroke-width:0.8;"/>
   </g>
   <g id="text_18">
    <!-- N=500, L=50 -->
    <g transform="translate(180.61125 28.56)scale(0.12 -0.12)">
     <defs>
      <path d="M 9.8125 72.90625 
L 23.09375 72.90625 
L 55.421875 11.921875 
L 55.421875 72.90625 
L 64.984375 72.90625 
L 64.984375 0 
L 51.703125 0 
L 19.390625 60.984375 
L 19.390625 0 
L 9.8125 0 
z
" id="DejaVuSans-78"/>
      <path d="M 10.59375 45.40625 
L 73.1875 45.40625 
L 73.1875 37.203125 
L 10.59375 37.203125 
z
M 10.59375 25.484375 
L 73.1875 25.484375 
L 73.1875 17.1875 
L 10.59375 17.1875 
z
" id="DejaVuSans-61"/>
      <path d="M 11.71875 12.40625 
L 22.015625 12.40625 
L 22.015625 4 
L 14.015625 -11.625 
L 7.71875 -11.625 
L 11.71875 4 
z
" id="DejaVuSans-44"/>
      <path id="DejaVuSans-32"/>
      <path d="M 9.8125 72.90625 
L 19.671875 72.90625 
L 19.671875 8.296875 
L 55.171875 8.296875 
L 55.171875 0 
L 9.8125 0 
z
" id="DejaVuSans-76"/>
     </defs>
     <use xlink:href="#DejaVuSans-78"/>
     <use x="74.804688" xlink:href="#DejaVuSans-61"/>
     <use x="158.59375" xlink:href="#DejaVuSans-53"/>
     <use x="222.216797" xlink:href="#DejaVuSans-48"/>
     <use x="285.839844" xlink:href="#DejaVuSans-48"/>
     <use x="349.462891" xlink:href="#DejaVuSans-44"/>
     <use x="381.25" xlink:href="#DejaVuSans-32"/>
     <use x="413.037109" xlink:href="#DejaVuSans-76"/>
     <use x="468.75" xlink:href="#DejaVuSans-61"/>
     <use x="552.539062" xlink:href="#DejaVuSans-53"/>
     <use x="616.162109" xlink:href="#DejaVuSans-48"/>
    </g>
   </g>
   <g id="legend_1">
    <g id="patch_7">
     <path d="M 187.92 84.72 
L 254.88 84.72 
Q 257.28 84.72 257.28 82.32 
L 257.28 42.96 
Q 257.28 40.56 254.88 40.56 
L 187.92 40.56 
Q 185.52 40.56 185.52 42.96 
L 185.52 82.32 
Q 185.52 84.72 187.92 84.72 
z
" style="fill:#ffffff;opacity:0.8;stroke:#cccccc;stroke-linejoin:miter;"/>
    </g>
    <g id="line2d_18">
     <path d="M 190.32 51.96 
L 214.32 51.96 
" style="fill:none;stroke:#1f77b4;stroke-linecap:square;stroke-width:1.5;"/>
    </g>
    <g id="line2d_19"/>
    <g id="text_19">
     <!-- $\psi^{NUM}_{60}$ -->
     <g transform="translate(223.92 56.16)scale(0.12 -0.12)">
      <defs>
       <path d="M 24.859375 -1.21875 
Q 13.921875 0.59375 9.625 5.328125 
Q 4.34375 11.140625 6.640625 23 
L 12.796875 54.6875 
L 21.875 54.6875 
L 15.765625 23.34375 
Q 14.0625 14.40625 17.484375 10.6875 
Q 20.515625 7.46875 26.421875 6.78125 
L 35.6875 54.6875 
L 44.625 54.6875 
L 35.359375 6.84375 
Q 41.890625 7.515625 45.75 10.75 
Q 50.734375 14.84375 52.390625 23.390625 
L 58.453125 54.6875 
L 67.53125 54.6875 
L 61.375 23.046875 
Q 58.984375 10.75 51.5625 5.375 
Q 44.875 0.53125 33.796875 -1.171875 
L 29.984375 -20.796875 
L 21.046875 -20.796875 
z
" id="DejaVuSans-Oblique-968"/>
       <path d="M 16.890625 72.90625 
L 30.171875 72.90625 
L 50.296875 10.40625 
L 62.5 72.90625 
L 72.125 72.90625 
L 57.90625 0 
L 44.578125 0 
L 24.515625 62.890625 
L 12.3125 0 
L 2.6875 0 
z
" id="DejaVuSans-Oblique-78"/>
       <path d="M 15.484375 72.90625 
L 25.390625 72.90625 
L 16.796875 28.609375 
Q 16.265625 25.640625 16.046875 23.703125 
Q 15.828125 21.78125 15.828125 20.3125 
Q 15.828125 13.578125 19.578125 10.078125 
Q 23.34375 6.59375 30.609375 6.59375 
Q 40.046875 6.59375 45.28125 11.765625 
Q 50.53125 16.9375 52.78125 28.609375 
L 61.375 72.90625 
L 71.296875 72.90625 
L 62.5 27.390625 
Q 59.625 12.640625 51.5625 5.609375 
Q 43.5 -1.421875 29.5 -1.421875 
Q 18.5625 -1.421875 12.1875 4.078125 
Q 5.8125 9.578125 5.8125 19 
Q 5.8125 20.703125 6.046875 22.828125 
Q 6.296875 24.953125 6.78125 27.390625 
z
" id="DejaVuSans-Oblique-85"/>
       <path d="M 16.890625 72.90625 
L 31.6875 72.90625 
L 40.1875 23.78125 
L 68.40625 72.90625 
L 83.59375 72.90625 
L 69.390625 0 
L 59.8125 0 
L 72.21875 63.921875 
L 43.609375 14.015625 
L 33.984375 14.015625 
L 24.703125 64.109375 
L 12.3125 0 
L 2.6875 0 
z
" id="DejaVuSans-Oblique-77"/>
       <path d="M 33.015625 40.375 
Q 26.375 40.375 22.484375 35.828125 
Q 18.609375 31.296875 18.609375 23.390625 
Q 18.609375 15.53125 22.484375 10.953125 
Q 26.375 6.390625 33.015625 6.390625 
Q 39.65625 6.390625 43.53125 10.953125 
Q 47.40625 15.53125 47.40625 23.390625 
Q 47.40625 31.296875 43.53125 35.828125 
Q 39.65625 40.375 33.015625 40.375 
z
M 52.59375 71.296875 
L 52.59375 62.3125 
Q 48.875 64.0625 45.09375 64.984375 
Q 41.3125 65.921875 37.59375 65.921875 
Q 27.828125 65.921875 22.671875 59.328125 
Q 17.53125 52.734375 16.796875 39.40625 
Q 19.671875 43.65625 24.015625 45.921875 
Q 28.375 48.1875 33.59375 48.1875 
Q 44.578125 48.1875 50.953125 41.515625 
Q 57.328125 34.859375 57.328125 23.390625 
Q 57.328125 12.15625 50.6875 5.359375 
Q 44.046875 -1.421875 33.015625 -1.421875 
Q 20.359375 -1.421875 13.671875 8.265625 
Q 6.984375 17.96875 6.984375 36.375 
Q 6.984375 53.65625 15.1875 63.9375 
Q 23.390625 74.21875 37.203125 74.21875 
Q 40.921875 74.21875 44.703125 73.484375 
Q 48.484375 72.75 52.59375 71.296875 
z
" id="DejaVuSans-54"/>
      </defs>
      <use transform="translate(0 0.684375)" xlink:href="#DejaVuSans-Oblique-968"/>
      <use transform="translate(70.432943 38.965625)scale(0.7)" xlink:href="#DejaVuSans-Oblique-78"/>
      <use transform="translate(122.796224 38.965625)scale(0.7)" xlink:href="#DejaVuSans-Oblique-85"/>
      <use transform="translate(174.031576 38.965625)scale(0.7)" xlink:href="#DejaVuSans-Oblique-77"/>
      <use transform="translate(65.966797 -26.659375)scale(0.7)" xlink:href="#DejaVuSans-54"/>
      <use transform="translate(110.50293 -26.659375)scale(0.7)" xlink:href="#DejaVuSans-48"/>
     </g>
    </g>
    <g id="line2d_20">
     <path d="M 190.32 72.24 
L 214.32 72.24 
" style="fill:none;stroke:#ff7f0e;stroke-linecap:square;stroke-width:1.5;"/>
    </g>
    <g id="line2d_21"/>
    <g id="text_20">
     <!-- $\psi^{TH}_{60}$ -->
     <g transform="translate(223.92 76.44)scale(0.12 -0.12)">
      <defs>
       <path d="M 5.90625 72.90625 
L 67.578125 72.90625 
L 66.015625 64.59375 
L 39.984375 64.59375 
L 27.484375 0 
L 17.578125 0 
L 30.078125 64.59375 
L 4.296875 64.59375 
z
" id="DejaVuSans-Oblique-84"/>
       <path d="M 16.890625 72.90625 
L 26.8125 72.90625 
L 21 43.015625 
L 56.78125 43.015625 
L 62.59375 72.90625 
L 72.515625 72.90625 
L 58.296875 0 
L 48.390625 0 
L 55.171875 34.71875 
L 19.390625 34.71875 
L 12.59375 0 
L 2.6875 0 
z
" id="DejaVuSans-Oblique-72"/>
      </defs>
      <use transform="translate(0 0.684375)" xlink:href="#DejaVuSans-Oblique-968"/>
      <use transform="translate(70.432943 38.965625)scale(0.7)" xlink:href="#DejaVuSans-Oblique-84"/>
      <use transform="translate(113.191732 38.965625)scale(0.7)" xlink:href="#DejaVuSans-Oblique-72"/>
      <use transform="translate(65.966797 -26.659375)scale(0.7)" xlink:href="#DejaVuSans-54"/>
      <use transform="translate(110.50293 -26.659375)scale(0.7)" xlink:href="#DejaVuSans-48"/>
     </g>
    </g>
   </g>
  </g>
 </g>
 <defs>
  <clipPath id="p55ea83d7e7">
   <rect height="217.44" width="334.8" x="54" y="34.56"/>
  </clipPath>
 </defs>
</svg>
