<?xml version="1.0" encoding="utf-8" standalone="no"?>
<!DOCTYPE svg PUBLIC "-//W3C//DTD SVG 1.1//EN"
  "http://www.w3.org/Graphics/SVG/1.1/DTD/svg11.dtd">
<!-- Created with matplotlib (https://matplotlib.org/) -->
<svg height="288pt" version="1.1" viewBox="0 0 432 288" width="432pt" xmlns="http://www.w3.org/2000/svg" xmlns:xlink="http://www.w3.org/1999/xlink">
 <metadata>
  <rdf:RDF xmlns:cc="http://creativecommons.org/ns#" xmlns:dc="http://purl.org/dc/elements/1.1/" xmlns:rdf="http://www.w3.org/1999/02/22-rdf-syntax-ns#">
   <cc:Work>
    <dc:type rdf:resource="http://purl.org/dc/dcmitype/StillImage"/>
    <dc:date>2021-11-23T18:26:15.233176</dc:date>
    <dc:format>image/svg+xml</dc:format>
    <dc:creator>
     <cc:Agent>
      <dc:title>Matplotlib v3.3.4, https://matplotlib.org/</dc:title>
     </cc:Agent>
    </dc:creator>
   </cc:Work>
  </rdf:RDF>
 </metadata>
 <defs>
  <style type="text/css">*{stroke-linecap:butt;stroke-linejoin:round;}</style>
 </defs>
 <g id="figure_1">
  <g id="patch_1">
   <path d="M 0 288 
L 432 288 
L 432 0 
L 0 0 
z
" style="fill:none;"/>
  </g>
  <g id="axes_1">
   <g id="patch_2">
    <path d="M 54 252 
L 388.8 252 
L 388.8 34.56 
L 54 34.56 
z
" style="fill:#ffffff;"/>
   </g>
   <g id="matplotlib.axis_1">
    <g id="xtick_1">
     <g id="line2d_1">
      <defs>
       <path d="M 0 0 
L 0 3.5 
" id="m26bdbf0180" style="stroke:#000000;stroke-width:0.8;"/>
      </defs>
      <g>
       <use style="stroke:#000000;stroke-width:0.8;" x="54" xlink:href="#m26bdbf0180" y="252"/>
      </g>
     </g>
     <g id="text_1">
      <!-- −10.0 -->
      <g transform="translate(38.677344 266.598437)scale(0.1 -0.1)">
       <defs>
        <path d="M 10.59375 35.5 
L 73.1875 35.5 
L 73.1875 27.203125 
L 10.59375 27.203125 
z
" id="DejaVuSans-8722"/>
        <path d="M 12.40625 8.296875 
L 28.515625 8.296875 
L 28.515625 63.921875 
L 10.984375 60.40625 
L 10.984375 69.390625 
L 28.421875 72.90625 
L 38.28125 72.90625 
L 38.28125 8.296875 
L 54.390625 8.296875 
L 54.390625 0 
L 12.40625 0 
z
" id="DejaVuSans-49"/>
        <path d="M 31.78125 66.40625 
Q 24.171875 66.40625 20.328125 58.90625 
Q 16.5 51.421875 16.5 36.375 
Q 16.5 21.390625 20.328125 13.890625 
Q 24.171875 6.390625 31.78125 6.390625 
Q 39.453125 6.390625 43.28125 13.890625 
Q 47.125 21.390625 47.125 36.375 
Q 47.125 51.421875 43.28125 58.90625 
Q 39.453125 66.40625 31.78125 66.40625 
z
M 31.78125 74.21875 
Q 44.046875 74.21875 50.515625 64.515625 
Q 56.984375 54.828125 56.984375 36.375 
Q 56.984375 17.96875 50.515625 8.265625 
Q 44.046875 -1.421875 31.78125 -1.421875 
Q 19.53125 -1.421875 13.0625 8.265625 
Q 6.59375 17.96875 6.59375 36.375 
Q 6.59375 54.828125 13.0625 64.515625 
Q 19.53125 74.21875 31.78125 74.21875 
z
" id="DejaVuSans-48"/>
        <path d="M 10.6875 12.40625 
L 21 12.40625 
L 21 0 
L 10.6875 0 
z
" id="DejaVuSans-46"/>
       </defs>
       <use xlink:href="#DejaVuSans-8722"/>
       <use x="83.789062" xlink:href="#DejaVuSans-49"/>
       <use x="147.412109" xlink:href="#DejaVuSans-48"/>
       <use x="211.035156" xlink:href="#DejaVuSans-46"/>
       <use x="242.822266" xlink:href="#DejaVuSans-48"/>
      </g>
     </g>
    </g>
    <g id="xtick_2">
     <g id="line2d_2">
      <g>
       <use style="stroke:#000000;stroke-width:0.8;" x="95.85" xlink:href="#m26bdbf0180" y="252"/>
      </g>
     </g>
     <g id="text_2">
      <!-- −7.5 -->
      <g transform="translate(83.708594 266.598437)scale(0.1 -0.1)">
       <defs>
        <path d="M 8.203125 72.90625 
L 55.078125 72.90625 
L 55.078125 68.703125 
L 28.609375 0 
L 18.3125 0 
L 43.21875 64.59375 
L 8.203125 64.59375 
z
" id="DejaVuSans-55"/>
        <path d="M 10.796875 72.90625 
L 49.515625 72.90625 
L 49.515625 64.59375 
L 19.828125 64.59375 
L 19.828125 46.734375 
Q 21.96875 47.46875 24.109375 47.828125 
Q 26.265625 48.1875 28.421875 48.1875 
Q 40.625 48.1875 47.75 41.5 
Q 54.890625 34.8125 54.890625 23.390625 
Q 54.890625 11.625 47.5625 5.09375 
Q 40.234375 -1.421875 26.90625 -1.421875 
Q 22.3125 -1.421875 17.546875 -0.640625 
Q 12.796875 0.140625 7.71875 1.703125 
L 7.71875 11.625 
Q 12.109375 9.234375 16.796875 8.0625 
Q 21.484375 6.890625 26.703125 6.890625 
Q 35.15625 6.890625 40.078125 11.328125 
Q 45.015625 15.765625 45.015625 23.390625 
Q 45.015625 31 40.078125 35.4375 
Q 35.15625 39.890625 26.703125 39.890625 
Q 22.75 39.890625 18.8125 39.015625 
Q 14.890625 38.140625 10.796875 36.28125 
z
" id="DejaVuSans-53"/>
       </defs>
       <use xlink:href="#DejaVuSans-8722"/>
       <use x="83.789062" xlink:href="#DejaVuSans-55"/>
       <use x="147.412109" xlink:href="#DejaVuSans-46"/>
       <use x="179.199219" xlink:href="#DejaVuSans-53"/>
      </g>
     </g>
    </g>
    <g id="xtick_3">
     <g id="line2d_3">
      <g>
       <use style="stroke:#000000;stroke-width:0.8;" x="137.7" xlink:href="#m26bdbf0180" y="252"/>
      </g>
     </g>
     <g id="text_3">
      <!-- −5.0 -->
      <g transform="translate(125.558594 266.598437)scale(0.1 -0.1)">
       <use xlink:href="#DejaVuSans-8722"/>
       <use x="83.789062" xlink:href="#DejaVuSans-53"/>
       <use x="147.412109" xlink:href="#DejaVuSans-46"/>
       <use x="179.199219" xlink:href="#DejaVuSans-48"/>
      </g>
     </g>
    </g>
    <g id="xtick_4">
     <g id="line2d_4">
      <g>
       <use style="stroke:#000000;stroke-width:0.8;" x="179.55" xlink:href="#m26bdbf0180" y="252"/>
      </g>
     </g>
     <g id="text_4">
      <!-- −2.5 -->
      <g transform="translate(167.408594 266.598437)scale(0.1 -0.1)">
       <defs>
        <path d="M 19.1875 8.296875 
L 53.609375 8.296875 
L 53.609375 0 
L 7.328125 0 
L 7.328125 8.296875 
Q 12.9375 14.109375 22.625 23.890625 
Q 32.328125 33.6875 34.8125 36.53125 
Q 39.546875 41.84375 41.421875 45.53125 
Q 43.3125 49.21875 43.3125 52.78125 
Q 43.3125 58.59375 39.234375 62.25 
Q 35.15625 65.921875 28.609375 65.921875 
Q 23.96875 65.921875 18.8125 64.3125 
Q 13.671875 62.703125 7.8125 59.421875 
L 7.8125 69.390625 
Q 13.765625 71.78125 18.9375 73 
Q 24.125 74.21875 28.421875 74.21875 
Q 39.75 74.21875 46.484375 68.546875 
Q 53.21875 62.890625 53.21875 53.421875 
Q 53.21875 48.921875 51.53125 44.890625 
Q 49.859375 40.875 45.40625 35.40625 
Q 44.1875 33.984375 37.640625 27.21875 
Q 31.109375 20.453125 19.1875 8.296875 
z
" id="DejaVuSans-50"/>
       </defs>
       <use xlink:href="#DejaVuSans-8722"/>
       <use x="83.789062" xlink:href="#DejaVuSans-50"/>
       <use x="147.412109" xlink:href="#DejaVuSans-46"/>
       <use x="179.199219" xlink:href="#DejaVuSans-53"/>
      </g>
     </g>
    </g>
    <g id="xtick_5">
     <g id="line2d_5">
      <g>
       <use style="stroke:#000000;stroke-width:0.8;" x="221.4" xlink:href="#m26bdbf0180" y="252"/>
      </g>
     </g>
     <g id="text_5">
      <!-- 0.0 -->
      <g transform="translate(213.448438 266.598437)scale(0.1 -0.1)">
       <use xlink:href="#DejaVuSans-48"/>
       <use x="63.623047" xlink:href="#DejaVuSans-46"/>
       <use x="95.410156" xlink:href="#DejaVuSans-48"/>
      </g>
     </g>
    </g>
    <g id="xtick_6">
     <g id="line2d_6">
      <g>
       <use style="stroke:#000000;stroke-width:0.8;" x="263.25" xlink:href="#m26bdbf0180" y="252"/>
      </g>
     </g>
     <g id="text_6">
      <!-- 2.5 -->
      <g transform="translate(255.298438 266.598437)scale(0.1 -0.1)">
       <use xlink:href="#DejaVuSans-50"/>
       <use x="63.623047" xlink:href="#DejaVuSans-46"/>
       <use x="95.410156" xlink:href="#DejaVuSans-53"/>
      </g>
     </g>
    </g>
    <g id="xtick_7">
     <g id="line2d_7">
      <g>
       <use style="stroke:#000000;stroke-width:0.8;" x="305.1" xlink:href="#m26bdbf0180" y="252"/>
      </g>
     </g>
     <g id="text_7">
      <!-- 5.0 -->
      <g transform="translate(297.148438 266.598437)scale(0.1 -0.1)">
       <use xlink:href="#DejaVuSans-53"/>
       <use x="63.623047" xlink:href="#DejaVuSans-46"/>
       <use x="95.410156" xlink:href="#DejaVuSans-48"/>
      </g>
     </g>
    </g>
    <g id="xtick_8">
     <g id="line2d_8">
      <g>
       <use style="stroke:#000000;stroke-width:0.8;" x="346.95" xlink:href="#m26bdbf0180" y="252"/>
      </g>
     </g>
     <g id="text_8">
      <!-- 7.5 -->
      <g transform="translate(338.998438 266.598437)scale(0.1 -0.1)">
       <use xlink:href="#DejaVuSans-55"/>
       <use x="63.623047" xlink:href="#DejaVuSans-46"/>
       <use x="95.410156" xlink:href="#DejaVuSans-53"/>
      </g>
     </g>
    </g>
    <g id="xtick_9">
     <g id="line2d_9">
      <g>
       <use style="stroke:#000000;stroke-width:0.8;" x="388.8" xlink:href="#m26bdbf0180" y="252"/>
      </g>
     </g>
     <g id="text_9">
      <!-- 10.0 -->
      <g transform="translate(377.667188 266.598437)scale(0.1 -0.1)">
       <use xlink:href="#DejaVuSans-49"/>
       <use x="63.623047" xlink:href="#DejaVuSans-48"/>
       <use x="127.246094" xlink:href="#DejaVuSans-46"/>
       <use x="159.033203" xlink:href="#DejaVuSans-48"/>
      </g>
     </g>
    </g>
    <g id="text_10">
     <!-- x -->
     <g transform="translate(218.440625 280.276563)scale(0.1 -0.1)">
      <defs>
       <path d="M 54.890625 54.6875 
L 35.109375 28.078125 
L 55.90625 0 
L 45.3125 0 
L 29.390625 21.484375 
L 13.484375 0 
L 2.875 0 
L 24.125 28.609375 
L 4.6875 54.6875 
L 15.28125 54.6875 
L 29.78125 35.203125 
L 44.28125 54.6875 
z
" id="DejaVuSans-120"/>
      </defs>
      <use xlink:href="#DejaVuSans-120"/>
     </g>
    </g>
   </g>
   <g id="matplotlib.axis_2">
    <g id="ytick_1">
     <g id="line2d_10">
      <defs>
       <path d="M 0 0 
L -3.5 0 
" id="ma057f43276" style="stroke:#000000;stroke-width:0.8;"/>
      </defs>
      <g>
       <use style="stroke:#000000;stroke-width:0.8;" x="54" xlink:href="#ma057f43276" y="232.211755"/>
      </g>
     </g>
     <g id="text_11">
      <!-- −1.0 -->
      <g transform="translate(22.717187 236.010974)scale(0.1 -0.1)">
       <use xlink:href="#DejaVuSans-8722"/>
       <use x="83.789062" xlink:href="#DejaVuSans-49"/>
       <use x="147.412109" xlink:href="#DejaVuSans-46"/>
       <use x="179.199219" xlink:href="#DejaVuSans-48"/>
      </g>
     </g>
    </g>
    <g id="ytick_2">
     <g id="line2d_11">
      <g>
       <use style="stroke:#000000;stroke-width:0.8;" x="54" xlink:href="#ma057f43276" y="193.958483"/>
      </g>
     </g>
     <g id="text_12">
      <!-- −0.5 -->
      <g transform="translate(22.717187 197.757702)scale(0.1 -0.1)">
       <use xlink:href="#DejaVuSans-8722"/>
       <use x="83.789062" xlink:href="#DejaVuSans-48"/>
       <use x="147.412109" xlink:href="#DejaVuSans-46"/>
       <use x="179.199219" xlink:href="#DejaVuSans-53"/>
      </g>
     </g>
    </g>
    <g id="ytick_3">
     <g id="line2d_12">
      <g>
       <use style="stroke:#000000;stroke-width:0.8;" x="54" xlink:href="#ma057f43276" y="155.705211"/>
      </g>
     </g>
     <g id="text_13">
      <!-- 0.0 -->
      <g transform="translate(31.096875 159.50443)scale(0.1 -0.1)">
       <use xlink:href="#DejaVuSans-48"/>
       <use x="63.623047" xlink:href="#DejaVuSans-46"/>
       <use x="95.410156" xlink:href="#DejaVuSans-48"/>
      </g>
     </g>
    </g>
    <g id="ytick_4">
     <g id="line2d_13">
      <g>
       <use style="stroke:#000000;stroke-width:0.8;" x="54" xlink:href="#ma057f43276" y="117.451939"/>
      </g>
     </g>
     <g id="text_14">
      <!-- 0.5 -->
      <g transform="translate(31.096875 121.251157)scale(0.1 -0.1)">
       <use xlink:href="#DejaVuSans-48"/>
       <use x="63.623047" xlink:href="#DejaVuSans-46"/>
       <use x="95.410156" xlink:href="#DejaVuSans-53"/>
      </g>
     </g>
    </g>
    <g id="ytick_5">
     <g id="line2d_14">
      <g>
       <use style="stroke:#000000;stroke-width:0.8;" x="54" xlink:href="#ma057f43276" y="79.198666"/>
      </g>
     </g>
     <g id="text_15">
      <!-- 1.0 -->
      <g transform="translate(31.096875 82.997885)scale(0.1 -0.1)">
       <use xlink:href="#DejaVuSans-49"/>
       <use x="63.623047" xlink:href="#DejaVuSans-46"/>
       <use x="95.410156" xlink:href="#DejaVuSans-48"/>
      </g>
     </g>
    </g>
    <g id="ytick_6">
     <g id="line2d_15">
      <g>
       <use style="stroke:#000000;stroke-width:0.8;" x="54" xlink:href="#ma057f43276" y="40.945394"/>
      </g>
     </g>
     <g id="text_16">
      <!-- 1.5 -->
      <g transform="translate(31.096875 44.744613)scale(0.1 -0.1)">
       <use xlink:href="#DejaVuSans-49"/>
       <use x="63.623047" xlink:href="#DejaVuSans-46"/>
       <use x="95.410156" xlink:href="#DejaVuSans-53"/>
      </g>
     </g>
    </g>
    <g id="text_17">
     <!-- 1e−1 -->
     <g transform="translate(54 31.56)scale(0.1 -0.1)">
      <defs>
       <path d="M 56.203125 29.59375 
L 56.203125 25.203125 
L 14.890625 25.203125 
Q 15.484375 15.921875 20.484375 11.0625 
Q 25.484375 6.203125 34.421875 6.203125 
Q 39.59375 6.203125 44.453125 7.46875 
Q 49.3125 8.734375 54.109375 11.28125 
L 54.109375 2.78125 
Q 49.265625 0.734375 44.1875 -0.34375 
Q 39.109375 -1.421875 33.890625 -1.421875 
Q 20.796875 -1.421875 13.15625 6.1875 
Q 5.515625 13.8125 5.515625 26.8125 
Q 5.515625 40.234375 12.765625 48.109375 
Q 20.015625 56 32.328125 56 
Q 43.359375 56 49.78125 48.890625 
Q 56.203125 41.796875 56.203125 29.59375 
z
M 47.21875 32.234375 
Q 47.125 39.59375 43.09375 43.984375 
Q 39.0625 48.390625 32.421875 48.390625 
Q 24.90625 48.390625 20.390625 44.140625 
Q 15.875 39.890625 15.1875 32.171875 
z
" id="DejaVuSans-101"/>
      </defs>
      <use xlink:href="#DejaVuSans-49"/>
      <use x="63.623047" xlink:href="#DejaVuSans-101"/>
      <use x="125.146484" xlink:href="#DejaVuSans-8722"/>
      <use x="208.935547" xlink:href="#DejaVuSans-49"/>
     </g>
    </g>
   </g>
   <g id="line2d_16">
    <path clip-path="url(#pb505c0a8d4)" d="M -1 155.705211 
L 28.89 155.628177 
L 32.238 155.460245 
L 33.912 155.280458 
L 35.586 154.982856 
L 37.26 154.500997 
L 38.934 153.738584 
L 40.608 152.561063 
L 42.282 150.788113 
L 43.956 148.189698 
L 45.63 144.489683 
L 47.304 139.382383 
L 48.978 132.568102 
L 50.652 123.81316 
L 52.326 113.037017 
L 54 100.42287 
L 57.348 72.441376 
L 59.022 59.728351 
L 60.696 50.482342 
L 62.37 47.068142 
L 64.044 51.749949 
L 65.718 66.143629 
L 67.392 90.579269 
L 69.066 123.521873 
L 72.414 198.065455 
L 74.088 227.040174 
L 75.762 241.560759 
L 77.436 237.182529 
L 79.11 213.459693 
L 80.784 175.036987 
L 82.458 131.367185 
L 84.132 94.709741 
L 85.806 76.632934 
L 87.48 83.932261 
L 89.154 115.420753 
L 92.502 204.833952 
L 94.176 229.669834 
L 95.85 224.96252 
L 97.524 191.546429 
L 99.198 142.739277 
L 100.872 99.690601 
L 102.546 82.331531 
L 104.22 99.672591 
L 105.894 144.302849 
L 107.568 194.64482 
L 109.242 224.947551 
L 110.916 218.68179 
L 112.59 178.319033 
L 114.264 125.416381 
L 115.938 89.700323 
L 117.612 92.275256 
L 119.286 132.440265 
L 120.96 186.678783 
L 122.634 221.805881 
L 124.308 215.360718 
L 125.982 170.698829 
L 127.656 116.259252 
L 129.33 87.989047 
L 131.004 105.394982 
L 134.352 208.07493 
L 136.026 221.85947 
L 137.7 188.216478 
L 139.374 130.937033 
L 141.048 91.90984 
L 142.722 100.51377 
L 144.396 150.849235 
L 146.07 204.901578 
L 147.744 220.850182 
L 149.418 185.76269 
L 151.092 126.865961 
L 152.766 91.058608 
L 154.44 107.545408 
L 156.114 163.379895 
L 157.788 212.883355 
L 159.462 214.778945 
L 161.136 167.045308 
L 162.81 109.701808 
L 164.484 91.669293 
L 166.158 128.79882 
L 167.832 189.286415 
L 169.506 220.403104 
L 171.18 194.525904 
L 172.854 134.213839 
L 174.528 93.091923 
L 176.202 108.235777 
L 177.876 166.297854 
L 179.55 214.726734 
L 181.224 209.179048 
L 184.572 100.898416 
L 186.246 98.225447 
L 187.92 149.176694 
L 189.594 206.245315 
L 191.268 215.759567 
L 192.942 168.545062 
L 194.616 109.156793 
L 196.29 94.05578 
L 197.964 137.800594 
L 199.638 198.687709 
L 201.312 218.306321 
L 202.986 177.66364 
L 204.66 115.832757 
L 206.334 92.559471 
L 208.008 130.469573 
L 209.682 192.873977 
L 211.356 219.145754 
L 213.03 183.66302 
L 214.704 120.934747 
L 216.378 92.122397 
L 218.052 125.374724 
L 219.726 188.248517 
L 221.4 219.32999 
L 223.074 188.248563 
L 224.748 125.374771 
L 226.422 92.122399 
L 228.096 120.934702 
L 229.77 183.662972 
L 231.444 219.145749 
L 233.118 192.87402 
L 234.792 130.469623 
L 236.466 92.559479 
L 238.14 115.832716 
L 239.814 177.66359 
L 241.488 218.306311 
L 243.162 198.687748 
L 244.836 137.800645 
L 246.51 94.055794 
L 248.184 109.156756 
L 249.858 168.545009 
L 251.532 215.759549 
L 253.206 206.245348 
L 254.88 149.176748 
L 256.554 98.225471 
L 258.228 100.898388 
L 261.576 209.179018 
L 263.25 214.726756 
L 264.924 166.297907 
L 266.598 108.235814 
L 268.272 93.09191 
L 269.946 134.213788 
L 271.62 194.52586 
L 273.294 220.403107 
L 274.968 189.286461 
L 276.642 128.798869 
L 278.316 91.669303 
L 279.99 109.701769 
L 281.664 167.045254 
L 283.338 214.778922 
L 285.012 212.883382 
L 286.686 163.37995 
L 288.36 107.545445 
L 290.034 91.058598 
L 291.708 126.865912 
L 293.382 185.76264 
L 295.056 220.850172 
L 296.73 204.901615 
L 298.404 150.849291 
L 300.078 100.513801 
L 301.752 91.909823 
L 303.426 130.936981 
L 305.1 188.216429 
L 306.774 221.859459 
L 308.448 208.074966 
L 311.796 105.39502 
L 313.47 87.989041 
L 315.144 116.259205 
L 316.818 170.698773 
L 318.492 215.360689 
L 320.166 221.805898 
L 321.84 186.678835 
L 323.514 132.44032 
L 325.188 92.275281 
L 326.862 89.700303 
L 328.536 125.416327 
L 330.21 178.318976 
L 331.884 218.681762 
L 333.558 224.947567 
L 335.232 194.644871 
L 336.906 144.30291 
L 338.58 99.67263 
L 340.254 82.33153 
L 341.928 99.690583 
L 343.602 142.73925 
L 345.276 191.546405 
L 346.95 224.96252 
L 348.624 229.669858 
L 350.298 204.833968 
L 353.646 115.42074 
L 355.32 83.932225 
L 356.994 76.632888 
L 358.668 94.709723 
L 360.342 131.3672 
L 362.016 175.037033 
L 363.69 213.459761 
L 365.364 237.182603 
L 367.038 241.560772 
L 368.712 227.040122 
L 370.386 198.065349 
L 373.734 123.521746 
L 375.408 90.57917 
L 377.082 66.143572 
L 378.756 51.74994 
L 380.43 47.068119 
L 382.104 50.482306 
L 383.778 59.728335 
L 385.452 72.441353 
L 388.8 100.422863 
L 390.474 113.037007 
L 392.148 123.81316 
L 393.822 132.568101 
L 395.496 139.382389 
L 397.17 144.489687 
L 398.844 148.189699 
L 400.518 150.788114 
L 402.192 152.561063 
L 403.866 153.738585 
L 405.54 154.500997 
L 407.214 154.982855 
L 408.888 155.280458 
L 412.236 155.566572 
L 417.258 155.682665 
L 433 155.70518 
L 433 155.70518 
" style="fill:none;stroke:#1f77b4;stroke-linecap:square;stroke-width:1.5;"/>
   </g>
   <g id="line2d_17">
    <path clip-path="url(#pb505c0a8d4)" d="M -1 155.70521 
L 27.216 155.596537 
L 30.564 155.361191 
L 32.238 155.111112 
L 33.912 154.700127 
L 35.586 154.040414 
L 37.26 153.007126 
L 38.934 151.429866 
L 40.608 149.086798 
L 42.282 145.705186 
L 43.956 140.973583 
L 45.63 134.571945 
L 47.304 126.225814 
L 48.978 115.788452 
L 50.652 103.349444 
L 55.674 60.987474 
L 57.348 50.094189 
L 59.022 44.443636 
L 60.696 46.441888 
L 62.37 58.005126 
L 64.044 79.922967 
L 65.718 111.23432 
L 69.066 187.384835 
L 70.74 220.172279 
L 72.414 240.200159 
L 74.088 242.116364 
L 75.762 224.095609 
L 77.436 189.206054 
L 79.11 145.575154 
L 80.784 104.909197 
L 82.458 79.411284 
L 84.132 77.800288 
L 85.806 101.726273 
L 87.48 144.106323 
L 89.154 190.525703 
L 90.828 223.827077 
L 92.502 230.621307 
L 94.176 207.261882 
L 97.524 114.913587 
L 99.198 85.580321 
L 100.872 88.426927 
L 102.546 122.967428 
L 104.22 173.279067 
L 105.894 214.730741 
L 107.568 225.983874 
L 109.242 200.494429 
L 112.59 104.357664 
L 114.264 86.391615 
L 115.938 107.995624 
L 119.286 205.563394 
L 120.96 223.599679 
L 122.634 199.850609 
L 124.308 148.536098 
L 125.982 101.884799 
L 127.656 90.105817 
L 129.33 121.399957 
L 131.004 175.484771 
L 132.678 216.101148 
L 134.352 215.25791 
L 136.026 173.058113 
L 137.7 118.725203 
L 139.374 90.833421 
L 141.048 109.770086 
L 142.722 162.190015 
L 144.396 209.737871 
L 146.07 216.897284 
L 147.744 177.906962 
L 149.418 122.065122 
L 151.092 92.187637 
L 152.766 111.687865 
L 154.44 165.664405 
L 156.114 211.687869 
L 157.788 212.988707 
L 159.462 168.210024 
L 161.136 113.350502 
L 162.81 93.170699 
L 164.484 124.497442 
L 166.158 181.663254 
L 167.832 217.088865 
L 169.506 200.880762 
L 171.18 146.476247 
L 172.854 99.98479 
L 174.528 101.247631 
L 176.202 149.39957 
L 177.876 202.964261 
L 179.55 215.351666 
L 181.224 175.560786 
L 182.898 118.355234 
L 184.572 94.168507 
L 186.246 124.559871 
L 187.92 182.656129 
L 189.594 216.62349 
L 191.268 195.920187 
L 192.942 139.028421 
L 194.616 97.233311 
L 196.29 108.43636 
L 197.964 162.58229 
L 199.638 210.435619 
L 201.312 208.278115 
L 204.66 105.627684 
L 206.334 99.31428 
L 208.008 144.929519 
L 209.682 200.469887 
L 211.356 214.65364 
L 213.03 174.326771 
L 214.704 116.770887 
L 216.378 95.291193 
L 218.052 129.816622 
L 219.726 188.349183 
L 221.4 216.596194 
L 223.074 188.349183 
L 224.748 129.816622 
L 226.422 95.291193 
L 228.096 116.770887 
L 229.77 174.326771 
L 231.444 214.65364 
L 233.118 200.469887 
L 234.792 144.929519 
L 236.466 99.31428 
L 238.14 105.627684 
L 241.488 208.278115 
L 243.162 210.435619 
L 244.836 162.58229 
L 246.51 108.43636 
L 248.184 97.233311 
L 249.858 139.028421 
L 251.532 195.920187 
L 253.206 216.62349 
L 254.88 182.656129 
L 256.554 124.559871 
L 258.228 94.168507 
L 259.902 118.355234 
L 261.576 175.560786 
L 263.25 215.351666 
L 264.924 202.964261 
L 266.598 149.39957 
L 268.272 101.247631 
L 269.946 99.98479 
L 271.62 146.476247 
L 273.294 200.880762 
L 274.968 217.088865 
L 276.642 181.663254 
L 278.316 124.497442 
L 279.99 93.170699 
L 281.664 113.350502 
L 283.338 168.210024 
L 285.012 212.988707 
L 286.686 211.687869 
L 288.36 165.664405 
L 290.034 111.687865 
L 291.708 92.187637 
L 293.382 122.065122 
L 295.056 177.906962 
L 296.73 216.897284 
L 298.404 209.737871 
L 300.078 162.190015 
L 301.752 109.770086 
L 303.426 90.833421 
L 305.1 118.725203 
L 306.774 173.058113 
L 308.448 215.25791 
L 310.122 216.101148 
L 311.796 175.484771 
L 313.47 121.399957 
L 315.144 90.105817 
L 316.818 101.884799 
L 318.492 148.536098 
L 320.166 199.850609 
L 321.84 223.599679 
L 323.514 205.563394 
L 326.862 107.995624 
L 328.536 86.391615 
L 330.21 104.357664 
L 333.558 200.494429 
L 335.232 225.983874 
L 336.906 214.730741 
L 338.58 173.279067 
L 340.254 122.967428 
L 341.928 88.426927 
L 343.602 85.580321 
L 345.276 114.913587 
L 348.624 207.261882 
L 350.298 230.621307 
L 351.972 223.827077 
L 353.646 190.525703 
L 355.32 144.106323 
L 356.994 101.726273 
L 358.668 77.800288 
L 360.342 79.411284 
L 362.016 104.909197 
L 363.69 145.575154 
L 365.364 189.206054 
L 367.038 224.095609 
L 368.712 242.116364 
L 370.386 240.200159 
L 372.06 220.172279 
L 373.734 187.384835 
L 377.082 111.23432 
L 378.756 79.922967 
L 380.43 58.005126 
L 382.104 46.441888 
L 383.778 44.443636 
L 385.452 50.094189 
L 387.126 60.987474 
L 390.474 89.359109 
L 392.148 103.349444 
L 393.822 115.788452 
L 395.496 126.225814 
L 397.17 134.571945 
L 398.844 140.973583 
L 400.518 145.705186 
L 402.192 149.086798 
L 403.866 151.429866 
L 405.54 153.007126 
L 407.214 154.040414 
L 408.888 154.700127 
L 410.562 155.111112 
L 413.91 155.509955 
L 418.932 155.673411 
L 433 155.705121 
L 433 155.705121 
" style="fill:none;stroke:#ff7f0e;stroke-linecap:square;stroke-width:1.5;"/>
   </g>
   <g id="patch_3">
    <path d="M 54 252 
L 54 34.56 
" style="fill:none;stroke:#000000;stroke-linecap:square;stroke-linejoin:miter;stroke-width:0.8;"/>
   </g>
   <g id="patch_4">
    <path d="M 388.8 252 
L 388.8 34.56 
" style="fill:none;stroke:#000000;stroke-linecap:square;stroke-linejoin:miter;stroke-width:0.8;"/>
   </g>
   <g id="patch_5">
    <path d="M 54 252 
L 388.8 252 
" style="fill:none;stroke:#000000;stroke-linecap:square;stroke-linejoin:miter;stroke-width:0.8;"/>
   </g>
   <g id="patch_6">
    <path d="M 54 34.56 
L 388.8 34.56 
" style="fill:none;stroke:#000000;stroke-linecap:square;stroke-linejoin:miter;stroke-width:0.8;"/>
   </g>
   <g id="text_18">
    <!-- N=500, L=50 -->
    <g transform="translate(180.61125 28.56)scale(0.12 -0.12)">
     <defs>
      <path d="M 9.8125 72.90625 
L 23.09375 72.90625 
L 55.421875 11.921875 
L 55.421875 72.90625 
L 64.984375 72.90625 
L 64.984375 0 
L 51.703125 0 
L 19.390625 60.984375 
L 19.390625 0 
L 9.8125 0 
z
" id="DejaVuSans-78"/>
      <path d="M 10.59375 45.40625 
L 73.1875 45.40625 
L 73.1875 37.203125 
L 10.59375 37.203125 
z
M 10.59375 25.484375 
L 73.1875 25.484375 
L 73.1875 17.1875 
L 10.59375 17.1875 
z
" id="DejaVuSans-61"/>
      <path d="M 11.71875 12.40625 
L 22.015625 12.40625 
L 22.015625 4 
L 14.015625 -11.625 
L 7.71875 -11.625 
L 11.71875 4 
z
" id="DejaVuSans-44"/>
      <path id="DejaVuSans-32"/>
      <path d="M 9.8125 72.90625 
L 19.671875 72.90625 
L 19.671875 8.296875 
L 55.171875 8.296875 
L 55.171875 0 
L 9.8125 0 
z
" id="DejaVuSans-76"/>
     </defs>
     <use xlink:href="#DejaVuSans-78"/>
     <use x="74.804688" xlink:href="#DejaVuSans-61"/>
     <use x="158.59375" xlink:href="#DejaVuSans-53"/>
     <use x="222.216797" xlink:href="#DejaVuSans-48"/>
     <use x="285.839844" xlink:href="#DejaVuSans-48"/>
     <use x="349.462891" xlink:href="#DejaVuSans-44"/>
     <use x="381.25" xlink:href="#DejaVuSans-32"/>
     <use x="413.037109" xlink:href="#DejaVuSans-76"/>
     <use x="468.75" xlink:href="#DejaVuSans-61"/>
     <use x="552.539062" xlink:href="#DejaVuSans-53"/>
     <use x="616.162109" xlink:href="#DejaVuSans-48"/>
    </g>
   </g>
   <g id="legend_1">
    <g id="patch_7">
     <path d="M 187.92 84.72 
L 254.88 84.72 
Q 257.28 84.72 257.28 82.32 
L 257.28 42.96 
Q 257.28 40.56 254.88 40.56 
L 187.92 40.56 
Q 185.52 40.56 185.52 42.96 
L 185.52 82.32 
Q 185.52 84.72 187.92 84.72 
z
" style="fill:#ffffff;opacity:0.8;stroke:#cccccc;stroke-linejoin:miter;"/>
    </g>
    <g id="line2d_18">
     <path d="M 190.32 51.96 
L 214.32 51.96 
" style="fill:none;stroke:#1f77b4;stroke-linecap:square;stroke-width:1.5;"/>
    </g>
    <g id="line2d_19"/>
    <g id="text_19">
     <!-- $\psi^{NUM}_{50}$ -->
     <g transform="translate(223.92 56.16)scale(0.12 -0.12)">
      <defs>
       <path d="M 24.859375 -1.21875 
Q 13.921875 0.59375 9.625 5.328125 
Q 4.34375 11.140625 6.640625 23 
L 12.796875 54.6875 
L 21.875 54.6875 
L 15.765625 23.34375 
Q 14.0625 14.40625 17.484375 10.6875 
Q 20.515625 7.46875 26.421875 6.78125 
L 35.6875 54.6875 
L 44.625 54.6875 
L 35.359375 6.84375 
Q 41.890625 7.515625 45.75 10.75 
Q 50.734375 14.84375 52.390625 23.390625 
L 58.453125 54.6875 
L 67.53125 54.6875 
L 61.375 23.046875 
Q 58.984375 10.75 51.5625 5.375 
Q 44.875 0.53125 33.796875 -1.171875 
L 29.984375 -20.796875 
L 21.046875 -20.796875 
z
" id="DejaVuSans-Oblique-968"/>
       <path d="M 16.890625 72.90625 
L 30.171875 72.90625 
L 50.296875 10.40625 
L 62.5 72.90625 
L 72.125 72.90625 
L 57.90625 0 
L 44.578125 0 
L 24.515625 62.890625 
L 12.3125 0 
L 2.6875 0 
z
" id="DejaVuSans-Oblique-78"/>
       <path d="M 15.484375 72.90625 
L 25.390625 72.90625 
L 16.796875 28.609375 
Q 16.265625 25.640625 16.046875 23.703125 
Q 15.828125 21.78125 15.828125 20.3125 
Q 15.828125 13.578125 19.578125 10.078125 
Q 23.34375 6.59375 30.609375 6.59375 
Q 40.046875 6.59375 45.28125 11.765625 
Q 50.53125 16.9375 52.78125 28.609375 
L 61.375 72.90625 
L 71.296875 72.90625 
L 62.5 27.390625 
Q 59.625 12.640625 51.5625 5.609375 
Q 43.5 -1.421875 29.5 -1.421875 
Q 18.5625 -1.421875 12.1875 4.078125 
Q 5.8125 9.578125 5.8125 19 
Q 5.8125 20.703125 6.046875 22.828125 
Q 6.296875 24.953125 6.78125 27.390625 
z
" id="DejaVuSans-Oblique-85"/>
       <path d="M 16.890625 72.90625 
L 31.6875 72.90625 
L 40.1875 23.78125 
L 68.40625 72.90625 
L 83.59375 72.90625 
L 69.390625 0 
L 59.8125 0 
L 72.21875 63.921875 
L 43.609375 14.015625 
L 33.984375 14.015625 
L 24.703125 64.109375 
L 12.3125 0 
L 2.6875 0 
z
" id="DejaVuSans-Oblique-77"/>
      </defs>
      <use transform="translate(0 0.684375)" xlink:href="#DejaVuSans-Oblique-968"/>
      <use transform="translate(70.432943 38.965625)scale(0.7)" xlink:href="#DejaVuSans-Oblique-78"/>
      <use transform="translate(122.796224 38.965625)scale(0.7)" xlink:href="#DejaVuSans-Oblique-85"/>
      <use transform="translate(174.031576 38.965625)scale(0.7)" xlink:href="#DejaVuSans-Oblique-77"/>
      <use transform="translate(65.966797 -26.659375)scale(0.7)" xlink:href="#DejaVuSans-53"/>
      <use transform="translate(110.50293 -26.659375)scale(0.7)" xlink:href="#DejaVuSans-48"/>
     </g>
    </g>
    <g id="line2d_20">
     <path d="M 190.32 72.24 
L 214.32 72.24 
" style="fill:none;stroke:#ff7f0e;stroke-linecap:square;stroke-width:1.5;"/>
    </g>
    <g id="line2d_21"/>
    <g id="text_20">
     <!-- $\psi^{TH}_{50}$ -->
     <g transform="translate(223.92 76.44)scale(0.12 -0.12)">
      <defs>
       <path d="M 5.90625 72.90625 
L 67.578125 72.90625 
L 66.015625 64.59375 
L 39.984375 64.59375 
L 27.484375 0 
L 17.578125 0 
L 30.078125 64.59375 
L 4.296875 64.59375 
z
" id="DejaVuSans-Oblique-84"/>
       <path d="M 16.890625 72.90625 
L 26.8125 72.90625 
L 21 43.015625 
L 56.78125 43.015625 
L 62.59375 72.90625 
L 72.515625 72.90625 
L 58.296875 0 
L 48.390625 0 
L 55.171875 34.71875 
L 19.390625 34.71875 
L 12.59375 0 
L 2.6875 0 
z
" id="DejaVuSans-Oblique-72"/>
      </defs>
      <use transform="translate(0 0.684375)" xlink:href="#DejaVuSans-Oblique-968"/>
      <use transform="translate(70.432943 38.965625)scale(0.7)" xlink:href="#DejaVuSans-Oblique-84"/>
      <use transform="translate(113.191732 38.965625)scale(0.7)" xlink:href="#DejaVuSans-Oblique-72"/>
      <use transform="translate(65.966797 -26.659375)scale(0.7)" xlink:href="#DejaVuSans-53"/>
      <use transform="translate(110.50293 -26.659375)scale(0.7)" xlink:href="#DejaVuSans-48"/>
     </g>
    </g>
   </g>
  </g>
 </g>
 <defs>
  <clipPath id="pb505c0a8d4">
   <rect height="217.44" width="334.8" x="54" y="34.56"/>
  </clipPath>
 </defs>
</svg>
