<?xml version="1.0" encoding="utf-8" standalone="no"?>
<!DOCTYPE svg PUBLIC "-//W3C//DTD SVG 1.1//EN"
  "http://www.w3.org/Graphics/SVG/1.1/DTD/svg11.dtd">
<!-- Created with matplotlib (https://matplotlib.org/) -->
<svg height="288pt" version="1.1" viewBox="0 0 432 288" width="432pt" xmlns="http://www.w3.org/2000/svg" xmlns:xlink="http://www.w3.org/1999/xlink">
 <metadata>
  <rdf:RDF xmlns:cc="http://creativecommons.org/ns#" xmlns:dc="http://purl.org/dc/elements/1.1/" xmlns:rdf="http://www.w3.org/1999/02/22-rdf-syntax-ns#">
   <cc:Work>
    <dc:type rdf:resource="http://purl.org/dc/dcmitype/StillImage"/>
    <dc:date>2021-11-23T18:23:15.825333</dc:date>
    <dc:format>image/svg+xml</dc:format>
    <dc:creator>
     <cc:Agent>
      <dc:title>Matplotlib v3.3.4, https://matplotlib.org/</dc:title>
     </cc:Agent>
    </dc:creator>
   </cc:Work>
  </rdf:RDF>
 </metadata>
 <defs>
  <style type="text/css">*{stroke-linecap:butt;stroke-linejoin:round;}</style>
 </defs>
 <g id="figure_1">
  <g id="patch_1">
   <path d="M 0 288 
L 432 288 
L 432 0 
L 0 0 
z
" style="fill:none;"/>
  </g>
  <g id="axes_1">
   <g id="patch_2">
    <path d="M 54 252 
L 388.8 252 
L 388.8 34.56 
L 54 34.56 
z
" style="fill:#ffffff;"/>
   </g>
   <g id="matplotlib.axis_1">
    <g id="xtick_1">
     <g id="line2d_1">
      <defs>
       <path d="M 0 0 
L 0 3.5 
" id="mf5e53e4945" style="stroke:#000000;stroke-width:0.8;"/>
      </defs>
      <g>
       <use style="stroke:#000000;stroke-width:0.8;" x="54" xlink:href="#mf5e53e4945" y="252"/>
      </g>
     </g>
     <g id="text_1">
      <!-- −10.0 -->
      <g transform="translate(38.677344 266.598437)scale(0.1 -0.1)">
       <defs>
        <path d="M 10.59375 35.5 
L 73.1875 35.5 
L 73.1875 27.203125 
L 10.59375 27.203125 
z
" id="DejaVuSans-8722"/>
        <path d="M 12.40625 8.296875 
L 28.515625 8.296875 
L 28.515625 63.921875 
L 10.984375 60.40625 
L 10.984375 69.390625 
L 28.421875 72.90625 
L 38.28125 72.90625 
L 38.28125 8.296875 
L 54.390625 8.296875 
L 54.390625 0 
L 12.40625 0 
z
" id="DejaVuSans-49"/>
        <path d="M 31.78125 66.40625 
Q 24.171875 66.40625 20.328125 58.90625 
Q 16.5 51.421875 16.5 36.375 
Q 16.5 21.390625 20.328125 13.890625 
Q 24.171875 6.390625 31.78125 6.390625 
Q 39.453125 6.390625 43.28125 13.890625 
Q 47.125 21.390625 47.125 36.375 
Q 47.125 51.421875 43.28125 58.90625 
Q 39.453125 66.40625 31.78125 66.40625 
z
M 31.78125 74.21875 
Q 44.046875 74.21875 50.515625 64.515625 
Q 56.984375 54.828125 56.984375 36.375 
Q 56.984375 17.96875 50.515625 8.265625 
Q 44.046875 -1.421875 31.78125 -1.421875 
Q 19.53125 -1.421875 13.0625 8.265625 
Q 6.59375 17.96875 6.59375 36.375 
Q 6.59375 54.828125 13.0625 64.515625 
Q 19.53125 74.21875 31.78125 74.21875 
z
" id="DejaVuSans-48"/>
        <path d="M 10.6875 12.40625 
L 21 12.40625 
L 21 0 
L 10.6875 0 
z
" id="DejaVuSans-46"/>
       </defs>
       <use xlink:href="#DejaVuSans-8722"/>
       <use x="83.789062" xlink:href="#DejaVuSans-49"/>
       <use x="147.412109" xlink:href="#DejaVuSans-48"/>
       <use x="211.035156" xlink:href="#DejaVuSans-46"/>
       <use x="242.822266" xlink:href="#DejaVuSans-48"/>
      </g>
     </g>
    </g>
    <g id="xtick_2">
     <g id="line2d_2">
      <g>
       <use style="stroke:#000000;stroke-width:0.8;" x="95.85" xlink:href="#mf5e53e4945" y="252"/>
      </g>
     </g>
     <g id="text_2">
      <!-- −7.5 -->
      <g transform="translate(83.708594 266.598437)scale(0.1 -0.1)">
       <defs>
        <path d="M 8.203125 72.90625 
L 55.078125 72.90625 
L 55.078125 68.703125 
L 28.609375 0 
L 18.3125 0 
L 43.21875 64.59375 
L 8.203125 64.59375 
z
" id="DejaVuSans-55"/>
        <path d="M 10.796875 72.90625 
L 49.515625 72.90625 
L 49.515625 64.59375 
L 19.828125 64.59375 
L 19.828125 46.734375 
Q 21.96875 47.46875 24.109375 47.828125 
Q 26.265625 48.1875 28.421875 48.1875 
Q 40.625 48.1875 47.75 41.5 
Q 54.890625 34.8125 54.890625 23.390625 
Q 54.890625 11.625 47.5625 5.09375 
Q 40.234375 -1.421875 26.90625 -1.421875 
Q 22.3125 -1.421875 17.546875 -0.640625 
Q 12.796875 0.140625 7.71875 1.703125 
L 7.71875 11.625 
Q 12.109375 9.234375 16.796875 8.0625 
Q 21.484375 6.890625 26.703125 6.890625 
Q 35.15625 6.890625 40.078125 11.328125 
Q 45.015625 15.765625 45.015625 23.390625 
Q 45.015625 31 40.078125 35.4375 
Q 35.15625 39.890625 26.703125 39.890625 
Q 22.75 39.890625 18.8125 39.015625 
Q 14.890625 38.140625 10.796875 36.28125 
z
" id="DejaVuSans-53"/>
       </defs>
       <use xlink:href="#DejaVuSans-8722"/>
       <use x="83.789062" xlink:href="#DejaVuSans-55"/>
       <use x="147.412109" xlink:href="#DejaVuSans-46"/>
       <use x="179.199219" xlink:href="#DejaVuSans-53"/>
      </g>
     </g>
    </g>
    <g id="xtick_3">
     <g id="line2d_3">
      <g>
       <use style="stroke:#000000;stroke-width:0.8;" x="137.7" xlink:href="#mf5e53e4945" y="252"/>
      </g>
     </g>
     <g id="text_3">
      <!-- −5.0 -->
      <g transform="translate(125.558594 266.598437)scale(0.1 -0.1)">
       <use xlink:href="#DejaVuSans-8722"/>
       <use x="83.789062" xlink:href="#DejaVuSans-53"/>
       <use x="147.412109" xlink:href="#DejaVuSans-46"/>
       <use x="179.199219" xlink:href="#DejaVuSans-48"/>
      </g>
     </g>
    </g>
    <g id="xtick_4">
     <g id="line2d_4">
      <g>
       <use style="stroke:#000000;stroke-width:0.8;" x="179.55" xlink:href="#mf5e53e4945" y="252"/>
      </g>
     </g>
     <g id="text_4">
      <!-- −2.5 -->
      <g transform="translate(167.408594 266.598437)scale(0.1 -0.1)">
       <defs>
        <path d="M 19.1875 8.296875 
L 53.609375 8.296875 
L 53.609375 0 
L 7.328125 0 
L 7.328125 8.296875 
Q 12.9375 14.109375 22.625 23.890625 
Q 32.328125 33.6875 34.8125 36.53125 
Q 39.546875 41.84375 41.421875 45.53125 
Q 43.3125 49.21875 43.3125 52.78125 
Q 43.3125 58.59375 39.234375 62.25 
Q 35.15625 65.921875 28.609375 65.921875 
Q 23.96875 65.921875 18.8125 64.3125 
Q 13.671875 62.703125 7.8125 59.421875 
L 7.8125 69.390625 
Q 13.765625 71.78125 18.9375 73 
Q 24.125 74.21875 28.421875 74.21875 
Q 39.75 74.21875 46.484375 68.546875 
Q 53.21875 62.890625 53.21875 53.421875 
Q 53.21875 48.921875 51.53125 44.890625 
Q 49.859375 40.875 45.40625 35.40625 
Q 44.1875 33.984375 37.640625 27.21875 
Q 31.109375 20.453125 19.1875 8.296875 
z
" id="DejaVuSans-50"/>
       </defs>
       <use xlink:href="#DejaVuSans-8722"/>
       <use x="83.789062" xlink:href="#DejaVuSans-50"/>
       <use x="147.412109" xlink:href="#DejaVuSans-46"/>
       <use x="179.199219" xlink:href="#DejaVuSans-53"/>
      </g>
     </g>
    </g>
    <g id="xtick_5">
     <g id="line2d_5">
      <g>
       <use style="stroke:#000000;stroke-width:0.8;" x="221.4" xlink:href="#mf5e53e4945" y="252"/>
      </g>
     </g>
     <g id="text_5">
      <!-- 0.0 -->
      <g transform="translate(213.448438 266.598437)scale(0.1 -0.1)">
       <use xlink:href="#DejaVuSans-48"/>
       <use x="63.623047" xlink:href="#DejaVuSans-46"/>
       <use x="95.410156" xlink:href="#DejaVuSans-48"/>
      </g>
     </g>
    </g>
    <g id="xtick_6">
     <g id="line2d_6">
      <g>
       <use style="stroke:#000000;stroke-width:0.8;" x="263.25" xlink:href="#mf5e53e4945" y="252"/>
      </g>
     </g>
     <g id="text_6">
      <!-- 2.5 -->
      <g transform="translate(255.298438 266.598437)scale(0.1 -0.1)">
       <use xlink:href="#DejaVuSans-50"/>
       <use x="63.623047" xlink:href="#DejaVuSans-46"/>
       <use x="95.410156" xlink:href="#DejaVuSans-53"/>
      </g>
     </g>
    </g>
    <g id="xtick_7">
     <g id="line2d_7">
      <g>
       <use style="stroke:#000000;stroke-width:0.8;" x="305.1" xlink:href="#mf5e53e4945" y="252"/>
      </g>
     </g>
     <g id="text_7">
      <!-- 5.0 -->
      <g transform="translate(297.148438 266.598437)scale(0.1 -0.1)">
       <use xlink:href="#DejaVuSans-53"/>
       <use x="63.623047" xlink:href="#DejaVuSans-46"/>
       <use x="95.410156" xlink:href="#DejaVuSans-48"/>
      </g>
     </g>
    </g>
    <g id="xtick_8">
     <g id="line2d_8">
      <g>
       <use style="stroke:#000000;stroke-width:0.8;" x="346.95" xlink:href="#mf5e53e4945" y="252"/>
      </g>
     </g>
     <g id="text_8">
      <!-- 7.5 -->
      <g transform="translate(338.998438 266.598437)scale(0.1 -0.1)">
       <use xlink:href="#DejaVuSans-55"/>
       <use x="63.623047" xlink:href="#DejaVuSans-46"/>
       <use x="95.410156" xlink:href="#DejaVuSans-53"/>
      </g>
     </g>
    </g>
    <g id="xtick_9">
     <g id="line2d_9">
      <g>
       <use style="stroke:#000000;stroke-width:0.8;" x="388.8" xlink:href="#mf5e53e4945" y="252"/>
      </g>
     </g>
     <g id="text_9">
      <!-- 10.0 -->
      <g transform="translate(377.667188 266.598437)scale(0.1 -0.1)">
       <use xlink:href="#DejaVuSans-49"/>
       <use x="63.623047" xlink:href="#DejaVuSans-48"/>
       <use x="127.246094" xlink:href="#DejaVuSans-46"/>
       <use x="159.033203" xlink:href="#DejaVuSans-48"/>
      </g>
     </g>
    </g>
    <g id="text_10">
     <!-- x -->
     <g transform="translate(218.440625 280.276563)scale(0.1 -0.1)">
      <defs>
       <path d="M 54.890625 54.6875 
L 35.109375 28.078125 
L 55.90625 0 
L 45.3125 0 
L 29.390625 21.484375 
L 13.484375 0 
L 2.875 0 
L 24.125 28.609375 
L 4.6875 54.6875 
L 15.28125 54.6875 
L 29.78125 35.203125 
L 44.28125 54.6875 
z
" id="DejaVuSans-120"/>
      </defs>
      <use xlink:href="#DejaVuSans-120"/>
     </g>
    </g>
   </g>
   <g id="matplotlib.axis_2">
    <g id="ytick_1">
     <g id="line2d_10">
      <defs>
       <path d="M 0 0 
L -3.5 0 
" id="md28a95bdd3" style="stroke:#000000;stroke-width:0.8;"/>
      </defs>
      <g>
       <use style="stroke:#000000;stroke-width:0.8;" x="54" xlink:href="#md28a95bdd3" y="248.232709"/>
      </g>
     </g>
     <g id="text_11">
      <!-- −1.5 -->
      <g transform="translate(22.717187 252.031927)scale(0.1 -0.1)">
       <use xlink:href="#DejaVuSans-8722"/>
       <use x="83.789062" xlink:href="#DejaVuSans-49"/>
       <use x="147.412109" xlink:href="#DejaVuSans-46"/>
       <use x="179.199219" xlink:href="#DejaVuSans-53"/>
      </g>
     </g>
    </g>
    <g id="ytick_2">
     <g id="line2d_11">
      <g>
       <use style="stroke:#000000;stroke-width:0.8;" x="54" xlink:href="#md28a95bdd3" y="213.248472"/>
      </g>
     </g>
     <g id="text_12">
      <!-- −1.0 -->
      <g transform="translate(22.717187 217.047691)scale(0.1 -0.1)">
       <use xlink:href="#DejaVuSans-8722"/>
       <use x="83.789062" xlink:href="#DejaVuSans-49"/>
       <use x="147.412109" xlink:href="#DejaVuSans-46"/>
       <use x="179.199219" xlink:href="#DejaVuSans-48"/>
      </g>
     </g>
    </g>
    <g id="ytick_3">
     <g id="line2d_12">
      <g>
       <use style="stroke:#000000;stroke-width:0.8;" x="54" xlink:href="#md28a95bdd3" y="178.264236"/>
      </g>
     </g>
     <g id="text_13">
      <!-- −0.5 -->
      <g transform="translate(22.717187 182.063455)scale(0.1 -0.1)">
       <use xlink:href="#DejaVuSans-8722"/>
       <use x="83.789062" xlink:href="#DejaVuSans-48"/>
       <use x="147.412109" xlink:href="#DejaVuSans-46"/>
       <use x="179.199219" xlink:href="#DejaVuSans-53"/>
      </g>
     </g>
    </g>
    <g id="ytick_4">
     <g id="line2d_13">
      <g>
       <use style="stroke:#000000;stroke-width:0.8;" x="54" xlink:href="#md28a95bdd3" y="143.28"/>
      </g>
     </g>
     <g id="text_14">
      <!-- 0.0 -->
      <g transform="translate(31.096875 147.079219)scale(0.1 -0.1)">
       <use xlink:href="#DejaVuSans-48"/>
       <use x="63.623047" xlink:href="#DejaVuSans-46"/>
       <use x="95.410156" xlink:href="#DejaVuSans-48"/>
      </g>
     </g>
    </g>
    <g id="ytick_5">
     <g id="line2d_14">
      <g>
       <use style="stroke:#000000;stroke-width:0.8;" x="54" xlink:href="#md28a95bdd3" y="108.295764"/>
      </g>
     </g>
     <g id="text_15">
      <!-- 0.5 -->
      <g transform="translate(31.096875 112.094983)scale(0.1 -0.1)">
       <use xlink:href="#DejaVuSans-48"/>
       <use x="63.623047" xlink:href="#DejaVuSans-46"/>
       <use x="95.410156" xlink:href="#DejaVuSans-53"/>
      </g>
     </g>
    </g>
    <g id="ytick_6">
     <g id="line2d_15">
      <g>
       <use style="stroke:#000000;stroke-width:0.8;" x="54" xlink:href="#md28a95bdd3" y="73.311528"/>
      </g>
     </g>
     <g id="text_16">
      <!-- 1.0 -->
      <g transform="translate(31.096875 77.110746)scale(0.1 -0.1)">
       <use xlink:href="#DejaVuSans-49"/>
       <use x="63.623047" xlink:href="#DejaVuSans-46"/>
       <use x="95.410156" xlink:href="#DejaVuSans-48"/>
      </g>
     </g>
    </g>
    <g id="ytick_7">
     <g id="line2d_16">
      <g>
       <use style="stroke:#000000;stroke-width:0.8;" x="54" xlink:href="#md28a95bdd3" y="38.327291"/>
      </g>
     </g>
     <g id="text_17">
      <!-- 1.5 -->
      <g transform="translate(31.096875 42.12651)scale(0.1 -0.1)">
       <use xlink:href="#DejaVuSans-49"/>
       <use x="63.623047" xlink:href="#DejaVuSans-46"/>
       <use x="95.410156" xlink:href="#DejaVuSans-53"/>
      </g>
     </g>
    </g>
    <g id="text_18">
     <!-- 1e−1 -->
     <g transform="translate(54 31.56)scale(0.1 -0.1)">
      <defs>
       <path d="M 56.203125 29.59375 
L 56.203125 25.203125 
L 14.890625 25.203125 
Q 15.484375 15.921875 20.484375 11.0625 
Q 25.484375 6.203125 34.421875 6.203125 
Q 39.59375 6.203125 44.453125 7.46875 
Q 49.3125 8.734375 54.109375 11.28125 
L 54.109375 2.78125 
Q 49.265625 0.734375 44.1875 -0.34375 
Q 39.109375 -1.421875 33.890625 -1.421875 
Q 20.796875 -1.421875 13.15625 6.1875 
Q 5.515625 13.8125 5.515625 26.8125 
Q 5.515625 40.234375 12.765625 48.109375 
Q 20.015625 56 32.328125 56 
Q 43.359375 56 49.78125 48.890625 
Q 56.203125 41.796875 56.203125 29.59375 
z
M 47.21875 32.234375 
Q 47.125 39.59375 43.09375 43.984375 
Q 39.0625 48.390625 32.421875 48.390625 
Q 24.90625 48.390625 20.390625 44.140625 
Q 15.875 39.890625 15.1875 32.171875 
z
" id="DejaVuSans-101"/>
      </defs>
      <use xlink:href="#DejaVuSans-49"/>
      <use x="63.623047" xlink:href="#DejaVuSans-101"/>
      <use x="125.146484" xlink:href="#DejaVuSans-8722"/>
      <use x="208.935547" xlink:href="#DejaVuSans-49"/>
     </g>
    </g>
   </g>
   <g id="line2d_17">
    <path clip-path="url(#pb5a0e3449e)" d="M -1 143.296125 
L 5.454 143.457567 
L 8.802 143.837186 
L 10.476 144.236024 
L 12.15 144.884326 
L 13.824 145.91099 
L 15.498 147.492631 
L 17.172 149.858826 
L 18.846 153.289069 
L 20.52 158.094943 
L 22.194 164.579919 
L 23.868 172.969923 
L 25.542 183.311692 
L 27.216 195.344341 
L 30.564 221.110818 
L 32.238 231.752399 
L 33.912 237.991454 
L 35.586 237.38651 
L 37.26 227.882724 
L 38.934 208.50905 
L 40.608 180.097132 
L 43.956 111.017277 
L 45.63 82.801022 
L 47.304 68.141831 
L 48.978 71.896141 
L 50.652 94.621542 
L 52.326 131.276001 
L 54 171.610425 
L 55.674 202.690386 
L 57.348 213.180995 
L 59.022 198.06956 
L 60.696 161.822414 
L 62.37 118.064449 
L 64.044 85.001953 
L 65.718 77.760229 
L 67.392 100.773027 
L 70.74 187.168724 
L 72.414 207.461545 
L 74.088 193.445371 
L 75.762 151.72479 
L 77.436 105.192692 
L 79.11 81.020182 
L 80.784 94.462663 
L 82.458 138.223719 
L 84.132 185.209477 
L 85.806 204.762398 
L 87.48 183.087593 
L 89.154 134.078443 
L 90.828 91.533953 
L 92.502 86.156664 
L 94.176 122.69428 
L 95.85 174.651867 
L 97.524 202.636278 
L 99.198 184.378489 
L 100.872 133.498295 
L 102.546 90.524277 
L 104.22 90.945089 
L 105.894 135.152511 
L 107.568 186.272865 
L 109.242 200.236132 
L 110.916 164.205502 
L 112.59 109.52896 
L 114.264 85.368812 
L 115.938 114.316796 
L 117.612 170.193658 
L 119.286 200.710815 
L 120.96 176.406724 
L 122.634 120.080302 
L 124.308 86.456214 
L 125.982 109.102548 
L 127.656 165.98654 
L 129.33 199.867408 
L 131.004 175.793626 
L 132.678 118.066239 
L 134.352 86.706437 
L 136.026 115.103111 
L 137.7 173.552171 
L 139.374 199.408346 
L 141.048 164.277613 
L 142.722 106.128001 
L 144.396 89.059639 
L 146.07 132.450317 
L 147.744 188.015309 
L 149.418 192.89244 
L 152.766 91.835513 
L 154.44 102.148647 
L 156.114 160.448151 
L 157.788 198.582603 
L 159.462 171.334904 
L 161.136 110.708558 
L 162.81 89.072232 
L 164.484 132.710819 
L 166.158 189.149335 
L 167.832 189.729936 
L 169.506 133.443667 
L 171.18 89.261611 
L 172.854 111.882023 
L 174.528 173.516354 
L 176.202 197.407804 
L 177.876 153.435897 
L 179.55 96.677091 
L 181.224 98.831893 
L 182.898 157.394084 
L 184.572 197.978296 
L 186.246 168.643775 
L 187.92 106.778651 
L 189.594 91.878411 
L 192.942 194.706351 
L 194.616 179.358471 
L 196.29 117.070276 
L 197.964 88.963797 
L 199.638 131.851946 
L 201.312 189.70812 
L 202.986 186.638457 
L 204.66 126.571434 
L 206.334 88.503938 
L 208.008 122.662056 
L 209.682 184.041253 
L 211.356 191.543794 
L 213.03 135.190362 
L 214.704 89.548918 
L 216.378 115.104466 
L 218.052 178.014055 
L 219.726 194.857199 
L 223.074 91.702806 
L 224.748 108.545932 
L 226.422 171.45552 
L 228.096 197.011085 
L 229.77 151.369654 
L 231.444 95.016214 
L 233.118 102.518736 
L 234.792 163.897929 
L 236.466 198.056062 
L 238.14 159.988582 
L 239.814 99.921553 
L 241.488 96.851871 
L 243.162 154.708038 
L 244.836 197.5962 
L 246.51 169.489738 
L 248.184 107.201542 
L 249.858 91.853643 
L 253.206 194.681583 
L 254.88 179.781361 
L 256.554 117.91624 
L 258.228 88.581703 
L 259.902 129.165901 
L 261.576 187.728097 
L 263.25 189.882918 
L 264.924 133.124119 
L 266.598 89.152199 
L 268.272 113.043632 
L 269.946 174.677964 
L 271.62 197.298392 
L 273.294 153.116349 
L 274.968 96.830073 
L 276.642 97.410656 
L 278.316 153.849165 
L 279.99 197.487764 
L 281.664 175.851455 
L 283.338 115.22511 
L 285.012 87.977395 
L 286.686 126.111833 
L 288.36 184.411342 
L 290.034 194.724494 
L 293.382 93.667567 
L 295.056 98.544681 
L 296.73 154.109667 
L 298.404 197.500357 
L 300.078 180.432011 
L 301.752 122.282403 
L 303.426 87.151655 
L 305.1 113.007815 
L 306.774 171.456874 
L 308.448 199.853564 
L 310.122 168.493776 
L 311.796 110.766388 
L 313.47 86.69259 
L 315.144 120.573445 
L 316.818 177.457438 
L 318.492 200.103788 
L 320.166 166.479714 
L 321.84 110.15329 
L 323.514 85.849184 
L 325.188 116.366326 
L 326.862 172.243189 
L 328.536 201.191187 
L 330.21 177.031054 
L 331.884 122.354514 
L 333.558 86.323872 
L 335.232 100.287123 
L 336.906 151.407471 
L 338.58 195.614903 
L 340.254 196.035731 
L 341.928 153.061707 
L 343.602 102.181505 
L 345.276 83.923713 
L 346.95 111.90811 
L 348.624 163.865701 
L 350.298 200.403329 
L 351.972 195.026057 
L 353.646 152.481577 
L 355.32 103.472426 
L 356.994 81.797607 
L 358.668 101.350529 
L 360.342 148.336285 
L 362.016 192.097336 
L 363.69 205.539827 
L 365.364 181.367322 
L 367.038 134.835198 
L 368.712 93.114597 
L 370.386 79.098421 
L 372.06 99.391238 
L 375.408 185.786978 
L 377.082 208.7998 
L 378.756 201.558088 
L 380.43 168.495619 
L 382.104 124.737654 
L 383.778 88.490485 
L 385.452 73.378993 
L 387.126 83.869571 
L 388.8 114.949498 
L 390.474 155.283912 
L 392.148 191.938385 
L 393.822 214.663835 
L 395.496 218.418179 
L 397.17 203.759065 
L 398.844 175.542868 
L 402.192 106.463019 
L 403.866 78.051076 
L 405.54 58.677339 
L 407.214 49.173484 
L 408.888 48.568528 
L 410.562 54.807572 
L 412.236 65.449171 
L 417.258 103.248296 
L 418.932 113.590075 
L 420.606 121.980088 
L 422.28 128.465061 
L 423.954 133.270932 
L 425.628 136.701176 
L 427.302 139.06737 
L 428.976 140.649011 
L 430.65 141.675674 
L 433 142.485036 
L 433 142.485036 
" style="fill:none;stroke:#1f77b4;stroke-linecap:square;stroke-width:1.5;"/>
   </g>
   <g id="line2d_18">
    <path clip-path="url(#pb5a0e3449e)" d="M -1 143.36688 
L 2.106 143.54225 
L 3.78 143.747828 
L 5.454 144.096124 
L 7.128 144.671332 
L 8.802 145.59622 
L 10.476 147.042125 
L 12.15 149.236228 
L 13.824 152.461511 
L 15.498 157.042823 
L 17.172 163.311013 
L 18.846 171.53733 
L 20.52 181.833507 
L 22.194 194.020864 
L 25.542 221.050631 
L 27.216 232.929058 
L 28.89 240.804148 
L 30.564 242.116364 
L 32.238 234.573555 
L 33.912 216.851058 
L 35.586 189.350321 
L 40.608 86.923707 
L 42.282 67.992418 
L 43.956 67.175456 
L 45.63 86.153324 
L 47.304 121.068716 
L 48.978 162.524452 
L 50.652 197.684301 
L 52.326 214.282464 
L 54 205.403779 
L 55.674 173.145039 
L 57.348 129.186704 
L 59.022 91.206881 
L 60.696 75.83934 
L 62.37 90.847042 
L 64.044 130.304462 
L 65.718 175.921913 
L 67.392 205.016353 
L 69.066 202.002953 
L 70.74 167.569132 
L 72.414 119.844004 
L 74.088 85.573403 
L 75.762 85.094212 
L 77.436 119.497553 
L 79.11 168.423401 
L 80.784 201.357835 
L 82.458 196.71872 
L 84.132 156.817373 
L 85.806 107.896569 
L 87.48 83.497694 
L 89.154 101.211174 
L 90.828 149.048994 
L 92.502 192.53856 
L 94.176 199.236308 
L 95.85 163.510078 
L 97.524 112.281884 
L 99.198 85.485878 
L 100.872 104.795779 
L 102.546 155.19254 
L 104.22 195.678076 
L 105.894 192.392096 
L 107.568 147.597878 
L 109.242 99.211404 
L 110.916 89.214926 
L 112.59 126.809557 
L 114.264 178.99095 
L 115.938 198.847867 
L 117.612 167.951813 
L 119.286 114.350463 
L 120.96 87.869071 
L 122.634 113.727352 
L 124.308 167.709369 
L 125.982 198.046968 
L 127.656 175.042464 
L 129.33 120.885788 
L 131.004 89.039205 
L 132.678 111.521648 
L 134.352 166.015807 
L 136.026 197.262756 
L 137.7 173.039913 
L 139.374 118.065714 
L 141.048 89.48525 
L 142.722 117.485298 
L 144.396 172.744829 
L 146.07 196.495884 
L 147.744 163.072779 
L 149.418 108.309047 
L 151.092 91.67837 
L 152.766 131.570454 
L 154.44 184.302329 
L 156.114 191.497975 
L 159.462 96.587794 
L 161.136 100.912461 
L 162.81 153.221093 
L 164.484 194.145821 
L 166.158 176.831418 
L 167.832 120.976066 
L 169.506 90.937061 
L 171.18 121.628789 
L 172.854 177.499174 
L 174.528 193.301264 
L 176.202 150.374629 
L 177.876 99.132009 
L 179.55 100.137525 
L 181.224 152.327897 
L 182.898 193.702215 
L 184.572 174.833343 
L 186.246 118.189463 
L 187.92 91.725113 
L 189.594 127.369966 
L 191.268 182.200358 
L 192.942 189.885933 
L 196.29 94.935317 
L 197.964 107.765714 
L 199.638 163.936477 
L 201.312 194.823745 
L 202.986 162.572577 
L 204.66 106.671884 
L 206.334 95.753334 
L 209.682 190.794117 
L 211.356 179.744512 
L 213.03 123.725734 
L 214.704 91.850844 
L 216.378 123.491147 
L 218.052 179.576755 
L 219.726 190.799118 
L 223.074 95.760882 
L 224.748 106.983245 
L 226.422 163.068853 
L 228.096 194.709156 
L 229.77 162.834266 
L 231.444 106.815488 
L 233.118 95.765883 
L 236.466 190.806666 
L 238.14 179.888116 
L 239.814 123.987423 
L 241.488 91.736255 
L 243.162 122.623523 
L 244.836 178.794286 
L 246.51 191.624683 
L 249.858 96.674067 
L 251.532 104.359642 
L 253.206 159.190034 
L 254.88 194.834887 
L 256.554 168.370537 
L 258.228 111.726657 
L 259.902 92.857785 
L 261.576 134.232103 
L 263.25 186.422475 
L 264.924 187.427991 
L 266.598 136.185371 
L 268.272 93.258736 
L 269.946 109.060826 
L 271.62 164.931211 
L 273.294 195.622939 
L 274.968 165.583934 
L 276.642 109.728582 
L 278.316 92.414179 
L 279.99 133.338907 
L 281.664 185.647539 
L 283.338 189.972206 
L 286.686 95.062025 
L 288.36 102.257671 
L 290.034 154.989546 
L 291.708 194.88163 
L 293.382 178.250953 
L 295.056 123.487221 
L 296.73 90.064116 
L 298.404 113.815171 
L 300.078 169.074702 
L 301.752 197.07475 
L 303.426 168.494286 
L 305.1 113.520087 
L 306.774 89.297244 
L 308.448 120.544193 
L 310.122 175.038352 
L 311.796 197.520795 
L 313.47 165.674212 
L 315.144 111.517536 
L 316.818 88.513032 
L 318.492 118.850631 
L 320.166 172.832648 
L 321.84 198.690929 
L 323.514 172.209537 
L 325.188 118.608187 
L 326.862 87.712133 
L 328.536 107.56905 
L 330.21 159.750443 
L 331.884 197.345074 
L 333.558 187.348596 
L 335.232 138.962122 
L 336.906 94.167904 
L 338.58 90.881924 
L 340.254 131.36746 
L 341.928 181.764221 
L 343.602 201.074122 
L 345.276 174.278116 
L 346.95 123.049922 
L 348.624 87.323692 
L 350.298 94.02144 
L 351.972 137.511006 
L 353.646 185.348826 
L 355.32 203.062306 
L 356.994 178.663431 
L 358.668 129.742627 
L 360.342 89.84128 
L 362.016 85.202165 
L 363.69 118.136599 
L 365.364 167.062447 
L 367.038 201.465788 
L 368.712 200.986597 
L 370.386 166.715996 
L 372.06 118.990868 
L 373.734 84.557047 
L 375.408 81.543647 
L 377.082 110.638087 
L 378.756 156.255538 
L 380.43 195.712958 
L 382.104 210.72066 
L 383.778 195.353119 
L 385.452 157.373296 
L 387.126 113.414961 
L 388.8 81.156221 
L 390.474 72.277536 
L 392.148 88.875699 
L 393.822 124.035548 
L 395.496 165.491284 
L 397.17 200.406676 
L 398.844 219.384544 
L 400.518 218.567582 
L 402.192 199.636293 
L 403.866 168.245303 
L 407.214 97.209679 
L 408.888 69.708942 
L 410.562 51.986445 
L 412.236 44.443636 
L 413.91 45.755852 
L 415.584 53.630942 
L 417.258 65.509369 
L 420.606 92.539136 
L 422.28 104.726493 
L 423.954 115.02267 
L 425.628 123.248987 
L 427.302 129.517177 
L 428.976 134.098489 
L 430.65 137.323772 
L 432.324 139.517875 
L 433 140.101765 
L 433 140.101765 
" style="fill:none;stroke:#ff7f0e;stroke-linecap:square;stroke-width:1.5;"/>
   </g>
   <g id="patch_3">
    <path d="M 54 252 
L 54 34.56 
" style="fill:none;stroke:#000000;stroke-linecap:square;stroke-linejoin:miter;stroke-width:0.8;"/>
   </g>
   <g id="patch_4">
    <path d="M 388.8 252 
L 388.8 34.56 
" style="fill:none;stroke:#000000;stroke-linecap:square;stroke-linejoin:miter;stroke-width:0.8;"/>
   </g>
   <g id="patch_5">
    <path d="M 54 252 
L 388.8 252 
" style="fill:none;stroke:#000000;stroke-linecap:square;stroke-linejoin:miter;stroke-width:0.8;"/>
   </g>
   <g id="patch_6">
    <path d="M 54 34.56 
L 388.8 34.56 
" style="fill:none;stroke:#000000;stroke-linecap:square;stroke-linejoin:miter;stroke-width:0.8;"/>
   </g>
   <g id="text_19">
    <!-- N=500, L=50 -->
    <g transform="translate(180.61125 28.56)scale(0.12 -0.12)">
     <defs>
      <path d="M 9.8125 72.90625 
L 23.09375 72.90625 
L 55.421875 11.921875 
L 55.421875 72.90625 
L 64.984375 72.90625 
L 64.984375 0 
L 51.703125 0 
L 19.390625 60.984375 
L 19.390625 0 
L 9.8125 0 
z
" id="DejaVuSans-78"/>
      <path d="M 10.59375 45.40625 
L 73.1875 45.40625 
L 73.1875 37.203125 
L 10.59375 37.203125 
z
M 10.59375 25.484375 
L 73.1875 25.484375 
L 73.1875 17.1875 
L 10.59375 17.1875 
z
" id="DejaVuSans-61"/>
      <path d="M 11.71875 12.40625 
L 22.015625 12.40625 
L 22.015625 4 
L 14.015625 -11.625 
L 7.71875 -11.625 
L 11.71875 4 
z
" id="DejaVuSans-44"/>
      <path id="DejaVuSans-32"/>
      <path d="M 9.8125 72.90625 
L 19.671875 72.90625 
L 19.671875 8.296875 
L 55.171875 8.296875 
L 55.171875 0 
L 9.8125 0 
z
" id="DejaVuSans-76"/>
     </defs>
     <use xlink:href="#DejaVuSans-78"/>
     <use x="74.804688" xlink:href="#DejaVuSans-61"/>
     <use x="158.59375" xlink:href="#DejaVuSans-53"/>
     <use x="222.216797" xlink:href="#DejaVuSans-48"/>
     <use x="285.839844" xlink:href="#DejaVuSans-48"/>
     <use x="349.462891" xlink:href="#DejaVuSans-44"/>
     <use x="381.25" xlink:href="#DejaVuSans-32"/>
     <use x="413.037109" xlink:href="#DejaVuSans-76"/>
     <use x="468.75" xlink:href="#DejaVuSans-61"/>
     <use x="552.539062" xlink:href="#DejaVuSans-53"/>
     <use x="616.162109" xlink:href="#DejaVuSans-48"/>
    </g>
   </g>
   <g id="legend_1">
    <g id="patch_7">
     <path d="M 187.92 246 
L 254.88 246 
Q 257.28 246 257.28 243.6 
L 257.28 204.24 
Q 257.28 201.84 254.88 201.84 
L 187.92 201.84 
Q 185.52 201.84 185.52 204.24 
L 185.52 243.6 
Q 185.52 246 187.92 246 
z
" style="fill:#ffffff;opacity:0.8;stroke:#cccccc;stroke-linejoin:miter;"/>
    </g>
    <g id="line2d_19">
     <path d="M 190.32 213.24 
L 214.32 213.24 
" style="fill:none;stroke:#1f77b4;stroke-linecap:square;stroke-width:1.5;"/>
    </g>
    <g id="line2d_20"/>
    <g id="text_20">
     <!-- $\psi^{NUM}_{69}$ -->
     <g transform="translate(223.92 217.44)scale(0.12 -0.12)">
      <defs>
       <path d="M 24.859375 -1.21875 
Q 13.921875 0.59375 9.625 5.328125 
Q 4.34375 11.140625 6.640625 23 
L 12.796875 54.6875 
L 21.875 54.6875 
L 15.765625 23.34375 
Q 14.0625 14.40625 17.484375 10.6875 
Q 20.515625 7.46875 26.421875 6.78125 
L 35.6875 54.6875 
L 44.625 54.6875 
L 35.359375 6.84375 
Q 41.890625 7.515625 45.75 10.75 
Q 50.734375 14.84375 52.390625 23.390625 
L 58.453125 54.6875 
L 67.53125 54.6875 
L 61.375 23.046875 
Q 58.984375 10.75 51.5625 5.375 
Q 44.875 0.53125 33.796875 -1.171875 
L 29.984375 -20.796875 
L 21.046875 -20.796875 
z
" id="DejaVuSans-Oblique-968"/>
       <path d="M 16.890625 72.90625 
L 30.171875 72.90625 
L 50.296875 10.40625 
L 62.5 72.90625 
L 72.125 72.90625 
L 57.90625 0 
L 44.578125 0 
L 24.515625 62.890625 
L 12.3125 0 
L 2.6875 0 
z
" id="DejaVuSans-Oblique-78"/>
       <path d="M 15.484375 72.90625 
L 25.390625 72.90625 
L 16.796875 28.609375 
Q 16.265625 25.640625 16.046875 23.703125 
Q 15.828125 21.78125 15.828125 20.3125 
Q 15.828125 13.578125 19.578125 10.078125 
Q 23.34375 6.59375 30.609375 6.59375 
Q 40.046875 6.59375 45.28125 11.765625 
Q 50.53125 16.9375 52.78125 28.609375 
L 61.375 72.90625 
L 71.296875 72.90625 
L 62.5 27.390625 
Q 59.625 12.640625 51.5625 5.609375 
Q 43.5 -1.421875 29.5 -1.421875 
Q 18.5625 -1.421875 12.1875 4.078125 
Q 5.8125 9.578125 5.8125 19 
Q 5.8125 20.703125 6.046875 22.828125 
Q 6.296875 24.953125 6.78125 27.390625 
z
" id="DejaVuSans-Oblique-85"/>
       <path d="M 16.890625 72.90625 
L 31.6875 72.90625 
L 40.1875 23.78125 
L 68.40625 72.90625 
L 83.59375 72.90625 
L 69.390625 0 
L 59.8125 0 
L 72.21875 63.921875 
L 43.609375 14.015625 
L 33.984375 14.015625 
L 24.703125 64.109375 
L 12.3125 0 
L 2.6875 0 
z
" id="DejaVuSans-Oblique-77"/>
       <path d="M 33.015625 40.375 
Q 26.375 40.375 22.484375 35.828125 
Q 18.609375 31.296875 18.609375 23.390625 
Q 18.609375 15.53125 22.484375 10.953125 
Q 26.375 6.390625 33.015625 6.390625 
Q 39.65625 6.390625 43.53125 10.953125 
Q 47.40625 15.53125 47.40625 23.390625 
Q 47.40625 31.296875 43.53125 35.828125 
Q 39.65625 40.375 33.015625 40.375 
z
M 52.59375 71.296875 
L 52.59375 62.3125 
Q 48.875 64.0625 45.09375 64.984375 
Q 41.3125 65.921875 37.59375 65.921875 
Q 27.828125 65.921875 22.671875 59.328125 
Q 17.53125 52.734375 16.796875 39.40625 
Q 19.671875 43.65625 24.015625 45.921875 
Q 28.375 48.1875 33.59375 48.1875 
Q 44.578125 48.1875 50.953125 41.515625 
Q 57.328125 34.859375 57.328125 23.390625 
Q 57.328125 12.15625 50.6875 5.359375 
Q 44.046875 -1.421875 33.015625 -1.421875 
Q 20.359375 -1.421875 13.671875 8.265625 
Q 6.984375 17.96875 6.984375 36.375 
Q 6.984375 53.65625 15.1875 63.9375 
Q 23.390625 74.21875 37.203125 74.21875 
Q 40.921875 74.21875 44.703125 73.484375 
Q 48.484375 72.75 52.59375 71.296875 
z
" id="DejaVuSans-54"/>
       <path d="M 10.984375 1.515625 
L 10.984375 10.5 
Q 14.703125 8.734375 18.5 7.8125 
Q 22.3125 6.890625 25.984375 6.890625 
Q 35.75 6.890625 40.890625 13.453125 
Q 46.046875 20.015625 46.78125 33.40625 
Q 43.953125 29.203125 39.59375 26.953125 
Q 35.25 24.703125 29.984375 24.703125 
Q 19.046875 24.703125 12.671875 31.3125 
Q 6.296875 37.9375 6.296875 49.421875 
Q 6.296875 60.640625 12.9375 67.421875 
Q 19.578125 74.21875 30.609375 74.21875 
Q 43.265625 74.21875 49.921875 64.515625 
Q 56.59375 54.828125 56.59375 36.375 
Q 56.59375 19.140625 48.40625 8.859375 
Q 40.234375 -1.421875 26.421875 -1.421875 
Q 22.703125 -1.421875 18.890625 -0.6875 
Q 15.09375 0.046875 10.984375 1.515625 
z
M 30.609375 32.421875 
Q 37.25 32.421875 41.125 36.953125 
Q 45.015625 41.5 45.015625 49.421875 
Q 45.015625 57.28125 41.125 61.84375 
Q 37.25 66.40625 30.609375 66.40625 
Q 23.96875 66.40625 20.09375 61.84375 
Q 16.21875 57.28125 16.21875 49.421875 
Q 16.21875 41.5 20.09375 36.953125 
Q 23.96875 32.421875 30.609375 32.421875 
z
" id="DejaVuSans-57"/>
      </defs>
      <use transform="translate(0 0.684375)" xlink:href="#DejaVuSans-Oblique-968"/>
      <use transform="translate(70.432943 38.965625)scale(0.7)" xlink:href="#DejaVuSans-Oblique-78"/>
      <use transform="translate(122.796224 38.965625)scale(0.7)" xlink:href="#DejaVuSans-Oblique-85"/>
      <use transform="translate(174.031576 38.965625)scale(0.7)" xlink:href="#DejaVuSans-Oblique-77"/>
      <use transform="translate(65.966797 -26.659375)scale(0.7)" xlink:href="#DejaVuSans-54"/>
      <use transform="translate(110.50293 -26.659375)scale(0.7)" xlink:href="#DejaVuSans-57"/>
     </g>
    </g>
    <g id="line2d_21">
     <path d="M 190.32 233.52 
L 214.32 233.52 
" style="fill:none;stroke:#ff7f0e;stroke-linecap:square;stroke-width:1.5;"/>
    </g>
    <g id="line2d_22"/>
    <g id="text_21">
     <!-- $\psi^{TH}_{69}$ -->
     <g transform="translate(223.92 237.72)scale(0.12 -0.12)">
      <defs>
       <path d="M 5.90625 72.90625 
L 67.578125 72.90625 
L 66.015625 64.59375 
L 39.984375 64.59375 
L 27.484375 0 
L 17.578125 0 
L 30.078125 64.59375 
L 4.296875 64.59375 
z
" id="DejaVuSans-Oblique-84"/>
       <path d="M 16.890625 72.90625 
L 26.8125 72.90625 
L 21 43.015625 
L 56.78125 43.015625 
L 62.59375 72.90625 
L 72.515625 72.90625 
L 58.296875 0 
L 48.390625 0 
L 55.171875 34.71875 
L 19.390625 34.71875 
L 12.59375 0 
L 2.6875 0 
z
" id="DejaVuSans-Oblique-72"/>
      </defs>
      <use transform="translate(0 0.684375)" xlink:href="#DejaVuSans-Oblique-968"/>
      <use transform="translate(70.432943 38.965625)scale(0.7)" xlink:href="#DejaVuSans-Oblique-84"/>
      <use transform="translate(113.191732 38.965625)scale(0.7)" xlink:href="#DejaVuSans-Oblique-72"/>
      <use transform="translate(65.966797 -26.659375)scale(0.7)" xlink:href="#DejaVuSans-54"/>
      <use transform="translate(110.50293 -26.659375)scale(0.7)" xlink:href="#DejaVuSans-57"/>
     </g>
    </g>
   </g>
  </g>
 </g>
 <defs>
  <clipPath id="pb5a0e3449e">
   <rect height="217.44" width="334.8" x="54" y="34.56"/>
  </clipPath>
 </defs>
</svg>
