<?xml version="1.0" encoding="utf-8" standalone="no"?>
<!DOCTYPE svg PUBLIC "-//W3C//DTD SVG 1.1//EN"
  "http://www.w3.org/Graphics/SVG/1.1/DTD/svg11.dtd">
<!-- Created with matplotlib (https://matplotlib.org/) -->
<svg height="288pt" version="1.1" viewBox="0 0 432 288" width="432pt" xmlns="http://www.w3.org/2000/svg" xmlns:xlink="http://www.w3.org/1999/xlink">
 <metadata>
  <rdf:RDF xmlns:cc="http://creativecommons.org/ns#" xmlns:dc="http://purl.org/dc/elements/1.1/" xmlns:rdf="http://www.w3.org/1999/02/22-rdf-syntax-ns#">
   <cc:Work>
    <dc:type rdf:resource="http://purl.org/dc/dcmitype/StillImage"/>
    <dc:date>2021-11-23T18:23:01.250788</dc:date>
    <dc:format>image/svg+xml</dc:format>
    <dc:creator>
     <cc:Agent>
      <dc:title>Matplotlib v3.3.4, https://matplotlib.org/</dc:title>
     </cc:Agent>
    </dc:creator>
   </cc:Work>
  </rdf:RDF>
 </metadata>
 <defs>
  <style type="text/css">*{stroke-linecap:butt;stroke-linejoin:round;}</style>
 </defs>
 <g id="figure_1">
  <g id="patch_1">
   <path d="M 0 288 
L 432 288 
L 432 0 
L 0 0 
z
" style="fill:none;"/>
  </g>
  <g id="axes_1">
   <g id="patch_2">
    <path d="M 54 252 
L 388.8 252 
L 388.8 34.56 
L 54 34.56 
z
" style="fill:#ffffff;"/>
   </g>
   <g id="matplotlib.axis_1">
    <g id="xtick_1">
     <g id="line2d_1">
      <defs>
       <path d="M 0 0 
L 0 3.5 
" id="m66c7592ea4" style="stroke:#000000;stroke-width:0.8;"/>
      </defs>
      <g>
       <use style="stroke:#000000;stroke-width:0.8;" x="54" xlink:href="#m66c7592ea4" y="252"/>
      </g>
     </g>
     <g id="text_1">
      <!-- −10.0 -->
      <g transform="translate(38.677344 266.598437)scale(0.1 -0.1)">
       <defs>
        <path d="M 10.59375 35.5 
L 73.1875 35.5 
L 73.1875 27.203125 
L 10.59375 27.203125 
z
" id="DejaVuSans-8722"/>
        <path d="M 12.40625 8.296875 
L 28.515625 8.296875 
L 28.515625 63.921875 
L 10.984375 60.40625 
L 10.984375 69.390625 
L 28.421875 72.90625 
L 38.28125 72.90625 
L 38.28125 8.296875 
L 54.390625 8.296875 
L 54.390625 0 
L 12.40625 0 
z
" id="DejaVuSans-49"/>
        <path d="M 31.78125 66.40625 
Q 24.171875 66.40625 20.328125 58.90625 
Q 16.5 51.421875 16.5 36.375 
Q 16.5 21.390625 20.328125 13.890625 
Q 24.171875 6.390625 31.78125 6.390625 
Q 39.453125 6.390625 43.28125 13.890625 
Q 47.125 21.390625 47.125 36.375 
Q 47.125 51.421875 43.28125 58.90625 
Q 39.453125 66.40625 31.78125 66.40625 
z
M 31.78125 74.21875 
Q 44.046875 74.21875 50.515625 64.515625 
Q 56.984375 54.828125 56.984375 36.375 
Q 56.984375 17.96875 50.515625 8.265625 
Q 44.046875 -1.421875 31.78125 -1.421875 
Q 19.53125 -1.421875 13.0625 8.265625 
Q 6.59375 17.96875 6.59375 36.375 
Q 6.59375 54.828125 13.0625 64.515625 
Q 19.53125 74.21875 31.78125 74.21875 
z
" id="DejaVuSans-48"/>
        <path d="M 10.6875 12.40625 
L 21 12.40625 
L 21 0 
L 10.6875 0 
z
" id="DejaVuSans-46"/>
       </defs>
       <use xlink:href="#DejaVuSans-8722"/>
       <use x="83.789062" xlink:href="#DejaVuSans-49"/>
       <use x="147.412109" xlink:href="#DejaVuSans-48"/>
       <use x="211.035156" xlink:href="#DejaVuSans-46"/>
       <use x="242.822266" xlink:href="#DejaVuSans-48"/>
      </g>
     </g>
    </g>
    <g id="xtick_2">
     <g id="line2d_2">
      <g>
       <use style="stroke:#000000;stroke-width:0.8;" x="95.85" xlink:href="#m66c7592ea4" y="252"/>
      </g>
     </g>
     <g id="text_2">
      <!-- −7.5 -->
      <g transform="translate(83.708594 266.598437)scale(0.1 -0.1)">
       <defs>
        <path d="M 8.203125 72.90625 
L 55.078125 72.90625 
L 55.078125 68.703125 
L 28.609375 0 
L 18.3125 0 
L 43.21875 64.59375 
L 8.203125 64.59375 
z
" id="DejaVuSans-55"/>
        <path d="M 10.796875 72.90625 
L 49.515625 72.90625 
L 49.515625 64.59375 
L 19.828125 64.59375 
L 19.828125 46.734375 
Q 21.96875 47.46875 24.109375 47.828125 
Q 26.265625 48.1875 28.421875 48.1875 
Q 40.625 48.1875 47.75 41.5 
Q 54.890625 34.8125 54.890625 23.390625 
Q 54.890625 11.625 47.5625 5.09375 
Q 40.234375 -1.421875 26.90625 -1.421875 
Q 22.3125 -1.421875 17.546875 -0.640625 
Q 12.796875 0.140625 7.71875 1.703125 
L 7.71875 11.625 
Q 12.109375 9.234375 16.796875 8.0625 
Q 21.484375 6.890625 26.703125 6.890625 
Q 35.15625 6.890625 40.078125 11.328125 
Q 45.015625 15.765625 45.015625 23.390625 
Q 45.015625 31 40.078125 35.4375 
Q 35.15625 39.890625 26.703125 39.890625 
Q 22.75 39.890625 18.8125 39.015625 
Q 14.890625 38.140625 10.796875 36.28125 
z
" id="DejaVuSans-53"/>
       </defs>
       <use xlink:href="#DejaVuSans-8722"/>
       <use x="83.789062" xlink:href="#DejaVuSans-55"/>
       <use x="147.412109" xlink:href="#DejaVuSans-46"/>
       <use x="179.199219" xlink:href="#DejaVuSans-53"/>
      </g>
     </g>
    </g>
    <g id="xtick_3">
     <g id="line2d_3">
      <g>
       <use style="stroke:#000000;stroke-width:0.8;" x="137.7" xlink:href="#m66c7592ea4" y="252"/>
      </g>
     </g>
     <g id="text_3">
      <!-- −5.0 -->
      <g transform="translate(125.558594 266.598437)scale(0.1 -0.1)">
       <use xlink:href="#DejaVuSans-8722"/>
       <use x="83.789062" xlink:href="#DejaVuSans-53"/>
       <use x="147.412109" xlink:href="#DejaVuSans-46"/>
       <use x="179.199219" xlink:href="#DejaVuSans-48"/>
      </g>
     </g>
    </g>
    <g id="xtick_4">
     <g id="line2d_4">
      <g>
       <use style="stroke:#000000;stroke-width:0.8;" x="179.55" xlink:href="#m66c7592ea4" y="252"/>
      </g>
     </g>
     <g id="text_4">
      <!-- −2.5 -->
      <g transform="translate(167.408594 266.598437)scale(0.1 -0.1)">
       <defs>
        <path d="M 19.1875 8.296875 
L 53.609375 8.296875 
L 53.609375 0 
L 7.328125 0 
L 7.328125 8.296875 
Q 12.9375 14.109375 22.625 23.890625 
Q 32.328125 33.6875 34.8125 36.53125 
Q 39.546875 41.84375 41.421875 45.53125 
Q 43.3125 49.21875 43.3125 52.78125 
Q 43.3125 58.59375 39.234375 62.25 
Q 35.15625 65.921875 28.609375 65.921875 
Q 23.96875 65.921875 18.8125 64.3125 
Q 13.671875 62.703125 7.8125 59.421875 
L 7.8125 69.390625 
Q 13.765625 71.78125 18.9375 73 
Q 24.125 74.21875 28.421875 74.21875 
Q 39.75 74.21875 46.484375 68.546875 
Q 53.21875 62.890625 53.21875 53.421875 
Q 53.21875 48.921875 51.53125 44.890625 
Q 49.859375 40.875 45.40625 35.40625 
Q 44.1875 33.984375 37.640625 27.21875 
Q 31.109375 20.453125 19.1875 8.296875 
z
" id="DejaVuSans-50"/>
       </defs>
       <use xlink:href="#DejaVuSans-8722"/>
       <use x="83.789062" xlink:href="#DejaVuSans-50"/>
       <use x="147.412109" xlink:href="#DejaVuSans-46"/>
       <use x="179.199219" xlink:href="#DejaVuSans-53"/>
      </g>
     </g>
    </g>
    <g id="xtick_5">
     <g id="line2d_5">
      <g>
       <use style="stroke:#000000;stroke-width:0.8;" x="221.4" xlink:href="#m66c7592ea4" y="252"/>
      </g>
     </g>
     <g id="text_5">
      <!-- 0.0 -->
      <g transform="translate(213.448438 266.598437)scale(0.1 -0.1)">
       <use xlink:href="#DejaVuSans-48"/>
       <use x="63.623047" xlink:href="#DejaVuSans-46"/>
       <use x="95.410156" xlink:href="#DejaVuSans-48"/>
      </g>
     </g>
    </g>
    <g id="xtick_6">
     <g id="line2d_6">
      <g>
       <use style="stroke:#000000;stroke-width:0.8;" x="263.25" xlink:href="#m66c7592ea4" y="252"/>
      </g>
     </g>
     <g id="text_6">
      <!-- 2.5 -->
      <g transform="translate(255.298438 266.598437)scale(0.1 -0.1)">
       <use xlink:href="#DejaVuSans-50"/>
       <use x="63.623047" xlink:href="#DejaVuSans-46"/>
       <use x="95.410156" xlink:href="#DejaVuSans-53"/>
      </g>
     </g>
    </g>
    <g id="xtick_7">
     <g id="line2d_7">
      <g>
       <use style="stroke:#000000;stroke-width:0.8;" x="305.1" xlink:href="#m66c7592ea4" y="252"/>
      </g>
     </g>
     <g id="text_7">
      <!-- 5.0 -->
      <g transform="translate(297.148438 266.598437)scale(0.1 -0.1)">
       <use xlink:href="#DejaVuSans-53"/>
       <use x="63.623047" xlink:href="#DejaVuSans-46"/>
       <use x="95.410156" xlink:href="#DejaVuSans-48"/>
      </g>
     </g>
    </g>
    <g id="xtick_8">
     <g id="line2d_8">
      <g>
       <use style="stroke:#000000;stroke-width:0.8;" x="346.95" xlink:href="#m66c7592ea4" y="252"/>
      </g>
     </g>
     <g id="text_8">
      <!-- 7.5 -->
      <g transform="translate(338.998438 266.598437)scale(0.1 -0.1)">
       <use xlink:href="#DejaVuSans-55"/>
       <use x="63.623047" xlink:href="#DejaVuSans-46"/>
       <use x="95.410156" xlink:href="#DejaVuSans-53"/>
      </g>
     </g>
    </g>
    <g id="xtick_9">
     <g id="line2d_9">
      <g>
       <use style="stroke:#000000;stroke-width:0.8;" x="388.8" xlink:href="#m66c7592ea4" y="252"/>
      </g>
     </g>
     <g id="text_9">
      <!-- 10.0 -->
      <g transform="translate(377.667188 266.598437)scale(0.1 -0.1)">
       <use xlink:href="#DejaVuSans-49"/>
       <use x="63.623047" xlink:href="#DejaVuSans-48"/>
       <use x="127.246094" xlink:href="#DejaVuSans-46"/>
       <use x="159.033203" xlink:href="#DejaVuSans-48"/>
      </g>
     </g>
    </g>
    <g id="text_10">
     <!-- x -->
     <g transform="translate(218.440625 280.276563)scale(0.1 -0.1)">
      <defs>
       <path d="M 54.890625 54.6875 
L 35.109375 28.078125 
L 55.90625 0 
L 45.3125 0 
L 29.390625 21.484375 
L 13.484375 0 
L 2.875 0 
L 24.125 28.609375 
L 4.6875 54.6875 
L 15.28125 54.6875 
L 29.78125 35.203125 
L 44.28125 54.6875 
z
" id="DejaVuSans-120"/>
      </defs>
      <use xlink:href="#DejaVuSans-120"/>
     </g>
    </g>
   </g>
   <g id="matplotlib.axis_2">
    <g id="ytick_1">
     <g id="line2d_10">
      <defs>
       <path d="M 0 0 
L -3.5 0 
" id="mb9ffdf5ed2" style="stroke:#000000;stroke-width:0.8;"/>
      </defs>
      <g>
       <use style="stroke:#000000;stroke-width:0.8;" x="54" xlink:href="#mb9ffdf5ed2" y="246.951292"/>
      </g>
     </g>
     <g id="text_11">
      <!-- −1.5 -->
      <g transform="translate(22.717187 250.75051)scale(0.1 -0.1)">
       <use xlink:href="#DejaVuSans-8722"/>
       <use x="83.789062" xlink:href="#DejaVuSans-49"/>
       <use x="147.412109" xlink:href="#DejaVuSans-46"/>
       <use x="179.199219" xlink:href="#DejaVuSans-53"/>
      </g>
     </g>
    </g>
    <g id="ytick_2">
     <g id="line2d_11">
      <g>
       <use style="stroke:#000000;stroke-width:0.8;" x="54" xlink:href="#mb9ffdf5ed2" y="212.394194"/>
      </g>
     </g>
     <g id="text_12">
      <!-- −1.0 -->
      <g transform="translate(22.717187 216.193413)scale(0.1 -0.1)">
       <use xlink:href="#DejaVuSans-8722"/>
       <use x="83.789062" xlink:href="#DejaVuSans-49"/>
       <use x="147.412109" xlink:href="#DejaVuSans-46"/>
       <use x="179.199219" xlink:href="#DejaVuSans-48"/>
      </g>
     </g>
    </g>
    <g id="ytick_3">
     <g id="line2d_12">
      <g>
       <use style="stroke:#000000;stroke-width:0.8;" x="54" xlink:href="#mb9ffdf5ed2" y="177.837097"/>
      </g>
     </g>
     <g id="text_13">
      <!-- −0.5 -->
      <g transform="translate(22.717187 181.636316)scale(0.1 -0.1)">
       <use xlink:href="#DejaVuSans-8722"/>
       <use x="83.789062" xlink:href="#DejaVuSans-48"/>
       <use x="147.412109" xlink:href="#DejaVuSans-46"/>
       <use x="179.199219" xlink:href="#DejaVuSans-53"/>
      </g>
     </g>
    </g>
    <g id="ytick_4">
     <g id="line2d_13">
      <g>
       <use style="stroke:#000000;stroke-width:0.8;" x="54" xlink:href="#mb9ffdf5ed2" y="143.28"/>
      </g>
     </g>
     <g id="text_14">
      <!-- 0.0 -->
      <g transform="translate(31.096875 147.079219)scale(0.1 -0.1)">
       <use xlink:href="#DejaVuSans-48"/>
       <use x="63.623047" xlink:href="#DejaVuSans-46"/>
       <use x="95.410156" xlink:href="#DejaVuSans-48"/>
      </g>
     </g>
    </g>
    <g id="ytick_5">
     <g id="line2d_14">
      <g>
       <use style="stroke:#000000;stroke-width:0.8;" x="54" xlink:href="#mb9ffdf5ed2" y="108.722903"/>
      </g>
     </g>
     <g id="text_15">
      <!-- 0.5 -->
      <g transform="translate(31.096875 112.522122)scale(0.1 -0.1)">
       <use xlink:href="#DejaVuSans-48"/>
       <use x="63.623047" xlink:href="#DejaVuSans-46"/>
       <use x="95.410156" xlink:href="#DejaVuSans-53"/>
      </g>
     </g>
    </g>
    <g id="ytick_6">
     <g id="line2d_15">
      <g>
       <use style="stroke:#000000;stroke-width:0.8;" x="54" xlink:href="#mb9ffdf5ed2" y="74.165806"/>
      </g>
     </g>
     <g id="text_16">
      <!-- 1.0 -->
      <g transform="translate(31.096875 77.965024)scale(0.1 -0.1)">
       <use xlink:href="#DejaVuSans-49"/>
       <use x="63.623047" xlink:href="#DejaVuSans-46"/>
       <use x="95.410156" xlink:href="#DejaVuSans-48"/>
      </g>
     </g>
    </g>
    <g id="ytick_7">
     <g id="line2d_16">
      <g>
       <use style="stroke:#000000;stroke-width:0.8;" x="54" xlink:href="#mb9ffdf5ed2" y="39.608708"/>
      </g>
     </g>
     <g id="text_17">
      <!-- 1.5 -->
      <g transform="translate(31.096875 43.407927)scale(0.1 -0.1)">
       <use xlink:href="#DejaVuSans-49"/>
       <use x="63.623047" xlink:href="#DejaVuSans-46"/>
       <use x="95.410156" xlink:href="#DejaVuSans-53"/>
      </g>
     </g>
    </g>
    <g id="text_18">
     <!-- 1e−1 -->
     <g transform="translate(54 31.56)scale(0.1 -0.1)">
      <defs>
       <path d="M 56.203125 29.59375 
L 56.203125 25.203125 
L 14.890625 25.203125 
Q 15.484375 15.921875 20.484375 11.0625 
Q 25.484375 6.203125 34.421875 6.203125 
Q 39.59375 6.203125 44.453125 7.46875 
Q 49.3125 8.734375 54.109375 11.28125 
L 54.109375 2.78125 
Q 49.265625 0.734375 44.1875 -0.34375 
Q 39.109375 -1.421875 33.890625 -1.421875 
Q 20.796875 -1.421875 13.15625 6.1875 
Q 5.515625 13.8125 5.515625 26.8125 
Q 5.515625 40.234375 12.765625 48.109375 
Q 20.015625 56 32.328125 56 
Q 43.359375 56 49.78125 48.890625 
Q 56.203125 41.796875 56.203125 29.59375 
z
M 47.21875 32.234375 
Q 47.125 39.59375 43.09375 43.984375 
Q 39.0625 48.390625 32.421875 48.390625 
Q 24.90625 48.390625 20.390625 44.140625 
Q 15.875 39.890625 15.1875 32.171875 
z
" id="DejaVuSans-101"/>
      </defs>
      <use xlink:href="#DejaVuSans-49"/>
      <use x="63.623047" xlink:href="#DejaVuSans-101"/>
      <use x="125.146484" xlink:href="#DejaVuSans-8722"/>
      <use x="208.935547" xlink:href="#DejaVuSans-49"/>
     </g>
    </g>
   </g>
   <g id="line2d_17">
    <path clip-path="url(#p0abed4f5ec)" d="M -1 143.280202 
L 13.824 143.363992 
L 17.172 143.551901 
L 18.846 143.754866 
L 20.52 144.092408 
L 22.194 144.640608 
L 23.868 145.509094 
L 25.542 146.849477 
L 27.216 148.861636 
L 28.89 151.794204 
L 30.564 155.934083 
L 32.238 161.578527 
L 33.912 168.983282 
L 35.586 178.282361 
L 37.26 189.380555 
L 42.282 226.572323 
L 43.956 235.451096 
L 45.63 239.06688 
L 47.304 235.192093 
L 48.978 222.20876 
L 50.652 199.769728 
L 52.326 169.405155 
L 55.674 101.808823 
L 57.348 77.091902 
L 59.022 66.956238 
L 60.696 75.123044 
L 62.37 100.94934 
L 65.718 177.559421 
L 67.392 205.741344 
L 69.066 213.042426 
L 70.74 195.745248 
L 72.414 158.999183 
L 74.088 116.144637 
L 75.762 84.315198 
L 77.436 77.475063 
L 79.11 99.661495 
L 82.458 184.693414 
L 84.132 207.185745 
L 85.806 197.194775 
L 87.48 158.920103 
L 89.154 112.188821 
L 90.828 82.7629 
L 92.502 87.97094 
L 94.176 125.689661 
L 95.85 174.017121 
L 97.524 203.342881 
L 99.198 194.642805 
L 100.872 152.669882 
L 102.546 104.478037 
L 104.22 82.539614 
L 105.894 102.554598 
L 107.568 151.264721 
L 109.242 194.239416 
L 110.916 199.921998 
L 112.59 163.400605 
L 114.264 111.623762 
L 115.938 84.257058 
L 117.612 103.152566 
L 119.286 154.001564 
L 120.96 196.181101 
L 122.634 194.944685 
L 124.308 150.692232 
L 125.982 100.181627 
L 127.656 86.554623 
L 129.33 122.114215 
L 131.004 176.261607 
L 132.678 201.085041 
L 134.352 173.895476 
L 136.026 118.836634 
L 137.7 86.280362 
L 139.374 106.773674 
L 141.048 161.604852 
L 142.722 199.021915 
L 144.396 182.937873 
L 146.07 128.421373 
L 147.744 88.439587 
L 149.418 102.590793 
L 151.092 157.26033 
L 152.766 197.889419 
L 154.44 183.220988 
L 156.114 127.784776 
L 157.788 88.286959 
L 159.462 105.778458 
L 161.136 162.41408 
L 162.81 198.937865 
L 164.484 176.564477 
L 166.158 118.739779 
L 167.832 87.2173 
L 169.506 116.147248 
L 171.18 174.505389 
L 172.854 198.805987 
L 174.528 162.216769 
L 176.202 104.753543 
L 177.876 89.969937 
L 179.55 134.525777 
L 181.224 188.870592 
L 182.898 192.012594 
L 184.572 140.193954 
L 186.246 91.869646 
L 187.92 101.978363 
L 189.594 159.199873 
L 191.268 198.19949 
L 192.942 174.135031 
L 194.616 114.531735 
L 196.29 88.135571 
L 197.964 125.607706 
L 199.638 183.599149 
L 201.312 194.667153 
L 204.66 93.989889 
L 206.334 99.881427 
L 208.008 156.662149 
L 209.682 197.728209 
L 211.356 174.774047 
L 213.03 114.748231 
L 214.704 88.338556 
L 216.378 126.710356 
L 218.052 184.631029 
L 219.726 193.745064 
L 223.074 92.814955 
L 224.748 101.928941 
L 226.422 159.8496 
L 228.096 198.221439 
L 229.77 171.811808 
L 231.444 111.785991 
L 233.118 88.831783 
L 234.792 129.897806 
L 236.466 186.678545 
L 238.14 192.570132 
L 241.488 91.892865 
L 243.162 102.96082 
L 244.836 160.952251 
L 246.51 198.424423 
L 248.184 172.028304 
L 249.858 112.425007 
L 251.532 88.360503 
L 253.206 127.360083 
L 254.88 184.581606 
L 256.554 194.690372 
L 258.228 146.366092 
L 259.902 94.547429 
L 261.576 97.689381 
L 263.25 152.034177 
L 264.924 196.590049 
L 266.598 181.806491 
L 268.272 124.343275 
L 269.946 87.754019 
L 271.62 112.054573 
L 273.294 170.412712 
L 274.968 199.342702 
L 276.642 167.820263 
L 278.316 109.995561 
L 279.99 87.622128 
L 281.664 124.145877 
L 283.338 180.781508 
L 285.012 198.273052 
L 286.686 158.775269 
L 288.36 103.339045 
L 290.034 88.670569 
L 291.708 129.299624 
L 293.382 183.969174 
L 295.056 198.120425 
L 296.73 158.138672 
L 298.404 103.622161 
L 300.078 87.538074 
L 301.752 124.955103 
L 303.426 179.786289 
L 305.1 200.279644 
L 306.774 167.723409 
L 308.448 112.664565 
L 310.122 85.47496 
L 311.796 110.298354 
L 313.47 164.44574 
L 315.144 200.005366 
L 316.818 186.378406 
L 318.492 135.867816 
L 320.166 91.615337 
L 321.84 90.378877 
L 323.514 132.558388 
L 325.188 183.407398 
L 326.862 202.302946 
L 328.536 174.93628 
L 330.21 123.159441 
L 331.884 86.638018 
L 333.558 92.320558 
L 335.232 135.295229 
L 336.906 184.005365 
L 338.58 204.020388 
L 340.254 182.082002 
L 341.928 133.890157 
L 343.602 91.917207 
L 345.276 83.217098 
L 346.95 112.542819 
L 348.624 160.870277 
L 350.298 198.589029 
L 351.972 203.797118 
L 353.646 174.371235 
L 355.32 127.63997 
L 356.994 89.365275 
L 358.668 79.374273 
L 360.342 101.866562 
L 363.69 186.898447 
L 365.364 209.084902 
L 367.038 202.244765 
L 368.712 170.41534 
L 370.386 127.560817 
L 372.06 90.81477 
L 373.734 73.517604 
L 375.408 80.818708 
L 377.082 109.000636 
L 380.43 185.610681 
L 382.104 211.436948 
L 383.778 219.603705 
L 385.452 209.46803 
L 387.126 184.751093 
L 392.148 86.790268 
L 393.822 64.351261 
L 395.496 51.367973 
L 397.17 47.49317 
L 398.844 51.108933 
L 400.518 59.987712 
L 402.192 71.848369 
L 405.54 97.179443 
L 407.214 108.27762 
L 408.888 117.576702 
L 410.562 124.98146 
L 412.236 130.62591 
L 413.91 134.76579 
L 415.584 137.69836 
L 417.258 139.71052 
L 418.932 141.050905 
L 420.606 141.919392 
L 422.28 142.467591 
L 423.954 142.805134 
L 427.302 143.1274 
L 433 143.260607 
L 433 143.260607 
" style="fill:none;stroke:#1f77b4;stroke-linecap:square;stroke-width:1.5;"/>
   </g>
   <g id="line2d_18">
    <path clip-path="url(#p0abed4f5ec)" d="M -1 143.280909 
L 10.476 143.372819 
L 13.824 143.584583 
L 15.498 143.814664 
L 17.172 144.19837 
L 18.846 144.822528 
L 20.52 145.8117 
L 22.194 147.336958 
L 23.868 149.621564 
L 25.542 152.939203 
L 27.216 157.598769 
L 28.89 163.908662 
L 30.564 172.113976 
L 32.238 182.303249 
L 33.912 194.288568 
L 37.26 220.746958 
L 38.934 232.427465 
L 40.608 240.350774 
L 42.282 242.116364 
L 43.956 235.539956 
L 45.63 219.27528 
L 47.304 193.498605 
L 48.978 160.464611 
L 50.652 124.685058 
L 52.326 92.492621 
L 54 70.866706 
L 55.674 65.623872 
L 57.348 79.371518 
L 59.022 109.891016 
L 62.37 187.481006 
L 64.044 211.061423 
L 65.718 211.794011 
L 67.392 188.300837 
L 70.74 106.288136 
L 72.414 79.499 
L 74.088 79.675162 
L 75.762 107.702728 
L 77.436 151.800295 
L 79.11 191.762966 
L 80.784 208.061639 
L 82.458 191.84821 
L 84.132 150.60139 
L 85.806 105.580971 
L 87.48 81.27788 
L 89.154 91.810937 
L 90.828 131.915895 
L 92.502 178.608439 
L 94.176 203.866981 
L 95.85 191.684652 
L 97.524 149.022286 
L 99.198 102.774265 
L 100.872 83.243705 
L 102.546 103.958754 
L 104.22 151.446374 
L 105.894 193.144979 
L 107.568 199.49591 
L 109.242 165.419867 
L 110.916 115.246749 
L 112.59 85.999543 
L 114.264 99.99323 
L 117.612 191.098026 
L 119.286 197.409206 
L 120.96 160.542945 
L 122.634 109.809028 
L 124.308 86.563644 
L 125.982 110.33535 
L 127.656 161.666551 
L 129.33 197.309982 
L 131.004 186.572362 
L 132.678 138.345595 
L 134.352 94.530093 
L 136.026 93.912416 
L 137.7 137.389701 
L 139.374 186.100762 
L 141.048 195.756226 
L 142.722 157.208383 
L 144.396 105.824135 
L 146.07 89.510982 
L 147.744 123.858812 
L 149.418 176.586338 
L 151.092 197.376903 
L 152.766 166.011399 
L 154.44 112.632025 
L 156.114 89.279092 
L 157.788 119.084359 
L 159.462 172.807026 
L 161.136 197.037082 
L 162.81 167.346373 
L 164.484 113.426104 
L 166.158 89.845144 
L 167.832 120.773296 
L 169.506 174.733762 
L 171.18 196.232145 
L 172.854 162.893323 
L 174.528 109.191355 
L 176.202 91.156192 
L 177.876 127.82785 
L 179.55 180.744849 
L 181.224 193.985462 
L 182.898 153.37721 
L 184.572 102.043081 
L 186.246 94.844559 
L 187.92 139.613951 
L 189.594 188.296133 
L 191.268 188.356112 
L 192.942 139.626391 
L 194.616 94.891829 
L 196.29 102.826701 
L 197.964 154.870444 
L 199.638 194.221174 
L 201.312 177.77029 
L 202.986 123.487609 
L 204.66 90.97793 
L 206.334 116.048435 
L 208.008 171.126605 
L 209.682 195.456111 
L 211.356 162.131503 
L 213.03 107.965507 
L 214.704 92.89724 
L 216.378 133.634982 
L 218.052 185.056715 
L 219.726 190.16076 
L 223.074 96.39924 
L 224.748 101.503285 
L 226.422 152.925018 
L 228.096 193.66276 
L 229.77 178.594493 
L 231.444 124.428497 
L 233.118 91.103889 
L 234.792 115.433395 
L 236.466 170.511565 
L 238.14 195.58207 
L 239.814 163.072391 
L 241.488 108.78971 
L 243.162 92.338826 
L 244.836 131.689556 
L 246.51 183.733299 
L 248.184 191.668171 
L 249.858 146.933609 
L 251.532 98.203888 
L 253.206 98.263867 
L 254.88 146.946049 
L 256.554 191.715441 
L 258.228 184.516919 
L 259.902 133.18279 
L 261.576 92.574538 
L 263.25 105.815151 
L 264.924 158.73215 
L 266.598 195.403808 
L 268.272 177.368645 
L 269.946 123.666677 
L 271.62 90.327855 
L 273.294 111.826238 
L 274.968 165.786704 
L 276.642 196.714856 
L 278.316 173.133896 
L 279.99 119.213627 
L 281.664 89.522918 
L 283.338 113.752974 
L 285.012 167.475641 
L 286.686 197.280908 
L 288.36 173.927975 
L 290.034 120.548601 
L 291.708 89.183097 
L 293.382 109.973662 
L 295.056 162.701188 
L 296.73 197.049018 
L 298.404 180.735865 
L 300.078 129.351617 
L 301.752 90.803774 
L 303.426 100.459238 
L 305.1 149.170299 
L 306.774 192.647584 
L 308.448 192.029907 
L 310.122 148.214405 
L 311.796 99.987638 
L 313.47 89.250018 
L 315.144 124.893449 
L 316.818 176.22465 
L 318.492 199.996356 
L 320.166 176.750972 
L 321.84 126.017055 
L 323.514 89.150794 
L 325.188 95.461974 
L 326.862 139.492545 
L 328.536 186.56677 
L 330.21 200.560457 
L 331.884 171.313251 
L 333.558 121.140133 
L 335.232 87.06409 
L 336.906 93.415021 
L 338.58 135.113626 
L 340.254 182.601246 
L 341.928 203.316295 
L 343.602 183.785735 
L 345.276 137.537714 
L 346.95 94.875348 
L 348.624 82.693019 
L 350.298 107.951561 
L 351.972 154.644105 
L 353.646 194.749063 
L 355.32 205.28212 
L 356.994 180.979029 
L 358.668 135.95861 
L 360.342 94.71179 
L 362.016 78.498361 
L 363.69 94.797034 
L 365.364 134.759705 
L 367.038 178.857272 
L 368.712 206.884838 
L 370.386 207.061 
L 372.06 180.271864 
L 375.408 98.259163 
L 377.082 74.765989 
L 378.756 75.498577 
L 380.43 99.078994 
L 383.778 176.668984 
L 385.452 207.188482 
L 387.126 220.936128 
L 388.8 215.693294 
L 390.474 194.067379 
L 392.148 161.874942 
L 393.822 126.095389 
L 395.496 93.061395 
L 397.17 67.28472 
L 398.844 51.020044 
L 400.518 44.443636 
L 402.192 46.209226 
L 403.866 54.132535 
L 405.54 65.813042 
L 408.888 92.271432 
L 410.562 104.256751 
L 412.236 114.446024 
L 413.91 122.651338 
L 415.584 128.961231 
L 417.258 133.620797 
L 418.932 136.938436 
L 420.606 139.223042 
L 422.28 140.7483 
L 423.954 141.737472 
L 425.628 142.36163 
L 427.302 142.745336 
L 430.65 143.110118 
L 433 143.204592 
L 433 143.204592 
" style="fill:none;stroke:#ff7f0e;stroke-linecap:square;stroke-width:1.5;"/>
   </g>
   <g id="patch_3">
    <path d="M 54 252 
L 54 34.56 
" style="fill:none;stroke:#000000;stroke-linecap:square;stroke-linejoin:miter;stroke-width:0.8;"/>
   </g>
   <g id="patch_4">
    <path d="M 388.8 252 
L 388.8 34.56 
" style="fill:none;stroke:#000000;stroke-linecap:square;stroke-linejoin:miter;stroke-width:0.8;"/>
   </g>
   <g id="patch_5">
    <path d="M 54 252 
L 388.8 252 
" style="fill:none;stroke:#000000;stroke-linecap:square;stroke-linejoin:miter;stroke-width:0.8;"/>
   </g>
   <g id="patch_6">
    <path d="M 54 34.56 
L 388.8 34.56 
" style="fill:none;stroke:#000000;stroke-linecap:square;stroke-linejoin:miter;stroke-width:0.8;"/>
   </g>
   <g id="text_19">
    <!-- N=500, L=50 -->
    <g transform="translate(180.61125 28.56)scale(0.12 -0.12)">
     <defs>
      <path d="M 9.8125 72.90625 
L 23.09375 72.90625 
L 55.421875 11.921875 
L 55.421875 72.90625 
L 64.984375 72.90625 
L 64.984375 0 
L 51.703125 0 
L 19.390625 60.984375 
L 19.390625 0 
L 9.8125 0 
z
" id="DejaVuSans-78"/>
      <path d="M 10.59375 45.40625 
L 73.1875 45.40625 
L 73.1875 37.203125 
L 10.59375 37.203125 
z
M 10.59375 25.484375 
L 73.1875 25.484375 
L 73.1875 17.1875 
L 10.59375 17.1875 
z
" id="DejaVuSans-61"/>
      <path d="M 11.71875 12.40625 
L 22.015625 12.40625 
L 22.015625 4 
L 14.015625 -11.625 
L 7.71875 -11.625 
L 11.71875 4 
z
" id="DejaVuSans-44"/>
      <path id="DejaVuSans-32"/>
      <path d="M 9.8125 72.90625 
L 19.671875 72.90625 
L 19.671875 8.296875 
L 55.171875 8.296875 
L 55.171875 0 
L 9.8125 0 
z
" id="DejaVuSans-76"/>
     </defs>
     <use xlink:href="#DejaVuSans-78"/>
     <use x="74.804688" xlink:href="#DejaVuSans-61"/>
     <use x="158.59375" xlink:href="#DejaVuSans-53"/>
     <use x="222.216797" xlink:href="#DejaVuSans-48"/>
     <use x="285.839844" xlink:href="#DejaVuSans-48"/>
     <use x="349.462891" xlink:href="#DejaVuSans-44"/>
     <use x="381.25" xlink:href="#DejaVuSans-32"/>
     <use x="413.037109" xlink:href="#DejaVuSans-76"/>
     <use x="468.75" xlink:href="#DejaVuSans-61"/>
     <use x="552.539062" xlink:href="#DejaVuSans-53"/>
     <use x="616.162109" xlink:href="#DejaVuSans-48"/>
    </g>
   </g>
   <g id="legend_1">
    <g id="patch_7">
     <path d="M 187.92 246 
L 254.88 246 
Q 257.28 246 257.28 243.6 
L 257.28 204.24 
Q 257.28 201.84 254.88 201.84 
L 187.92 201.84 
Q 185.52 201.84 185.52 204.24 
L 185.52 243.6 
Q 185.52 246 187.92 246 
z
" style="fill:#ffffff;opacity:0.8;stroke:#cccccc;stroke-linejoin:miter;"/>
    </g>
    <g id="line2d_19">
     <path d="M 190.32 213.24 
L 214.32 213.24 
" style="fill:none;stroke:#1f77b4;stroke-linecap:square;stroke-width:1.5;"/>
    </g>
    <g id="line2d_20"/>
    <g id="text_20">
     <!-- $\psi^{NUM}_{61}$ -->
     <g transform="translate(223.92 217.44)scale(0.12 -0.12)">
      <defs>
       <path d="M 24.859375 -1.21875 
Q 13.921875 0.59375 9.625 5.328125 
Q 4.34375 11.140625 6.640625 23 
L 12.796875 54.6875 
L 21.875 54.6875 
L 15.765625 23.34375 
Q 14.0625 14.40625 17.484375 10.6875 
Q 20.515625 7.46875 26.421875 6.78125 
L 35.6875 54.6875 
L 44.625 54.6875 
L 35.359375 6.84375 
Q 41.890625 7.515625 45.75 10.75 
Q 50.734375 14.84375 52.390625 23.390625 
L 58.453125 54.6875 
L 67.53125 54.6875 
L 61.375 23.046875 
Q 58.984375 10.75 51.5625 5.375 
Q 44.875 0.53125 33.796875 -1.171875 
L 29.984375 -20.796875 
L 21.046875 -20.796875 
z
" id="DejaVuSans-Oblique-968"/>
       <path d="M 16.890625 72.90625 
L 30.171875 72.90625 
L 50.296875 10.40625 
L 62.5 72.90625 
L 72.125 72.90625 
L 57.90625 0 
L 44.578125 0 
L 24.515625 62.890625 
L 12.3125 0 
L 2.6875 0 
z
" id="DejaVuSans-Oblique-78"/>
       <path d="M 15.484375 72.90625 
L 25.390625 72.90625 
L 16.796875 28.609375 
Q 16.265625 25.640625 16.046875 23.703125 
Q 15.828125 21.78125 15.828125 20.3125 
Q 15.828125 13.578125 19.578125 10.078125 
Q 23.34375 6.59375 30.609375 6.59375 
Q 40.046875 6.59375 45.28125 11.765625 
Q 50.53125 16.9375 52.78125 28.609375 
L 61.375 72.90625 
L 71.296875 72.90625 
L 62.5 27.390625 
Q 59.625 12.640625 51.5625 5.609375 
Q 43.5 -1.421875 29.5 -1.421875 
Q 18.5625 -1.421875 12.1875 4.078125 
Q 5.8125 9.578125 5.8125 19 
Q 5.8125 20.703125 6.046875 22.828125 
Q 6.296875 24.953125 6.78125 27.390625 
z
" id="DejaVuSans-Oblique-85"/>
       <path d="M 16.890625 72.90625 
L 31.6875 72.90625 
L 40.1875 23.78125 
L 68.40625 72.90625 
L 83.59375 72.90625 
L 69.390625 0 
L 59.8125 0 
L 72.21875 63.921875 
L 43.609375 14.015625 
L 33.984375 14.015625 
L 24.703125 64.109375 
L 12.3125 0 
L 2.6875 0 
z
" id="DejaVuSans-Oblique-77"/>
       <path d="M 33.015625 40.375 
Q 26.375 40.375 22.484375 35.828125 
Q 18.609375 31.296875 18.609375 23.390625 
Q 18.609375 15.53125 22.484375 10.953125 
Q 26.375 6.390625 33.015625 6.390625 
Q 39.65625 6.390625 43.53125 10.953125 
Q 47.40625 15.53125 47.40625 23.390625 
Q 47.40625 31.296875 43.53125 35.828125 
Q 39.65625 40.375 33.015625 40.375 
z
M 52.59375 71.296875 
L 52.59375 62.3125 
Q 48.875 64.0625 45.09375 64.984375 
Q 41.3125 65.921875 37.59375 65.921875 
Q 27.828125 65.921875 22.671875 59.328125 
Q 17.53125 52.734375 16.796875 39.40625 
Q 19.671875 43.65625 24.015625 45.921875 
Q 28.375 48.1875 33.59375 48.1875 
Q 44.578125 48.1875 50.953125 41.515625 
Q 57.328125 34.859375 57.328125 23.390625 
Q 57.328125 12.15625 50.6875 5.359375 
Q 44.046875 -1.421875 33.015625 -1.421875 
Q 20.359375 -1.421875 13.671875 8.265625 
Q 6.984375 17.96875 6.984375 36.375 
Q 6.984375 53.65625 15.1875 63.9375 
Q 23.390625 74.21875 37.203125 74.21875 
Q 40.921875 74.21875 44.703125 73.484375 
Q 48.484375 72.75 52.59375 71.296875 
z
" id="DejaVuSans-54"/>
      </defs>
      <use transform="translate(0 0.684375)" xlink:href="#DejaVuSans-Oblique-968"/>
      <use transform="translate(70.432943 38.965625)scale(0.7)" xlink:href="#DejaVuSans-Oblique-78"/>
      <use transform="translate(122.796224 38.965625)scale(0.7)" xlink:href="#DejaVuSans-Oblique-85"/>
      <use transform="translate(174.031576 38.965625)scale(0.7)" xlink:href="#DejaVuSans-Oblique-77"/>
      <use transform="translate(65.966797 -26.659375)scale(0.7)" xlink:href="#DejaVuSans-54"/>
      <use transform="translate(110.50293 -26.659375)scale(0.7)" xlink:href="#DejaVuSans-49"/>
     </g>
    </g>
    <g id="line2d_21">
     <path d="M 190.32 233.52 
L 214.32 233.52 
" style="fill:none;stroke:#ff7f0e;stroke-linecap:square;stroke-width:1.5;"/>
    </g>
    <g id="line2d_22"/>
    <g id="text_21">
     <!-- $\psi^{TH}_{61}$ -->
     <g transform="translate(223.92 237.72)scale(0.12 -0.12)">
      <defs>
       <path d="M 5.90625 72.90625 
L 67.578125 72.90625 
L 66.015625 64.59375 
L 39.984375 64.59375 
L 27.484375 0 
L 17.578125 0 
L 30.078125 64.59375 
L 4.296875 64.59375 
z
" id="DejaVuSans-Oblique-84"/>
       <path d="M 16.890625 72.90625 
L 26.8125 72.90625 
L 21 43.015625 
L 56.78125 43.015625 
L 62.59375 72.90625 
L 72.515625 72.90625 
L 58.296875 0 
L 48.390625 0 
L 55.171875 34.71875 
L 19.390625 34.71875 
L 12.59375 0 
L 2.6875 0 
z
" id="DejaVuSans-Oblique-72"/>
      </defs>
      <use transform="translate(0 0.684375)" xlink:href="#DejaVuSans-Oblique-968"/>
      <use transform="translate(70.432943 38.965625)scale(0.7)" xlink:href="#DejaVuSans-Oblique-84"/>
      <use transform="translate(113.191732 38.965625)scale(0.7)" xlink:href="#DejaVuSans-Oblique-72"/>
      <use transform="translate(65.966797 -26.659375)scale(0.7)" xlink:href="#DejaVuSans-54"/>
      <use transform="translate(110.50293 -26.659375)scale(0.7)" xlink:href="#DejaVuSans-49"/>
     </g>
    </g>
   </g>
  </g>
 </g>
 <defs>
  <clipPath id="p0abed4f5ec">
   <rect height="217.44" width="334.8" x="54" y="34.56"/>
  </clipPath>
 </defs>
</svg>
