<?xml version="1.0" encoding="utf-8" standalone="no"?>
<!DOCTYPE svg PUBLIC "-//W3C//DTD SVG 1.1//EN"
  "http://www.w3.org/Graphics/SVG/1.1/DTD/svg11.dtd">
<!-- Created with matplotlib (https://matplotlib.org/) -->
<svg height="288pt" version="1.1" viewBox="0 0 432 288" width="432pt" xmlns="http://www.w3.org/2000/svg" xmlns:xlink="http://www.w3.org/1999/xlink">
 <metadata>
  <rdf:RDF xmlns:cc="http://creativecommons.org/ns#" xmlns:dc="http://purl.org/dc/elements/1.1/" xmlns:rdf="http://www.w3.org/1999/02/22-rdf-syntax-ns#">
   <cc:Work>
    <dc:type rdf:resource="http://purl.org/dc/dcmitype/StillImage"/>
    <dc:date>2021-11-23T18:23:18.062251</dc:date>
    <dc:format>image/svg+xml</dc:format>
    <dc:creator>
     <cc:Agent>
      <dc:title>Matplotlib v3.3.4, https://matplotlib.org/</dc:title>
     </cc:Agent>
    </dc:creator>
   </cc:Work>
  </rdf:RDF>
 </metadata>
 <defs>
  <style type="text/css">*{stroke-linecap:butt;stroke-linejoin:round;}</style>
 </defs>
 <g id="figure_1">
  <g id="patch_1">
   <path d="M 0 288 
L 432 288 
L 432 0 
L 0 0 
z
" style="fill:none;"/>
  </g>
  <g id="axes_1">
   <g id="patch_2">
    <path d="M 54 252 
L 388.8 252 
L 388.8 34.56 
L 54 34.56 
z
" style="fill:#ffffff;"/>
   </g>
   <g id="matplotlib.axis_1">
    <g id="xtick_1">
     <g id="line2d_1">
      <defs>
       <path d="M 0 0 
L 0 3.5 
" id="mb96be49f57" style="stroke:#000000;stroke-width:0.8;"/>
      </defs>
      <g>
       <use style="stroke:#000000;stroke-width:0.8;" x="54" xlink:href="#mb96be49f57" y="252"/>
      </g>
     </g>
     <g id="text_1">
      <!-- −10.0 -->
      <g transform="translate(38.677344 266.598437)scale(0.1 -0.1)">
       <defs>
        <path d="M 10.59375 35.5 
L 73.1875 35.5 
L 73.1875 27.203125 
L 10.59375 27.203125 
z
" id="DejaVuSans-8722"/>
        <path d="M 12.40625 8.296875 
L 28.515625 8.296875 
L 28.515625 63.921875 
L 10.984375 60.40625 
L 10.984375 69.390625 
L 28.421875 72.90625 
L 38.28125 72.90625 
L 38.28125 8.296875 
L 54.390625 8.296875 
L 54.390625 0 
L 12.40625 0 
z
" id="DejaVuSans-49"/>
        <path d="M 31.78125 66.40625 
Q 24.171875 66.40625 20.328125 58.90625 
Q 16.5 51.421875 16.5 36.375 
Q 16.5 21.390625 20.328125 13.890625 
Q 24.171875 6.390625 31.78125 6.390625 
Q 39.453125 6.390625 43.28125 13.890625 
Q 47.125 21.390625 47.125 36.375 
Q 47.125 51.421875 43.28125 58.90625 
Q 39.453125 66.40625 31.78125 66.40625 
z
M 31.78125 74.21875 
Q 44.046875 74.21875 50.515625 64.515625 
Q 56.984375 54.828125 56.984375 36.375 
Q 56.984375 17.96875 50.515625 8.265625 
Q 44.046875 -1.421875 31.78125 -1.421875 
Q 19.53125 -1.421875 13.0625 8.265625 
Q 6.59375 17.96875 6.59375 36.375 
Q 6.59375 54.828125 13.0625 64.515625 
Q 19.53125 74.21875 31.78125 74.21875 
z
" id="DejaVuSans-48"/>
        <path d="M 10.6875 12.40625 
L 21 12.40625 
L 21 0 
L 10.6875 0 
z
" id="DejaVuSans-46"/>
       </defs>
       <use xlink:href="#DejaVuSans-8722"/>
       <use x="83.789062" xlink:href="#DejaVuSans-49"/>
       <use x="147.412109" xlink:href="#DejaVuSans-48"/>
       <use x="211.035156" xlink:href="#DejaVuSans-46"/>
       <use x="242.822266" xlink:href="#DejaVuSans-48"/>
      </g>
     </g>
    </g>
    <g id="xtick_2">
     <g id="line2d_2">
      <g>
       <use style="stroke:#000000;stroke-width:0.8;" x="95.85" xlink:href="#mb96be49f57" y="252"/>
      </g>
     </g>
     <g id="text_2">
      <!-- −7.5 -->
      <g transform="translate(83.708594 266.598437)scale(0.1 -0.1)">
       <defs>
        <path d="M 8.203125 72.90625 
L 55.078125 72.90625 
L 55.078125 68.703125 
L 28.609375 0 
L 18.3125 0 
L 43.21875 64.59375 
L 8.203125 64.59375 
z
" id="DejaVuSans-55"/>
        <path d="M 10.796875 72.90625 
L 49.515625 72.90625 
L 49.515625 64.59375 
L 19.828125 64.59375 
L 19.828125 46.734375 
Q 21.96875 47.46875 24.109375 47.828125 
Q 26.265625 48.1875 28.421875 48.1875 
Q 40.625 48.1875 47.75 41.5 
Q 54.890625 34.8125 54.890625 23.390625 
Q 54.890625 11.625 47.5625 5.09375 
Q 40.234375 -1.421875 26.90625 -1.421875 
Q 22.3125 -1.421875 17.546875 -0.640625 
Q 12.796875 0.140625 7.71875 1.703125 
L 7.71875 11.625 
Q 12.109375 9.234375 16.796875 8.0625 
Q 21.484375 6.890625 26.703125 6.890625 
Q 35.15625 6.890625 40.078125 11.328125 
Q 45.015625 15.765625 45.015625 23.390625 
Q 45.015625 31 40.078125 35.4375 
Q 35.15625 39.890625 26.703125 39.890625 
Q 22.75 39.890625 18.8125 39.015625 
Q 14.890625 38.140625 10.796875 36.28125 
z
" id="DejaVuSans-53"/>
       </defs>
       <use xlink:href="#DejaVuSans-8722"/>
       <use x="83.789062" xlink:href="#DejaVuSans-55"/>
       <use x="147.412109" xlink:href="#DejaVuSans-46"/>
       <use x="179.199219" xlink:href="#DejaVuSans-53"/>
      </g>
     </g>
    </g>
    <g id="xtick_3">
     <g id="line2d_3">
      <g>
       <use style="stroke:#000000;stroke-width:0.8;" x="137.7" xlink:href="#mb96be49f57" y="252"/>
      </g>
     </g>
     <g id="text_3">
      <!-- −5.0 -->
      <g transform="translate(125.558594 266.598437)scale(0.1 -0.1)">
       <use xlink:href="#DejaVuSans-8722"/>
       <use x="83.789062" xlink:href="#DejaVuSans-53"/>
       <use x="147.412109" xlink:href="#DejaVuSans-46"/>
       <use x="179.199219" xlink:href="#DejaVuSans-48"/>
      </g>
     </g>
    </g>
    <g id="xtick_4">
     <g id="line2d_4">
      <g>
       <use style="stroke:#000000;stroke-width:0.8;" x="179.55" xlink:href="#mb96be49f57" y="252"/>
      </g>
     </g>
     <g id="text_4">
      <!-- −2.5 -->
      <g transform="translate(167.408594 266.598437)scale(0.1 -0.1)">
       <defs>
        <path d="M 19.1875 8.296875 
L 53.609375 8.296875 
L 53.609375 0 
L 7.328125 0 
L 7.328125 8.296875 
Q 12.9375 14.109375 22.625 23.890625 
Q 32.328125 33.6875 34.8125 36.53125 
Q 39.546875 41.84375 41.421875 45.53125 
Q 43.3125 49.21875 43.3125 52.78125 
Q 43.3125 58.59375 39.234375 62.25 
Q 35.15625 65.921875 28.609375 65.921875 
Q 23.96875 65.921875 18.8125 64.3125 
Q 13.671875 62.703125 7.8125 59.421875 
L 7.8125 69.390625 
Q 13.765625 71.78125 18.9375 73 
Q 24.125 74.21875 28.421875 74.21875 
Q 39.75 74.21875 46.484375 68.546875 
Q 53.21875 62.890625 53.21875 53.421875 
Q 53.21875 48.921875 51.53125 44.890625 
Q 49.859375 40.875 45.40625 35.40625 
Q 44.1875 33.984375 37.640625 27.21875 
Q 31.109375 20.453125 19.1875 8.296875 
z
" id="DejaVuSans-50"/>
       </defs>
       <use xlink:href="#DejaVuSans-8722"/>
       <use x="83.789062" xlink:href="#DejaVuSans-50"/>
       <use x="147.412109" xlink:href="#DejaVuSans-46"/>
       <use x="179.199219" xlink:href="#DejaVuSans-53"/>
      </g>
     </g>
    </g>
    <g id="xtick_5">
     <g id="line2d_5">
      <g>
       <use style="stroke:#000000;stroke-width:0.8;" x="221.4" xlink:href="#mb96be49f57" y="252"/>
      </g>
     </g>
     <g id="text_5">
      <!-- 0.0 -->
      <g transform="translate(213.448438 266.598437)scale(0.1 -0.1)">
       <use xlink:href="#DejaVuSans-48"/>
       <use x="63.623047" xlink:href="#DejaVuSans-46"/>
       <use x="95.410156" xlink:href="#DejaVuSans-48"/>
      </g>
     </g>
    </g>
    <g id="xtick_6">
     <g id="line2d_6">
      <g>
       <use style="stroke:#000000;stroke-width:0.8;" x="263.25" xlink:href="#mb96be49f57" y="252"/>
      </g>
     </g>
     <g id="text_6">
      <!-- 2.5 -->
      <g transform="translate(255.298438 266.598437)scale(0.1 -0.1)">
       <use xlink:href="#DejaVuSans-50"/>
       <use x="63.623047" xlink:href="#DejaVuSans-46"/>
       <use x="95.410156" xlink:href="#DejaVuSans-53"/>
      </g>
     </g>
    </g>
    <g id="xtick_7">
     <g id="line2d_7">
      <g>
       <use style="stroke:#000000;stroke-width:0.8;" x="305.1" xlink:href="#mb96be49f57" y="252"/>
      </g>
     </g>
     <g id="text_7">
      <!-- 5.0 -->
      <g transform="translate(297.148438 266.598437)scale(0.1 -0.1)">
       <use xlink:href="#DejaVuSans-53"/>
       <use x="63.623047" xlink:href="#DejaVuSans-46"/>
       <use x="95.410156" xlink:href="#DejaVuSans-48"/>
      </g>
     </g>
    </g>
    <g id="xtick_8">
     <g id="line2d_8">
      <g>
       <use style="stroke:#000000;stroke-width:0.8;" x="346.95" xlink:href="#mb96be49f57" y="252"/>
      </g>
     </g>
     <g id="text_8">
      <!-- 7.5 -->
      <g transform="translate(338.998438 266.598437)scale(0.1 -0.1)">
       <use xlink:href="#DejaVuSans-55"/>
       <use x="63.623047" xlink:href="#DejaVuSans-46"/>
       <use x="95.410156" xlink:href="#DejaVuSans-53"/>
      </g>
     </g>
    </g>
    <g id="xtick_9">
     <g id="line2d_9">
      <g>
       <use style="stroke:#000000;stroke-width:0.8;" x="388.8" xlink:href="#mb96be49f57" y="252"/>
      </g>
     </g>
     <g id="text_9">
      <!-- 10.0 -->
      <g transform="translate(377.667188 266.598437)scale(0.1 -0.1)">
       <use xlink:href="#DejaVuSans-49"/>
       <use x="63.623047" xlink:href="#DejaVuSans-48"/>
       <use x="127.246094" xlink:href="#DejaVuSans-46"/>
       <use x="159.033203" xlink:href="#DejaVuSans-48"/>
      </g>
     </g>
    </g>
    <g id="text_10">
     <!-- x -->
     <g transform="translate(218.440625 280.276563)scale(0.1 -0.1)">
      <defs>
       <path d="M 54.890625 54.6875 
L 35.109375 28.078125 
L 55.90625 0 
L 45.3125 0 
L 29.390625 21.484375 
L 13.484375 0 
L 2.875 0 
L 24.125 28.609375 
L 4.6875 54.6875 
L 15.28125 54.6875 
L 29.78125 35.203125 
L 44.28125 54.6875 
z
" id="DejaVuSans-120"/>
      </defs>
      <use xlink:href="#DejaVuSans-120"/>
     </g>
    </g>
   </g>
   <g id="matplotlib.axis_2">
    <g id="ytick_1">
     <g id="line2d_10">
      <defs>
       <path d="M 0 0 
L -3.5 0 
" id="mf4662c38b1" style="stroke:#000000;stroke-width:0.8;"/>
      </defs>
      <g>
       <use style="stroke:#000000;stroke-width:0.8;" x="54" xlink:href="#mf4662c38b1" y="248.017383"/>
      </g>
     </g>
     <g id="text_11">
      <!-- −1.5 -->
      <g transform="translate(22.717187 251.816601)scale(0.1 -0.1)">
       <use xlink:href="#DejaVuSans-8722"/>
       <use x="83.789062" xlink:href="#DejaVuSans-49"/>
       <use x="147.412109" xlink:href="#DejaVuSans-46"/>
       <use x="179.199219" xlink:href="#DejaVuSans-53"/>
      </g>
     </g>
    </g>
    <g id="ytick_2">
     <g id="line2d_11">
      <g>
       <use style="stroke:#000000;stroke-width:0.8;" x="54" xlink:href="#mf4662c38b1" y="213.104922"/>
      </g>
     </g>
     <g id="text_12">
      <!-- −1.0 -->
      <g transform="translate(22.717187 216.904141)scale(0.1 -0.1)">
       <use xlink:href="#DejaVuSans-8722"/>
       <use x="83.789062" xlink:href="#DejaVuSans-49"/>
       <use x="147.412109" xlink:href="#DejaVuSans-46"/>
       <use x="179.199219" xlink:href="#DejaVuSans-48"/>
      </g>
     </g>
    </g>
    <g id="ytick_3">
     <g id="line2d_12">
      <g>
       <use style="stroke:#000000;stroke-width:0.8;" x="54" xlink:href="#mf4662c38b1" y="178.192461"/>
      </g>
     </g>
     <g id="text_13">
      <!-- −0.5 -->
      <g transform="translate(22.717187 181.99168)scale(0.1 -0.1)">
       <use xlink:href="#DejaVuSans-8722"/>
       <use x="83.789062" xlink:href="#DejaVuSans-48"/>
       <use x="147.412109" xlink:href="#DejaVuSans-46"/>
       <use x="179.199219" xlink:href="#DejaVuSans-53"/>
      </g>
     </g>
    </g>
    <g id="ytick_4">
     <g id="line2d_13">
      <g>
       <use style="stroke:#000000;stroke-width:0.8;" x="54" xlink:href="#mf4662c38b1" y="143.28"/>
      </g>
     </g>
     <g id="text_14">
      <!-- 0.0 -->
      <g transform="translate(31.096875 147.079219)scale(0.1 -0.1)">
       <use xlink:href="#DejaVuSans-48"/>
       <use x="63.623047" xlink:href="#DejaVuSans-46"/>
       <use x="95.410156" xlink:href="#DejaVuSans-48"/>
      </g>
     </g>
    </g>
    <g id="ytick_5">
     <g id="line2d_14">
      <g>
       <use style="stroke:#000000;stroke-width:0.8;" x="54" xlink:href="#mf4662c38b1" y="108.367539"/>
      </g>
     </g>
     <g id="text_15">
      <!-- 0.5 -->
      <g transform="translate(31.096875 112.166758)scale(0.1 -0.1)">
       <use xlink:href="#DejaVuSans-48"/>
       <use x="63.623047" xlink:href="#DejaVuSans-46"/>
       <use x="95.410156" xlink:href="#DejaVuSans-53"/>
      </g>
     </g>
    </g>
    <g id="ytick_6">
     <g id="line2d_15">
      <g>
       <use style="stroke:#000000;stroke-width:0.8;" x="54" xlink:href="#mf4662c38b1" y="73.455078"/>
      </g>
     </g>
     <g id="text_16">
      <!-- 1.0 -->
      <g transform="translate(31.096875 77.254297)scale(0.1 -0.1)">
       <use xlink:href="#DejaVuSans-49"/>
       <use x="63.623047" xlink:href="#DejaVuSans-46"/>
       <use x="95.410156" xlink:href="#DejaVuSans-48"/>
      </g>
     </g>
    </g>
    <g id="ytick_7">
     <g id="line2d_16">
      <g>
       <use style="stroke:#000000;stroke-width:0.8;" x="54" xlink:href="#mf4662c38b1" y="38.542617"/>
      </g>
     </g>
     <g id="text_17">
      <!-- 1.5 -->
      <g transform="translate(31.096875 42.341836)scale(0.1 -0.1)">
       <use xlink:href="#DejaVuSans-49"/>
       <use x="63.623047" xlink:href="#DejaVuSans-46"/>
       <use x="95.410156" xlink:href="#DejaVuSans-53"/>
      </g>
     </g>
    </g>
    <g id="text_18">
     <!-- 1e−1 -->
     <g transform="translate(54 31.56)scale(0.1 -0.1)">
      <defs>
       <path d="M 56.203125 29.59375 
L 56.203125 25.203125 
L 14.890625 25.203125 
Q 15.484375 15.921875 20.484375 11.0625 
Q 25.484375 6.203125 34.421875 6.203125 
Q 39.59375 6.203125 44.453125 7.46875 
Q 49.3125 8.734375 54.109375 11.28125 
L 54.109375 2.78125 
Q 49.265625 0.734375 44.1875 -0.34375 
Q 39.109375 -1.421875 33.890625 -1.421875 
Q 20.796875 -1.421875 13.15625 6.1875 
Q 5.515625 13.8125 5.515625 26.8125 
Q 5.515625 40.234375 12.765625 48.109375 
Q 20.015625 56 32.328125 56 
Q 43.359375 56 49.78125 48.890625 
Q 56.203125 41.796875 56.203125 29.59375 
z
M 47.21875 32.234375 
Q 47.125 39.59375 43.09375 43.984375 
Q 39.0625 48.390625 32.421875 48.390625 
Q 24.90625 48.390625 20.390625 44.140625 
Q 15.875 39.890625 15.1875 32.171875 
z
" id="DejaVuSans-101"/>
      </defs>
      <use xlink:href="#DejaVuSans-49"/>
      <use x="63.623047" xlink:href="#DejaVuSans-101"/>
      <use x="125.146484" xlink:href="#DejaVuSans-8722"/>
      <use x="208.935547" xlink:href="#DejaVuSans-49"/>
     </g>
    </g>
   </g>
   <g id="line2d_17">
    <path clip-path="url(#p982333e6c5)" d="M -1 143.322367 
L 3.78 143.517386 
L 5.454 143.701457 
L 7.128 144.012486 
L 8.802 144.525344 
L 10.476 145.349586 
L 12.15 146.638943 
L 13.824 148.598875 
L 15.498 151.48822 
L 17.172 155.609113 
L 18.846 161.277785 
L 20.52 168.768525 
L 22.194 178.225412 
L 23.868 189.542733 
L 28.89 227.063592 
L 30.564 235.479165 
L 32.238 238.062071 
L 33.912 232.497367 
L 35.586 217.256014 
L 37.26 192.341461 
L 38.934 159.927297 
L 40.608 124.603827 
L 42.282 92.949503 
L 43.956 72.265296 
L 45.63 68.572164 
L 47.304 84.330079 
L 48.978 116.668354 
L 50.652 157.042323 
L 52.326 192.97847 
L 54 211.879898 
L 55.674 205.889063 
L 57.348 175.933893 
L 59.022 132.83679 
L 60.696 94.146321 
L 62.37 77.136652 
L 64.044 90.576836 
L 65.718 129.275626 
L 67.392 174.948057 
L 69.066 204.26516 
L 70.74 200.969744 
L 72.414 165.779888 
L 74.088 117.74796 
L 75.762 84.740654 
L 77.436 87.205939 
L 79.11 124.620016 
L 80.784 173.983229 
L 82.458 203.16639 
L 84.132 191.988419 
L 87.48 99.614136 
L 89.154 83.613477 
L 90.828 111.692147 
L 92.502 163.602638 
L 94.176 199.865481 
L 95.85 191.693929 
L 99.198 96.635751 
L 100.872 87.210707 
L 102.546 125.134017 
L 104.22 178.640399 
L 105.894 201.282049 
L 107.568 172.489705 
L 109.242 117.395143 
L 110.916 85.958341 
L 112.59 107.673709 
L 114.264 162.871864 
L 115.938 199.393847 
L 117.612 181.712005 
L 119.286 126.425926 
L 120.96 87.838214 
L 122.634 104.850936 
L 124.308 160.859994 
L 125.982 198.823862 
L 127.656 179.135341 
L 129.33 121.82519 
L 131.004 87.264894 
L 132.678 112.711424 
L 134.352 171.231978 
L 136.026 199.216074 
L 137.7 165.516025 
L 139.374 107.070359 
L 141.048 89.279487 
L 142.722 132.642121 
L 144.396 188.152803 
L 146.07 192.003154 
L 147.744 139.317032 
L 149.418 91.264656 
L 151.092 104.484359 
L 152.766 163.733592 
L 154.44 198.54566 
L 156.114 166.880792 
L 157.788 106.640991 
L 159.462 91.044418 
L 161.136 139.486657 
L 162.81 192.60708 
L 164.484 184.544091 
L 166.158 125.013987 
L 167.832 88.388761 
L 169.506 120.951827 
L 171.18 181.799363 
L 172.854 193.617084 
L 176.202 91.358485 
L 177.876 108.628042 
L 179.55 170.780943 
L 181.224 197.172676 
L 182.898 153.220369 
L 184.572 96.246561 
L 186.246 101.0964 
L 187.92 161.576347 
L 189.594 197.85276 
L 191.268 161.724135 
L 192.942 101.056296 
L 194.616 96.713254 
L 196.29 154.64213 
L 197.964 197.341645 
L 199.638 167.422227 
L 201.312 105.008301 
L 202.986 94.202288 
L 204.66 149.688557 
L 206.334 196.504936 
L 208.008 171.214218 
L 209.682 108.031808 
L 211.356 92.715085 
L 213.03 146.129305 
L 214.704 195.66744 
L 216.378 173.892571 
L 218.052 110.424557 
L 219.726 91.720822 
L 223.074 194.839149 
L 224.748 176.135516 
L 226.422 112.667505 
L 228.096 90.892535 
L 229.77 140.430604 
L 231.444 193.844882 
L 233.118 178.528261 
L 234.792 115.34586 
L 236.466 90.055045 
L 238.14 136.871353 
L 239.814 192.357672 
L 241.488 181.551764 
L 243.162 119.137855 
L 244.836 89.218344 
L 246.51 131.91778 
L 248.184 189.846699 
L 249.858 185.503762 
L 251.532 124.835951 
L 253.206 88.70724 
L 254.88 124.983567 
L 256.554 185.463542 
L 258.228 190.313486 
L 259.902 133.339721 
L 261.576 89.38734 
L 263.25 115.778977 
L 264.924 177.931887 
L 266.598 195.201544 
L 269.946 92.942952 
L 271.62 104.760572 
L 273.294 165.608089 
L 274.968 198.171243 
L 276.642 161.5461 
L 278.316 102.01597 
L 279.99 93.952879 
L 281.664 147.07325 
L 283.338 195.515553 
L 285.012 179.919078 
L 286.686 119.679292 
L 288.36 88.014337 
L 290.034 122.826322 
L 291.708 182.075575 
L 293.382 195.295377 
L 295.056 147.243061 
L 296.73 94.556891 
L 298.404 98.407142 
L 300.078 153.917787 
L 301.752 197.28049 
L 303.426 179.489712 
L 305.1 121.044061 
L 306.774 87.343931 
L 308.448 115.32794 
L 310.122 173.848497 
L 311.796 199.295115 
L 313.47 164.734897 
L 315.144 107.424732 
L 316.818 87.73612 
L 318.492 125.699915 
L 320.166 181.708994 
L 321.84 198.721807 
L 323.514 160.134165 
L 325.188 104.848066 
L 326.862 87.166134 
L 328.536 123.688046 
L 330.21 178.886215 
L 331.884 200.60167 
L 333.558 169.164944 
L 335.232 114.070379 
L 336.906 85.277957 
L 338.58 107.919523 
L 340.254 161.425889 
L 341.928 199.349259 
L 343.602 189.924303 
L 346.95 94.866132 
L 348.624 86.694495 
L 350.298 122.957289 
L 351.972 174.867787 
L 353.646 202.946514 
L 355.32 186.945936 
L 358.668 94.571641 
L 360.342 83.393587 
L 362.016 112.57668 
L 363.69 161.939876 
L 365.364 199.354005 
L 367.038 201.819342 
L 368.712 168.812092 
L 370.386 120.780188 
L 372.06 85.590306 
L 373.734 82.294837 
L 375.408 111.611906 
L 377.082 157.284323 
L 378.756 195.983125 
L 380.43 209.42337 
L 382.104 192.413753 
L 383.778 153.723288 
L 385.452 110.62616 
L 387.126 80.670953 
L 388.8 74.680056 
L 390.474 93.581439 
L 392.148 129.517587 
L 393.822 169.891582 
L 395.496 202.229895 
L 397.17 217.98789 
L 398.844 214.294825 
L 400.518 193.610634 
L 402.192 161.956312 
L 403.866 126.63281 
L 405.54 94.218591 
L 407.214 69.303975 
L 408.888 54.062605 
L 410.562 48.497888 
L 412.236 51.080813 
L 413.91 59.496378 
L 415.584 71.293579 
L 418.932 97.017262 
L 420.606 108.334599 
L 422.28 117.791481 
L 423.954 125.282217 
L 425.628 130.95089 
L 427.302 135.071781 
L 428.976 137.961126 
L 430.65 139.921057 
L 432.324 141.210414 
L 433 141.543262 
L 433 141.543262 
" style="fill:none;stroke:#1f77b4;stroke-linecap:square;stroke-width:1.5;"/>
   </g>
   <g id="line2d_18">
    <path clip-path="url(#p982333e6c5)" d="M -1 143.513072 
L 0.432 143.656547 
L 2.106 143.944017 
L 3.78 144.424395 
L 5.454 145.206136 
L 7.128 146.443388 
L 8.802 148.344834 
L 10.476 151.176976 
L 12.15 155.255802 
L 13.824 160.91898 
L 15.498 168.470194 
L 17.172 178.089306 
L 18.846 189.708417 
L 23.868 229.197257 
L 25.542 238.56528 
L 27.216 242.116364 
L 28.89 237.387193 
L 30.564 222.670056 
L 32.238 197.788972 
L 33.912 164.779073 
L 35.586 128.18051 
L 37.26 94.652538 
L 38.934 71.732559 
L 40.608 65.826473 
L 42.282 79.877015 
L 43.956 111.494793 
L 45.63 152.474197 
L 47.304 190.382701 
L 48.978 212.245884 
L 50.652 209.394274 
L 52.326 181.663999 
L 55.674 98.02146 
L 57.348 76.904991 
L 59.022 85.777449 
L 60.696 121.571428 
L 62.37 167.806194 
L 64.044 201.531133 
L 65.718 204.791131 
L 67.392 174.94099 
L 69.066 127.618312 
L 70.74 89.394081 
L 72.414 82.957683 
L 74.088 112.961271 
L 75.762 161.658231 
L 77.436 198.533443 
L 79.11 199.350355 
L 80.784 162.83556 
L 82.458 113.116672 
L 84.132 84.518738 
L 85.806 97.71943 
L 89.154 189.465558 
L 90.828 200.187361 
L 92.502 167.299945 
L 94.176 115.784641 
L 95.85 86.196967 
L 97.524 102.667755 
L 99.198 152.328712 
L 100.872 194.342327 
L 102.546 193.186165 
L 104.22 149.336367 
L 105.894 100.341633 
L 107.568 89.225216 
L 109.242 126.29644 
L 110.916 178.604521 
L 112.59 198.51705 
L 114.264 167.310247 
L 115.938 113.695946 
L 117.612 88.191755 
L 119.286 115.438102 
L 120.96 169.542144 
L 122.634 197.874932 
L 124.308 172.276077 
L 125.982 117.83763 
L 127.656 89.105032 
L 129.33 115.433737 
L 131.004 170.236852 
L 132.678 197.075827 
L 134.352 167.798273 
L 136.026 112.812371 
L 137.7 90.199684 
L 139.374 124.288909 
L 141.048 178.74292 
L 142.722 194.680858 
L 144.396 154.506306 
L 146.07 102.064876 
L 147.744 95.295153 
L 151.092 190.026079 
L 152.766 185.335212 
L 154.44 132.969233 
L 156.114 92.437217 
L 157.788 110.261935 
L 159.462 166.125946 
L 161.136 195.439741 
L 162.81 163.96605 
L 164.484 108.322978 
L 166.158 93.853353 
L 167.832 137.783368 
L 169.506 188.182803 
L 171.18 185.028836 
L 172.854 131.93747 
L 174.528 92.524 
L 176.202 114.33382 
L 177.876 171.14072 
L 179.55 194.070749 
L 181.224 155.115396 
L 182.898 101.732823 
L 184.572 99.316286 
L 186.246 150.940562 
L 187.92 193.082723 
L 189.594 173.647494 
L 191.268 116.604218 
L 192.942 92.724793 
L 194.616 131.77933 
L 196.29 185.153998 
L 197.964 186.173012 
L 199.638 133.49392 
L 201.312 93.11214 
L 202.986 115.759105 
L 204.66 173.013108 
L 206.334 192.797765 
L 208.008 150.134864 
L 209.682 98.831495 
L 211.356 103.703012 
L 213.03 158.620771 
L 214.704 194.115606 
L 216.378 165.239184 
L 218.052 108.549654 
L 219.726 95.872551 
L 223.074 190.687449 
L 224.748 178.010346 
L 226.422 121.320816 
L 228.096 92.444394 
L 229.77 127.939229 
L 231.444 182.856988 
L 233.118 187.728505 
L 234.792 136.425136 
L 236.466 93.762235 
L 238.14 113.546892 
L 239.814 170.800895 
L 241.488 193.44786 
L 243.162 153.06608 
L 244.836 100.386988 
L 246.51 101.406002 
L 248.184 154.78067 
L 249.858 193.835207 
L 251.532 169.955782 
L 253.206 112.912506 
L 254.88 93.477277 
L 256.554 135.619438 
L 258.228 187.243714 
L 259.902 184.827177 
L 261.576 131.444604 
L 263.25 92.489251 
L 264.924 115.41928 
L 266.598 172.22618 
L 268.272 194.036 
L 269.946 154.62253 
L 271.62 101.531164 
L 273.294 98.377197 
L 274.968 148.776632 
L 276.642 192.706647 
L 278.316 178.237022 
L 279.99 122.59395 
L 281.664 91.120259 
L 283.338 120.434054 
L 285.012 176.298065 
L 286.686 194.122783 
L 288.36 153.590767 
L 290.034 101.224788 
L 291.708 96.533921 
L 295.056 191.264847 
L 296.73 184.495124 
L 298.404 132.053694 
L 300.078 91.879142 
L 301.752 107.81708 
L 303.426 162.271091 
L 305.1 196.360316 
L 306.774 173.747629 
L 308.448 118.761727 
L 310.122 89.484173 
L 311.796 116.323148 
L 313.47 171.126263 
L 315.144 197.454968 
L 316.818 168.72237 
L 318.492 114.283923 
L 320.166 88.685068 
L 321.84 117.017856 
L 323.514 171.121898 
L 325.188 198.368245 
L 326.862 172.864054 
L 328.536 119.249753 
L 330.21 88.04295 
L 331.884 107.955479 
L 333.558 160.26356 
L 335.232 197.334784 
L 336.906 186.218367 
L 338.58 137.223633 
L 340.254 93.373835 
L 341.928 92.217673 
L 343.602 134.231288 
L 345.276 183.892245 
L 346.95 200.363033 
L 348.624 170.775359 
L 350.298 119.260055 
L 351.972 86.372639 
L 353.646 97.094442 
L 356.994 188.84057 
L 358.668 202.041262 
L 360.342 173.443328 
L 362.016 123.72444 
L 363.69 87.209645 
L 365.364 88.026557 
L 367.038 124.901769 
L 368.712 173.598729 
L 370.386 203.602317 
L 372.06 197.165919 
L 373.734 158.941688 
L 375.408 111.61901 
L 377.082 81.768869 
L 378.756 85.028867 
L 380.43 118.753806 
L 382.104 164.988572 
L 383.778 200.782551 
L 385.452 209.655009 
L 387.126 188.53854 
L 390.474 104.896001 
L 392.148 77.165726 
L 393.822 74.314116 
L 395.496 96.177299 
L 397.17 134.085803 
L 398.844 175.065207 
L 400.518 206.682985 
L 402.192 220.733527 
L 403.866 214.827441 
L 405.54 191.907462 
L 407.214 158.37949 
L 408.888 121.780927 
L 410.562 88.771028 
L 412.236 63.889944 
L 413.91 49.172807 
L 415.584 44.443636 
L 417.258 47.99472 
L 418.932 57.362743 
L 420.606 69.993894 
L 423.954 96.851583 
L 425.628 108.470694 
L 427.302 118.089806 
L 428.976 125.64102 
L 430.65 131.304198 
L 432.324 135.383024 
L 433 136.526709 
L 433 136.526709 
" style="fill:none;stroke:#ff7f0e;stroke-linecap:square;stroke-width:1.5;"/>
   </g>
   <g id="patch_3">
    <path d="M 54 252 
L 54 34.56 
" style="fill:none;stroke:#000000;stroke-linecap:square;stroke-linejoin:miter;stroke-width:0.8;"/>
   </g>
   <g id="patch_4">
    <path d="M 388.8 252 
L 388.8 34.56 
" style="fill:none;stroke:#000000;stroke-linecap:square;stroke-linejoin:miter;stroke-width:0.8;"/>
   </g>
   <g id="patch_5">
    <path d="M 54 252 
L 388.8 252 
" style="fill:none;stroke:#000000;stroke-linecap:square;stroke-linejoin:miter;stroke-width:0.8;"/>
   </g>
   <g id="patch_6">
    <path d="M 54 34.56 
L 388.8 34.56 
" style="fill:none;stroke:#000000;stroke-linecap:square;stroke-linejoin:miter;stroke-width:0.8;"/>
   </g>
   <g id="text_19">
    <!-- N=500, L=50 -->
    <g transform="translate(180.61125 28.56)scale(0.12 -0.12)">
     <defs>
      <path d="M 9.8125 72.90625 
L 23.09375 72.90625 
L 55.421875 11.921875 
L 55.421875 72.90625 
L 64.984375 72.90625 
L 64.984375 0 
L 51.703125 0 
L 19.390625 60.984375 
L 19.390625 0 
L 9.8125 0 
z
" id="DejaVuSans-78"/>
      <path d="M 10.59375 45.40625 
L 73.1875 45.40625 
L 73.1875 37.203125 
L 10.59375 37.203125 
z
M 10.59375 25.484375 
L 73.1875 25.484375 
L 73.1875 17.1875 
L 10.59375 17.1875 
z
" id="DejaVuSans-61"/>
      <path d="M 11.71875 12.40625 
L 22.015625 12.40625 
L 22.015625 4 
L 14.015625 -11.625 
L 7.71875 -11.625 
L 11.71875 4 
z
" id="DejaVuSans-44"/>
      <path id="DejaVuSans-32"/>
      <path d="M 9.8125 72.90625 
L 19.671875 72.90625 
L 19.671875 8.296875 
L 55.171875 8.296875 
L 55.171875 0 
L 9.8125 0 
z
" id="DejaVuSans-76"/>
     </defs>
     <use xlink:href="#DejaVuSans-78"/>
     <use x="74.804688" xlink:href="#DejaVuSans-61"/>
     <use x="158.59375" xlink:href="#DejaVuSans-53"/>
     <use x="222.216797" xlink:href="#DejaVuSans-48"/>
     <use x="285.839844" xlink:href="#DejaVuSans-48"/>
     <use x="349.462891" xlink:href="#DejaVuSans-44"/>
     <use x="381.25" xlink:href="#DejaVuSans-32"/>
     <use x="413.037109" xlink:href="#DejaVuSans-76"/>
     <use x="468.75" xlink:href="#DejaVuSans-61"/>
     <use x="552.539062" xlink:href="#DejaVuSans-53"/>
     <use x="616.162109" xlink:href="#DejaVuSans-48"/>
    </g>
   </g>
   <g id="legend_1">
    <g id="patch_7">
     <path d="M 187.92 246 
L 254.88 246 
Q 257.28 246 257.28 243.6 
L 257.28 204.48 
Q 257.28 202.08 254.88 202.08 
L 187.92 202.08 
Q 185.52 202.08 185.52 204.48 
L 185.52 243.6 
Q 185.52 246 187.92 246 
z
" style="fill:#ffffff;opacity:0.8;stroke:#cccccc;stroke-linejoin:miter;"/>
    </g>
    <g id="line2d_19">
     <path d="M 190.32 213.48 
L 214.32 213.48 
" style="fill:none;stroke:#1f77b4;stroke-linecap:square;stroke-width:1.5;"/>
    </g>
    <g id="line2d_20"/>
    <g id="text_20">
     <!-- $\psi^{NUM}_{71}$ -->
     <g transform="translate(223.92 217.68)scale(0.12 -0.12)">
      <defs>
       <path d="M 24.859375 -1.21875 
Q 13.921875 0.59375 9.625 5.328125 
Q 4.34375 11.140625 6.640625 23 
L 12.796875 54.6875 
L 21.875 54.6875 
L 15.765625 23.34375 
Q 14.0625 14.40625 17.484375 10.6875 
Q 20.515625 7.46875 26.421875 6.78125 
L 35.6875 54.6875 
L 44.625 54.6875 
L 35.359375 6.84375 
Q 41.890625 7.515625 45.75 10.75 
Q 50.734375 14.84375 52.390625 23.390625 
L 58.453125 54.6875 
L 67.53125 54.6875 
L 61.375 23.046875 
Q 58.984375 10.75 51.5625 5.375 
Q 44.875 0.53125 33.796875 -1.171875 
L 29.984375 -20.796875 
L 21.046875 -20.796875 
z
" id="DejaVuSans-Oblique-968"/>
       <path d="M 16.890625 72.90625 
L 30.171875 72.90625 
L 50.296875 10.40625 
L 62.5 72.90625 
L 72.125 72.90625 
L 57.90625 0 
L 44.578125 0 
L 24.515625 62.890625 
L 12.3125 0 
L 2.6875 0 
z
" id="DejaVuSans-Oblique-78"/>
       <path d="M 15.484375 72.90625 
L 25.390625 72.90625 
L 16.796875 28.609375 
Q 16.265625 25.640625 16.046875 23.703125 
Q 15.828125 21.78125 15.828125 20.3125 
Q 15.828125 13.578125 19.578125 10.078125 
Q 23.34375 6.59375 30.609375 6.59375 
Q 40.046875 6.59375 45.28125 11.765625 
Q 50.53125 16.9375 52.78125 28.609375 
L 61.375 72.90625 
L 71.296875 72.90625 
L 62.5 27.390625 
Q 59.625 12.640625 51.5625 5.609375 
Q 43.5 -1.421875 29.5 -1.421875 
Q 18.5625 -1.421875 12.1875 4.078125 
Q 5.8125 9.578125 5.8125 19 
Q 5.8125 20.703125 6.046875 22.828125 
Q 6.296875 24.953125 6.78125 27.390625 
z
" id="DejaVuSans-Oblique-85"/>
       <path d="M 16.890625 72.90625 
L 31.6875 72.90625 
L 40.1875 23.78125 
L 68.40625 72.90625 
L 83.59375 72.90625 
L 69.390625 0 
L 59.8125 0 
L 72.21875 63.921875 
L 43.609375 14.015625 
L 33.984375 14.015625 
L 24.703125 64.109375 
L 12.3125 0 
L 2.6875 0 
z
" id="DejaVuSans-Oblique-77"/>
      </defs>
      <use transform="translate(0 0.684375)" xlink:href="#DejaVuSans-Oblique-968"/>
      <use transform="translate(70.432943 38.965625)scale(0.7)" xlink:href="#DejaVuSans-Oblique-78"/>
      <use transform="translate(122.796224 38.965625)scale(0.7)" xlink:href="#DejaVuSans-Oblique-85"/>
      <use transform="translate(174.031576 38.965625)scale(0.7)" xlink:href="#DejaVuSans-Oblique-77"/>
      <use transform="translate(65.966797 -26.659375)scale(0.7)" xlink:href="#DejaVuSans-55"/>
      <use transform="translate(110.50293 -26.659375)scale(0.7)" xlink:href="#DejaVuSans-49"/>
     </g>
    </g>
    <g id="line2d_21">
     <path d="M 190.32 233.64 
L 214.32 233.64 
" style="fill:none;stroke:#ff7f0e;stroke-linecap:square;stroke-width:1.5;"/>
    </g>
    <g id="line2d_22"/>
    <g id="text_21">
     <!-- $\psi^{TH}_{71}$ -->
     <g transform="translate(223.92 237.84)scale(0.12 -0.12)">
      <defs>
       <path d="M 5.90625 72.90625 
L 67.578125 72.90625 
L 66.015625 64.59375 
L 39.984375 64.59375 
L 27.484375 0 
L 17.578125 0 
L 30.078125 64.59375 
L 4.296875 64.59375 
z
" id="DejaVuSans-Oblique-84"/>
       <path d="M 16.890625 72.90625 
L 26.8125 72.90625 
L 21 43.015625 
L 56.78125 43.015625 
L 62.59375 72.90625 
L 72.515625 72.90625 
L 58.296875 0 
L 48.390625 0 
L 55.171875 34.71875 
L 19.390625 34.71875 
L 12.59375 0 
L 2.6875 0 
z
" id="DejaVuSans-Oblique-72"/>
      </defs>
      <use transform="translate(0 0.684375)" xlink:href="#DejaVuSans-Oblique-968"/>
      <use transform="translate(70.432943 38.965625)scale(0.7)" xlink:href="#DejaVuSans-Oblique-84"/>
      <use transform="translate(113.191732 38.965625)scale(0.7)" xlink:href="#DejaVuSans-Oblique-72"/>
      <use transform="translate(65.966797 -26.659375)scale(0.7)" xlink:href="#DejaVuSans-55"/>
      <use transform="translate(110.50293 -26.659375)scale(0.7)" xlink:href="#DejaVuSans-49"/>
     </g>
    </g>
   </g>
  </g>
 </g>
 <defs>
  <clipPath id="p982333e6c5">
   <rect height="217.44" width="334.8" x="54" y="34.56"/>
  </clipPath>
 </defs>
</svg>
