<?xml version="1.0" encoding="utf-8" standalone="no"?>
<!DOCTYPE svg PUBLIC "-//W3C//DTD SVG 1.1//EN"
  "http://www.w3.org/Graphics/SVG/1.1/DTD/svg11.dtd">
<!-- Created with matplotlib (https://matplotlib.org/) -->
<svg height="288pt" version="1.1" viewBox="0 0 1152 288" width="1152pt" xmlns="http://www.w3.org/2000/svg" xmlns:xlink="http://www.w3.org/1999/xlink">
 <metadata>
  <rdf:RDF xmlns:cc="http://creativecommons.org/ns#" xmlns:dc="http://purl.org/dc/elements/1.1/" xmlns:rdf="http://www.w3.org/1999/02/22-rdf-syntax-ns#">
   <cc:Work>
    <dc:type rdf:resource="http://purl.org/dc/dcmitype/StillImage"/>
    <dc:date>2021-12-17T16:50:50.937614</dc:date>
    <dc:format>image/svg+xml</dc:format>
    <dc:creator>
     <cc:Agent>
      <dc:title>Matplotlib v3.3.4, https://matplotlib.org/</dc:title>
     </cc:Agent>
    </dc:creator>
   </cc:Work>
  </rdf:RDF>
 </metadata>
 <defs>
  <style type="text/css">*{stroke-linecap:butt;stroke-linejoin:round;}</style>
 </defs>
 <g id="figure_1">
  <g id="patch_1">
   <path d="M 0 288 
L 1152 288 
L 1152 0 
L 0 0 
z
" style="fill:none;"/>
  </g>
  <g id="axes_1">
   <g id="patch_2">
    <path d="M 144 252 
L 406.588235 252 
L 406.588235 34.56 
L 144 34.56 
z
" style="fill:#ffffff;"/>
   </g>
   <g id="matplotlib.axis_1">
    <g id="xtick_1">
     <g id="line2d_1">
      <defs>
       <path d="M 0 0 
L 0 3.5 
" id="m59d88221f0" style="stroke:#000000;stroke-width:0.8;"/>
      </defs>
      <g>
       <use style="stroke:#000000;stroke-width:0.8;" x="152.470588" xlink:href="#m59d88221f0" y="252"/>
      </g>
     </g>
     <g id="text_1">
      <!-- 0.0 -->
      <g transform="translate(144.519026 266.598437)scale(0.1 -0.1)">
       <defs>
        <path d="M 31.78125 66.40625 
Q 24.171875 66.40625 20.328125 58.90625 
Q 16.5 51.421875 16.5 36.375 
Q 16.5 21.390625 20.328125 13.890625 
Q 24.171875 6.390625 31.78125 6.390625 
Q 39.453125 6.390625 43.28125 13.890625 
Q 47.125 21.390625 47.125 36.375 
Q 47.125 51.421875 43.28125 58.90625 
Q 39.453125 66.40625 31.78125 66.40625 
z
M 31.78125 74.21875 
Q 44.046875 74.21875 50.515625 64.515625 
Q 56.984375 54.828125 56.984375 36.375 
Q 56.984375 17.96875 50.515625 8.265625 
Q 44.046875 -1.421875 31.78125 -1.421875 
Q 19.53125 -1.421875 13.0625 8.265625 
Q 6.59375 17.96875 6.59375 36.375 
Q 6.59375 54.828125 13.0625 64.515625 
Q 19.53125 74.21875 31.78125 74.21875 
z
" id="DejaVuSans-48"/>
        <path d="M 10.6875 12.40625 
L 21 12.40625 
L 21 0 
L 10.6875 0 
z
" id="DejaVuSans-46"/>
       </defs>
       <use xlink:href="#DejaVuSans-48"/>
       <use x="63.623047" xlink:href="#DejaVuSans-46"/>
       <use x="95.410156" xlink:href="#DejaVuSans-48"/>
      </g>
     </g>
    </g>
    <g id="xtick_2">
     <g id="line2d_2">
      <g>
       <use style="stroke:#000000;stroke-width:0.8;" x="194.823529" xlink:href="#m59d88221f0" y="252"/>
      </g>
     </g>
     <g id="text_2">
      <!-- 0.5 -->
      <g transform="translate(186.871967 266.598437)scale(0.1 -0.1)">
       <defs>
        <path d="M 10.796875 72.90625 
L 49.515625 72.90625 
L 49.515625 64.59375 
L 19.828125 64.59375 
L 19.828125 46.734375 
Q 21.96875 47.46875 24.109375 47.828125 
Q 26.265625 48.1875 28.421875 48.1875 
Q 40.625 48.1875 47.75 41.5 
Q 54.890625 34.8125 54.890625 23.390625 
Q 54.890625 11.625 47.5625 5.09375 
Q 40.234375 -1.421875 26.90625 -1.421875 
Q 22.3125 -1.421875 17.546875 -0.640625 
Q 12.796875 0.140625 7.71875 1.703125 
L 7.71875 11.625 
Q 12.109375 9.234375 16.796875 8.0625 
Q 21.484375 6.890625 26.703125 6.890625 
Q 35.15625 6.890625 40.078125 11.328125 
Q 45.015625 15.765625 45.015625 23.390625 
Q 45.015625 31 40.078125 35.4375 
Q 35.15625 39.890625 26.703125 39.890625 
Q 22.75 39.890625 18.8125 39.015625 
Q 14.890625 38.140625 10.796875 36.28125 
z
" id="DejaVuSans-53"/>
       </defs>
       <use xlink:href="#DejaVuSans-48"/>
       <use x="63.623047" xlink:href="#DejaVuSans-46"/>
       <use x="95.410156" xlink:href="#DejaVuSans-53"/>
      </g>
     </g>
    </g>
    <g id="xtick_3">
     <g id="line2d_3">
      <g>
       <use style="stroke:#000000;stroke-width:0.8;" x="237.176471" xlink:href="#m59d88221f0" y="252"/>
      </g>
     </g>
     <g id="text_3">
      <!-- 1.0 -->
      <g transform="translate(229.224908 266.598437)scale(0.1 -0.1)">
       <defs>
        <path d="M 12.40625 8.296875 
L 28.515625 8.296875 
L 28.515625 63.921875 
L 10.984375 60.40625 
L 10.984375 69.390625 
L 28.421875 72.90625 
L 38.28125 72.90625 
L 38.28125 8.296875 
L 54.390625 8.296875 
L 54.390625 0 
L 12.40625 0 
z
" id="DejaVuSans-49"/>
       </defs>
       <use xlink:href="#DejaVuSans-49"/>
       <use x="63.623047" xlink:href="#DejaVuSans-46"/>
       <use x="95.410156" xlink:href="#DejaVuSans-48"/>
      </g>
     </g>
    </g>
    <g id="xtick_4">
     <g id="line2d_4">
      <g>
       <use style="stroke:#000000;stroke-width:0.8;" x="279.529412" xlink:href="#m59d88221f0" y="252"/>
      </g>
     </g>
     <g id="text_4">
      <!-- 1.5 -->
      <g transform="translate(271.577849 266.598437)scale(0.1 -0.1)">
       <use xlink:href="#DejaVuSans-49"/>
       <use x="63.623047" xlink:href="#DejaVuSans-46"/>
       <use x="95.410156" xlink:href="#DejaVuSans-53"/>
      </g>
     </g>
    </g>
    <g id="xtick_5">
     <g id="line2d_5">
      <g>
       <use style="stroke:#000000;stroke-width:0.8;" x="321.882353" xlink:href="#m59d88221f0" y="252"/>
      </g>
     </g>
     <g id="text_5">
      <!-- 2.0 -->
      <g transform="translate(313.93079 266.598437)scale(0.1 -0.1)">
       <defs>
        <path d="M 19.1875 8.296875 
L 53.609375 8.296875 
L 53.609375 0 
L 7.328125 0 
L 7.328125 8.296875 
Q 12.9375 14.109375 22.625 23.890625 
Q 32.328125 33.6875 34.8125 36.53125 
Q 39.546875 41.84375 41.421875 45.53125 
Q 43.3125 49.21875 43.3125 52.78125 
Q 43.3125 58.59375 39.234375 62.25 
Q 35.15625 65.921875 28.609375 65.921875 
Q 23.96875 65.921875 18.8125 64.3125 
Q 13.671875 62.703125 7.8125 59.421875 
L 7.8125 69.390625 
Q 13.765625 71.78125 18.9375 73 
Q 24.125 74.21875 28.421875 74.21875 
Q 39.75 74.21875 46.484375 68.546875 
Q 53.21875 62.890625 53.21875 53.421875 
Q 53.21875 48.921875 51.53125 44.890625 
Q 49.859375 40.875 45.40625 35.40625 
Q 44.1875 33.984375 37.640625 27.21875 
Q 31.109375 20.453125 19.1875 8.296875 
z
" id="DejaVuSans-50"/>
       </defs>
       <use xlink:href="#DejaVuSans-50"/>
       <use x="63.623047" xlink:href="#DejaVuSans-46"/>
       <use x="95.410156" xlink:href="#DejaVuSans-48"/>
      </g>
     </g>
    </g>
    <g id="xtick_6">
     <g id="line2d_6">
      <g>
       <use style="stroke:#000000;stroke-width:0.8;" x="364.235294" xlink:href="#m59d88221f0" y="252"/>
      </g>
     </g>
     <g id="text_6">
      <!-- 2.5 -->
      <g transform="translate(356.283732 266.598437)scale(0.1 -0.1)">
       <use xlink:href="#DejaVuSans-50"/>
       <use x="63.623047" xlink:href="#DejaVuSans-46"/>
       <use x="95.410156" xlink:href="#DejaVuSans-53"/>
      </g>
     </g>
    </g>
    <g id="xtick_7">
     <g id="line2d_7">
      <g>
       <use style="stroke:#000000;stroke-width:0.8;" x="406.588235" xlink:href="#m59d88221f0" y="252"/>
      </g>
     </g>
     <g id="text_7">
      <!-- 3.0 -->
      <g transform="translate(398.636673 266.598437)scale(0.1 -0.1)">
       <defs>
        <path d="M 40.578125 39.3125 
Q 47.65625 37.796875 51.625 33 
Q 55.609375 28.21875 55.609375 21.1875 
Q 55.609375 10.40625 48.1875 4.484375 
Q 40.765625 -1.421875 27.09375 -1.421875 
Q 22.515625 -1.421875 17.65625 -0.515625 
Q 12.796875 0.390625 7.625 2.203125 
L 7.625 11.71875 
Q 11.71875 9.328125 16.59375 8.109375 
Q 21.484375 6.890625 26.8125 6.890625 
Q 36.078125 6.890625 40.9375 10.546875 
Q 45.796875 14.203125 45.796875 21.1875 
Q 45.796875 27.640625 41.28125 31.265625 
Q 36.765625 34.90625 28.71875 34.90625 
L 20.21875 34.90625 
L 20.21875 43.015625 
L 29.109375 43.015625 
Q 36.375 43.015625 40.234375 45.921875 
Q 44.09375 48.828125 44.09375 54.296875 
Q 44.09375 59.90625 40.109375 62.90625 
Q 36.140625 65.921875 28.71875 65.921875 
Q 24.65625 65.921875 20.015625 65.03125 
Q 15.375 64.15625 9.8125 62.3125 
L 9.8125 71.09375 
Q 15.4375 72.65625 20.34375 73.4375 
Q 25.25 74.21875 29.59375 74.21875 
Q 40.828125 74.21875 47.359375 69.109375 
Q 53.90625 64.015625 53.90625 55.328125 
Q 53.90625 49.265625 50.4375 45.09375 
Q 46.96875 40.921875 40.578125 39.3125 
z
" id="DejaVuSans-51"/>
       </defs>
       <use xlink:href="#DejaVuSans-51"/>
       <use x="63.623047" xlink:href="#DejaVuSans-46"/>
       <use x="95.410156" xlink:href="#DejaVuSans-48"/>
      </g>
     </g>
    </g>
    <g id="text_8">
     <!-- $\lambda$ -->
     <g transform="translate(272.294118 280.276563)scale(0.1 -0.1)">
      <defs>
       <path d="M 36.71875 67.4375 
L 48.828125 0 
L 39.3125 0 
L 31.84375 40.4375 
L 5.125 0 
L -4.390625 0 
L 29.734375 52.4375 
L 28.03125 62.109375 
Q 26.953125 68.265625 21.734375 68.265625 
L 17.046875 68.265625 
L 18.5 75.984375 
L 24.21875 75.875 
Q 35.203125 75.734375 36.71875 67.4375 
z
" id="DejaVuSans-Oblique-955"/>
      </defs>
      <use transform="translate(0 0.015625)" xlink:href="#DejaVuSans-Oblique-955"/>
     </g>
    </g>
   </g>
   <g id="matplotlib.axis_2">
    <g id="ytick_1">
     <g id="line2d_8">
      <defs>
       <path d="M 0 0 
L -3.5 0 
" id="m9b3b0e84db" style="stroke:#000000;stroke-width:0.8;"/>
      </defs>
      <g>
       <use style="stroke:#000000;stroke-width:0.8;" x="144" xlink:href="#m9b3b0e84db" y="242.546087"/>
      </g>
     </g>
     <g id="text_9">
      <!-- −3.0 -->
      <g transform="translate(112.717187 246.345306)scale(0.1 -0.1)">
       <defs>
        <path d="M 10.59375 35.5 
L 73.1875 35.5 
L 73.1875 27.203125 
L 10.59375 27.203125 
z
" id="DejaVuSans-8722"/>
       </defs>
       <use xlink:href="#DejaVuSans-8722"/>
       <use x="83.789062" xlink:href="#DejaVuSans-51"/>
       <use x="147.412109" xlink:href="#DejaVuSans-46"/>
       <use x="179.199219" xlink:href="#DejaVuSans-48"/>
      </g>
     </g>
    </g>
    <g id="ytick_2">
     <g id="line2d_9">
      <g>
       <use style="stroke:#000000;stroke-width:0.8;" x="144" xlink:href="#m9b3b0e84db" y="195.276522"/>
      </g>
     </g>
     <g id="text_10">
      <!-- −2.5 -->
      <g transform="translate(112.717187 199.07574)scale(0.1 -0.1)">
       <use xlink:href="#DejaVuSans-8722"/>
       <use x="83.789062" xlink:href="#DejaVuSans-50"/>
       <use x="147.412109" xlink:href="#DejaVuSans-46"/>
       <use x="179.199219" xlink:href="#DejaVuSans-53"/>
      </g>
     </g>
    </g>
    <g id="ytick_3">
     <g id="line2d_10">
      <g>
       <use style="stroke:#000000;stroke-width:0.8;" x="144" xlink:href="#m9b3b0e84db" y="148.006957"/>
      </g>
     </g>
     <g id="text_11">
      <!-- −2.0 -->
      <g transform="translate(112.717187 151.806175)scale(0.1 -0.1)">
       <use xlink:href="#DejaVuSans-8722"/>
       <use x="83.789062" xlink:href="#DejaVuSans-50"/>
       <use x="147.412109" xlink:href="#DejaVuSans-46"/>
       <use x="179.199219" xlink:href="#DejaVuSans-48"/>
      </g>
     </g>
    </g>
    <g id="ytick_4">
     <g id="line2d_11">
      <g>
       <use style="stroke:#000000;stroke-width:0.8;" x="144" xlink:href="#m9b3b0e84db" y="100.737391"/>
      </g>
     </g>
     <g id="text_12">
      <!-- −1.5 -->
      <g transform="translate(112.717187 104.53661)scale(0.1 -0.1)">
       <use xlink:href="#DejaVuSans-8722"/>
       <use x="83.789062" xlink:href="#DejaVuSans-49"/>
       <use x="147.412109" xlink:href="#DejaVuSans-46"/>
       <use x="179.199219" xlink:href="#DejaVuSans-53"/>
      </g>
     </g>
    </g>
    <g id="ytick_5">
     <g id="line2d_12">
      <g>
       <use style="stroke:#000000;stroke-width:0.8;" x="144" xlink:href="#m9b3b0e84db" y="53.467826"/>
      </g>
     </g>
     <g id="text_13">
      <!-- −1.0 -->
      <g transform="translate(112.717187 57.267045)scale(0.1 -0.1)">
       <use xlink:href="#DejaVuSans-8722"/>
       <use x="83.789062" xlink:href="#DejaVuSans-49"/>
       <use x="147.412109" xlink:href="#DejaVuSans-46"/>
       <use x="179.199219" xlink:href="#DejaVuSans-48"/>
      </g>
     </g>
    </g>
    <g id="text_14">
     <!-- E/N -->
     <g transform="translate(106.6375 151.864375)rotate(-90)scale(0.1 -0.1)">
      <defs>
       <path d="M 9.8125 72.90625 
L 55.90625 72.90625 
L 55.90625 64.59375 
L 19.671875 64.59375 
L 19.671875 43.015625 
L 54.390625 43.015625 
L 54.390625 34.71875 
L 19.671875 34.71875 
L 19.671875 8.296875 
L 56.78125 8.296875 
L 56.78125 0 
L 9.8125 0 
z
" id="DejaVuSans-69"/>
       <path d="M 25.390625 72.90625 
L 33.6875 72.90625 
L 8.296875 -9.28125 
L 0 -9.28125 
z
" id="DejaVuSans-47"/>
       <path d="M 9.8125 72.90625 
L 23.09375 72.90625 
L 55.421875 11.921875 
L 55.421875 72.90625 
L 64.984375 72.90625 
L 64.984375 0 
L 51.703125 0 
L 19.390625 60.984375 
L 19.390625 0 
L 9.8125 0 
z
" id="DejaVuSans-78"/>
      </defs>
      <use xlink:href="#DejaVuSans-69"/>
      <use x="63.183594" xlink:href="#DejaVuSans-47"/>
      <use x="96.875" xlink:href="#DejaVuSans-78"/>
     </g>
    </g>
   </g>
   <g id="line2d_13">
    <path clip-path="url(#p21769035fa)" d="M 152.470588 37.711304 
L 156.777667 37.792797 
L 161.084746 38.037489 
L 165.391825 38.446123 
L 169.698903 39.020253 
L 174.005982 39.76267 
L 178.313061 40.677891 
L 182.62014 41.772608 
L 186.927218 43.055904 
L 191.234297 44.53904 
L 195.541376 46.234538 
L 199.848455 48.154457 
L 204.155533 50.307981 
L 208.462612 52.698958 
L 212.769691 55.324234 
L 217.07677 58.173492 
L 221.383848 61.230601 
L 225.690927 64.475847 
L 229.998006 67.888224 
L 234.305085 71.447216 
L 238.612164 75.133895 
L 242.919242 78.93143 
L 247.226321 82.825198 
L 251.5334 86.80266 
L 255.840479 90.853141 
L 260.147557 94.967576 
L 264.454636 99.138263 
L 268.761715 103.358643 
L 273.068794 107.623115 
L 277.375872 111.926874 
L 281.682951 116.265781 
L 285.99003 120.636256 
L 290.297109 125.035188 
L 294.604187 129.459861 
L 298.911266 133.907895 
L 303.218345 138.377195 
L 307.525424 142.865911 
L 311.832502 147.372402 
L 316.139581 151.895207 
L 320.44666 156.433023 
L 324.753739 160.984683 
L 329.060818 165.549137 
L 333.367896 170.125442 
L 337.674975 174.712742 
L 341.982054 179.310266 
L 346.289133 183.917312 
L 350.596211 188.53324 
L 354.90329 193.157469 
L 359.210369 197.789466 
L 363.517448 202.428744 
L 367.824526 207.074854 
L 372.131605 211.727387 
L 376.438684 216.385962 
L 380.745763 221.050231 
L 385.052841 225.719871 
L 389.35992 230.394583 
L 393.666999 235.07409 
L 397.974078 239.758135 
L 402.281157 244.446479 
L 406.588235 249.1389 
" style="fill:none;stroke:#008000;stroke-linecap:square;stroke-opacity:0.5;stroke-width:1.5;"/>
   </g>
   <g id="line2d_14">
    <path clip-path="url(#p21769035fa)" d="M 152.470588 45.589565 
L 156.777667 45.66596 
L 161.084746 45.895284 
L 165.391825 46.277949 
L 169.698903 46.814646 
L 174.005982 47.506347 
L 178.313061 48.354318 
L 182.62014 49.360148 
L 186.927218 50.525785 
L 191.234297 51.853597 
L 195.541376 53.346437 
L 199.848455 55.007702 
L 204.155533 56.841362 
L 208.462612 58.851946 
L 212.769691 61.044416 
L 217.07677 63.423813 
L 221.383848 65.994462 
L 225.690927 68.758608 
L 229.998006 71.714783 
L 234.305085 74.856582 
L 238.612164 78.172578 
L 242.919242 81.694184 
L 247.226321 85.316068 
L 251.5334 89.061065 
L 255.840479 92.912911 
L 260.147557 96.857161 
L 264.454636 100.881339 
L 268.761715 104.974845 
L 273.068794 109.128736 
L 277.375872 113.335479 
L 281.682951 117.588725 
L 285.99003 121.883098 
L 290.297109 126.214027 
L 294.604187 130.577605 
L 298.911266 134.970473 
L 303.218345 139.389728 
L 307.525424 144.112075 
L 311.832502 148.574461 
L 316.139581 153.056439 
L 320.44666 157.556338 
L 324.753739 162.072677 
L 329.060818 166.604137 
L 333.367896 171.149543 
L 337.674975 175.707836 
L 341.982054 180.27807 
L 346.289133 184.859386 
L 350.596211 189.45101 
L 354.90329 194.05224 
L 359.210369 198.662435 
L 363.517448 203.281013 
L 367.824526 207.907442 
L 372.131605 212.541233 
L 376.438684 217.18194 
L 380.745763 221.829151 
L 385.052841 226.482487 
L 389.35992 231.141599 
L 393.666999 235.806162 
L 397.974078 240.475878 
L 402.281157 245.150469 
L 406.588235 249.829678 
" style="fill:none;stroke:#008000;stroke-linecap:square;stroke-opacity:0.5625;stroke-width:1.5;"/>
   </g>
   <g id="line2d_15">
    <path clip-path="url(#p21769035fa)" d="M 152.470588 49.528696 
L 156.777667 49.602542 
L 161.084746 49.824191 
L 165.391825 50.193969 
L 169.698903 50.712438 
L 174.005982 51.380411 
L 178.313061 52.199005 
L 182.62014 53.169698 
L 186.927218 54.294396 
L 191.234297 55.575465 
L 195.541376 57.015661 
L 199.848455 58.61789 
L 204.155533 60.384739 
L 208.462612 62.317894 
L 212.769691 64.417656 
L 217.07677 66.682821 
L 221.383848 69.110944 
L 225.690927 71.698899 
L 229.998006 74.443544 
L 234.305085 77.342298 
L 238.612164 80.393385 
L 242.919242 83.645828 
L 247.226321 87.005411 
L 251.5334 90.508483 
L 255.840479 94.146886 
L 260.147557 97.960852 
L 264.454636 101.839863 
L 268.761715 105.81281 
L 273.068794 109.866859 
L 277.375872 113.990745 
L 281.682951 118.174865 
L 285.99003 122.411166 
L 290.297109 126.748897 
L 294.604187 131.069351 
L 298.911266 135.424879 
L 303.218345 139.811564 
L 307.525424 144.556203 
L 311.832502 148.990467 
L 316.139581 153.447369 
L 320.44666 157.924793 
L 324.753739 162.420894 
L 329.060818 166.934049 
L 333.367896 171.495426 
L 337.674975 176.038002 
L 341.982054 180.593803 
L 346.289133 185.161827 
L 350.596211 189.741171 
L 354.90329 194.331025 
L 359.210369 198.930656 
L 363.517448 203.539399 
L 367.824526 208.156651 
L 372.131605 212.781862 
L 376.438684 217.414529 
L 380.745763 222.054193 
L 385.052841 226.700432 
L 389.35992 231.352858 
L 393.666999 236.011114 
L 397.974078 240.674871 
L 402.281157 245.343823 
L 406.588235 250.017688 
" style="fill:none;stroke:#008000;stroke-linecap:square;stroke-opacity:0.625;stroke-width:1.5;"/>
   </g>
   <g id="line2d_16">
    <path clip-path="url(#p21769035fa)" d="M 152.470588 51.498261 
L 156.777667 51.570833 
L 161.084746 51.788644 
L 165.391825 52.15198 
L 169.698903 52.661334 
L 174.005982 53.317444 
L 178.313061 54.121352 
L 182.62014 55.074489 
L 186.927218 56.178766 
L 191.234297 57.436634 
L 195.541376 58.851022 
L 199.848455 60.425074 
L 204.155533 62.161616 
L 208.462612 64.062508 
L 212.769691 66.128023 
L 217.07677 68.35665 
L 221.383848 70.745284 
L 225.690927 73.289765 
L 229.998006 75.985178 
L 234.305085 78.825775 
L 238.612164 81.805856 
L 242.919242 84.974024 
L 247.226321 88.226436 
L 251.5334 91.603347 
L 255.840479 95.098763 
L 260.147557 98.771967 
L 264.454636 102.51859 
L 268.761715 106.37414 
L 273.068794 110.329844 
L 277.375872 114.377352 
L 281.682951 118.499055 
L 285.99003 122.686325 
L 290.297109 126.999459 
L 294.604187 131.287598 
L 298.911266 135.616967 
L 303.218345 139.984569 
L 307.525424 144.74187 
L 311.832502 149.158687 
L 316.139581 153.600725 
L 320.44666 158.065378 
L 324.753739 162.550417 
L 329.060818 167.053922 
L 333.367896 171.610294 
L 337.674975 176.145236 
L 341.982054 180.694238 
L 346.289133 185.256176 
L 350.596211 189.830048 
L 354.90329 194.414961 
L 359.210369 199.010111 
L 363.517448 203.614778 
L 367.824526 208.228307 
L 372.131605 212.850108 
L 376.438684 217.479642 
L 380.745763 222.11642 
L 385.052841 226.759992 
L 389.35992 231.409949 
L 393.666999 236.065912 
L 397.974078 240.727536 
L 402.281157 245.394499 
L 406.588235 250.066507 
" style="fill:none;stroke:#008000;stroke-linecap:square;stroke-opacity:0.6875;stroke-width:1.5;"/>
   </g>
   <g id="line2d_17">
    <path clip-path="url(#p21769035fa)" d="M 152.470588 52.483043 
L 156.777667 52.554979 
L 161.084746 52.770871 
L 165.391825 53.130985 
L 169.698903 53.635782 
L 174.005982 54.285961 
L 178.313061 55.082525 
L 182.62014 56.026884 
L 186.927218 57.120952 
L 191.234297 58.367221 
L 195.541376 59.768707 
L 199.848455 61.328676 
L 204.155533 63.050064 
L 208.462612 64.934843 
L 212.769691 66.98329 
L 217.07677 69.193828 
L 221.383848 71.563247 
L 225.690927 74.087401 
L 229.998006 76.761401 
L 234.305085 79.579231 
L 238.612164 82.535058 
L 242.919242 85.680174 
L 247.226321 88.904345 
L 251.5334 92.248779 
L 255.840479 95.70114 
L 260.147557 99.326418 
L 264.454636 103.012947 
L 268.761715 106.798151 
L 273.068794 110.67883 
L 277.375872 114.655161 
L 281.682951 118.716747 
L 285.99003 122.857057 
L 290.297109 127.146191 
L 294.604187 131.409447 
L 298.911266 135.718316 
L 303.218345 140.068115 
L 307.525424 144.831063 
L 311.832502 149.236651 
L 316.139581 153.671216 
L 320.44666 158.128364 
L 324.753739 162.607152 
L 329.060818 167.10539 
L 333.367896 171.659514 
L 337.674975 176.190463 
L 341.982054 180.735996 
L 346.289133 185.294897 
L 350.596211 189.866094 
L 354.90329 194.448636 
L 359.210369 199.041674 
L 363.517448 203.644448 
L 367.824526 208.256274 
L 372.131605 212.876536 
L 376.438684 217.504673 
L 380.745763 222.140179 
L 385.052841 226.782589 
L 389.35992 231.43148 
L 393.666999 236.086464 
L 397.974078 240.747184 
L 402.281157 245.413313 
L 406.588235 250.084547 
" style="fill:none;stroke:#008000;stroke-linecap:square;stroke-opacity:0.75;stroke-width:1.5;"/>
   </g>
   <g id="line2d_18">
    <path clip-path="url(#p21769035fa)" d="M 152.470588 52.975435 
L 156.777667 53.047051 
L 161.084746 53.261984 
L 165.391825 53.620487 
L 169.698903 54.123006 
L 174.005982 54.770219 
L 178.313061 55.563112 
L 182.62014 56.503082 
L 186.927218 57.592045 
L 191.234297 58.832514 
L 195.541376 60.227549 
L 199.848455 61.780477 
L 204.155533 63.494288 
L 208.462612 65.37101 
L 212.769691 67.410923 
L 217.07677 69.612417 
L 221.383848 71.972229 
L 225.690927 74.486221 
L 229.998006 77.149519 
L 234.305085 79.955993 
L 238.612164 82.899812 
L 242.919242 86.033809 
L 247.226321 89.244935 
L 251.5334 92.575689 
L 255.840479 96.012 
L 260.147557 99.623864 
L 264.454636 103.294258 
L 268.761715 107.060094 
L 273.068794 110.915793 
L 277.375872 114.858935 
L 281.682951 118.881667 
L 285.99003 122.982136 
L 290.297109 127.246928 
L 294.604187 131.483942 
L 298.911266 135.774301 
L 303.218345 140.110592 
L 307.525424 144.87688 
L 311.832502 149.274457 
L 316.139581 153.70296 
L 320.44666 158.155572 
L 324.753739 162.631739 
L 329.060818 167.127074 
L 333.367896 171.68011 
L 337.674975 176.208979 
L 341.982054 180.752762 
L 346.289133 185.310175 
L 350.596211 189.880093 
L 354.90329 194.461528 
L 359.210369 199.0536 
L 363.517448 203.655524 
L 367.824526 208.2666 
L 372.131605 212.886194 
L 376.438684 217.513736 
L 380.745763 222.148706 
L 385.052841 226.790632 
L 389.35992 231.439086 
L 393.666999 236.093672 
L 397.974078 240.754029 
L 402.281157 245.419826 
L 406.588235 250.090755 
" style="fill:none;stroke:#008000;stroke-linecap:square;stroke-opacity:0.8125;stroke-width:1.5;"/>
   </g>
   <g id="line2d_19">
    <path clip-path="url(#p21769035fa)" d="M 152.470588 53.22163 
L 156.777667 53.293088 
L 161.084746 53.507541 
L 165.391825 53.865239 
L 169.698903 54.366618 
L 174.005982 55.012348 
L 178.313061 55.803406 
L 182.62014 56.74118 
L 186.927218 57.827591 
L 191.234297 59.065161 
L 195.541376 60.45697 
L 199.848455 62.006377 
L 204.155533 63.7164 
L 208.462612 65.589094 
L 212.769691 67.62474 
L 217.07677 69.821711 
L 221.383848 72.17672 
L 225.690927 74.685631 
L 229.998006 77.343578 
L 234.305085 80.144373 
L 238.612164 83.082189 
L 242.919242 86.210627 
L 247.226321 89.415231 
L 251.5334 92.739156 
L 255.840479 96.167496 
L 260.147557 99.77291 
L 264.454636 103.436025 
L 268.761715 107.194247 
L 273.068794 111.041844 
L 277.375872 114.975841 
L 281.682951 118.987218 
L 285.99003 123.07198 
L 290.297109 127.323246 
L 294.604187 131.53854 
L 298.911266 135.811219 
L 303.218345 140.13382 
L 307.525424 144.901963 
L 311.832502 149.293714 
L 316.139581 153.718009 
L 320.44666 158.1677 
L 324.753739 162.642226 
L 329.060818 167.135957 
L 333.367896 171.688362 
L 337.674975 176.216178 
L 341.982054 180.759111 
L 346.289133 185.315827 
L 350.596211 189.885167 
L 354.90329 194.466115 
L 359.210369 199.057772 
L 363.517448 203.659342 
L 367.824526 208.27011 
L 372.131605 212.889436 
L 376.438684 217.516742 
L 380.745763 222.151504 
L 385.052841 226.793246 
L 389.35992 231.441535 
L 393.666999 236.095973 
L 397.974078 240.756198 
L 402.281157 245.421873 
L 406.588235 250.092693 
" style="fill:none;stroke:#008000;stroke-linecap:square;stroke-opacity:0.875;stroke-width:1.5;"/>
   </g>
   <g id="line2d_20">
    <path clip-path="url(#p21769035fa)" d="M 152.470588 53.344728 
L 156.777667 53.416106 
L 161.084746 53.630319 
L 165.391825 53.987614 
L 169.698903 54.488424 
L 174.005982 55.133412 
L 178.313061 55.923552 
L 182.62014 56.86023 
L 186.927218 57.945364 
L 191.234297 59.181484 
L 195.541376 60.571681 
L 199.848455 62.119327 
L 204.155533 63.827456 
L 208.462612 65.698135 
L 212.769691 67.731648 
L 217.07677 69.926358 
L 221.383848 72.278965 
L 225.690927 74.785336 
L 229.998006 77.440608 
L 234.305085 80.238564 
L 238.612164 83.173377 
L 242.919242 86.299036 
L 247.226321 89.500379 
L 251.5334 92.82089 
L 255.840479 96.245245 
L 260.147557 99.847433 
L 264.454636 103.506909 
L 268.761715 107.26134 
L 273.068794 111.104975 
L 277.375872 115.034823 
L 281.682951 119.041883 
L 285.99003 123.121901 
L 290.297109 127.370048 
L 294.604187 131.577403 
L 298.911266 135.838901 
L 303.218345 140.1491 
L 307.525424 144.918525 
L 311.832502 149.304448 
L 316.139581 153.725518 
L 320.44666 158.173198 
L 324.753739 162.646717 
L 329.060818 167.139562 
L 333.367896 171.691596 
L 337.674975 176.218895 
L 341.982054 180.761431 
L 346.289133 185.317835 
L 350.596211 189.886926 
L 354.90329 194.467671 
L 359.210369 199.059161 
L 363.517448 203.660591 
L 367.824526 208.271241 
L 372.131605 212.890467 
L 376.438684 217.517686 
L 380.745763 222.152373 
L 385.052841 226.79405 
L 389.35992 231.442281 
L 393.666999 236.096668 
L 397.974078 240.756847 
L 402.281157 245.422482 
L 406.588235 250.093266 
" style="fill:none;stroke:#008000;stroke-linecap:square;stroke-opacity:0.9375;stroke-width:1.5;"/>
   </g>
   <g id="patch_3">
    <path d="M 144 252 
L 144 34.56 
" style="fill:none;stroke:#000000;stroke-linecap:square;stroke-linejoin:miter;stroke-width:0.8;"/>
   </g>
   <g id="patch_4">
    <path d="M 406.588235 252 
L 406.588235 34.56 
" style="fill:none;stroke:#000000;stroke-linecap:square;stroke-linejoin:miter;stroke-width:0.8;"/>
   </g>
   <g id="patch_5">
    <path d="M 144 252 
L 406.588235 252 
" style="fill:none;stroke:#000000;stroke-linecap:square;stroke-linejoin:miter;stroke-width:0.8;"/>
   </g>
   <g id="patch_6">
    <path d="M 144 34.56 
L 406.588235 34.56 
" style="fill:none;stroke:#000000;stroke-linecap:square;stroke-linejoin:miter;stroke-width:0.8;"/>
   </g>
   <g id="text_15">
    <!-- Convergence of RG for N=3 -->
    <g transform="translate(191.918493 28.56)scale(0.12 -0.12)">
     <defs>
      <path d="M 64.40625 67.28125 
L 64.40625 56.890625 
Q 59.421875 61.53125 53.78125 63.8125 
Q 48.140625 66.109375 41.796875 66.109375 
Q 29.296875 66.109375 22.65625 58.46875 
Q 16.015625 50.828125 16.015625 36.375 
Q 16.015625 21.96875 22.65625 14.328125 
Q 29.296875 6.6875 41.796875 6.6875 
Q 48.140625 6.6875 53.78125 8.984375 
Q 59.421875 11.28125 64.40625 15.921875 
L 64.40625 5.609375 
Q 59.234375 2.09375 53.4375 0.328125 
Q 47.65625 -1.421875 41.21875 -1.421875 
Q 24.65625 -1.421875 15.125 8.703125 
Q 5.609375 18.84375 5.609375 36.375 
Q 5.609375 53.953125 15.125 64.078125 
Q 24.65625 74.21875 41.21875 74.21875 
Q 47.75 74.21875 53.53125 72.484375 
Q 59.328125 70.75 64.40625 67.28125 
z
" id="DejaVuSans-67"/>
      <path d="M 30.609375 48.390625 
Q 23.390625 48.390625 19.1875 42.75 
Q 14.984375 37.109375 14.984375 27.296875 
Q 14.984375 17.484375 19.15625 11.84375 
Q 23.34375 6.203125 30.609375 6.203125 
Q 37.796875 6.203125 41.984375 11.859375 
Q 46.1875 17.53125 46.1875 27.296875 
Q 46.1875 37.015625 41.984375 42.703125 
Q 37.796875 48.390625 30.609375 48.390625 
z
M 30.609375 56 
Q 42.328125 56 49.015625 48.375 
Q 55.71875 40.765625 55.71875 27.296875 
Q 55.71875 13.875 49.015625 6.21875 
Q 42.328125 -1.421875 30.609375 -1.421875 
Q 18.84375 -1.421875 12.171875 6.21875 
Q 5.515625 13.875 5.515625 27.296875 
Q 5.515625 40.765625 12.171875 48.375 
Q 18.84375 56 30.609375 56 
z
" id="DejaVuSans-111"/>
      <path d="M 54.890625 33.015625 
L 54.890625 0 
L 45.90625 0 
L 45.90625 32.71875 
Q 45.90625 40.484375 42.875 44.328125 
Q 39.84375 48.1875 33.796875 48.1875 
Q 26.515625 48.1875 22.3125 43.546875 
Q 18.109375 38.921875 18.109375 30.90625 
L 18.109375 0 
L 9.078125 0 
L 9.078125 54.6875 
L 18.109375 54.6875 
L 18.109375 46.1875 
Q 21.34375 51.125 25.703125 53.5625 
Q 30.078125 56 35.796875 56 
Q 45.21875 56 50.046875 50.171875 
Q 54.890625 44.34375 54.890625 33.015625 
z
" id="DejaVuSans-110"/>
      <path d="M 2.984375 54.6875 
L 12.5 54.6875 
L 29.59375 8.796875 
L 46.6875 54.6875 
L 56.203125 54.6875 
L 35.6875 0 
L 23.484375 0 
z
" id="DejaVuSans-118"/>
      <path d="M 56.203125 29.59375 
L 56.203125 25.203125 
L 14.890625 25.203125 
Q 15.484375 15.921875 20.484375 11.0625 
Q 25.484375 6.203125 34.421875 6.203125 
Q 39.59375 6.203125 44.453125 7.46875 
Q 49.3125 8.734375 54.109375 11.28125 
L 54.109375 2.78125 
Q 49.265625 0.734375 44.1875 -0.34375 
Q 39.109375 -1.421875 33.890625 -1.421875 
Q 20.796875 -1.421875 13.15625 6.1875 
Q 5.515625 13.8125 5.515625 26.8125 
Q 5.515625 40.234375 12.765625 48.109375 
Q 20.015625 56 32.328125 56 
Q 43.359375 56 49.78125 48.890625 
Q 56.203125 41.796875 56.203125 29.59375 
z
M 47.21875 32.234375 
Q 47.125 39.59375 43.09375 43.984375 
Q 39.0625 48.390625 32.421875 48.390625 
Q 24.90625 48.390625 20.390625 44.140625 
Q 15.875 39.890625 15.1875 32.171875 
z
" id="DejaVuSans-101"/>
      <path d="M 41.109375 46.296875 
Q 39.59375 47.171875 37.8125 47.578125 
Q 36.03125 48 33.890625 48 
Q 26.265625 48 22.1875 43.046875 
Q 18.109375 38.09375 18.109375 28.8125 
L 18.109375 0 
L 9.078125 0 
L 9.078125 54.6875 
L 18.109375 54.6875 
L 18.109375 46.1875 
Q 20.953125 51.171875 25.484375 53.578125 
Q 30.03125 56 36.53125 56 
Q 37.453125 56 38.578125 55.875 
Q 39.703125 55.765625 41.0625 55.515625 
z
" id="DejaVuSans-114"/>
      <path d="M 45.40625 27.984375 
Q 45.40625 37.75 41.375 43.109375 
Q 37.359375 48.484375 30.078125 48.484375 
Q 22.859375 48.484375 18.828125 43.109375 
Q 14.796875 37.75 14.796875 27.984375 
Q 14.796875 18.265625 18.828125 12.890625 
Q 22.859375 7.515625 30.078125 7.515625 
Q 37.359375 7.515625 41.375 12.890625 
Q 45.40625 18.265625 45.40625 27.984375 
z
M 54.390625 6.78125 
Q 54.390625 -7.171875 48.1875 -13.984375 
Q 42 -20.796875 29.203125 -20.796875 
Q 24.46875 -20.796875 20.265625 -20.09375 
Q 16.0625 -19.390625 12.109375 -17.921875 
L 12.109375 -9.1875 
Q 16.0625 -11.328125 19.921875 -12.34375 
Q 23.78125 -13.375 27.78125 -13.375 
Q 36.625 -13.375 41.015625 -8.765625 
Q 45.40625 -4.15625 45.40625 5.171875 
L 45.40625 9.625 
Q 42.625 4.78125 38.28125 2.390625 
Q 33.9375 0 27.875 0 
Q 17.828125 0 11.671875 7.65625 
Q 5.515625 15.328125 5.515625 27.984375 
Q 5.515625 40.671875 11.671875 48.328125 
Q 17.828125 56 27.875 56 
Q 33.9375 56 38.28125 53.609375 
Q 42.625 51.21875 45.40625 46.390625 
L 45.40625 54.6875 
L 54.390625 54.6875 
z
" id="DejaVuSans-103"/>
      <path d="M 48.78125 52.59375 
L 48.78125 44.1875 
Q 44.96875 46.296875 41.140625 47.34375 
Q 37.3125 48.390625 33.40625 48.390625 
Q 24.65625 48.390625 19.8125 42.84375 
Q 14.984375 37.3125 14.984375 27.296875 
Q 14.984375 17.28125 19.8125 11.734375 
Q 24.65625 6.203125 33.40625 6.203125 
Q 37.3125 6.203125 41.140625 7.25 
Q 44.96875 8.296875 48.78125 10.40625 
L 48.78125 2.09375 
Q 45.015625 0.34375 40.984375 -0.53125 
Q 36.96875 -1.421875 32.421875 -1.421875 
Q 20.0625 -1.421875 12.78125 6.34375 
Q 5.515625 14.109375 5.515625 27.296875 
Q 5.515625 40.671875 12.859375 48.328125 
Q 20.21875 56 33.015625 56 
Q 37.15625 56 41.109375 55.140625 
Q 45.0625 54.296875 48.78125 52.59375 
z
" id="DejaVuSans-99"/>
      <path id="DejaVuSans-32"/>
      <path d="M 37.109375 75.984375 
L 37.109375 68.5 
L 28.515625 68.5 
Q 23.6875 68.5 21.796875 66.546875 
Q 19.921875 64.59375 19.921875 59.515625 
L 19.921875 54.6875 
L 34.71875 54.6875 
L 34.71875 47.703125 
L 19.921875 47.703125 
L 19.921875 0 
L 10.890625 0 
L 10.890625 47.703125 
L 2.296875 47.703125 
L 2.296875 54.6875 
L 10.890625 54.6875 
L 10.890625 58.5 
Q 10.890625 67.625 15.140625 71.796875 
Q 19.390625 75.984375 28.609375 75.984375 
z
" id="DejaVuSans-102"/>
      <path d="M 44.390625 34.1875 
Q 47.5625 33.109375 50.5625 29.59375 
Q 53.5625 26.078125 56.59375 19.921875 
L 66.609375 0 
L 56 0 
L 46.6875 18.703125 
Q 43.0625 26.03125 39.671875 28.421875 
Q 36.28125 30.8125 30.421875 30.8125 
L 19.671875 30.8125 
L 19.671875 0 
L 9.8125 0 
L 9.8125 72.90625 
L 32.078125 72.90625 
Q 44.578125 72.90625 50.734375 67.671875 
Q 56.890625 62.453125 56.890625 51.90625 
Q 56.890625 45.015625 53.6875 40.46875 
Q 50.484375 35.9375 44.390625 34.1875 
z
M 19.671875 64.796875 
L 19.671875 38.921875 
L 32.078125 38.921875 
Q 39.203125 38.921875 42.84375 42.21875 
Q 46.484375 45.515625 46.484375 51.90625 
Q 46.484375 58.296875 42.84375 61.546875 
Q 39.203125 64.796875 32.078125 64.796875 
z
" id="DejaVuSans-82"/>
      <path d="M 59.515625 10.40625 
L 59.515625 29.984375 
L 43.40625 29.984375 
L 43.40625 38.09375 
L 69.28125 38.09375 
L 69.28125 6.78125 
Q 63.578125 2.734375 56.6875 0.65625 
Q 49.8125 -1.421875 42 -1.421875 
Q 24.90625 -1.421875 15.25 8.5625 
Q 5.609375 18.5625 5.609375 36.375 
Q 5.609375 54.25 15.25 64.234375 
Q 24.90625 74.21875 42 74.21875 
Q 49.125 74.21875 55.546875 72.453125 
Q 61.96875 70.703125 67.390625 67.28125 
L 67.390625 56.78125 
Q 61.921875 61.421875 55.765625 63.765625 
Q 49.609375 66.109375 42.828125 66.109375 
Q 29.4375 66.109375 22.71875 58.640625 
Q 16.015625 51.171875 16.015625 36.375 
Q 16.015625 21.625 22.71875 14.15625 
Q 29.4375 6.6875 42.828125 6.6875 
Q 48.046875 6.6875 52.140625 7.59375 
Q 56.25 8.5 59.515625 10.40625 
z
" id="DejaVuSans-71"/>
      <path d="M 10.59375 45.40625 
L 73.1875 45.40625 
L 73.1875 37.203125 
L 10.59375 37.203125 
z
M 10.59375 25.484375 
L 73.1875 25.484375 
L 73.1875 17.1875 
L 10.59375 17.1875 
z
" id="DejaVuSans-61"/>
     </defs>
     <use xlink:href="#DejaVuSans-67"/>
     <use x="69.824219" xlink:href="#DejaVuSans-111"/>
     <use x="131.005859" xlink:href="#DejaVuSans-110"/>
     <use x="194.384766" xlink:href="#DejaVuSans-118"/>
     <use x="253.564453" xlink:href="#DejaVuSans-101"/>
     <use x="315.087891" xlink:href="#DejaVuSans-114"/>
     <use x="354.451172" xlink:href="#DejaVuSans-103"/>
     <use x="417.927734" xlink:href="#DejaVuSans-101"/>
     <use x="479.451172" xlink:href="#DejaVuSans-110"/>
     <use x="542.830078" xlink:href="#DejaVuSans-99"/>
     <use x="597.810547" xlink:href="#DejaVuSans-101"/>
     <use x="659.333984" xlink:href="#DejaVuSans-32"/>
     <use x="691.121094" xlink:href="#DejaVuSans-111"/>
     <use x="752.302734" xlink:href="#DejaVuSans-102"/>
     <use x="787.507812" xlink:href="#DejaVuSans-32"/>
     <use x="819.294922" xlink:href="#DejaVuSans-82"/>
     <use x="888.777344" xlink:href="#DejaVuSans-71"/>
     <use x="966.267578" xlink:href="#DejaVuSans-32"/>
     <use x="998.054688" xlink:href="#DejaVuSans-102"/>
     <use x="1033.259766" xlink:href="#DejaVuSans-111"/>
     <use x="1094.441406" xlink:href="#DejaVuSans-114"/>
     <use x="1135.554688" xlink:href="#DejaVuSans-32"/>
     <use x="1167.341797" xlink:href="#DejaVuSans-78"/>
     <use x="1242.146484" xlink:href="#DejaVuSans-61"/>
     <use x="1325.935547" xlink:href="#DejaVuSans-51"/>
    </g>
   </g>
  </g>
  <g id="axes_2">
   <g id="patch_7">
    <path d="M 459.105882 252 
L 721.694118 252 
L 721.694118 34.56 
L 459.105882 34.56 
z
" style="fill:#ffffff;"/>
   </g>
   <g id="matplotlib.axis_3">
    <g id="xtick_8">
     <g id="line2d_21">
      <g>
       <use style="stroke:#000000;stroke-width:0.8;" x="467.576471" xlink:href="#m59d88221f0" y="252"/>
      </g>
     </g>
     <g id="text_16">
      <!-- 0.0 -->
      <g transform="translate(459.624908 266.598437)scale(0.1 -0.1)">
       <use xlink:href="#DejaVuSans-48"/>
       <use x="63.623047" xlink:href="#DejaVuSans-46"/>
       <use x="95.410156" xlink:href="#DejaVuSans-48"/>
      </g>
     </g>
    </g>
    <g id="xtick_9">
     <g id="line2d_22">
      <g>
       <use style="stroke:#000000;stroke-width:0.8;" x="509.929412" xlink:href="#m59d88221f0" y="252"/>
      </g>
     </g>
     <g id="text_17">
      <!-- 0.5 -->
      <g transform="translate(501.977849 266.598437)scale(0.1 -0.1)">
       <use xlink:href="#DejaVuSans-48"/>
       <use x="63.623047" xlink:href="#DejaVuSans-46"/>
       <use x="95.410156" xlink:href="#DejaVuSans-53"/>
      </g>
     </g>
    </g>
    <g id="xtick_10">
     <g id="line2d_23">
      <g>
       <use style="stroke:#000000;stroke-width:0.8;" x="552.282353" xlink:href="#m59d88221f0" y="252"/>
      </g>
     </g>
     <g id="text_18">
      <!-- 1.0 -->
      <g transform="translate(544.33079 266.598437)scale(0.1 -0.1)">
       <use xlink:href="#DejaVuSans-49"/>
       <use x="63.623047" xlink:href="#DejaVuSans-46"/>
       <use x="95.410156" xlink:href="#DejaVuSans-48"/>
      </g>
     </g>
    </g>
    <g id="xtick_11">
     <g id="line2d_24">
      <g>
       <use style="stroke:#000000;stroke-width:0.8;" x="594.635294" xlink:href="#m59d88221f0" y="252"/>
      </g>
     </g>
     <g id="text_19">
      <!-- 1.5 -->
      <g transform="translate(586.683732 266.598437)scale(0.1 -0.1)">
       <use xlink:href="#DejaVuSans-49"/>
       <use x="63.623047" xlink:href="#DejaVuSans-46"/>
       <use x="95.410156" xlink:href="#DejaVuSans-53"/>
      </g>
     </g>
    </g>
    <g id="xtick_12">
     <g id="line2d_25">
      <g>
       <use style="stroke:#000000;stroke-width:0.8;" x="636.988235" xlink:href="#m59d88221f0" y="252"/>
      </g>
     </g>
     <g id="text_20">
      <!-- 2.0 -->
      <g transform="translate(629.036673 266.598437)scale(0.1 -0.1)">
       <use xlink:href="#DejaVuSans-50"/>
       <use x="63.623047" xlink:href="#DejaVuSans-46"/>
       <use x="95.410156" xlink:href="#DejaVuSans-48"/>
      </g>
     </g>
    </g>
    <g id="xtick_13">
     <g id="line2d_26">
      <g>
       <use style="stroke:#000000;stroke-width:0.8;" x="679.341176" xlink:href="#m59d88221f0" y="252"/>
      </g>
     </g>
     <g id="text_21">
      <!-- 2.5 -->
      <g transform="translate(671.389614 266.598437)scale(0.1 -0.1)">
       <use xlink:href="#DejaVuSans-50"/>
       <use x="63.623047" xlink:href="#DejaVuSans-46"/>
       <use x="95.410156" xlink:href="#DejaVuSans-53"/>
      </g>
     </g>
    </g>
    <g id="xtick_14">
     <g id="line2d_27">
      <g>
       <use style="stroke:#000000;stroke-width:0.8;" x="721.694118" xlink:href="#m59d88221f0" y="252"/>
      </g>
     </g>
     <g id="text_22">
      <!-- 3.0 -->
      <g transform="translate(713.742555 266.598437)scale(0.1 -0.1)">
       <use xlink:href="#DejaVuSans-51"/>
       <use x="63.623047" xlink:href="#DejaVuSans-46"/>
       <use x="95.410156" xlink:href="#DejaVuSans-48"/>
      </g>
     </g>
    </g>
    <g id="text_23">
     <!-- $\lambda$ -->
     <g transform="translate(587.4 280.276563)scale(0.1 -0.1)">
      <use transform="translate(0 0.015625)" xlink:href="#DejaVuSans-Oblique-955"/>
     </g>
    </g>
   </g>
   <g id="matplotlib.axis_4">
    <g id="ytick_6">
     <g id="line2d_28">
      <g>
       <use style="stroke:#000000;stroke-width:0.8;" x="459.105882" xlink:href="#m9b3b0e84db" y="242.546087"/>
      </g>
     </g>
     <g id="text_24">
      <!-- −3.0 -->
      <g transform="translate(427.82307 246.345306)scale(0.1 -0.1)">
       <use xlink:href="#DejaVuSans-8722"/>
       <use x="83.789062" xlink:href="#DejaVuSans-51"/>
       <use x="147.412109" xlink:href="#DejaVuSans-46"/>
       <use x="179.199219" xlink:href="#DejaVuSans-48"/>
      </g>
     </g>
    </g>
    <g id="ytick_7">
     <g id="line2d_29">
      <g>
       <use style="stroke:#000000;stroke-width:0.8;" x="459.105882" xlink:href="#m9b3b0e84db" y="195.276522"/>
      </g>
     </g>
     <g id="text_25">
      <!-- −2.5 -->
      <g transform="translate(427.82307 199.07574)scale(0.1 -0.1)">
       <use xlink:href="#DejaVuSans-8722"/>
       <use x="83.789062" xlink:href="#DejaVuSans-50"/>
       <use x="147.412109" xlink:href="#DejaVuSans-46"/>
       <use x="179.199219" xlink:href="#DejaVuSans-53"/>
      </g>
     </g>
    </g>
    <g id="ytick_8">
     <g id="line2d_30">
      <g>
       <use style="stroke:#000000;stroke-width:0.8;" x="459.105882" xlink:href="#m9b3b0e84db" y="148.006957"/>
      </g>
     </g>
     <g id="text_26">
      <!-- −2.0 -->
      <g transform="translate(427.82307 151.806175)scale(0.1 -0.1)">
       <use xlink:href="#DejaVuSans-8722"/>
       <use x="83.789062" xlink:href="#DejaVuSans-50"/>
       <use x="147.412109" xlink:href="#DejaVuSans-46"/>
       <use x="179.199219" xlink:href="#DejaVuSans-48"/>
      </g>
     </g>
    </g>
    <g id="ytick_9">
     <g id="line2d_31">
      <g>
       <use style="stroke:#000000;stroke-width:0.8;" x="459.105882" xlink:href="#m9b3b0e84db" y="100.737391"/>
      </g>
     </g>
     <g id="text_27">
      <!-- −1.5 -->
      <g transform="translate(427.82307 104.53661)scale(0.1 -0.1)">
       <use xlink:href="#DejaVuSans-8722"/>
       <use x="83.789062" xlink:href="#DejaVuSans-49"/>
       <use x="147.412109" xlink:href="#DejaVuSans-46"/>
       <use x="179.199219" xlink:href="#DejaVuSans-53"/>
      </g>
     </g>
    </g>
    <g id="ytick_10">
     <g id="line2d_32">
      <g>
       <use style="stroke:#000000;stroke-width:0.8;" x="459.105882" xlink:href="#m9b3b0e84db" y="53.467826"/>
      </g>
     </g>
     <g id="text_28">
      <!-- −1.0 -->
      <g transform="translate(427.82307 57.267045)scale(0.1 -0.1)">
       <use xlink:href="#DejaVuSans-8722"/>
       <use x="83.789062" xlink:href="#DejaVuSans-49"/>
       <use x="147.412109" xlink:href="#DejaVuSans-46"/>
       <use x="179.199219" xlink:href="#DejaVuSans-48"/>
      </g>
     </g>
    </g>
    <g id="text_29">
     <!-- E/N -->
     <g transform="translate(421.743382 151.864375)rotate(-90)scale(0.1 -0.1)">
      <use xlink:href="#DejaVuSans-69"/>
      <use x="63.183594" xlink:href="#DejaVuSans-47"/>
      <use x="96.875" xlink:href="#DejaVuSans-78"/>
     </g>
    </g>
   </g>
   <g id="line2d_33">
    <path clip-path="url(#p4e296d7fd0)" d="M 467.576471 41.650435 
L 471.883549 41.726833 
L 476.190628 41.956207 
L 480.497707 42.339099 
L 484.804786 42.876444 
L 489.111864 43.569655 
L 493.418943 44.420788 
L 497.726022 45.432845 
L 502.033101 46.610201 
L 506.340179 47.959153 
L 510.647258 49.488417 
L 514.954337 51.209335 
L 519.261416 53.135309 
L 523.568495 55.280006 
L 527.875573 57.654226 
L 532.182652 60.262261 
L 536.489731 63.099431 
L 540.79681 66.152182 
L 545.103888 69.400613 
L 549.410967 72.821948 
L 553.718046 76.393479 
L 558.025125 80.094354 
L 562.332203 83.90634 
L 566.639282 87.813911 
L 570.946361 91.804023 
L 575.25344 95.865766 
L 579.560518 99.990011 
L 583.867597 104.169098 
L 588.174676 108.39656 
L 592.481755 112.666916 
L 596.788833 116.975487 
L 601.095912 121.31826 
L 605.402991 125.691768 
L 609.71007 130.093008 
L 614.017149 134.519357 
L 618.324227 138.96852 
L 622.631306 143.438476 
L 626.938385 147.927438 
L 631.245464 152.433823 
L 635.552542 156.956219 
L 639.859621 161.493364 
L 644.1667 166.04413 
L 648.473779 170.607498 
L 652.780857 175.182553 
L 657.087936 179.768466 
L 661.395015 184.364483 
L 665.702094 188.969923 
L 670.009172 193.584162 
L 674.316251 198.206633 
L 678.62333 202.836815 
L 682.930409 207.47423 
L 687.237488 212.118442 
L 691.544566 216.769047 
L 695.851645 221.425674 
L 700.158724 226.087978 
L 704.465803 230.755643 
L 708.772881 235.428375 
L 713.07996 240.105901 
L 717.387039 244.787966 
L 721.694118 249.474337 
" style="fill:none;stroke:#0000ff;stroke-linecap:square;stroke-opacity:0.5;stroke-width:1.5;"/>
   </g>
   <g id="line2d_34">
    <path clip-path="url(#p4e296d7fd0)" d="M 467.576471 47.55913 
L 471.883549 47.631706 
L 476.190628 47.849566 
L 480.497707 48.213114 
L 484.804786 48.72303 
L 489.111864 49.380284 
L 493.418943 50.186164 
L 497.726022 51.142319 
L 502.033101 52.250826 
L 506.340179 53.53477 
L 510.647258 54.964623 
L 514.954337 56.557884 
L 519.261416 58.318522 
L 523.568495 60.263938 
L 527.875573 62.372864 
L 532.182652 64.66192 
L 536.489731 67.136168 
L 540.79681 69.800528 
L 545.103888 72.661155 
L 549.410967 75.715267 
L 553.718046 78.955511 
L 558.025125 82.368469 
L 562.332203 85.93616 
L 566.639282 89.778952 
L 570.946361 93.606252 
L 575.25344 97.530654 
L 579.560518 101.538119 
L 583.867597 105.61698 
L 588.174676 109.757598 
L 592.481755 113.952001 
L 596.788833 118.193105 
L 601.095912 122.476412 
L 605.402991 126.796635 
L 609.71007 131.149818 
L 614.017149 135.53276 
L 618.324227 139.942132 
L 622.631306 144.375631 
L 626.938385 148.831046 
L 631.245464 153.306438 
L 635.552542 157.8001 
L 639.859621 162.310518 
L 644.1667 166.836346 
L 648.473779 171.376407 
L 652.780857 175.929578 
L 657.087936 180.494916 
L 661.395015 185.071549 
L 665.702094 189.658687 
L 670.009172 194.255616 
L 674.316251 198.861684 
L 678.62333 203.476298 
L 682.930409 208.098916 
L 687.237488 212.729041 
L 691.544566 217.366218 
L 695.851645 222.010028 
L 700.158724 226.660085 
L 704.465803 231.316033 
L 708.772881 235.977542 
L 713.07996 240.644308 
L 717.387039 245.316048 
L 721.694118 249.9925 
" style="fill:none;stroke:#0000ff;stroke-linecap:square;stroke-opacity:0.5625;stroke-width:1.5;"/>
   </g>
   <g id="line2d_35">
    <path clip-path="url(#p4e296d7fd0)" d="M 467.576471 50.513478 
L 471.883549 50.584142 
L 476.190628 50.796246 
L 480.497707 51.150124 
L 484.804786 51.646342 
L 489.111864 52.285709 
L 493.418943 53.069314 
L 497.726022 53.998593 
L 502.033101 55.075449 
L 506.340179 56.339747 
L 510.647258 57.735112 
L 514.954337 59.290568 
L 519.261416 61.009944 
L 523.568495 62.920355 
L 527.875573 64.978354 
L 532.182652 67.206232 
L 536.489731 69.603528 
L 540.79681 72.168888 
L 545.103888 74.901792 
L 549.410967 77.797498 
L 553.718046 80.852149 
L 558.025125 84.059502 
L 562.332203 87.416263 
L 566.639282 91.100249 
L 570.946361 94.748224 
L 575.25344 98.529908 
L 579.560518 102.41138 
L 583.867597 106.38465 
L 588.174676 110.437564 
L 592.481755 114.559145 
L 596.788833 118.739058 
L 601.095912 122.991612 
L 605.402991 127.268963 
L 609.71007 131.585297 
L 614.017149 135.93972 
L 618.324227 140.337368 
L 622.631306 144.745765 
L 626.938385 149.17893 
L 631.245464 153.634479 
L 635.552542 158.110342 
L 639.859621 162.604712 
L 644.1667 167.13753 
L 648.473779 171.664364 
L 652.780857 176.205124 
L 657.087936 180.759051 
L 661.395015 185.325158 
L 665.702094 189.927108 
L 670.009172 194.514575 
L 674.316251 199.111825 
L 678.62333 203.718199 
L 682.930409 208.337067 
L 687.237488 212.959899 
L 691.544566 217.593426 
L 695.851645 222.230728 
L 700.158724 226.874638 
L 704.465803 231.524773 
L 708.772881 236.180776 
L 713.07996 240.854365 
L 717.387039 245.520998 
L 721.694118 250.192588 
" style="fill:none;stroke:#0000ff;stroke-linecap:square;stroke-opacity:0.625;stroke-width:1.5;"/>
   </g>
   <g id="line2d_36">
    <path clip-path="url(#p4e296d7fd0)" d="M 467.576471 51.990652 
L 471.883549 52.060361 
L 476.190628 52.269586 
L 480.497707 52.618629 
L 484.804786 53.107998 
L 489.111864 53.738421 
L 493.418943 54.510889 
L 497.726022 55.42673 
L 502.033101 56.487763 
L 506.340179 57.742245 
L 510.647258 59.120401 
L 514.954337 60.657081 
L 519.261416 62.356231 
L 523.568495 64.250362 
L 527.875573 66.285775 
L 532.182652 68.489363 
L 536.489731 70.860456 
L 540.79681 73.398043 
L 545.103888 76.100655 
L 549.410967 78.962676 
L 553.718046 81.976735 
L 558.025125 85.132712 
L 562.332203 88.42311 
L 566.639282 92.048126 
L 570.946361 95.598425 
L 575.25344 99.273916 
L 579.560518 103.049331 
L 583.867597 106.922535 
L 588.174676 110.887145 
L 592.481755 114.934648 
L 596.788833 119.054229 
L 601.095912 123.274154 
L 605.402991 127.51385 
L 609.71007 131.79977 
L 614.017149 136.135549 
L 618.324227 140.516004 
L 622.631306 144.917298 
L 626.938385 149.335449 
L 631.245464 153.778169 
L 635.552542 158.242968 
L 639.859621 162.731016 
L 644.1667 167.258196 
L 648.473779 171.780121 
L 652.780857 176.313959 
L 657.087936 180.861687 
L 661.395015 185.422214 
L 665.702094 190.021673 
L 670.009172 194.606533 
L 674.316251 199.199435 
L 678.62333 203.801826 
L 682.930409 208.41739 
L 687.237488 213.036835 
L 691.544566 217.667523 
L 695.851645 222.30191 
L 700.158724 226.943112 
L 704.465803 231.590722 
L 708.772881 236.244368 
L 713.07996 240.916685 
L 717.387039 245.581226 
L 721.694118 250.250849 
" style="fill:none;stroke:#0000ff;stroke-linecap:square;stroke-opacity:0.6875;stroke-width:1.5;"/>
   </g>
   <g id="line2d_37">
    <path clip-path="url(#p4e296d7fd0)" d="M 467.576471 52.729239 
L 471.883549 52.79847 
L 476.190628 53.006256 
L 480.497707 53.352881 
L 484.804786 53.838826 
L 489.111864 54.464777 
L 493.418943 55.231676 
L 497.726022 56.140799 
L 502.033101 57.193921 
L 506.340179 58.443495 
L 510.647258 59.813046 
L 514.954337 61.34034 
L 519.261416 63.029381 
L 523.568495 64.915396 
L 527.875573 66.939547 
L 532.182652 69.131057 
L 536.489731 71.489117 
L 540.79681 74.013117 
L 545.103888 76.701393 
L 549.410967 79.548654 
L 553.718046 82.547044 
L 558.025125 85.686189 
L 562.332203 88.958191 
L 566.639282 92.576299 
L 570.946361 96.102942 
L 575.25344 99.749714 
L 579.560518 103.489704 
L 583.867597 107.318308 
L 588.174676 111.230826 
L 592.481755 115.222542 
L 596.788833 119.287786 
L 601.095912 123.464388 
L 605.402991 127.667363 
L 609.71007 131.924991 
L 614.017149 136.241749 
L 618.324227 140.607551 
L 622.631306 144.997857 
L 626.938385 149.405293 
L 631.245464 153.839465 
L 635.552542 158.297342 
L 639.859621 162.780095 
L 644.1667 167.304399 
L 648.473779 171.822612 
L 652.780857 176.352874 
L 657.087936 180.897519 
L 661.395015 185.455364 
L 665.702094 190.053928 
L 670.009172 194.636687 
L 674.316251 199.227671 
L 678.62333 203.82835 
L 682.930409 208.442572 
L 687.237488 213.06062 
L 691.544566 217.690273 
L 695.851645 222.323496 
L 700.158724 226.963636 
L 704.465803 231.610274 
L 708.772881 236.263027 
L 713.07996 240.935004 
L 717.387039 245.598765 
L 721.694118 250.267666 
" style="fill:none;stroke:#0000ff;stroke-linecap:square;stroke-opacity:0.75;stroke-width:1.5;"/>
   </g>
   <g id="line2d_38">
    <path clip-path="url(#p4e296d7fd0)" d="M 467.576471 53.098533 
L 471.883549 53.167524 
L 476.190628 53.374591 
L 480.497707 53.720008 
L 484.804786 54.20424 
L 489.111864 54.827955 
L 493.418943 55.59207 
L 497.726022 56.497833 
L 502.033101 57.547 
L 506.340179 58.79412 
L 510.647258 60.159369 
L 514.954337 61.68197 
L 519.261416 63.365957 
L 523.568495 65.247914 
L 527.875573 67.266436 
L 532.182652 69.45191 
L 536.489731 71.803458 
L 540.79681 74.320673 
L 545.103888 77.001799 
L 549.410967 79.841704 
L 553.718046 82.832252 
L 558.025125 85.963079 
L 562.332203 89.226176 
L 566.639282 92.841907 
L 570.946361 96.358995 
L 575.25344 99.996096 
L 579.560518 103.726253 
L 583.867597 107.543607 
L 588.174676 111.442607 
L 592.481755 115.416712 
L 596.788833 119.458294 
L 601.095912 123.609587 
L 605.402991 127.783776 
L 609.71007 132.014592 
L 614.017149 136.312869 
L 618.324227 140.664736 
L 622.631306 145.044782 
L 626.938385 149.443932 
L 631.245464 153.871825 
L 635.552542 158.324964 
L 639.859621 162.80456 
L 644.1667 167.326648 
L 648.473779 171.84284 
L 652.780857 176.371083 
L 657.087936 180.914198 
L 661.395015 185.470603 
L 665.702094 190.068605 
L 670.009172 194.65032 
L 674.316251 199.240325 
L 678.62333 203.840142 
L 682.930409 208.453682 
L 687.237488 213.071045 
L 691.544566 217.700243 
L 695.851645 222.332904 
L 700.158724 226.972535 
L 704.465803 231.618712 
L 708.772881 236.271044 
L 713.07996 240.942874 
L 717.387039 245.606271 
L 721.694118 250.274836 
" style="fill:none;stroke:#0000ff;stroke-linecap:square;stroke-opacity:0.8125;stroke-width:1.5;"/>
   </g>
   <g id="line2d_39">
    <path clip-path="url(#p4e296d7fd0)" d="M 467.576471 53.283179 
L 471.883549 53.352051 
L 476.190628 53.558758 
L 480.497707 53.903571 
L 484.804786 54.386947 
L 489.111864 55.009545 
L 493.418943 55.772267 
L 497.726022 56.676351 
L 502.033101 57.723539 
L 506.340179 58.969432 
L 510.647258 60.33253 
L 514.954337 61.852784 
L 519.261416 63.534244 
L 523.568495 65.414173 
L 527.875573 67.429881 
L 532.182652 69.612337 
L 536.489731 71.960629 
L 540.79681 74.474451 
L 545.103888 77.152003 
L 549.410967 79.988231 
L 553.718046 82.974862 
L 558.025125 86.101534 
L 562.332203 89.360169 
L 566.639282 92.974718 
L 570.946361 96.487041 
L 575.25344 100.119354 
L 579.560518 103.844793 
L 583.867597 107.657162 
L 588.174676 111.551018 
L 592.481755 115.51964 
L 596.788833 119.554937 
L 601.095912 123.700096 
L 605.402991 127.864648 
L 609.71007 132.081668 
L 614.017149 136.366836 
L 618.324227 140.705942 
L 622.631306 145.075614 
L 626.938385 149.467072 
L 631.245464 153.889629 
L 635.552542 158.339186 
L 639.859621 162.816546 
L 644.1667 167.337162 
L 648.473779 171.852134 
L 652.780857 176.379312 
L 657.087936 180.921486 
L 661.395015 185.477129 
L 665.702094 190.074968 
L 670.009172 194.656161 
L 674.316251 199.245675 
L 678.62333 203.845068 
L 682.930409 208.45828 
L 687.237488 213.075317 
L 691.544566 217.704268 
L 695.851645 222.336671 
L 700.158724 226.976072 
L 704.465803 231.622041 
L 708.772881 236.274187 
L 713.07996 240.945978 
L 717.387039 245.609215 
L 721.694118 250.277634 
" style="fill:none;stroke:#0000ff;stroke-linecap:square;stroke-opacity:0.875;stroke-width:1.5;"/>
   </g>
   <g id="line2d_40">
    <path clip-path="url(#p4e296d7fd0)" d="M 467.576471 53.375503 
L 471.883549 53.444315 
L 476.190628 53.650842 
L 480.497707 53.995352 
L 484.804786 54.4783 
L 489.111864 55.100339 
L 493.418943 55.862365 
L 497.726022 56.765609 
L 502.033101 57.811809 
L 506.340179 59.057088 
L 510.647258 60.419111 
L 514.954337 61.938192 
L 519.261416 63.618388 
L 523.568495 65.497303 
L 527.875573 67.511603 
L 532.182652 69.69255 
L 536.489731 72.039214 
L 540.79681 74.551341 
L 545.103888 77.227106 
L 549.410967 80.061495 
L 553.718046 83.046167 
L 558.025125 86.170762 
L 562.332203 89.427166 
L 566.639282 93.041124 
L 570.946361 96.551065 
L 575.25344 100.180985 
L 579.560518 103.904063 
L 583.867597 107.713942 
L 588.174676 111.605237 
L 592.481755 115.571182 
L 596.788833 119.603618 
L 601.095912 123.746601 
L 605.402991 127.908327 
L 609.71007 132.121643 
L 614.017149 136.402957 
L 618.324227 140.736324 
L 622.631306 145.098935 
L 626.938385 149.483155 
L 631.245464 153.900528 
L 635.552542 158.346979 
L 639.859621 162.822477 
L 644.1667 167.342137 
L 648.473779 171.856301 
L 652.780857 176.382869 
L 657.087936 180.924577 
L 661.395015 185.479821 
L 665.702094 190.077588 
L 670.009172 194.658544 
L 674.316251 199.247819 
L 678.62333 203.847011 
L 682.930409 208.460071 
L 687.237488 213.07696 
L 691.544566 217.705801 
L 695.851645 222.33809 
L 700.158724 226.977391 
L 704.465803 231.623272 
L 708.772881 236.275339 
L 713.07996 240.947111 
L 717.387039 245.610281 
L 721.694118 250.27864 
" style="fill:none;stroke:#0000ff;stroke-linecap:square;stroke-opacity:0.9375;stroke-width:1.5;"/>
   </g>
   <g id="patch_8">
    <path d="M 459.105882 252 
L 459.105882 34.56 
" style="fill:none;stroke:#000000;stroke-linecap:square;stroke-linejoin:miter;stroke-width:0.8;"/>
   </g>
   <g id="patch_9">
    <path d="M 721.694118 252 
L 721.694118 34.56 
" style="fill:none;stroke:#000000;stroke-linecap:square;stroke-linejoin:miter;stroke-width:0.8;"/>
   </g>
   <g id="patch_10">
    <path d="M 459.105882 252 
L 721.694118 252 
" style="fill:none;stroke:#000000;stroke-linecap:square;stroke-linejoin:miter;stroke-width:0.8;"/>
   </g>
   <g id="patch_11">
    <path d="M 459.105882 34.56 
L 721.694118 34.56 
" style="fill:none;stroke:#000000;stroke-linecap:square;stroke-linejoin:miter;stroke-width:0.8;"/>
   </g>
   <g id="text_30">
    <!-- Convergence of RG for N=4 -->
    <g transform="translate(507.024375 28.56)scale(0.12 -0.12)">
     <defs>
      <path d="M 37.796875 64.3125 
L 12.890625 25.390625 
L 37.796875 25.390625 
z
M 35.203125 72.90625 
L 47.609375 72.90625 
L 47.609375 25.390625 
L 58.015625 25.390625 
L 58.015625 17.1875 
L 47.609375 17.1875 
L 47.609375 0 
L 37.796875 0 
L 37.796875 17.1875 
L 4.890625 17.1875 
L 4.890625 26.703125 
z
" id="DejaVuSans-52"/>
     </defs>
     <use xlink:href="#DejaVuSans-67"/>
     <use x="69.824219" xlink:href="#DejaVuSans-111"/>
     <use x="131.005859" xlink:href="#DejaVuSans-110"/>
     <use x="194.384766" xlink:href="#DejaVuSans-118"/>
     <use x="253.564453" xlink:href="#DejaVuSans-101"/>
     <use x="315.087891" xlink:href="#DejaVuSans-114"/>
     <use x="354.451172" xlink:href="#DejaVuSans-103"/>
     <use x="417.927734" xlink:href="#DejaVuSans-101"/>
     <use x="479.451172" xlink:href="#DejaVuSans-110"/>
     <use x="542.830078" xlink:href="#DejaVuSans-99"/>
     <use x="597.810547" xlink:href="#DejaVuSans-101"/>
     <use x="659.333984" xlink:href="#DejaVuSans-32"/>
     <use x="691.121094" xlink:href="#DejaVuSans-111"/>
     <use x="752.302734" xlink:href="#DejaVuSans-102"/>
     <use x="787.507812" xlink:href="#DejaVuSans-32"/>
     <use x="819.294922" xlink:href="#DejaVuSans-82"/>
     <use x="888.777344" xlink:href="#DejaVuSans-71"/>
     <use x="966.267578" xlink:href="#DejaVuSans-32"/>
     <use x="998.054688" xlink:href="#DejaVuSans-102"/>
     <use x="1033.259766" xlink:href="#DejaVuSans-111"/>
     <use x="1094.441406" xlink:href="#DejaVuSans-114"/>
     <use x="1135.554688" xlink:href="#DejaVuSans-32"/>
     <use x="1167.341797" xlink:href="#DejaVuSans-78"/>
     <use x="1242.146484" xlink:href="#DejaVuSans-61"/>
     <use x="1325.935547" xlink:href="#DejaVuSans-52"/>
    </g>
   </g>
  </g>
  <g id="axes_3">
   <g id="patch_12">
    <path d="M 774.211765 252 
L 1036.8 252 
L 1036.8 34.56 
L 774.211765 34.56 
z
" style="fill:#ffffff;"/>
   </g>
   <g id="matplotlib.axis_5">
    <g id="xtick_15">
     <g id="line2d_41">
      <g>
       <use style="stroke:#000000;stroke-width:0.8;" x="782.682353" xlink:href="#m59d88221f0" y="252"/>
      </g>
     </g>
     <g id="text_31">
      <!-- 0.0 -->
      <g transform="translate(774.73079 266.598437)scale(0.1 -0.1)">
       <use xlink:href="#DejaVuSans-48"/>
       <use x="63.623047" xlink:href="#DejaVuSans-46"/>
       <use x="95.410156" xlink:href="#DejaVuSans-48"/>
      </g>
     </g>
    </g>
    <g id="xtick_16">
     <g id="line2d_42">
      <g>
       <use style="stroke:#000000;stroke-width:0.8;" x="825.035294" xlink:href="#m59d88221f0" y="252"/>
      </g>
     </g>
     <g id="text_32">
      <!-- 0.5 -->
      <g transform="translate(817.083732 266.598437)scale(0.1 -0.1)">
       <use xlink:href="#DejaVuSans-48"/>
       <use x="63.623047" xlink:href="#DejaVuSans-46"/>
       <use x="95.410156" xlink:href="#DejaVuSans-53"/>
      </g>
     </g>
    </g>
    <g id="xtick_17">
     <g id="line2d_43">
      <g>
       <use style="stroke:#000000;stroke-width:0.8;" x="867.388235" xlink:href="#m59d88221f0" y="252"/>
      </g>
     </g>
     <g id="text_33">
      <!-- 1.0 -->
      <g transform="translate(859.436673 266.598437)scale(0.1 -0.1)">
       <use xlink:href="#DejaVuSans-49"/>
       <use x="63.623047" xlink:href="#DejaVuSans-46"/>
       <use x="95.410156" xlink:href="#DejaVuSans-48"/>
      </g>
     </g>
    </g>
    <g id="xtick_18">
     <g id="line2d_44">
      <g>
       <use style="stroke:#000000;stroke-width:0.8;" x="909.741176" xlink:href="#m59d88221f0" y="252"/>
      </g>
     </g>
     <g id="text_34">
      <!-- 1.5 -->
      <g transform="translate(901.789614 266.598437)scale(0.1 -0.1)">
       <use xlink:href="#DejaVuSans-49"/>
       <use x="63.623047" xlink:href="#DejaVuSans-46"/>
       <use x="95.410156" xlink:href="#DejaVuSans-53"/>
      </g>
     </g>
    </g>
    <g id="xtick_19">
     <g id="line2d_45">
      <g>
       <use style="stroke:#000000;stroke-width:0.8;" x="952.094118" xlink:href="#m59d88221f0" y="252"/>
      </g>
     </g>
     <g id="text_35">
      <!-- 2.0 -->
      <g transform="translate(944.142555 266.598437)scale(0.1 -0.1)">
       <use xlink:href="#DejaVuSans-50"/>
       <use x="63.623047" xlink:href="#DejaVuSans-46"/>
       <use x="95.410156" xlink:href="#DejaVuSans-48"/>
      </g>
     </g>
    </g>
    <g id="xtick_20">
     <g id="line2d_46">
      <g>
       <use style="stroke:#000000;stroke-width:0.8;" x="994.447059" xlink:href="#m59d88221f0" y="252"/>
      </g>
     </g>
     <g id="text_36">
      <!-- 2.5 -->
      <g transform="translate(986.495496 266.598437)scale(0.1 -0.1)">
       <use xlink:href="#DejaVuSans-50"/>
       <use x="63.623047" xlink:href="#DejaVuSans-46"/>
       <use x="95.410156" xlink:href="#DejaVuSans-53"/>
      </g>
     </g>
    </g>
    <g id="xtick_21">
     <g id="line2d_47">
      <g>
       <use style="stroke:#000000;stroke-width:0.8;" x="1036.8" xlink:href="#m59d88221f0" y="252"/>
      </g>
     </g>
     <g id="text_37">
      <!-- 3.0 -->
      <g transform="translate(1028.848438 266.598437)scale(0.1 -0.1)">
       <use xlink:href="#DejaVuSans-51"/>
       <use x="63.623047" xlink:href="#DejaVuSans-46"/>
       <use x="95.410156" xlink:href="#DejaVuSans-48"/>
      </g>
     </g>
    </g>
    <g id="text_38">
     <!-- $\lambda$ -->
     <g transform="translate(902.505882 280.276563)scale(0.1 -0.1)">
      <use transform="translate(0 0.015625)" xlink:href="#DejaVuSans-Oblique-955"/>
     </g>
    </g>
   </g>
   <g id="matplotlib.axis_6">
    <g id="ytick_11">
     <g id="line2d_48">
      <g>
       <use style="stroke:#000000;stroke-width:0.8;" x="774.211765" xlink:href="#m9b3b0e84db" y="242.546087"/>
      </g>
     </g>
     <g id="text_39">
      <!-- −3.0 -->
      <g transform="translate(742.928952 246.345306)scale(0.1 -0.1)">
       <use xlink:href="#DejaVuSans-8722"/>
       <use x="83.789062" xlink:href="#DejaVuSans-51"/>
       <use x="147.412109" xlink:href="#DejaVuSans-46"/>
       <use x="179.199219" xlink:href="#DejaVuSans-48"/>
      </g>
     </g>
    </g>
    <g id="ytick_12">
     <g id="line2d_49">
      <g>
       <use style="stroke:#000000;stroke-width:0.8;" x="774.211765" xlink:href="#m9b3b0e84db" y="195.276522"/>
      </g>
     </g>
     <g id="text_40">
      <!-- −2.5 -->
      <g transform="translate(742.928952 199.07574)scale(0.1 -0.1)">
       <use xlink:href="#DejaVuSans-8722"/>
       <use x="83.789062" xlink:href="#DejaVuSans-50"/>
       <use x="147.412109" xlink:href="#DejaVuSans-46"/>
       <use x="179.199219" xlink:href="#DejaVuSans-53"/>
      </g>
     </g>
    </g>
    <g id="ytick_13">
     <g id="line2d_50">
      <g>
       <use style="stroke:#000000;stroke-width:0.8;" x="774.211765" xlink:href="#m9b3b0e84db" y="148.006957"/>
      </g>
     </g>
     <g id="text_41">
      <!-- −2.0 -->
      <g transform="translate(742.928952 151.806175)scale(0.1 -0.1)">
       <use xlink:href="#DejaVuSans-8722"/>
       <use x="83.789062" xlink:href="#DejaVuSans-50"/>
       <use x="147.412109" xlink:href="#DejaVuSans-46"/>
       <use x="179.199219" xlink:href="#DejaVuSans-48"/>
      </g>
     </g>
    </g>
    <g id="ytick_14">
     <g id="line2d_51">
      <g>
       <use style="stroke:#000000;stroke-width:0.8;" x="774.211765" xlink:href="#m9b3b0e84db" y="100.737391"/>
      </g>
     </g>
     <g id="text_42">
      <!-- −1.5 -->
      <g transform="translate(742.928952 104.53661)scale(0.1 -0.1)">
       <use xlink:href="#DejaVuSans-8722"/>
       <use x="83.789062" xlink:href="#DejaVuSans-49"/>
       <use x="147.412109" xlink:href="#DejaVuSans-46"/>
       <use x="179.199219" xlink:href="#DejaVuSans-53"/>
      </g>
     </g>
    </g>
    <g id="ytick_15">
     <g id="line2d_52">
      <g>
       <use style="stroke:#000000;stroke-width:0.8;" x="774.211765" xlink:href="#m9b3b0e84db" y="53.467826"/>
      </g>
     </g>
     <g id="text_43">
      <!-- −1.0 -->
      <g transform="translate(742.928952 57.267045)scale(0.1 -0.1)">
       <use xlink:href="#DejaVuSans-8722"/>
       <use x="83.789062" xlink:href="#DejaVuSans-49"/>
       <use x="147.412109" xlink:href="#DejaVuSans-46"/>
       <use x="179.199219" xlink:href="#DejaVuSans-48"/>
      </g>
     </g>
    </g>
    <g id="text_44">
     <!-- E/N -->
     <g transform="translate(736.849265 151.864375)rotate(-90)scale(0.1 -0.1)">
      <use xlink:href="#DejaVuSans-69"/>
      <use x="63.183594" xlink:href="#DejaVuSans-47"/>
      <use x="96.875" xlink:href="#DejaVuSans-78"/>
     </g>
    </g>
   </g>
   <g id="line2d_53">
    <path clip-path="url(#p67a502c0c9)" d="M 782.682353 44.013913 
L 786.989432 44.087255 
L 791.29651 44.307448 
L 795.603589 44.674995 
L 799.910668 45.190748 
L 804.217747 45.855934 
L 808.524826 46.672203 
L 812.831904 47.641732 
L 817.138983 48.767414 
L 821.446062 50.053202 
L 825.753141 51.504625 
L 830.060219 53.129486 
L 834.367298 54.938524 
L 838.674377 56.945564 
L 842.981456 59.166284 
L 847.288534 61.614786 
L 851.595613 64.298438 
L 855.902692 67.213588 
L 860.209771 70.345175 
L 864.516849 73.670415 
L 868.823928 77.163823 
L 873.131007 80.800983 
L 877.438086 84.560392 
L 881.745165 88.423911 
L 886.052243 92.376531 
L 890.359322 96.405895 
L 894.666401 100.501815 
L 898.97348 104.655844 
L 903.280558 108.860928 
L 907.587637 113.111135 
L 911.894716 117.401437 
L 916.201795 121.727545 
L 920.508873 126.085772 
L 924.815952 130.472933 
L 929.123031 134.88626 
L 933.43011 139.323333 
L 937.737188 143.782027 
L 942.044267 148.260469 
L 946.351346 152.756999 
L 950.658425 157.27014 
L 954.965503 161.798576 
L 959.272582 166.341127 
L 963.579661 170.896734 
L 967.88674 175.464441 
L 972.193819 180.043386 
L 976.500897 184.632787 
L 980.807976 189.231933 
L 985.115055 193.840179 
L 989.422134 198.456933 
L 993.729212 203.081657 
L 998.036291 207.713856 
L 1002.34337 212.353076 
L 1006.650449 216.998899 
L 1010.957527 221.650939 
L 1015.264606 226.308843 
L 1019.571685 230.97228 
L 1023.878764 235.640946 
L 1028.185842 240.31456 
L 1032.492921 244.992859 
L 1036.8 249.675599 
" style="fill:none;stroke:#dc143c;stroke-linecap:square;stroke-opacity:0.5;stroke-width:1.5;"/>
   </g>
   <g id="line2d_54">
    <path clip-path="url(#p67a502c0c9)" d="M 782.682353 48.74087 
L 786.989432 48.811285 
L 791.29651 49.022753 
L 795.603589 49.375831 
L 799.910668 49.871396 
L 804.217747 50.510657 
L 808.524826 51.295184 
L 812.831904 52.226934 
L 817.138983 53.308285 
L 821.446062 54.542066 
L 825.753141 55.931589 
L 830.060219 57.480667 
L 834.367298 59.193612 
L 838.674377 61.07521 
L 842.981456 63.13067 
L 847.288534 65.365559 
L 851.595613 67.785752 
L 855.902692 70.397246 
L 860.209771 73.205318 
L 864.516849 76.216952 
L 868.823928 79.41789 
L 873.131007 82.801294 
L 877.438086 86.348359 
L 881.745165 90.037953 
L 886.052243 93.845482 
L 890.359322 97.756278 
L 894.666401 101.753718 
L 898.97348 105.823582 
L 903.280558 109.956494 
L 907.587637 114.14409 
L 911.894716 118.379502 
L 916.201795 122.657049 
L 920.508873 126.971828 
L 924.815952 131.32004 
L 929.123031 135.698121 
L 933.43011 140.103112 
L 937.737188 144.532454 
L 942.044267 148.983917 
L 946.351346 153.455544 
L 950.658425 157.94561 
L 954.965503 162.452599 
L 959.272582 166.975149 
L 963.579661 171.512051 
L 967.88674 176.062219 
L 972.193819 180.624679 
L 976.500897 185.198551 
L 980.807976 189.783039 
L 985.115055 194.377422 
L 989.422134 198.981044 
L 993.729212 203.593304 
L 998.036291 208.213657 
L 1002.34337 212.841601 
L 1006.650449 217.476675 
L 1010.957527 222.118458 
L 1015.264606 226.766559 
L 1019.571685 231.420619 
L 1023.878764 236.080304 
L 1028.185842 240.745308 
L 1032.492921 245.415344 
L 1036.8 250.090147 
" style="fill:none;stroke:#dc143c;stroke-linecap:square;stroke-opacity:0.5625;stroke-width:1.5;"/>
   </g>
   <g id="line2d_55">
    <path clip-path="url(#p67a502c0c9)" d="M 782.682353 51.104348 
L 786.989432 51.173346 
L 791.29651 51.380617 
L 795.603589 51.726799 
L 799.910668 52.212844 
L 804.217747 52.840037 
L 808.524826 53.610022 
L 812.831904 54.524828 
L 817.138983 55.586897 
L 821.446062 56.799114 
L 825.753141 58.164839 
L 830.060219 59.687911 
L 834.367298 61.372642 
L 838.674377 63.223676 
L 842.981456 65.245638 
L 847.288534 67.442503 
L 851.595613 69.816668 
L 855.902692 72.368198 
L 860.209771 75.094703 
L 864.516849 78.004137 
L 868.823928 81.065805 
L 873.131007 84.28562 
L 877.438086 87.657326 
L 881.745165 91.176744 
L 886.052243 94.824292 
L 890.359322 98.597601 
L 894.666401 102.495972 
L 898.97348 106.473426 
L 903.280558 110.53598 
L 907.587637 114.671388 
L 911.894716 118.856294 
L 916.201795 123.092101 
L 920.508873 127.379178 
L 924.815952 131.703961 
L 929.123031 136.055562 
L 933.43011 140.437296 
L 937.737188 144.84614 
L 942.044267 149.294004 
L 946.351346 153.749339 
L 950.658425 158.240644 
L 954.965503 162.734125 
L 959.272582 167.246268 
L 963.579661 171.773513 
L 967.88674 176.313309 
L 972.193819 180.874381 
L 976.500897 185.439324 
L 980.807976 190.015524 
L 985.115055 194.602177 
L 989.422134 199.256866 
L 993.729212 203.861906 
L 998.036291 208.475441 
L 1002.34337 213.096936 
L 1006.650449 217.725901 
L 1010.957527 222.361884 
L 1015.264606 227.004471 
L 1019.571685 231.653281 
L 1023.878764 236.307962 
L 1028.185842 240.968188 
L 1032.492921 245.633658 
L 1036.8 250.304092 
" style="fill:none;stroke:#dc143c;stroke-linecap:square;stroke-opacity:0.625;stroke-width:1.5;"/>
   </g>
   <g id="line2d_56">
    <path clip-path="url(#p67a502c0c9)" d="M 782.682353 52.286087 
L 786.989432 52.354377 
L 791.29651 52.559549 
L 795.603589 52.902283 
L 799.910668 53.383568 
L 804.217747 54.004727 
L 808.524826 54.767442 
L 812.831904 55.673775 
L 817.138983 56.726203 
L 821.446062 57.927639 
L 825.753141 59.281468 
L 830.060219 60.791552 
L 834.367298 62.462239 
L 838.674377 64.298231 
L 842.981456 66.304219 
L 847.288534 68.484261 
L 851.595613 70.840768 
L 855.902692 73.37357 
L 860.209771 76.079856 
L 864.516849 78.969875 
L 868.823928 82.004848 
L 873.131007 85.190896 
L 877.438086 88.517498 
L 881.745165 91.979951 
L 886.052243 95.552637 
L 890.359322 99.240322 
L 894.666401 103.055878 
L 898.97348 106.947525 
L 903.280558 110.933738 
L 907.587637 115.012374 
L 911.894716 119.147204 
L 916.201795 123.343023 
L 920.508873 127.598617 
L 924.815952 131.898043 
L 929.123031 136.232589 
L 933.43011 140.600955 
L 937.737188 144.994659 
L 942.044267 149.434098 
L 946.351346 153.88346 
L 950.658425 158.367265 
L 954.965503 162.852103 
L 959.272582 167.359587 
L 963.579661 171.882706 
L 967.88674 176.416394 
L 972.193819 180.97287 
L 976.500897 185.534573 
L 980.807976 190.106214 
L 985.115055 194.692928 
L 989.422134 199.349781 
L 993.729212 203.951 
L 998.036291 208.561007 
L 1002.34337 213.181289 
L 1006.650449 217.809057 
L 1010.957527 222.443534 
L 1015.264606 227.083396 
L 1019.571685 231.729653 
L 1023.878764 236.384701 
L 1028.185842 241.044557 
L 1032.492921 245.707836 
L 1036.8 250.3762 
" style="fill:none;stroke:#dc143c;stroke-linecap:square;stroke-opacity:0.6875;stroke-width:1.5;"/>
   </g>
   <g id="line2d_57">
    <path clip-path="url(#p67a502c0c9)" d="M 782.682353 52.876957 
L 786.989432 52.944892 
L 791.29651 53.149015 
L 795.603589 53.490025 
L 799.910668 53.96893 
L 804.217747 54.587072 
L 808.524826 55.346151 
L 812.831904 56.248248 
L 817.138983 57.295856 
L 821.446062 58.491901 
L 825.753141 59.839782 
L 830.060219 61.343372 
L 834.367298 63.007039 
L 838.674377 64.835513 
L 842.981456 66.833522 
L 847.288534 69.005169 
L 851.595613 71.352889 
L 855.902692 73.876395 
L 860.209771 76.572849 
L 864.516849 79.454083 
L 868.823928 82.478077 
L 873.131007 85.6526 
L 877.438086 88.966576 
L 881.745165 92.416176 
L 886.052243 95.972228 
L 890.359322 99.639353 
L 894.666401 103.432071 
L 898.97348 107.28966 
L 903.280558 111.23459 
L 907.587637 115.269358 
L 911.894716 119.360036 
L 916.201795 123.518017 
L 920.508873 127.741256 
L 924.815952 132.016371 
L 929.123031 136.334299 
L 933.43011 140.687741 
L 937.737188 145.070025 
L 942.044267 149.503325 
L 946.351346 153.947852 
L 950.658425 158.426326 
L 954.965503 162.906013 
L 959.272582 167.409742 
L 963.579661 171.929475 
L 967.88674 176.459587 
L 972.193819 181.013884 
L 976.500897 185.573268 
L 980.807976 190.142409 
L 985.115055 194.727303 
L 989.422134 199.3855 
L 993.729212 203.985029 
L 998.036291 208.59326 
L 1002.34337 213.212091 
L 1006.650449 217.838536 
L 1010.957527 222.47176 
L 1015.264606 227.110367 
L 1019.571685 231.755467 
L 1023.878764 236.409647 
L 1028.185842 241.068642 
L 1032.492921 245.730989 
L 1036.8 250.398484 
" style="fill:none;stroke:#dc143c;stroke-linecap:square;stroke-opacity:0.75;stroke-width:1.5;"/>
   </g>
   <g id="line2d_58">
    <path clip-path="url(#p67a502c0c9)" d="M 782.682353 53.172391 
L 786.989432 53.240149 
L 791.29651 53.443748 
L 795.603589 53.783896 
L 799.910668 54.261611 
L 804.217747 54.878245 
L 808.524826 55.635506 
L 812.831904 56.535485 
L 817.138983 57.580682 
L 821.446062 58.774033 
L 825.753141 60.11894 
L 830.060219 61.619283 
L 834.367298 63.27944 
L 838.674377 65.104154 
L 842.981456 67.098175 
L 847.288534 69.265626 
L 851.595613 71.608954 
L 855.902692 74.127817 
L 860.209771 76.819366 
L 864.516849 79.696228 
L 868.823928 82.714768 
L 873.131007 85.883598 
L 877.438086 89.191414 
L 881.745165 92.635062 
L 886.052243 96.18409 
L 890.359322 99.843834 
L 894.666401 103.630637 
L 898.97348 107.479669 
L 903.280558 111.414629 
L 907.587637 115.43759 
L 911.894716 119.512231 
L 916.201795 123.650896 
L 920.508873 127.851616 
L 924.815952 132.104829 
L 929.123031 136.404904 
L 933.43011 140.743593 
L 937.737188 145.114505 
L 942.044267 149.54104 
L 946.351346 153.980129 
L 950.658425 158.454685 
L 954.965503 162.930518 
L 959.272582 167.431551 
L 963.579661 171.94898 
L 967.88674 176.477026 
L 972.193819 181.029913 
L 976.500897 185.58802 
L 980.807976 190.155914 
L 985.115055 194.739996 
L 989.422134 199.39879 
L 993.729212 203.997339 
L 998.036291 208.604751 
L 1002.34337 213.222945 
L 1006.650449 217.848833 
L 1010.957527 222.481543 
L 1015.264606 227.11961 
L 1019.571685 231.764223 
L 1023.878764 236.418067 
L 1028.185842 241.076726 
L 1032.492921 245.738693 
L 1036.8 250.405841 
" style="fill:none;stroke:#dc143c;stroke-linecap:square;stroke-opacity:0.8125;stroke-width:1.5;"/>
   </g>
   <g id="line2d_59">
    <path clip-path="url(#p67a502c0c9)" d="M 782.682353 53.320109 
L 786.989432 53.387778 
L 791.29651 53.591115 
L 795.603589 53.930832 
L 799.910668 54.407952 
L 804.217747 55.023831 
L 808.524826 55.780183 
L 812.831904 56.679104 
L 817.138983 57.723095 
L 821.446062 58.915098 
L 825.753141 60.258518 
L 830.060219 61.757238 
L 834.367298 63.41564 
L 838.674377 65.238475 
L 842.981456 67.230501 
L 847.288534 69.395854 
L 851.595613 71.736987 
L 855.902692 74.253529 
L 860.209771 76.942627 
L 864.516849 79.817301 
L 868.823928 82.833115 
L 873.131007 85.9991 
L 877.438086 89.303838 
L 881.745165 92.744521 
L 886.052243 96.290057 
L 890.359322 99.946157 
L 894.666401 103.730137 
L 898.97348 107.575262 
L 903.280558 111.506219 
L 907.587637 115.52548 
L 911.894716 119.595927 
L 916.201795 123.730089 
L 920.508873 127.924537 
L 924.815952 132.169091 
L 929.123031 136.459472 
L 933.43011 140.786335 
L 937.737188 145.146646 
L 942.044267 149.566417 
L 946.351346 154.000254 
L 950.658425 158.471304 
L 954.965503 162.944279 
L 959.272582 167.443297 
L 963.579661 171.959188 
L 967.88674 176.485986 
L 972.193819 181.038004 
L 976.500897 185.595298 
L 980.807976 190.162491 
L 985.115055 194.746094 
L 989.422134 199.40518 
L 993.729212 204.003234 
L 998.036291 208.610212 
L 1002.34337 213.22807 
L 1006.650449 217.85366 
L 1010.957527 222.486125 
L 1015.264606 227.123919 
L 1019.571685 231.768286 
L 1023.878764 236.421958 
L 1028.185842 241.080458 
L 1032.492921 245.742239 
L 1036.8 250.409215 
" style="fill:none;stroke:#dc143c;stroke-linecap:square;stroke-opacity:0.875;stroke-width:1.5;"/>
   </g>
   <g id="line2d_60">
    <path clip-path="url(#p67a502c0c9)" d="M 782.682353 53.393967 
L 786.989432 53.461593 
L 791.29651 53.664798 
L 795.603589 54.004299 
L 799.910668 54.481122 
L 804.217747 55.096624 
L 808.524826 55.852522 
L 812.831904 56.750913 
L 817.138983 57.794302 
L 821.446062 58.985631 
L 825.753141 60.328308 
L 830.060219 61.826216 
L 834.367298 63.48374 
L 838.674377 65.305635 
L 842.981456 67.296665 
L 847.288534 69.460969 
L 851.595613 71.801004 
L 855.902692 74.316385 
L 860.209771 77.004257 
L 864.516849 79.877838 
L 868.823928 82.892288 
L 873.131007 86.056851 
L 877.438086 89.360051 
L 881.745165 92.799252 
L 886.052243 96.343042 
L 890.359322 99.997322 
L 894.666401 103.779896 
L 898.97348 107.623073 
L 903.280558 111.552045 
L 907.587637 115.569495 
L 911.894716 119.637998 
L 916.201795 123.770365 
L 920.508873 127.962852 
L 924.815952 132.205238 
L 929.123031 136.493553 
L 933.43011 140.816536 
L 937.737188 145.171269 
L 942.044267 149.585785 
L 946.351346 154.014495 
L 950.658425 158.48205 
L 954.965503 162.952366 
L 959.272582 167.449729 
L 963.579661 171.964467 
L 967.88674 176.490435 
L 972.193819 181.041921 
L 976.500897 185.59875 
L 980.807976 190.165543 
L 985.115055 194.748899 
L 989.422134 199.40812 
L 993.729212 204.005912 
L 998.036291 208.612661 
L 1002.34337 213.230346 
L 1006.650449 217.855816 
L 1010.957527 222.488144 
L 1015.264606 227.125802 
L 1019.571685 231.770049 
L 1023.878764 236.423637 
L 1028.185842 241.082067 
L 1032.492921 245.743758 
L 1036.8 250.410654 
" style="fill:none;stroke:#dc143c;stroke-linecap:square;stroke-opacity:0.9375;stroke-width:1.5;"/>
   </g>
   <g id="patch_13">
    <path d="M 774.211765 252 
L 774.211765 34.56 
" style="fill:none;stroke:#000000;stroke-linecap:square;stroke-linejoin:miter;stroke-width:0.8;"/>
   </g>
   <g id="patch_14">
    <path d="M 1036.8 252 
L 1036.8 34.56 
" style="fill:none;stroke:#000000;stroke-linecap:square;stroke-linejoin:miter;stroke-width:0.8;"/>
   </g>
   <g id="patch_15">
    <path d="M 774.211765 252 
L 1036.8 252 
" style="fill:none;stroke:#000000;stroke-linecap:square;stroke-linejoin:miter;stroke-width:0.8;"/>
   </g>
   <g id="patch_16">
    <path d="M 774.211765 34.56 
L 1036.8 34.56 
" style="fill:none;stroke:#000000;stroke-linecap:square;stroke-linejoin:miter;stroke-width:0.8;"/>
   </g>
   <g id="text_45">
    <!-- Convergence of RG for N=5 -->
    <g transform="translate(822.130257 28.56)scale(0.12 -0.12)">
     <use xlink:href="#DejaVuSans-67"/>
     <use x="69.824219" xlink:href="#DejaVuSans-111"/>
     <use x="131.005859" xlink:href="#DejaVuSans-110"/>
     <use x="194.384766" xlink:href="#DejaVuSans-118"/>
     <use x="253.564453" xlink:href="#DejaVuSans-101"/>
     <use x="315.087891" xlink:href="#DejaVuSans-114"/>
     <use x="354.451172" xlink:href="#DejaVuSans-103"/>
     <use x="417.927734" xlink:href="#DejaVuSans-101"/>
     <use x="479.451172" xlink:href="#DejaVuSans-110"/>
     <use x="542.830078" xlink:href="#DejaVuSans-99"/>
     <use x="597.810547" xlink:href="#DejaVuSans-101"/>
     <use x="659.333984" xlink:href="#DejaVuSans-32"/>
     <use x="691.121094" xlink:href="#DejaVuSans-111"/>
     <use x="752.302734" xlink:href="#DejaVuSans-102"/>
     <use x="787.507812" xlink:href="#DejaVuSans-32"/>
     <use x="819.294922" xlink:href="#DejaVuSans-82"/>
     <use x="888.777344" xlink:href="#DejaVuSans-71"/>
     <use x="966.267578" xlink:href="#DejaVuSans-32"/>
     <use x="998.054688" xlink:href="#DejaVuSans-102"/>
     <use x="1033.259766" xlink:href="#DejaVuSans-111"/>
     <use x="1094.441406" xlink:href="#DejaVuSans-114"/>
     <use x="1135.554688" xlink:href="#DejaVuSans-32"/>
     <use x="1167.341797" xlink:href="#DejaVuSans-78"/>
     <use x="1242.146484" xlink:href="#DejaVuSans-61"/>
     <use x="1325.935547" xlink:href="#DejaVuSans-53"/>
    </g>
   </g>
  </g>
 </g>
 <defs>
  <clipPath id="p21769035fa">
   <rect height="217.44" width="262.588235" x="144" y="34.56"/>
  </clipPath>
  <clipPath id="p4e296d7fd0">
   <rect height="217.44" width="262.588235" x="459.105882" y="34.56"/>
  </clipPath>
  <clipPath id="p67a502c0c9">
   <rect height="217.44" width="262.588235" x="774.211765" y="34.56"/>
  </clipPath>
 </defs>
</svg>
