<?xml version="1.0" encoding="utf-8" standalone="no"?>
<!DOCTYPE svg PUBLIC "-//W3C//DTD SVG 1.1//EN"
  "http://www.w3.org/Graphics/SVG/1.1/DTD/svg11.dtd">
<!-- Created with matplotlib (https://matplotlib.org/) -->
<svg height="288pt" version="1.1" viewBox="0 0 432 288" width="432pt" xmlns="http://www.w3.org/2000/svg" xmlns:xlink="http://www.w3.org/1999/xlink">
 <metadata>
  <rdf:RDF xmlns:cc="http://creativecommons.org/ns#" xmlns:dc="http://purl.org/dc/elements/1.1/" xmlns:rdf="http://www.w3.org/1999/02/22-rdf-syntax-ns#">
   <cc:Work>
    <dc:type rdf:resource="http://purl.org/dc/dcmitype/StillImage"/>
    <dc:date>2021-11-14T22:45:16.354802</dc:date>
    <dc:format>image/svg+xml</dc:format>
    <dc:creator>
     <cc:Agent>
      <dc:title>Matplotlib v3.3.4, https://matplotlib.org/</dc:title>
     </cc:Agent>
    </dc:creator>
   </cc:Work>
  </rdf:RDF>
 </metadata>
 <defs>
  <style type="text/css">*{stroke-linecap:butt;stroke-linejoin:round;}</style>
 </defs>
 <g id="figure_1">
  <g id="patch_1">
   <path d="M 0 288 
L 432 288 
L 432 0 
L 0 0 
z
" style="fill:none;"/>
  </g>
  <g id="axes_1">
   <g id="patch_2">
    <path d="M 54 252 
L 388.8 252 
L 388.8 34.56 
L 54 34.56 
z
" style="fill:#ffffff;"/>
   </g>
   <g id="patch_3">
    <path clip-path="url(#pfd3e2d9d84)" d="M 58.520723 252 
L 62.257723 252 
L 62.257723 248.519568 
L 58.520723 248.519568 
z
" style="fill:#228b22;opacity:0.8;"/>
   </g>
   <g id="patch_4">
    <path clip-path="url(#pfd3e2d9d84)" d="M 62.257723 252 
L 65.994724 252 
L 65.994724 232.387294 
L 62.257723 232.387294 
z
" style="fill:#228b22;opacity:0.8;"/>
   </g>
   <g id="patch_5">
    <path clip-path="url(#pfd3e2d9d84)" d="M 65.994724 252 
L 69.731724 252 
L 69.731724 204.637903 
L 65.994724 204.637903 
z
" style="fill:#228b22;opacity:0.8;"/>
   </g>
   <g id="patch_6">
    <path clip-path="url(#pfd3e2d9d84)" d="M 69.731724 252 
L 73.468725 252 
L 73.468725 168.187431 
L 69.731724 168.187431 
z
" style="fill:#228b22;opacity:0.8;"/>
   </g>
   <g id="patch_7">
    <path clip-path="url(#pfd3e2d9d84)" d="M 73.468725 252 
L 77.205725 252 
L 77.205725 129.973226 
L 73.468725 129.973226 
z
" style="fill:#228b22;opacity:0.8;"/>
   </g>
   <g id="patch_8">
    <path clip-path="url(#pfd3e2d9d84)" d="M 77.205725 252 
L 80.942726 252 
L 80.942726 98.908017 
L 77.205725 98.908017 
z
" style="fill:#228b22;opacity:0.8;"/>
   </g>
   <g id="patch_9">
    <path clip-path="url(#pfd3e2d9d84)" d="M 80.942726 252 
L 84.679726 252 
L 84.679726 69.912255 
L 80.942726 69.912255 
z
" style="fill:#228b22;opacity:0.8;"/>
   </g>
   <g id="patch_10">
    <path clip-path="url(#pfd3e2d9d84)" d="M 84.679726 252 
L 88.416726 252 
L 88.416726 53.92108 
L 84.679726 53.92108 
z
" style="fill:#228b22;opacity:0.8;"/>
   </g>
   <g id="patch_11">
    <path clip-path="url(#pfd3e2d9d84)" d="M 88.416726 252 
L 92.153727 252 
L 92.153727 44.914286 
L 88.416726 44.914286 
z
" style="fill:#228b22;opacity:0.8;"/>
   </g>
   <g id="patch_12">
    <path clip-path="url(#pfd3e2d9d84)" d="M 92.153727 252 
L 95.890727 252 
L 95.890727 53.568333 
L 92.153727 53.568333 
z
" style="fill:#228b22;opacity:0.8;"/>
   </g>
   <g id="patch_13">
    <path clip-path="url(#pfd3e2d9d84)" d="M 95.890727 252 
L 99.627728 252 
L 99.627728 69.230278 
L 95.890727 69.230278 
z
" style="fill:#228b22;opacity:0.8;"/>
   </g>
   <g id="patch_14">
    <path clip-path="url(#pfd3e2d9d84)" d="M 99.627728 252 
L 103.364728 252 
L 103.364728 85.221453 
L 99.627728 85.221453 
z
" style="fill:#228b22;opacity:0.8;"/>
   </g>
   <g id="patch_15">
    <path clip-path="url(#pfd3e2d9d84)" d="M 103.364728 252 
L 107.101729 252 
L 107.101729 109.70206 
L 103.364728 109.70206 
z
" style="fill:#228b22;opacity:0.8;"/>
   </g>
   <g id="patch_16">
    <path clip-path="url(#pfd3e2d9d84)" d="M 107.101729 252 
L 110.838729 252 
L 110.838729 130.584653 
L 107.101729 130.584653 
z
" style="fill:#228b22;opacity:0.8;"/>
   </g>
   <g id="patch_17">
    <path clip-path="url(#pfd3e2d9d84)" d="M 110.838729 252 
L 114.57573 252 
L 114.57573 155.559106 
L 110.838729 155.559106 
z
" style="fill:#228b22;opacity:0.8;"/>
   </g>
   <g id="patch_18">
    <path clip-path="url(#pfd3e2d9d84)" d="M 114.57573 252 
L 118.31273 252 
L 118.31273 170.63314 
L 114.57573 170.63314 
z
" style="fill:#228b22;opacity:0.8;"/>
   </g>
   <g id="patch_19">
    <path clip-path="url(#pfd3e2d9d84)" d="M 118.31273 252 
L 122.04973 252 
L 122.04973 189.42277 
L 118.31273 189.42277 
z
" style="fill:#228b22;opacity:0.8;"/>
   </g>
   <g id="patch_20">
    <path clip-path="url(#pfd3e2d9d84)" d="M 122.04973 252 
L 125.786731 252 
L 125.786731 200.546043 
L 122.04973 200.546043 
z
" style="fill:#228b22;opacity:0.8;"/>
   </g>
   <g id="patch_21">
    <path clip-path="url(#pfd3e2d9d84)" d="M 125.786731 252 
L 129.523731 252 
L 129.523731 212.30426 
L 125.786731 212.30426 
z
" style="fill:#228b22;opacity:0.8;"/>
   </g>
   <g id="patch_22">
    <path clip-path="url(#pfd3e2d9d84)" d="M 129.523731 252 
L 133.260732 252 
L 133.260732 220.652594 
L 129.523731 220.652594 
z
" style="fill:#228b22;opacity:0.8;"/>
   </g>
   <g id="patch_23">
    <path clip-path="url(#pfd3e2d9d84)" d="M 133.260732 252 
L 136.997732 252 
L 136.997732 227.754557 
L 133.260732 227.754557 
z
" style="fill:#228b22;opacity:0.8;"/>
   </g>
   <g id="patch_24">
    <path clip-path="url(#pfd3e2d9d84)" d="M 136.997732 252 
L 140.734733 252 
L 140.734733 231.376088 
L 136.997732 231.376088 
z
" style="fill:#228b22;opacity:0.8;"/>
   </g>
   <g id="patch_25">
    <path clip-path="url(#pfd3e2d9d84)" d="M 140.734733 252 
L 144.471733 252 
L 144.471733 234.245093 
L 140.734733 234.245093 
z
" style="fill:#228b22;opacity:0.8;"/>
   </g>
   <g id="patch_26">
    <path clip-path="url(#pfd3e2d9d84)" d="M 144.471733 252 
L 148.208734 252 
L 148.208734 239.112994 
L 144.471733 239.112994 
z
" style="fill:#228b22;opacity:0.8;"/>
   </g>
   <g id="patch_27">
    <path clip-path="url(#pfd3e2d9d84)" d="M 148.208734 252 
L 151.945734 252 
L 151.945734 241.088375 
L 148.208734 241.088375 
z
" style="fill:#228b22;opacity:0.8;"/>
   </g>
   <g id="patch_28">
    <path clip-path="url(#pfd3e2d9d84)" d="M 151.945734 252 
L 155.682734 252 
L 155.682734 242.56991 
L 151.945734 242.56991 
z
" style="fill:#228b22;opacity:0.8;"/>
   </g>
   <g id="patch_29">
    <path clip-path="url(#pfd3e2d9d84)" d="M 155.682734 252 
L 159.419735 252 
L 159.419735 245.180234 
L 155.682734 245.180234 
z
" style="fill:#228b22;opacity:0.8;"/>
   </g>
   <g id="patch_30">
    <path clip-path="url(#pfd3e2d9d84)" d="M 159.419735 252 
L 163.156735 252 
L 163.156735 246.003309 
L 159.419735 246.003309 
z
" style="fill:#228b22;opacity:0.8;"/>
   </g>
   <g id="patch_31">
    <path clip-path="url(#pfd3e2d9d84)" d="M 163.156735 252 
L 166.893736 252 
L 166.893736 245.956277 
L 163.156735 245.956277 
z
" style="fill:#228b22;opacity:0.8;"/>
   </g>
   <g id="patch_32">
    <path clip-path="url(#pfd3e2d9d84)" d="M 166.893736 252 
L 170.630736 252 
L 170.630736 247.767042 
L 166.893736 247.767042 
z
" style="fill:#228b22;opacity:0.8;"/>
   </g>
   <g id="patch_33">
    <path clip-path="url(#pfd3e2d9d84)" d="M 170.630736 252 
L 174.367737 252 
L 174.367737 248.378469 
L 170.630736 248.378469 
z
" style="fill:#228b22;opacity:0.8;"/>
   </g>
   <g id="patch_34">
    <path clip-path="url(#pfd3e2d9d84)" d="M 174.367737 252 
L 178.104737 252 
L 178.104737 248.63715 
L 174.367737 248.63715 
z
" style="fill:#228b22;opacity:0.8;"/>
   </g>
   <g id="patch_35">
    <path clip-path="url(#pfd3e2d9d84)" d="M 178.104737 252 
L 181.841738 252 
L 181.841738 249.225061 
L 178.104737 249.225061 
z
" style="fill:#228b22;opacity:0.8;"/>
   </g>
   <g id="patch_36">
    <path clip-path="url(#pfd3e2d9d84)" d="M 181.841738 252 
L 185.578738 252 
L 185.578738 249.342643 
L 181.841738 249.342643 
z
" style="fill:#228b22;opacity:0.8;"/>
   </g>
   <g id="patch_37">
    <path clip-path="url(#pfd3e2d9d84)" d="M 185.578738 252 
L 189.315739 252 
L 189.315739 249.460225 
L 185.578738 249.460225 
z
" style="fill:#228b22;opacity:0.8;"/>
   </g>
   <g id="patch_38">
    <path clip-path="url(#pfd3e2d9d84)" d="M 189.315739 252 
L 193.052739 252 
L 193.052739 249.95407 
L 189.315739 249.95407 
z
" style="fill:#228b22;opacity:0.8;"/>
   </g>
   <g id="patch_39">
    <path clip-path="url(#pfd3e2d9d84)" d="M 193.052739 252 
L 196.789739 252 
L 196.789739 250.259784 
L 193.052739 250.259784 
z
" style="fill:#228b22;opacity:0.8;"/>
   </g>
   <g id="patch_40">
    <path clip-path="url(#pfd3e2d9d84)" d="M 196.789739 252 
L 200.52674 252 
L 200.52674 250.61253 
L 196.789739 250.61253 
z
" style="fill:#228b22;opacity:0.8;"/>
   </g>
   <g id="patch_41">
    <path clip-path="url(#pfd3e2d9d84)" d="M 200.52674 252 
L 204.26374 252 
L 204.26374 250.165718 
L 200.52674 250.165718 
z
" style="fill:#228b22;opacity:0.8;"/>
   </g>
   <g id="patch_42">
    <path clip-path="url(#pfd3e2d9d84)" d="M 204.26374 252 
L 208.000741 252 
L 208.000741 250.565498 
L 204.26374 250.565498 
z
" style="fill:#228b22;opacity:0.8;"/>
   </g>
   <g id="patch_43">
    <path clip-path="url(#pfd3e2d9d84)" d="M 208.000741 252 
L 211.737741 252 
L 211.737741 250.894728 
L 208.000741 250.894728 
z
" style="fill:#228b22;opacity:0.8;"/>
   </g>
   <g id="patch_44">
    <path clip-path="url(#pfd3e2d9d84)" d="M 211.737741 252 
L 215.474742 252 
L 215.474742 251.176925 
L 211.737741 251.176925 
z
" style="fill:#228b22;opacity:0.8;"/>
   </g>
   <g id="patch_45">
    <path clip-path="url(#pfd3e2d9d84)" d="M 215.474742 252 
L 219.211742 252 
L 219.211742 251.129892 
L 215.474742 251.129892 
z
" style="fill:#228b22;opacity:0.8;"/>
   </g>
   <g id="patch_46">
    <path clip-path="url(#pfd3e2d9d84)" d="M 219.211742 252 
L 222.948743 252 
L 222.948743 251.176925 
L 219.211742 251.176925 
z
" style="fill:#228b22;opacity:0.8;"/>
   </g>
   <g id="patch_47">
    <path clip-path="url(#pfd3e2d9d84)" d="M 222.948743 252 
L 226.685743 252 
L 226.685743 251.153408 
L 222.948743 251.153408 
z
" style="fill:#228b22;opacity:0.8;"/>
   </g>
   <g id="patch_48">
    <path clip-path="url(#pfd3e2d9d84)" d="M 226.685743 252 
L 230.422743 252 
L 230.422743 251.412089 
L 226.685743 251.412089 
z
" style="fill:#228b22;opacity:0.8;"/>
   </g>
   <g id="patch_49">
    <path clip-path="url(#pfd3e2d9d84)" d="M 230.422743 252 
L 234.159744 252 
L 234.159744 251.388573 
L 230.422743 251.388573 
z
" style="fill:#228b22;opacity:0.8;"/>
   </g>
   <g id="patch_50">
    <path clip-path="url(#pfd3e2d9d84)" d="M 234.159744 252 
L 237.896744 252 
L 237.896744 251.412089 
L 234.159744 251.412089 
z
" style="fill:#228b22;opacity:0.8;"/>
   </g>
   <g id="patch_51">
    <path clip-path="url(#pfd3e2d9d84)" d="M 237.896744 252 
L 241.633745 252 
L 241.633745 251.67077 
L 237.896744 251.67077 
z
" style="fill:#228b22;opacity:0.8;"/>
   </g>
   <g id="patch_52">
    <path clip-path="url(#pfd3e2d9d84)" d="M 241.633745 252 
L 245.370745 252 
L 245.370745 251.576704 
L 241.633745 251.576704 
z
" style="fill:#228b22;opacity:0.8;"/>
   </g>
   <g id="patch_53">
    <path clip-path="url(#pfd3e2d9d84)" d="M 245.370745 252 
L 249.107746 252 
L 249.107746 251.600221 
L 245.370745 251.600221 
z
" style="fill:#228b22;opacity:0.8;"/>
   </g>
   <g id="patch_54">
    <path clip-path="url(#pfd3e2d9d84)" d="M 249.107746 252 
L 252.844746 252 
L 252.844746 251.694286 
L 249.107746 251.694286 
z
" style="fill:#228b22;opacity:0.8;"/>
   </g>
   <g id="patch_55">
    <path clip-path="url(#pfd3e2d9d84)" d="M 252.844746 252 
L 256.581747 252 
L 256.581747 251.647253 
L 252.844746 251.647253 
z
" style="fill:#228b22;opacity:0.8;"/>
   </g>
   <g id="patch_56">
    <path clip-path="url(#pfd3e2d9d84)" d="M 256.581747 252 
L 260.318747 252 
L 260.318747 251.623737 
L 256.581747 251.623737 
z
" style="fill:#228b22;opacity:0.8;"/>
   </g>
   <g id="patch_57">
    <path clip-path="url(#pfd3e2d9d84)" d="M 260.318747 252 
L 264.055747 252 
L 264.055747 251.788352 
L 260.318747 251.788352 
z
" style="fill:#228b22;opacity:0.8;"/>
   </g>
   <g id="patch_58">
    <path clip-path="url(#pfd3e2d9d84)" d="M 264.055747 252 
L 267.792748 252 
L 267.792748 251.882418 
L 264.055747 251.882418 
z
" style="fill:#228b22;opacity:0.8;"/>
   </g>
   <g id="patch_59">
    <path clip-path="url(#pfd3e2d9d84)" d="M 267.792748 252 
L 271.529748 252 
L 271.529748 251.694286 
L 267.792748 251.694286 
z
" style="fill:#228b22;opacity:0.8;"/>
   </g>
   <g id="patch_60">
    <path clip-path="url(#pfd3e2d9d84)" d="M 271.529748 252 
L 275.266749 252 
L 275.266749 251.741319 
L 271.529748 251.741319 
z
" style="fill:#228b22;opacity:0.8;"/>
   </g>
   <g id="patch_61">
    <path clip-path="url(#pfd3e2d9d84)" d="M 275.266749 252 
L 279.003749 252 
L 279.003749 251.811869 
L 275.266749 251.811869 
z
" style="fill:#228b22;opacity:0.8;"/>
   </g>
   <g id="patch_62">
    <path clip-path="url(#pfd3e2d9d84)" d="M 279.003749 252 
L 282.74075 252 
L 282.74075 251.929451 
L 279.003749 251.929451 
z
" style="fill:#228b22;opacity:0.8;"/>
   </g>
   <g id="patch_63">
    <path clip-path="url(#pfd3e2d9d84)" d="M 282.74075 252 
L 286.47775 252 
L 286.47775 251.929451 
L 282.74075 251.929451 
z
" style="fill:#228b22;opacity:0.8;"/>
   </g>
   <g id="patch_64">
    <path clip-path="url(#pfd3e2d9d84)" d="M 286.47775 252 
L 290.214751 252 
L 290.214751 251.976484 
L 286.47775 251.976484 
z
" style="fill:#228b22;opacity:0.8;"/>
   </g>
   <g id="patch_65">
    <path clip-path="url(#pfd3e2d9d84)" d="M 290.214751 252 
L 293.951751 252 
L 293.951751 251.835385 
L 290.214751 251.835385 
z
" style="fill:#228b22;opacity:0.8;"/>
   </g>
   <g id="patch_66">
    <path clip-path="url(#pfd3e2d9d84)" d="M 293.951751 252 
L 297.688751 252 
L 297.688751 251.835385 
L 293.951751 251.835385 
z
" style="fill:#228b22;opacity:0.8;"/>
   </g>
   <g id="patch_67">
    <path clip-path="url(#pfd3e2d9d84)" d="M 297.688751 252 
L 301.425752 252 
L 301.425752 251.835385 
L 297.688751 251.835385 
z
" style="fill:#228b22;opacity:0.8;"/>
   </g>
   <g id="patch_68">
    <path clip-path="url(#pfd3e2d9d84)" d="M 301.425752 252 
L 305.162752 252 
L 305.162752 251.811869 
L 301.425752 251.811869 
z
" style="fill:#228b22;opacity:0.8;"/>
   </g>
   <g id="patch_69">
    <path clip-path="url(#pfd3e2d9d84)" d="M 305.162752 252 
L 308.899753 252 
L 308.899753 251.929451 
L 305.162752 251.929451 
z
" style="fill:#228b22;opacity:0.8;"/>
   </g>
   <g id="patch_70">
    <path clip-path="url(#pfd3e2d9d84)" d="M 308.899753 252 
L 312.636753 252 
L 312.636753 251.952967 
L 308.899753 251.952967 
z
" style="fill:#228b22;opacity:0.8;"/>
   </g>
   <g id="patch_71">
    <path clip-path="url(#pfd3e2d9d84)" d="M 312.636753 252 
L 316.373754 252 
L 316.373754 251.929451 
L 312.636753 251.929451 
z
" style="fill:#228b22;opacity:0.8;"/>
   </g>
   <g id="patch_72">
    <path clip-path="url(#pfd3e2d9d84)" d="M 316.373754 252 
L 320.110754 252 
L 320.110754 251.952967 
L 316.373754 251.952967 
z
" style="fill:#228b22;opacity:0.8;"/>
   </g>
   <g id="patch_73">
    <path clip-path="url(#pfd3e2d9d84)" d="M 320.110754 252 
L 323.847755 252 
L 323.847755 251.952967 
L 320.110754 251.952967 
z
" style="fill:#228b22;opacity:0.8;"/>
   </g>
   <g id="patch_74">
    <path clip-path="url(#pfd3e2d9d84)" d="M 323.847755 252 
L 327.584755 252 
L 327.584755 251.952967 
L 323.847755 251.952967 
z
" style="fill:#228b22;opacity:0.8;"/>
   </g>
   <g id="patch_75">
    <path clip-path="url(#pfd3e2d9d84)" d="M 327.584755 252 
L 331.321755 252 
L 331.321755 251.976484 
L 327.584755 251.976484 
z
" style="fill:#228b22;opacity:0.8;"/>
   </g>
   <g id="patch_76">
    <path clip-path="url(#pfd3e2d9d84)" d="M 331.321755 252 
L 335.058756 252 
L 335.058756 251.976484 
L 331.321755 251.976484 
z
" style="fill:#228b22;opacity:0.8;"/>
   </g>
   <g id="patch_77">
    <path clip-path="url(#pfd3e2d9d84)" d="M 335.058756 252 
L 338.795756 252 
L 338.795756 251.976484 
L 335.058756 251.976484 
z
" style="fill:#228b22;opacity:0.8;"/>
   </g>
   <g id="patch_78">
    <path clip-path="url(#pfd3e2d9d84)" d="M 338.795756 252 
L 342.532757 252 
L 342.532757 251.976484 
L 338.795756 251.976484 
z
" style="fill:#228b22;opacity:0.8;"/>
   </g>
   <g id="patch_79">
    <path clip-path="url(#pfd3e2d9d84)" d="M 342.532757 252 
L 346.269757 252 
L 346.269757 252 
L 342.532757 252 
z
" style="fill:#228b22;opacity:0.8;"/>
   </g>
   <g id="patch_80">
    <path clip-path="url(#pfd3e2d9d84)" d="M 346.269757 252 
L 350.006758 252 
L 350.006758 251.976484 
L 346.269757 251.976484 
z
" style="fill:#228b22;opacity:0.8;"/>
   </g>
   <g id="patch_81">
    <path clip-path="url(#pfd3e2d9d84)" d="M 350.006758 252 
L 353.743758 252 
L 353.743758 251.976484 
L 350.006758 251.976484 
z
" style="fill:#228b22;opacity:0.8;"/>
   </g>
   <g id="patch_82">
    <path clip-path="url(#pfd3e2d9d84)" d="M 353.743758 252 
L 357.480759 252 
L 357.480759 251.952967 
L 353.743758 251.952967 
z
" style="fill:#228b22;opacity:0.8;"/>
   </g>
   <g id="patch_83">
    <path clip-path="url(#pfd3e2d9d84)" d="M 357.480759 252 
L 361.217759 252 
L 361.217759 252 
L 357.480759 252 
z
" style="fill:#228b22;opacity:0.8;"/>
   </g>
   <g id="patch_84">
    <path clip-path="url(#pfd3e2d9d84)" d="M 361.217759 252 
L 364.954759 252 
L 364.954759 252 
L 361.217759 252 
z
" style="fill:#228b22;opacity:0.8;"/>
   </g>
   <g id="patch_85">
    <path clip-path="url(#pfd3e2d9d84)" d="M 364.954759 252 
L 368.69176 252 
L 368.69176 251.976484 
L 364.954759 251.976484 
z
" style="fill:#228b22;opacity:0.8;"/>
   </g>
   <g id="patch_86">
    <path clip-path="url(#pfd3e2d9d84)" d="M 368.69176 252 
L 372.42876 252 
L 372.42876 251.976484 
L 368.69176 251.976484 
z
" style="fill:#228b22;opacity:0.8;"/>
   </g>
   <g id="patch_87">
    <path clip-path="url(#pfd3e2d9d84)" d="M 372.42876 252 
L 376.165761 252 
L 376.165761 252 
L 372.42876 252 
z
" style="fill:#228b22;opacity:0.8;"/>
   </g>
   <g id="patch_88">
    <path clip-path="url(#pfd3e2d9d84)" d="M 376.165761 252 
L 379.902761 252 
L 379.902761 252 
L 376.165761 252 
z
" style="fill:#228b22;opacity:0.8;"/>
   </g>
   <g id="patch_89">
    <path clip-path="url(#pfd3e2d9d84)" d="M 379.902761 252 
L 383.639762 252 
L 383.639762 252 
L 379.902761 252 
z
" style="fill:#228b22;opacity:0.8;"/>
   </g>
   <g id="patch_90">
    <path clip-path="url(#pfd3e2d9d84)" d="M 383.639762 252 
L 387.376762 252 
L 387.376762 252 
L 383.639762 252 
z
" style="fill:#228b22;opacity:0.8;"/>
   </g>
   <g id="patch_91">
    <path clip-path="url(#pfd3e2d9d84)" d="M 387.376762 252 
L 391.113763 252 
L 391.113763 252 
L 387.376762 252 
z
" style="fill:#228b22;opacity:0.8;"/>
   </g>
   <g id="patch_92">
    <path clip-path="url(#pfd3e2d9d84)" d="M 391.113763 252 
L 394.850763 252 
L 394.850763 251.952967 
L 391.113763 251.952967 
z
" style="fill:#228b22;opacity:0.8;"/>
   </g>
   <g id="patch_93">
    <path clip-path="url(#pfd3e2d9d84)" d="M 394.850763 252 
L 398.587764 252 
L 398.587764 252 
L 394.850763 252 
z
" style="fill:#228b22;opacity:0.8;"/>
   </g>
   <g id="patch_94">
    <path clip-path="url(#pfd3e2d9d84)" d="M 398.587764 252 
L 402.324764 252 
L 402.324764 252 
L 398.587764 252 
z
" style="fill:#228b22;opacity:0.8;"/>
   </g>
   <g id="patch_95">
    <path clip-path="url(#pfd3e2d9d84)" d="M 402.324764 252 
L 406.061764 252 
L 406.061764 252 
L 402.324764 252 
z
" style="fill:#228b22;opacity:0.8;"/>
   </g>
   <g id="patch_96">
    <path clip-path="url(#pfd3e2d9d84)" d="M 406.061764 252 
L 409.798765 252 
L 409.798765 252 
L 406.061764 252 
z
" style="fill:#228b22;opacity:0.8;"/>
   </g>
   <g id="patch_97">
    <path clip-path="url(#pfd3e2d9d84)" d="M 409.798765 252 
L 413.535765 252 
L 413.535765 252 
L 409.798765 252 
z
" style="fill:#228b22;opacity:0.8;"/>
   </g>
   <g id="patch_98">
    <path clip-path="url(#pfd3e2d9d84)" d="M 413.535765 252 
L 417.272766 252 
L 417.272766 251.976484 
L 413.535765 251.976484 
z
" style="fill:#228b22;opacity:0.8;"/>
   </g>
   <g id="patch_99">
    <path clip-path="url(#pfd3e2d9d84)" d="M 417.272766 252 
L 421.009766 252 
L 421.009766 252 
L 417.272766 252 
z
" style="fill:#228b22;opacity:0.8;"/>
   </g>
   <g id="patch_100">
    <path clip-path="url(#pfd3e2d9d84)" d="M 421.009766 252 
L 424.746767 252 
L 424.746767 252 
L 421.009766 252 
z
" style="fill:#228b22;opacity:0.8;"/>
   </g>
   <g id="patch_101">
    <path clip-path="url(#pfd3e2d9d84)" d="M 424.746767 252 
L 428.483767 252 
L 428.483767 252 
L 424.746767 252 
z
" style="fill:#228b22;opacity:0.8;"/>
   </g>
   <g id="patch_102">
    <path clip-path="url(#pfd3e2d9d84)" d="M 428.483767 252 
L 432.220768 252 
L 432.220768 251.976484 
L 428.483767 251.976484 
z
" style="fill:#228b22;opacity:0.8;"/>
   </g>
   <g id="matplotlib.axis_1">
    <g id="xtick_1">
     <g id="line2d_1">
      <defs>
       <path d="M 0 0 
L 0 3.5 
" id="m0d5b99314e" style="stroke:#000000;stroke-width:0.8;"/>
      </defs>
      <g>
       <use style="stroke:#000000;stroke-width:0.8;" x="58.133333" xlink:href="#m0d5b99314e" y="252"/>
      </g>
     </g>
     <g id="text_1">
      <!-- 0 -->
      <g transform="translate(54.952083 266.598437)scale(0.1 -0.1)">
       <defs>
        <path d="M 31.78125 66.40625 
Q 24.171875 66.40625 20.328125 58.90625 
Q 16.5 51.421875 16.5 36.375 
Q 16.5 21.390625 20.328125 13.890625 
Q 24.171875 6.390625 31.78125 6.390625 
Q 39.453125 6.390625 43.28125 13.890625 
Q 47.125 21.390625 47.125 36.375 
Q 47.125 51.421875 43.28125 58.90625 
Q 39.453125 66.40625 31.78125 66.40625 
z
M 31.78125 74.21875 
Q 44.046875 74.21875 50.515625 64.515625 
Q 56.984375 54.828125 56.984375 36.375 
Q 56.984375 17.96875 50.515625 8.265625 
Q 44.046875 -1.421875 31.78125 -1.421875 
Q 19.53125 -1.421875 13.0625 8.265625 
Q 6.59375 17.96875 6.59375 36.375 
Q 6.59375 54.828125 13.0625 64.515625 
Q 19.53125 74.21875 31.78125 74.21875 
z
" id="DejaVuSans-48"/>
       </defs>
       <use xlink:href="#DejaVuSans-48"/>
      </g>
     </g>
    </g>
    <g id="xtick_2">
     <g id="line2d_2">
      <g>
       <use style="stroke:#000000;stroke-width:0.8;" x="99.466667" xlink:href="#m0d5b99314e" y="252"/>
      </g>
     </g>
     <g id="text_2">
      <!-- 1 -->
      <g transform="translate(96.285417 266.598437)scale(0.1 -0.1)">
       <defs>
        <path d="M 12.40625 8.296875 
L 28.515625 8.296875 
L 28.515625 63.921875 
L 10.984375 60.40625 
L 10.984375 69.390625 
L 28.421875 72.90625 
L 38.28125 72.90625 
L 38.28125 8.296875 
L 54.390625 8.296875 
L 54.390625 0 
L 12.40625 0 
z
" id="DejaVuSans-49"/>
       </defs>
       <use xlink:href="#DejaVuSans-49"/>
      </g>
     </g>
    </g>
    <g id="xtick_3">
     <g id="line2d_3">
      <g>
       <use style="stroke:#000000;stroke-width:0.8;" x="140.8" xlink:href="#m0d5b99314e" y="252"/>
      </g>
     </g>
     <g id="text_3">
      <!-- 2 -->
      <g transform="translate(137.61875 266.598437)scale(0.1 -0.1)">
       <defs>
        <path d="M 19.1875 8.296875 
L 53.609375 8.296875 
L 53.609375 0 
L 7.328125 0 
L 7.328125 8.296875 
Q 12.9375 14.109375 22.625 23.890625 
Q 32.328125 33.6875 34.8125 36.53125 
Q 39.546875 41.84375 41.421875 45.53125 
Q 43.3125 49.21875 43.3125 52.78125 
Q 43.3125 58.59375 39.234375 62.25 
Q 35.15625 65.921875 28.609375 65.921875 
Q 23.96875 65.921875 18.8125 64.3125 
Q 13.671875 62.703125 7.8125 59.421875 
L 7.8125 69.390625 
Q 13.765625 71.78125 18.9375 73 
Q 24.125 74.21875 28.421875 74.21875 
Q 39.75 74.21875 46.484375 68.546875 
Q 53.21875 62.890625 53.21875 53.421875 
Q 53.21875 48.921875 51.53125 44.890625 
Q 49.859375 40.875 45.40625 35.40625 
Q 44.1875 33.984375 37.640625 27.21875 
Q 31.109375 20.453125 19.1875 8.296875 
z
" id="DejaVuSans-50"/>
       </defs>
       <use xlink:href="#DejaVuSans-50"/>
      </g>
     </g>
    </g>
    <g id="xtick_4">
     <g id="line2d_4">
      <g>
       <use style="stroke:#000000;stroke-width:0.8;" x="182.133333" xlink:href="#m0d5b99314e" y="252"/>
      </g>
     </g>
     <g id="text_4">
      <!-- 3 -->
      <g transform="translate(178.952083 266.598437)scale(0.1 -0.1)">
       <defs>
        <path d="M 40.578125 39.3125 
Q 47.65625 37.796875 51.625 33 
Q 55.609375 28.21875 55.609375 21.1875 
Q 55.609375 10.40625 48.1875 4.484375 
Q 40.765625 -1.421875 27.09375 -1.421875 
Q 22.515625 -1.421875 17.65625 -0.515625 
Q 12.796875 0.390625 7.625 2.203125 
L 7.625 11.71875 
Q 11.71875 9.328125 16.59375 8.109375 
Q 21.484375 6.890625 26.8125 6.890625 
Q 36.078125 6.890625 40.9375 10.546875 
Q 45.796875 14.203125 45.796875 21.1875 
Q 45.796875 27.640625 41.28125 31.265625 
Q 36.765625 34.90625 28.71875 34.90625 
L 20.21875 34.90625 
L 20.21875 43.015625 
L 29.109375 43.015625 
Q 36.375 43.015625 40.234375 45.921875 
Q 44.09375 48.828125 44.09375 54.296875 
Q 44.09375 59.90625 40.109375 62.90625 
Q 36.140625 65.921875 28.71875 65.921875 
Q 24.65625 65.921875 20.015625 65.03125 
Q 15.375 64.15625 9.8125 62.3125 
L 9.8125 71.09375 
Q 15.4375 72.65625 20.34375 73.4375 
Q 25.25 74.21875 29.59375 74.21875 
Q 40.828125 74.21875 47.359375 69.109375 
Q 53.90625 64.015625 53.90625 55.328125 
Q 53.90625 49.265625 50.4375 45.09375 
Q 46.96875 40.921875 40.578125 39.3125 
z
" id="DejaVuSans-51"/>
       </defs>
       <use xlink:href="#DejaVuSans-51"/>
      </g>
     </g>
    </g>
    <g id="xtick_5">
     <g id="line2d_5">
      <g>
       <use style="stroke:#000000;stroke-width:0.8;" x="223.466667" xlink:href="#m0d5b99314e" y="252"/>
      </g>
     </g>
     <g id="text_5">
      <!-- 4 -->
      <g transform="translate(220.285417 266.598437)scale(0.1 -0.1)">
       <defs>
        <path d="M 37.796875 64.3125 
L 12.890625 25.390625 
L 37.796875 25.390625 
z
M 35.203125 72.90625 
L 47.609375 72.90625 
L 47.609375 25.390625 
L 58.015625 25.390625 
L 58.015625 17.1875 
L 47.609375 17.1875 
L 47.609375 0 
L 37.796875 0 
L 37.796875 17.1875 
L 4.890625 17.1875 
L 4.890625 26.703125 
z
" id="DejaVuSans-52"/>
       </defs>
       <use xlink:href="#DejaVuSans-52"/>
      </g>
     </g>
    </g>
    <g id="xtick_6">
     <g id="line2d_6">
      <g>
       <use style="stroke:#000000;stroke-width:0.8;" x="264.8" xlink:href="#m0d5b99314e" y="252"/>
      </g>
     </g>
     <g id="text_6">
      <!-- 5 -->
      <g transform="translate(261.61875 266.598437)scale(0.1 -0.1)">
       <defs>
        <path d="M 10.796875 72.90625 
L 49.515625 72.90625 
L 49.515625 64.59375 
L 19.828125 64.59375 
L 19.828125 46.734375 
Q 21.96875 47.46875 24.109375 47.828125 
Q 26.265625 48.1875 28.421875 48.1875 
Q 40.625 48.1875 47.75 41.5 
Q 54.890625 34.8125 54.890625 23.390625 
Q 54.890625 11.625 47.5625 5.09375 
Q 40.234375 -1.421875 26.90625 -1.421875 
Q 22.3125 -1.421875 17.546875 -0.640625 
Q 12.796875 0.140625 7.71875 1.703125 
L 7.71875 11.625 
Q 12.109375 9.234375 16.796875 8.0625 
Q 21.484375 6.890625 26.703125 6.890625 
Q 35.15625 6.890625 40.078125 11.328125 
Q 45.015625 15.765625 45.015625 23.390625 
Q 45.015625 31 40.078125 35.4375 
Q 35.15625 39.890625 26.703125 39.890625 
Q 22.75 39.890625 18.8125 39.015625 
Q 14.890625 38.140625 10.796875 36.28125 
z
" id="DejaVuSans-53"/>
       </defs>
       <use xlink:href="#DejaVuSans-53"/>
      </g>
     </g>
    </g>
    <g id="xtick_7">
     <g id="line2d_7">
      <g>
       <use style="stroke:#000000;stroke-width:0.8;" x="306.133333" xlink:href="#m0d5b99314e" y="252"/>
      </g>
     </g>
     <g id="text_7">
      <!-- 6 -->
      <g transform="translate(302.952083 266.598437)scale(0.1 -0.1)">
       <defs>
        <path d="M 33.015625 40.375 
Q 26.375 40.375 22.484375 35.828125 
Q 18.609375 31.296875 18.609375 23.390625 
Q 18.609375 15.53125 22.484375 10.953125 
Q 26.375 6.390625 33.015625 6.390625 
Q 39.65625 6.390625 43.53125 10.953125 
Q 47.40625 15.53125 47.40625 23.390625 
Q 47.40625 31.296875 43.53125 35.828125 
Q 39.65625 40.375 33.015625 40.375 
z
M 52.59375 71.296875 
L 52.59375 62.3125 
Q 48.875 64.0625 45.09375 64.984375 
Q 41.3125 65.921875 37.59375 65.921875 
Q 27.828125 65.921875 22.671875 59.328125 
Q 17.53125 52.734375 16.796875 39.40625 
Q 19.671875 43.65625 24.015625 45.921875 
Q 28.375 48.1875 33.59375 48.1875 
Q 44.578125 48.1875 50.953125 41.515625 
Q 57.328125 34.859375 57.328125 23.390625 
Q 57.328125 12.15625 50.6875 5.359375 
Q 44.046875 -1.421875 33.015625 -1.421875 
Q 20.359375 -1.421875 13.671875 8.265625 
Q 6.984375 17.96875 6.984375 36.375 
Q 6.984375 53.65625 15.1875 63.9375 
Q 23.390625 74.21875 37.203125 74.21875 
Q 40.921875 74.21875 44.703125 73.484375 
Q 48.484375 72.75 52.59375 71.296875 
z
" id="DejaVuSans-54"/>
       </defs>
       <use xlink:href="#DejaVuSans-54"/>
      </g>
     </g>
    </g>
    <g id="xtick_8">
     <g id="line2d_8">
      <g>
       <use style="stroke:#000000;stroke-width:0.8;" x="347.466667" xlink:href="#m0d5b99314e" y="252"/>
      </g>
     </g>
     <g id="text_8">
      <!-- 7 -->
      <g transform="translate(344.285417 266.598437)scale(0.1 -0.1)">
       <defs>
        <path d="M 8.203125 72.90625 
L 55.078125 72.90625 
L 55.078125 68.703125 
L 28.609375 0 
L 18.3125 0 
L 43.21875 64.59375 
L 8.203125 64.59375 
z
" id="DejaVuSans-55"/>
       </defs>
       <use xlink:href="#DejaVuSans-55"/>
      </g>
     </g>
    </g>
    <g id="xtick_9">
     <g id="line2d_9">
      <g>
       <use style="stroke:#000000;stroke-width:0.8;" x="388.8" xlink:href="#m0d5b99314e" y="252"/>
      </g>
     </g>
     <g id="text_9">
      <!-- 8 -->
      <g transform="translate(385.61875 266.598437)scale(0.1 -0.1)">
       <defs>
        <path d="M 31.78125 34.625 
Q 24.75 34.625 20.71875 30.859375 
Q 16.703125 27.09375 16.703125 20.515625 
Q 16.703125 13.921875 20.71875 10.15625 
Q 24.75 6.390625 31.78125 6.390625 
Q 38.8125 6.390625 42.859375 10.171875 
Q 46.921875 13.96875 46.921875 20.515625 
Q 46.921875 27.09375 42.890625 30.859375 
Q 38.875 34.625 31.78125 34.625 
z
M 21.921875 38.8125 
Q 15.578125 40.375 12.03125 44.71875 
Q 8.5 49.078125 8.5 55.328125 
Q 8.5 64.0625 14.71875 69.140625 
Q 20.953125 74.21875 31.78125 74.21875 
Q 42.671875 74.21875 48.875 69.140625 
Q 55.078125 64.0625 55.078125 55.328125 
Q 55.078125 49.078125 51.53125 44.71875 
Q 48 40.375 41.703125 38.8125 
Q 48.828125 37.15625 52.796875 32.3125 
Q 56.78125 27.484375 56.78125 20.515625 
Q 56.78125 9.90625 50.3125 4.234375 
Q 43.84375 -1.421875 31.78125 -1.421875 
Q 19.734375 -1.421875 13.25 4.234375 
Q 6.78125 9.90625 6.78125 20.515625 
Q 6.78125 27.484375 10.78125 32.3125 
Q 14.796875 37.15625 21.921875 38.8125 
z
M 18.3125 54.390625 
Q 18.3125 48.734375 21.84375 45.5625 
Q 25.390625 42.390625 31.78125 42.390625 
Q 38.140625 42.390625 41.71875 45.5625 
Q 45.3125 48.734375 45.3125 54.390625 
Q 45.3125 60.0625 41.71875 63.234375 
Q 38.140625 66.40625 31.78125 66.40625 
Q 25.390625 66.40625 21.84375 63.234375 
Q 18.3125 60.0625 18.3125 54.390625 
z
" id="DejaVuSans-56"/>
       </defs>
       <use xlink:href="#DejaVuSans-56"/>
      </g>
     </g>
    </g>
   </g>
   <g id="matplotlib.axis_2">
    <g id="ytick_1">
     <g id="line2d_10">
      <defs>
       <path d="M 0 0 
L -3.5 0 
" id="m5cbd500fea" style="stroke:#000000;stroke-width:0.8;"/>
      </defs>
      <g>
       <use style="stroke:#000000;stroke-width:0.8;" x="54" xlink:href="#m5cbd500fea" y="252"/>
      </g>
     </g>
     <g id="text_10">
      <!-- 0.0 -->
      <g transform="translate(31.096875 255.799219)scale(0.1 -0.1)">
       <defs>
        <path d="M 10.6875 12.40625 
L 21 12.40625 
L 21 0 
L 10.6875 0 
z
" id="DejaVuSans-46"/>
       </defs>
       <use xlink:href="#DejaVuSans-48"/>
       <use x="63.623047" xlink:href="#DejaVuSans-46"/>
       <use x="95.410156" xlink:href="#DejaVuSans-48"/>
      </g>
     </g>
    </g>
    <g id="ytick_2">
     <g id="line2d_11">
      <g>
       <use style="stroke:#000000;stroke-width:0.8;" x="54" xlink:href="#m5cbd500fea" y="209.604542"/>
      </g>
     </g>
     <g id="text_11">
      <!-- 0.2 -->
      <g transform="translate(31.096875 213.403761)scale(0.1 -0.1)">
       <use xlink:href="#DejaVuSans-48"/>
       <use x="63.623047" xlink:href="#DejaVuSans-46"/>
       <use x="95.410156" xlink:href="#DejaVuSans-50"/>
      </g>
     </g>
    </g>
    <g id="ytick_3">
     <g id="line2d_12">
      <g>
       <use style="stroke:#000000;stroke-width:0.8;" x="54" xlink:href="#m5cbd500fea" y="167.209084"/>
      </g>
     </g>
     <g id="text_12">
      <!-- 0.4 -->
      <g transform="translate(31.096875 171.008303)scale(0.1 -0.1)">
       <use xlink:href="#DejaVuSans-48"/>
       <use x="63.623047" xlink:href="#DejaVuSans-46"/>
       <use x="95.410156" xlink:href="#DejaVuSans-52"/>
      </g>
     </g>
    </g>
    <g id="ytick_4">
     <g id="line2d_13">
      <g>
       <use style="stroke:#000000;stroke-width:0.8;" x="54" xlink:href="#m5cbd500fea" y="124.813626"/>
      </g>
     </g>
     <g id="text_13">
      <!-- 0.6 -->
      <g transform="translate(31.096875 128.612844)scale(0.1 -0.1)">
       <use xlink:href="#DejaVuSans-48"/>
       <use x="63.623047" xlink:href="#DejaVuSans-46"/>
       <use x="95.410156" xlink:href="#DejaVuSans-54"/>
      </g>
     </g>
    </g>
    <g id="ytick_5">
     <g id="line2d_14">
      <g>
       <use style="stroke:#000000;stroke-width:0.8;" x="54" xlink:href="#m5cbd500fea" y="82.418168"/>
      </g>
     </g>
     <g id="text_14">
      <!-- 0.8 -->
      <g transform="translate(31.096875 86.217386)scale(0.1 -0.1)">
       <use xlink:href="#DejaVuSans-48"/>
       <use x="63.623047" xlink:href="#DejaVuSans-46"/>
       <use x="95.410156" xlink:href="#DejaVuSans-56"/>
      </g>
     </g>
    </g>
    <g id="ytick_6">
     <g id="line2d_15">
      <g>
       <use style="stroke:#000000;stroke-width:0.8;" x="54" xlink:href="#m5cbd500fea" y="40.022709"/>
      </g>
     </g>
     <g id="text_15">
      <!-- 1.0 -->
      <g transform="translate(31.096875 43.821928)scale(0.1 -0.1)">
       <use xlink:href="#DejaVuSans-49"/>
       <use x="63.623047" xlink:href="#DejaVuSans-46"/>
       <use x="95.410156" xlink:href="#DejaVuSans-48"/>
      </g>
     </g>
    </g>
    <g id="text_16">
     <!-- Counts -->
     <g transform="translate(25.017187 160.733125)rotate(-90)scale(0.1 -0.1)">
      <defs>
       <path d="M 64.40625 67.28125 
L 64.40625 56.890625 
Q 59.421875 61.53125 53.78125 63.8125 
Q 48.140625 66.109375 41.796875 66.109375 
Q 29.296875 66.109375 22.65625 58.46875 
Q 16.015625 50.828125 16.015625 36.375 
Q 16.015625 21.96875 22.65625 14.328125 
Q 29.296875 6.6875 41.796875 6.6875 
Q 48.140625 6.6875 53.78125 8.984375 
Q 59.421875 11.28125 64.40625 15.921875 
L 64.40625 5.609375 
Q 59.234375 2.09375 53.4375 0.328125 
Q 47.65625 -1.421875 41.21875 -1.421875 
Q 24.65625 -1.421875 15.125 8.703125 
Q 5.609375 18.84375 5.609375 36.375 
Q 5.609375 53.953125 15.125 64.078125 
Q 24.65625 74.21875 41.21875 74.21875 
Q 47.75 74.21875 53.53125 72.484375 
Q 59.328125 70.75 64.40625 67.28125 
z
" id="DejaVuSans-67"/>
       <path d="M 30.609375 48.390625 
Q 23.390625 48.390625 19.1875 42.75 
Q 14.984375 37.109375 14.984375 27.296875 
Q 14.984375 17.484375 19.15625 11.84375 
Q 23.34375 6.203125 30.609375 6.203125 
Q 37.796875 6.203125 41.984375 11.859375 
Q 46.1875 17.53125 46.1875 27.296875 
Q 46.1875 37.015625 41.984375 42.703125 
Q 37.796875 48.390625 30.609375 48.390625 
z
M 30.609375 56 
Q 42.328125 56 49.015625 48.375 
Q 55.71875 40.765625 55.71875 27.296875 
Q 55.71875 13.875 49.015625 6.21875 
Q 42.328125 -1.421875 30.609375 -1.421875 
Q 18.84375 -1.421875 12.171875 6.21875 
Q 5.515625 13.875 5.515625 27.296875 
Q 5.515625 40.765625 12.171875 48.375 
Q 18.84375 56 30.609375 56 
z
" id="DejaVuSans-111"/>
       <path d="M 8.5 21.578125 
L 8.5 54.6875 
L 17.484375 54.6875 
L 17.484375 21.921875 
Q 17.484375 14.15625 20.5 10.265625 
Q 23.53125 6.390625 29.59375 6.390625 
Q 36.859375 6.390625 41.078125 11.03125 
Q 45.3125 15.671875 45.3125 23.6875 
L 45.3125 54.6875 
L 54.296875 54.6875 
L 54.296875 0 
L 45.3125 0 
L 45.3125 8.40625 
Q 42.046875 3.421875 37.71875 1 
Q 33.40625 -1.421875 27.6875 -1.421875 
Q 18.265625 -1.421875 13.375 4.4375 
Q 8.5 10.296875 8.5 21.578125 
z
M 31.109375 56 
z
" id="DejaVuSans-117"/>
       <path d="M 54.890625 33.015625 
L 54.890625 0 
L 45.90625 0 
L 45.90625 32.71875 
Q 45.90625 40.484375 42.875 44.328125 
Q 39.84375 48.1875 33.796875 48.1875 
Q 26.515625 48.1875 22.3125 43.546875 
Q 18.109375 38.921875 18.109375 30.90625 
L 18.109375 0 
L 9.078125 0 
L 9.078125 54.6875 
L 18.109375 54.6875 
L 18.109375 46.1875 
Q 21.34375 51.125 25.703125 53.5625 
Q 30.078125 56 35.796875 56 
Q 45.21875 56 50.046875 50.171875 
Q 54.890625 44.34375 54.890625 33.015625 
z
" id="DejaVuSans-110"/>
       <path d="M 18.3125 70.21875 
L 18.3125 54.6875 
L 36.8125 54.6875 
L 36.8125 47.703125 
L 18.3125 47.703125 
L 18.3125 18.015625 
Q 18.3125 11.328125 20.140625 9.421875 
Q 21.96875 7.515625 27.59375 7.515625 
L 36.8125 7.515625 
L 36.8125 0 
L 27.59375 0 
Q 17.1875 0 13.234375 3.875 
Q 9.28125 7.765625 9.28125 18.015625 
L 9.28125 47.703125 
L 2.6875 47.703125 
L 2.6875 54.6875 
L 9.28125 54.6875 
L 9.28125 70.21875 
z
" id="DejaVuSans-116"/>
       <path d="M 44.28125 53.078125 
L 44.28125 44.578125 
Q 40.484375 46.53125 36.375 47.5 
Q 32.28125 48.484375 27.875 48.484375 
Q 21.1875 48.484375 17.84375 46.4375 
Q 14.5 44.390625 14.5 40.28125 
Q 14.5 37.15625 16.890625 35.375 
Q 19.28125 33.59375 26.515625 31.984375 
L 29.59375 31.296875 
Q 39.15625 29.25 43.1875 25.515625 
Q 47.21875 21.78125 47.21875 15.09375 
Q 47.21875 7.46875 41.1875 3.015625 
Q 35.15625 -1.421875 24.609375 -1.421875 
Q 20.21875 -1.421875 15.453125 -0.5625 
Q 10.6875 0.296875 5.421875 2 
L 5.421875 11.28125 
Q 10.40625 8.6875 15.234375 7.390625 
Q 20.0625 6.109375 24.8125 6.109375 
Q 31.15625 6.109375 34.5625 8.28125 
Q 37.984375 10.453125 37.984375 14.40625 
Q 37.984375 18.0625 35.515625 20.015625 
Q 33.0625 21.96875 24.703125 23.78125 
L 21.578125 24.515625 
Q 13.234375 26.265625 9.515625 29.90625 
Q 5.8125 33.546875 5.8125 39.890625 
Q 5.8125 47.609375 11.28125 51.796875 
Q 16.75 56 26.8125 56 
Q 31.78125 56 36.171875 55.265625 
Q 40.578125 54.546875 44.28125 53.078125 
z
" id="DejaVuSans-115"/>
      </defs>
      <use xlink:href="#DejaVuSans-67"/>
      <use x="69.824219" xlink:href="#DejaVuSans-111"/>
      <use x="131.005859" xlink:href="#DejaVuSans-117"/>
      <use x="194.384766" xlink:href="#DejaVuSans-110"/>
      <use x="257.763672" xlink:href="#DejaVuSans-116"/>
      <use x="296.972656" xlink:href="#DejaVuSans-115"/>
     </g>
    </g>
   </g>
   <g id="line2d_16">
    <path clip-path="url(#pfd3e2d9d84)" d="M 62.257723 249.527411 
L 65.994724 235.671854 
L 69.731724 207.475426 
L 73.468725 169.460165 
L 77.205725 129.185925 
L 80.942726 93.679901 
L 84.679726 67.65277 
L 88.416726 53.134636 
L 92.153727 49.922485 
L 95.890727 56.336494 
L 99.627728 69.968654 
L 103.364728 88.270335 
L 107.101729 108.936461 
L 110.838729 130.105728 
L 114.57573 150.422102 
L 118.31273 169.006565 
L 122.04973 185.380829 
L 125.786731 199.373489 
L 129.523731 211.028164 
L 133.260732 220.524208 
L 136.997732 228.114205 
L 140.734733 234.078448 
L 144.471733 238.694364 
L 148.208734 242.217964 
L 151.945734 244.874247 
L 155.682734 246.853823 
L 159.419735 248.313534 
L 163.156735 249.379379 
L 166.893736 250.150541 
L 170.630736 250.703736 
L 174.367737 251.097396 
L 178.104737 251.375416 
L 181.841738 251.570367 
L 185.578738 251.706147 
L 189.315739 251.800109 
L 193.052739 251.864736 
L 196.789739 251.908927 
L 200.52674 251.938977 
L 204.26374 251.959302 
L 208.000741 251.972979 
L 211.737741 251.982137 
L 215.474742 251.988241 
L 219.211742 251.99229 
L 222.948743 251.994965 
L 226.685743 251.996724 
L 230.422743 251.997877 
L 234.159744 251.998629 
L 237.896744 251.999117 
L 241.633745 251.999434 
L 245.370745 251.999638 
L 249.107746 251.999769 
L 252.844746 251.999853 
L 256.581747 251.999907 
L 260.318747 251.999941 
L 264.055747 251.999963 
L 267.792748 251.999977 
L 271.529748 251.999985 
L 275.266749 251.999991 
L 279.003749 251.999994 
L 282.74075 251.999996 
L 286.47775 251.999998 
L 290.214751 251.999999 
L 293.951751 251.999999 
L 297.688751 251.999999 
L 301.425752 252 
L 305.162752 252 
L 308.899753 252 
L 312.636753 252 
L 316.373754 252 
L 320.110754 252 
L 323.847755 252 
L 327.584755 252 
L 331.321755 252 
L 335.058756 252 
L 338.795756 252 
L 342.532757 252 
L 346.269757 252 
L 350.006758 252 
L 353.743758 252 
L 357.480759 252 
L 361.217759 252 
L 364.954759 252 
L 368.69176 252 
L 372.42876 252 
L 376.165761 252 
L 379.902761 252 
L 383.639762 252 
L 387.376762 252 
L 391.113763 252 
L 394.850763 252 
L 398.587764 252 
L 402.324764 252 
L 406.061764 252 
L 409.798765 252 
L 413.535765 252 
L 417.272766 252 
L 421.009766 252 
L 424.746767 252 
L 428.483767 252 
L 432.220768 252 
" style="fill:none;stroke:#ff0000;stroke-linecap:square;stroke-width:1.5;"/>
   </g>
   <g id="patch_103">
    <path d="M 54 252 
L 54 34.56 
" style="fill:none;stroke:#000000;stroke-linecap:square;stroke-linejoin:miter;stroke-width:0.8;"/>
   </g>
   <g id="patch_104">
    <path d="M 388.8 252 
L 388.8 34.56 
" style="fill:none;stroke:#000000;stroke-linecap:square;stroke-linejoin:miter;stroke-width:0.8;"/>
   </g>
   <g id="patch_105">
    <path d="M 54 252 
L 388.8 252 
" style="fill:none;stroke:#000000;stroke-linecap:square;stroke-linejoin:miter;stroke-width:0.8;"/>
   </g>
   <g id="patch_106">
    <path d="M 54 34.56 
L 388.8 34.56 
" style="fill:none;stroke:#000000;stroke-linecap:square;stroke-linejoin:miter;stroke-width:0.8;"/>
   </g>
   <g id="text_17">
    <!-- $P(s)=a\,s^b\,\exp(-c\,s^d)$ -->
    <g transform="translate(223.466667 125.590479)scale(0.15 -0.15)">
     <defs>
      <path d="M 16.890625 72.90625 
L 39.703125 72.90625 
Q 49.65625 72.90625 54.875 68.265625 
Q 60.109375 63.625 60.109375 54.6875 
Q 60.109375 42.671875 52.390625 35.984375 
Q 44.671875 29.296875 30.71875 29.296875 
L 18.3125 29.296875 
L 12.59375 0 
L 2.6875 0 
z
M 25.203125 64.796875 
L 19.921875 37.40625 
L 32.328125 37.40625 
Q 40.71875 37.40625 45.203125 41.703125 
Q 49.703125 46 49.703125 54 
Q 49.703125 59.125 46.65625 61.953125 
Q 43.609375 64.796875 38.09375 64.796875 
z
" id="DejaVuSans-Oblique-80"/>
      <path d="M 31 75.875 
Q 24.46875 64.65625 21.28125 53.65625 
Q 18.109375 42.671875 18.109375 31.390625 
Q 18.109375 20.125 21.3125 9.0625 
Q 24.515625 -2 31 -13.1875 
L 23.1875 -13.1875 
Q 15.875 -1.703125 12.234375 9.375 
Q 8.59375 20.453125 8.59375 31.390625 
Q 8.59375 42.28125 12.203125 53.3125 
Q 15.828125 64.359375 23.1875 75.875 
z
" id="DejaVuSans-40"/>
      <path d="M 50 53.078125 
L 48.296875 44.578125 
Q 44.734375 46.53125 40.765625 47.5 
Q 36.8125 48.484375 32.625 48.484375 
Q 25.53125 48.484375 21.453125 46.0625 
Q 17.390625 43.65625 17.390625 39.5 
Q 17.390625 34.671875 26.859375 32.078125 
Q 27.59375 31.890625 27.9375 31.78125 
L 30.8125 30.90625 
Q 39.796875 28.421875 42.796875 25.6875 
Q 45.796875 22.953125 45.796875 18.21875 
Q 45.796875 9.515625 38.890625 4.046875 
Q 31.984375 -1.421875 20.796875 -1.421875 
Q 16.453125 -1.421875 11.671875 -0.578125 
Q 6.890625 0.25 1.125 2 
L 2.875 11.28125 
Q 7.8125 8.734375 12.59375 7.421875 
Q 17.390625 6.109375 21.78125 6.109375 
Q 28.375 6.109375 32.5 8.9375 
Q 36.625 11.765625 36.625 16.109375 
Q 36.625 20.796875 25.78125 23.6875 
L 24.859375 23.921875 
L 21.78125 24.703125 
Q 14.9375 26.515625 11.765625 29.46875 
Q 8.59375 32.421875 8.59375 37.015625 
Q 8.59375 45.75 15.15625 50.875 
Q 21.734375 56 33.015625 56 
Q 37.453125 56 41.671875 55.265625 
Q 45.90625 54.546875 50 53.078125 
z
" id="DejaVuSans-Oblique-115"/>
      <path d="M 8.015625 75.875 
L 15.828125 75.875 
Q 23.140625 64.359375 26.78125 53.3125 
Q 30.421875 42.28125 30.421875 31.390625 
Q 30.421875 20.453125 26.78125 9.375 
Q 23.140625 -1.703125 15.828125 -13.1875 
L 8.015625 -13.1875 
Q 14.5 -2 17.703125 9.0625 
Q 20.90625 20.125 20.90625 31.390625 
Q 20.90625 42.671875 17.703125 53.65625 
Q 14.5 64.65625 8.015625 75.875 
z
" id="DejaVuSans-41"/>
      <path d="M 10.59375 45.40625 
L 73.1875 45.40625 
L 73.1875 37.203125 
L 10.59375 37.203125 
z
M 10.59375 25.484375 
L 73.1875 25.484375 
L 73.1875 17.1875 
L 10.59375 17.1875 
z
" id="DejaVuSans-61"/>
      <path d="M 53.71875 31.203125 
L 47.609375 0 
L 38.625 0 
L 40.28125 8.296875 
Q 36.328125 3.421875 31.265625 1 
Q 26.21875 -1.421875 20.015625 -1.421875 
Q 13.03125 -1.421875 8.5625 2.84375 
Q 4.109375 7.125 4.109375 13.8125 
Q 4.109375 23.390625 11.75 28.953125 
Q 19.390625 34.515625 32.8125 34.515625 
L 45.3125 34.515625 
L 45.796875 36.921875 
Q 45.90625 37.3125 45.953125 37.765625 
Q 46 38.234375 46 39.203125 
Q 46 43.5625 42.453125 45.96875 
Q 38.921875 48.390625 32.515625 48.390625 
Q 28.125 48.390625 23.5 47.265625 
Q 18.890625 46.140625 14.015625 43.890625 
L 15.578125 52.203125 
Q 20.65625 54.109375 25.515625 55.046875 
Q 30.375 56 34.90625 56 
Q 44.578125 56 49.625 51.796875 
Q 54.6875 47.609375 54.6875 39.59375 
Q 54.6875 37.984375 54.4375 35.8125 
Q 54.203125 33.640625 53.71875 31.203125 
z
M 44 27.484375 
L 35.015625 27.484375 
Q 23.96875 27.484375 18.671875 24.53125 
Q 13.375 21.578125 13.375 15.375 
Q 13.375 11.078125 16.078125 8.640625 
Q 18.796875 6.203125 23.578125 6.203125 
Q 30.90625 6.203125 36.375 11.453125 
Q 41.84375 16.703125 43.609375 25.484375 
z
" id="DejaVuSans-Oblique-97"/>
      <path d="M 49.515625 33.40625 
Q 49.515625 40.484375 46.265625 44.484375 
Q 43.015625 48.484375 37.3125 48.484375 
Q 33.15625 48.484375 29.515625 46.453125 
Q 25.875 44.4375 23.1875 40.578125 
Q 20.359375 36.53125 18.71875 31.171875 
Q 17.09375 25.828125 17.09375 20.515625 
Q 17.09375 13.765625 20.28125 9.9375 
Q 23.484375 6.109375 29.109375 6.109375 
Q 33.34375 6.109375 36.953125 8.078125 
Q 40.578125 10.0625 43.3125 13.921875 
Q 46.09375 17.921875 47.796875 23.234375 
Q 49.515625 28.5625 49.515625 33.40625 
z
M 21.578125 46.390625 
Q 24.90625 50.875 29.90625 53.4375 
Q 34.90625 56 40.375 56 
Q 48.78125 56 53.734375 50.328125 
Q 58.6875 44.671875 58.6875 35.015625 
Q 58.6875 27.09375 55.78125 19.671875 
Q 52.875 12.25 47.515625 6.5 
Q 44 2.6875 39.40625 0.625 
Q 34.8125 -1.421875 29.78125 -1.421875 
Q 24.46875 -1.421875 20.5625 1.015625 
Q 16.65625 3.46875 14.203125 8.296875 
L 12.59375 0 
L 3.609375 0 
L 18.40625 75.984375 
L 27.390625 75.984375 
z
" id="DejaVuSans-Oblique-98"/>
      <path d="M 56.203125 29.59375 
L 56.203125 25.203125 
L 14.890625 25.203125 
Q 15.484375 15.921875 20.484375 11.0625 
Q 25.484375 6.203125 34.421875 6.203125 
Q 39.59375 6.203125 44.453125 7.46875 
Q 49.3125 8.734375 54.109375 11.28125 
L 54.109375 2.78125 
Q 49.265625 0.734375 44.1875 -0.34375 
Q 39.109375 -1.421875 33.890625 -1.421875 
Q 20.796875 -1.421875 13.15625 6.1875 
Q 5.515625 13.8125 5.515625 26.8125 
Q 5.515625 40.234375 12.765625 48.109375 
Q 20.015625 56 32.328125 56 
Q 43.359375 56 49.78125 48.890625 
Q 56.203125 41.796875 56.203125 29.59375 
z
M 47.21875 32.234375 
Q 47.125 39.59375 43.09375 43.984375 
Q 39.0625 48.390625 32.421875 48.390625 
Q 24.90625 48.390625 20.390625 44.140625 
Q 15.875 39.890625 15.1875 32.171875 
z
" id="DejaVuSans-101"/>
      <path d="M 54.890625 54.6875 
L 35.109375 28.078125 
L 55.90625 0 
L 45.3125 0 
L 29.390625 21.484375 
L 13.484375 0 
L 2.875 0 
L 24.125 28.609375 
L 4.6875 54.6875 
L 15.28125 54.6875 
L 29.78125 35.203125 
L 44.28125 54.6875 
z
" id="DejaVuSans-120"/>
      <path d="M 18.109375 8.203125 
L 18.109375 -20.796875 
L 9.078125 -20.796875 
L 9.078125 54.6875 
L 18.109375 54.6875 
L 18.109375 46.390625 
Q 20.953125 51.265625 25.265625 53.625 
Q 29.59375 56 35.59375 56 
Q 45.5625 56 51.78125 48.09375 
Q 58.015625 40.1875 58.015625 27.296875 
Q 58.015625 14.40625 51.78125 6.484375 
Q 45.5625 -1.421875 35.59375 -1.421875 
Q 29.59375 -1.421875 25.265625 0.953125 
Q 20.953125 3.328125 18.109375 8.203125 
z
M 48.6875 27.296875 
Q 48.6875 37.203125 44.609375 42.84375 
Q 40.53125 48.484375 33.40625 48.484375 
Q 26.265625 48.484375 22.1875 42.84375 
Q 18.109375 37.203125 18.109375 27.296875 
Q 18.109375 17.390625 22.1875 11.75 
Q 26.265625 6.109375 33.40625 6.109375 
Q 40.53125 6.109375 44.609375 11.75 
Q 48.6875 17.390625 48.6875 27.296875 
z
" id="DejaVuSans-112"/>
      <path d="M 10.59375 35.5 
L 73.1875 35.5 
L 73.1875 27.203125 
L 10.59375 27.203125 
z
" id="DejaVuSans-8722"/>
      <path d="M 53.609375 52.59375 
L 51.8125 43.703125 
Q 48.578125 46.046875 44.9375 47.21875 
Q 41.3125 48.390625 37.40625 48.390625 
Q 33.109375 48.390625 29.21875 46.875 
Q 25.34375 45.359375 22.703125 42.578125 
Q 18.5 38.328125 16.203125 32.609375 
Q 13.921875 26.90625 13.921875 20.796875 
Q 13.921875 13.421875 17.609375 9.8125 
Q 21.296875 6.203125 28.8125 6.203125 
Q 32.515625 6.203125 36.6875 7.328125 
Q 40.875 8.453125 45.40625 10.6875 
L 43.703125 1.8125 
Q 39.796875 0.203125 35.671875 -0.609375 
Q 31.546875 -1.421875 27.203125 -1.421875 
Q 16.3125 -1.421875 10.453125 4.015625 
Q 4.59375 9.46875 4.59375 19.578125 
Q 4.59375 28.078125 7.640625 35.234375 
Q 10.6875 42.390625 16.703125 48.09375 
Q 20.796875 52 26.3125 54 
Q 31.84375 56 38.375 56 
Q 42.1875 56 45.9375 55.140625 
Q 49.703125 54.296875 53.609375 52.59375 
z
" id="DejaVuSans-Oblique-99"/>
      <path d="M 41.796875 8.203125 
Q 38.1875 3.46875 33.25 1.015625 
Q 28.328125 -1.421875 22.3125 -1.421875 
Q 14.109375 -1.421875 9.34375 4.171875 
Q 4.59375 9.765625 4.59375 19.484375 
Q 4.59375 27.59375 7.46875 34.9375 
Q 10.359375 42.28125 15.828125 48.09375 
Q 19.4375 51.953125 23.96875 53.96875 
Q 28.515625 56 33.5 56 
Q 38.765625 56 42.796875 53.453125 
Q 46.828125 50.921875 49.03125 46.1875 
L 54.890625 75.984375 
L 63.921875 75.984375 
L 49.125 0 
L 40.09375 0 
z
M 13.921875 21.09375 
Q 13.921875 14.015625 17.109375 10.0625 
Q 20.3125 6.109375 25.984375 6.109375 
Q 30.171875 6.109375 33.765625 8.125 
Q 37.359375 10.15625 40.09375 14.109375 
Q 42.96875 18.21875 44.625 23.578125 
Q 46.296875 28.953125 46.296875 34.1875 
Q 46.296875 40.96875 43.09375 44.765625 
Q 39.890625 48.578125 34.28125 48.578125 
Q 30.03125 48.578125 26.359375 46.578125 
Q 22.703125 44.578125 20.125 40.828125 
Q 17.28125 36.765625 15.59375 31.390625 
Q 13.921875 26.03125 13.921875 21.09375 
z
" id="DejaVuSans-Oblique-100"/>
     </defs>
     <use transform="translate(0 0.529687)" xlink:href="#DejaVuSans-Oblique-80"/>
     <use transform="translate(60.302734 0.529687)" xlink:href="#DejaVuSans-40"/>
     <use transform="translate(99.316406 0.529687)" xlink:href="#DejaVuSans-Oblique-115"/>
     <use transform="translate(151.416016 0.529687)" xlink:href="#DejaVuSans-41"/>
     <use transform="translate(209.912109 0.529687)" xlink:href="#DejaVuSans-61"/>
     <use transform="translate(313.183594 0.529687)" xlink:href="#DejaVuSans-Oblique-97"/>
     <use transform="translate(390.698567 0.529687)" xlink:href="#DejaVuSans-Oblique-115"/>
     <use transform="translate(447.448072 38.810937)scale(0.7)" xlink:href="#DejaVuSans-Oblique-98"/>
     <use transform="translate(510.851717 0.529687)" xlink:href="#DejaVuSans-101"/>
     <use transform="translate(572.375155 0.529687)" xlink:href="#DejaVuSans-120"/>
     <use transform="translate(631.554842 0.529687)" xlink:href="#DejaVuSans-112"/>
     <use transform="translate(695.031405 0.529687)" xlink:href="#DejaVuSans-40"/>
     <use transform="translate(734.045076 0.529687)" xlink:href="#DejaVuSans-8722"/>
     <use transform="translate(817.834139 0.529687)" xlink:href="#DejaVuSans-Oblique-99"/>
     <use transform="translate(889.050284 0.529687)" xlink:href="#DejaVuSans-Oblique-115"/>
     <use transform="translate(945.799789 38.810937)scale(0.7)" xlink:href="#DejaVuSans-Oblique-100"/>
     <use transform="translate(992.967758 0.529687)" xlink:href="#DejaVuSans-41"/>
    </g>
    <!--  -->
    <g transform="translate(223.466667 142.417667)scale(0.15 -0.15)"/>
    <!-- a =33.603 -->
    <g transform="translate(223.466667 159.214386)scale(0.15 -0.15)">
     <defs>
      <path d="M 34.28125 27.484375 
Q 23.390625 27.484375 19.1875 25 
Q 14.984375 22.515625 14.984375 16.5 
Q 14.984375 11.71875 18.140625 8.90625 
Q 21.296875 6.109375 26.703125 6.109375 
Q 34.1875 6.109375 38.703125 11.40625 
Q 43.21875 16.703125 43.21875 25.484375 
L 43.21875 27.484375 
z
M 52.203125 31.203125 
L 52.203125 0 
L 43.21875 0 
L 43.21875 8.296875 
Q 40.140625 3.328125 35.546875 0.953125 
Q 30.953125 -1.421875 24.3125 -1.421875 
Q 15.921875 -1.421875 10.953125 3.296875 
Q 6 8.015625 6 15.921875 
Q 6 25.140625 12.171875 29.828125 
Q 18.359375 34.515625 30.609375 34.515625 
L 43.21875 34.515625 
L 43.21875 35.40625 
Q 43.21875 41.609375 39.140625 45 
Q 35.0625 48.390625 27.6875 48.390625 
Q 23 48.390625 18.546875 47.265625 
Q 14.109375 46.140625 10.015625 43.890625 
L 10.015625 52.203125 
Q 14.9375 54.109375 19.578125 55.046875 
Q 24.21875 56 28.609375 56 
Q 40.484375 56 46.34375 49.84375 
Q 52.203125 43.703125 52.203125 31.203125 
z
" id="DejaVuSans-97"/>
      <path id="DejaVuSans-32"/>
     </defs>
     <use xlink:href="#DejaVuSans-97"/>
     <use x="61.279297" xlink:href="#DejaVuSans-32"/>
     <use x="93.066406" xlink:href="#DejaVuSans-61"/>
     <use x="176.855469" xlink:href="#DejaVuSans-51"/>
     <use x="240.478516" xlink:href="#DejaVuSans-51"/>
     <use x="304.101562" xlink:href="#DejaVuSans-46"/>
     <use x="335.888672" xlink:href="#DejaVuSans-54"/>
     <use x="399.511719" xlink:href="#DejaVuSans-48"/>
     <use x="463.134766" xlink:href="#DejaVuSans-51"/>
    </g>
    <!-- b =3.3521 -->
    <g transform="translate(223.466667 176.011104)scale(0.15 -0.15)">
     <defs>
      <path d="M 48.6875 27.296875 
Q 48.6875 37.203125 44.609375 42.84375 
Q 40.53125 48.484375 33.40625 48.484375 
Q 26.265625 48.484375 22.1875 42.84375 
Q 18.109375 37.203125 18.109375 27.296875 
Q 18.109375 17.390625 22.1875 11.75 
Q 26.265625 6.109375 33.40625 6.109375 
Q 40.53125 6.109375 44.609375 11.75 
Q 48.6875 17.390625 48.6875 27.296875 
z
M 18.109375 46.390625 
Q 20.953125 51.265625 25.265625 53.625 
Q 29.59375 56 35.59375 56 
Q 45.5625 56 51.78125 48.09375 
Q 58.015625 40.1875 58.015625 27.296875 
Q 58.015625 14.40625 51.78125 6.484375 
Q 45.5625 -1.421875 35.59375 -1.421875 
Q 29.59375 -1.421875 25.265625 0.953125 
Q 20.953125 3.328125 18.109375 8.203125 
L 18.109375 0 
L 9.078125 0 
L 9.078125 75.984375 
L 18.109375 75.984375 
z
" id="DejaVuSans-98"/>
     </defs>
     <use xlink:href="#DejaVuSans-98"/>
     <use x="63.476562" xlink:href="#DejaVuSans-32"/>
     <use x="95.263672" xlink:href="#DejaVuSans-61"/>
     <use x="179.052734" xlink:href="#DejaVuSans-51"/>
     <use x="242.675781" xlink:href="#DejaVuSans-46"/>
     <use x="274.462891" xlink:href="#DejaVuSans-51"/>
     <use x="338.085938" xlink:href="#DejaVuSans-53"/>
     <use x="401.708984" xlink:href="#DejaVuSans-50"/>
     <use x="465.332031" xlink:href="#DejaVuSans-49"/>
    </g>
    <!-- c =3.6631 -->
    <g transform="translate(223.466667 192.807823)scale(0.15 -0.15)">
     <defs>
      <path d="M 48.78125 52.59375 
L 48.78125 44.1875 
Q 44.96875 46.296875 41.140625 47.34375 
Q 37.3125 48.390625 33.40625 48.390625 
Q 24.65625 48.390625 19.8125 42.84375 
Q 14.984375 37.3125 14.984375 27.296875 
Q 14.984375 17.28125 19.8125 11.734375 
Q 24.65625 6.203125 33.40625 6.203125 
Q 37.3125 6.203125 41.140625 7.25 
Q 44.96875 8.296875 48.78125 10.40625 
L 48.78125 2.09375 
Q 45.015625 0.34375 40.984375 -0.53125 
Q 36.96875 -1.421875 32.421875 -1.421875 
Q 20.0625 -1.421875 12.78125 6.34375 
Q 5.515625 14.109375 5.515625 27.296875 
Q 5.515625 40.671875 12.859375 48.328125 
Q 20.21875 56 33.015625 56 
Q 37.15625 56 41.109375 55.140625 
Q 45.0625 54.296875 48.78125 52.59375 
z
" id="DejaVuSans-99"/>
     </defs>
     <use xlink:href="#DejaVuSans-99"/>
     <use x="54.980469" xlink:href="#DejaVuSans-32"/>
     <use x="86.767578" xlink:href="#DejaVuSans-61"/>
     <use x="170.556641" xlink:href="#DejaVuSans-51"/>
     <use x="234.179688" xlink:href="#DejaVuSans-46"/>
     <use x="265.966797" xlink:href="#DejaVuSans-54"/>
     <use x="329.589844" xlink:href="#DejaVuSans-54"/>
     <use x="393.212891" xlink:href="#DejaVuSans-51"/>
     <use x="456.835938" xlink:href="#DejaVuSans-49"/>
    </g>
    <!-- d =1.1824 -->
    <g transform="translate(223.466667 209.604542)scale(0.15 -0.15)">
     <defs>
      <path d="M 45.40625 46.390625 
L 45.40625 75.984375 
L 54.390625 75.984375 
L 54.390625 0 
L 45.40625 0 
L 45.40625 8.203125 
Q 42.578125 3.328125 38.25 0.953125 
Q 33.9375 -1.421875 27.875 -1.421875 
Q 17.96875 -1.421875 11.734375 6.484375 
Q 5.515625 14.40625 5.515625 27.296875 
Q 5.515625 40.1875 11.734375 48.09375 
Q 17.96875 56 27.875 56 
Q 33.9375 56 38.25 53.625 
Q 42.578125 51.265625 45.40625 46.390625 
z
M 14.796875 27.296875 
Q 14.796875 17.390625 18.875 11.75 
Q 22.953125 6.109375 30.078125 6.109375 
Q 37.203125 6.109375 41.296875 11.75 
Q 45.40625 17.390625 45.40625 27.296875 
Q 45.40625 37.203125 41.296875 42.84375 
Q 37.203125 48.484375 30.078125 48.484375 
Q 22.953125 48.484375 18.875 42.84375 
Q 14.796875 37.203125 14.796875 27.296875 
z
" id="DejaVuSans-100"/>
     </defs>
     <use xlink:href="#DejaVuSans-100"/>
     <use x="63.476562" xlink:href="#DejaVuSans-32"/>
     <use x="95.263672" xlink:href="#DejaVuSans-61"/>
     <use x="179.052734" xlink:href="#DejaVuSans-49"/>
     <use x="242.675781" xlink:href="#DejaVuSans-46"/>
     <use x="274.462891" xlink:href="#DejaVuSans-49"/>
     <use x="338.085938" xlink:href="#DejaVuSans-56"/>
     <use x="401.708984" xlink:href="#DejaVuSans-50"/>
     <use x="465.332031" xlink:href="#DejaVuSans-52"/>
    </g>
   </g>
   <g id="text_18">
    <!-- Normalized spacings of random hermitian matrices -->
    <g transform="translate(16.175 28.56)scale(0.16 -0.16)">
     <defs>
      <path d="M 9.8125 72.90625 
L 23.09375 72.90625 
L 55.421875 11.921875 
L 55.421875 72.90625 
L 64.984375 72.90625 
L 64.984375 0 
L 51.703125 0 
L 19.390625 60.984375 
L 19.390625 0 
L 9.8125 0 
z
" id="DejaVuSans-78"/>
      <path d="M 41.109375 46.296875 
Q 39.59375 47.171875 37.8125 47.578125 
Q 36.03125 48 33.890625 48 
Q 26.265625 48 22.1875 43.046875 
Q 18.109375 38.09375 18.109375 28.8125 
L 18.109375 0 
L 9.078125 0 
L 9.078125 54.6875 
L 18.109375 54.6875 
L 18.109375 46.1875 
Q 20.953125 51.171875 25.484375 53.578125 
Q 30.03125 56 36.53125 56 
Q 37.453125 56 38.578125 55.875 
Q 39.703125 55.765625 41.0625 55.515625 
z
" id="DejaVuSans-114"/>
      <path d="M 52 44.1875 
Q 55.375 50.25 60.0625 53.125 
Q 64.75 56 71.09375 56 
Q 79.640625 56 84.28125 50.015625 
Q 88.921875 44.046875 88.921875 33.015625 
L 88.921875 0 
L 79.890625 0 
L 79.890625 32.71875 
Q 79.890625 40.578125 77.09375 44.375 
Q 74.3125 48.1875 68.609375 48.1875 
Q 61.625 48.1875 57.5625 43.546875 
Q 53.515625 38.921875 53.515625 30.90625 
L 53.515625 0 
L 44.484375 0 
L 44.484375 32.71875 
Q 44.484375 40.625 41.703125 44.40625 
Q 38.921875 48.1875 33.109375 48.1875 
Q 26.21875 48.1875 22.15625 43.53125 
Q 18.109375 38.875 18.109375 30.90625 
L 18.109375 0 
L 9.078125 0 
L 9.078125 54.6875 
L 18.109375 54.6875 
L 18.109375 46.1875 
Q 21.1875 51.21875 25.484375 53.609375 
Q 29.78125 56 35.6875 56 
Q 41.65625 56 45.828125 52.96875 
Q 50 49.953125 52 44.1875 
z
" id="DejaVuSans-109"/>
      <path d="M 9.421875 75.984375 
L 18.40625 75.984375 
L 18.40625 0 
L 9.421875 0 
z
" id="DejaVuSans-108"/>
      <path d="M 9.421875 54.6875 
L 18.40625 54.6875 
L 18.40625 0 
L 9.421875 0 
z
M 9.421875 75.984375 
L 18.40625 75.984375 
L 18.40625 64.59375 
L 9.421875 64.59375 
z
" id="DejaVuSans-105"/>
      <path d="M 5.515625 54.6875 
L 48.1875 54.6875 
L 48.1875 46.484375 
L 14.40625 7.171875 
L 48.1875 7.171875 
L 48.1875 0 
L 4.296875 0 
L 4.296875 8.203125 
L 38.09375 47.515625 
L 5.515625 47.515625 
z
" id="DejaVuSans-122"/>
      <path d="M 45.40625 27.984375 
Q 45.40625 37.75 41.375 43.109375 
Q 37.359375 48.484375 30.078125 48.484375 
Q 22.859375 48.484375 18.828125 43.109375 
Q 14.796875 37.75 14.796875 27.984375 
Q 14.796875 18.265625 18.828125 12.890625 
Q 22.859375 7.515625 30.078125 7.515625 
Q 37.359375 7.515625 41.375 12.890625 
Q 45.40625 18.265625 45.40625 27.984375 
z
M 54.390625 6.78125 
Q 54.390625 -7.171875 48.1875 -13.984375 
Q 42 -20.796875 29.203125 -20.796875 
Q 24.46875 -20.796875 20.265625 -20.09375 
Q 16.0625 -19.390625 12.109375 -17.921875 
L 12.109375 -9.1875 
Q 16.0625 -11.328125 19.921875 -12.34375 
Q 23.78125 -13.375 27.78125 -13.375 
Q 36.625 -13.375 41.015625 -8.765625 
Q 45.40625 -4.15625 45.40625 5.171875 
L 45.40625 9.625 
Q 42.625 4.78125 38.28125 2.390625 
Q 33.9375 0 27.875 0 
Q 17.828125 0 11.671875 7.65625 
Q 5.515625 15.328125 5.515625 27.984375 
Q 5.515625 40.671875 11.671875 48.328125 
Q 17.828125 56 27.875 56 
Q 33.9375 56 38.28125 53.609375 
Q 42.625 51.21875 45.40625 46.390625 
L 45.40625 54.6875 
L 54.390625 54.6875 
z
" id="DejaVuSans-103"/>
      <path d="M 37.109375 75.984375 
L 37.109375 68.5 
L 28.515625 68.5 
Q 23.6875 68.5 21.796875 66.546875 
Q 19.921875 64.59375 19.921875 59.515625 
L 19.921875 54.6875 
L 34.71875 54.6875 
L 34.71875 47.703125 
L 19.921875 47.703125 
L 19.921875 0 
L 10.890625 0 
L 10.890625 47.703125 
L 2.296875 47.703125 
L 2.296875 54.6875 
L 10.890625 54.6875 
L 10.890625 58.5 
Q 10.890625 67.625 15.140625 71.796875 
Q 19.390625 75.984375 28.609375 75.984375 
z
" id="DejaVuSans-102"/>
      <path d="M 54.890625 33.015625 
L 54.890625 0 
L 45.90625 0 
L 45.90625 32.71875 
Q 45.90625 40.484375 42.875 44.328125 
Q 39.84375 48.1875 33.796875 48.1875 
Q 26.515625 48.1875 22.3125 43.546875 
Q 18.109375 38.921875 18.109375 30.90625 
L 18.109375 0 
L 9.078125 0 
L 9.078125 75.984375 
L 18.109375 75.984375 
L 18.109375 46.1875 
Q 21.34375 51.125 25.703125 53.5625 
Q 30.078125 56 35.796875 56 
Q 45.21875 56 50.046875 50.171875 
Q 54.890625 44.34375 54.890625 33.015625 
z
" id="DejaVuSans-104"/>
     </defs>
     <use xlink:href="#DejaVuSans-78"/>
     <use x="74.804688" xlink:href="#DejaVuSans-111"/>
     <use x="135.986328" xlink:href="#DejaVuSans-114"/>
     <use x="175.349609" xlink:href="#DejaVuSans-109"/>
     <use x="272.761719" xlink:href="#DejaVuSans-97"/>
     <use x="334.041016" xlink:href="#DejaVuSans-108"/>
     <use x="361.824219" xlink:href="#DejaVuSans-105"/>
     <use x="389.607422" xlink:href="#DejaVuSans-122"/>
     <use x="442.097656" xlink:href="#DejaVuSans-101"/>
     <use x="503.621094" xlink:href="#DejaVuSans-100"/>
     <use x="567.097656" xlink:href="#DejaVuSans-32"/>
     <use x="598.884766" xlink:href="#DejaVuSans-115"/>
     <use x="650.984375" xlink:href="#DejaVuSans-112"/>
     <use x="714.460938" xlink:href="#DejaVuSans-97"/>
     <use x="775.740234" xlink:href="#DejaVuSans-99"/>
     <use x="830.720703" xlink:href="#DejaVuSans-105"/>
     <use x="858.503906" xlink:href="#DejaVuSans-110"/>
     <use x="921.882812" xlink:href="#DejaVuSans-103"/>
     <use x="985.359375" xlink:href="#DejaVuSans-115"/>
     <use x="1037.458984" xlink:href="#DejaVuSans-32"/>
     <use x="1069.246094" xlink:href="#DejaVuSans-111"/>
     <use x="1130.427734" xlink:href="#DejaVuSans-102"/>
     <use x="1165.632812" xlink:href="#DejaVuSans-32"/>
     <use x="1197.419922" xlink:href="#DejaVuSans-114"/>
     <use x="1238.533203" xlink:href="#DejaVuSans-97"/>
     <use x="1299.8125" xlink:href="#DejaVuSans-110"/>
     <use x="1363.191406" xlink:href="#DejaVuSans-100"/>
     <use x="1426.667969" xlink:href="#DejaVuSans-111"/>
     <use x="1487.849609" xlink:href="#DejaVuSans-109"/>
     <use x="1585.261719" xlink:href="#DejaVuSans-32"/>
     <use x="1617.048828" xlink:href="#DejaVuSans-104"/>
     <use x="1680.427734" xlink:href="#DejaVuSans-101"/>
     <use x="1741.951172" xlink:href="#DejaVuSans-114"/>
     <use x="1781.314453" xlink:href="#DejaVuSans-109"/>
     <use x="1878.726562" xlink:href="#DejaVuSans-105"/>
     <use x="1906.509766" xlink:href="#DejaVuSans-116"/>
     <use x="1945.71875" xlink:href="#DejaVuSans-105"/>
     <use x="1973.501953" xlink:href="#DejaVuSans-97"/>
     <use x="2034.78125" xlink:href="#DejaVuSans-110"/>
     <use x="2098.160156" xlink:href="#DejaVuSans-32"/>
     <use x="2129.947266" xlink:href="#DejaVuSans-109"/>
     <use x="2227.359375" xlink:href="#DejaVuSans-97"/>
     <use x="2288.638672" xlink:href="#DejaVuSans-116"/>
     <use x="2327.847656" xlink:href="#DejaVuSans-114"/>
     <use x="2368.960938" xlink:href="#DejaVuSans-105"/>
     <use x="2396.744141" xlink:href="#DejaVuSans-99"/>
     <use x="2451.724609" xlink:href="#DejaVuSans-101"/>
     <use x="2513.248047" xlink:href="#DejaVuSans-115"/>
    </g>
   </g>
   <g id="legend_1">
    <g id="patch_107">
     <path d="M 314.97 79.3875 
L 380.4 79.3875 
Q 382.8 79.3875 382.8 76.9875 
L 382.8 42.96 
Q 382.8 40.56 380.4 40.56 
L 314.97 40.56 
Q 312.57 40.56 312.57 42.96 
L 312.57 76.9875 
Q 312.57 79.3875 314.97 79.3875 
z
" style="fill:#ffffff;opacity:0.8;stroke:#cccccc;stroke-linejoin:miter;"/>
    </g>
    <g id="line2d_17">
     <path d="M 317.37 50.278125 
L 341.37 50.278125 
" style="fill:none;stroke:#ff0000;stroke-linecap:square;stroke-width:1.5;"/>
    </g>
    <g id="line2d_18"/>
    <g id="text_19">
     <!-- fit -->
     <g transform="translate(350.97 54.478125)scale(0.12 -0.12)">
      <use xlink:href="#DejaVuSans-102"/>
      <use x="35.205078" xlink:href="#DejaVuSans-105"/>
      <use x="62.988281" xlink:href="#DejaVuSans-116"/>
     </g>
    </g>
    <g id="patch_108">
     <path d="M 317.37 72.091875 
L 341.37 72.091875 
L 341.37 63.691875 
L 317.37 63.691875 
z
" style="fill:#228b22;opacity:0.8;"/>
    </g>
    <g id="text_20">
     <!-- data -->
     <g transform="translate(350.97 72.091875)scale(0.12 -0.12)">
      <use xlink:href="#DejaVuSans-100"/>
      <use x="63.476562" xlink:href="#DejaVuSans-97"/>
      <use x="124.755859" xlink:href="#DejaVuSans-116"/>
      <use x="163.964844" xlink:href="#DejaVuSans-97"/>
     </g>
    </g>
   </g>
  </g>
 </g>
 <defs>
  <clipPath id="pfd3e2d9d84">
   <rect height="217.44" width="334.8" x="54" y="34.56"/>
  </clipPath>
 </defs>
</svg>
