<?xml version="1.0" encoding="utf-8" standalone="no"?>
<!DOCTYPE svg PUBLIC "-//W3C//DTD SVG 1.1//EN"
  "http://www.w3.org/Graphics/SVG/1.1/DTD/svg11.dtd">
<!-- Created with matplotlib (https://matplotlib.org/) -->
<svg height="216pt" version="1.1" viewBox="0 0 1080 216" width="1080pt" xmlns="http://www.w3.org/2000/svg" xmlns:xlink="http://www.w3.org/1999/xlink">
 <metadata>
  <rdf:RDF xmlns:cc="http://creativecommons.org/ns#" xmlns:dc="http://purl.org/dc/elements/1.1/" xmlns:rdf="http://www.w3.org/1999/02/22-rdf-syntax-ns#">
   <cc:Work>
    <dc:type rdf:resource="http://purl.org/dc/dcmitype/StillImage"/>
    <dc:date>2021-11-14T20:00:42.543881</dc:date>
    <dc:format>image/svg+xml</dc:format>
    <dc:creator>
     <cc:Agent>
      <dc:title>Matplotlib v3.3.4, https://matplotlib.org/</dc:title>
     </cc:Agent>
    </dc:creator>
   </cc:Work>
  </rdf:RDF>
 </metadata>
 <defs>
  <style type="text/css">*{stroke-linecap:butt;stroke-linejoin:round;}</style>
 </defs>
 <g id="figure_1">
  <g id="patch_1">
   <path d="M 0 216 
L 1080 216 
L 1080 0 
L 0 0 
z
" style="fill:none;"/>
  </g>
  <g id="axes_1">
   <g id="patch_2">
    <path d="M 135 189 
L 515.454545 189 
L 515.454545 25.92 
L 135 25.92 
z
" style="fill:#ffffff;"/>
   </g>
   <g id="matplotlib.axis_1">
    <g id="xtick_1">
     <g id="line2d_1">
      <defs>
       <path d="M 0 0 
L 0 3.5 
" id="m8abe185793" style="stroke:#000000;stroke-width:0.8;"/>
      </defs>
      <g>
       <use style="stroke:#000000;stroke-width:0.8;" x="148.764125" xlink:href="#m8abe185793" y="189"/>
      </g>
     </g>
     <g id="text_1">
      <!-- 0 -->
      <g transform="translate(145.582875 203.598437)scale(0.1 -0.1)">
       <defs>
        <path d="M 31.78125 66.40625 
Q 24.171875 66.40625 20.328125 58.90625 
Q 16.5 51.421875 16.5 36.375 
Q 16.5 21.390625 20.328125 13.890625 
Q 24.171875 6.390625 31.78125 6.390625 
Q 39.453125 6.390625 43.28125 13.890625 
Q 47.125 21.390625 47.125 36.375 
Q 47.125 51.421875 43.28125 58.90625 
Q 39.453125 66.40625 31.78125 66.40625 
z
M 31.78125 74.21875 
Q 44.046875 74.21875 50.515625 64.515625 
Q 56.984375 54.828125 56.984375 36.375 
Q 56.984375 17.96875 50.515625 8.265625 
Q 44.046875 -1.421875 31.78125 -1.421875 
Q 19.53125 -1.421875 13.0625 8.265625 
Q 6.59375 17.96875 6.59375 36.375 
Q 6.59375 54.828125 13.0625 64.515625 
Q 19.53125 74.21875 31.78125 74.21875 
z
" id="DejaVuSans-48"/>
       </defs>
       <use xlink:href="#DejaVuSans-48"/>
      </g>
     </g>
    </g>
    <g id="xtick_2">
     <g id="line2d_2">
      <g>
       <use style="stroke:#000000;stroke-width:0.8;" x="219.349384" xlink:href="#m8abe185793" y="189"/>
      </g>
     </g>
     <g id="text_2">
      <!-- 200 -->
      <g transform="translate(209.805634 203.598437)scale(0.1 -0.1)">
       <defs>
        <path d="M 19.1875 8.296875 
L 53.609375 8.296875 
L 53.609375 0 
L 7.328125 0 
L 7.328125 8.296875 
Q 12.9375 14.109375 22.625 23.890625 
Q 32.328125 33.6875 34.8125 36.53125 
Q 39.546875 41.84375 41.421875 45.53125 
Q 43.3125 49.21875 43.3125 52.78125 
Q 43.3125 58.59375 39.234375 62.25 
Q 35.15625 65.921875 28.609375 65.921875 
Q 23.96875 65.921875 18.8125 64.3125 
Q 13.671875 62.703125 7.8125 59.421875 
L 7.8125 69.390625 
Q 13.765625 71.78125 18.9375 73 
Q 24.125 74.21875 28.421875 74.21875 
Q 39.75 74.21875 46.484375 68.546875 
Q 53.21875 62.890625 53.21875 53.421875 
Q 53.21875 48.921875 51.53125 44.890625 
Q 49.859375 40.875 45.40625 35.40625 
Q 44.1875 33.984375 37.640625 27.21875 
Q 31.109375 20.453125 19.1875 8.296875 
z
" id="DejaVuSans-50"/>
       </defs>
       <use xlink:href="#DejaVuSans-50"/>
       <use x="63.623047" xlink:href="#DejaVuSans-48"/>
       <use x="127.246094" xlink:href="#DejaVuSans-48"/>
      </g>
     </g>
    </g>
    <g id="xtick_3">
     <g id="line2d_3">
      <g>
       <use style="stroke:#000000;stroke-width:0.8;" x="289.934643" xlink:href="#m8abe185793" y="189"/>
      </g>
     </g>
     <g id="text_3">
      <!-- 400 -->
      <g transform="translate(280.390893 203.598437)scale(0.1 -0.1)">
       <defs>
        <path d="M 37.796875 64.3125 
L 12.890625 25.390625 
L 37.796875 25.390625 
z
M 35.203125 72.90625 
L 47.609375 72.90625 
L 47.609375 25.390625 
L 58.015625 25.390625 
L 58.015625 17.1875 
L 47.609375 17.1875 
L 47.609375 0 
L 37.796875 0 
L 37.796875 17.1875 
L 4.890625 17.1875 
L 4.890625 26.703125 
z
" id="DejaVuSans-52"/>
       </defs>
       <use xlink:href="#DejaVuSans-52"/>
       <use x="63.623047" xlink:href="#DejaVuSans-48"/>
       <use x="127.246094" xlink:href="#DejaVuSans-48"/>
      </g>
     </g>
    </g>
    <g id="xtick_4">
     <g id="line2d_4">
      <g>
       <use style="stroke:#000000;stroke-width:0.8;" x="360.519902" xlink:href="#m8abe185793" y="189"/>
      </g>
     </g>
     <g id="text_4">
      <!-- 600 -->
      <g transform="translate(350.976152 203.598437)scale(0.1 -0.1)">
       <defs>
        <path d="M 33.015625 40.375 
Q 26.375 40.375 22.484375 35.828125 
Q 18.609375 31.296875 18.609375 23.390625 
Q 18.609375 15.53125 22.484375 10.953125 
Q 26.375 6.390625 33.015625 6.390625 
Q 39.65625 6.390625 43.53125 10.953125 
Q 47.40625 15.53125 47.40625 23.390625 
Q 47.40625 31.296875 43.53125 35.828125 
Q 39.65625 40.375 33.015625 40.375 
z
M 52.59375 71.296875 
L 52.59375 62.3125 
Q 48.875 64.0625 45.09375 64.984375 
Q 41.3125 65.921875 37.59375 65.921875 
Q 27.828125 65.921875 22.671875 59.328125 
Q 17.53125 52.734375 16.796875 39.40625 
Q 19.671875 43.65625 24.015625 45.921875 
Q 28.375 48.1875 33.59375 48.1875 
Q 44.578125 48.1875 50.953125 41.515625 
Q 57.328125 34.859375 57.328125 23.390625 
Q 57.328125 12.15625 50.6875 5.359375 
Q 44.046875 -1.421875 33.015625 -1.421875 
Q 20.359375 -1.421875 13.671875 8.265625 
Q 6.984375 17.96875 6.984375 36.375 
Q 6.984375 53.65625 15.1875 63.9375 
Q 23.390625 74.21875 37.203125 74.21875 
Q 40.921875 74.21875 44.703125 73.484375 
Q 48.484375 72.75 52.59375 71.296875 
z
" id="DejaVuSans-54"/>
       </defs>
       <use xlink:href="#DejaVuSans-54"/>
       <use x="63.623047" xlink:href="#DejaVuSans-48"/>
       <use x="127.246094" xlink:href="#DejaVuSans-48"/>
      </g>
     </g>
    </g>
    <g id="xtick_5">
     <g id="line2d_5">
      <g>
       <use style="stroke:#000000;stroke-width:0.8;" x="431.105161" xlink:href="#m8abe185793" y="189"/>
      </g>
     </g>
     <g id="text_5">
      <!-- 800 -->
      <g transform="translate(421.561411 203.598437)scale(0.1 -0.1)">
       <defs>
        <path d="M 31.78125 34.625 
Q 24.75 34.625 20.71875 30.859375 
Q 16.703125 27.09375 16.703125 20.515625 
Q 16.703125 13.921875 20.71875 10.15625 
Q 24.75 6.390625 31.78125 6.390625 
Q 38.8125 6.390625 42.859375 10.171875 
Q 46.921875 13.96875 46.921875 20.515625 
Q 46.921875 27.09375 42.890625 30.859375 
Q 38.875 34.625 31.78125 34.625 
z
M 21.921875 38.8125 
Q 15.578125 40.375 12.03125 44.71875 
Q 8.5 49.078125 8.5 55.328125 
Q 8.5 64.0625 14.71875 69.140625 
Q 20.953125 74.21875 31.78125 74.21875 
Q 42.671875 74.21875 48.875 69.140625 
Q 55.078125 64.0625 55.078125 55.328125 
Q 55.078125 49.078125 51.53125 44.71875 
Q 48 40.375 41.703125 38.8125 
Q 48.828125 37.15625 52.796875 32.3125 
Q 56.78125 27.484375 56.78125 20.515625 
Q 56.78125 9.90625 50.3125 4.234375 
Q 43.84375 -1.421875 31.78125 -1.421875 
Q 19.734375 -1.421875 13.25 4.234375 
Q 6.78125 9.90625 6.78125 20.515625 
Q 6.78125 27.484375 10.78125 32.3125 
Q 14.796875 37.15625 21.921875 38.8125 
z
M 18.3125 54.390625 
Q 18.3125 48.734375 21.84375 45.5625 
Q 25.390625 42.390625 31.78125 42.390625 
Q 38.140625 42.390625 41.71875 45.5625 
Q 45.3125 48.734375 45.3125 54.390625 
Q 45.3125 60.0625 41.71875 63.234375 
Q 38.140625 66.40625 31.78125 66.40625 
Q 25.390625 66.40625 21.84375 63.234375 
Q 18.3125 60.0625 18.3125 54.390625 
z
" id="DejaVuSans-56"/>
       </defs>
       <use xlink:href="#DejaVuSans-56"/>
       <use x="63.623047" xlink:href="#DejaVuSans-48"/>
       <use x="127.246094" xlink:href="#DejaVuSans-48"/>
      </g>
     </g>
    </g>
    <g id="xtick_6">
     <g id="line2d_6">
      <g>
       <use style="stroke:#000000;stroke-width:0.8;" x="501.69042" xlink:href="#m8abe185793" y="189"/>
      </g>
     </g>
     <g id="text_6">
      <!-- 1000 -->
      <g transform="translate(488.96542 203.598437)scale(0.1 -0.1)">
       <defs>
        <path d="M 12.40625 8.296875 
L 28.515625 8.296875 
L 28.515625 63.921875 
L 10.984375 60.40625 
L 10.984375 69.390625 
L 28.421875 72.90625 
L 38.28125 72.90625 
L 38.28125 8.296875 
L 54.390625 8.296875 
L 54.390625 0 
L 12.40625 0 
z
" id="DejaVuSans-49"/>
       </defs>
       <use xlink:href="#DejaVuSans-49"/>
       <use x="63.623047" xlink:href="#DejaVuSans-48"/>
       <use x="127.246094" xlink:href="#DejaVuSans-48"/>
       <use x="190.869141" xlink:href="#DejaVuSans-48"/>
      </g>
     </g>
    </g>
    <g id="text_7">
     <!-- N -->
     <g transform="translate(321.486648 217.276563)scale(0.1 -0.1)">
      <defs>
       <path d="M 9.8125 72.90625 
L 23.09375 72.90625 
L 55.421875 11.921875 
L 55.421875 72.90625 
L 64.984375 72.90625 
L 64.984375 0 
L 51.703125 0 
L 19.390625 60.984375 
L 19.390625 0 
L 9.8125 0 
z
" id="DejaVuSans-78"/>
      </defs>
      <use xlink:href="#DejaVuSans-78"/>
     </g>
    </g>
   </g>
   <g id="matplotlib.axis_2">
    <g id="ytick_1">
     <g id="line2d_7">
      <defs>
       <path d="M 0 0 
L -3.5 0 
" id="mc42879bd49" style="stroke:#000000;stroke-width:0.8;"/>
      </defs>
      <g>
       <use style="stroke:#000000;stroke-width:0.8;" x="135" xlink:href="#mc42879bd49" y="189"/>
      </g>
     </g>
     <g id="text_8">
      <!-- 0 -->
      <g transform="translate(121.6375 192.799219)scale(0.1 -0.1)">
       <use xlink:href="#DejaVuSans-48"/>
      </g>
     </g>
    </g>
    <g id="ytick_2">
     <g id="line2d_8">
      <g>
       <use style="stroke:#000000;stroke-width:0.8;" x="135" xlink:href="#mc42879bd49" y="168.615"/>
      </g>
     </g>
     <g id="text_9">
      <!-- 1 -->
      <g transform="translate(121.6375 172.414219)scale(0.1 -0.1)">
       <use xlink:href="#DejaVuSans-49"/>
      </g>
     </g>
    </g>
    <g id="ytick_3">
     <g id="line2d_9">
      <g>
       <use style="stroke:#000000;stroke-width:0.8;" x="135" xlink:href="#mc42879bd49" y="148.23"/>
      </g>
     </g>
     <g id="text_10">
      <!-- 2 -->
      <g transform="translate(121.6375 152.029219)scale(0.1 -0.1)">
       <use xlink:href="#DejaVuSans-50"/>
      </g>
     </g>
    </g>
    <g id="ytick_4">
     <g id="line2d_10">
      <g>
       <use style="stroke:#000000;stroke-width:0.8;" x="135" xlink:href="#mc42879bd49" y="127.845"/>
      </g>
     </g>
     <g id="text_11">
      <!-- 3 -->
      <g transform="translate(121.6375 131.644219)scale(0.1 -0.1)">
       <defs>
        <path d="M 40.578125 39.3125 
Q 47.65625 37.796875 51.625 33 
Q 55.609375 28.21875 55.609375 21.1875 
Q 55.609375 10.40625 48.1875 4.484375 
Q 40.765625 -1.421875 27.09375 -1.421875 
Q 22.515625 -1.421875 17.65625 -0.515625 
Q 12.796875 0.390625 7.625 2.203125 
L 7.625 11.71875 
Q 11.71875 9.328125 16.59375 8.109375 
Q 21.484375 6.890625 26.8125 6.890625 
Q 36.078125 6.890625 40.9375 10.546875 
Q 45.796875 14.203125 45.796875 21.1875 
Q 45.796875 27.640625 41.28125 31.265625 
Q 36.765625 34.90625 28.71875 34.90625 
L 20.21875 34.90625 
L 20.21875 43.015625 
L 29.109375 43.015625 
Q 36.375 43.015625 40.234375 45.921875 
Q 44.09375 48.828125 44.09375 54.296875 
Q 44.09375 59.90625 40.109375 62.90625 
Q 36.140625 65.921875 28.71875 65.921875 
Q 24.65625 65.921875 20.015625 65.03125 
Q 15.375 64.15625 9.8125 62.3125 
L 9.8125 71.09375 
Q 15.4375 72.65625 20.34375 73.4375 
Q 25.25 74.21875 29.59375 74.21875 
Q 40.828125 74.21875 47.359375 69.109375 
Q 53.90625 64.015625 53.90625 55.328125 
Q 53.90625 49.265625 50.4375 45.09375 
Q 46.96875 40.921875 40.578125 39.3125 
z
" id="DejaVuSans-51"/>
       </defs>
       <use xlink:href="#DejaVuSans-51"/>
      </g>
     </g>
    </g>
    <g id="ytick_5">
     <g id="line2d_11">
      <g>
       <use style="stroke:#000000;stroke-width:0.8;" x="135" xlink:href="#mc42879bd49" y="107.46"/>
      </g>
     </g>
     <g id="text_12">
      <!-- 4 -->
      <g transform="translate(121.6375 111.259219)scale(0.1 -0.1)">
       <use xlink:href="#DejaVuSans-52"/>
      </g>
     </g>
    </g>
    <g id="ytick_6">
     <g id="line2d_12">
      <g>
       <use style="stroke:#000000;stroke-width:0.8;" x="135" xlink:href="#mc42879bd49" y="87.075"/>
      </g>
     </g>
     <g id="text_13">
      <!-- 5 -->
      <g transform="translate(121.6375 90.874219)scale(0.1 -0.1)">
       <defs>
        <path d="M 10.796875 72.90625 
L 49.515625 72.90625 
L 49.515625 64.59375 
L 19.828125 64.59375 
L 19.828125 46.734375 
Q 21.96875 47.46875 24.109375 47.828125 
Q 26.265625 48.1875 28.421875 48.1875 
Q 40.625 48.1875 47.75 41.5 
Q 54.890625 34.8125 54.890625 23.390625 
Q 54.890625 11.625 47.5625 5.09375 
Q 40.234375 -1.421875 26.90625 -1.421875 
Q 22.3125 -1.421875 17.546875 -0.640625 
Q 12.796875 0.140625 7.71875 1.703125 
L 7.71875 11.625 
Q 12.109375 9.234375 16.796875 8.0625 
Q 21.484375 6.890625 26.703125 6.890625 
Q 35.15625 6.890625 40.078125 11.328125 
Q 45.015625 15.765625 45.015625 23.390625 
Q 45.015625 31 40.078125 35.4375 
Q 35.15625 39.890625 26.703125 39.890625 
Q 22.75 39.890625 18.8125 39.015625 
Q 14.890625 38.140625 10.796875 36.28125 
z
" id="DejaVuSans-53"/>
       </defs>
       <use xlink:href="#DejaVuSans-53"/>
      </g>
     </g>
    </g>
    <g id="ytick_7">
     <g id="line2d_13">
      <g>
       <use style="stroke:#000000;stroke-width:0.8;" x="135" xlink:href="#mc42879bd49" y="66.69"/>
      </g>
     </g>
     <g id="text_14">
      <!-- 6 -->
      <g transform="translate(121.6375 70.489219)scale(0.1 -0.1)">
       <use xlink:href="#DejaVuSans-54"/>
      </g>
     </g>
    </g>
    <g id="ytick_8">
     <g id="line2d_14">
      <g>
       <use style="stroke:#000000;stroke-width:0.8;" x="135" xlink:href="#mc42879bd49" y="46.305"/>
      </g>
     </g>
     <g id="text_15">
      <!-- 7 -->
      <g transform="translate(121.6375 50.104219)scale(0.1 -0.1)">
       <defs>
        <path d="M 8.203125 72.90625 
L 55.078125 72.90625 
L 55.078125 68.703125 
L 28.609375 0 
L 18.3125 0 
L 43.21875 64.59375 
L 8.203125 64.59375 
z
" id="DejaVuSans-55"/>
       </defs>
       <use xlink:href="#DejaVuSans-55"/>
      </g>
     </g>
    </g>
    <g id="ytick_9">
     <g id="line2d_15">
      <g>
       <use style="stroke:#000000;stroke-width:0.8;" x="135" xlink:href="#mc42879bd49" y="25.92"/>
      </g>
     </g>
     <g id="text_16">
      <!-- 8 -->
      <g transform="translate(121.6375 29.719219)scale(0.1 -0.1)">
       <use xlink:href="#DejaVuSans-56"/>
      </g>
     </g>
    </g>
    <g id="text_17">
     <!-- t[s]      -->
     <g transform="translate(101.225781 105.380312)scale(0.1 -0.1)">
      <defs>
       <path d="M 18.3125 70.21875 
L 18.3125 54.6875 
L 36.8125 54.6875 
L 36.8125 47.703125 
L 18.3125 47.703125 
L 18.3125 18.015625 
Q 18.3125 11.328125 20.140625 9.421875 
Q 21.96875 7.515625 27.59375 7.515625 
L 36.8125 7.515625 
L 36.8125 0 
L 27.59375 0 
Q 17.1875 0 13.234375 3.875 
Q 9.28125 7.765625 9.28125 18.015625 
L 9.28125 47.703125 
L 2.6875 47.703125 
L 2.6875 54.6875 
L 9.28125 54.6875 
L 9.28125 70.21875 
z
" id="DejaVuSans-116"/>
       <path d="M 8.59375 75.984375 
L 29.296875 75.984375 
L 29.296875 69 
L 17.578125 69 
L 17.578125 -6.203125 
L 29.296875 -6.203125 
L 29.296875 -13.1875 
L 8.59375 -13.1875 
z
" id="DejaVuSans-91"/>
       <path d="M 44.28125 53.078125 
L 44.28125 44.578125 
Q 40.484375 46.53125 36.375 47.5 
Q 32.28125 48.484375 27.875 48.484375 
Q 21.1875 48.484375 17.84375 46.4375 
Q 14.5 44.390625 14.5 40.28125 
Q 14.5 37.15625 16.890625 35.375 
Q 19.28125 33.59375 26.515625 31.984375 
L 29.59375 31.296875 
Q 39.15625 29.25 43.1875 25.515625 
Q 47.21875 21.78125 47.21875 15.09375 
Q 47.21875 7.46875 41.1875 3.015625 
Q 35.15625 -1.421875 24.609375 -1.421875 
Q 20.21875 -1.421875 15.453125 -0.5625 
Q 10.6875 0.296875 5.421875 2 
L 5.421875 11.28125 
Q 10.40625 8.6875 15.234375 7.390625 
Q 20.0625 6.109375 24.8125 6.109375 
Q 31.15625 6.109375 34.5625 8.28125 
Q 37.984375 10.453125 37.984375 14.40625 
Q 37.984375 18.0625 35.515625 20.015625 
Q 33.0625 21.96875 24.703125 23.78125 
L 21.578125 24.515625 
Q 13.234375 26.265625 9.515625 29.90625 
Q 5.8125 33.546875 5.8125 39.890625 
Q 5.8125 47.609375 11.28125 51.796875 
Q 16.75 56 26.8125 56 
Q 31.78125 56 36.171875 55.265625 
Q 40.578125 54.546875 44.28125 53.078125 
z
" id="DejaVuSans-115"/>
       <path d="M 30.421875 75.984375 
L 30.421875 -13.1875 
L 9.71875 -13.1875 
L 9.71875 -6.203125 
L 21.390625 -6.203125 
L 21.390625 69 
L 9.71875 69 
L 9.71875 75.984375 
z
" id="DejaVuSans-93"/>
       <path id="DejaVuSans-32"/>
      </defs>
      <use xlink:href="#DejaVuSans-116"/>
      <use x="39.208984" xlink:href="#DejaVuSans-91"/>
      <use x="78.222656" xlink:href="#DejaVuSans-115"/>
      <use x="130.322266" xlink:href="#DejaVuSans-93"/>
      <use x="169.335938" xlink:href="#DejaVuSans-32"/>
      <use x="201.123047" xlink:href="#DejaVuSans-32"/>
      <use x="232.910156" xlink:href="#DejaVuSans-32"/>
      <use x="264.697266" xlink:href="#DejaVuSans-32"/>
      <use x="296.484375" xlink:href="#DejaVuSans-32"/>
     </g>
    </g>
   </g>
   <g id="line2d_16">
    <defs>
     <path d="M 0 1.5 
C 0.397805 1.5 0.77937 1.341951 1.06066 1.06066 
C 1.341951 0.77937 1.5 0.397805 1.5 0 
C 1.5 -0.397805 1.341951 -0.77937 1.06066 -1.06066 
C 0.77937 -1.341951 0.397805 -1.5 0 -1.5 
C -0.397805 -1.5 -0.77937 -1.341951 -1.06066 -1.06066 
C -1.341951 -0.77937 -1.5 -0.397805 -1.5 0 
C -1.5 0.397805 -1.341951 0.77937 -1.06066 1.06066 
C -0.77937 1.341951 -0.397805 1.5 0 1.5 
z
" id="mcdeb331e0b" style="stroke:#1f77b4;"/>
    </defs>
    <g clip-path="url(#p986cdbb0ab)">
     <use style="fill:#1f77b4;stroke:#1f77b4;" x="152.293388" xlink:href="#mcdeb331e0b" y="188.999796"/>
     <use style="fill:#1f77b4;stroke:#1f77b4;" x="155.822651" xlink:href="#mcdeb331e0b" y="188.998369"/>
     <use style="fill:#1f77b4;stroke:#1f77b4;" x="159.351914" xlink:href="#mcdeb331e0b" y="188.996901"/>
     <use style="fill:#1f77b4;stroke:#1f77b4;" x="162.881177" xlink:href="#mcdeb331e0b" y="188.992131"/>
     <use style="fill:#1f77b4;stroke:#1f77b4;" x="166.41044" xlink:href="#mcdeb331e0b" y="188.983162"/>
     <use style="fill:#1f77b4;stroke:#1f77b4;" x="169.939703" xlink:href="#mcdeb331e0b" y="188.97352"/>
     <use style="fill:#1f77b4;stroke:#1f77b4;" x="173.468966" xlink:href="#mcdeb331e0b" y="188.956498"/>
     <use style="fill:#1f77b4;stroke:#1f77b4;" x="176.998229" xlink:href="#mcdeb331e0b" y="188.940313"/>
     <use style="fill:#1f77b4;stroke:#1f77b4;" x="180.527492" xlink:href="#mcdeb331e0b" y="188.840569"/>
     <use style="fill:#1f77b4;stroke:#1f77b4;" x="184.056755" xlink:href="#mcdeb331e0b" y="188.807586"/>
     <use style="fill:#1f77b4;stroke:#1f77b4;" x="187.586018" xlink:href="#mcdeb331e0b" y="188.787588"/>
     <use style="fill:#1f77b4;stroke:#1f77b4;" x="191.115281" xlink:href="#mcdeb331e0b" y="188.797944"/>
     <use style="fill:#1f77b4;stroke:#1f77b4;" x="194.644544" xlink:href="#mcdeb331e0b" y="188.745656"/>
     <use style="fill:#1f77b4;stroke:#1f77b4;" x="198.173807" xlink:href="#mcdeb331e0b" y="188.632805"/>
     <use style="fill:#1f77b4;stroke:#1f77b4;" x="201.70307" xlink:href="#mcdeb331e0b" y="188.593788"/>
     <use style="fill:#1f77b4;stroke:#1f77b4;" x="205.232333" xlink:href="#mcdeb331e0b" y="188.535711"/>
     <use style="fill:#1f77b4;stroke:#1f77b4;" x="208.761596" xlink:href="#mcdeb331e0b" y="188.414461"/>
     <use style="fill:#1f77b4;stroke:#1f77b4;" x="212.290858" xlink:href="#mcdeb331e0b" y="188.323014"/>
     <use style="fill:#1f77b4;stroke:#1f77b4;" x="215.820121" xlink:href="#mcdeb331e0b" y="187.599245"/>
     <use style="fill:#1f77b4;stroke:#1f77b4;" x="219.349384" xlink:href="#mcdeb331e0b" y="187.912053"/>
     <use style="fill:#1f77b4;stroke:#1f77b4;" x="222.878647" xlink:href="#mcdeb331e0b" y="187.9029"/>
     <use style="fill:#1f77b4;stroke:#1f77b4;" x="226.40791" xlink:href="#mcdeb331e0b" y="187.754538"/>
     <use style="fill:#1f77b4;stroke:#1f77b4;" x="229.937173" xlink:href="#mcdeb331e0b" y="187.590785"/>
     <use style="fill:#1f77b4;stroke:#1f77b4;" x="233.466436" xlink:href="#mcdeb331e0b" y="187.471207"/>
     <use style="fill:#1f77b4;stroke:#1f77b4;" x="236.995699" xlink:href="#mcdeb331e0b" y="187.217413"/>
     <use style="fill:#1f77b4;stroke:#1f77b4;" x="240.524962" xlink:href="#mcdeb331e0b" y="187.014909"/>
     <use style="fill:#1f77b4;stroke:#1f77b4;" x="244.054225" xlink:href="#mcdeb331e0b" y="186.787147"/>
     <use style="fill:#1f77b4;stroke:#1f77b4;" x="247.583488" xlink:href="#mcdeb331e0b" y="186.490933"/>
     <use style="fill:#1f77b4;stroke:#1f77b4;" x="251.112751" xlink:href="#mcdeb331e0b" y="186.263497"/>
     <use style="fill:#1f77b4;stroke:#1f77b4;" x="254.642014" xlink:href="#mcdeb331e0b" y="185.984406"/>
     <use style="fill:#1f77b4;stroke:#1f77b4;" x="258.171277" xlink:href="#mcdeb331e0b" y="185.651845"/>
     <use style="fill:#1f77b4;stroke:#1f77b4;" x="261.70054" xlink:href="#mcdeb331e0b" y="182.189535"/>
     <use style="fill:#1f77b4;stroke:#1f77b4;" x="265.229803" xlink:href="#mcdeb331e0b" y="184.355604"/>
     <use style="fill:#1f77b4;stroke:#1f77b4;" x="268.759066" xlink:href="#mcdeb331e0b" y="183.526077"/>
     <use style="fill:#1f77b4;stroke:#1f77b4;" x="272.288329" xlink:href="#mcdeb331e0b" y="183.817603"/>
     <use style="fill:#1f77b4;stroke:#1f77b4;" x="275.817591" xlink:href="#mcdeb331e0b" y="183.384157"/>
     <use style="fill:#1f77b4;stroke:#1f77b4;" x="279.346854" xlink:href="#mcdeb331e0b" y="182.947653"/>
     <use style="fill:#1f77b4;stroke:#1f77b4;" x="282.876117" xlink:href="#mcdeb331e0b" y="182.272705"/>
     <use style="fill:#1f77b4;stroke:#1f77b4;" x="286.40538" xlink:href="#mcdeb331e0b" y="181.613067"/>
     <use style="fill:#1f77b4;stroke:#1f77b4;" x="289.934643" xlink:href="#mcdeb331e0b" y="179.388146"/>
     <use style="fill:#1f77b4;stroke:#1f77b4;" x="293.463906" xlink:href="#mcdeb331e0b" y="180.614569"/>
     <use style="fill:#1f77b4;stroke:#1f77b4;" x="296.993169" xlink:href="#mcdeb331e0b" y="177.185037"/>
     <use style="fill:#1f77b4;stroke:#1f77b4;" x="300.522432" xlink:href="#mcdeb331e0b" y="178.894564"/>
     <use style="fill:#1f77b4;stroke:#1f77b4;" x="304.051695" xlink:href="#mcdeb331e0b" y="178.989497"/>
     <use style="fill:#1f77b4;stroke:#1f77b4;" x="307.580958" xlink:href="#mcdeb331e0b" y="177.830997"/>
     <use style="fill:#1f77b4;stroke:#1f77b4;" x="311.110221" xlink:href="#mcdeb331e0b" y="177.066478"/>
     <use style="fill:#1f77b4;stroke:#1f77b4;" x="314.639484" xlink:href="#mcdeb331e0b" y="176.246777"/>
     <use style="fill:#1f77b4;stroke:#1f77b4;" x="318.168747" xlink:href="#mcdeb331e0b" y="174.92004"/>
     <use style="fill:#1f77b4;stroke:#1f77b4;" x="321.69801" xlink:href="#mcdeb331e0b" y="169.711815"/>
     <use style="fill:#1f77b4;stroke:#1f77b4;" x="325.227273" xlink:href="#mcdeb331e0b" y="173.534859"/>
     <use style="fill:#1f77b4;stroke:#1f77b4;" x="328.756536" xlink:href="#mcdeb331e0b" y="173.358059"/>
     <use style="fill:#1f77b4;stroke:#1f77b4;" x="332.285799" xlink:href="#mcdeb331e0b" y="172.554401"/>
     <use style="fill:#1f77b4;stroke:#1f77b4;" x="335.815062" xlink:href="#mcdeb331e0b" y="171.525733"/>
     <use style="fill:#1f77b4;stroke:#1f77b4;" x="339.344325" xlink:href="#mcdeb331e0b" y="170.518225"/>
     <use style="fill:#1f77b4;stroke:#1f77b4;" x="342.873587" xlink:href="#mcdeb331e0b" y="169.306051"/>
     <use style="fill:#1f77b4;stroke:#1f77b4;" x="346.40285" xlink:href="#mcdeb331e0b" y="168.327306"/>
     <use style="fill:#1f77b4;stroke:#1f77b4;" x="349.932113" xlink:href="#mcdeb331e0b" y="167.171966"/>
     <use style="fill:#1f77b4;stroke:#1f77b4;" x="353.461376" xlink:href="#mcdeb331e0b" y="166.032567"/>
     <use style="fill:#1f77b4;stroke:#1f77b4;" x="356.990639" xlink:href="#mcdeb331e0b" y="164.68096"/>
     <use style="fill:#1f77b4;stroke:#1f77b4;" x="360.519902" xlink:href="#mcdeb331e0b" y="163.423736"/>
     <use style="fill:#1f77b4;stroke:#1f77b4;" x="364.049165" xlink:href="#mcdeb331e0b" y="162.28772"/>
     <use style="fill:#1f77b4;stroke:#1f77b4;" x="367.578428" xlink:href="#mcdeb331e0b" y="160.802612"/>
     <use style="fill:#1f77b4;stroke:#1f77b4;" x="371.107691" xlink:href="#mcdeb331e0b" y="158.245375"/>
     <use style="fill:#1f77b4;stroke:#1f77b4;" x="374.636954" xlink:href="#mcdeb331e0b" y="144.008797"/>
     <use style="fill:#1f77b4;stroke:#1f77b4;" x="378.166217" xlink:href="#mcdeb331e0b" y="152.782072"/>
     <use style="fill:#1f77b4;stroke:#1f77b4;" x="381.69548" xlink:href="#mcdeb331e0b" y="153.62328"/>
     <use style="fill:#1f77b4;stroke:#1f77b4;" x="385.224743" xlink:href="#mcdeb331e0b" y="149.837194"/>
     <use style="fill:#1f77b4;stroke:#1f77b4;" x="388.754006" xlink:href="#mcdeb331e0b" y="148.420579"/>
     <use style="fill:#1f77b4;stroke:#1f77b4;" x="392.283269" xlink:href="#mcdeb331e0b" y="146.849467"/>
     <use style="fill:#1f77b4;stroke:#1f77b4;" x="395.812532" xlink:href="#mcdeb331e0b" y="145.477189"/>
     <use style="fill:#1f77b4;stroke:#1f77b4;" x="399.341795" xlink:href="#mcdeb331e0b" y="145.726335"/>
     <use style="fill:#1f77b4;stroke:#1f77b4;" x="402.871058" xlink:href="#mcdeb331e0b" y="141.986054"/>
     <use style="fill:#1f77b4;stroke:#1f77b4;" x="406.40032" xlink:href="#mcdeb331e0b" y="140.490672"/>
     <use style="fill:#1f77b4;stroke:#1f77b4;" x="409.929583" xlink:href="#mcdeb331e0b" y="139.545807"/>
     <use style="fill:#1f77b4;stroke:#1f77b4;" x="413.458846" xlink:href="#mcdeb331e0b" y="138.082612"/>
     <use style="fill:#1f77b4;stroke:#1f77b4;" x="416.988109" xlink:href="#mcdeb331e0b" y="135.671576"/>
     <use style="fill:#1f77b4;stroke:#1f77b4;" x="420.517372" xlink:href="#mcdeb331e0b" y="133.8387"/>
     <use style="fill:#1f77b4;stroke:#1f77b4;" x="424.046635" xlink:href="#mcdeb331e0b" y="132.16717"/>
     <use style="fill:#1f77b4;stroke:#1f77b4;" x="427.575898" xlink:href="#mcdeb331e0b" y="129.686214"/>
     <use style="fill:#1f77b4;stroke:#1f77b4;" x="431.105161" xlink:href="#mcdeb331e0b" y="127.17998"/>
     <use style="fill:#1f77b4;stroke:#1f77b4;" x="434.634424" xlink:href="#mcdeb331e0b" y="125.11657"/>
     <use style="fill:#1f77b4;stroke:#1f77b4;" x="438.163687" xlink:href="#mcdeb331e0b" y="122.853366"/>
     <use style="fill:#1f77b4;stroke:#1f77b4;" x="441.69295" xlink:href="#mcdeb331e0b" y="120.380869"/>
     <use style="fill:#1f77b4;stroke:#1f77b4;" x="445.222213" xlink:href="#mcdeb331e0b" y="113.337831"/>
     <use style="fill:#1f77b4;stroke:#1f77b4;" x="448.751476" xlink:href="#mcdeb331e0b" y="110.591809"/>
     <use style="fill:#1f77b4;stroke:#1f77b4;" x="452.280739" xlink:href="#mcdeb331e0b" y="101.818145"/>
     <use style="fill:#1f77b4;stroke:#1f77b4;" x="455.810002" xlink:href="#mcdeb331e0b" y="109.670774"/>
     <use style="fill:#1f77b4;stroke:#1f77b4;" x="459.339265" xlink:href="#mcdeb331e0b" y="106.233271"/>
     <use style="fill:#1f77b4;stroke:#1f77b4;" x="462.868528" xlink:href="#mcdeb331e0b" y="104.157712"/>
     <use style="fill:#1f77b4;stroke:#1f77b4;" x="466.397791" xlink:href="#mcdeb331e0b" y="101.223067"/>
     <use style="fill:#1f77b4;stroke:#1f77b4;" x="469.927053" xlink:href="#mcdeb331e0b" y="93.056387"/>
     <use style="fill:#1f77b4;stroke:#1f77b4;" x="473.456316" xlink:href="#mcdeb331e0b" y="86.459821"/>
     <use style="fill:#1f77b4;stroke:#1f77b4;" x="476.985579" xlink:href="#mcdeb331e0b" y="91.049504"/>
     <use style="fill:#1f77b4;stroke:#1f77b4;" x="480.514842" xlink:href="#mcdeb331e0b" y="88.473533"/>
     <use style="fill:#1f77b4;stroke:#1f77b4;" x="484.044105" xlink:href="#mcdeb331e0b" y="85.168044"/>
     <use style="fill:#1f77b4;stroke:#1f77b4;" x="487.573368" xlink:href="#mcdeb331e0b" y="55.378078"/>
     <use style="fill:#1f77b4;stroke:#1f77b4;" x="491.102631" xlink:href="#mcdeb331e0b" y="78.904407"/>
     <use style="fill:#1f77b4;stroke:#1f77b4;" x="494.631894" xlink:href="#mcdeb331e0b" y="74.281924"/>
     <use style="fill:#1f77b4;stroke:#1f77b4;" x="498.161157" xlink:href="#mcdeb331e0b" y="69.919596"/>
    </g>
   </g>
   <g id="line2d_17">
    <path clip-path="url(#p986cdbb0ab)" d="M 152.293388 189.382875 
L 201.350143 188.41739 
L 217.937679 187.81972 
L 232.054731 187.095062 
L 244.760078 186.226818 
L 256.759572 185.182906 
L 267.700287 184.01358 
L 278.288076 182.660542 
L 288.522938 181.124416 
L 298.051948 179.474719 
L 307.580958 177.596726 
L 316.757042 175.557376 
L 325.580199 173.369149 
L 334.05043 171.04667 
L 342.520661 168.495384 
L 350.637966 165.825154 
L 358.755271 162.924295 
L 366.872575 159.782778 
L 374.636954 156.543411 
L 382.401332 153.065906 
L 390.165711 149.341488 
L 397.930089 145.361379 
L 405.341542 141.3156 
L 412.752994 137.021217 
L 420.164446 132.470598 
L 427.575898 127.656108 
L 434.98735 122.570115 
L 442.398802 117.204986 
L 449.810255 111.553087 
L 456.868781 105.896731 
L 463.927306 99.966749 
L 470.985832 93.756547 
L 478.044358 87.259532 
L 485.102884 80.469109 
L 492.16141 73.378686 
L 497.808231 67.485915 
L 497.808231 67.485915 
" style="fill:none;stroke:#ff7f0e;stroke-linecap:square;stroke-width:1.5;"/>
   </g>
   <g id="patch_3">
    <path d="M 135 189 
L 135 25.92 
" style="fill:none;stroke:#000000;stroke-linecap:square;stroke-linejoin:miter;stroke-width:0.8;"/>
   </g>
   <g id="patch_4">
    <path d="M 515.454545 189 
L 515.454545 25.92 
" style="fill:none;stroke:#000000;stroke-linecap:square;stroke-linejoin:miter;stroke-width:0.8;"/>
   </g>
   <g id="patch_5">
    <path d="M 135 189 
L 515.454545 189 
" style="fill:none;stroke:#000000;stroke-linecap:square;stroke-linejoin:miter;stroke-width:0.8;"/>
   </g>
   <g id="patch_6">
    <path d="M 135 25.92 
L 515.454545 25.92 
" style="fill:none;stroke:#000000;stroke-linecap:square;stroke-linejoin:miter;stroke-width:0.8;"/>
   </g>
   <g id="text_18">
    <!-- Time Scaling (Loop) -->
    <g transform="translate(246.166023 19.92)scale(0.16 -0.16)">
     <defs>
      <path d="M -0.296875 72.90625 
L 61.375 72.90625 
L 61.375 64.59375 
L 35.5 64.59375 
L 35.5 0 
L 25.59375 0 
L 25.59375 64.59375 
L -0.296875 64.59375 
z
" id="DejaVuSans-84"/>
      <path d="M 9.421875 54.6875 
L 18.40625 54.6875 
L 18.40625 0 
L 9.421875 0 
z
M 9.421875 75.984375 
L 18.40625 75.984375 
L 18.40625 64.59375 
L 9.421875 64.59375 
z
" id="DejaVuSans-105"/>
      <path d="M 52 44.1875 
Q 55.375 50.25 60.0625 53.125 
Q 64.75 56 71.09375 56 
Q 79.640625 56 84.28125 50.015625 
Q 88.921875 44.046875 88.921875 33.015625 
L 88.921875 0 
L 79.890625 0 
L 79.890625 32.71875 
Q 79.890625 40.578125 77.09375 44.375 
Q 74.3125 48.1875 68.609375 48.1875 
Q 61.625 48.1875 57.5625 43.546875 
Q 53.515625 38.921875 53.515625 30.90625 
L 53.515625 0 
L 44.484375 0 
L 44.484375 32.71875 
Q 44.484375 40.625 41.703125 44.40625 
Q 38.921875 48.1875 33.109375 48.1875 
Q 26.21875 48.1875 22.15625 43.53125 
Q 18.109375 38.875 18.109375 30.90625 
L 18.109375 0 
L 9.078125 0 
L 9.078125 54.6875 
L 18.109375 54.6875 
L 18.109375 46.1875 
Q 21.1875 51.21875 25.484375 53.609375 
Q 29.78125 56 35.6875 56 
Q 41.65625 56 45.828125 52.96875 
Q 50 49.953125 52 44.1875 
z
" id="DejaVuSans-109"/>
      <path d="M 56.203125 29.59375 
L 56.203125 25.203125 
L 14.890625 25.203125 
Q 15.484375 15.921875 20.484375 11.0625 
Q 25.484375 6.203125 34.421875 6.203125 
Q 39.59375 6.203125 44.453125 7.46875 
Q 49.3125 8.734375 54.109375 11.28125 
L 54.109375 2.78125 
Q 49.265625 0.734375 44.1875 -0.34375 
Q 39.109375 -1.421875 33.890625 -1.421875 
Q 20.796875 -1.421875 13.15625 6.1875 
Q 5.515625 13.8125 5.515625 26.8125 
Q 5.515625 40.234375 12.765625 48.109375 
Q 20.015625 56 32.328125 56 
Q 43.359375 56 49.78125 48.890625 
Q 56.203125 41.796875 56.203125 29.59375 
z
M 47.21875 32.234375 
Q 47.125 39.59375 43.09375 43.984375 
Q 39.0625 48.390625 32.421875 48.390625 
Q 24.90625 48.390625 20.390625 44.140625 
Q 15.875 39.890625 15.1875 32.171875 
z
" id="DejaVuSans-101"/>
      <path d="M 53.515625 70.515625 
L 53.515625 60.890625 
Q 47.90625 63.578125 42.921875 64.890625 
Q 37.9375 66.21875 33.296875 66.21875 
Q 25.25 66.21875 20.875 63.09375 
Q 16.5 59.96875 16.5 54.203125 
Q 16.5 49.359375 19.40625 46.890625 
Q 22.3125 44.4375 30.421875 42.921875 
L 36.375 41.703125 
Q 47.40625 39.59375 52.65625 34.296875 
Q 57.90625 29 57.90625 20.125 
Q 57.90625 9.515625 50.796875 4.046875 
Q 43.703125 -1.421875 29.984375 -1.421875 
Q 24.8125 -1.421875 18.96875 -0.25 
Q 13.140625 0.921875 6.890625 3.21875 
L 6.890625 13.375 
Q 12.890625 10.015625 18.65625 8.296875 
Q 24.421875 6.59375 29.984375 6.59375 
Q 38.421875 6.59375 43.015625 9.90625 
Q 47.609375 13.234375 47.609375 19.390625 
Q 47.609375 24.75 44.3125 27.78125 
Q 41.015625 30.8125 33.5 32.328125 
L 27.484375 33.5 
Q 16.453125 35.6875 11.515625 40.375 
Q 6.59375 45.0625 6.59375 53.421875 
Q 6.59375 63.09375 13.40625 68.65625 
Q 20.21875 74.21875 32.171875 74.21875 
Q 37.3125 74.21875 42.625 73.28125 
Q 47.953125 72.359375 53.515625 70.515625 
z
" id="DejaVuSans-83"/>
      <path d="M 48.78125 52.59375 
L 48.78125 44.1875 
Q 44.96875 46.296875 41.140625 47.34375 
Q 37.3125 48.390625 33.40625 48.390625 
Q 24.65625 48.390625 19.8125 42.84375 
Q 14.984375 37.3125 14.984375 27.296875 
Q 14.984375 17.28125 19.8125 11.734375 
Q 24.65625 6.203125 33.40625 6.203125 
Q 37.3125 6.203125 41.140625 7.25 
Q 44.96875 8.296875 48.78125 10.40625 
L 48.78125 2.09375 
Q 45.015625 0.34375 40.984375 -0.53125 
Q 36.96875 -1.421875 32.421875 -1.421875 
Q 20.0625 -1.421875 12.78125 6.34375 
Q 5.515625 14.109375 5.515625 27.296875 
Q 5.515625 40.671875 12.859375 48.328125 
Q 20.21875 56 33.015625 56 
Q 37.15625 56 41.109375 55.140625 
Q 45.0625 54.296875 48.78125 52.59375 
z
" id="DejaVuSans-99"/>
      <path d="M 34.28125 27.484375 
Q 23.390625 27.484375 19.1875 25 
Q 14.984375 22.515625 14.984375 16.5 
Q 14.984375 11.71875 18.140625 8.90625 
Q 21.296875 6.109375 26.703125 6.109375 
Q 34.1875 6.109375 38.703125 11.40625 
Q 43.21875 16.703125 43.21875 25.484375 
L 43.21875 27.484375 
z
M 52.203125 31.203125 
L 52.203125 0 
L 43.21875 0 
L 43.21875 8.296875 
Q 40.140625 3.328125 35.546875 0.953125 
Q 30.953125 -1.421875 24.3125 -1.421875 
Q 15.921875 -1.421875 10.953125 3.296875 
Q 6 8.015625 6 15.921875 
Q 6 25.140625 12.171875 29.828125 
Q 18.359375 34.515625 30.609375 34.515625 
L 43.21875 34.515625 
L 43.21875 35.40625 
Q 43.21875 41.609375 39.140625 45 
Q 35.0625 48.390625 27.6875 48.390625 
Q 23 48.390625 18.546875 47.265625 
Q 14.109375 46.140625 10.015625 43.890625 
L 10.015625 52.203125 
Q 14.9375 54.109375 19.578125 55.046875 
Q 24.21875 56 28.609375 56 
Q 40.484375 56 46.34375 49.84375 
Q 52.203125 43.703125 52.203125 31.203125 
z
" id="DejaVuSans-97"/>
      <path d="M 9.421875 75.984375 
L 18.40625 75.984375 
L 18.40625 0 
L 9.421875 0 
z
" id="DejaVuSans-108"/>
      <path d="M 54.890625 33.015625 
L 54.890625 0 
L 45.90625 0 
L 45.90625 32.71875 
Q 45.90625 40.484375 42.875 44.328125 
Q 39.84375 48.1875 33.796875 48.1875 
Q 26.515625 48.1875 22.3125 43.546875 
Q 18.109375 38.921875 18.109375 30.90625 
L 18.109375 0 
L 9.078125 0 
L 9.078125 54.6875 
L 18.109375 54.6875 
L 18.109375 46.1875 
Q 21.34375 51.125 25.703125 53.5625 
Q 30.078125 56 35.796875 56 
Q 45.21875 56 50.046875 50.171875 
Q 54.890625 44.34375 54.890625 33.015625 
z
" id="DejaVuSans-110"/>
      <path d="M 45.40625 27.984375 
Q 45.40625 37.75 41.375 43.109375 
Q 37.359375 48.484375 30.078125 48.484375 
Q 22.859375 48.484375 18.828125 43.109375 
Q 14.796875 37.75 14.796875 27.984375 
Q 14.796875 18.265625 18.828125 12.890625 
Q 22.859375 7.515625 30.078125 7.515625 
Q 37.359375 7.515625 41.375 12.890625 
Q 45.40625 18.265625 45.40625 27.984375 
z
M 54.390625 6.78125 
Q 54.390625 -7.171875 48.1875 -13.984375 
Q 42 -20.796875 29.203125 -20.796875 
Q 24.46875 -20.796875 20.265625 -20.09375 
Q 16.0625 -19.390625 12.109375 -17.921875 
L 12.109375 -9.1875 
Q 16.0625 -11.328125 19.921875 -12.34375 
Q 23.78125 -13.375 27.78125 -13.375 
Q 36.625 -13.375 41.015625 -8.765625 
Q 45.40625 -4.15625 45.40625 5.171875 
L 45.40625 9.625 
Q 42.625 4.78125 38.28125 2.390625 
Q 33.9375 0 27.875 0 
Q 17.828125 0 11.671875 7.65625 
Q 5.515625 15.328125 5.515625 27.984375 
Q 5.515625 40.671875 11.671875 48.328125 
Q 17.828125 56 27.875 56 
Q 33.9375 56 38.28125 53.609375 
Q 42.625 51.21875 45.40625 46.390625 
L 45.40625 54.6875 
L 54.390625 54.6875 
z
" id="DejaVuSans-103"/>
      <path d="M 31 75.875 
Q 24.46875 64.65625 21.28125 53.65625 
Q 18.109375 42.671875 18.109375 31.390625 
Q 18.109375 20.125 21.3125 9.0625 
Q 24.515625 -2 31 -13.1875 
L 23.1875 -13.1875 
Q 15.875 -1.703125 12.234375 9.375 
Q 8.59375 20.453125 8.59375 31.390625 
Q 8.59375 42.28125 12.203125 53.3125 
Q 15.828125 64.359375 23.1875 75.875 
z
" id="DejaVuSans-40"/>
      <path d="M 9.8125 72.90625 
L 19.671875 72.90625 
L 19.671875 8.296875 
L 55.171875 8.296875 
L 55.171875 0 
L 9.8125 0 
z
" id="DejaVuSans-76"/>
      <path d="M 30.609375 48.390625 
Q 23.390625 48.390625 19.1875 42.75 
Q 14.984375 37.109375 14.984375 27.296875 
Q 14.984375 17.484375 19.15625 11.84375 
Q 23.34375 6.203125 30.609375 6.203125 
Q 37.796875 6.203125 41.984375 11.859375 
Q 46.1875 17.53125 46.1875 27.296875 
Q 46.1875 37.015625 41.984375 42.703125 
Q 37.796875 48.390625 30.609375 48.390625 
z
M 30.609375 56 
Q 42.328125 56 49.015625 48.375 
Q 55.71875 40.765625 55.71875 27.296875 
Q 55.71875 13.875 49.015625 6.21875 
Q 42.328125 -1.421875 30.609375 -1.421875 
Q 18.84375 -1.421875 12.171875 6.21875 
Q 5.515625 13.875 5.515625 27.296875 
Q 5.515625 40.765625 12.171875 48.375 
Q 18.84375 56 30.609375 56 
z
" id="DejaVuSans-111"/>
      <path d="M 18.109375 8.203125 
L 18.109375 -20.796875 
L 9.078125 -20.796875 
L 9.078125 54.6875 
L 18.109375 54.6875 
L 18.109375 46.390625 
Q 20.953125 51.265625 25.265625 53.625 
Q 29.59375 56 35.59375 56 
Q 45.5625 56 51.78125 48.09375 
Q 58.015625 40.1875 58.015625 27.296875 
Q 58.015625 14.40625 51.78125 6.484375 
Q 45.5625 -1.421875 35.59375 -1.421875 
Q 29.59375 -1.421875 25.265625 0.953125 
Q 20.953125 3.328125 18.109375 8.203125 
z
M 48.6875 27.296875 
Q 48.6875 37.203125 44.609375 42.84375 
Q 40.53125 48.484375 33.40625 48.484375 
Q 26.265625 48.484375 22.1875 42.84375 
Q 18.109375 37.203125 18.109375 27.296875 
Q 18.109375 17.390625 22.1875 11.75 
Q 26.265625 6.109375 33.40625 6.109375 
Q 40.53125 6.109375 44.609375 11.75 
Q 48.6875 17.390625 48.6875 27.296875 
z
" id="DejaVuSans-112"/>
      <path d="M 8.015625 75.875 
L 15.828125 75.875 
Q 23.140625 64.359375 26.78125 53.3125 
Q 30.421875 42.28125 30.421875 31.390625 
Q 30.421875 20.453125 26.78125 9.375 
Q 23.140625 -1.703125 15.828125 -13.1875 
L 8.015625 -13.1875 
Q 14.5 -2 17.703125 9.0625 
Q 20.90625 20.125 20.90625 31.390625 
Q 20.90625 42.671875 17.703125 53.65625 
Q 14.5 64.65625 8.015625 75.875 
z
" id="DejaVuSans-41"/>
     </defs>
     <use xlink:href="#DejaVuSans-84"/>
     <use x="57.958984" xlink:href="#DejaVuSans-105"/>
     <use x="85.742188" xlink:href="#DejaVuSans-109"/>
     <use x="183.154297" xlink:href="#DejaVuSans-101"/>
     <use x="244.677734" xlink:href="#DejaVuSans-32"/>
     <use x="276.464844" xlink:href="#DejaVuSans-83"/>
     <use x="339.941406" xlink:href="#DejaVuSans-99"/>
     <use x="394.921875" xlink:href="#DejaVuSans-97"/>
     <use x="456.201172" xlink:href="#DejaVuSans-108"/>
     <use x="483.984375" xlink:href="#DejaVuSans-105"/>
     <use x="511.767578" xlink:href="#DejaVuSans-110"/>
     <use x="575.146484" xlink:href="#DejaVuSans-103"/>
     <use x="638.623047" xlink:href="#DejaVuSans-32"/>
     <use x="670.410156" xlink:href="#DejaVuSans-40"/>
     <use x="709.423828" xlink:href="#DejaVuSans-76"/>
     <use x="763.386719" xlink:href="#DejaVuSans-111"/>
     <use x="824.568359" xlink:href="#DejaVuSans-111"/>
     <use x="885.75" xlink:href="#DejaVuSans-112"/>
     <use x="949.226562" xlink:href="#DejaVuSans-41"/>
    </g>
   </g>
   <g id="legend_1">
    <g id="patch_7">
     <path d="M 143.4 70.7475 
L 251.120625 70.7475 
Q 253.520625 70.7475 253.520625 68.3475 
L 253.520625 34.32 
Q 253.520625 31.92 251.120625 31.92 
L 143.4 31.92 
Q 141 31.92 141 34.32 
L 141 68.3475 
Q 141 70.7475 143.4 70.7475 
z
" style="fill:#ffffff;opacity:0.8;stroke:#cccccc;stroke-linejoin:miter;"/>
    </g>
    <g id="line2d_18"/>
    <g id="line2d_19">
     <g>
      <use style="fill:#1f77b4;stroke:#1f77b4;" x="157.8" xlink:href="#mcdeb331e0b" y="41.638125"/>
     </g>
    </g>
    <g id="text_19">
     <!-- Data points -->
     <g transform="translate(179.4 45.838125)scale(0.12 -0.12)">
      <defs>
       <path d="M 19.671875 64.796875 
L 19.671875 8.109375 
L 31.59375 8.109375 
Q 46.6875 8.109375 53.6875 14.9375 
Q 60.6875 21.78125 60.6875 36.53125 
Q 60.6875 51.171875 53.6875 57.984375 
Q 46.6875 64.796875 31.59375 64.796875 
z
M 9.8125 72.90625 
L 30.078125 72.90625 
Q 51.265625 72.90625 61.171875 64.09375 
Q 71.09375 55.28125 71.09375 36.53125 
Q 71.09375 17.671875 61.125 8.828125 
Q 51.171875 0 30.078125 0 
L 9.8125 0 
z
" id="DejaVuSans-68"/>
      </defs>
      <use xlink:href="#DejaVuSans-68"/>
      <use x="77.001953" xlink:href="#DejaVuSans-97"/>
      <use x="138.28125" xlink:href="#DejaVuSans-116"/>
      <use x="177.490234" xlink:href="#DejaVuSans-97"/>
      <use x="238.769531" xlink:href="#DejaVuSans-32"/>
      <use x="270.556641" xlink:href="#DejaVuSans-112"/>
      <use x="334.033203" xlink:href="#DejaVuSans-111"/>
      <use x="395.214844" xlink:href="#DejaVuSans-105"/>
      <use x="422.998047" xlink:href="#DejaVuSans-110"/>
      <use x="486.376953" xlink:href="#DejaVuSans-116"/>
      <use x="525.585938" xlink:href="#DejaVuSans-115"/>
     </g>
    </g>
    <g id="line2d_20">
     <path d="M 145.8 59.251875 
L 169.8 59.251875 
" style="fill:none;stroke:#ff7f0e;stroke-linecap:square;stroke-width:1.5;"/>
    </g>
    <g id="line2d_21"/>
    <g id="text_20">
     <!-- Fit -->
     <g transform="translate(179.4 63.451875)scale(0.12 -0.12)">
      <defs>
       <path d="M 9.8125 72.90625 
L 51.703125 72.90625 
L 51.703125 64.59375 
L 19.671875 64.59375 
L 19.671875 43.109375 
L 48.578125 43.109375 
L 48.578125 34.8125 
L 19.671875 34.8125 
L 19.671875 0 
L 9.8125 0 
z
" id="DejaVuSans-70"/>
      </defs>
      <use xlink:href="#DejaVuSans-70"/>
      <use x="50.269531" xlink:href="#DejaVuSans-105"/>
      <use x="78.052734" xlink:href="#DejaVuSans-116"/>
     </g>
    </g>
   </g>
  </g>
  <g id="axes_2">
   <g id="patch_8">
    <path d="M 591.545455 189 
L 972 189 
L 972 25.92 
L 591.545455 25.92 
z
" style="fill:#ffffff;"/>
   </g>
   <g id="matplotlib.axis_3">
    <g id="xtick_7">
     <g id="line2d_22">
      <g>
       <use style="stroke:#000000;stroke-width:0.8;" x="605.30958" xlink:href="#m8abe185793" y="189"/>
      </g>
     </g>
     <g id="text_21">
      <!-- 0 -->
      <g transform="translate(602.12833 203.598437)scale(0.1 -0.1)">
       <use xlink:href="#DejaVuSans-48"/>
      </g>
     </g>
    </g>
    <g id="xtick_8">
     <g id="line2d_23">
      <g>
       <use style="stroke:#000000;stroke-width:0.8;" x="675.894839" xlink:href="#m8abe185793" y="189"/>
      </g>
     </g>
     <g id="text_22">
      <!-- 200 -->
      <g transform="translate(666.351089 203.598437)scale(0.1 -0.1)">
       <use xlink:href="#DejaVuSans-50"/>
       <use x="63.623047" xlink:href="#DejaVuSans-48"/>
       <use x="127.246094" xlink:href="#DejaVuSans-48"/>
      </g>
     </g>
    </g>
    <g id="xtick_9">
     <g id="line2d_24">
      <g>
       <use style="stroke:#000000;stroke-width:0.8;" x="746.480098" xlink:href="#m8abe185793" y="189"/>
      </g>
     </g>
     <g id="text_23">
      <!-- 400 -->
      <g transform="translate(736.936348 203.598437)scale(0.1 -0.1)">
       <use xlink:href="#DejaVuSans-52"/>
       <use x="63.623047" xlink:href="#DejaVuSans-48"/>
       <use x="127.246094" xlink:href="#DejaVuSans-48"/>
      </g>
     </g>
    </g>
    <g id="xtick_10">
     <g id="line2d_25">
      <g>
       <use style="stroke:#000000;stroke-width:0.8;" x="817.065357" xlink:href="#m8abe185793" y="189"/>
      </g>
     </g>
     <g id="text_24">
      <!-- 600 -->
      <g transform="translate(807.521607 203.598437)scale(0.1 -0.1)">
       <use xlink:href="#DejaVuSans-54"/>
       <use x="63.623047" xlink:href="#DejaVuSans-48"/>
       <use x="127.246094" xlink:href="#DejaVuSans-48"/>
      </g>
     </g>
    </g>
    <g id="xtick_11">
     <g id="line2d_26">
      <g>
       <use style="stroke:#000000;stroke-width:0.8;" x="887.650616" xlink:href="#m8abe185793" y="189"/>
      </g>
     </g>
     <g id="text_25">
      <!-- 800 -->
      <g transform="translate(878.106866 203.598437)scale(0.1 -0.1)">
       <use xlink:href="#DejaVuSans-56"/>
       <use x="63.623047" xlink:href="#DejaVuSans-48"/>
       <use x="127.246094" xlink:href="#DejaVuSans-48"/>
      </g>
     </g>
    </g>
    <g id="xtick_12">
     <g id="line2d_27">
      <g>
       <use style="stroke:#000000;stroke-width:0.8;" x="958.235875" xlink:href="#m8abe185793" y="189"/>
      </g>
     </g>
     <g id="text_26">
      <!-- 1000 -->
      <g transform="translate(945.510875 203.598437)scale(0.1 -0.1)">
       <use xlink:href="#DejaVuSans-49"/>
       <use x="63.623047" xlink:href="#DejaVuSans-48"/>
       <use x="127.246094" xlink:href="#DejaVuSans-48"/>
       <use x="190.869141" xlink:href="#DejaVuSans-48"/>
      </g>
     </g>
    </g>
    <g id="text_27">
     <!-- N -->
     <g transform="translate(778.032102 217.276563)scale(0.1 -0.1)">
      <use xlink:href="#DejaVuSans-78"/>
     </g>
    </g>
   </g>
   <g id="matplotlib.axis_4">
    <g id="ytick_10">
     <g id="line2d_28">
      <g>
       <use style="stroke:#000000;stroke-width:0.8;" x="591.545455" xlink:href="#mc42879bd49" y="189"/>
      </g>
     </g>
     <g id="text_28">
      <!-- 0 -->
      <g transform="translate(578.182955 192.799219)scale(0.1 -0.1)">
       <use xlink:href="#DejaVuSans-48"/>
      </g>
     </g>
    </g>
    <g id="ytick_11">
     <g id="line2d_29">
      <g>
       <use style="stroke:#000000;stroke-width:0.8;" x="591.545455" xlink:href="#mc42879bd49" y="168.615"/>
      </g>
     </g>
     <g id="text_29">
      <!-- 1 -->
      <g transform="translate(578.182955 172.414219)scale(0.1 -0.1)">
       <use xlink:href="#DejaVuSans-49"/>
      </g>
     </g>
    </g>
    <g id="ytick_12">
     <g id="line2d_30">
      <g>
       <use style="stroke:#000000;stroke-width:0.8;" x="591.545455" xlink:href="#mc42879bd49" y="148.23"/>
      </g>
     </g>
     <g id="text_30">
      <!-- 2 -->
      <g transform="translate(578.182955 152.029219)scale(0.1 -0.1)">
       <use xlink:href="#DejaVuSans-50"/>
      </g>
     </g>
    </g>
    <g id="ytick_13">
     <g id="line2d_31">
      <g>
       <use style="stroke:#000000;stroke-width:0.8;" x="591.545455" xlink:href="#mc42879bd49" y="127.845"/>
      </g>
     </g>
     <g id="text_31">
      <!-- 3 -->
      <g transform="translate(578.182955 131.644219)scale(0.1 -0.1)">
       <use xlink:href="#DejaVuSans-51"/>
      </g>
     </g>
    </g>
    <g id="ytick_14">
     <g id="line2d_32">
      <g>
       <use style="stroke:#000000;stroke-width:0.8;" x="591.545455" xlink:href="#mc42879bd49" y="107.46"/>
      </g>
     </g>
     <g id="text_32">
      <!-- 4 -->
      <g transform="translate(578.182955 111.259219)scale(0.1 -0.1)">
       <use xlink:href="#DejaVuSans-52"/>
      </g>
     </g>
    </g>
    <g id="ytick_15">
     <g id="line2d_33">
      <g>
       <use style="stroke:#000000;stroke-width:0.8;" x="591.545455" xlink:href="#mc42879bd49" y="87.075"/>
      </g>
     </g>
     <g id="text_33">
      <!-- 5 -->
      <g transform="translate(578.182955 90.874219)scale(0.1 -0.1)">
       <use xlink:href="#DejaVuSans-53"/>
      </g>
     </g>
    </g>
    <g id="ytick_16">
     <g id="line2d_34">
      <g>
       <use style="stroke:#000000;stroke-width:0.8;" x="591.545455" xlink:href="#mc42879bd49" y="66.69"/>
      </g>
     </g>
     <g id="text_34">
      <!-- 6 -->
      <g transform="translate(578.182955 70.489219)scale(0.1 -0.1)">
       <use xlink:href="#DejaVuSans-54"/>
      </g>
     </g>
    </g>
    <g id="ytick_17">
     <g id="line2d_35">
      <g>
       <use style="stroke:#000000;stroke-width:0.8;" x="591.545455" xlink:href="#mc42879bd49" y="46.305"/>
      </g>
     </g>
     <g id="text_35">
      <!-- 7 -->
      <g transform="translate(578.182955 50.104219)scale(0.1 -0.1)">
       <use xlink:href="#DejaVuSans-55"/>
      </g>
     </g>
    </g>
    <g id="ytick_18">
     <g id="line2d_36">
      <g>
       <use style="stroke:#000000;stroke-width:0.8;" x="591.545455" xlink:href="#mc42879bd49" y="25.92"/>
      </g>
     </g>
     <g id="text_36">
      <!-- 8 -->
      <g transform="translate(578.182955 29.719219)scale(0.1 -0.1)">
       <use xlink:href="#DejaVuSans-56"/>
      </g>
     </g>
    </g>
    <g id="text_37">
     <!-- t[s]      -->
     <g transform="translate(557.771236 105.380312)scale(0.1 -0.1)">
      <use xlink:href="#DejaVuSans-116"/>
      <use x="39.208984" xlink:href="#DejaVuSans-91"/>
      <use x="78.222656" xlink:href="#DejaVuSans-115"/>
      <use x="130.322266" xlink:href="#DejaVuSans-93"/>
      <use x="169.335938" xlink:href="#DejaVuSans-32"/>
      <use x="201.123047" xlink:href="#DejaVuSans-32"/>
      <use x="232.910156" xlink:href="#DejaVuSans-32"/>
      <use x="264.697266" xlink:href="#DejaVuSans-32"/>
      <use x="296.484375" xlink:href="#DejaVuSans-32"/>
     </g>
    </g>
   </g>
   <g id="line2d_37">
    <g clip-path="url(#pa600587176)">
     <use style="fill:#1f77b4;stroke:#1f77b4;" x="608.838843" xlink:href="#mcdeb331e0b" y="188.999796"/>
     <use style="fill:#1f77b4;stroke:#1f77b4;" x="612.368106" xlink:href="#mcdeb331e0b" y="188.998981"/>
     <use style="fill:#1f77b4;stroke:#1f77b4;" x="615.897369" xlink:href="#mcdeb331e0b" y="188.99684"/>
     <use style="fill:#1f77b4;stroke:#1f77b4;" x="619.426632" xlink:href="#mcdeb331e0b" y="188.9926"/>
     <use style="fill:#1f77b4;stroke:#1f77b4;" x="622.955895" xlink:href="#mcdeb331e0b" y="188.985812"/>
     <use style="fill:#1f77b4;stroke:#1f77b4;" x="626.485158" xlink:href="#mcdeb331e0b" y="188.975416"/>
     <use style="fill:#1f77b4;stroke:#1f77b4;" x="630.014421" xlink:href="#mcdeb331e0b" y="188.960698"/>
     <use style="fill:#1f77b4;stroke:#1f77b4;" x="633.543684" xlink:href="#mcdeb331e0b" y="188.94333"/>
     <use style="fill:#1f77b4;stroke:#1f77b4;" x="637.072947" xlink:href="#mcdeb331e0b" y="188.918113"/>
     <use style="fill:#1f77b4;stroke:#1f77b4;" x="640.602209" xlink:href="#mcdeb331e0b" y="188.88723"/>
     <use style="fill:#1f77b4;stroke:#1f77b4;" x="644.131472" xlink:href="#mcdeb331e0b" y="188.84911"/>
     <use style="fill:#1f77b4;stroke:#1f77b4;" x="647.660735" xlink:href="#mcdeb331e0b" y="188.801083"/>
     <use style="fill:#1f77b4;stroke:#1f77b4;" x="651.189998" xlink:href="#mcdeb331e0b" y="188.754198"/>
     <use style="fill:#1f77b4;stroke:#1f77b4;" x="654.719261" xlink:href="#mcdeb331e0b" y="188.691086"/>
     <use style="fill:#1f77b4;stroke:#1f77b4;" x="658.248524" xlink:href="#mcdeb331e0b" y="188.626282"/>
     <use style="fill:#1f77b4;stroke:#1f77b4;" x="661.777787" xlink:href="#mcdeb331e0b" y="188.545965"/>
     <use style="fill:#1f77b4;stroke:#1f77b4;" x="665.30705" xlink:href="#mcdeb331e0b" y="188.454171"/>
     <use style="fill:#1f77b4;stroke:#1f77b4;" x="668.836313" xlink:href="#mcdeb331e0b" y="188.347863"/>
     <use style="fill:#1f77b4;stroke:#1f77b4;" x="672.365576" xlink:href="#mcdeb331e0b" y="188.235399"/>
     <use style="fill:#1f77b4;stroke:#1f77b4;" x="675.894839" xlink:href="#mcdeb331e0b" y="188.110337"/>
     <use style="fill:#1f77b4;stroke:#1f77b4;" x="679.424102" xlink:href="#mcdeb331e0b" y="187.958408"/>
     <use style="fill:#1f77b4;stroke:#1f77b4;" x="682.953365" xlink:href="#mcdeb331e0b" y="187.783851"/>
     <use style="fill:#1f77b4;stroke:#1f77b4;" x="686.482628" xlink:href="#mcdeb331e0b" y="187.625439"/>
     <use style="fill:#1f77b4;stroke:#1f77b4;" x="690.011891" xlink:href="#mcdeb331e0b" y="187.419286"/>
     <use style="fill:#1f77b4;stroke:#1f77b4;" x="693.541154" xlink:href="#mcdeb331e0b" y="187.197721"/>
     <use style="fill:#1f77b4;stroke:#1f77b4;" x="697.070417" xlink:href="#mcdeb331e0b" y="186.972712"/>
     <use style="fill:#1f77b4;stroke:#1f77b4;" x="700.59968" xlink:href="#mcdeb331e0b" y="186.684712"/>
     <use style="fill:#1f77b4;stroke:#1f77b4;" x="704.128942" xlink:href="#mcdeb331e0b" y="186.448634"/>
     <use style="fill:#1f77b4;stroke:#1f77b4;" x="707.658205" xlink:href="#mcdeb331e0b" y="186.121842"/>
     <use style="fill:#1f77b4;stroke:#1f77b4;" x="711.187468" xlink:href="#mcdeb331e0b" y="185.722867"/>
     <use style="fill:#1f77b4;stroke:#1f77b4;" x="714.716731" xlink:href="#mcdeb331e0b" y="185.431443"/>
     <use style="fill:#1f77b4;stroke:#1f77b4;" x="718.245994" xlink:href="#mcdeb331e0b" y="185.069548"/>
     <use style="fill:#1f77b4;stroke:#1f77b4;" x="721.775257" xlink:href="#mcdeb331e0b" y="184.660482"/>
     <use style="fill:#1f77b4;stroke:#1f77b4;" x="725.30452" xlink:href="#mcdeb331e0b" y="184.221878"/>
     <use style="fill:#1f77b4;stroke:#1f77b4;" x="728.833783" xlink:href="#mcdeb331e0b" y="183.860208"/>
     <use style="fill:#1f77b4;stroke:#1f77b4;" x="732.363046" xlink:href="#mcdeb331e0b" y="183.541386"/>
     <use style="fill:#1f77b4;stroke:#1f77b4;" x="735.892309" xlink:href="#mcdeb331e0b" y="182.832111"/>
     <use style="fill:#1f77b4;stroke:#1f77b4;" x="739.421572" xlink:href="#mcdeb331e0b" y="182.217197"/>
     <use style="fill:#1f77b4;stroke:#1f77b4;" x="742.950835" xlink:href="#mcdeb331e0b" y="181.627642"/>
     <use style="fill:#1f77b4;stroke:#1f77b4;" x="746.480098" xlink:href="#mcdeb331e0b" y="181.336218"/>
     <use style="fill:#1f77b4;stroke:#1f77b4;" x="750.009361" xlink:href="#mcdeb331e0b" y="180.333154"/>
     <use style="fill:#1f77b4;stroke:#1f77b4;" x="753.538624" xlink:href="#mcdeb331e0b" y="179.73673"/>
     <use style="fill:#1f77b4;stroke:#1f77b4;" x="757.067887" xlink:href="#mcdeb331e0b" y="179.095825"/>
     <use style="fill:#1f77b4;stroke:#1f77b4;" x="760.59715" xlink:href="#mcdeb331e0b" y="178.699521"/>
     <use style="fill:#1f77b4;stroke:#1f77b4;" x="764.126413" xlink:href="#mcdeb331e0b" y="177.69931"/>
     <use style="fill:#1f77b4;stroke:#1f77b4;" x="767.655675" xlink:href="#mcdeb331e0b" y="176.84789"/>
     <use style="fill:#1f77b4;stroke:#1f77b4;" x="771.184938" xlink:href="#mcdeb331e0b" y="176.083717"/>
     <use style="fill:#1f77b4;stroke:#1f77b4;" x="774.714201" xlink:href="#mcdeb331e0b" y="175.258105"/>
     <use style="fill:#1f77b4;stroke:#1f77b4;" x="778.243464" xlink:href="#mcdeb331e0b" y="174.326327"/>
     <use style="fill:#1f77b4;stroke:#1f77b4;" x="781.772727" xlink:href="#mcdeb331e0b" y="173.310746"/>
     <use style="fill:#1f77b4;stroke:#1f77b4;" x="785.30199" xlink:href="#mcdeb331e0b" y="172.460712"/>
     <use style="fill:#1f77b4;stroke:#1f77b4;" x="788.831253" xlink:href="#mcdeb331e0b" y="171.892765"/>
     <use style="fill:#1f77b4;stroke:#1f77b4;" x="792.360516" xlink:href="#mcdeb331e0b" y="170.716816"/>
     <use style="fill:#1f77b4;stroke:#1f77b4;" x="795.889779" xlink:href="#mcdeb331e0b" y="169.332042"/>
     <use style="fill:#1f77b4;stroke:#1f77b4;" x="799.419042" xlink:href="#mcdeb331e0b" y="167.914266"/>
     <use style="fill:#1f77b4;stroke:#1f77b4;" x="802.948305" xlink:href="#mcdeb331e0b" y="167.27014"/>
     <use style="fill:#1f77b4;stroke:#1f77b4;" x="806.477568" xlink:href="#mcdeb331e0b" y="165.507286"/>
     <use style="fill:#1f77b4;stroke:#1f77b4;" x="810.006831" xlink:href="#mcdeb331e0b" y="164.02652"/>
     <use style="fill:#1f77b4;stroke:#1f77b4;" x="813.536094" xlink:href="#mcdeb331e0b" y="162.747749"/>
     <use style="fill:#1f77b4;stroke:#1f77b4;" x="817.065357" xlink:href="#mcdeb331e0b" y="162.112124"/>
     <use style="fill:#1f77b4;stroke:#1f77b4;" x="820.59462" xlink:href="#mcdeb331e0b" y="160.212935"/>
     <use style="fill:#1f77b4;stroke:#1f77b4;" x="824.123883" xlink:href="#mcdeb331e0b" y="158.443578"/>
     <use style="fill:#1f77b4;stroke:#1f77b4;" x="827.653146" xlink:href="#mcdeb331e0b" y="157.6124"/>
     <use style="fill:#1f77b4;stroke:#1f77b4;" x="831.182409" xlink:href="#mcdeb331e0b" y="148.667564"/>
     <use style="fill:#1f77b4;stroke:#1f77b4;" x="834.711671" xlink:href="#mcdeb331e0b" y="154.053179"/>
     <use style="fill:#1f77b4;stroke:#1f77b4;" x="838.240934" xlink:href="#mcdeb331e0b" y="151.614297"/>
     <use style="fill:#1f77b4;stroke:#1f77b4;" x="841.770197" xlink:href="#mcdeb331e0b" y="150.042104"/>
     <use style="fill:#1f77b4;stroke:#1f77b4;" x="845.29946" xlink:href="#mcdeb331e0b" y="149.505856"/>
     <use style="fill:#1f77b4;stroke:#1f77b4;" x="848.828723" xlink:href="#mcdeb331e0b" y="146.7157"/>
     <use style="fill:#1f77b4;stroke:#1f77b4;" x="852.357986" xlink:href="#mcdeb331e0b" y="144.178665"/>
     <use style="fill:#1f77b4;stroke:#1f77b4;" x="855.887249" xlink:href="#mcdeb331e0b" y="142.831705"/>
     <use style="fill:#1f77b4;stroke:#1f77b4;" x="859.416512" xlink:href="#mcdeb331e0b" y="142.234812"/>
     <use style="fill:#1f77b4;stroke:#1f77b4;" x="862.945775" xlink:href="#mcdeb331e0b" y="135.867558"/>
     <use style="fill:#1f77b4;stroke:#1f77b4;" x="866.475038" xlink:href="#mcdeb331e0b" y="135.07772"/>
     <use style="fill:#1f77b4;stroke:#1f77b4;" x="870.004301" xlink:href="#mcdeb331e0b" y="132.97354"/>
     <use style="fill:#1f77b4;stroke:#1f77b4;" x="873.533564" xlink:href="#mcdeb331e0b" y="131.08964"/>
     <use style="fill:#1f77b4;stroke:#1f77b4;" x="877.062827" xlink:href="#mcdeb331e0b" y="127.403889"/>
     <use style="fill:#1f77b4;stroke:#1f77b4;" x="880.59209" xlink:href="#mcdeb331e0b" y="123.741887"/>
     <use style="fill:#1f77b4;stroke:#1f77b4;" x="884.121353" xlink:href="#mcdeb331e0b" y="121.714293"/>
     <use style="fill:#1f77b4;stroke:#1f77b4;" x="887.650616" xlink:href="#mcdeb331e0b" y="119.097185"/>
     <use style="fill:#1f77b4;stroke:#1f77b4;" x="891.179879" xlink:href="#mcdeb331e0b" y="111.347521"/>
     <use style="fill:#1f77b4;stroke:#1f77b4;" x="894.709142" xlink:href="#mcdeb331e0b" y="112.037778"/>
     <use style="fill:#1f77b4;stroke:#1f77b4;" x="898.238404" xlink:href="#mcdeb331e0b" y="106.66099"/>
     <use style="fill:#1f77b4;stroke:#1f77b4;" x="901.767667" xlink:href="#mcdeb331e0b" y="107.784346"/>
     <use style="fill:#1f77b4;stroke:#1f77b4;" x="905.29693" xlink:href="#mcdeb331e0b" y="98.032406"/>
     <use style="fill:#1f77b4;stroke:#1f77b4;" x="908.826193" xlink:href="#mcdeb331e0b" y="97.248664"/>
     <use style="fill:#1f77b4;stroke:#1f77b4;" x="912.355456" xlink:href="#mcdeb331e0b" y="89.625694"/>
     <use style="fill:#1f77b4;stroke:#1f77b4;" x="915.884719" xlink:href="#mcdeb331e0b" y="97.597859"/>
     <use style="fill:#1f77b4;stroke:#1f77b4;" x="919.413982" xlink:href="#mcdeb331e0b" y="67.964939"/>
     <use style="fill:#1f77b4;stroke:#1f77b4;" x="922.943245" xlink:href="#mcdeb331e0b" y="70.499365"/>
     <use style="fill:#1f77b4;stroke:#1f77b4;" x="926.472508" xlink:href="#mcdeb331e0b" y="63.7588"/>
     <use style="fill:#1f77b4;stroke:#1f77b4;" x="930.001771" xlink:href="#mcdeb331e0b" y="74.486223"/>
     <use style="fill:#1f77b4;stroke:#1f77b4;" x="933.531034" xlink:href="#mcdeb331e0b" y="59.985108"/>
     <use style="fill:#1f77b4;stroke:#1f77b4;" x="937.060297" xlink:href="#mcdeb331e0b" y="58.075034"/>
     <use style="fill:#1f77b4;stroke:#1f77b4;" x="940.58956" xlink:href="#mcdeb331e0b" y="45.526028"/>
     <use style="fill:#1f77b4;stroke:#1f77b4;" x="944.118823" xlink:href="#mcdeb331e0b" y="35.644888"/>
     <use style="fill:#1f77b4;stroke:#1f77b4;" x="947.648086" xlink:href="#mcdeb331e0b" y="28.545119"/>
     <use style="fill:#1f77b4;stroke:#1f77b4;" x="951.177349" xlink:href="#mcdeb331e0b" y="24.542422"/>
     <use style="fill:#1f77b4;stroke:#1f77b4;" x="954.706612" xlink:href="#mcdeb331e0b" y="17.784999"/>
    </g>
   </g>
   <g id="line2d_38">
    <path clip-path="url(#pa600587176)" d="M 608.838843 192.993108 
L 616.603221 191.546534 
L 624.720526 190.265981 
L 633.190757 189.15446 
L 642.366841 188.175274 
L 652.601703 187.31396 
L 664.248271 186.565448 
L 679.071176 185.851968 
L 720.010626 184.018459 
L 731.657193 183.197058 
L 741.892056 182.250897 
L 751.06814 181.179105 
L 759.538371 179.968225 
L 767.655675 178.579951 
L 775.420054 177.018892 
L 782.831506 175.294773 
L 789.890032 173.421735 
L 796.595632 171.417652 
L 803.301231 169.179627 
L 809.653905 166.830229 
L 816.006578 164.245088 
L 822.359251 161.411665 
L 828.358998 158.496377 
L 834.358745 155.337878 
L 840.358492 151.925602 
L 846.358239 148.248986 
L 852.357986 144.297465 
L 858.004807 140.317802 
L 863.651628 136.076459 
L 869.298448 131.564629 
L 874.945269 126.773505 
L 880.59209 121.694279 
L 886.23891 116.318144 
L 891.885731 110.636292 
L 897.532552 104.639916 
L 903.179373 98.320208 
L 908.826193 91.668361 
L 914.473014 84.675568 
L 920.119835 77.333021 
L 925.766655 69.631912 
L 931.413476 61.563434 
L 937.060297 53.11878 
L 942.707118 44.289142 
L 948.353938 35.065713 
L 954.353685 24.824489 
L 954.353685 24.824489 
" style="fill:none;stroke:#ff00ff;stroke-linecap:square;stroke-width:1.5;"/>
   </g>
   <g id="patch_9">
    <path d="M 591.545455 189 
L 591.545455 25.92 
" style="fill:none;stroke:#000000;stroke-linecap:square;stroke-linejoin:miter;stroke-width:0.8;"/>
   </g>
   <g id="patch_10">
    <path d="M 972 189 
L 972 25.92 
" style="fill:none;stroke:#000000;stroke-linecap:square;stroke-linejoin:miter;stroke-width:0.8;"/>
   </g>
   <g id="patch_11">
    <path d="M 591.545455 189 
L 972 189 
" style="fill:none;stroke:#000000;stroke-linecap:square;stroke-linejoin:miter;stroke-width:0.8;"/>
   </g>
   <g id="patch_12">
    <path d="M 591.545455 25.92 
L 972 25.92 
" style="fill:none;stroke:#000000;stroke-linecap:square;stroke-linejoin:miter;stroke-width:0.8;"/>
   </g>
   <g id="text_38">
    <!-- Time Scaling (Loop2) -->
    <g transform="translate(697.621477 19.92)scale(0.16 -0.16)">
     <use xlink:href="#DejaVuSans-84"/>
     <use x="57.958984" xlink:href="#DejaVuSans-105"/>
     <use x="85.742188" xlink:href="#DejaVuSans-109"/>
     <use x="183.154297" xlink:href="#DejaVuSans-101"/>
     <use x="244.677734" xlink:href="#DejaVuSans-32"/>
     <use x="276.464844" xlink:href="#DejaVuSans-83"/>
     <use x="339.941406" xlink:href="#DejaVuSans-99"/>
     <use x="394.921875" xlink:href="#DejaVuSans-97"/>
     <use x="456.201172" xlink:href="#DejaVuSans-108"/>
     <use x="483.984375" xlink:href="#DejaVuSans-105"/>
     <use x="511.767578" xlink:href="#DejaVuSans-110"/>
     <use x="575.146484" xlink:href="#DejaVuSans-103"/>
     <use x="638.623047" xlink:href="#DejaVuSans-32"/>
     <use x="670.410156" xlink:href="#DejaVuSans-40"/>
     <use x="709.423828" xlink:href="#DejaVuSans-76"/>
     <use x="763.386719" xlink:href="#DejaVuSans-111"/>
     <use x="824.568359" xlink:href="#DejaVuSans-111"/>
     <use x="885.75" xlink:href="#DejaVuSans-112"/>
     <use x="949.226562" xlink:href="#DejaVuSans-50"/>
     <use x="1012.849609" xlink:href="#DejaVuSans-41"/>
    </g>
   </g>
   <g id="legend_2">
    <g id="patch_13">
     <path d="M 599.945455 70.7475 
L 707.66608 70.7475 
Q 710.06608 70.7475 710.06608 68.3475 
L 710.06608 34.32 
Q 710.06608 31.92 707.66608 31.92 
L 599.945455 31.92 
Q 597.545455 31.92 597.545455 34.32 
L 597.545455 68.3475 
Q 597.545455 70.7475 599.945455 70.7475 
z
" style="fill:#ffffff;opacity:0.8;stroke:#cccccc;stroke-linejoin:miter;"/>
    </g>
    <g id="line2d_39"/>
    <g id="line2d_40">
     <g>
      <use style="fill:#1f77b4;stroke:#1f77b4;" x="614.345455" xlink:href="#mcdeb331e0b" y="41.638125"/>
     </g>
    </g>
    <g id="text_39">
     <!-- Data points -->
     <g transform="translate(635.945455 45.838125)scale(0.12 -0.12)">
      <use xlink:href="#DejaVuSans-68"/>
      <use x="77.001953" xlink:href="#DejaVuSans-97"/>
      <use x="138.28125" xlink:href="#DejaVuSans-116"/>
      <use x="177.490234" xlink:href="#DejaVuSans-97"/>
      <use x="238.769531" xlink:href="#DejaVuSans-32"/>
      <use x="270.556641" xlink:href="#DejaVuSans-112"/>
      <use x="334.033203" xlink:href="#DejaVuSans-111"/>
      <use x="395.214844" xlink:href="#DejaVuSans-105"/>
      <use x="422.998047" xlink:href="#DejaVuSans-110"/>
      <use x="486.376953" xlink:href="#DejaVuSans-116"/>
      <use x="525.585938" xlink:href="#DejaVuSans-115"/>
     </g>
    </g>
    <g id="line2d_41">
     <path d="M 602.345455 59.251875 
L 626.345455 59.251875 
" style="fill:none;stroke:#ff00ff;stroke-linecap:square;stroke-width:1.5;"/>
    </g>
    <g id="line2d_42"/>
    <g id="text_40">
     <!-- Fit -->
     <g transform="translate(635.945455 63.451875)scale(0.12 -0.12)">
      <use xlink:href="#DejaVuSans-70"/>
      <use x="50.269531" xlink:href="#DejaVuSans-105"/>
      <use x="78.052734" xlink:href="#DejaVuSans-116"/>
     </g>
    </g>
   </g>
  </g>
 </g>
 <defs>
  <clipPath id="p986cdbb0ab">
   <rect height="163.08" width="380.454545" x="135" y="25.92"/>
  </clipPath>
  <clipPath id="pa600587176">
   <rect height="163.08" width="380.454545" x="591.545455" y="25.92"/>
  </clipPath>
 </defs>
</svg>
