<?xml version="1.0" encoding="utf-8" standalone="no"?>
<!DOCTYPE svg PUBLIC "-//W3C//DTD SVG 1.1//EN"
  "http://www.w3.org/Graphics/SVG/1.1/DTD/svg11.dtd">
<!-- Created with matplotlib (https://matplotlib.org/) -->
<svg height="216pt" version="1.1" viewBox="0 0 432 216" width="432pt" xmlns="http://www.w3.org/2000/svg" xmlns:xlink="http://www.w3.org/1999/xlink">
 <metadata>
  <rdf:RDF xmlns:cc="http://creativecommons.org/ns#" xmlns:dc="http://purl.org/dc/elements/1.1/" xmlns:rdf="http://www.w3.org/1999/02/22-rdf-syntax-ns#">
   <cc:Work>
    <dc:type rdf:resource="http://purl.org/dc/dcmitype/StillImage"/>
    <dc:date>2021-11-28T14:27:59.573923</dc:date>
    <dc:format>image/svg+xml</dc:format>
    <dc:creator>
     <cc:Agent>
      <dc:title>Matplotlib v3.3.4, https://matplotlib.org/</dc:title>
     </cc:Agent>
    </dc:creator>
   </cc:Work>
  </rdf:RDF>
 </metadata>
 <defs>
  <style type="text/css">*{stroke-linecap:butt;stroke-linejoin:round;}</style>
 </defs>
 <g id="figure_1">
  <g id="patch_1">
   <path d="M 0 216 
L 432 216 
L 432 0 
L 0 0 
z
" style="fill:none;"/>
  </g>
  <g id="axes_1">
   <g id="patch_2">
    <path d="M 54 189 
L 388.8 189 
L 388.8 25.92 
L 54 25.92 
z
" style="fill:#ffffff;"/>
   </g>
   <g id="PolyCollection_1">
    <defs>
     <path d="M 69.218182 -34.412727 
L 69.218182 -76.178928 
L 69.52285 -76.178948 
L 69.827518 -76.179034 
L 70.132187 -76.179231 
L 70.436855 -76.179582 
L 70.741523 -76.180133 
L 71.046192 -76.180927 
L 71.35086 -76.18201 
L 71.655528 -76.183426 
L 71.960197 -76.185217 
L 72.264865 -76.18743 
L 72.569533 -76.190107 
L 72.874201 -76.193291 
L 73.17887 -76.197027 
L 73.483538 -76.201358 
L 73.788206 -76.206326 
L 74.092875 -76.211974 
L 74.397543 -76.218344 
L 74.702211 -76.22548 
L 75.00688 -76.233422 
L 75.311548 -76.242212 
L 75.616216 -76.251891 
L 75.920885 -76.2625 
L 76.225553 -76.274079 
L 76.530221 -76.28667 
L 76.834889 -76.30031 
L 77.139558 -76.31504 
L 77.444226 -76.330897 
L 77.748894 -76.347922 
L 78.053563 -76.366151 
L 78.358231 -76.385622 
L 78.662899 -76.406371 
L 78.967568 -76.428436 
L 79.272236 -76.451851 
L 79.576904 -76.476653 
L 79.881572 -76.502876 
L 80.186241 -76.530555 
L 80.490909 -76.559722 
L 80.795577 -76.590411 
L 81.100246 -76.622655 
L 81.404914 -76.656484 
L 81.709582 -76.691932 
L 82.014251 -76.729027 
L 82.318919 -76.767799 
L 82.623587 -76.808279 
L 82.928256 -76.850494 
L 83.232924 -76.894472 
L 83.537592 -76.94024 
L 83.84226 -76.987825 
L 84.146929 -77.037253 
L 84.451597 -77.088548 
L 84.756265 -77.141734 
L 85.060934 -77.196835 
L 85.365602 -77.253873 
L 85.67027 -77.312871 
L 85.974939 -77.373849 
L 86.279607 -77.436828 
L 86.584275 -77.501827 
L 86.888943 -77.568865 
L 87.193612 -77.63796 
L 87.49828 -77.709129 
L 87.802948 -77.782387 
L 88.107617 -77.857752 
L 88.412285 -77.935236 
L 88.716953 -78.014853 
L 89.021622 -78.096617 
L 89.32629 -78.18054 
L 89.630958 -78.266632 
L 89.935627 -78.354903 
L 90.240295 -78.445364 
L 90.544963 -78.538022 
L 90.849631 -78.632886 
L 91.1543 -78.729961 
L 91.458968 -78.829254 
L 91.763636 -78.93077 
L 92.068305 -79.034512 
L 92.372973 -79.140484 
L 92.677641 -79.248689 
L 92.98231 -79.359126 
L 93.286978 -79.471798 
L 93.591646 -79.586704 
L 93.896314 -79.703841 
L 94.200983 -79.823209 
L 94.505651 -79.944803 
L 94.810319 -80.06862 
L 95.114988 -80.194656 
L 95.419656 -80.322904 
L 95.724324 -80.453357 
L 96.028993 -80.586008 
L 96.333661 -80.720849 
L 96.638329 -80.85787 
L 96.942998 -80.997061 
L 97.247666 -81.138412 
L 97.552334 -81.281909 
L 97.857002 -81.427541 
L 98.161671 -81.575294 
L 98.466339 -81.725153 
L 98.771007 -81.877103 
L 99.075676 -82.031127 
L 99.380344 -82.18721 
L 99.685012 -82.345332 
L 99.989681 -82.505476 
L 100.294349 -82.667622 
L 100.599017 -82.831749 
L 100.903686 -82.997837 
L 101.208354 -83.165864 
L 101.513022 -83.335807 
L 101.81769 -83.507643 
L 102.122359 -83.681348 
L 102.427027 -83.856896 
L 102.731695 -84.034263 
L 103.036364 -84.213421 
L 103.341032 -84.394345 
L 103.6457 -84.577005 
L 103.950369 -84.761374 
L 104.255037 -84.947422 
L 104.559705 -85.135121 
L 104.864373 -85.324438 
L 105.169042 -85.515343 
L 105.47371 -85.707805 
L 105.778378 -85.90179 
L 106.083047 -86.097267 
L 106.387715 -86.294201 
L 106.692383 -86.492558 
L 106.997052 -86.692303 
L 107.30172 -86.893401 
L 107.606388 -87.095817 
L 107.911057 -87.299514 
L 108.215725 -87.504455 
L 108.520393 -87.710602 
L 108.825061 -87.917919 
L 109.12973 -88.126366 
L 109.434398 -88.335904 
L 109.739066 -88.546495 
L 110.043735 -88.758099 
L 110.348403 -88.970676 
L 110.653071 -89.184186 
L 110.95774 -89.398587 
L 111.262408 -89.613839 
L 111.567076 -89.8299 
L 111.871744 -90.046727 
L 112.176413 -90.264281 
L 112.481081 -90.482516 
L 112.785749 -90.701392 
L 113.090418 -90.920865 
L 113.395086 -91.140892 
L 113.699754 -91.36143 
L 114.004423 -91.582434 
L 114.309091 -91.803862 
L 114.613759 -92.025669 
L 114.918428 -92.247811 
L 115.223096 -92.470244 
L 115.527764 -92.692923 
L 115.832432 -92.915805 
L 116.137101 -93.138845 
L 116.441769 -93.361997 
L 116.746437 -93.585218 
L 117.051106 -93.808462 
L 117.355774 -94.031686 
L 117.660442 -94.254844 
L 117.965111 -94.477893 
L 118.269779 -94.700786 
L 118.574447 -94.92348 
L 118.879115 -95.145931 
L 119.183784 -95.368093 
L 119.488452 -95.589923 
L 119.79312 -95.811377 
L 120.097789 -96.032411 
L 120.402457 -96.252981 
L 120.707125 -96.473043 
L 121.011794 -96.692555 
L 121.316462 -96.911472 
L 121.62113 -97.129753 
L 121.925799 -97.347354 
L 122.230467 -97.564232 
L 122.535135 -97.780347 
L 122.839803 -97.995656 
L 123.144472 -98.210118 
L 123.44914 -98.423691 
L 123.753808 -98.636335 
L 124.058477 -98.84801 
L 124.363145 -99.058675 
L 124.667813 -99.268291 
L 124.972482 -99.476818 
L 125.27715 -99.684219 
L 125.581818 -99.890454 
L 125.886486 -100.095486 
L 126.191155 -100.299277 
L 126.495823 -100.501791 
L 126.800491 -100.702992 
L 127.10516 -100.902843 
L 127.409828 -101.101309 
L 127.714496 -101.298356 
L 128.019165 -101.493949 
L 128.323833 -101.688055 
L 128.628501 -101.880641 
L 128.93317 -102.071675 
L 129.237838 -102.261124 
L 129.542506 -102.448959 
L 129.847174 -102.635147 
L 130.151843 -102.81966 
L 130.456511 -103.002468 
L 130.761179 -103.183544 
L 131.065848 -103.362858 
L 131.370516 -103.540384 
L 131.675184 -103.716097 
L 131.979853 -103.889969 
L 132.284521 -104.061977 
L 132.589189 -104.232096 
L 132.893857 -104.400303 
L 133.198526 -104.566575 
L 133.503194 -104.730891 
L 133.807862 -104.893228 
L 134.112531 -105.053568 
L 134.417199 -105.211891 
L 134.721867 -105.368177 
L 135.026536 -105.52241 
L 135.331204 -105.674571 
L 135.635872 -105.824646 
L 135.940541 -105.972618 
L 136.245209 -106.118473 
L 136.549877 -106.262198 
L 136.854545 -106.403779 
L 137.159214 -106.543205 
L 137.463882 -106.680464 
L 137.76855 -106.815546 
L 138.073219 -106.948442 
L 138.377887 -107.079144 
L 138.682555 -107.207643 
L 138.987224 -107.333933 
L 139.291892 -107.458009 
L 139.59656 -107.579864 
L 139.901229 -107.699496 
L 140.205897 -107.8169 
L 140.510565 -107.932075 
L 140.815233 -108.045019 
L 141.119902 -108.155732 
L 141.42457 -108.264214 
L 141.729238 -108.370466 
L 142.033907 -108.47449 
L 142.338575 -108.57629 
L 142.643243 -108.675869 
L 142.947912 -108.773232 
L 143.25258 -108.868386 
L 143.557248 -108.961335 
L 143.861916 -109.052088 
L 144.166585 -109.140654 
L 144.471253 -109.227041 
L 144.775921 -109.311259 
L 145.08059 -109.39332 
L 145.385258 -109.473235 
L 145.689926 -109.551017 
L 145.994595 -109.62668 
L 146.299263 -109.700237 
L 146.603931 -109.771704 
L 146.9086 -109.841098 
L 147.213268 -109.908434 
L 147.517936 -109.97373 
L 147.822604 -110.037006 
L 148.127273 -110.098281 
L 148.431941 -110.157573 
L 148.736609 -110.214905 
L 149.041278 -110.270299 
L 149.345946 -110.323775 
L 149.650614 -110.375359 
L 149.955283 -110.425073 
L 150.259951 -110.472943 
L 150.564619 -110.518994 
L 150.869287 -110.563252 
L 151.173956 -110.605744 
L 151.478624 -110.646498 
L 151.783292 -110.685542 
L 152.087961 -110.722905 
L 152.392629 -110.758617 
L 152.697297 -110.792707 
L 153.001966 -110.825208 
L 153.306634 -110.85615 
L 153.611302 -110.885566 
L 153.915971 -110.913489 
L 154.220639 -110.939952 
L 154.525307 -110.96499 
L 154.829975 -110.988636 
L 155.134644 -111.010926 
L 155.439312 -111.031895 
L 155.74398 -111.051581 
L 156.048649 -111.070019 
L 156.353317 -111.087247 
L 156.657985 -111.103303 
L 156.962654 -111.118224 
L 157.267322 -111.13205 
L 157.57199 -111.14482 
L 157.876658 -111.156573 
L 158.181327 -111.167348 
L 158.485995 -111.177187 
L 158.790663 -111.18613 
L 159.095332 -111.194219 
L 159.4 -111.201493 
L 159.704668 -111.207996 
L 160.009337 -111.213769 
L 160.314005 -111.218855 
L 160.618673 -111.223295 
L 160.923342 -111.227134 
L 161.22801 -111.230414 
L 161.532678 -111.233178 
L 161.837346 -111.235471 
L 162.142015 -111.237335 
L 162.446683 -111.238814 
L 162.751351 -111.239954 
L 163.05602 -111.240797 
L 163.360688 -111.241388 
L 163.665356 -111.241772 
L 163.970025 -111.241993 
L 164.274693 -111.242096 
L 164.579361 -111.242125 
L 164.884029 -111.242125 
L 165.188698 -111.24214 
L 165.493366 -111.242216 
L 165.798034 -111.242396 
L 166.102703 -111.242726 
L 166.407371 -111.24325 
L 166.712039 -111.244012 
L 167.016708 -111.245058 
L 167.321376 -111.24643 
L 167.626044 -111.248173 
L 167.930713 -111.250332 
L 168.235381 -111.252949 
L 168.540049 -111.256069 
L 168.844717 -111.259735 
L 169.149386 -111.26399 
L 169.454054 -111.268878 
L 169.758722 -111.27444 
L 170.063391 -111.28072 
L 170.368059 -111.287759 
L 170.672727 -111.2956 
L 170.977396 -111.304284 
L 171.282064 -111.313852 
L 171.586732 -111.324345 
L 171.8914 -111.335803 
L 172.196069 -111.348267 
L 172.500737 -111.361777 
L 172.805405 -111.376371 
L 173.110074 -111.392088 
L 173.414742 -111.408968 
L 173.71941 -111.427047 
L 174.024079 -111.446363 
L 174.328747 -111.466954 
L 174.633415 -111.488855 
L 174.938084 -111.512103 
L 175.242752 -111.536733 
L 175.54742 -111.56278 
L 175.852088 -111.590278 
L 176.156757 -111.619261 
L 176.461425 -111.649762 
L 176.766093 -111.681814 
L 177.070762 -111.715447 
L 177.37543 -111.750694 
L 177.680098 -111.787586 
L 177.984767 -111.826151 
L 178.289435 -111.86642 
L 178.594103 -111.90842 
L 178.898771 -111.952181 
L 179.20344 -111.997728 
L 179.508108 -112.045089 
L 179.812776 -112.094289 
L 180.117445 -112.145354 
L 180.422113 -112.198307 
L 180.726781 -112.253172 
L 181.03145 -112.309971 
L 181.336118 -112.368728 
L 181.640786 -112.429462 
L 181.945455 -112.492195 
L 182.250123 -112.556945 
L 182.554791 -112.623732 
L 182.859459 -112.692574 
L 183.164128 -112.763487 
L 183.468796 -112.836489 
L 183.773464 -112.911594 
L 184.078133 -112.988817 
L 184.382801 -113.068173 
L 184.687469 -113.149673 
L 184.992138 -113.23333 
L 185.296806 -113.319155 
L 185.601474 -113.407159 
L 185.906143 -113.497351 
L 186.210811 -113.589739 
L 186.515479 -113.684332 
L 186.820147 -113.781136 
L 187.124816 -113.880157 
L 187.429484 -113.9814 
L 187.734152 -114.084869 
L 188.038821 -114.190567 
L 188.343489 -114.298498 
L 188.648157 -114.408662 
L 188.952826 -114.52106 
L 189.257494 -114.635691 
L 189.562162 -114.752555 
L 189.86683 -114.87165 
L 190.171499 -114.992971 
L 190.476167 -115.116516 
L 190.780835 -115.24228 
L 191.085504 -115.370257 
L 191.390172 -115.50044 
L 191.69484 -115.632822 
L 191.999509 -115.767395 
L 192.304177 -115.904149 
L 192.608845 -116.043075 
L 192.913514 -116.184161 
L 193.218182 -116.327396 
L 193.52285 -116.472767 
L 193.827518 -116.620261 
L 194.132187 -116.769862 
L 194.436855 -116.921556 
L 194.741523 -117.075328 
L 195.046192 -117.231159 
L 195.35086 -117.389032 
L 195.655528 -117.548929 
L 195.960197 -117.71083 
L 196.264865 -117.874716 
L 196.569533 -118.040565 
L 196.874201 -118.208355 
L 197.17887 -118.378064 
L 197.483538 -118.549669 
L 197.788206 -118.723146 
L 198.092875 -118.89847 
L 198.397543 -119.075615 
L 198.702211 -119.254555 
L 199.00688 -119.435264 
L 199.311548 -119.617713 
L 199.616216 -119.801874 
L 199.920885 -119.987718 
L 200.225553 -120.175215 
L 200.530221 -120.364336 
L 200.834889 -120.555048 
L 201.139558 -120.74732 
L 201.444226 -120.941121 
L 201.748894 -121.136416 
L 202.053563 -121.333173 
L 202.358231 -121.531358 
L 202.662899 -121.730935 
L 202.967568 -121.931869 
L 203.272236 -122.134125 
L 203.576904 -122.337667 
L 203.881572 -122.542457 
L 204.186241 -122.748459 
L 204.490909 -122.955634 
L 204.795577 -123.163944 
L 205.100246 -123.373351 
L 205.404914 -123.583815 
L 205.709582 -123.795297 
L 206.014251 -124.007757 
L 206.318919 -124.221155 
L 206.623587 -124.435449 
L 206.928256 -124.650598 
L 207.232924 -124.866562 
L 207.537592 -125.083298 
L 207.84226 -125.300765 
L 208.146929 -125.518919 
L 208.451597 -125.737719 
L 208.756265 -125.957121 
L 209.060934 -126.177082 
L 209.365602 -126.397559 
L 209.67027 -126.618509 
L 209.974939 -126.839887 
L 210.279607 -127.06165 
L 210.584275 -127.283753 
L 210.888943 -127.506153 
L 211.193612 -127.728805 
L 211.49828 -127.951664 
L 211.802948 -128.174686 
L 212.107617 -128.397827 
L 212.412285 -128.621042 
L 212.716953 -128.844286 
L 213.021622 -129.067515 
L 213.32629 -129.290684 
L 213.630958 -129.513748 
L 213.935627 -129.736663 
L 214.240295 -129.959384 
L 214.544963 -130.181866 
L 214.849631 -130.404067 
L 215.1543 -130.62594 
L 215.458968 -130.847443 
L 215.763636 -131.06853 
L 216.068305 -131.289159 
L 216.372973 -131.509286 
L 216.677641 -131.728868 
L 216.98231 -131.94786 
L 217.286978 -132.166221 
L 217.591646 -132.383907 
L 217.896314 -132.600877 
L 218.200983 -132.817088 
L 218.505651 -133.032498 
L 218.810319 -133.247066 
L 219.114988 -133.46075 
L 219.419656 -133.67351 
L 219.724324 -133.885306 
L 220.028993 -134.096097 
L 220.333661 -134.305843 
L 220.638329 -134.514506 
L 220.942998 -134.722047 
L 221.247666 -134.928427 
L 221.552334 -135.133609 
L 221.857002 -135.337554 
L 222.161671 -135.540227 
L 222.466339 -135.74159 
L 222.771007 -135.941609 
L 223.075676 -136.140247 
L 223.380344 -136.337469 
L 223.685012 -136.533243 
L 223.989681 -136.727533 
L 224.294349 -136.920307 
L 224.599017 -137.111533 
L 224.903686 -137.301178 
L 225.208354 -137.489212 
L 225.513022 -137.675604 
L 225.81769 -137.860324 
L 226.122359 -138.043343 
L 226.427027 -138.224632 
L 226.731695 -138.404164 
L 227.036364 -138.581911 
L 227.341032 -138.757847 
L 227.6457 -138.931947 
L 227.950369 -139.104185 
L 228.255037 -139.274536 
L 228.559705 -139.442979 
L 228.864373 -139.609489 
L 229.169042 -139.774046 
L 229.47371 -139.936627 
L 229.778378 -140.097213 
L 230.083047 -140.255784 
L 230.387715 -140.412321 
L 230.692383 -140.566807 
L 230.997052 -140.719223 
L 231.30172 -140.869554 
L 231.606388 -141.017785 
L 231.911057 -141.163901 
L 232.215725 -141.307887 
L 232.520393 -141.449732 
L 232.825061 -141.589422 
L 233.12973 -141.726948 
L 233.434398 -141.862297 
L 233.739066 -141.995462 
L 234.043735 -142.126433 
L 234.348403 -142.255203 
L 234.653071 -142.381764 
L 234.95774 -142.506111 
L 235.262408 -142.628239 
L 235.567076 -142.748144 
L 235.871744 -142.865822 
L 236.176413 -142.98127 
L 236.481081 -143.094488 
L 236.785749 -143.205474 
L 237.090418 -143.31423 
L 237.395086 -143.420755 
L 237.699754 -143.525052 
L 238.004423 -143.627125 
L 238.309091 -143.726976 
L 238.613759 -143.82461 
L 238.918428 -143.920034 
L 239.223096 -144.013253 
L 239.527764 -144.104276 
L 239.832432 -144.193109 
L 240.137101 -144.279763 
L 240.441769 -144.364246 
L 240.746437 -144.446571 
L 241.051106 -144.526749 
L 241.355774 -144.604792 
L 241.660442 -144.680713 
L 241.965111 -144.754528 
L 242.269779 -144.82625 
L 242.574447 -144.895897 
L 242.879115 -144.963484 
L 243.183784 -145.02903 
L 243.488452 -145.092553 
L 243.79312 -145.154071 
L 244.097789 -145.213606 
L 244.402457 -145.271177 
L 244.707125 -145.326807 
L 245.011794 -145.380518 
L 245.316462 -145.432332 
L 245.62113 -145.482275 
L 245.925799 -145.530369 
L 246.230467 -145.576642 
L 246.535135 -145.621118 
L 246.839803 -145.663825 
L 247.144472 -145.704791 
L 247.44914 -145.744043 
L 247.753808 -145.78161 
L 248.058477 -145.817523 
L 248.363145 -145.851811 
L 248.667813 -145.884505 
L 248.972482 -145.915636 
L 249.27715 -145.945238 
L 249.581818 -145.973342 
L 249.886486 -145.999982 
L 250.191155 -146.025192 
L 250.495823 -146.049007 
L 250.800491 -146.071461 
L 251.10516 -146.092591 
L 251.409828 -146.112432 
L 251.714496 -146.131021 
L 252.019165 -146.148396 
L 252.323833 -146.164593 
L 252.628501 -146.179652 
L 252.93317 -146.19361 
L 253.237838 -146.206507 
L 253.542506 -146.218382 
L 253.847174 -146.229275 
L 254.151843 -146.239227 
L 254.456511 -146.248278 
L 254.761179 -146.256469 
L 255.065848 -146.263841 
L 255.370516 -146.270436 
L 255.675184 -146.276296 
L 255.979853 -146.281464 
L 256.284521 -146.285981 
L 256.589189 -146.289891 
L 256.893857 -146.293238 
L 257.198526 -146.296063 
L 257.503194 -146.298411 
L 257.807862 -146.300325 
L 258.112531 -146.301849 
L 258.417199 -146.303028 
L 258.721867 -146.303905 
L 259.026536 -146.304525 
L 259.331204 -146.304932 
L 259.635872 -146.305171 
L 259.940541 -146.305285 
L 260.245209 -146.305321 
L 260.549877 -146.305322 
L 260.854545 -146.305333 
L 261.159214 -146.305399 
L 261.463882 -146.305564 
L 261.76855 -146.305873 
L 262.073219 -146.306371 
L 262.377887 -146.307102 
L 262.682555 -146.30811 
L 262.987224 -146.30944 
L 263.291892 -146.311135 
L 263.59656 -146.31324 
L 263.901229 -146.315799 
L 264.205897 -146.318855 
L 264.510565 -146.322452 
L 264.815233 -146.326633 
L 265.119902 -146.33144 
L 265.42457 -146.336918 
L 265.729238 -146.343107 
L 266.033907 -146.350051 
L 266.338575 -146.357791 
L 266.643243 -146.36637 
L 266.947912 -146.375827 
L 267.25258 -146.386204 
L 267.557248 -146.397542 
L 267.861916 -146.409881 
L 268.166585 -146.42326 
L 268.471253 -146.437719 
L 268.775921 -146.453296 
L 269.08059 -146.470031 
L 269.385258 -146.487961 
L 269.689926 -146.507124 
L 269.994595 -146.527557 
L 270.299263 -146.549295 
L 270.603931 -146.572376 
L 270.9086 -146.596835 
L 271.213268 -146.622706 
L 271.517936 -146.650025 
L 271.822604 -146.678824 
L 272.127273 -146.709137 
L 272.431941 -146.740996 
L 272.736609 -146.774434 
L 273.041278 -146.809482 
L 273.345946 -146.84617 
L 273.650614 -146.884528 
L 273.955283 -146.924587 
L 274.259951 -146.966373 
L 274.564619 -147.009917 
L 274.869287 -147.055244 
L 275.173956 -147.102381 
L 275.478624 -147.151354 
L 275.783292 -147.202189 
L 276.087961 -147.254909 
L 276.392629 -147.309538 
L 276.697297 -147.366099 
L 277.001966 -147.424614 
L 277.306634 -147.485105 
L 277.611302 -147.547592 
L 277.915971 -147.612094 
L 278.220639 -147.67863 
L 278.525307 -147.747219 
L 278.829975 -147.817877 
L 279.134644 -147.890622 
L 279.439312 -147.965469 
L 279.74398 -148.042431 
L 280.048649 -148.121524 
L 280.353317 -148.202761 
L 280.657985 -148.286153 
L 280.962654 -148.371712 
L 281.267322 -148.459448 
L 281.57199 -148.549371 
L 281.876658 -148.64149 
L 282.181327 -148.735812 
L 282.485995 -148.832344 
L 282.790663 -148.931093 
L 283.095332 -149.032063 
L 283.4 -149.135259 
L 283.704668 -149.240684 
L 284.009337 -149.348341 
L 284.314005 -149.458231 
L 284.618673 -149.570355 
L 284.923342 -149.684713 
L 285.22801 -149.801303 
L 285.532678 -149.920124 
L 285.837346 -150.041173 
L 286.142015 -150.164445 
L 286.446683 -150.289937 
L 286.751351 -150.417643 
L 287.05602 -150.547556 
L 287.360688 -150.679669 
L 287.665356 -150.813974 
L 287.970025 -150.950461 
L 288.274693 -151.089121 
L 288.579361 -151.229943 
L 288.884029 -151.372915 
L 289.188698 -151.518025 
L 289.493366 -151.665259 
L 289.798034 -151.814603 
L 290.102703 -151.966041 
L 290.407371 -152.119559 
L 290.712039 -152.275138 
L 291.016708 -152.432762 
L 291.321376 -152.592412 
L 291.626044 -152.754069 
L 291.930713 -152.917712 
L 292.235381 -153.083321 
L 292.540049 -153.250875 
L 292.844717 -153.42035 
L 293.149386 -153.591724 
L 293.454054 -153.764972 
L 293.758722 -153.940071 
L 294.063391 -154.116994 
L 294.368059 -154.295716 
L 294.672727 -154.476209 
L 294.977396 -154.658446 
L 295.282064 -154.842399 
L 295.586732 -155.028038 
L 295.8914 -155.215334 
L 296.196069 -155.404257 
L 296.500737 -155.594776 
L 296.805405 -155.786859 
L 297.110074 -155.980474 
L 297.414742 -156.175588 
L 297.71941 -156.372167 
L 298.024079 -156.570179 
L 298.328747 -156.769587 
L 298.633415 -156.970357 
L 298.938084 -157.172453 
L 299.242752 -157.375839 
L 299.54742 -157.580478 
L 299.852088 -157.786333 
L 300.156757 -157.993366 
L 300.461425 -158.20154 
L 300.766093 -158.410814 
L 301.070762 -158.621151 
L 301.37543 -158.83251 
L 301.680098 -159.044852 
L 301.984767 -159.258137 
L 302.289435 -159.472323 
L 302.594103 -159.68737 
L 302.898771 -159.903236 
L 303.20344 -160.11988 
L 303.508108 -160.337259 
L 303.812776 -160.555331 
L 304.117445 -160.774054 
L 304.422113 -160.993385 
L 304.726781 -161.21328 
L 305.03145 -161.433696 
L 305.336118 -161.65459 
L 305.640786 -161.875918 
L 305.945455 -162.097636 
L 306.250123 -162.3197 
L 306.554791 -162.542066 
L 306.859459 -162.764689 
L 307.164128 -162.987525 
L 307.468796 -163.21053 
L 307.773464 -163.433659 
L 308.078133 -163.656867 
L 308.382801 -163.88011 
L 308.687469 -164.103343 
L 308.992138 -164.326522 
L 309.296806 -164.549601 
L 309.601474 -164.772536 
L 309.906143 -164.995284 
L 310.210811 -165.217798 
L 310.515479 -165.440035 
L 310.820147 -165.661951 
L 311.124816 -165.883501 
L 311.429484 -166.104642 
L 311.734152 -166.32533 
L 312.038821 -166.545521 
L 312.343489 -166.765171 
L 312.648157 -166.984238 
L 312.952826 -167.202679 
L 313.257494 -167.42045 
L 313.562162 -167.63751 
L 313.86683 -167.853816 
L 314.171499 -168.069327 
L 314.476167 -168.284 
L 314.780835 -168.497795 
L 315.085504 -168.710671 
L 315.390172 -168.922587 
L 315.69484 -169.133503 
L 315.999509 -169.34338 
L 316.304177 -169.552178 
L 316.608845 -169.759858 
L 316.913514 -169.966382 
L 317.218182 -170.171713 
L 317.52285 -170.375812 
L 317.827518 -170.578643 
L 318.132187 -170.780169 
L 318.436855 -170.980354 
L 318.741523 -171.179163 
L 319.046192 -171.376561 
L 319.35086 -171.572514 
L 319.655528 -171.766988 
L 319.960197 -171.95995 
L 320.264865 -172.151367 
L 320.569533 -172.341208 
L 320.874201 -172.529441 
L 321.17887 -172.716036 
L 321.483538 -172.900962 
L 321.788206 -173.084191 
L 322.092875 -173.265694 
L 322.397543 -173.445443 
L 322.702211 -173.623411 
L 323.00688 -173.79957 
L 323.311548 -173.973896 
L 323.616216 -174.146364 
L 323.920885 -174.316948 
L 324.225553 -174.485626 
L 324.530221 -174.652374 
L 324.834889 -174.817172 
L 325.139558 -174.979996 
L 325.444226 -175.140828 
L 325.748894 -175.299647 
L 326.053563 -175.456435 
L 326.358231 -175.611172 
L 326.662899 -175.763843 
L 326.967568 -175.914431 
L 327.272236 -176.06292 
L 327.576904 -176.209296 
L 327.881572 -176.353544 
L 328.186241 -176.495652 
L 328.490909 -176.635607 
L 328.795577 -176.773399 
L 329.100246 -176.909016 
L 329.404914 -177.042449 
L 329.709582 -177.173689 
L 330.014251 -177.302729 
L 330.318919 -177.429562 
L 330.623587 -177.554181 
L 330.928256 -177.676581 
L 331.232924 -177.796759 
L 331.537592 -177.914709 
L 331.84226 -178.030431 
L 332.146929 -178.143923 
L 332.451597 -178.255183 
L 332.756265 -178.364212 
L 333.060934 -178.47101 
L 333.365602 -178.575581 
L 333.67027 -178.677926 
L 333.974939 -178.778049 
L 334.279607 -178.875955 
L 334.584275 -178.97165 
L 334.888943 -179.065139 
L 335.193612 -179.15643 
L 335.49828 -179.245531 
L 335.802948 -179.332451 
L 336.107617 -179.417201 
L 336.412285 -179.49979 
L 336.716953 -179.58023 
L 337.021622 -179.658534 
L 337.32629 -179.734715 
L 337.630958 -179.808787 
L 337.935627 -179.880765 
L 338.240295 -179.950666 
L 338.544963 -180.018505 
L 338.849631 -180.0843 
L 339.1543 -180.148069 
L 339.458968 -180.209833 
L 339.763636 -180.269609 
L 340.068305 -180.32742 
L 340.372973 -180.383287 
L 340.677641 -180.437232 
L 340.98231 -180.489277 
L 341.286978 -180.539448 
L 341.591646 -180.587768 
L 341.896314 -180.634262 
L 342.200983 -180.678958 
L 342.505651 -180.72188 
L 342.810319 -180.763058 
L 343.114988 -180.802518 
L 343.419656 -180.840291 
L 343.724324 -180.876405 
L 344.028993 -180.91089 
L 344.333661 -180.943778 
L 344.638329 -180.975099 
L 344.942998 -181.004886 
L 345.247666 -181.033172 
L 345.552334 -181.05999 
L 345.857002 -181.085374 
L 346.161671 -181.109358 
L 346.466339 -181.131977 
L 346.771007 -181.153267 
L 347.075676 -181.173264 
L 347.380344 -181.192005 
L 347.685012 -181.209526 
L 347.989681 -181.225866 
L 348.294349 -181.241062 
L 348.599017 -181.255153 
L 348.903686 -181.268178 
L 349.208354 -181.280177 
L 349.513022 -181.291188 
L 349.81769 -181.301253 
L 350.122359 -181.310412 
L 350.427027 -181.318706 
L 350.731695 -181.326177 
L 351.036364 -181.332865 
L 351.341032 -181.338813 
L 351.6457 -181.344063 
L 351.950369 -181.348658 
L 352.255037 -181.35264 
L 352.559705 -181.356053 
L 352.864373 -181.35894 
L 353.169042 -181.361344 
L 353.47371 -181.363309 
L 353.778378 -181.364879 
L 354.083047 -181.366098 
L 354.387715 -181.367009 
L 354.692383 -181.367658 
L 354.997052 -181.368089 
L 355.30172 -181.368346 
L 355.606388 -181.368474 
L 355.911057 -181.368516 
L 356.215725 -181.368519 
L 356.520393 -181.368527 
L 356.825061 -181.368583 
L 357.12973 -181.368734 
L 357.434398 -181.369023 
L 357.739066 -181.369496 
L 358.043735 -181.370195 
L 358.348403 -181.371167 
L 358.653071 -181.372455 
L 358.95774 -181.374103 
L 359.262408 -181.376156 
L 359.567076 -181.378657 
L 359.871744 -181.381649 
L 360.176413 -181.385178 
L 360.481081 -181.389284 
L 360.785749 -181.394013 
L 361.090418 -181.399406 
L 361.395086 -181.405506 
L 361.699754 -181.412355 
L 362.004423 -181.419995 
L 362.309091 -181.428468 
L 362.613759 -181.437816 
L 362.918428 -181.448078 
L 363.223096 -181.459296 
L 363.527764 -181.47151 
L 363.832432 -181.484759 
L 364.137101 -181.499084 
L 364.441769 -181.514522 
L 364.746437 -181.531113 
L 365.051106 -181.548894 
L 365.355774 -181.567904 
L 365.660442 -181.588179 
L 365.965111 -181.609755 
L 366.269779 -181.63267 
L 366.574447 -181.656958 
L 366.879115 -181.682654 
L 367.183784 -181.709793 
L 367.488452 -181.738409 
L 367.79312 -181.768535 
L 368.097789 -181.800203 
L 368.402457 -181.833445 
L 368.707125 -181.868294 
L 369.011794 -181.904779 
L 369.316462 -181.942931 
L 369.62113 -181.98278 
L 369.925799 -182.024353 
L 370.230467 -182.067679 
L 370.535135 -182.112786 
L 370.839803 -182.1597 
L 371.144472 -182.208447 
L 371.44914 -182.259052 
L 371.753808 -182.311539 
L 372.058477 -182.365933 
L 372.363145 -182.422256 
L 372.667813 -182.480531 
L 372.972482 -182.540778 
L 373.27715 -182.603019 
L 373.581818 -182.667273 
L 373.581818 -140.903755 
L 373.581818 -140.903755 
L 373.27715 -140.839452 
L 372.972482 -140.777161 
L 372.667813 -140.716862 
L 372.363145 -140.658535 
L 372.058477 -140.602157 
L 371.753808 -140.547707 
L 371.44914 -140.495162 
L 371.144472 -140.444499 
L 370.839803 -140.395693 
L 370.535135 -140.348719 
L 370.230467 -140.303551 
L 369.925799 -140.260163 
L 369.62113 -140.218527 
L 369.316462 -140.178616 
L 369.011794 -140.1404 
L 368.707125 -140.103851 
L 368.402457 -140.068938 
L 368.097789 -140.035631 
L 367.79312 -140.003899 
L 367.488452 -139.973709 
L 367.183784 -139.945029 
L 366.879115 -139.917826 
L 366.574447 -139.892067 
L 366.269779 -139.867716 
L 365.965111 -139.844739 
L 365.660442 -139.823101 
L 365.355774 -139.802765 
L 365.051106 -139.783695 
L 364.746437 -139.765855 
L 364.441769 -139.749206 
L 364.137101 -139.733711 
L 363.832432 -139.719331 
L 363.527764 -139.706027 
L 363.223096 -139.69376 
L 362.918428 -139.682491 
L 362.613759 -139.672179 
L 362.309091 -139.662784 
L 362.004423 -139.654264 
L 361.699754 -139.646579 
L 361.395086 -139.639688 
L 361.090418 -139.633547 
L 360.785749 -139.628115 
L 360.481081 -139.62335 
L 360.176413 -139.619209 
L 359.871744 -139.615649 
L 359.567076 -139.612626 
L 359.262408 -139.610097 
L 358.95774 -139.608019 
L 358.653071 -139.606348 
L 358.348403 -139.60504 
L 358.043735 -139.60405 
L 357.739066 -139.603334 
L 357.434398 -139.602849 
L 357.12973 -139.602549 
L 356.825061 -139.602391 
L 356.520393 -139.602328 
L 356.215725 -139.602318 
L 355.911057 -139.602315 
L 355.606388 -139.602274 
L 355.30172 -139.602151 
L 354.997052 -139.601902 
L 354.692383 -139.601481 
L 354.387715 -139.600845 
L 354.083047 -139.599948 
L 353.778378 -139.598747 
L 353.47371 -139.597197 
L 353.169042 -139.595254 
L 352.864373 -139.592875 
L 352.559705 -139.590015 
L 352.255037 -139.586631 
L 351.950369 -139.582681 
L 351.6457 -139.57812 
L 351.341032 -139.572905 
L 351.036364 -139.566995 
L 350.731695 -139.560347 
L 350.427027 -139.552919 
L 350.122359 -139.544669 
L 349.81769 -139.535556 
L 349.513022 -139.525539 
L 349.208354 -139.514577 
L 348.903686 -139.502629 
L 348.599017 -139.489657 
L 348.294349 -139.475619 
L 347.989681 -139.460479 
L 347.685012 -139.444195 
L 347.380344 -139.426732 
L 347.075676 -139.40805 
L 346.771007 -139.388112 
L 346.466339 -139.366883 
L 346.161671 -139.344325 
L 345.857002 -139.320403 
L 345.552334 -139.295083 
L 345.247666 -139.268328 
L 344.942998 -139.240106 
L 344.638329 -139.210382 
L 344.333661 -139.179125 
L 344.028993 -139.146301 
L 343.724324 -139.11188 
L 343.419656 -139.075831 
L 343.114988 -139.038122 
L 342.810319 -138.998725 
L 342.505651 -138.957611 
L 342.200983 -138.914751 
L 341.896314 -138.870118 
L 341.591646 -138.823684 
L 341.286978 -138.775425 
L 340.98231 -138.725314 
L 340.677641 -138.673327 
L 340.372973 -138.61944 
L 340.068305 -138.563629 
L 339.763636 -138.505873 
L 339.458968 -138.44615 
L 339.1543 -138.384439 
L 338.849631 -138.32072 
L 338.544963 -138.254974 
L 338.240295 -138.187182 
L 337.935627 -138.117327 
L 337.630958 -138.045393 
L 337.32629 -137.971362 
L 337.021622 -137.895221 
L 336.716953 -137.816955 
L 336.412285 -137.73655 
L 336.107617 -137.653995 
L 335.802948 -137.569276 
L 335.49828 -137.482385 
L 335.193612 -137.39331 
L 334.888943 -137.302043 
L 334.584275 -137.208576 
L 334.279607 -137.112901 
L 333.974939 -137.015012 
L 333.67027 -136.914903 
L 333.365602 -136.81257 
L 333.060934 -136.708009 
L 332.756265 -136.601217 
L 332.451597 -136.492192 
L 332.146929 -136.380934 
L 331.84226 -136.267442 
L 331.537592 -136.151717 
L 331.232924 -136.03376 
L 330.928256 -135.913574 
L 330.623587 -135.791162 
L 330.318919 -135.66653 
L 330.014251 -135.539681 
L 329.709582 -135.410622 
L 329.404914 -135.279361 
L 329.100246 -135.145904 
L 328.795577 -135.010262 
L 328.490909 -134.872442 
L 328.186241 -134.732456 
L 327.881572 -134.590316 
L 327.576904 -134.446033 
L 327.272236 -134.29962 
L 326.967568 -134.151092 
L 326.662899 -134.000463 
L 326.358231 -133.847749 
L 326.053563 -133.692966 
L 325.748894 -133.536132 
L 325.444226 -133.377265 
L 325.139558 -133.216383 
L 324.834889 -133.053506 
L 324.530221 -132.888656 
L 324.225553 -132.721853 
L 323.920885 -132.553119 
L 323.616216 -132.382478 
L 323.311548 -132.209952 
L 323.00688 -132.035567 
L 322.702211 -131.859347 
L 322.397543 -131.681318 
L 322.092875 -131.501508 
L 321.788206 -131.319943 
L 321.483538 -131.136651 
L 321.17887 -130.951661 
L 320.874201 -130.765002 
L 320.569533 -130.576705 
L 320.264865 -130.3868 
L 319.960197 -130.195318 
L 319.655528 -130.002292 
L 319.35086 -129.807754 
L 319.046192 -129.611737 
L 318.741523 -129.414276 
L 318.436855 -129.215404 
L 318.132187 -129.015156 
L 317.827518 -128.813568 
L 317.52285 -128.610677 
L 317.218182 -128.406518 
L 316.913514 -128.201128 
L 316.608845 -127.994546 
L 316.304177 -127.786808 
L 315.999509 -127.577955 
L 315.69484 -127.368023 
L 315.390172 -127.157054 
L 315.085504 -126.945087 
L 314.780835 -126.732161 
L 314.476167 -126.518318 
L 314.171499 -126.303598 
L 313.86683 -126.088043 
L 313.562162 -125.871695 
L 313.257494 -125.654594 
L 312.952826 -125.436784 
L 312.648157 -125.218306 
L 312.343489 -124.999205 
L 312.038821 -124.779522 
L 311.734152 -124.559301 
L 311.429484 -124.338585 
L 311.124816 -124.117419 
L 310.820147 -123.895846 
L 310.515479 -123.673909 
L 310.210811 -123.451653 
L 309.906143 -123.229123 
L 309.601474 -123.006363 
L 309.296806 -122.783417 
L 308.992138 -122.560329 
L 308.687469 -122.337145 
L 308.382801 -122.113909 
L 308.078133 -121.890666 
L 307.773464 -121.66746 
L 307.468796 -121.444335 
L 307.164128 -121.221338 
L 306.859459 -120.998511 
L 306.554791 -120.7759 
L 306.250123 -120.553549 
L 305.945455 -120.331503 
L 305.640786 -120.109804 
L 305.336118 -119.888499 
L 305.03145 -119.667629 
L 304.726781 -119.44724 
L 304.422113 -119.227374 
L 304.117445 -119.008075 
L 303.812776 -118.789386 
L 303.508108 -118.571349 
L 303.20344 -118.354008 
L 302.898771 -118.137405 
L 302.594103 -117.92158 
L 302.289435 -117.706577 
L 301.984767 -117.492437 
L 301.680098 -117.2792 
L 301.37543 -117.066907 
L 301.070762 -116.855598 
L 300.766093 -116.645314 
L 300.461425 -116.436093 
L 300.156757 -116.227975 
L 299.852088 -116.020998 
L 299.54742 -115.815201 
L 299.242752 -115.610621 
L 298.938084 -115.407294 
L 298.633415 -115.205259 
L 298.328747 -115.00455 
L 298.024079 -114.805204 
L 297.71941 -114.607256 
L 297.414742 -114.410739 
L 297.110074 -114.215689 
L 296.805405 -114.022138 
L 296.500737 -113.83012 
L 296.196069 -113.639665 
L 295.8914 -113.450806 
L 295.586732 -113.263574 
L 295.282064 -113.077999 
L 294.977396 -112.894109 
L 294.672727 -112.711936 
L 294.368059 -112.531505 
L 294.063391 -112.352846 
L 293.758722 -112.175984 
L 293.454054 -112.000946 
L 293.149386 -111.827757 
L 292.844717 -111.656442 
L 292.540049 -111.487024 
L 292.235381 -111.319527 
L 291.930713 -111.153973 
L 291.626044 -110.990383 
L 291.321376 -110.828779 
L 291.016708 -110.669179 
L 290.712039 -110.511605 
L 290.407371 -110.356073 
L 290.102703 -110.202601 
L 289.798034 -110.051206 
L 289.493366 -109.901904 
L 289.188698 -109.75471 
L 288.884029 -109.609638 
L 288.579361 -109.466702 
L 288.274693 -109.325913 
L 287.970025 -109.187284 
L 287.665356 -109.050826 
L 287.360688 -108.916548 
L 287.05602 -108.784459 
L 286.751351 -108.654568 
L 286.446683 -108.526882 
L 286.142015 -108.401407 
L 285.837346 -108.278149 
L 285.532678 -108.157112 
L 285.22801 -108.038301 
L 284.923342 -107.921718 
L 284.618673 -107.807364 
L 284.314005 -107.695242 
L 284.009337 -107.585352 
L 283.704668 -107.477692 
L 283.4 -107.372261 
L 283.095332 -107.269056 
L 282.790663 -107.168075 
L 282.485995 -107.069313 
L 282.181327 -106.972765 
L 281.876658 -106.878424 
L 281.57199 -106.786285 
L 281.267322 -106.696338 
L 280.962654 -106.608576 
L 280.657985 -106.522989 
L 280.353317 -106.439567 
L 280.048649 -106.358298 
L 279.74398 -106.27917 
L 279.439312 -106.20217 
L 279.134644 -106.127285 
L 278.829975 -106.054499 
L 278.525307 -105.983798 
L 278.220639 -105.915164 
L 277.915971 -105.848581 
L 277.611302 -105.784031 
L 277.306634 -105.721495 
L 277.001966 -105.660952 
L 276.697297 -105.602384 
L 276.392629 -105.545768 
L 276.087961 -105.491083 
L 275.783292 -105.438306 
L 275.478624 -105.387414 
L 275.173956 -105.338381 
L 274.869287 -105.291184 
L 274.564619 -105.245796 
L 274.259951 -105.202191 
L 273.955283 -105.160342 
L 273.650614 -105.12022 
L 273.345946 -105.081798 
L 273.041278 -105.045046 
L 272.736609 -105.009935 
L 272.431941 -104.976433 
L 272.127273 -104.944509 
L 271.822604 -104.914132 
L 271.517936 -104.885269 
L 271.213268 -104.857887 
L 270.9086 -104.831952 
L 270.603931 -104.80743 
L 270.299263 -104.784287 
L 269.994595 -104.762486 
L 269.689926 -104.741993 
L 269.385258 -104.72277 
L 269.08059 -104.70478 
L 268.775921 -104.687987 
L 268.471253 -104.672353 
L 268.166585 -104.657838 
L 267.861916 -104.644405 
L 267.557248 -104.632013 
L 267.25258 -104.620623 
L 266.947912 -104.610196 
L 266.643243 -104.600691 
L 266.338575 -104.592066 
L 266.033907 -104.584281 
L 265.729238 -104.577294 
L 265.42457 -104.571064 
L 265.119902 -104.565547 
L 264.815233 -104.560703 
L 264.510565 -104.556488 
L 264.205897 -104.552858 
L 263.901229 -104.549772 
L 263.59656 -104.547185 
L 263.291892 -104.545054 
L 262.987224 -104.543335 
L 262.682555 -104.541985 
L 262.377887 -104.540958 
L 262.073219 -104.540212 
L 261.76855 -104.539701 
L 261.463882 -104.539381 
L 261.159214 -104.539207 
L 260.854545 -104.539135 
L 260.549877 -104.539121 
L 260.245209 -104.539119 
L 259.940541 -104.539086 
L 259.635872 -104.538975 
L 259.331204 -104.538744 
L 259.026536 -104.538346 
L 258.721867 -104.537739 
L 258.417199 -104.536876 
L 258.112531 -104.535715 
L 257.807862 -104.53421 
L 257.503194 -104.532318 
L 257.198526 -104.529994 
L 256.893857 -104.527196 
L 256.589189 -104.523879 
L 256.284521 -104.52 
L 255.979853 -104.515516 
L 255.675184 -104.510384 
L 255.370516 -104.504562 
L 255.065848 -104.498006 
L 254.761179 -104.490676 
L 254.456511 -104.482529 
L 254.151843 -104.473524 
L 253.847174 -104.46362 
L 253.542506 -104.452776 
L 253.237838 -104.440951 
L 252.93317 -104.428107 
L 252.628501 -104.414202 
L 252.323833 -104.399199 
L 252.019165 -104.383057 
L 251.714496 -104.365741 
L 251.409828 -104.34721 
L 251.10516 -104.327429 
L 250.800491 -104.30636 
L 250.495823 -104.283967 
L 250.191155 -104.260214 
L 249.886486 -104.235067 
L 249.581818 -104.20849 
L 249.27715 -104.180449 
L 248.972482 -104.150911 
L 248.667813 -104.119844 
L 248.363145 -104.087214 
L 248.058477 -104.052991 
L 247.753808 -104.017142 
L 247.44914 -103.979639 
L 247.144472 -103.940451 
L 246.839803 -103.899548 
L 246.535135 -103.856904 
L 246.230467 -103.81249 
L 245.925799 -103.766278 
L 245.62113 -103.718244 
L 245.316462 -103.668362 
L 245.011794 -103.616606 
L 244.707125 -103.562953 
L 244.402457 -103.50738 
L 244.097789 -103.449863 
L 243.79312 -103.390383 
L 243.488452 -103.328916 
L 243.183784 -103.265444 
L 242.879115 -103.199948 
L 242.574447 -103.132408 
L 242.269779 -103.062807 
L 241.965111 -102.991128 
L 241.660442 -102.917356 
L 241.355774 -102.841474 
L 241.051106 -102.763469 
L 240.746437 -102.683327 
L 240.441769 -102.601036 
L 240.137101 -102.516584 
L 239.832432 -102.429959 
L 239.527764 -102.341153 
L 239.223096 -102.250155 
L 238.918428 -102.156958 
L 238.613759 -102.061554 
L 238.309091 -101.963937 
L 238.004423 -101.8641 
L 237.699754 -101.76204 
L 237.395086 -101.657752 
L 237.090418 -101.551234 
L 236.785749 -101.442484 
L 236.481081 -101.331499 
L 236.176413 -101.218281 
L 235.871744 -101.102829 
L 235.567076 -100.985146 
L 235.262408 -100.865233 
L 234.95774 -100.743094 
L 234.653071 -100.618734 
L 234.348403 -100.492157 
L 234.043735 -100.363369 
L 233.739066 -100.232377 
L 233.434398 -100.099189 
L 233.12973 -99.963814 
L 232.825061 -99.826261 
L 232.520393 -99.68654 
L 232.215725 -99.544663 
L 231.911057 -99.400642 
L 231.606388 -99.25449 
L 231.30172 -99.10622 
L 230.997052 -98.955848 
L 230.692383 -98.803388 
L 230.387715 -98.648858 
L 230.083047 -98.492275 
L 229.778378 -98.333656 
L 229.47371 -98.17302 
L 229.169042 -98.010387 
L 228.864373 -97.845778 
L 228.559705 -97.679213 
L 228.255037 -97.510715 
L 227.950369 -97.340306 
L 227.6457 -97.16801 
L 227.341032 -96.993851 
L 227.036364 -96.817855 
L 226.731695 -96.640047 
L 226.427027 -96.460453 
L 226.122359 -96.279102 
L 225.81769 -96.09602 
L 225.513022 -95.911236 
L 225.208354 -95.724781 
L 224.903686 -95.536683 
L 224.599017 -95.346973 
L 224.294349 -95.155683 
L 223.989681 -94.962845 
L 223.685012 -94.76849 
L 223.380344 -94.572653 
L 223.075676 -94.375367 
L 222.771007 -94.176666 
L 222.466339 -93.976585 
L 222.161671 -93.77516 
L 221.857002 -93.572426 
L 221.552334 -93.368421 
L 221.247666 -93.16318 
L 220.942998 -92.956742 
L 220.638329 -92.749144 
L 220.333661 -92.540425 
L 220.028993 -92.330624 
L 219.724324 -92.11978 
L 219.419656 -91.907933 
L 219.114988 -91.695122 
L 218.810319 -91.48139 
L 218.505651 -91.266775 
L 218.200983 -91.05132 
L 217.896314 -90.835067 
L 217.591646 -90.618056 
L 217.286978 -90.40033 
L 216.98231 -90.181933 
L 216.677641 -89.962905 
L 216.372973 -89.743291 
L 216.068305 -89.523134 
L 215.763636 -89.302477 
L 215.458968 -89.081363 
L 215.1543 -88.859837 
L 214.849631 -88.637943 
L 214.544963 -88.415724 
L 214.240295 -88.193225 
L 213.935627 -87.970491 
L 213.630958 -87.747565 
L 213.32629 -87.524492 
L 213.021622 -87.301318 
L 212.716953 -87.078086 
L 212.412285 -86.854841 
L 212.107617 -86.631628 
L 211.802948 -86.408491 
L 211.49828 -86.185475 
L 211.193612 -85.962625 
L 210.888943 -85.739986 
L 210.584275 -85.5176 
L 210.279607 -85.295514 
L 209.974939 -85.073771 
L 209.67027 -84.852415 
L 209.365602 -84.631489 
L 209.060934 -84.411039 
L 208.756265 -84.191106 
L 208.451597 -83.971735 
L 208.146929 -83.752969 
L 207.84226 -83.53485 
L 207.537592 -83.317422 
L 207.232924 -83.100725 
L 206.928256 -82.884803 
L 206.623587 -82.669697 
L 206.318919 -82.455449 
L 206.014251 -82.242099 
L 205.709582 -82.029688 
L 205.404914 -81.818257 
L 205.100246 -81.607845 
L 204.795577 -81.398491 
L 204.490909 -81.190236 
L 204.186241 -80.983117 
L 203.881572 -80.777173 
L 203.576904 -80.572441 
L 203.272236 -80.368959 
L 202.967568 -80.166764 
L 202.662899 -79.965891 
L 202.358231 -79.766376 
L 202.053563 -79.568254 
L 201.748894 -79.37156 
L 201.444226 -79.176328 
L 201.139558 -78.982592 
L 200.834889 -78.790383 
L 200.530221 -78.599735 
L 200.225553 -78.410679 
L 199.920885 -78.223246 
L 199.616216 -78.037466 
L 199.311548 -77.853368 
L 199.00688 -77.670983 
L 198.702211 -77.490337 
L 198.397543 -77.311459 
L 198.092875 -77.134375 
L 197.788206 -76.959112 
L 197.483538 -76.785695 
L 197.17887 -76.614149 
L 196.874201 -76.444497 
L 196.569533 -76.276763 
L 196.264865 -76.11097 
L 195.960197 -75.947138 
L 195.655528 -75.785289 
L 195.35086 -75.625443 
L 195.046192 -75.467619 
L 194.741523 -75.311836 
L 194.436855 -75.15811 
L 194.132187 -75.00646 
L 193.827518 -74.8569 
L 193.52285 -74.709447 
L 193.218182 -74.564114 
L 192.913514 -74.420915 
L 192.608845 -74.279863 
L 192.304177 -74.140969 
L 191.999509 -74.004244 
L 191.69484 -73.869698 
L 191.390172 -73.73734 
L 191.085504 -73.607179 
L 190.780835 -73.479222 
L 190.476167 -73.353476 
L 190.171499 -73.229946 
L 189.86683 -73.108637 
L 189.562162 -72.989552 
L 189.257494 -72.872696 
L 188.952826 -72.758069 
L 188.648157 -72.645673 
L 188.343489 -72.535509 
L 188.038821 -72.427575 
L 187.734152 -72.321871 
L 187.429484 -72.218394 
L 187.124816 -72.11714 
L 186.820147 -72.018106 
L 186.515479 -71.921287 
L 186.210811 -71.826676 
L 185.906143 -71.734267 
L 185.601474 -71.644052 
L 185.296806 -71.556023 
L 184.992138 -71.47017 
L 184.687469 -71.386483 
L 184.382801 -71.30495 
L 184.078133 -71.225561 
L 183.773464 -71.148301 
L 183.468796 -71.073157 
L 183.164128 -71.000115 
L 182.859459 -70.929158 
L 182.554791 -70.860272 
L 182.250123 -70.793439 
L 181.945455 -70.72864 
L 181.640786 -70.665858 
L 181.336118 -70.605072 
L 181.03145 -70.546263 
L 180.726781 -70.489409 
L 180.422113 -70.434488 
L 180.117445 -70.381479 
L 179.812776 -70.330356 
L 179.508108 -70.281097 
L 179.20344 -70.233676 
L 178.898771 -70.188067 
L 178.594103 -70.144245 
L 178.289435 -70.102182 
L 177.984767 -70.061851 
L 177.680098 -70.023222 
L 177.37543 -69.986267 
L 177.070762 -69.950956 
L 176.766093 -69.917258 
L 176.461425 -69.885142 
L 176.156757 -69.854577 
L 175.852088 -69.82553 
L 175.54742 -69.797968 
L 175.242752 -69.771858 
L 174.938084 -69.747165 
L 174.633415 -69.723854 
L 174.328747 -69.701891 
L 174.024079 -69.681239 
L 173.71941 -69.661862 
L 173.414742 -69.643724 
L 173.110074 -69.626786 
L 172.805405 -69.611012 
L 172.500737 -69.596362 
L 172.196069 -69.582798 
L 171.8914 -69.57028 
L 171.586732 -69.55877 
L 171.282064 -69.548227 
L 170.977396 -69.538611 
L 170.672727 -69.52988 
L 170.368059 -69.521995 
L 170.063391 -69.514912 
L 169.758722 -69.508591 
L 169.454054 -69.50299 
L 169.149386 -69.498065 
L 168.844717 -69.493775 
L 168.540049 -69.490076 
L 168.235381 -69.486925 
L 167.930713 -69.48428 
L 167.626044 -69.482095 
L 167.321376 -69.480328 
L 167.016708 -69.478935 
L 166.712039 -69.477871 
L 166.407371 -69.477093 
L 166.102703 -69.476555 
L 165.798034 -69.476214 
L 165.493366 -69.476025 
L 165.188698 -69.475943 
L 164.884029 -69.475924 
L 164.579361 -69.475923 
L 164.274693 -69.475896 
L 163.970025 -69.475797 
L 163.665356 -69.475583 
L 163.360688 -69.475208 
L 163.05602 -69.474629 
L 162.751351 -69.4738 
L 162.446683 -69.472677 
L 162.142015 -69.471217 
L 161.837346 -69.469375 
L 161.532678 -69.467107 
L 161.22801 -69.464369 
L 160.923342 -69.461118 
L 160.618673 -69.45731 
L 160.314005 -69.452903 
L 160.009337 -69.447852 
L 159.704668 -69.442117 
L 159.4 -69.435654 
L 159.095332 -69.428421 
L 158.790663 -69.420376 
L 158.485995 -69.411479 
L 158.181327 -69.401687 
L 157.876658 -69.39096 
L 157.57199 -69.379258 
L 157.267322 -69.366541 
L 156.962654 -69.352768 
L 156.657985 -69.337901 
L 156.353317 -69.321902 
L 156.048649 -69.304731 
L 155.74398 -69.286352 
L 155.439312 -69.266726 
L 155.134644 -69.245816 
L 154.829975 -69.223588 
L 154.525307 -69.200004 
L 154.220639 -69.175029 
L 153.915971 -69.148629 
L 153.611302 -69.12077 
L 153.306634 -69.091418 
L 153.001966 -69.06054 
L 152.697297 -69.028103 
L 152.392629 -68.994077 
L 152.087961 -68.958429 
L 151.783292 -68.92113 
L 151.478624 -68.88215 
L 151.173956 -68.84146 
L 150.869287 -68.79903 
L 150.564619 -68.754834 
L 150.259951 -68.708845 
L 149.955283 -68.661036 
L 149.650614 -68.611381 
L 149.345946 -68.559856 
L 149.041278 -68.506437 
L 148.736609 -68.451101 
L 148.431941 -68.393824 
L 148.127273 -68.334585 
L 147.822604 -68.273363 
L 147.517936 -68.210139 
L 147.213268 -68.144891 
L 146.9086 -68.077603 
L 146.603931 -68.008255 
L 146.299263 -67.936832 
L 145.994595 -67.863317 
L 145.689926 -67.787695 
L 145.385258 -67.709951 
L 145.08059 -67.630072 
L 144.775921 -67.548045 
L 144.471253 -67.463858 
L 144.166585 -67.377501 
L 143.861916 -67.288963 
L 143.557248 -67.198234 
L 143.25258 -67.105307 
L 142.947912 -67.010174 
L 142.643243 -66.912828 
L 142.338575 -66.813264 
L 142.033907 -66.711477 
L 141.729238 -66.607462 
L 141.42457 -66.501218 
L 141.119902 -66.392741 
L 140.815233 -66.282031 
L 140.510565 -66.169086 
L 140.205897 -66.053908 
L 139.901229 -65.936499 
L 139.59656 -65.816859 
L 139.291892 -65.694993 
L 138.987224 -65.570905 
L 138.682555 -65.444599 
L 138.377887 -65.316082 
L 138.073219 -65.18536 
L 137.76855 -65.052441 
L 137.463882 -64.917333 
L 137.159214 -64.780046 
L 136.854545 -64.640591 
L 136.549877 -64.498978 
L 136.245209 -64.355219 
L 135.940541 -64.209327 
L 135.635872 -64.061316 
L 135.331204 -63.911201 
L 135.026536 -63.758997 
L 134.721867 -63.60472 
L 134.417199 -63.448387 
L 134.112531 -63.290017 
L 133.807862 -63.129627 
L 133.503194 -62.967238 
L 133.198526 -62.80287 
L 132.893857 -62.636544 
L 132.589189 -62.468281 
L 132.284521 -62.298105 
L 131.979853 -62.12604 
L 131.675184 -61.952108 
L 131.370516 -61.776336 
L 131.065848 -61.598748 
L 130.761179 -61.419372 
L 130.456511 -61.238235 
L 130.151843 -61.055364 
L 129.847174 -60.870787 
L 129.542506 -60.684535 
L 129.237838 -60.496637 
L 128.93317 -60.307123 
L 128.628501 -60.116025 
L 128.323833 -59.923375 
L 128.019165 -59.729205 
L 127.714496 -59.533548 
L 127.409828 -59.336437 
L 127.10516 -59.137908 
L 126.800491 -58.937994 
L 126.495823 -58.736732 
L 126.191155 -58.534157 
L 125.886486 -58.330305 
L 125.581818 -58.125214 
L 125.27715 -57.91892 
L 124.972482 -57.711463 
L 124.667813 -57.502879 
L 124.363145 -57.293209 
L 124.058477 -57.08249 
L 123.753808 -56.870764 
L 123.44914 -56.65807 
L 123.144472 -56.444448 
L 122.839803 -56.229939 
L 122.535135 -56.014585 
L 122.230467 -55.798427 
L 121.925799 -55.581507 
L 121.62113 -55.363867 
L 121.316462 -55.145549 
L 121.011794 -54.926597 
L 120.707125 -54.707052 
L 120.402457 -54.486959 
L 120.097789 -54.266361 
L 119.79312 -54.045301 
L 119.488452 -53.823823 
L 119.183784 -53.601972 
L 118.879115 -53.37979 
L 118.574447 -53.157324 
L 118.269779 -52.934616 
L 117.965111 -52.711711 
L 117.660442 -52.488654 
L 117.355774 -52.265489 
L 117.051106 -52.042262 
L 116.746437 -51.819016 
L 116.441769 -51.595797 
L 116.137101 -51.372648 
L 115.832432 -51.149615 
L 115.527764 -50.926743 
L 115.223096 -50.704075 
L 114.918428 -50.481656 
L 114.613759 -50.259531 
L 114.309091 -50.037743 
L 114.004423 -49.816337 
L 113.699754 -49.595356 
L 113.395086 -49.374845 
L 113.090418 -49.154847 
L 112.785749 -48.935405 
L 112.481081 -48.716562 
L 112.176413 -48.498362 
L 111.871744 -48.280846 
L 111.567076 -48.064058 
L 111.262408 -47.848039 
L 110.95774 -47.63283 
L 110.653071 -47.418475 
L 110.348403 -47.205012 
L 110.043735 -46.992484 
L 109.739066 -46.78093 
L 109.434398 -46.570391 
L 109.12973 -46.360906 
L 108.825061 -46.152514 
L 108.520393 -45.945254 
L 108.215725 -45.739164 
L 107.911057 -45.534281 
L 107.606388 -45.330644 
L 107.30172 -45.128289 
L 106.997052 -44.927251 
L 106.692383 -44.727568 
L 106.387715 -44.529274 
L 106.083047 -44.332403 
L 105.778378 -44.13699 
L 105.47371 -43.943068 
L 105.169042 -43.750671 
L 104.864373 -43.55983 
L 104.559705 -43.370577 
L 104.255037 -43.182943 
L 103.950369 -42.996958 
L 103.6457 -42.812653 
L 103.341032 -42.630056 
L 103.036364 -42.449195 
L 102.731695 -42.270099 
L 102.427027 -42.092794 
L 102.122359 -41.917306 
L 101.81769 -41.743662 
L 101.513022 -41.571885 
L 101.208354 -41.401999 
L 100.903686 -41.234029 
L 100.599017 -41.067997 
L 100.294349 -40.903923 
L 99.989681 -40.74183 
L 99.685012 -40.581737 
L 99.380344 -40.423664 
L 99.075676 -40.26763 
L 98.771007 -40.113651 
L 98.466339 -39.961745 
L 98.161671 -39.811929 
L 97.857002 -39.664216 
L 97.552334 -39.518623 
L 97.247666 -39.375161 
L 96.942998 -39.233845 
L 96.638329 -39.094686 
L 96.333661 -38.957694 
L 96.028993 -38.822881 
L 95.724324 -38.690254 
L 95.419656 -38.559824 
L 95.114988 -38.431596 
L 94.810319 -38.305578 
L 94.505651 -38.181776 
L 94.200983 -38.060194 
L 93.896314 -37.940837 
L 93.591646 -37.823707 
L 93.286978 -37.708807 
L 92.98231 -37.596137 
L 92.677641 -37.4857 
L 92.372973 -37.377493 
L 92.068305 -37.271515 
L 91.763636 -37.167765 
L 91.458968 -37.066239 
L 91.1543 -36.966933 
L 90.849631 -36.869842 
L 90.544963 -36.774961 
L 90.240295 -36.682283 
L 89.935627 -36.591799 
L 89.630958 -36.503502 
L 89.32629 -36.417383 
L 89.021622 -36.333431 
L 88.716953 -36.251635 
L 88.412285 -36.171983 
L 88.107617 -36.094463 
L 87.802948 -36.01906 
L 87.49828 -35.945761 
L 87.193612 -35.87455 
L 86.888943 -35.805411 
L 86.584275 -35.738327 
L 86.279607 -35.673279 
L 85.974939 -35.610251 
L 85.67027 -35.549222 
L 85.365602 -35.490171 
L 85.060934 -35.433078 
L 84.756265 -35.377922 
L 84.451597 -35.324679 
L 84.146929 -35.273327 
L 83.84226 -35.22384 
L 83.537592 -35.176195 
L 83.232924 -35.130366 
L 82.928256 -35.086326 
L 82.623587 -35.044049 
L 82.318919 -35.003507 
L 82.014251 -34.964671 
L 81.709582 -34.927512 
L 81.404914 -34.892001 
L 81.100246 -34.858107 
L 80.795577 -34.825799 
L 80.490909 -34.795046 
L 80.186241 -34.765814 
L 79.881572 -34.738072 
L 79.576904 -34.711785 
L 79.272236 -34.68692 
L 78.967568 -34.663442 
L 78.662899 -34.641316 
L 78.358231 -34.620505 
L 78.053563 -34.600974 
L 77.748894 -34.582686 
L 77.444226 -34.565603 
L 77.139558 -34.549687 
L 76.834889 -34.534902 
L 76.530221 -34.521207 
L 76.225553 -34.508563 
L 75.920885 -34.496932 
L 75.616216 -34.486272 
L 75.311548 -34.476544 
L 75.00688 -34.467707 
L 74.702211 -34.45972 
L 74.397543 -34.452542 
L 74.092875 -34.44613 
L 73.788206 -34.440442 
L 73.483538 -34.435437 
L 73.17887 -34.431071 
L 72.874201 -34.427302 
L 72.569533 -34.424087 
L 72.264865 -34.421381 
L 71.960197 -34.419143 
L 71.655528 -34.417327 
L 71.35086 -34.41589 
L 71.046192 -34.414788 
L 70.741523 -34.413977 
L 70.436855 -34.413412 
L 70.132187 -34.413049 
L 69.827518 -34.412844 
L 69.52285 -34.412752 
L 69.218182 -34.412727 
z
" id="m73d781b2c0" style="stroke:#008000;stroke-opacity:0.3;"/>
    </defs>
    <g clip-path="url(#p19fb47209d)">
     <use style="fill:#008000;fill-opacity:0.3;stroke:#008000;stroke-opacity:0.3;" x="0" xlink:href="#m73d781b2c0" y="216"/>
    </g>
   </g>
   <g id="matplotlib.axis_1">
    <g id="xtick_1">
     <g id="line2d_1">
      <defs>
       <path d="M 0 0 
L 0 3.5 
" id="m0495db08b8" style="stroke:#000000;stroke-width:0.8;"/>
      </defs>
      <g>
       <use style="stroke:#000000;stroke-width:0.8;" x="69.218182" xlink:href="#m0495db08b8" y="189"/>
      </g>
     </g>
     <g id="text_1">
      <!-- 0 -->
      <g transform="translate(66.036932 203.598437)scale(0.1 -0.1)">
       <defs>
        <path d="M 31.78125 66.40625 
Q 24.171875 66.40625 20.328125 58.90625 
Q 16.5 51.421875 16.5 36.375 
Q 16.5 21.390625 20.328125 13.890625 
Q 24.171875 6.390625 31.78125 6.390625 
Q 39.453125 6.390625 43.28125 13.890625 
Q 47.125 21.390625 47.125 36.375 
Q 47.125 51.421875 43.28125 58.90625 
Q 39.453125 66.40625 31.78125 66.40625 
z
M 31.78125 74.21875 
Q 44.046875 74.21875 50.515625 64.515625 
Q 56.984375 54.828125 56.984375 36.375 
Q 56.984375 17.96875 50.515625 8.265625 
Q 44.046875 -1.421875 31.78125 -1.421875 
Q 19.53125 -1.421875 13.0625 8.265625 
Q 6.59375 17.96875 6.59375 36.375 
Q 6.59375 54.828125 13.0625 64.515625 
Q 19.53125 74.21875 31.78125 74.21875 
z
" id="DejaVuSans-48"/>
       </defs>
       <use xlink:href="#DejaVuSans-48"/>
      </g>
     </g>
    </g>
    <g id="xtick_2">
     <g id="line2d_2">
      <g>
       <use style="stroke:#000000;stroke-width:0.8;" x="130.151843" xlink:href="#m0495db08b8" y="189"/>
      </g>
     </g>
     <g id="text_2">
      <!-- 200 -->
      <g transform="translate(120.608093 203.598437)scale(0.1 -0.1)">
       <defs>
        <path d="M 19.1875 8.296875 
L 53.609375 8.296875 
L 53.609375 0 
L 7.328125 0 
L 7.328125 8.296875 
Q 12.9375 14.109375 22.625 23.890625 
Q 32.328125 33.6875 34.8125 36.53125 
Q 39.546875 41.84375 41.421875 45.53125 
Q 43.3125 49.21875 43.3125 52.78125 
Q 43.3125 58.59375 39.234375 62.25 
Q 35.15625 65.921875 28.609375 65.921875 
Q 23.96875 65.921875 18.8125 64.3125 
Q 13.671875 62.703125 7.8125 59.421875 
L 7.8125 69.390625 
Q 13.765625 71.78125 18.9375 73 
Q 24.125 74.21875 28.421875 74.21875 
Q 39.75 74.21875 46.484375 68.546875 
Q 53.21875 62.890625 53.21875 53.421875 
Q 53.21875 48.921875 51.53125 44.890625 
Q 49.859375 40.875 45.40625 35.40625 
Q 44.1875 33.984375 37.640625 27.21875 
Q 31.109375 20.453125 19.1875 8.296875 
z
" id="DejaVuSans-50"/>
       </defs>
       <use xlink:href="#DejaVuSans-50"/>
       <use x="63.623047" xlink:href="#DejaVuSans-48"/>
       <use x="127.246094" xlink:href="#DejaVuSans-48"/>
      </g>
     </g>
    </g>
    <g id="xtick_3">
     <g id="line2d_3">
      <g>
       <use style="stroke:#000000;stroke-width:0.8;" x="191.085504" xlink:href="#m0495db08b8" y="189"/>
      </g>
     </g>
     <g id="text_3">
      <!-- 400 -->
      <g transform="translate(181.541754 203.598437)scale(0.1 -0.1)">
       <defs>
        <path d="M 37.796875 64.3125 
L 12.890625 25.390625 
L 37.796875 25.390625 
z
M 35.203125 72.90625 
L 47.609375 72.90625 
L 47.609375 25.390625 
L 58.015625 25.390625 
L 58.015625 17.1875 
L 47.609375 17.1875 
L 47.609375 0 
L 37.796875 0 
L 37.796875 17.1875 
L 4.890625 17.1875 
L 4.890625 26.703125 
z
" id="DejaVuSans-52"/>
       </defs>
       <use xlink:href="#DejaVuSans-52"/>
       <use x="63.623047" xlink:href="#DejaVuSans-48"/>
       <use x="127.246094" xlink:href="#DejaVuSans-48"/>
      </g>
     </g>
    </g>
    <g id="xtick_4">
     <g id="line2d_4">
      <g>
       <use style="stroke:#000000;stroke-width:0.8;" x="252.019165" xlink:href="#m0495db08b8" y="189"/>
      </g>
     </g>
     <g id="text_4">
      <!-- 600 -->
      <g transform="translate(242.475415 203.598437)scale(0.1 -0.1)">
       <defs>
        <path d="M 33.015625 40.375 
Q 26.375 40.375 22.484375 35.828125 
Q 18.609375 31.296875 18.609375 23.390625 
Q 18.609375 15.53125 22.484375 10.953125 
Q 26.375 6.390625 33.015625 6.390625 
Q 39.65625 6.390625 43.53125 10.953125 
Q 47.40625 15.53125 47.40625 23.390625 
Q 47.40625 31.296875 43.53125 35.828125 
Q 39.65625 40.375 33.015625 40.375 
z
M 52.59375 71.296875 
L 52.59375 62.3125 
Q 48.875 64.0625 45.09375 64.984375 
Q 41.3125 65.921875 37.59375 65.921875 
Q 27.828125 65.921875 22.671875 59.328125 
Q 17.53125 52.734375 16.796875 39.40625 
Q 19.671875 43.65625 24.015625 45.921875 
Q 28.375 48.1875 33.59375 48.1875 
Q 44.578125 48.1875 50.953125 41.515625 
Q 57.328125 34.859375 57.328125 23.390625 
Q 57.328125 12.15625 50.6875 5.359375 
Q 44.046875 -1.421875 33.015625 -1.421875 
Q 20.359375 -1.421875 13.671875 8.265625 
Q 6.984375 17.96875 6.984375 36.375 
Q 6.984375 53.65625 15.1875 63.9375 
Q 23.390625 74.21875 37.203125 74.21875 
Q 40.921875 74.21875 44.703125 73.484375 
Q 48.484375 72.75 52.59375 71.296875 
z
" id="DejaVuSans-54"/>
       </defs>
       <use xlink:href="#DejaVuSans-54"/>
       <use x="63.623047" xlink:href="#DejaVuSans-48"/>
       <use x="127.246094" xlink:href="#DejaVuSans-48"/>
      </g>
     </g>
    </g>
    <g id="xtick_5">
     <g id="line2d_5">
      <g>
       <use style="stroke:#000000;stroke-width:0.8;" x="312.952826" xlink:href="#m0495db08b8" y="189"/>
      </g>
     </g>
     <g id="text_5">
      <!-- 800 -->
      <g transform="translate(303.409076 203.598437)scale(0.1 -0.1)">
       <defs>
        <path d="M 31.78125 34.625 
Q 24.75 34.625 20.71875 30.859375 
Q 16.703125 27.09375 16.703125 20.515625 
Q 16.703125 13.921875 20.71875 10.15625 
Q 24.75 6.390625 31.78125 6.390625 
Q 38.8125 6.390625 42.859375 10.171875 
Q 46.921875 13.96875 46.921875 20.515625 
Q 46.921875 27.09375 42.890625 30.859375 
Q 38.875 34.625 31.78125 34.625 
z
M 21.921875 38.8125 
Q 15.578125 40.375 12.03125 44.71875 
Q 8.5 49.078125 8.5 55.328125 
Q 8.5 64.0625 14.71875 69.140625 
Q 20.953125 74.21875 31.78125 74.21875 
Q 42.671875 74.21875 48.875 69.140625 
Q 55.078125 64.0625 55.078125 55.328125 
Q 55.078125 49.078125 51.53125 44.71875 
Q 48 40.375 41.703125 38.8125 
Q 48.828125 37.15625 52.796875 32.3125 
Q 56.78125 27.484375 56.78125 20.515625 
Q 56.78125 9.90625 50.3125 4.234375 
Q 43.84375 -1.421875 31.78125 -1.421875 
Q 19.734375 -1.421875 13.25 4.234375 
Q 6.78125 9.90625 6.78125 20.515625 
Q 6.78125 27.484375 10.78125 32.3125 
Q 14.796875 37.15625 21.921875 38.8125 
z
M 18.3125 54.390625 
Q 18.3125 48.734375 21.84375 45.5625 
Q 25.390625 42.390625 31.78125 42.390625 
Q 38.140625 42.390625 41.71875 45.5625 
Q 45.3125 48.734375 45.3125 54.390625 
Q 45.3125 60.0625 41.71875 63.234375 
Q 38.140625 66.40625 31.78125 66.40625 
Q 25.390625 66.40625 21.84375 63.234375 
Q 18.3125 60.0625 18.3125 54.390625 
z
" id="DejaVuSans-56"/>
       </defs>
       <use xlink:href="#DejaVuSans-56"/>
       <use x="63.623047" xlink:href="#DejaVuSans-48"/>
       <use x="127.246094" xlink:href="#DejaVuSans-48"/>
      </g>
     </g>
    </g>
    <g id="xtick_6">
     <g id="line2d_6">
      <g>
       <use style="stroke:#000000;stroke-width:0.8;" x="373.886486" xlink:href="#m0495db08b8" y="189"/>
      </g>
     </g>
     <g id="text_6">
      <!-- 1000 -->
      <g transform="translate(361.161486 203.598437)scale(0.1 -0.1)">
       <defs>
        <path d="M 12.40625 8.296875 
L 28.515625 8.296875 
L 28.515625 63.921875 
L 10.984375 60.40625 
L 10.984375 69.390625 
L 28.421875 72.90625 
L 38.28125 72.90625 
L 38.28125 8.296875 
L 54.390625 8.296875 
L 54.390625 0 
L 12.40625 0 
z
" id="DejaVuSans-49"/>
       </defs>
       <use xlink:href="#DejaVuSans-49"/>
       <use x="63.623047" xlink:href="#DejaVuSans-48"/>
       <use x="127.246094" xlink:href="#DejaVuSans-48"/>
       <use x="190.869141" xlink:href="#DejaVuSans-48"/>
      </g>
     </g>
    </g>
    <g id="text_7">
     <!-- Iteration -->
     <g transform="translate(200.191406 217.276563)scale(0.1 -0.1)">
      <defs>
       <path d="M 9.8125 72.90625 
L 19.671875 72.90625 
L 19.671875 0 
L 9.8125 0 
z
" id="DejaVuSans-73"/>
       <path d="M 18.3125 70.21875 
L 18.3125 54.6875 
L 36.8125 54.6875 
L 36.8125 47.703125 
L 18.3125 47.703125 
L 18.3125 18.015625 
Q 18.3125 11.328125 20.140625 9.421875 
Q 21.96875 7.515625 27.59375 7.515625 
L 36.8125 7.515625 
L 36.8125 0 
L 27.59375 0 
Q 17.1875 0 13.234375 3.875 
Q 9.28125 7.765625 9.28125 18.015625 
L 9.28125 47.703125 
L 2.6875 47.703125 
L 2.6875 54.6875 
L 9.28125 54.6875 
L 9.28125 70.21875 
z
" id="DejaVuSans-116"/>
       <path d="M 56.203125 29.59375 
L 56.203125 25.203125 
L 14.890625 25.203125 
Q 15.484375 15.921875 20.484375 11.0625 
Q 25.484375 6.203125 34.421875 6.203125 
Q 39.59375 6.203125 44.453125 7.46875 
Q 49.3125 8.734375 54.109375 11.28125 
L 54.109375 2.78125 
Q 49.265625 0.734375 44.1875 -0.34375 
Q 39.109375 -1.421875 33.890625 -1.421875 
Q 20.796875 -1.421875 13.15625 6.1875 
Q 5.515625 13.8125 5.515625 26.8125 
Q 5.515625 40.234375 12.765625 48.109375 
Q 20.015625 56 32.328125 56 
Q 43.359375 56 49.78125 48.890625 
Q 56.203125 41.796875 56.203125 29.59375 
z
M 47.21875 32.234375 
Q 47.125 39.59375 43.09375 43.984375 
Q 39.0625 48.390625 32.421875 48.390625 
Q 24.90625 48.390625 20.390625 44.140625 
Q 15.875 39.890625 15.1875 32.171875 
z
" id="DejaVuSans-101"/>
       <path d="M 41.109375 46.296875 
Q 39.59375 47.171875 37.8125 47.578125 
Q 36.03125 48 33.890625 48 
Q 26.265625 48 22.1875 43.046875 
Q 18.109375 38.09375 18.109375 28.8125 
L 18.109375 0 
L 9.078125 0 
L 9.078125 54.6875 
L 18.109375 54.6875 
L 18.109375 46.1875 
Q 20.953125 51.171875 25.484375 53.578125 
Q 30.03125 56 36.53125 56 
Q 37.453125 56 38.578125 55.875 
Q 39.703125 55.765625 41.0625 55.515625 
z
" id="DejaVuSans-114"/>
       <path d="M 34.28125 27.484375 
Q 23.390625 27.484375 19.1875 25 
Q 14.984375 22.515625 14.984375 16.5 
Q 14.984375 11.71875 18.140625 8.90625 
Q 21.296875 6.109375 26.703125 6.109375 
Q 34.1875 6.109375 38.703125 11.40625 
Q 43.21875 16.703125 43.21875 25.484375 
L 43.21875 27.484375 
z
M 52.203125 31.203125 
L 52.203125 0 
L 43.21875 0 
L 43.21875 8.296875 
Q 40.140625 3.328125 35.546875 0.953125 
Q 30.953125 -1.421875 24.3125 -1.421875 
Q 15.921875 -1.421875 10.953125 3.296875 
Q 6 8.015625 6 15.921875 
Q 6 25.140625 12.171875 29.828125 
Q 18.359375 34.515625 30.609375 34.515625 
L 43.21875 34.515625 
L 43.21875 35.40625 
Q 43.21875 41.609375 39.140625 45 
Q 35.0625 48.390625 27.6875 48.390625 
Q 23 48.390625 18.546875 47.265625 
Q 14.109375 46.140625 10.015625 43.890625 
L 10.015625 52.203125 
Q 14.9375 54.109375 19.578125 55.046875 
Q 24.21875 56 28.609375 56 
Q 40.484375 56 46.34375 49.84375 
Q 52.203125 43.703125 52.203125 31.203125 
z
" id="DejaVuSans-97"/>
       <path d="M 9.421875 54.6875 
L 18.40625 54.6875 
L 18.40625 0 
L 9.421875 0 
z
M 9.421875 75.984375 
L 18.40625 75.984375 
L 18.40625 64.59375 
L 9.421875 64.59375 
z
" id="DejaVuSans-105"/>
       <path d="M 30.609375 48.390625 
Q 23.390625 48.390625 19.1875 42.75 
Q 14.984375 37.109375 14.984375 27.296875 
Q 14.984375 17.484375 19.15625 11.84375 
Q 23.34375 6.203125 30.609375 6.203125 
Q 37.796875 6.203125 41.984375 11.859375 
Q 46.1875 17.53125 46.1875 27.296875 
Q 46.1875 37.015625 41.984375 42.703125 
Q 37.796875 48.390625 30.609375 48.390625 
z
M 30.609375 56 
Q 42.328125 56 49.015625 48.375 
Q 55.71875 40.765625 55.71875 27.296875 
Q 55.71875 13.875 49.015625 6.21875 
Q 42.328125 -1.421875 30.609375 -1.421875 
Q 18.84375 -1.421875 12.171875 6.21875 
Q 5.515625 13.875 5.515625 27.296875 
Q 5.515625 40.765625 12.171875 48.375 
Q 18.84375 56 30.609375 56 
z
" id="DejaVuSans-111"/>
       <path d="M 54.890625 33.015625 
L 54.890625 0 
L 45.90625 0 
L 45.90625 32.71875 
Q 45.90625 40.484375 42.875 44.328125 
Q 39.84375 48.1875 33.796875 48.1875 
Q 26.515625 48.1875 22.3125 43.546875 
Q 18.109375 38.921875 18.109375 30.90625 
L 18.109375 0 
L 9.078125 0 
L 9.078125 54.6875 
L 18.109375 54.6875 
L 18.109375 46.1875 
Q 21.34375 51.125 25.703125 53.5625 
Q 30.078125 56 35.796875 56 
Q 45.21875 56 50.046875 50.171875 
Q 54.890625 44.34375 54.890625 33.015625 
z
" id="DejaVuSans-110"/>
      </defs>
      <use xlink:href="#DejaVuSans-73"/>
      <use x="29.492188" xlink:href="#DejaVuSans-116"/>
      <use x="68.701172" xlink:href="#DejaVuSans-101"/>
      <use x="130.224609" xlink:href="#DejaVuSans-114"/>
      <use x="171.337891" xlink:href="#DejaVuSans-97"/>
      <use x="232.617188" xlink:href="#DejaVuSans-116"/>
      <use x="271.826172" xlink:href="#DejaVuSans-105"/>
      <use x="299.609375" xlink:href="#DejaVuSans-111"/>
      <use x="360.791016" xlink:href="#DejaVuSans-110"/>
     </g>
    </g>
   </g>
   <g id="matplotlib.axis_2">
    <g id="ytick_1">
     <g id="line2d_7">
      <defs>
       <path d="M 0 0 
L -3.5 0 
" id="mb8ff6f4968" style="stroke:#000000;stroke-width:0.8;"/>
      </defs>
      <g>
       <use style="stroke:#000000;stroke-width:0.8;" x="54" xlink:href="#mb8ff6f4968" y="183.028701"/>
      </g>
     </g>
     <g id="text_8">
      <!-- 0.2 -->
      <g transform="translate(22.717187 186.82792)scale(0.1 -0.1)">
       <defs>
        <path d="M 10.59375 35.5 
L 73.1875 35.5 
L 73.1875 27.203125 
L 10.59375 27.203125 
z
" id="DejaVuSans-8722"/>
        <path d="M 10.6875 12.40625 
L 21 12.40625 
L 21 0 
L 10.6875 0 
z
" id="DejaVuSans-46"/>
       </defs>
       <use xlink:href="#DejaVuSans-8722"/>
       <use x="83.789062" xlink:href="#DejaVuSans-48"/>
       <use x="147.412109" xlink:href="#DejaVuSans-46"/>
       <use x="179.199219" xlink:href="#DejaVuSans-50"/>
      </g>
     </g>
    </g>
    <g id="ytick_2">
     <g id="line2d_8">
      <g>
       <use style="stroke:#000000;stroke-width:0.8;" x="54" xlink:href="#mb8ff6f4968" y="160.704173"/>
      </g>
     </g>
     <g id="text_9">
      <!-- 0.0 -->
      <g transform="translate(31.096875 164.503391)scale(0.1 -0.1)">
       <use xlink:href="#DejaVuSans-48"/>
       <use x="63.623047" xlink:href="#DejaVuSans-46"/>
       <use x="95.410156" xlink:href="#DejaVuSans-48"/>
      </g>
     </g>
    </g>
    <g id="ytick_3">
     <g id="line2d_9">
      <g>
       <use style="stroke:#000000;stroke-width:0.8;" x="54" xlink:href="#mb8ff6f4968" y="138.379644"/>
      </g>
     </g>
     <g id="text_10">
      <!-- 0.2 -->
      <g transform="translate(31.096875 142.178862)scale(0.1 -0.1)">
       <use xlink:href="#DejaVuSans-48"/>
       <use x="63.623047" xlink:href="#DejaVuSans-46"/>
       <use x="95.410156" xlink:href="#DejaVuSans-50"/>
      </g>
     </g>
    </g>
    <g id="ytick_4">
     <g id="line2d_10">
      <g>
       <use style="stroke:#000000;stroke-width:0.8;" x="54" xlink:href="#mb8ff6f4968" y="116.055115"/>
      </g>
     </g>
     <g id="text_11">
      <!-- 0.4 -->
      <g transform="translate(31.096875 119.854333)scale(0.1 -0.1)">
       <use xlink:href="#DejaVuSans-48"/>
       <use x="63.623047" xlink:href="#DejaVuSans-46"/>
       <use x="95.410156" xlink:href="#DejaVuSans-52"/>
      </g>
     </g>
    </g>
    <g id="ytick_5">
     <g id="line2d_11">
      <g>
       <use style="stroke:#000000;stroke-width:0.8;" x="54" xlink:href="#mb8ff6f4968" y="93.730586"/>
      </g>
     </g>
     <g id="text_12">
      <!-- 0.6 -->
      <g transform="translate(31.096875 97.529804)scale(0.1 -0.1)">
       <use xlink:href="#DejaVuSans-48"/>
       <use x="63.623047" xlink:href="#DejaVuSans-46"/>
       <use x="95.410156" xlink:href="#DejaVuSans-54"/>
      </g>
     </g>
    </g>
    <g id="ytick_6">
     <g id="line2d_12">
      <g>
       <use style="stroke:#000000;stroke-width:0.8;" x="54" xlink:href="#mb8ff6f4968" y="71.406057"/>
      </g>
     </g>
     <g id="text_13">
      <!-- 0.8 -->
      <g transform="translate(31.096875 75.205276)scale(0.1 -0.1)">
       <use xlink:href="#DejaVuSans-48"/>
       <use x="63.623047" xlink:href="#DejaVuSans-46"/>
       <use x="95.410156" xlink:href="#DejaVuSans-56"/>
      </g>
     </g>
    </g>
    <g id="ytick_7">
     <g id="line2d_13">
      <g>
       <use style="stroke:#000000;stroke-width:0.8;" x="54" xlink:href="#mb8ff6f4968" y="49.081528"/>
      </g>
     </g>
     <g id="text_14">
      <!-- 1.0 -->
      <g transform="translate(31.096875 52.880747)scale(0.1 -0.1)">
       <use xlink:href="#DejaVuSans-49"/>
       <use x="63.623047" xlink:href="#DejaVuSans-46"/>
       <use x="95.410156" xlink:href="#DejaVuSans-48"/>
      </g>
     </g>
    </g>
    <g id="ytick_8">
     <g id="line2d_14">
      <g>
       <use style="stroke:#000000;stroke-width:0.8;" x="54" xlink:href="#mb8ff6f4968" y="26.756999"/>
      </g>
     </g>
     <g id="text_15">
      <!-- 1.2 -->
      <g transform="translate(31.096875 30.556218)scale(0.1 -0.1)">
       <use xlink:href="#DejaVuSans-49"/>
       <use x="63.623047" xlink:href="#DejaVuSans-46"/>
       <use x="95.410156" xlink:href="#DejaVuSans-50"/>
      </g>
     </g>
    </g>
    <g id="text_16">
     <!-- E[$\psi_x$] -->
     <g transform="translate(16.617188 120.06)rotate(-90)scale(0.1 -0.1)">
      <defs>
       <path d="M 9.8125 72.90625 
L 55.90625 72.90625 
L 55.90625 64.59375 
L 19.671875 64.59375 
L 19.671875 43.015625 
L 54.390625 43.015625 
L 54.390625 34.71875 
L 19.671875 34.71875 
L 19.671875 8.296875 
L 56.78125 8.296875 
L 56.78125 0 
L 9.8125 0 
z
" id="DejaVuSans-69"/>
       <path d="M 8.59375 75.984375 
L 29.296875 75.984375 
L 29.296875 69 
L 17.578125 69 
L 17.578125 -6.203125 
L 29.296875 -6.203125 
L 29.296875 -13.1875 
L 8.59375 -13.1875 
z
" id="DejaVuSans-91"/>
       <path d="M 24.859375 -1.21875 
Q 13.921875 0.59375 9.625 5.328125 
Q 4.34375 11.140625 6.640625 23 
L 12.796875 54.6875 
L 21.875 54.6875 
L 15.765625 23.34375 
Q 14.0625 14.40625 17.484375 10.6875 
Q 20.515625 7.46875 26.421875 6.78125 
L 35.6875 54.6875 
L 44.625 54.6875 
L 35.359375 6.84375 
Q 41.890625 7.515625 45.75 10.75 
Q 50.734375 14.84375 52.390625 23.390625 
L 58.453125 54.6875 
L 67.53125 54.6875 
L 61.375 23.046875 
Q 58.984375 10.75 51.5625 5.375 
Q 44.875 0.53125 33.796875 -1.171875 
L 29.984375 -20.796875 
L 21.046875 -20.796875 
z
" id="DejaVuSans-Oblique-968"/>
       <path d="M 60.015625 54.6875 
L 34.90625 27.875 
L 50.296875 0 
L 39.984375 0 
L 28.421875 21.6875 
L 8.296875 0 
L -2.59375 0 
L 24.3125 28.8125 
L 10.015625 54.6875 
L 20.3125 54.6875 
L 30.8125 34.90625 
L 49.125 54.6875 
z
" id="DejaVuSans-Oblique-120"/>
       <path d="M 30.421875 75.984375 
L 30.421875 -13.1875 
L 9.71875 -13.1875 
L 9.71875 -6.203125 
L 21.390625 -6.203125 
L 21.390625 69 
L 9.71875 69 
L 9.71875 75.984375 
z
" id="DejaVuSans-93"/>
      </defs>
      <use transform="translate(0 0.015625)" xlink:href="#DejaVuSans-69"/>
      <use transform="translate(63.183594 0.015625)" xlink:href="#DejaVuSans-91"/>
      <use transform="translate(102.197266 0.015625)" xlink:href="#DejaVuSans-Oblique-968"/>
      <use transform="translate(168.164062 -16.390625)scale(0.7)" xlink:href="#DejaVuSans-Oblique-120"/>
      <use transform="translate(212.324219 0.015625)" xlink:href="#DejaVuSans-93"/>
     </g>
    </g>
   </g>
   <g id="line2d_15">
    <path clip-path="url(#p19fb47209d)" d="M 69.218182 160.704173 
L 76.530221 160.596062 
L 80.490909 160.322616 
L 84.146929 159.84471 
L 87.49828 159.172555 
L 90.544963 158.343508 
L 93.591646 157.294795 
L 96.638329 156.023722 
L 99.989681 154.376347 
L 103.6457 152.305171 
L 107.606388 149.786769 
L 112.481081 146.400461 
L 127.714496 135.584048 
L 131.675184 133.165898 
L 135.026536 131.359297 
L 138.377887 129.802387 
L 141.42457 128.617284 
L 144.471253 127.65455 
L 147.517936 126.908065 
L 150.869287 126.318859 
L 154.525307 125.917503 
L 158.790663 125.696747 
L 164.884029 125.640976 
L 172.196069 125.534468 
L 176.156757 125.263081 
L 179.812776 124.787677 
L 183.164128 124.118199 
L 186.210811 123.291792 
L 189.257494 122.245807 
L 192.304177 120.977441 
L 195.655528 119.332891 
L 199.00688 117.446877 
L 202.967568 114.950684 
L 207.84226 111.582192 
L 223.989681 100.154811 
L 227.950369 97.777755 
L 231.30172 96.012113 
L 234.653071 94.499751 
L 237.699754 93.356454 
L 240.746437 92.435051 
L 243.79312 91.727773 
L 247.144472 91.177379 
L 250.800491 90.811089 
L 255.065848 90.619076 
L 262.073219 90.576709 
L 268.166585 90.459451 
L 272.127273 90.173177 
L 275.783292 89.679753 
L 279.134644 88.991046 
L 282.181327 88.145712 
L 285.22801 87.080198 
L 288.274693 85.792483 
L 291.626044 84.127774 
L 295.282064 82.039801 
L 299.242752 79.50677 
L 304.117445 76.108935 
L 318.741523 65.703281 
L 322.702211 63.258621 
L 326.358231 61.270539 
L 329.709582 59.707844 
L 332.756265 58.517286 
L 335.802948 57.549136 
L 338.849631 56.79749 
L 342.200983 56.203146 
L 345.857002 55.797111 
L 350.122359 55.572459 
L 356.215725 55.514581 
L 363.527764 55.411232 
L 367.488452 55.143941 
L 371.144472 54.673527 
L 373.581818 54.214486 
L 373.581818 54.214486 
" style="fill:none;stroke:#008000;stroke-linecap:square;stroke-width:1.5;"/>
   </g>
   <g id="patch_3">
    <path d="M 54 189 
L 54 25.92 
" style="fill:none;stroke:#000000;stroke-linecap:square;stroke-linejoin:miter;stroke-width:0.8;"/>
   </g>
   <g id="patch_4">
    <path d="M 388.8 189 
L 388.8 25.92 
" style="fill:none;stroke:#000000;stroke-linecap:square;stroke-linejoin:miter;stroke-width:0.8;"/>
   </g>
   <g id="patch_5">
    <path d="M 54 189 
L 388.8 189 
" style="fill:none;stroke:#000000;stroke-linecap:square;stroke-linejoin:miter;stroke-width:0.8;"/>
   </g>
   <g id="patch_6">
    <path d="M 54 25.92 
L 388.8 25.92 
" style="fill:none;stroke:#000000;stroke-linecap:square;stroke-linejoin:miter;stroke-width:0.8;"/>
   </g>
   <g id="text_17">
    <!-- Nx = 10000, Nt = 1000, T = 20 -->
    <g transform="translate(126.709688 19.92)scale(0.12 -0.12)">
     <defs>
      <path d="M 9.8125 72.90625 
L 23.09375 72.90625 
L 55.421875 11.921875 
L 55.421875 72.90625 
L 64.984375 72.90625 
L 64.984375 0 
L 51.703125 0 
L 19.390625 60.984375 
L 19.390625 0 
L 9.8125 0 
z
" id="DejaVuSans-78"/>
      <path d="M 54.890625 54.6875 
L 35.109375 28.078125 
L 55.90625 0 
L 45.3125 0 
L 29.390625 21.484375 
L 13.484375 0 
L 2.875 0 
L 24.125 28.609375 
L 4.6875 54.6875 
L 15.28125 54.6875 
L 29.78125 35.203125 
L 44.28125 54.6875 
z
" id="DejaVuSans-120"/>
      <path id="DejaVuSans-32"/>
      <path d="M 10.59375 45.40625 
L 73.1875 45.40625 
L 73.1875 37.203125 
L 10.59375 37.203125 
z
M 10.59375 25.484375 
L 73.1875 25.484375 
L 73.1875 17.1875 
L 10.59375 17.1875 
z
" id="DejaVuSans-61"/>
      <path d="M 11.71875 12.40625 
L 22.015625 12.40625 
L 22.015625 4 
L 14.015625 -11.625 
L 7.71875 -11.625 
L 11.71875 4 
z
" id="DejaVuSans-44"/>
      <path d="M -0.296875 72.90625 
L 61.375 72.90625 
L 61.375 64.59375 
L 35.5 64.59375 
L 35.5 0 
L 25.59375 0 
L 25.59375 64.59375 
L -0.296875 64.59375 
z
" id="DejaVuSans-84"/>
     </defs>
     <use xlink:href="#DejaVuSans-78"/>
     <use x="74.804688" xlink:href="#DejaVuSans-120"/>
     <use x="133.984375" xlink:href="#DejaVuSans-32"/>
     <use x="165.771484" xlink:href="#DejaVuSans-61"/>
     <use x="249.560547" xlink:href="#DejaVuSans-32"/>
     <use x="281.347656" xlink:href="#DejaVuSans-49"/>
     <use x="344.970703" xlink:href="#DejaVuSans-48"/>
     <use x="408.59375" xlink:href="#DejaVuSans-48"/>
     <use x="472.216797" xlink:href="#DejaVuSans-48"/>
     <use x="535.839844" xlink:href="#DejaVuSans-48"/>
     <use x="599.462891" xlink:href="#DejaVuSans-44"/>
     <use x="631.25" xlink:href="#DejaVuSans-32"/>
     <use x="663.037109" xlink:href="#DejaVuSans-78"/>
     <use x="737.841797" xlink:href="#DejaVuSans-116"/>
     <use x="777.050781" xlink:href="#DejaVuSans-32"/>
     <use x="808.837891" xlink:href="#DejaVuSans-61"/>
     <use x="892.626953" xlink:href="#DejaVuSans-32"/>
     <use x="924.414062" xlink:href="#DejaVuSans-49"/>
     <use x="988.037109" xlink:href="#DejaVuSans-48"/>
     <use x="1051.660156" xlink:href="#DejaVuSans-48"/>
     <use x="1115.283203" xlink:href="#DejaVuSans-48"/>
     <use x="1178.90625" xlink:href="#DejaVuSans-44"/>
     <use x="1210.693359" xlink:href="#DejaVuSans-32"/>
     <use x="1242.480469" xlink:href="#DejaVuSans-84"/>
     <use x="1303.564453" xlink:href="#DejaVuSans-32"/>
     <use x="1335.351562" xlink:href="#DejaVuSans-61"/>
     <use x="1419.140625" xlink:href="#DejaVuSans-32"/>
     <use x="1450.927734" xlink:href="#DejaVuSans-50"/>
     <use x="1514.550781" xlink:href="#DejaVuSans-48"/>
    </g>
   </g>
  </g>
 </g>
 <defs>
  <clipPath id="p19fb47209d">
   <rect height="163.08" width="334.8" x="54" y="25.92"/>
  </clipPath>
 </defs>
</svg>
