<?xml version="1.0" encoding="utf-8" standalone="no"?>
<!DOCTYPE svg PUBLIC "-//W3C//DTD SVG 1.1//EN"
  "http://www.w3.org/Graphics/SVG/1.1/DTD/svg11.dtd">
<!-- Created with matplotlib (https://matplotlib.org/) -->
<svg height="216pt" version="1.1" viewBox="0 0 432 216" width="432pt" xmlns="http://www.w3.org/2000/svg" xmlns:xlink="http://www.w3.org/1999/xlink">
 <metadata>
  <rdf:RDF xmlns:cc="http://creativecommons.org/ns#" xmlns:dc="http://purl.org/dc/elements/1.1/" xmlns:rdf="http://www.w3.org/1999/02/22-rdf-syntax-ns#">
   <cc:Work>
    <dc:type rdf:resource="http://purl.org/dc/dcmitype/StillImage"/>
    <dc:date>2021-11-28T13:26:28.260641</dc:date>
    <dc:format>image/svg+xml</dc:format>
    <dc:creator>
     <cc:Agent>
      <dc:title>Matplotlib v3.3.4, https://matplotlib.org/</dc:title>
     </cc:Agent>
    </dc:creator>
   </cc:Work>
  </rdf:RDF>
 </metadata>
 <defs>
  <style type="text/css">*{stroke-linecap:butt;stroke-linejoin:round;}</style>
 </defs>
 <g id="figure_1">
  <g id="patch_1">
   <path d="M 0 216 
L 432 216 
L 432 0 
L 0 0 
z
" style="fill:none;"/>
  </g>
  <g id="axes_1">
   <g id="patch_2">
    <path d="M 54 189 
L 388.8 189 
L 388.8 25.92 
L 54 25.92 
z
" style="fill:#ffffff;"/>
   </g>
   <g id="PolyCollection_1">
    <defs>
     <path d="M 69.218182 -34.412727 
L 69.218182 -74.633688 
L 69.52285 -74.633791 
L 69.827518 -74.634276 
L 70.132187 -74.63541 
L 70.436855 -74.637461 
L 70.741523 -74.640693 
L 71.046192 -74.645367 
L 71.35086 -74.651742 
L 71.655528 -74.66007 
L 71.960197 -74.670603 
L 72.264865 -74.683583 
L 72.569533 -74.699247 
L 72.874201 -74.717828 
L 73.17887 -74.739548 
L 73.483538 -74.764625 
L 73.788206 -74.793265 
L 74.092875 -74.825667 
L 74.397543 -74.862022 
L 74.702211 -74.902507 
L 75.00688 -74.947292 
L 75.311548 -74.996537 
L 75.616216 -75.050386 
L 75.920885 -75.108977 
L 76.225553 -75.172432 
L 76.530221 -75.240863 
L 76.834889 -75.314369 
L 77.139558 -75.393035 
L 77.444226 -75.476934 
L 77.748894 -75.566126 
L 78.053563 -75.660657 
L 78.358231 -75.760559 
L 78.662899 -75.865853 
L 78.967568 -75.976543 
L 79.272236 -76.092621 
L 79.576904 -76.214066 
L 79.881572 -76.340841 
L 80.186241 -76.472899 
L 80.490909 -76.610177 
L 80.795577 -76.752599 
L 81.100246 -76.900077 
L 81.404914 -77.052511 
L 81.709582 -77.209786 
L 82.014251 -77.371776 
L 82.318919 -77.538345 
L 82.623587 -77.709342 
L 82.928256 -77.884608 
L 83.232924 -78.063971 
L 83.537592 -78.24725 
L 83.84226 -78.434253 
L 84.146929 -78.624782 
L 84.451597 -78.818626 
L 84.756265 -79.015567 
L 85.060934 -79.215382 
L 85.365602 -79.417837 
L 85.67027 -79.622694 
L 85.974939 -79.829708 
L 86.279607 -80.03863 
L 86.584275 -80.249204 
L 86.888943 -80.461172 
L 87.193612 -80.674273 
L 87.49828 -80.888241 
L 87.802948 -81.102811 
L 88.107617 -81.317713 
L 88.412285 -81.53268 
L 88.716953 -81.747443 
L 89.021622 -81.961734 
L 89.32629 -82.175286 
L 89.630958 -82.387835 
L 89.935627 -82.599118 
L 90.240295 -82.808877 
L 90.544963 -83.016858 
L 90.849631 -83.22281 
L 91.1543 -83.426488 
L 91.458968 -83.627652 
L 91.763636 -83.826071 
L 92.068305 -84.021518 
L 92.372973 -84.213775 
L 92.677641 -84.402632 
L 92.98231 -84.587886 
L 93.286978 -84.769344 
L 93.591646 -84.946824 
L 93.896314 -85.120152 
L 94.200983 -85.289165 
L 94.505651 -85.45371 
L 94.810319 -85.613646 
L 95.114988 -85.768844 
L 95.419656 -85.919185 
L 95.724324 -86.064563 
L 96.028993 -86.204885 
L 96.333661 -86.340069 
L 96.638329 -86.470047 
L 96.942998 -86.594764 
L 97.247666 -86.714175 
L 97.552334 -86.828253 
L 97.857002 -86.93698 
L 98.161671 -87.040354 
L 98.466339 -87.138384 
L 98.771007 -87.231094 
L 99.075676 -87.318521 
L 99.380344 -87.400714 
L 99.685012 -87.477734 
L 99.989681 -87.549659 
L 100.294349 -87.616575 
L 100.599017 -87.678582 
L 100.903686 -87.735794 
L 101.208354 -87.788335 
L 101.513022 -87.83634 
L 101.81769 -87.879957 
L 102.122359 -87.919344 
L 102.427027 -87.954669 
L 102.731695 -87.986113 
L 103.036364 -88.013862 
L 103.341032 -88.038115 
L 103.6457 -88.059079 
L 103.950369 -88.076969 
L 104.255037 -88.092006 
L 104.559705 -88.104421 
L 104.864373 -88.114451 
L 105.169042 -88.122337 
L 105.47371 -88.128329 
L 105.778378 -88.132678 
L 106.083047 -88.135642 
L 106.387715 -88.137482 
L 106.692383 -88.138462 
L 106.997052 -88.138846 
L 107.30172 -88.138904 
L 107.606388 -88.138903 
L 107.911057 -88.139113 
L 108.215725 -88.139802 
L 108.520393 -88.141238 
L 108.825061 -88.143686 
L 109.12973 -88.147409 
L 109.434398 -88.152669 
L 109.739066 -88.159722 
L 110.043735 -88.16882 
L 110.348403 -88.180211 
L 110.653071 -88.194135 
L 110.95774 -88.210829 
L 111.262408 -88.230521 
L 111.567076 -88.253431 
L 111.871744 -88.279774 
L 112.176413 -88.309754 
L 112.481081 -88.343565 
L 112.785749 -88.381394 
L 113.090418 -88.423417 
L 113.395086 -88.469799 
L 113.699754 -88.520693 
L 114.004423 -88.576244 
L 114.309091 -88.636582 
L 114.613759 -88.701826 
L 114.918428 -88.772083 
L 115.223096 -88.847447 
L 115.527764 -88.927999 
L 115.832432 -89.013808 
L 116.137101 -89.104928 
L 116.441769 -89.2014 
L 116.746437 -89.303253 
L 117.051106 -89.4105 
L 117.355774 -89.523141 
L 117.660442 -89.641165 
L 117.965111 -89.764544 
L 118.269779 -89.893238 
L 118.574447 -90.027193 
L 118.879115 -90.166342 
L 119.183784 -90.310605 
L 119.488452 -90.45989 
L 119.79312 -90.614089 
L 120.097789 -90.773086 
L 120.402457 -90.93675 
L 120.707125 -91.10494 
L 121.011794 -91.277501 
L 121.316462 -91.45427 
L 121.62113 -91.635071 
L 121.925799 -91.819721 
L 122.230467 -92.008024 
L 122.535135 -92.199777 
L 122.839803 -92.394768 
L 123.144472 -92.592776 
L 123.44914 -92.793573 
L 123.753808 -92.996926 
L 124.058477 -93.202592 
L 124.363145 -93.410326 
L 124.667813 -93.619875 
L 124.972482 -93.830984 
L 125.27715 -94.043393 
L 125.581818 -94.256838 
L 125.886486 -94.471055 
L 126.191155 -94.685776 
L 126.495823 -94.900733 
L 126.800491 -95.115657 
L 127.10516 -95.33028 
L 127.409828 -95.544334 
L 127.714496 -95.757553 
L 128.019165 -95.969674 
L 128.323833 -96.180435 
L 128.628501 -96.38958 
L 128.93317 -96.596855 
L 129.237838 -96.802012 
L 129.542506 -97.004807 
L 129.847174 -97.205005 
L 130.151843 -97.402374 
L 130.456511 -97.596691 
L 130.761179 -97.787741 
L 131.065848 -97.975316 
L 131.370516 -98.159218 
L 131.675184 -98.339257 
L 131.979853 -98.515254 
L 132.284521 -98.687038 
L 132.589189 -98.854451 
L 132.893857 -99.017344 
L 133.198526 -99.175579 
L 133.503194 -99.329032 
L 133.807862 -99.477588 
L 134.112531 -99.621147 
L 134.417199 -99.759618 
L 134.721867 -99.892925 
L 135.026536 -100.021004 
L 135.331204 -100.143804 
L 135.635872 -100.261288 
L 135.940541 -100.37343 
L 136.245209 -100.480219 
L 136.549877 -100.581657 
L 136.854545 -100.677758 
L 137.159214 -100.768551 
L 137.463882 -100.854077 
L 137.76855 -100.93439 
L 138.073219 -101.009557 
L 138.377887 -101.079657 
L 138.682555 -101.144785 
L 138.987224 -101.205043 
L 139.291892 -101.260549 
L 139.59656 -101.311432 
L 139.901229 -101.357831 
L 140.205897 -101.399898 
L 140.510565 -101.437795 
L 140.815233 -101.471694 
L 141.119902 -101.501778 
L 141.42457 -101.528239 
L 141.729238 -101.551277 
L 142.033907 -101.571103 
L 142.338575 -101.587934 
L 142.643243 -101.601995 
L 142.947912 -101.613519 
L 143.25258 -101.622745 
L 143.557248 -101.629917 
L 143.861916 -101.635284 
L 144.166585 -101.639102 
L 144.471253 -101.641629 
L 144.775921 -101.643127 
L 145.08059 -101.643861 
L 145.385258 -101.644096 
L 145.689926 -101.644101 
L 145.994595 -101.644146 
L 146.299263 -101.644498 
L 146.603931 -101.645426 
L 146.9086 -101.647198 
L 147.213268 -101.650077 
L 147.517936 -101.654327 
L 147.822604 -101.660207 
L 148.127273 -101.667971 
L 148.431941 -101.67787 
L 148.736609 -101.69015 
L 149.041278 -101.70505 
L 149.345946 -101.722803 
L 149.650614 -101.743635 
L 149.955283 -101.767764 
L 150.259951 -101.7954 
L 150.564619 -101.826744 
L 150.869287 -101.861989 
L 151.173956 -101.901316 
L 151.478624 -101.944898 
L 151.783292 -101.992896 
L 152.087961 -102.04546 
L 152.392629 -102.102729 
L 152.697297 -102.16483 
L 153.001966 -102.231876 
L 153.306634 -102.303972 
L 153.611302 -102.381205 
L 153.915971 -102.463653 
L 154.220639 -102.551378 
L 154.525307 -102.644431 
L 154.829975 -102.742849 
L 155.134644 -102.846653 
L 155.439312 -102.955853 
L 155.74398 -103.070445 
L 156.048649 -103.190411 
L 156.353317 -103.315719 
L 156.657985 -103.446324 
L 156.962654 -103.582167 
L 157.267322 -103.723177 
L 157.57199 -103.869269 
L 157.876658 -104.020346 
L 158.181327 -104.176296 
L 158.485995 -104.336998 
L 158.790663 -104.502317 
L 159.095332 -104.672107 
L 159.4 -104.846211 
L 159.704668 -105.02446 
L 160.009337 -105.206677 
L 160.314005 -105.392672 
L 160.618673 -105.582247 
L 160.923342 -105.775197 
L 161.22801 -105.971306 
L 161.532678 -106.17035 
L 161.837346 -106.3721 
L 162.142015 -106.576318 
L 162.446683 -106.782761 
L 162.751351 -106.991181 
L 163.05602 -107.201325 
L 163.360688 -107.412935 
L 163.665356 -107.625749 
L 163.970025 -107.839504 
L 164.274693 -108.053935 
L 164.579361 -108.268772 
L 164.884029 -108.483748 
L 165.188698 -108.698594 
L 165.493366 -108.913042 
L 165.798034 -109.126824 
L 166.102703 -109.339676 
L 166.407371 -109.551335 
L 166.712039 -109.761541 
L 167.016708 -109.970038 
L 167.321376 -110.176574 
L 167.626044 -110.380904 
L 167.930713 -110.582786 
L 168.235381 -110.781986 
L 168.540049 -110.978276 
L 168.844717 -111.171435 
L 169.149386 -111.361251 
L 169.454054 -111.547519 
L 169.758722 -111.730044 
L 170.063391 -111.90864 
L 170.368059 -112.083132 
L 170.672727 -112.253351 
L 170.977396 -112.419145 
L 171.282064 -112.580367 
L 171.586732 -112.736885 
L 171.8914 -112.888578 
L 172.196069 -113.035337 
L 172.500737 -113.177063 
L 172.805405 -113.313673 
L 173.110074 -113.445095 
L 173.414742 -113.571268 
L 173.71941 -113.692148 
L 174.024079 -113.807701 
L 174.328747 -113.917906 
L 174.633415 -114.022757 
L 174.938084 -114.122261 
L 175.242752 -114.216437 
L 175.54742 -114.305318 
L 175.852088 -114.38895 
L 176.156757 -114.467392 
L 176.461425 -114.540715 
L 176.766093 -114.609004 
L 177.070762 -114.672357 
L 177.37543 -114.730881 
L 177.680098 -114.784698 
L 177.984767 -114.833941 
L 178.289435 -114.878754 
L 178.594103 -114.919292 
L 178.898771 -114.955722 
L 179.20344 -114.988219 
L 179.508108 -115.016968 
L 179.812776 -115.042167 
L 180.117445 -115.064018 
L 180.422113 -115.082734 
L 180.726781 -115.098536 
L 181.03145 -115.111652 
L 181.336118 -115.122316 
L 181.640786 -115.13077 
L 181.945455 -115.13726 
L 182.250123 -115.142037 
L 182.554791 -115.145357 
L 182.859459 -115.147482 
L 183.164128 -115.148672 
L 183.468796 -115.149194 
L 183.773464 -115.149315 
L 184.078133 -115.149304 
L 184.382801 -115.149429 
L 184.687469 -115.149958 
L 184.992138 -115.151161 
L 185.296806 -115.153303 
L 185.601474 -115.156649 
L 185.906143 -115.161459 
L 186.210811 -115.167991 
L 186.515479 -115.1765 
L 186.820147 -115.187233 
L 187.124816 -115.200434 
L 187.429484 -115.21634 
L 187.734152 -115.235181 
L 188.038821 -115.257182 
L 188.343489 -115.282556 
L 188.648157 -115.311511 
L 188.952826 -115.344246 
L 189.257494 -115.380948 
L 189.562162 -115.421796 
L 189.86683 -115.466958 
L 190.171499 -115.516592 
L 190.476167 -115.570844 
L 190.780835 -115.629847 
L 191.085504 -115.693725 
L 191.390172 -115.762589 
L 191.69484 -115.836534 
L 191.999509 -115.915647 
L 192.304177 -115.999998 
L 192.608845 -116.089647 
L 192.913514 -116.184638 
L 193.218182 -116.285003 
L 193.52285 -116.39076 
L 193.827518 -116.501913 
L 194.132187 -116.618453 
L 194.436855 -116.740357 
L 194.741523 -116.867588 
L 195.046192 -117.000096 
L 195.35086 -117.137819 
L 195.655528 -117.280679 
L 195.960197 -117.428587 
L 196.264865 -117.581441 
L 196.569533 -117.739126 
L 196.874201 -117.901515 
L 197.17887 -118.06847 
L 197.483538 -118.23984 
L 197.788206 -118.415464 
L 198.092875 -118.59517 
L 198.397543 -118.778777 
L 198.702211 -118.966091 
L 199.00688 -119.156913 
L 199.311548 -119.351031 
L 199.616216 -119.548228 
L 199.920885 -119.748279 
L 200.225553 -119.95095 
L 200.530221 -120.156001 
L 200.834889 -120.363189 
L 201.139558 -120.572263 
L 201.444226 -120.782967 
L 201.748894 -120.995043 
L 202.053563 -121.208228 
L 202.358231 -121.422259 
L 202.662899 -121.636868 
L 202.967568 -121.851786 
L 203.272236 -122.066746 
L 203.576904 -122.281479 
L 203.881572 -122.495717 
L 204.186241 -122.709193 
L 204.490909 -122.921643 
L 204.795577 -123.132806 
L 205.100246 -123.342422 
L 205.404914 -123.550239 
L 205.709582 -123.756005 
L 206.014251 -123.959476 
L 206.318919 -124.160414 
L 206.623587 -124.358586 
L 206.928256 -124.553768 
L 207.232924 -124.745741 
L 207.537592 -124.934296 
L 207.84226 -125.119232 
L 208.146929 -125.300356 
L 208.451597 -125.477486 
L 208.756265 -125.65045 
L 209.060934 -125.819084 
L 209.365602 -125.983239 
L 209.67027 -126.142774 
L 209.974939 -126.297559 
L 210.279607 -126.447478 
L 210.584275 -126.592426 
L 210.888943 -126.732309 
L 211.193612 -126.867049 
L 211.49828 -126.996577 
L 211.802948 -127.120839 
L 212.107617 -127.239794 
L 212.412285 -127.353413 
L 212.716953 -127.46168 
L 213.021622 -127.564595 
L 213.32629 -127.662167 
L 213.630958 -127.754422 
L 213.935627 -127.841397 
L 214.240295 -127.923143 
L 214.544963 -127.999723 
L 214.849631 -128.071214 
L 215.1543 -128.137705 
L 215.458968 -128.199296 
L 215.763636 -128.256102 
L 216.068305 -128.308247 
L 216.372973 -128.35587 
L 216.677641 -128.399117 
L 216.98231 -128.438149 
L 217.286978 -128.473134 
L 217.591646 -128.504252 
L 217.896314 -128.531693 
L 218.200983 -128.555656 
L 218.505651 -128.576348 
L 218.810319 -128.593983 
L 219.114988 -128.608786 
L 219.419656 -128.620987 
L 219.724324 -128.630823 
L 220.028993 -128.638537 
L 220.333661 -128.644378 
L 220.638329 -128.648598 
L 220.942998 -128.651456 
L 221.247666 -128.653211 
L 221.552334 -128.654129 
L 221.857002 -128.654475 
L 222.161671 -128.654517 
L 222.466339 -128.654524 
L 222.771007 -128.654765 
L 223.075676 -128.655507 
L 223.380344 -128.657019 
L 223.685012 -128.659566 
L 223.989681 -128.663412 
L 224.294349 -128.668816 
L 224.599017 -128.676034 
L 224.903686 -128.68532 
L 225.208354 -128.696918 
L 225.513022 -128.711071 
L 225.81769 -128.728014 
L 226.122359 -128.747973 
L 226.427027 -128.77117 
L 226.731695 -128.797817 
L 227.036364 -128.828118 
L 227.341032 -128.862268 
L 227.6457 -128.90045 
L 227.950369 -128.942841 
L 228.255037 -128.989604 
L 228.559705 -129.040893 
L 228.864373 -129.09685 
L 229.169042 -129.157604 
L 229.47371 -129.223275 
L 229.778378 -129.293967 
L 230.083047 -129.369773 
L 230.387715 -129.450774 
L 230.692383 -129.537037 
L 230.997052 -129.628615 
L 231.30172 -129.725548 
L 231.606388 -129.827864 
L 231.911057 -129.935574 
L 232.215725 -130.048679 
L 232.520393 -130.167163 
L 232.825061 -130.291 
L 233.12973 -130.420148 
L 233.434398 -130.554552 
L 233.739066 -130.694143 
L 234.043735 -130.838842 
L 234.348403 -130.988552 
L 234.653071 -131.143169 
L 234.95774 -131.302572 
L 235.262408 -131.46663 
L 235.567076 -131.635201 
L 235.871744 -131.80813 
L 236.176413 -131.985252 
L 236.481081 -132.166392 
L 236.785749 -132.351363 
L 237.090418 -132.53997 
L 237.395086 -132.73201 
L 237.699754 -132.927268 
L 238.004423 -133.125525 
L 238.309091 -133.326551 
L 238.613759 -133.530111 
L 238.918428 -133.735965 
L 239.223096 -133.943864 
L 239.527764 -134.153558 
L 239.832432 -134.364789 
L 240.137101 -134.577297 
L 240.441769 -134.790819 
L 240.746437 -135.005089 
L 241.051106 -135.219841 
L 241.355774 -135.434806 
L 241.660442 -135.649715 
L 241.965111 -135.864299 
L 242.269779 -136.078292 
L 242.574447 -136.291427 
L 242.879115 -136.503441 
L 243.183784 -136.714074 
L 243.488452 -136.923068 
L 243.79312 -137.130171 
L 244.097789 -137.335134 
L 244.402457 -137.537716 
L 244.707125 -137.737679 
L 245.011794 -137.934795 
L 245.316462 -138.12884 
L 245.62113 -138.3196 
L 245.925799 -138.506867 
L 246.230467 -138.690445 
L 246.535135 -138.870144 
L 246.839803 -139.045785 
L 247.144472 -139.2172 
L 247.44914 -139.384231 
L 247.753808 -139.546729 
L 248.058477 -139.704558 
L 248.363145 -139.857595 
L 248.667813 -140.005726 
L 248.972482 -140.148851 
L 249.27715 -140.286882 
L 249.581818 -140.419742 
L 249.886486 -140.54737 
L 250.191155 -140.669715 
L 250.495823 -140.786741 
L 250.800491 -140.898424 
L 251.10516 -141.004753 
L 251.409828 -141.105732 
L 251.714496 -141.201376 
L 252.019165 -141.291715 
L 252.323833 -141.376791 
L 252.628501 -141.456659 
L 252.93317 -141.531388 
L 253.237838 -141.601058 
L 253.542506 -141.665763 
L 253.847174 -141.725608 
L 254.151843 -141.780712 
L 254.456511 -141.831204 
L 254.761179 -141.877225 
L 255.065848 -141.918928 
L 255.370516 -141.956474 
L 255.675184 -141.990039 
L 255.979853 -142.019804 
L 256.284521 -142.045963 
L 256.589189 -142.068717 
L 256.893857 -142.088277 
L 257.198526 -142.104861 
L 257.503194 -142.118696 
L 257.807862 -142.130013 
L 258.112531 -142.139053 
L 258.417199 -142.14606 
L 258.721867 -142.151284 
L 259.026536 -142.154981 
L 259.331204 -142.15741 
L 259.635872 -142.158831 
L 259.940541 -142.159511 
L 260.245209 -142.159716 
L 260.549877 -142.159715 
L 260.854545 -142.159775 
L 261.159214 -142.160166 
L 261.463882 -142.161157 
L 261.76855 -142.163013 
L 262.073219 -142.166 
L 262.377887 -142.170379 
L 262.682555 -142.176411 
L 262.987224 -142.184349 
L 263.291892 -142.194443 
L 263.59656 -142.206938 
L 263.901229 -142.222074 
L 264.205897 -142.240083 
L 264.510565 -142.261189 
L 264.815233 -142.285611 
L 265.119902 -142.313558 
L 265.42457 -142.345229 
L 265.729238 -142.380818 
L 266.033907 -142.420504 
L 266.338575 -142.464459 
L 266.643243 -142.512843 
L 266.947912 -142.565805 
L 267.25258 -142.623484 
L 267.557248 -142.686005 
L 267.861916 -142.753482 
L 268.166585 -142.826015 
L 268.471253 -142.903693 
L 268.775921 -142.986592 
L 269.08059 -143.074773 
L 269.385258 -143.168285 
L 269.689926 -143.267164 
L 269.994595 -143.371431 
L 270.299263 -143.481095 
L 270.603931 -143.596149 
L 270.9086 -143.716575 
L 271.213268 -143.84234 
L 271.517936 -143.973397 
L 271.822604 -144.109687 
L 272.127273 -144.251137 
L 272.431941 -144.397661 
L 272.736609 -144.549161 
L 273.041278 -144.705524 
L 273.345946 -144.866628 
L 273.650614 -145.032336 
L 273.955283 -145.202503 
L 274.259951 -145.376969 
L 274.564619 -145.555567 
L 274.869287 -145.738115 
L 275.173956 -145.924425 
L 275.478624 -146.114299 
L 275.783292 -146.307529 
L 276.087961 -146.503898 
L 276.392629 -146.703184 
L 276.697297 -146.905155 
L 277.001966 -147.109574 
L 277.306634 -147.316196 
L 277.611302 -147.524775 
L 277.915971 -147.735054 
L 278.220639 -147.946778 
L 278.525307 -148.159683 
L 278.829975 -148.373507 
L 279.134644 -148.587983 
L 279.439312 -148.802843 
L 279.74398 -149.017818 
L 280.048649 -149.23264 
L 280.353317 -149.447042 
L 280.657985 -149.660755 
L 280.962654 -149.873514 
L 281.267322 -150.085058 
L 281.57199 -150.295127 
L 281.876658 -150.503466 
L 282.181327 -150.709823 
L 282.485995 -150.913952 
L 282.790663 -151.115613 
L 283.095332 -151.314571 
L 283.4 -151.510601 
L 283.704668 -151.703481 
L 284.009337 -151.893 
L 284.314005 -152.078955 
L 284.618673 -152.26115 
L 284.923342 -152.4394 
L 285.22801 -152.613531 
L 285.532678 -152.783377 
L 285.837346 -152.948783 
L 286.142015 -153.109606 
L 286.446683 -153.265715 
L 286.751351 -153.416989 
L 287.05602 -153.563319 
L 287.360688 -153.704609 
L 287.665356 -153.840776 
L 287.970025 -153.971749 
L 288.274693 -154.09747 
L 288.579361 -154.217893 
L 288.884029 -154.332988 
L 289.188698 -154.442733 
L 289.493366 -154.547125 
L 289.798034 -154.646171 
L 290.102703 -154.73989 
L 290.407371 -154.828319 
L 290.712039 -154.911503 
L 291.016708 -154.989502 
L 291.321376 -155.062389 
L 291.626044 -155.130251 
L 291.930713 -155.193184 
L 292.235381 -155.251299 
L 292.540049 -155.304718 
L 292.844717 -155.353575 
L 293.149386 -155.398015 
L 293.454054 -155.438194 
L 293.758722 -155.474279 
L 294.063391 -155.506446 
L 294.368059 -155.534883 
L 294.672727 -155.559786 
L 294.977396 -155.581359 
L 295.282064 -155.599817 
L 295.586732 -155.615379 
L 295.8914 -155.628275 
L 296.196069 -155.63874 
L 296.500737 -155.647015 
L 296.805405 -155.653348 
L 297.110074 -155.65799 
L 297.414742 -155.661198 
L 297.71941 -155.663232 
L 298.024079 -155.664354 
L 298.328747 -155.664831 
L 298.633415 -155.66493 
L 298.938084 -155.66492 
L 299.242752 -155.665069 
L 299.54742 -155.665646 
L 299.852088 -155.666919 
L 300.156757 -155.669154 
L 300.461425 -155.672615 
L 300.766093 -155.677563 
L 301.070762 -155.684255 
L 301.37543 -155.692945 
L 301.680098 -155.703881 
L 301.984767 -155.717305 
L 302.289435 -155.733454 
L 302.594103 -155.752558 
L 302.898771 -155.77484 
L 303.20344 -155.800514 
L 303.508108 -155.829786 
L 303.812776 -155.862854 
L 304.117445 -155.899905 
L 304.422113 -155.941117 
L 304.726781 -155.986657 
L 305.03145 -156.036682 
L 305.336118 -156.091336 
L 305.640786 -156.150754 
L 305.945455 -156.215056 
L 306.250123 -156.284351 
L 306.554791 -156.358737 
L 306.859459 -156.438297 
L 307.164128 -156.523101 
L 307.468796 -156.613207 
L 307.773464 -156.708659 
L 308.078133 -156.809486 
L 308.382801 -156.915706 
L 308.687469 -157.027322 
L 308.992138 -157.144324 
L 309.296806 -157.266687 
L 309.601474 -157.394373 
L 309.906143 -157.527332 
L 310.210811 -157.665499 
L 310.515479 -157.808796 
L 310.820147 -157.957133 
L 311.124816 -158.110406 
L 311.429484 -158.2685 
L 311.734152 -158.431287 
L 312.038821 -158.598627 
L 312.343489 -158.770369 
L 312.648157 -158.94635 
L 312.952826 -159.126399 
L 313.257494 -159.310331 
L 313.562162 -159.497955 
L 313.86683 -159.689068 
L 314.171499 -159.883459 
L 314.476167 -160.08091 
L 314.780835 -160.281195 
L 315.085504 -160.48408 
L 315.390172 -160.689325 
L 315.69484 -160.896684 
L 315.999509 -161.105908 
L 316.304177 -161.31674 
L 316.608845 -161.528922 
L 316.913514 -161.74219 
L 317.218182 -161.956281 
L 317.52285 -162.170926 
L 317.827518 -162.385859 
L 318.132187 -162.60081 
L 318.436855 -162.815511 
L 318.741523 -163.029694 
L 319.046192 -163.243092 
L 319.35086 -163.455442 
L 319.655528 -163.666482 
L 319.960197 -163.875954 
L 320.264865 -164.083604 
L 320.569533 -164.289182 
L 320.874201 -164.492446 
L 321.17887 -164.693155 
L 321.483538 -164.89108 
L 321.788206 -165.085994 
L 322.092875 -165.277682 
L 322.397543 -165.465934 
L 322.702211 -165.65055 
L 323.00688 -165.831338 
L 323.311548 -166.008117 
L 323.616216 -166.180715 
L 323.920885 -166.348971 
L 324.225553 -166.512735 
L 324.530221 -166.671866 
L 324.834889 -166.826238 
L 325.139558 -166.975734 
L 325.444226 -167.120251 
L 325.748894 -167.259696 
L 326.053563 -167.39399 
L 326.358231 -167.523068 
L 326.662899 -167.646876 
L 326.967568 -167.765374 
L 327.272236 -167.878533 
L 327.576904 -167.986341 
L 327.881572 -168.088796 
L 328.186241 -168.185911 
L 328.490909 -168.277711 
L 328.795577 -168.364235 
L 329.100246 -168.445535 
L 329.404914 -168.521675 
L 329.709582 -168.592733 
L 330.014251 -168.658798 
L 330.318919 -168.719974 
L 330.623587 -168.776375 
L 330.928256 -168.828126 
L 331.232924 -168.875367 
L 331.537592 -168.918246 
L 331.84226 -168.956923 
L 332.146929 -168.991569 
L 332.451597 -169.022365 
L 332.756265 -169.049499 
L 333.060934 -169.073173 
L 333.365602 -169.093593 
L 333.67027 -169.110977 
L 333.974939 -169.125548 
L 334.279607 -169.137536 
L 334.584275 -169.14718 
L 334.888943 -169.154724 
L 335.193612 -169.160415 
L 335.49828 -169.164508 
L 335.802948 -169.167261 
L 336.107617 -169.168934 
L 336.412285 -169.169792 
L 336.716953 -169.170102 
L 337.021622 -169.17013 
L 337.32629 -169.170147 
L 337.630958 -169.17042 
L 337.935627 -169.171218 
L 338.240295 -169.172808 
L 338.544963 -169.175457 
L 338.849631 -169.179426 
L 339.1543 -169.184976 
L 339.458968 -169.192362 
L 339.763636 -169.201836 
L 340.068305 -169.213645 
L 340.372973 -169.228028 
L 340.677641 -169.24522 
L 340.98231 -169.265449 
L 341.286978 -169.288935 
L 341.591646 -169.315888 
L 341.896314 -169.346511 
L 342.200983 -169.381 
L 342.505651 -169.419537 
L 342.810319 -169.462297 
L 343.114988 -169.509443 
L 343.419656 -169.561127 
L 343.724324 -169.617491 
L 344.028993 -169.678663 
L 344.333661 -169.74476 
L 344.638329 -169.815888 
L 344.942998 -169.892138 
L 345.247666 -169.973588 
L 345.552334 -170.060305 
L 345.857002 -170.152342 
L 346.161671 -170.249736 
L 346.466339 -170.352514 
L 346.771007 -170.460688 
L 347.075676 -170.574255 
L 347.380344 -170.693201 
L 347.685012 -170.817496 
L 347.989681 -170.947097 
L 348.294349 -171.081949 
L 348.599017 -171.221983 
L 348.903686 -171.367115 
L 349.208354 -171.517251 
L 349.513022 -171.672283 
L 349.81769 -171.832091 
L 350.122359 -171.996543 
L 350.427027 -172.165494 
L 350.731695 -172.33879 
L 351.036364 -172.516264 
L 351.341032 -172.69774 
L 351.6457 -172.883031 
L 351.950369 -173.071941 
L 352.255037 -173.264266 
L 352.559705 -173.45979 
L 352.864373 -173.658294 
L 353.169042 -173.859547 
L 353.47371 -174.063314 
L 353.778378 -174.269353 
L 354.083047 -174.477416 
L 354.387715 -174.687252 
L 354.692383 -174.898602 
L 354.997052 -175.111208 
L 355.30172 -175.324805 
L 355.606388 -175.539127 
L 355.911057 -175.753908 
L 356.215725 -175.968878 
L 356.520393 -176.18377 
L 356.825061 -176.398314 
L 357.12973 -176.612243 
L 357.434398 -176.825293 
L 357.739066 -177.037199 
L 358.043735 -177.2477 
L 358.348403 -177.456542 
L 358.653071 -177.663471 
L 358.95774 -177.868239 
L 359.262408 -178.070605 
L 359.567076 -178.270333 
L 359.871744 -178.467194 
L 360.176413 -178.660965 
L 360.481081 -178.851433 
L 360.785749 -179.038391 
L 361.090418 -179.221643 
L 361.395086 -179.401001 
L 361.699754 -179.576286 
L 362.004423 -179.74733 
L 362.309091 -179.913977 
L 362.613759 -180.07608 
L 362.918428 -180.233502 
L 363.223096 -180.386122 
L 363.527764 -180.533827 
L 363.832432 -180.676518 
L 364.137101 -180.814107 
L 364.441769 -180.946521 
L 364.746437 -181.073697 
L 365.051106 -181.195587 
L 365.355774 -181.312154 
L 365.660442 -181.423378 
L 365.965111 -181.529248 
L 366.269779 -181.629768 
L 366.574447 -181.724955 
L 366.879115 -181.81484 
L 367.183784 -181.899467 
L 367.488452 -181.978891 
L 367.79312 -182.053182 
L 368.097789 -182.122421 
L 368.402457 -182.186705 
L 368.707125 -182.246138 
L 369.011794 -182.300841 
L 369.316462 -182.350944 
L 369.62113 -182.396588 
L 369.925799 -182.437927 
L 370.230467 -182.475125 
L 370.535135 -182.508356 
L 370.839803 -182.537803 
L 371.144472 -182.563662 
L 371.44914 -182.586134 
L 371.753808 -182.605429 
L 372.058477 -182.621769 
L 372.363145 -182.635378 
L 372.667813 -182.64649 
L 372.972482 -182.655345 
L 373.27715 -182.662189 
L 373.581818 -182.667273 
L 373.581818 -142.446833 
L 373.581818 -142.446833 
L 373.27715 -142.441976 
L 372.972482 -142.435393 
L 372.667813 -142.426831 
L 372.363145 -142.416042 
L 372.058477 -142.402781 
L 371.753808 -142.386814 
L 371.44914 -142.367908 
L 371.144472 -142.345842 
L 370.839803 -142.320399 
L 370.535135 -142.291375 
L 370.230467 -142.258569 
L 369.925799 -142.221795 
L 369.62113 -142.180874 
L 369.316462 -142.135637 
L 369.011794 -142.085928 
L 368.707125 -142.031601 
L 368.402457 -141.97252 
L 368.097789 -141.908565 
L 367.79312 -141.839625 
L 367.488452 -141.765601 
L 367.183784 -141.686411 
L 366.879115 -141.601981 
L 366.574447 -141.512254 
L 366.269779 -141.417184 
L 365.965111 -141.31674 
L 365.660442 -141.210905 
L 365.355774 -141.099673 
L 365.051106 -140.983054 
L 364.746437 -140.861072 
L 364.441769 -140.733762 
L 364.137101 -140.601176 
L 363.832432 -140.463375 
L 363.527764 -140.320438 
L 363.223096 -140.172452 
L 362.918428 -140.019521 
L 362.613759 -139.86176 
L 362.309091 -139.699295 
L 362.004423 -139.532266 
L 361.699754 -139.360822 
L 361.395086 -139.185125 
L 361.090418 -139.005346 
L 360.785749 -138.82167 
L 360.481081 -138.634286 
L 360.176413 -138.443398 
L 359.871744 -138.249214 
L 359.567076 -138.051953 
L 359.262408 -137.851842 
L 358.95774 -137.649113 
L 358.653071 -137.444006 
L 358.348403 -137.236765 
L 358.043735 -137.027643 
L 357.739066 -136.816893 
L 357.434398 -136.604775 
L 357.12973 -136.391552 
L 356.825061 -136.177487 
L 356.520393 -135.96285 
L 356.215725 -135.747907 
L 355.911057 -135.532927 
L 355.606388 -135.31818 
L 355.30172 -135.103933 
L 354.997052 -134.890453 
L 354.692383 -134.678005 
L 354.387715 -134.466851 
L 354.083047 -134.257248 
L 353.778378 -134.049452 
L 353.47371 -133.843711 
L 353.169042 -133.640272 
L 352.864373 -133.439372 
L 352.559705 -133.241244 
L 352.255037 -133.046113 
L 351.950369 -132.854196 
L 351.6457 -132.665703 
L 351.341032 -132.480836 
L 351.036364 -132.299785 
L 350.731695 -132.122734 
L 350.427027 -131.949855 
L 350.122359 -131.781309 
L 349.81769 -131.617248 
L 349.513022 -131.457811 
L 349.208354 -131.303128 
L 348.903686 -131.153315 
L 348.599017 -131.008476 
L 348.294349 -130.868705 
L 347.989681 -130.734079 
L 347.685012 -130.604668 
L 347.380344 -130.480524 
L 347.075676 -130.361689 
L 346.771007 -130.24819 
L 346.466339 -130.140043 
L 346.161671 -130.037249 
L 345.857002 -129.939796 
L 345.552334 -129.84766 
L 345.247666 -129.760801 
L 344.942998 -129.679171 
L 344.638329 -129.602703 
L 344.333661 -129.531322 
L 344.028993 -129.464939 
L 343.724324 -129.40345 
L 343.419656 -129.346744 
L 343.114988 -129.294693 
L 342.810319 -129.247161 
L 342.505651 -129.203999 
L 342.200983 -129.165048 
L 341.896314 -129.130138 
L 341.591646 -129.099089 
L 341.286978 -129.071712 
L 340.98231 -129.047807 
L 340.677641 -129.027167 
L 340.372973 -129.009578 
L 340.068305 -128.994814 
L 339.763636 -128.982647 
L 339.458968 -128.972838 
L 339.1543 -128.965146 
L 338.849631 -128.959321 
L 338.544963 -128.95511 
L 338.240295 -128.952256 
L 337.935627 -128.950499 
L 337.630958 -128.949573 
L 337.32629 -128.949214 
L 337.021622 -128.949154 
L 336.716953 -128.949124 
L 336.412285 -128.948856 
L 336.107617 -128.948081 
L 335.802948 -128.946532 
L 335.49828 -128.943944 
L 335.193612 -128.940053 
L 334.888943 -128.934601 
L 334.584275 -128.927331 
L 334.279607 -128.917991 
L 333.974939 -128.906335 
L 333.67027 -128.892122 
L 333.365602 -128.875117 
L 333.060934 -128.855093 
L 332.756265 -128.831829 
L 332.451597 -128.805113 
L 332.146929 -128.774742 
L 331.84226 -128.740522 
L 331.537592 -128.702266 
L 331.232924 -128.659802 
L 330.928256 -128.612964 
L 330.623587 -128.5616 
L 330.318919 -128.505567 
L 330.014251 -128.444736 
L 329.709582 -128.378988 
L 329.404914 -128.308218 
L 329.100246 -128.232334 
L 328.795577 -128.151254 
L 328.490909 -128.064913 
L 328.186241 -127.973257 
L 327.881572 -127.876245 
L 327.576904 -127.773851 
L 327.272236 -127.666062 
L 326.967568 -127.552879 
L 326.662899 -127.434315 
L 326.358231 -127.3104 
L 326.053563 -127.181174 
L 325.748894 -127.046692 
L 325.444226 -126.907022 
L 325.139558 -126.762247 
L 324.834889 -126.612459 
L 324.530221 -126.457766 
L 324.225553 -126.298287 
L 323.920885 -126.134153 
L 323.616216 -125.965508 
L 323.311548 -125.792505 
L 323.00688 -125.61531 
L 322.702211 -125.434099 
L 322.397543 -125.249058 
L 322.092875 -125.060383 
L 321.788206 -124.868277 
L 321.483538 -124.672954 
L 321.17887 -124.474635 
L 320.874201 -124.273549 
L 320.569533 -124.069931 
L 320.264865 -123.864023 
L 319.960197 -123.656072 
L 319.655528 -123.446331 
L 319.35086 -123.235056 
L 319.046192 -123.022507 
L 318.741523 -122.808949 
L 318.436855 -122.594646 
L 318.132187 -122.379867 
L 317.827518 -122.164879 
L 317.52285 -121.949953 
L 317.218182 -121.735356 
L 316.913514 -121.521356 
L 316.608845 -121.308219 
L 316.304177 -121.096209 
L 315.999509 -120.885587 
L 315.69484 -120.676609 
L 315.390172 -120.469528 
L 315.085504 -120.264593 
L 314.780835 -120.062045 
L 314.476167 -119.862122 
L 314.171499 -119.665053 
L 313.86683 -119.471061 
L 313.562162 -119.280359 
L 313.257494 -119.093156 
L 312.952826 -118.909649 
L 312.648157 -118.730025 
L 312.343489 -118.554465 
L 312.038821 -118.383136 
L 311.734152 -118.216196 
L 311.429484 -118.053793 
L 311.124816 -117.896063 
L 310.820147 -117.74313 
L 310.515479 -117.595106 
L 310.210811 -117.452091 
L 309.906143 -117.314174 
L 309.601474 -117.181429 
L 309.296806 -117.053918 
L 308.992138 -116.931691 
L 308.687469 -116.814785 
L 308.382801 -116.703223 
L 308.078133 -116.597014 
L 307.773464 -116.496155 
L 307.468796 -116.40063 
L 307.164128 -116.310409 
L 306.859459 -116.22545 
L 306.554791 -116.145696 
L 306.250123 -116.071079 
L 305.945455 -116.001518 
L 305.640786 -115.936918 
L 305.336118 -115.877175 
L 305.03145 -115.822168 
L 304.726781 -115.77177 
L 304.422113 -115.725837 
L 304.117445 -115.684218 
L 303.812776 -115.64675 
L 303.508108 -115.613259 
L 303.20344 -115.583561 
L 302.898771 -115.557464 
L 302.594103 -115.534765 
L 302.289435 -115.515255 
L 301.984767 -115.498715 
L 301.680098 -115.484918 
L 301.37543 -115.473632 
L 301.070762 -115.464618 
L 300.766093 -115.45763 
L 300.461425 -115.452419 
L 300.156757 -115.448729 
L 299.852088 -115.446302 
L 299.54742 -115.444876 
L 299.242752 -115.444187 
L 298.938084 -115.443967 
L 298.633415 -115.443949 
L 298.328747 -115.443864 
L 298.024079 -115.443443 
L 297.71941 -115.442418 
L 297.414742 -115.440524 
L 297.110074 -115.437495 
L 296.805405 -115.433069 
L 296.500737 -115.426988 
L 296.196069 -115.418997 
L 295.8914 -115.408847 
L 295.586732 -115.396293 
L 295.282064 -115.381096 
L 294.977396 -115.363024 
L 294.672727 -115.341853 
L 294.368059 -115.317363 
L 294.063391 -115.289348 
L 293.758722 -115.257605 
L 293.454054 -115.221945 
L 293.149386 -115.182186 
L 292.844717 -115.138157 
L 292.540049 -115.089698 
L 292.235381 -115.03666 
L 291.930713 -114.978904 
L 291.626044 -114.916307 
L 291.321376 -114.848753 
L 291.016708 -114.776142 
L 290.712039 -114.698386 
L 290.407371 -114.615409 
L 290.102703 -114.527149 
L 289.798034 -114.433558 
L 289.493366 -114.334601 
L 289.188698 -114.230255 
L 288.884029 -114.120513 
L 288.579361 -114.00538 
L 288.274693 -113.884875 
L 287.970025 -113.759032 
L 287.665356 -113.627896 
L 287.360688 -113.491528 
L 287.05602 -113.35 
L 286.751351 -113.203399 
L 286.446683 -113.051823 
L 286.142015 -112.895383 
L 285.837346 -112.734204 
L 285.532678 -112.56842 
L 285.22801 -112.398179 
L 284.923342 -112.223639 
L 284.618673 -112.04497 
L 284.314005 -111.862351 
L 284.009337 -111.675971 
L 283.704668 -111.486029 
L 283.4 -111.292734 
L 283.095332 -111.096301 
L 282.790663 -110.896954 
L 282.485995 -110.694924 
L 282.181327 -110.490449 
L 281.876658 -110.283772 
L 281.57199 -110.075144 
L 281.267322 -109.864818 
L 280.962654 -109.653051 
L 280.657985 -109.440107 
L 280.353317 -109.226248 
L 280.048649 -109.011742 
L 279.74398 -108.796856 
L 279.439312 -108.58186 
L 279.134644 -108.367022 
L 278.829975 -108.15261 
L 278.525307 -107.938892 
L 278.220639 -107.726133 
L 277.915971 -107.514595 
L 277.611302 -107.304538 
L 277.306634 -107.096218 
L 277.001966 -106.889886 
L 276.697297 -106.685787 
L 276.392629 -106.484163 
L 276.087961 -106.285246 
L 275.783292 -106.089265 
L 275.478624 -105.89644 
L 275.173956 -105.706981 
L 274.869287 -105.521093 
L 274.564619 -105.33897 
L 274.259951 -105.160797 
L 273.955283 -104.986749 
L 273.650614 -104.816992 
L 273.345946 -104.651678 
L 273.041278 -104.490951 
L 272.736609 -104.334944 
L 272.431941 -104.183775 
L 272.127273 -104.037553 
L 271.822604 -103.896374 
L 271.517936 -103.760321 
L 271.213268 -103.629463 
L 270.9086 -103.50386 
L 270.603931 -103.383556 
L 270.299263 -103.268582 
L 269.994595 -103.158957 
L 269.689926 -103.054685 
L 269.385258 -102.95576 
L 269.08059 -102.862159 
L 268.775921 -102.773848 
L 268.471253 -102.69078 
L 268.166585 -102.612894 
L 267.861916 -102.540117 
L 267.557248 -102.472363 
L 267.25258 -102.409534 
L 266.947912 -102.351519 
L 266.643243 -102.298197 
L 266.338575 -102.249431 
L 266.033907 -102.205078 
L 265.729238 -102.164981 
L 265.42457 -102.128973 
L 265.119902 -102.096877 
L 264.815233 -102.068505 
L 264.510565 -102.043662 
L 264.205897 -102.022142 
L 263.901229 -102.003732 
L 263.59656 -101.988211 
L 263.291892 -101.97535 
L 262.987224 -101.964915 
L 262.682555 -101.956663 
L 262.377887 -101.950347 
L 262.073219 -101.945716 
L 261.76855 -101.942514 
L 261.463882 -101.94048 
L 261.159214 -101.939351 
L 260.854545 -101.938862 
L 260.549877 -101.938746 
L 260.245209 -101.938735 
L 259.940541 -101.938559 
L 259.635872 -101.937951 
L 259.331204 -101.936642 
L 259.026536 -101.934367 
L 258.721867 -101.930863 
L 258.417199 -101.925868 
L 258.112531 -101.919125 
L 257.807862 -101.910381 
L 257.503194 -101.899389 
L 257.198526 -101.885905 
L 256.893857 -101.869694 
L 256.589189 -101.850526 
L 256.284521 -101.828178 
L 255.979853 -101.802436 
L 255.675184 -101.773094 
L 255.370516 -101.739955 
L 255.065848 -101.702832 
L 254.761179 -101.661547 
L 254.456511 -101.615932 
L 254.151843 -101.565832 
L 253.847174 -101.511102 
L 253.542506 -101.451607 
L 253.237838 -101.387228 
L 252.93317 -101.317855 
L 252.628501 -101.243391 
L 252.323833 -101.163753 
L 252.019165 -101.078871 
L 251.714496 -100.988687 
L 251.409828 -100.893157 
L 251.10516 -100.79225 
L 250.800491 -100.685952 
L 250.495823 -100.574257 
L 250.191155 -100.457176 
L 249.886486 -100.334735 
L 249.581818 -100.20697 
L 249.27715 -100.073933 
L 248.972482 -99.935688 
L 248.667813 -99.792314 
L 248.363145 -99.6439 
L 248.058477 -99.490549 
L 247.753808 -99.332379 
L 247.44914 -99.169517 
L 247.144472 -99.002102 
L 246.839803 -98.830286 
L 246.535135 -98.654232 
L 246.230467 -98.474112 
L 245.925799 -98.290109 
L 245.62113 -98.102417 
L 245.316462 -97.911237 
L 245.011794 -97.71678 
L 244.707125 -97.519266 
L 244.402457 -97.318921 
L 244.097789 -97.115978 
L 243.79312 -96.910678 
L 243.488452 -96.703266 
L 243.183784 -96.493994 
L 242.879115 -96.283116 
L 242.574447 -96.070893 
L 242.269779 -95.857587 
L 241.965111 -95.643463 
L 241.660442 -95.428788 
L 241.355774 -95.213832 
L 241.051106 -94.998862 
L 240.746437 -94.784147 
L 240.441769 -94.569955 
L 240.137101 -94.356554 
L 239.832432 -94.144207 
L 239.527764 -93.933175 
L 239.223096 -93.723718 
L 238.918428 -93.516088 
L 238.613759 -93.310536 
L 238.309091 -93.107305 
L 238.004423 -92.906635 
L 237.699754 -92.708755 
L 237.395086 -92.513891 
L 237.090418 -92.32226 
L 236.785749 -92.134071 
L 236.481081 -91.949524 
L 236.176413 -91.76881 
L 235.871744 -91.59211 
L 235.567076 -91.419597 
L 235.262408 -91.25143 
L 234.95774 -91.087761 
L 234.653071 -90.928727 
L 234.348403 -90.774458 
L 234.043735 -90.625068 
L 233.739066 -90.480661 
L 233.434398 -90.341328 
L 233.12973 -90.207148 
L 232.825061 -90.078187 
L 232.520393 -89.954497 
L 232.215725 -89.836119 
L 231.911057 -89.72308 
L 231.606388 -89.615392 
L 231.30172 -89.513058 
L 230.997052 -89.416062 
L 230.692383 -89.324381 
L 230.387715 -89.237974 
L 230.083047 -89.156789 
L 229.778378 -89.080761 
L 229.47371 -89.009813 
L 229.169042 -88.943854 
L 228.864373 -88.882781 
L 228.559705 -88.826479 
L 228.255037 -88.774822 
L 227.950369 -88.727671 
L 227.6457 -88.684877 
L 227.341032 -88.64628 
L 227.036364 -88.611709 
L 226.731695 -88.580982 
L 226.427027 -88.553911 
L 226.122359 -88.530295 
L 225.81769 -88.509926 
L 225.513022 -88.492588 
L 225.208354 -88.478056 
L 224.903686 -88.466101 
L 224.599017 -88.456484 
L 224.294349 -88.448961 
L 223.989681 -88.443285 
L 223.685012 -88.439201 
L 223.380344 -88.436451 
L 223.075676 -88.434775 
L 222.771007 -88.433909 
L 222.466339 -88.433586 
L 222.161671 -88.433539 
L 221.857002 -88.433499 
L 221.552334 -88.433198 
L 221.247666 -88.432367 
L 220.942998 -88.430739 
L 220.638329 -88.42805 
L 220.333661 -88.424035 
L 220.028993 -88.418437 
L 219.724324 -88.410999 
L 219.419656 -88.40147 
L 219.114988 -88.389604 
L 218.810319 -88.37516 
L 218.505651 -88.357905 
L 218.200983 -88.337611 
L 217.896314 -88.314059 
L 217.591646 -88.287037 
L 217.286978 -88.256343 
L 216.98231 -88.221783 
L 216.677641 -88.183173 
L 216.372973 -88.14034 
L 216.068305 -88.093119 
L 215.763636 -88.041359 
L 215.458968 -87.984919 
L 215.1543 -87.92367 
L 214.849631 -87.857496 
L 214.544963 -87.78629 
L 214.240295 -87.709963 
L 213.935627 -87.628434 
L 213.630958 -87.541638 
L 213.32629 -87.449523 
L 213.021622 -87.35205 
L 212.716953 -87.249194 
L 212.412285 -87.140941 
L 212.107617 -87.027295 
L 211.802948 -86.908271 
L 211.49828 -86.783898 
L 211.193612 -86.654218 
L 210.888943 -86.519288 
L 210.584275 -86.379177 
L 210.279607 -86.233967 
L 209.974939 -86.083753 
L 209.67027 -85.928645 
L 209.365602 -85.768761 
L 209.060934 -85.604234 
L 208.756265 -85.435208 
L 208.451597 -85.261839 
L 208.146929 -85.084292 
L 207.84226 -84.902745 
L 207.537592 -84.717384 
L 207.232924 -84.528406 
L 206.928256 -84.336015 
L 206.623587 -84.140426 
L 206.318919 -83.94186 
L 206.014251 -83.740548 
L 205.709582 -83.536724 
L 205.404914 -83.33063 
L 205.100246 -83.122516 
L 204.795577 -82.912633 
L 204.490909 -82.701238 
L 204.186241 -82.488592 
L 203.881572 -82.27496 
L 203.576904 -82.060606 
L 203.272236 -81.845798 
L 202.967568 -81.630805 
L 202.662899 -81.415897 
L 202.358231 -81.20134 
L 202.053563 -80.987404 
L 201.748894 -80.774354 
L 201.444226 -80.562453 
L 201.139558 -80.351961 
L 200.834889 -80.143136 
L 200.530221 -79.93623 
L 200.225553 -79.731491 
L 199.920885 -79.529159 
L 199.616216 -79.329472 
L 199.311548 -79.132659 
L 199.00688 -78.93894 
L 198.702211 -78.748532 
L 198.397543 -78.561638 
L 198.092875 -78.378457 
L 197.788206 -78.199175 
L 197.483538 -78.023971 
L 197.17887 -77.853013 
L 196.874201 -77.686458 
L 196.569533 -77.524451 
L 196.264865 -77.367128 
L 195.960197 -77.214612 
L 195.655528 -77.067014 
L 195.35086 -76.924434 
L 195.046192 -76.786958 
L 194.741523 -76.65466 
L 194.436855 -76.527601 
L 194.132187 -76.40583 
L 193.827518 -76.289382 
L 193.52285 -76.178279 
L 193.218182 -76.072529 
L 192.913514 -75.972129 
L 192.608845 -75.877061 
L 192.304177 -75.787294 
L 191.999509 -75.702784 
L 191.69484 -75.623474 
L 191.390172 -75.549295 
L 191.085504 -75.480163 
L 190.780835 -75.415985 
L 190.476167 -75.356653 
L 190.171499 -75.302047 
L 189.86683 -75.252038 
L 189.562162 -75.206482 
L 189.257494 -75.165226 
L 188.952826 -75.128106 
L 188.648157 -75.094948 
L 188.343489 -75.065567 
L 188.038821 -75.03977 
L 187.734152 -75.017353 
L 187.429484 -74.998107 
L 187.124816 -74.981811 
L 186.820147 -74.968239 
L 186.515479 -74.957157 
L 186.210811 -74.948327 
L 185.906143 -74.941502 
L 185.601474 -74.936431 
L 185.296806 -74.93286 
L 184.992138 -74.930529 
L 184.687469 -74.929177 
L 184.382801 -74.928539 
L 184.078133 -74.928346 
L 183.773464 -74.928333 
L 183.468796 -74.92823 
L 183.164128 -74.927767 
L 182.859459 -74.926679 
L 182.554791 -74.924697 
L 182.250123 -74.921558 
L 181.945455 -74.917001 
L 181.640786 -74.910766 
L 181.336118 -74.902599 
L 181.03145 -74.892253 
L 180.726781 -74.879481 
L 180.422113 -74.864046 
L 180.117445 -74.845717 
L 179.812776 -74.824268 
L 179.508108 -74.799485 
L 179.20344 -74.771157 
L 178.898771 -74.739085 
L 178.594103 -74.70308 
L 178.289435 -74.662961 
L 177.984767 -74.618558 
L 177.680098 -74.569711 
L 177.37543 -74.516273 
L 177.070762 -74.458107 
L 176.766093 -74.395088 
L 176.461425 -74.327104 
L 176.156757 -74.254054 
L 175.852088 -74.175852 
L 175.54742 -74.092424 
L 175.242752 -74.003709 
L 174.938084 -73.909658 
L 174.633415 -73.810239 
L 174.328747 -73.70543 
L 174.024079 -73.595224 
L 173.71941 -73.479629 
L 173.414742 -73.358664 
L 173.110074 -73.232365 
L 172.805405 -73.100778 
L 172.500737 -72.963963 
L 172.196069 -72.821997 
L 171.8914 -72.674964 
L 171.586732 -72.522966 
L 171.282064 -72.366114 
L 170.977396 -72.204534 
L 170.672727 -72.038361 
L 170.368059 -71.867745 
L 170.063391 -71.692844 
L 169.758722 -71.513828 
L 169.454054 -71.330878 
L 169.149386 -71.144185 
L 168.844717 -70.953947 
L 168.540049 -70.760374 
L 168.235381 -70.563682 
L 167.930713 -70.364095 
L 167.626044 -70.161846 
L 167.321376 -69.957172 
L 167.016708 -69.750318 
L 166.712039 -69.541534 
L 166.407371 -69.331074 
L 166.102703 -69.119196 
L 165.798034 -68.906163 
L 165.493366 -68.692238 
L 165.188698 -68.477689 
L 164.884029 -68.262783 
L 164.579361 -68.04779 
L 164.274693 -67.832978 
L 163.970025 -67.618615 
L 163.665356 -67.404969 
L 163.360688 -67.192304 
L 163.05602 -66.980884 
L 162.751351 -66.770966 
L 162.446683 -66.562807 
L 162.142015 -66.356656 
L 161.837346 -66.152761 
L 161.532678 -65.95136 
L 161.22801 -65.752687 
L 160.923342 -65.556968 
L 160.618673 -65.364423 
L 160.314005 -65.175264 
L 160.009337 -64.989691 
L 159.704668 -64.8079 
L 159.4 -64.630075 
L 159.095332 -64.456389 
L 158.790663 -64.287007 
L 158.485995 -64.122081 
L 158.181327 -63.961755 
L 157.876658 -63.806158 
L 157.57199 -63.65541 
L 157.267322 -63.509618 
L 156.962654 -63.368876 
L 156.657985 -63.233266 
L 156.353317 -63.102858 
L 156.048649 -62.977708 
L 155.74398 -62.85786 
L 155.439312 -62.743345 
L 155.134644 -62.634179 
L 154.829975 -62.530367 
L 154.525307 -62.4319 
L 154.220639 -62.338755 
L 153.915971 -62.250896 
L 153.611302 -62.168275 
L 153.306634 -62.090831 
L 153.001966 -62.018489 
L 152.697297 -61.951162 
L 152.392629 -61.888751 
L 152.087961 -61.831144 
L 151.783292 -61.778218 
L 151.478624 -61.729837 
L 151.173956 -61.685856 
L 150.869287 -61.646117 
L 150.564619 -61.610452 
L 150.259951 -61.578682 
L 149.955283 -61.550621 
L 149.650614 -61.526072 
L 149.345946 -61.504827 
L 149.041278 -61.486675 
L 148.736609 -61.471391 
L 148.431941 -61.458748 
L 148.127273 -61.448509 
L 147.822604 -61.440433 
L 147.517936 -61.434272 
L 147.213268 -61.429774 
L 146.9086 -61.426682 
L 146.603931 -61.424736 
L 146.299263 -61.423673 
L 145.994595 -61.423227 
L 145.689926 -61.42313 
L 145.385258 -61.423115 
L 145.08059 -61.422913 
L 144.775921 -61.422255 
L 144.471253 -61.420874 
L 144.166585 -61.418504 
L 143.861916 -61.414881 
L 143.557248 -61.409746 
L 143.25258 -61.402841 
L 142.947912 -61.393914 
L 142.643243 -61.382717 
L 142.338575 -61.369009 
L 142.033907 -61.352553 
L 141.729238 -61.33312 
L 141.42457 -61.310489 
L 141.119902 -61.284446 
L 140.815233 -61.254786 
L 140.510565 -61.221312 
L 140.205897 -61.183838 
L 139.901229 -61.142188 
L 139.59656 -61.096194 
L 139.291892 -61.045702 
L 138.987224 -60.990567 
L 138.682555 -60.930659 
L 138.377887 -60.865855 
L 138.073219 -60.796048 
L 137.76855 -60.721143 
L 137.463882 -60.641057 
L 137.159214 -60.555722 
L 136.854545 -60.46508 
L 136.549877 -60.369089 
L 136.245209 -60.267721 
L 135.940541 -60.160959 
L 135.635872 -60.048801 
L 135.331204 -59.931259 
L 135.026536 -59.808359 
L 134.721867 -59.680139 
L 134.417199 -59.546652 
L 134.112531 -59.407964 
L 133.807862 -59.264153 
L 133.503194 -59.115311 
L 133.198526 -58.961542 
L 132.893857 -58.802964 
L 132.589189 -58.639705 
L 132.284521 -58.471906 
L 131.979853 -58.29972 
L 131.675184 -58.123309 
L 131.370516 -57.942849 
L 131.065848 -57.758521 
L 130.761179 -57.570522 
L 130.456511 -57.379052 
L 130.151843 -57.184324 
L 129.847174 -56.986558 
L 129.542506 -56.78598 
L 129.237838 -56.582826 
L 128.93317 -56.377334 
L 128.628501 -56.169753 
L 128.323833 -55.960333 
L 128.019165 -55.749329 
L 127.714496 -55.537003 
L 127.409828 -55.323616 
L 127.10516 -55.109434 
L 126.800491 -54.894725 
L 126.495823 -54.679757 
L 126.191155 -54.464798 
L 125.886486 -54.250118 
L 125.581818 -54.035984 
L 125.27715 -53.822662 
L 124.972482 -53.610418 
L 124.667813 -53.399511 
L 124.363145 -53.190201 
L 124.058477 -52.98274 
L 123.753808 -52.777378 
L 123.44914 -52.574358 
L 123.144472 -52.373917 
L 122.839803 -52.176288 
L 122.535135 -51.981693 
L 122.230467 -51.79035 
L 121.925799 -51.602466 
L 121.62113 -51.41824 
L 121.316462 -51.237864 
L 121.011794 -51.061517 
L 120.707125 -50.889371 
L 120.402457 -50.721584 
L 120.097789 -50.558308 
L 119.79312 -50.399679 
L 119.488452 -50.245824 
L 119.183784 -50.096858 
L 118.879115 -49.952883 
L 118.574447 -49.81399 
L 118.269779 -49.680255 
L 117.965111 -49.551745 
L 117.660442 -49.42851 
L 117.355774 -49.310589 
L 117.051106 -49.198009 
L 116.746437 -49.090781 
L 116.441769 -48.988906 
L 116.137101 -48.892368 
L 115.832432 -48.801141 
L 115.527764 -48.715184 
L 115.223096 -48.634445 
L 114.918428 -48.558857 
L 114.613759 -48.488341 
L 114.309091 -48.422805 
L 114.004423 -48.362147 
L 113.699754 -48.306249 
L 113.395086 -48.254984 
L 113.090418 -48.208213 
L 112.785749 -48.165786 
L 112.481081 -48.127541 
L 112.176413 -48.093307 
L 111.871744 -48.062903 
L 111.567076 -48.036136 
L 111.262408 -48.012807 
L 110.95774 -47.992707 
L 110.653071 -47.975618 
L 110.348403 -47.961317 
L 110.043735 -47.949572 
L 109.739066 -47.940144 
L 109.434398 -47.93279 
L 109.12973 -47.92726 
L 108.825061 -47.923301 
L 108.520393 -47.920654 
L 108.215725 -47.919058 
L 107.911057 -47.918249 
L 107.606388 -47.91796 
L 107.30172 -47.917924 
L 106.997052 -47.917873 
L 106.692383 -47.917536 
L 106.387715 -47.916647 
L 106.083047 -47.914939 
L 105.778378 -47.912146 
L 105.47371 -47.908006 
L 105.169042 -47.902259 
L 104.864373 -47.894652 
L 104.559705 -47.884931 
L 104.255037 -47.872853 
L 103.950369 -47.858177 
L 103.6457 -47.84067 
L 103.341032 -47.820105 
L 103.036364 -47.796263 
L 102.731695 -47.768934 
L 102.427027 -47.737915 
L 102.122359 -47.703015 
L 101.81769 -47.664049 
L 101.513022 -47.620845 
L 101.208354 -47.57324 
L 100.903686 -47.521084 
L 100.599017 -47.464236 
L 100.294349 -47.402569 
L 99.989681 -47.335966 
L 99.685012 -47.264324 
L 99.380344 -47.187553 
L 99.075676 -47.105575 
L 98.771007 -47.018324 
L 98.466339 -46.925751 
L 98.161671 -46.827816 
L 97.857002 -46.724496 
L 97.552334 -46.61578 
L 97.247666 -46.501672 
L 96.942998 -46.382187 
L 96.638329 -46.257356 
L 96.333661 -46.127223 
L 96.028993 -45.991846 
L 95.724324 -45.851293 
L 95.419656 -45.70565 
L 95.114988 -45.555012 
L 94.810319 -45.399488 
L 94.505651 -45.2392 
L 94.200983 -45.074281 
L 93.896314 -44.904876 
L 93.591646 -44.731142 
L 93.286978 -44.553245 
L 92.98231 -44.371362 
L 92.677641 -44.185683 
L 92.372973 -43.996403 
L 92.068305 -43.80373 
L 91.763636 -43.607876 
L 91.458968 -43.409066 
L 91.1543 -43.207528 
L 90.849631 -43.0035 
L 90.544963 -42.797223 
L 90.240295 -42.588947 
L 89.935627 -42.378924 
L 89.630958 -42.167411 
L 89.32629 -41.954671 
L 89.021622 -41.740965 
L 88.716953 -41.526562 
L 88.412285 -41.311728 
L 88.107617 -41.096732 
L 87.802948 -40.881843 
L 87.49828 -40.667329 
L 87.193612 -40.453459 
L 86.888943 -40.240497 
L 86.584275 -40.028707 
L 86.279607 -39.818348 
L 85.974939 -39.609678 
L 85.67027 -39.402948 
L 85.365602 -39.198406 
L 85.060934 -38.996293 
L 84.756265 -38.796844 
L 84.451597 -38.600287 
L 84.146929 -38.406845 
L 83.84226 -38.21673 
L 83.537592 -38.030147 
L 83.232924 -37.847294 
L 82.928256 -37.668355 
L 82.623587 -37.49351 
L 82.318919 -37.322923 
L 82.014251 -37.156753 
L 81.709582 -36.995143 
L 81.404914 -36.838228 
L 81.100246 -36.68613 
L 80.795577 -36.53896 
L 80.490909 -36.396814 
L 80.186241 -36.25978 
L 79.881572 -36.12793 
L 79.576904 -36.001323 
L 79.272236 -35.880008 
L 78.967568 -35.764018 
L 78.662899 -35.653374 
L 78.358231 -35.548085 
L 78.053563 -35.448143 
L 77.748894 -35.353532 
L 77.444226 -35.264218 
L 77.139558 -35.180156 
L 76.834889 -35.10129 
L 76.530221 -35.027547 
L 76.225553 -34.958845 
L 75.920885 -34.895088 
L 75.616216 -34.836166 
L 75.311548 -34.781961 
L 75.00688 -34.732339 
L 74.702211 -34.687158 
L 74.397543 -34.646264 
L 74.092875 -34.609492 
L 73.788206 -34.576665 
L 73.483538 -34.5476 
L 73.17887 -34.522101 
L 72.874201 -34.499965 
L 72.569533 -34.48098 
L 72.264865 -34.464927 
L 71.960197 -34.451578 
L 71.655528 -34.4407 
L 71.35086 -34.432051 
L 71.046192 -34.425386 
L 70.741523 -34.420454 
L 70.436855 -34.417 
L 70.132187 -34.414764 
L 69.827518 -34.413483 
L 69.52285 -34.412893 
L 69.218182 -34.412727 
z
" id="m75f9a8f7a4" style="stroke:#008000;stroke-opacity:0.3;"/>
    </defs>
    <g clip-path="url(#p6912324b8f)">
     <use style="fill:#008000;fill-opacity:0.3;stroke:#008000;stroke-opacity:0.3;" x="0" xlink:href="#m75f9a8f7a4" y="216"/>
    </g>
   </g>
   <g id="matplotlib.axis_1">
    <g id="xtick_1">
     <g id="line2d_1">
      <defs>
       <path d="M 0 0 
L 0 3.5 
" id="md9fd393598" style="stroke:#000000;stroke-width:0.8;"/>
      </defs>
      <g>
       <use style="stroke:#000000;stroke-width:0.8;" x="69.218182" xlink:href="#md9fd393598" y="189"/>
      </g>
     </g>
     <g id="text_1">
      <!-- 0 -->
      <g transform="translate(66.036932 203.598437)scale(0.1 -0.1)">
       <defs>
        <path d="M 31.78125 66.40625 
Q 24.171875 66.40625 20.328125 58.90625 
Q 16.5 51.421875 16.5 36.375 
Q 16.5 21.390625 20.328125 13.890625 
Q 24.171875 6.390625 31.78125 6.390625 
Q 39.453125 6.390625 43.28125 13.890625 
Q 47.125 21.390625 47.125 36.375 
Q 47.125 51.421875 43.28125 58.90625 
Q 39.453125 66.40625 31.78125 66.40625 
z
M 31.78125 74.21875 
Q 44.046875 74.21875 50.515625 64.515625 
Q 56.984375 54.828125 56.984375 36.375 
Q 56.984375 17.96875 50.515625 8.265625 
Q 44.046875 -1.421875 31.78125 -1.421875 
Q 19.53125 -1.421875 13.0625 8.265625 
Q 6.59375 17.96875 6.59375 36.375 
Q 6.59375 54.828125 13.0625 64.515625 
Q 19.53125 74.21875 31.78125 74.21875 
z
" id="DejaVuSans-48"/>
       </defs>
       <use xlink:href="#DejaVuSans-48"/>
      </g>
     </g>
    </g>
    <g id="xtick_2">
     <g id="line2d_2">
      <g>
       <use style="stroke:#000000;stroke-width:0.8;" x="130.151843" xlink:href="#md9fd393598" y="189"/>
      </g>
     </g>
     <g id="text_2">
      <!-- 200 -->
      <g transform="translate(120.608093 203.598437)scale(0.1 -0.1)">
       <defs>
        <path d="M 19.1875 8.296875 
L 53.609375 8.296875 
L 53.609375 0 
L 7.328125 0 
L 7.328125 8.296875 
Q 12.9375 14.109375 22.625 23.890625 
Q 32.328125 33.6875 34.8125 36.53125 
Q 39.546875 41.84375 41.421875 45.53125 
Q 43.3125 49.21875 43.3125 52.78125 
Q 43.3125 58.59375 39.234375 62.25 
Q 35.15625 65.921875 28.609375 65.921875 
Q 23.96875 65.921875 18.8125 64.3125 
Q 13.671875 62.703125 7.8125 59.421875 
L 7.8125 69.390625 
Q 13.765625 71.78125 18.9375 73 
Q 24.125 74.21875 28.421875 74.21875 
Q 39.75 74.21875 46.484375 68.546875 
Q 53.21875 62.890625 53.21875 53.421875 
Q 53.21875 48.921875 51.53125 44.890625 
Q 49.859375 40.875 45.40625 35.40625 
Q 44.1875 33.984375 37.640625 27.21875 
Q 31.109375 20.453125 19.1875 8.296875 
z
" id="DejaVuSans-50"/>
       </defs>
       <use xlink:href="#DejaVuSans-50"/>
       <use x="63.623047" xlink:href="#DejaVuSans-48"/>
       <use x="127.246094" xlink:href="#DejaVuSans-48"/>
      </g>
     </g>
    </g>
    <g id="xtick_3">
     <g id="line2d_3">
      <g>
       <use style="stroke:#000000;stroke-width:0.8;" x="191.085504" xlink:href="#md9fd393598" y="189"/>
      </g>
     </g>
     <g id="text_3">
      <!-- 400 -->
      <g transform="translate(181.541754 203.598437)scale(0.1 -0.1)">
       <defs>
        <path d="M 37.796875 64.3125 
L 12.890625 25.390625 
L 37.796875 25.390625 
z
M 35.203125 72.90625 
L 47.609375 72.90625 
L 47.609375 25.390625 
L 58.015625 25.390625 
L 58.015625 17.1875 
L 47.609375 17.1875 
L 47.609375 0 
L 37.796875 0 
L 37.796875 17.1875 
L 4.890625 17.1875 
L 4.890625 26.703125 
z
" id="DejaVuSans-52"/>
       </defs>
       <use xlink:href="#DejaVuSans-52"/>
       <use x="63.623047" xlink:href="#DejaVuSans-48"/>
       <use x="127.246094" xlink:href="#DejaVuSans-48"/>
      </g>
     </g>
    </g>
    <g id="xtick_4">
     <g id="line2d_4">
      <g>
       <use style="stroke:#000000;stroke-width:0.8;" x="252.019165" xlink:href="#md9fd393598" y="189"/>
      </g>
     </g>
     <g id="text_4">
      <!-- 600 -->
      <g transform="translate(242.475415 203.598437)scale(0.1 -0.1)">
       <defs>
        <path d="M 33.015625 40.375 
Q 26.375 40.375 22.484375 35.828125 
Q 18.609375 31.296875 18.609375 23.390625 
Q 18.609375 15.53125 22.484375 10.953125 
Q 26.375 6.390625 33.015625 6.390625 
Q 39.65625 6.390625 43.53125 10.953125 
Q 47.40625 15.53125 47.40625 23.390625 
Q 47.40625 31.296875 43.53125 35.828125 
Q 39.65625 40.375 33.015625 40.375 
z
M 52.59375 71.296875 
L 52.59375 62.3125 
Q 48.875 64.0625 45.09375 64.984375 
Q 41.3125 65.921875 37.59375 65.921875 
Q 27.828125 65.921875 22.671875 59.328125 
Q 17.53125 52.734375 16.796875 39.40625 
Q 19.671875 43.65625 24.015625 45.921875 
Q 28.375 48.1875 33.59375 48.1875 
Q 44.578125 48.1875 50.953125 41.515625 
Q 57.328125 34.859375 57.328125 23.390625 
Q 57.328125 12.15625 50.6875 5.359375 
Q 44.046875 -1.421875 33.015625 -1.421875 
Q 20.359375 -1.421875 13.671875 8.265625 
Q 6.984375 17.96875 6.984375 36.375 
Q 6.984375 53.65625 15.1875 63.9375 
Q 23.390625 74.21875 37.203125 74.21875 
Q 40.921875 74.21875 44.703125 73.484375 
Q 48.484375 72.75 52.59375 71.296875 
z
" id="DejaVuSans-54"/>
       </defs>
       <use xlink:href="#DejaVuSans-54"/>
       <use x="63.623047" xlink:href="#DejaVuSans-48"/>
       <use x="127.246094" xlink:href="#DejaVuSans-48"/>
      </g>
     </g>
    </g>
    <g id="xtick_5">
     <g id="line2d_5">
      <g>
       <use style="stroke:#000000;stroke-width:0.8;" x="312.952826" xlink:href="#md9fd393598" y="189"/>
      </g>
     </g>
     <g id="text_5">
      <!-- 800 -->
      <g transform="translate(303.409076 203.598437)scale(0.1 -0.1)">
       <defs>
        <path d="M 31.78125 34.625 
Q 24.75 34.625 20.71875 30.859375 
Q 16.703125 27.09375 16.703125 20.515625 
Q 16.703125 13.921875 20.71875 10.15625 
Q 24.75 6.390625 31.78125 6.390625 
Q 38.8125 6.390625 42.859375 10.171875 
Q 46.921875 13.96875 46.921875 20.515625 
Q 46.921875 27.09375 42.890625 30.859375 
Q 38.875 34.625 31.78125 34.625 
z
M 21.921875 38.8125 
Q 15.578125 40.375 12.03125 44.71875 
Q 8.5 49.078125 8.5 55.328125 
Q 8.5 64.0625 14.71875 69.140625 
Q 20.953125 74.21875 31.78125 74.21875 
Q 42.671875 74.21875 48.875 69.140625 
Q 55.078125 64.0625 55.078125 55.328125 
Q 55.078125 49.078125 51.53125 44.71875 
Q 48 40.375 41.703125 38.8125 
Q 48.828125 37.15625 52.796875 32.3125 
Q 56.78125 27.484375 56.78125 20.515625 
Q 56.78125 9.90625 50.3125 4.234375 
Q 43.84375 -1.421875 31.78125 -1.421875 
Q 19.734375 -1.421875 13.25 4.234375 
Q 6.78125 9.90625 6.78125 20.515625 
Q 6.78125 27.484375 10.78125 32.3125 
Q 14.796875 37.15625 21.921875 38.8125 
z
M 18.3125 54.390625 
Q 18.3125 48.734375 21.84375 45.5625 
Q 25.390625 42.390625 31.78125 42.390625 
Q 38.140625 42.390625 41.71875 45.5625 
Q 45.3125 48.734375 45.3125 54.390625 
Q 45.3125 60.0625 41.71875 63.234375 
Q 38.140625 66.40625 31.78125 66.40625 
Q 25.390625 66.40625 21.84375 63.234375 
Q 18.3125 60.0625 18.3125 54.390625 
z
" id="DejaVuSans-56"/>
       </defs>
       <use xlink:href="#DejaVuSans-56"/>
       <use x="63.623047" xlink:href="#DejaVuSans-48"/>
       <use x="127.246094" xlink:href="#DejaVuSans-48"/>
      </g>
     </g>
    </g>
    <g id="xtick_6">
     <g id="line2d_6">
      <g>
       <use style="stroke:#000000;stroke-width:0.8;" x="373.886486" xlink:href="#md9fd393598" y="189"/>
      </g>
     </g>
     <g id="text_6">
      <!-- 1000 -->
      <g transform="translate(361.161486 203.598437)scale(0.1 -0.1)">
       <defs>
        <path d="M 12.40625 8.296875 
L 28.515625 8.296875 
L 28.515625 63.921875 
L 10.984375 60.40625 
L 10.984375 69.390625 
L 28.421875 72.90625 
L 38.28125 72.90625 
L 38.28125 8.296875 
L 54.390625 8.296875 
L 54.390625 0 
L 12.40625 0 
z
" id="DejaVuSans-49"/>
       </defs>
       <use xlink:href="#DejaVuSans-49"/>
       <use x="63.623047" xlink:href="#DejaVuSans-48"/>
       <use x="127.246094" xlink:href="#DejaVuSans-48"/>
       <use x="190.869141" xlink:href="#DejaVuSans-48"/>
      </g>
     </g>
    </g>
    <g id="text_7">
     <!-- Iteration -->
     <g transform="translate(200.191406 217.276563)scale(0.1 -0.1)">
      <defs>
       <path d="M 9.8125 72.90625 
L 19.671875 72.90625 
L 19.671875 0 
L 9.8125 0 
z
" id="DejaVuSans-73"/>
       <path d="M 18.3125 70.21875 
L 18.3125 54.6875 
L 36.8125 54.6875 
L 36.8125 47.703125 
L 18.3125 47.703125 
L 18.3125 18.015625 
Q 18.3125 11.328125 20.140625 9.421875 
Q 21.96875 7.515625 27.59375 7.515625 
L 36.8125 7.515625 
L 36.8125 0 
L 27.59375 0 
Q 17.1875 0 13.234375 3.875 
Q 9.28125 7.765625 9.28125 18.015625 
L 9.28125 47.703125 
L 2.6875 47.703125 
L 2.6875 54.6875 
L 9.28125 54.6875 
L 9.28125 70.21875 
z
" id="DejaVuSans-116"/>
       <path d="M 56.203125 29.59375 
L 56.203125 25.203125 
L 14.890625 25.203125 
Q 15.484375 15.921875 20.484375 11.0625 
Q 25.484375 6.203125 34.421875 6.203125 
Q 39.59375 6.203125 44.453125 7.46875 
Q 49.3125 8.734375 54.109375 11.28125 
L 54.109375 2.78125 
Q 49.265625 0.734375 44.1875 -0.34375 
Q 39.109375 -1.421875 33.890625 -1.421875 
Q 20.796875 -1.421875 13.15625 6.1875 
Q 5.515625 13.8125 5.515625 26.8125 
Q 5.515625 40.234375 12.765625 48.109375 
Q 20.015625 56 32.328125 56 
Q 43.359375 56 49.78125 48.890625 
Q 56.203125 41.796875 56.203125 29.59375 
z
M 47.21875 32.234375 
Q 47.125 39.59375 43.09375 43.984375 
Q 39.0625 48.390625 32.421875 48.390625 
Q 24.90625 48.390625 20.390625 44.140625 
Q 15.875 39.890625 15.1875 32.171875 
z
" id="DejaVuSans-101"/>
       <path d="M 41.109375 46.296875 
Q 39.59375 47.171875 37.8125 47.578125 
Q 36.03125 48 33.890625 48 
Q 26.265625 48 22.1875 43.046875 
Q 18.109375 38.09375 18.109375 28.8125 
L 18.109375 0 
L 9.078125 0 
L 9.078125 54.6875 
L 18.109375 54.6875 
L 18.109375 46.1875 
Q 20.953125 51.171875 25.484375 53.578125 
Q 30.03125 56 36.53125 56 
Q 37.453125 56 38.578125 55.875 
Q 39.703125 55.765625 41.0625 55.515625 
z
" id="DejaVuSans-114"/>
       <path d="M 34.28125 27.484375 
Q 23.390625 27.484375 19.1875 25 
Q 14.984375 22.515625 14.984375 16.5 
Q 14.984375 11.71875 18.140625 8.90625 
Q 21.296875 6.109375 26.703125 6.109375 
Q 34.1875 6.109375 38.703125 11.40625 
Q 43.21875 16.703125 43.21875 25.484375 
L 43.21875 27.484375 
z
M 52.203125 31.203125 
L 52.203125 0 
L 43.21875 0 
L 43.21875 8.296875 
Q 40.140625 3.328125 35.546875 0.953125 
Q 30.953125 -1.421875 24.3125 -1.421875 
Q 15.921875 -1.421875 10.953125 3.296875 
Q 6 8.015625 6 15.921875 
Q 6 25.140625 12.171875 29.828125 
Q 18.359375 34.515625 30.609375 34.515625 
L 43.21875 34.515625 
L 43.21875 35.40625 
Q 43.21875 41.609375 39.140625 45 
Q 35.0625 48.390625 27.6875 48.390625 
Q 23 48.390625 18.546875 47.265625 
Q 14.109375 46.140625 10.015625 43.890625 
L 10.015625 52.203125 
Q 14.9375 54.109375 19.578125 55.046875 
Q 24.21875 56 28.609375 56 
Q 40.484375 56 46.34375 49.84375 
Q 52.203125 43.703125 52.203125 31.203125 
z
" id="DejaVuSans-97"/>
       <path d="M 9.421875 54.6875 
L 18.40625 54.6875 
L 18.40625 0 
L 9.421875 0 
z
M 9.421875 75.984375 
L 18.40625 75.984375 
L 18.40625 64.59375 
L 9.421875 64.59375 
z
" id="DejaVuSans-105"/>
       <path d="M 30.609375 48.390625 
Q 23.390625 48.390625 19.1875 42.75 
Q 14.984375 37.109375 14.984375 27.296875 
Q 14.984375 17.484375 19.15625 11.84375 
Q 23.34375 6.203125 30.609375 6.203125 
Q 37.796875 6.203125 41.984375 11.859375 
Q 46.1875 17.53125 46.1875 27.296875 
Q 46.1875 37.015625 41.984375 42.703125 
Q 37.796875 48.390625 30.609375 48.390625 
z
M 30.609375 56 
Q 42.328125 56 49.015625 48.375 
Q 55.71875 40.765625 55.71875 27.296875 
Q 55.71875 13.875 49.015625 6.21875 
Q 42.328125 -1.421875 30.609375 -1.421875 
Q 18.84375 -1.421875 12.171875 6.21875 
Q 5.515625 13.875 5.515625 27.296875 
Q 5.515625 40.765625 12.171875 48.375 
Q 18.84375 56 30.609375 56 
z
" id="DejaVuSans-111"/>
       <path d="M 54.890625 33.015625 
L 54.890625 0 
L 45.90625 0 
L 45.90625 32.71875 
Q 45.90625 40.484375 42.875 44.328125 
Q 39.84375 48.1875 33.796875 48.1875 
Q 26.515625 48.1875 22.3125 43.546875 
Q 18.109375 38.921875 18.109375 30.90625 
L 18.109375 0 
L 9.078125 0 
L 9.078125 54.6875 
L 18.109375 54.6875 
L 18.109375 46.1875 
Q 21.34375 51.125 25.703125 53.5625 
Q 30.078125 56 35.796875 56 
Q 45.21875 56 50.046875 50.171875 
Q 54.890625 44.34375 54.890625 33.015625 
z
" id="DejaVuSans-110"/>
      </defs>
      <use xlink:href="#DejaVuSans-73"/>
      <use x="29.492188" xlink:href="#DejaVuSans-116"/>
      <use x="68.701172" xlink:href="#DejaVuSans-101"/>
      <use x="130.224609" xlink:href="#DejaVuSans-114"/>
      <use x="171.337891" xlink:href="#DejaVuSans-97"/>
      <use x="232.617188" xlink:href="#DejaVuSans-116"/>
      <use x="271.826172" xlink:href="#DejaVuSans-105"/>
      <use x="299.609375" xlink:href="#DejaVuSans-111"/>
      <use x="360.791016" xlink:href="#DejaVuSans-110"/>
     </g>
    </g>
   </g>
   <g id="matplotlib.axis_2">
    <g id="ytick_1">
     <g id="line2d_7">
      <defs>
       <path d="M 0 0 
L -3.5 0 
" id="mb50f2700e1" style="stroke:#000000;stroke-width:0.8;"/>
      </defs>
      <g>
       <use style="stroke:#000000;stroke-width:0.8;" x="54" xlink:href="#mb50f2700e1" y="182.975383"/>
      </g>
     </g>
     <g id="text_8">
      <!-- 0.2 -->
      <g transform="translate(22.717187 186.774602)scale(0.1 -0.1)">
       <defs>
        <path d="M 10.59375 35.5 
L 73.1875 35.5 
L 73.1875 27.203125 
L 10.59375 27.203125 
z
" id="DejaVuSans-8722"/>
        <path d="M 10.6875 12.40625 
L 21 12.40625 
L 21 0 
L 10.6875 0 
z
" id="DejaVuSans-46"/>
       </defs>
       <use xlink:href="#DejaVuSans-8722"/>
       <use x="83.789062" xlink:href="#DejaVuSans-48"/>
       <use x="147.412109" xlink:href="#DejaVuSans-46"/>
       <use x="179.199219" xlink:href="#DejaVuSans-50"/>
      </g>
     </g>
    </g>
    <g id="ytick_2">
     <g id="line2d_8">
      <g>
       <use style="stroke:#000000;stroke-width:0.8;" x="54" xlink:href="#mb50f2700e1" y="161.476792"/>
      </g>
     </g>
     <g id="text_9">
      <!-- 0.0 -->
      <g transform="translate(31.096875 165.276011)scale(0.1 -0.1)">
       <use xlink:href="#DejaVuSans-48"/>
       <use x="63.623047" xlink:href="#DejaVuSans-46"/>
       <use x="95.410156" xlink:href="#DejaVuSans-48"/>
      </g>
     </g>
    </g>
    <g id="ytick_3">
     <g id="line2d_9">
      <g>
       <use style="stroke:#000000;stroke-width:0.8;" x="54" xlink:href="#mb50f2700e1" y="139.978201"/>
      </g>
     </g>
     <g id="text_10">
      <!-- 0.2 -->
      <g transform="translate(31.096875 143.77742)scale(0.1 -0.1)">
       <use xlink:href="#DejaVuSans-48"/>
       <use x="63.623047" xlink:href="#DejaVuSans-46"/>
       <use x="95.410156" xlink:href="#DejaVuSans-50"/>
      </g>
     </g>
    </g>
    <g id="ytick_4">
     <g id="line2d_10">
      <g>
       <use style="stroke:#000000;stroke-width:0.8;" x="54" xlink:href="#mb50f2700e1" y="118.47961"/>
      </g>
     </g>
     <g id="text_11">
      <!-- 0.4 -->
      <g transform="translate(31.096875 122.278829)scale(0.1 -0.1)">
       <use xlink:href="#DejaVuSans-48"/>
       <use x="63.623047" xlink:href="#DejaVuSans-46"/>
       <use x="95.410156" xlink:href="#DejaVuSans-52"/>
      </g>
     </g>
    </g>
    <g id="ytick_5">
     <g id="line2d_11">
      <g>
       <use style="stroke:#000000;stroke-width:0.8;" x="54" xlink:href="#mb50f2700e1" y="96.981019"/>
      </g>
     </g>
     <g id="text_12">
      <!-- 0.6 -->
      <g transform="translate(31.096875 100.780238)scale(0.1 -0.1)">
       <use xlink:href="#DejaVuSans-48"/>
       <use x="63.623047" xlink:href="#DejaVuSans-46"/>
       <use x="95.410156" xlink:href="#DejaVuSans-54"/>
      </g>
     </g>
    </g>
    <g id="ytick_6">
     <g id="line2d_12">
      <g>
       <use style="stroke:#000000;stroke-width:0.8;" x="54" xlink:href="#mb50f2700e1" y="75.482428"/>
      </g>
     </g>
     <g id="text_13">
      <!-- 0.8 -->
      <g transform="translate(31.096875 79.281647)scale(0.1 -0.1)">
       <use xlink:href="#DejaVuSans-48"/>
       <use x="63.623047" xlink:href="#DejaVuSans-46"/>
       <use x="95.410156" xlink:href="#DejaVuSans-56"/>
      </g>
     </g>
    </g>
    <g id="ytick_7">
     <g id="line2d_13">
      <g>
       <use style="stroke:#000000;stroke-width:0.8;" x="54" xlink:href="#mb50f2700e1" y="53.983837"/>
      </g>
     </g>
     <g id="text_14">
      <!-- 1.0 -->
      <g transform="translate(31.096875 57.783056)scale(0.1 -0.1)">
       <use xlink:href="#DejaVuSans-49"/>
       <use x="63.623047" xlink:href="#DejaVuSans-46"/>
       <use x="95.410156" xlink:href="#DejaVuSans-48"/>
      </g>
     </g>
    </g>
    <g id="ytick_8">
     <g id="line2d_14">
      <g>
       <use style="stroke:#000000;stroke-width:0.8;" x="54" xlink:href="#mb50f2700e1" y="32.485246"/>
      </g>
     </g>
     <g id="text_15">
      <!-- 1.2 -->
      <g transform="translate(31.096875 36.284465)scale(0.1 -0.1)">
       <use xlink:href="#DejaVuSans-49"/>
       <use x="63.623047" xlink:href="#DejaVuSans-46"/>
       <use x="95.410156" xlink:href="#DejaVuSans-50"/>
      </g>
     </g>
    </g>
    <g id="text_16">
     <!-- E[$\psi_x$] -->
     <g transform="translate(16.617188 120.06)rotate(-90)scale(0.1 -0.1)">
      <defs>
       <path d="M 9.8125 72.90625 
L 55.90625 72.90625 
L 55.90625 64.59375 
L 19.671875 64.59375 
L 19.671875 43.015625 
L 54.390625 43.015625 
L 54.390625 34.71875 
L 19.671875 34.71875 
L 19.671875 8.296875 
L 56.78125 8.296875 
L 56.78125 0 
L 9.8125 0 
z
" id="DejaVuSans-69"/>
       <path d="M 8.59375 75.984375 
L 29.296875 75.984375 
L 29.296875 69 
L 17.578125 69 
L 17.578125 -6.203125 
L 29.296875 -6.203125 
L 29.296875 -13.1875 
L 8.59375 -13.1875 
z
" id="DejaVuSans-91"/>
       <path d="M 24.859375 -1.21875 
Q 13.921875 0.59375 9.625 5.328125 
Q 4.34375 11.140625 6.640625 23 
L 12.796875 54.6875 
L 21.875 54.6875 
L 15.765625 23.34375 
Q 14.0625 14.40625 17.484375 10.6875 
Q 20.515625 7.46875 26.421875 6.78125 
L 35.6875 54.6875 
L 44.625 54.6875 
L 35.359375 6.84375 
Q 41.890625 7.515625 45.75 10.75 
Q 50.734375 14.84375 52.390625 23.390625 
L 58.453125 54.6875 
L 67.53125 54.6875 
L 61.375 23.046875 
Q 58.984375 10.75 51.5625 5.375 
Q 44.875 0.53125 33.796875 -1.171875 
L 29.984375 -20.796875 
L 21.046875 -20.796875 
z
" id="DejaVuSans-Oblique-968"/>
       <path d="M 60.015625 54.6875 
L 34.90625 27.875 
L 50.296875 0 
L 39.984375 0 
L 28.421875 21.6875 
L 8.296875 0 
L -2.59375 0 
L 24.3125 28.8125 
L 10.015625 54.6875 
L 20.3125 54.6875 
L 30.8125 34.90625 
L 49.125 54.6875 
z
" id="DejaVuSans-Oblique-120"/>
       <path d="M 30.421875 75.984375 
L 30.421875 -13.1875 
L 9.71875 -13.1875 
L 9.71875 -6.203125 
L 21.390625 -6.203125 
L 21.390625 69 
L 9.71875 69 
L 9.71875 75.984375 
z
" id="DejaVuSans-93"/>
      </defs>
      <use transform="translate(0 0.015625)" xlink:href="#DejaVuSans-69"/>
      <use transform="translate(63.183594 0.015625)" xlink:href="#DejaVuSans-91"/>
      <use transform="translate(102.197266 0.015625)" xlink:href="#DejaVuSans-Oblique-968"/>
      <use transform="translate(168.164062 -16.390625)scale(0.7)" xlink:href="#DejaVuSans-Oblique-120"/>
      <use transform="translate(212.324219 0.015625)" xlink:href="#DejaVuSans-93"/>
     </g>
    </g>
   </g>
   <g id="line2d_15">
    <path clip-path="url(#p6912324b8f)" d="M 69.218182 161.476792 
L 73.17887 161.369175 
L 75.616216 161.056724 
L 77.748894 160.540171 
L 79.881572 159.765615 
L 82.014251 158.735735 
L 84.451597 157.290544 
L 87.802948 155.007673 
L 92.372973 151.894911 
L 94.810319 150.493433 
L 96.942998 149.511525 
L 99.075676 148.787952 
L 101.208354 148.319212 
L 103.341032 148.07089 
L 106.387715 147.972935 
L 111.567076 147.855216 
L 113.699754 147.586529 
L 115.832432 147.092526 
L 117.965111 146.341856 
L 120.097789 145.334303 
L 122.535135 143.909265 
L 125.886486 141.639414 
L 130.761179 138.320869 
L 133.198526 136.93144 
L 135.331204 135.962468 
L 137.463882 135.252433 
L 139.59656 134.796187 
L 142.033907 134.538172 
L 145.08059 134.466613 
L 149.650614 134.365147 
L 152.087961 134.061698 
L 154.220639 133.554933 
L 156.353317 132.790712 
L 158.485995 131.77046 
L 160.923342 130.333917 
L 164.274693 128.056544 
L 169.149386 124.747282 
L 171.586732 123.370075 
L 173.71941 122.414111 
L 175.852088 121.717599 
L 177.984767 121.273751 
L 180.422113 121.02661 
L 183.773464 120.961176 
L 188.038821 120.851524 
L 190.476167 120.536252 
L 192.608845 120.016646 
L 194.741523 119.238876 
L 196.874201 118.206014 
L 199.311548 116.758155 
L 202.662899 114.473618 
L 207.232924 111.362927 
L 209.67027 109.964291 
L 211.802948 108.985445 
L 213.935627 108.265084 
L 216.068305 107.799317 
L 218.200983 107.553367 
L 221.247666 107.457211 
L 226.427027 107.337459 
L 228.559705 107.066314 
L 230.692383 106.569291 
L 232.825061 105.815406 
L 234.95774 104.804834 
L 237.395086 103.37705 
L 240.746437 101.105382 
L 245.62113 97.788992 
L 248.058477 96.402446 
L 250.191155 95.436554 
L 252.323833 94.729728 
L 254.456511 94.276432 
L 256.893857 94.021014 
L 260.245209 93.950774 
L 264.510565 93.847575 
L 266.947912 93.541338 
L 269.08059 93.031534 
L 271.213268 92.264098 
L 273.345946 91.240847 
L 275.783292 89.801603 
L 279.134644 87.522498 
L 284.009337 84.215514 
L 286.446683 82.841231 
L 288.579361 81.888363 
L 290.712039 81.195056 
L 292.844717 80.754134 
L 295.282064 80.509543 
L 298.633415 80.44556 
L 302.594103 80.356338 
L 305.03145 80.070575 
L 307.164128 79.583245 
L 309.296806 78.839698 
L 311.429484 77.838853 
L 313.86683 76.419936 
L 317.218182 74.154182 
L 322.092875 70.830968 
L 324.530221 69.435184 
L 326.662899 68.459404 
L 328.795577 67.742255 
L 330.928256 67.279455 
L 333.060934 67.035867 
L 336.107617 66.941493 
L 341.286978 66.819677 
L 343.419656 66.546065 
L 345.552334 66.046017 
L 347.685012 65.288918 
L 349.81769 64.27533 
L 352.255037 62.844811 
L 355.606388 60.571346 
L 360.481081 57.257141 
L 362.918428 55.873488 
L 365.051106 54.91068 
L 367.183784 54.207061 
L 369.316462 53.75671 
L 371.753808 53.503878 
L 373.581818 53.442947 
L 373.581818 53.442947 
" style="fill:none;stroke:#008000;stroke-linecap:square;stroke-width:1.5;"/>
   </g>
   <g id="patch_3">
    <path d="M 54 189 
L 54 25.92 
" style="fill:none;stroke:#000000;stroke-linecap:square;stroke-linejoin:miter;stroke-width:0.8;"/>
   </g>
   <g id="patch_4">
    <path d="M 388.8 189 
L 388.8 25.92 
" style="fill:none;stroke:#000000;stroke-linecap:square;stroke-linejoin:miter;stroke-width:0.8;"/>
   </g>
   <g id="patch_5">
    <path d="M 54 189 
L 388.8 189 
" style="fill:none;stroke:#000000;stroke-linecap:square;stroke-linejoin:miter;stroke-width:0.8;"/>
   </g>
   <g id="patch_6">
    <path d="M 54 25.92 
L 388.8 25.92 
" style="fill:none;stroke:#000000;stroke-linecap:square;stroke-linejoin:miter;stroke-width:0.8;"/>
   </g>
   <g id="text_17">
    <!-- Nx = 10000, Nt = 1000, T = 50 -->
    <g transform="translate(126.709688 19.92)scale(0.12 -0.12)">
     <defs>
      <path d="M 9.8125 72.90625 
L 23.09375 72.90625 
L 55.421875 11.921875 
L 55.421875 72.90625 
L 64.984375 72.90625 
L 64.984375 0 
L 51.703125 0 
L 19.390625 60.984375 
L 19.390625 0 
L 9.8125 0 
z
" id="DejaVuSans-78"/>
      <path d="M 54.890625 54.6875 
L 35.109375 28.078125 
L 55.90625 0 
L 45.3125 0 
L 29.390625 21.484375 
L 13.484375 0 
L 2.875 0 
L 24.125 28.609375 
L 4.6875 54.6875 
L 15.28125 54.6875 
L 29.78125 35.203125 
L 44.28125 54.6875 
z
" id="DejaVuSans-120"/>
      <path id="DejaVuSans-32"/>
      <path d="M 10.59375 45.40625 
L 73.1875 45.40625 
L 73.1875 37.203125 
L 10.59375 37.203125 
z
M 10.59375 25.484375 
L 73.1875 25.484375 
L 73.1875 17.1875 
L 10.59375 17.1875 
z
" id="DejaVuSans-61"/>
      <path d="M 11.71875 12.40625 
L 22.015625 12.40625 
L 22.015625 4 
L 14.015625 -11.625 
L 7.71875 -11.625 
L 11.71875 4 
z
" id="DejaVuSans-44"/>
      <path d="M -0.296875 72.90625 
L 61.375 72.90625 
L 61.375 64.59375 
L 35.5 64.59375 
L 35.5 0 
L 25.59375 0 
L 25.59375 64.59375 
L -0.296875 64.59375 
z
" id="DejaVuSans-84"/>
      <path d="M 10.796875 72.90625 
L 49.515625 72.90625 
L 49.515625 64.59375 
L 19.828125 64.59375 
L 19.828125 46.734375 
Q 21.96875 47.46875 24.109375 47.828125 
Q 26.265625 48.1875 28.421875 48.1875 
Q 40.625 48.1875 47.75 41.5 
Q 54.890625 34.8125 54.890625 23.390625 
Q 54.890625 11.625 47.5625 5.09375 
Q 40.234375 -1.421875 26.90625 -1.421875 
Q 22.3125 -1.421875 17.546875 -0.640625 
Q 12.796875 0.140625 7.71875 1.703125 
L 7.71875 11.625 
Q 12.109375 9.234375 16.796875 8.0625 
Q 21.484375 6.890625 26.703125 6.890625 
Q 35.15625 6.890625 40.078125 11.328125 
Q 45.015625 15.765625 45.015625 23.390625 
Q 45.015625 31 40.078125 35.4375 
Q 35.15625 39.890625 26.703125 39.890625 
Q 22.75 39.890625 18.8125 39.015625 
Q 14.890625 38.140625 10.796875 36.28125 
z
" id="DejaVuSans-53"/>
     </defs>
     <use xlink:href="#DejaVuSans-78"/>
     <use x="74.804688" xlink:href="#DejaVuSans-120"/>
     <use x="133.984375" xlink:href="#DejaVuSans-32"/>
     <use x="165.771484" xlink:href="#DejaVuSans-61"/>
     <use x="249.560547" xlink:href="#DejaVuSans-32"/>
     <use x="281.347656" xlink:href="#DejaVuSans-49"/>
     <use x="344.970703" xlink:href="#DejaVuSans-48"/>
     <use x="408.59375" xlink:href="#DejaVuSans-48"/>
     <use x="472.216797" xlink:href="#DejaVuSans-48"/>
     <use x="535.839844" xlink:href="#DejaVuSans-48"/>
     <use x="599.462891" xlink:href="#DejaVuSans-44"/>
     <use x="631.25" xlink:href="#DejaVuSans-32"/>
     <use x="663.037109" xlink:href="#DejaVuSans-78"/>
     <use x="737.841797" xlink:href="#DejaVuSans-116"/>
     <use x="777.050781" xlink:href="#DejaVuSans-32"/>
     <use x="808.837891" xlink:href="#DejaVuSans-61"/>
     <use x="892.626953" xlink:href="#DejaVuSans-32"/>
     <use x="924.414062" xlink:href="#DejaVuSans-49"/>
     <use x="988.037109" xlink:href="#DejaVuSans-48"/>
     <use x="1051.660156" xlink:href="#DejaVuSans-48"/>
     <use x="1115.283203" xlink:href="#DejaVuSans-48"/>
     <use x="1178.90625" xlink:href="#DejaVuSans-44"/>
     <use x="1210.693359" xlink:href="#DejaVuSans-32"/>
     <use x="1242.480469" xlink:href="#DejaVuSans-84"/>
     <use x="1303.564453" xlink:href="#DejaVuSans-32"/>
     <use x="1335.351562" xlink:href="#DejaVuSans-61"/>
     <use x="1419.140625" xlink:href="#DejaVuSans-32"/>
     <use x="1450.927734" xlink:href="#DejaVuSans-53"/>
     <use x="1514.550781" xlink:href="#DejaVuSans-48"/>
    </g>
   </g>
  </g>
 </g>
 <defs>
  <clipPath id="p6912324b8f">
   <rect height="163.08" width="334.8" x="54" y="25.92"/>
  </clipPath>
 </defs>
</svg>
