<?xml version="1.0" encoding="utf-8" standalone="no"?>
<!DOCTYPE svg PUBLIC "-//W3C//DTD SVG 1.1//EN"
  "http://www.w3.org/Graphics/SVG/1.1/DTD/svg11.dtd">
<!-- Created with matplotlib (https://matplotlib.org/) -->
<svg height="216pt" version="1.1" viewBox="0 0 432 216" width="432pt" xmlns="http://www.w3.org/2000/svg" xmlns:xlink="http://www.w3.org/1999/xlink">
 <metadata>
  <rdf:RDF xmlns:cc="http://creativecommons.org/ns#" xmlns:dc="http://purl.org/dc/elements/1.1/" xmlns:rdf="http://www.w3.org/1999/02/22-rdf-syntax-ns#">
   <cc:Work>
    <dc:type rdf:resource="http://purl.org/dc/dcmitype/StillImage"/>
    <dc:date>2021-11-28T13:26:36.221769</dc:date>
    <dc:format>image/svg+xml</dc:format>
    <dc:creator>
     <cc:Agent>
      <dc:title>Matplotlib v3.3.4, https://matplotlib.org/</dc:title>
     </cc:Agent>
    </dc:creator>
   </cc:Work>
  </rdf:RDF>
 </metadata>
 <defs>
  <style type="text/css">*{stroke-linecap:butt;stroke-linejoin:round;}</style>
 </defs>
 <g id="figure_1">
  <g id="patch_1">
   <path d="M 0 216 
L 432 216 
L 432 0 
L 0 0 
z
" style="fill:none;"/>
  </g>
  <g id="axes_1">
   <g id="patch_2">
    <path d="M 54 189 
L 388.8 189 
L 388.8 25.92 
L 54 25.92 
z
" style="fill:#ffffff;"/>
   </g>
   <g id="PolyCollection_1">
    <defs>
     <path d="M 69.218182 -34.416185 
L 69.218182 -35.050845 
L 69.52285 -35.080574 
L 69.827518 -35.140018 
L 70.132187 -35.229151 
L 70.436855 -35.347939 
L 70.741523 -35.496334 
L 71.046192 -35.674274 
L 71.35086 -35.88169 
L 71.655528 -36.118497 
L 71.960197 -36.384599 
L 72.264865 -36.67989 
L 72.569533 -37.004249 
L 72.874201 -37.357547 
L 73.17887 -37.73964 
L 73.483538 -38.150374 
L 73.788206 -38.589584 
L 74.092875 -39.057092 
L 74.397543 -39.552709 
L 74.702211 -40.076236 
L 75.00688 -40.62746 
L 75.311548 -41.20616 
L 75.616216 -41.812101 
L 75.920885 -42.445038 
L 76.225553 -43.104716 
L 76.530221 -43.790868 
L 76.834889 -44.503217 
L 77.139558 -45.241475 
L 77.444226 -46.005343 
L 77.748894 -46.794513 
L 78.053563 -47.608664 
L 78.358231 -48.447469 
L 78.662899 -49.310587 
L 78.967568 -50.197669 
L 79.272236 -51.108357 
L 79.576904 -52.042281 
L 79.881572 -52.999063 
L 80.186241 -53.978317 
L 80.490909 -54.979646 
L 80.795577 -56.002644 
L 81.100246 -57.046896 
L 81.404914 -58.111981 
L 81.709582 -59.197466 
L 82.014251 -60.302912 
L 82.318919 -61.42787 
L 82.623587 -62.571886 
L 82.928256 -63.734494 
L 83.232924 -64.915225 
L 83.537592 -66.1136 
L 83.84226 -67.329133 
L 84.146929 -68.561331 
L 84.451597 -69.809695 
L 84.756265 -71.073719 
L 85.060934 -72.352891 
L 85.365602 -73.646692 
L 85.67027 -74.954598 
L 85.974939 -76.276079 
L 86.279607 -77.6106 
L 86.584275 -78.957619 
L 86.888943 -80.316592 
L 87.193612 -81.686967 
L 87.49828 -83.06819 
L 87.802948 -84.4597 
L 88.107617 -85.860936 
L 88.412285 -87.271329 
L 88.716953 -88.690309 
L 89.021622 -90.117302 
L 89.32629 -91.55173 
L 89.630958 -92.993013 
L 89.935627 -94.440569 
L 90.240295 -95.893812 
L 90.544963 -97.352156 
L 90.849631 -98.81501 
L 91.1543 -100.281785 
L 91.458968 -101.751889 
L 91.763636 -103.224728 
L 92.068305 -104.699709 
L 92.372973 -106.176237 
L 92.677641 -107.653716 
L 92.98231 -109.131552 
L 93.286978 -110.609151 
L 93.591646 -112.085917 
L 93.896314 -113.561257 
L 94.200983 -115.034579 
L 94.505651 -116.505289 
L 94.810319 -117.972798 
L 95.114988 -119.436517 
L 95.419656 -120.89586 
L 95.724324 -122.350241 
L 96.028993 -123.799079 
L 96.333661 -125.241794 
L 96.638329 -126.677808 
L 96.942998 -128.106548 
L 97.247666 -129.527445 
L 97.552334 -130.939929 
L 97.857002 -132.34344 
L 98.161671 -133.737417 
L 98.466339 -135.121306 
L 98.771007 -136.494557 
L 99.075676 -137.856623 
L 99.380344 -139.206963 
L 99.685012 -140.545043 
L 99.989681 -141.870331 
L 100.294349 -143.182303 
L 100.599017 -144.480439 
L 100.903686 -145.764227 
L 101.208354 -147.033158 
L 101.513022 -148.286732 
L 101.81769 -149.524455 
L 102.122359 -150.745839 
L 102.427027 -151.950403 
L 102.731695 -153.137673 
L 103.036364 -154.307183 
L 103.341032 -155.458473 
L 103.6457 -156.591092 
L 103.950369 -157.704596 
L 104.255037 -158.798549 
L 104.559705 -159.872522 
L 104.864373 -160.926097 
L 105.169042 -161.958861 
L 105.47371 -162.970411 
L 105.778378 -163.960353 
L 106.083047 -164.928301 
L 106.387715 -165.873879 
L 106.692383 -166.796718 
L 106.997052 -167.696461 
L 107.30172 -168.572757 
L 107.606388 -169.425266 
L 107.911057 -170.253659 
L 108.215725 -171.057613 
L 108.520393 -171.836819 
L 108.825061 -172.590974 
L 109.12973 -173.319787 
L 109.434398 -174.022976 
L 109.739066 -174.700271 
L 110.043735 -175.351408 
L 110.348403 -175.976139 
L 110.653071 -176.574221 
L 110.95774 -177.145425 
L 111.262408 -177.68953 
L 111.567076 -178.206328 
L 111.871744 -178.695619 
L 112.176413 -179.157216 
L 112.481081 -179.590941 
L 112.785749 -179.996628 
L 113.090418 -180.374122 
L 113.395086 -180.723276 
L 113.699754 -181.043958 
L 114.004423 -181.336045 
L 114.309091 -181.599424 
L 114.613759 -181.833995 
L 114.918428 -182.039667 
L 115.223096 -182.216363 
L 115.527764 -182.364014 
L 115.832432 -182.482564 
L 116.137101 -182.571967 
L 116.441769 -182.632189 
L 116.746437 -182.663208 
L 117.051106 -182.665011 
L 117.355774 -182.637597 
L 117.660442 -182.580978 
L 117.965111 -182.495174 
L 118.269779 -182.380218 
L 118.574447 -182.236156 
L 118.879115 -182.06304 
L 119.183784 -181.860939 
L 119.488452 -181.629928 
L 119.79312 -181.370098 
L 120.097789 -181.081546 
L 120.402457 -180.764384 
L 120.707125 -180.418734 
L 121.011794 -180.044727 
L 121.316462 -179.642507 
L 121.62113 -179.212229 
L 121.925799 -178.754058 
L 122.230467 -178.268169 
L 122.535135 -177.75475 
L 122.839803 -177.213997 
L 123.144472 -176.646119 
L 123.44914 -176.051335 
L 123.753808 -175.429872 
L 124.058477 -174.781971 
L 124.363145 -174.107881 
L 124.667813 -173.407863 
L 124.972482 -172.682186 
L 125.27715 -171.931131 
L 125.581818 -171.154989 
L 125.886486 -170.354059 
L 126.191155 -169.528651 
L 126.495823 -168.679086 
L 126.800491 -167.805692 
L 127.10516 -166.908809 
L 127.409828 -165.988784 
L 127.714496 -165.045976 
L 128.019165 -164.080751 
L 128.323833 -163.093484 
L 128.628501 -162.08456 
L 128.93317 -161.054374 
L 129.237838 -160.003325 
L 129.542506 -158.931826 
L 129.847174 -157.840295 
L 130.151843 -156.729159 
L 130.456511 -155.598853 
L 130.761179 -154.44982 
L 131.065848 -153.282511 
L 131.370516 -152.097384 
L 131.675184 -150.894906 
L 131.979853 -149.675548 
L 132.284521 -148.439791 
L 132.589189 -147.188122 
L 132.893857 -145.921035 
L 133.198526 -144.639029 
L 133.503194 -143.342611 
L 133.807862 -142.032294 
L 134.112531 -140.708596 
L 134.417199 -139.372041 
L 134.721867 -138.02316 
L 135.026536 -136.662487 
L 135.331204 -135.290563 
L 135.635872 -133.907933 
L 135.940541 -132.515147 
L 136.245209 -131.112759 
L 136.549877 -129.701328 
L 136.854545 -128.281416 
L 137.159214 -126.85359 
L 137.463882 -125.41842 
L 137.76855 -123.97648 
L 138.073219 -122.528345 
L 138.377887 -121.074596 
L 138.682555 -119.615813 
L 138.987224 -118.152583 
L 139.291892 -116.685491 
L 139.59656 -115.215125 
L 139.901229 -113.742077 
L 140.205897 -112.266937 
L 140.510565 -110.790299 
L 140.815233 -109.312756 
L 141.119902 -107.834902 
L 141.42457 -106.357333 
L 141.729238 -104.880643 
L 142.033907 -103.405427 
L 142.338575 -101.932281 
L 142.643243 -100.461798 
L 142.947912 -98.994571 
L 143.25258 -97.531192 
L 143.557248 -96.072253 
L 143.861916 -94.618342 
L 144.166585 -93.170048 
L 144.471253 -91.727955 
L 144.775921 -90.292646 
L 145.08059 -88.864702 
L 145.385258 -87.444701 
L 145.689926 -86.033217 
L 145.994595 -84.630821 
L 146.299263 -83.238081 
L 146.603931 -81.855561 
L 146.9086 -80.483821 
L 147.213268 -79.123416 
L 147.517936 -77.774898 
L 147.822604 -76.438812 
L 148.127273 -75.1157 
L 148.431941 -73.806098 
L 148.736609 -72.510537 
L 149.041278 -71.229542 
L 149.345946 -69.963632 
L 149.650614 -68.713319 
L 149.955283 -67.479112 
L 150.259951 -66.261509 
L 150.564619 -65.061005 
L 150.869287 -63.878085 
L 151.173956 -62.71323 
L 151.478624 -61.566912 
L 151.783292 -60.439594 
L 152.087961 -59.331734 
L 152.392629 -58.24378 
L 152.697297 -57.176173 
L 153.001966 -56.129347 
L 153.306634 -55.103724 
L 153.611302 -54.09972 
L 153.915971 -53.117742 
L 154.220639 -52.158187 
L 154.525307 -51.221443 
L 154.829975 -50.307891 
L 155.134644 -49.4179 
L 155.439312 -48.551829 
L 155.74398 -47.71003 
L 156.048649 -46.892843 
L 156.353317 -46.100598 
L 156.657985 -45.333616 
L 156.962654 -44.592207 
L 157.267322 -43.876671 
L 157.57199 -43.187297 
L 157.876658 -42.524363 
L 158.181327 -41.888139 
L 158.485995 -41.27888 
L 158.790663 -40.696833 
L 159.095332 -40.142233 
L 159.4 -39.615305 
L 159.704668 -39.11626 
L 160.009337 -38.6453 
L 160.314005 -38.202617 
L 160.618673 -37.788387 
L 160.923342 -37.40278 
L 161.22801 -37.045949 
L 161.532678 -36.71804 
L 161.837346 -36.419184 
L 162.142015 -36.149503 
L 162.446683 -35.909104 
L 162.751351 -35.698086 
L 163.05602 -35.516532 
L 163.360688 -35.364517 
L 163.665356 -35.242102 
L 163.970025 -35.149336 
L 164.274693 -35.086256 
L 164.579361 -35.052888 
L 164.884029 -35.049246 
L 165.188698 -35.07533 
L 165.493366 -35.131131 
L 165.798034 -35.216626 
L 166.102703 -35.33178 
L 166.407371 -35.476547 
L 166.712039 -35.650869 
L 167.016708 -35.854675 
L 167.321376 -36.087883 
L 167.626044 -36.350398 
L 167.930713 -36.642116 
L 168.235381 -36.962918 
L 168.540049 -37.312675 
L 168.844717 -37.691245 
L 169.149386 -38.098476 
L 169.454054 -38.534204 
L 169.758722 -38.998252 
L 170.063391 -39.490433 
L 170.368059 -40.010549 
L 170.672727 -40.558389 
L 170.977396 -41.133732 
L 171.282064 -41.736345 
L 171.586732 -42.365986 
L 171.8914 -43.022399 
L 172.196069 -43.70532 
L 172.500737 -44.414472 
L 172.805405 -45.149569 
L 173.110074 -45.910314 
L 173.414742 -46.696398 
L 173.71941 -47.507504 
L 174.024079 -48.343303 
L 174.328747 -49.203459 
L 174.633415 -50.087622 
L 174.938084 -50.995434 
L 175.242752 -51.92653 
L 175.54742 -52.88053 
L 175.852088 -53.85705 
L 176.156757 -54.855693 
L 176.461425 -55.876056 
L 176.766093 -56.917725 
L 177.070762 -57.980279 
L 177.37543 -59.063286 
L 177.680098 -60.166308 
L 177.984767 -61.288898 
L 178.289435 -62.430602 
L 178.594103 -63.590956 
L 178.898771 -64.76949 
L 179.20344 -65.965727 
L 179.508108 -67.179183 
L 179.812776 -68.409364 
L 180.117445 -69.655773 
L 180.422113 -70.917904 
L 180.726781 -72.195247 
L 181.03145 -73.487282 
L 181.336118 -74.793487 
L 181.640786 -76.113333 
L 181.945455 -77.446283 
L 182.250123 -78.791799 
L 182.554791 -80.149336 
L 182.859459 -81.518342 
L 183.164128 -82.898265 
L 183.468796 -84.288545 
L 183.773464 -85.688618 
L 184.078133 -87.097919 
L 184.382801 -88.515877 
L 184.687469 -89.941918 
L 184.992138 -91.375466 
L 185.296806 -92.81594 
L 185.601474 -94.262758 
L 185.906143 -95.715335 
L 186.210811 -97.173085 
L 186.515479 -98.635418 
L 186.820147 -100.101745 
L 187.124816 -101.571472 
L 187.429484 -103.044008 
L 187.734152 -104.518758 
L 188.038821 -105.995128 
L 188.343489 -107.472522 
L 188.648157 -108.950347 
L 188.952826 -110.428007 
L 189.257494 -111.904907 
L 189.562162 -113.380454 
L 189.86683 -114.854054 
L 190.171499 -116.325117 
L 190.476167 -117.79305 
L 190.780835 -119.257266 
L 191.085504 -120.717176 
L 191.390172 -122.172198 
L 191.69484 -123.621746 
L 191.999509 -125.065243 
L 192.304177 -126.50211 
L 192.608845 -127.931773 
L 192.913514 -129.353661 
L 193.218182 -130.767208 
L 193.52285 -132.171849 
L 193.827518 -133.567025 
L 194.132187 -134.952181 
L 194.436855 -136.326765 
L 194.741523 -137.690231 
L 195.046192 -139.042039 
L 195.35086 -140.381651 
L 195.655528 -141.708536 
L 195.960197 -143.022168 
L 196.264865 -144.322029 
L 196.569533 -145.607603 
L 196.874201 -146.878383 
L 197.17887 -148.133867 
L 197.483538 -149.37356 
L 197.788206 -150.596973 
L 198.092875 -151.803625 
L 198.397543 -152.993041 
L 198.702211 -154.164753 
L 199.00688 -155.318302 
L 199.311548 -156.453235 
L 199.616216 -157.569106 
L 199.920885 -158.665479 
L 200.225553 -159.741925 
L 200.530221 -160.798023 
L 200.834889 -161.83336 
L 201.139558 -162.847533 
L 201.444226 -163.840146 
L 201.748894 -164.810811 
L 202.053563 -165.759152 
L 202.358231 -166.684799 
L 202.662899 -167.587392 
L 202.967568 -168.466581 
L 203.272236 -169.322026 
L 203.576904 -170.153393 
L 203.881572 -170.960361 
L 204.186241 -171.742618 
L 204.490909 -172.49986 
L 204.795577 -173.231796 
L 205.100246 -173.938142 
L 205.404914 -174.618625 
L 205.709582 -175.272984 
L 206.014251 -175.900966 
L 206.318919 -176.502328 
L 206.623587 -177.076839 
L 206.928256 -177.624279 
L 207.232924 -178.144436 
L 207.537592 -178.63711 
L 207.84226 -179.102112 
L 208.146929 -179.539264 
L 208.451597 -179.948398 
L 208.756265 -180.329356 
L 209.060934 -180.681993 
L 209.365602 -181.006173 
L 209.67027 -181.301772 
L 209.974939 -181.568677 
L 210.279607 -181.806785 
L 210.584275 -182.016006 
L 210.888943 -182.196258 
L 211.193612 -182.347474 
L 211.49828 -182.469595 
L 211.802948 -182.562574 
L 212.107617 -182.626376 
L 212.412285 -182.660976 
L 212.716953 -182.666361 
L 213.021622 -182.64253 
L 213.32629 -182.589491 
L 213.630958 -182.507264 
L 213.935627 -182.39588 
L 214.240295 -182.255384 
L 214.544963 -182.085827 
L 214.849631 -181.887276 
L 215.1543 -181.659806 
L 215.458968 -181.403504 
L 215.763636 -181.118468 
L 216.068305 -180.804808 
L 216.372973 -180.462644 
L 216.677641 -180.092107 
L 216.98231 -179.693339 
L 217.286978 -179.266492 
L 217.591646 -178.811732 
L 217.896314 -178.329232 
L 218.200983 -177.819178 
L 218.505651 -177.281766 
L 218.810319 -176.717202 
L 219.114988 -176.125704 
L 219.419656 -175.5075 
L 219.724324 -174.862828 
L 220.028993 -174.191935 
L 220.333661 -173.495082 
L 220.638329 -172.772536 
L 220.942998 -172.024578 
L 221.247666 -171.251496 
L 221.552334 -170.453589 
L 221.857002 -169.631165 
L 222.161671 -168.784545 
L 222.466339 -167.914055 
L 222.771007 -167.020033 
L 223.075676 -166.102827 
L 223.380344 -165.162793 
L 223.685012 -164.200296 
L 223.989681 -163.215711 
L 224.294349 -162.209422 
L 224.599017 -161.181821 
L 224.903686 -160.133309 
L 225.208354 -159.064295 
L 225.513022 -157.975197 
L 225.81769 -156.866442 
L 226.122359 -155.738463 
L 226.427027 -154.591702 
L 226.731695 -153.426609 
L 227.036364 -152.243643 
L 227.341032 -151.043266 
L 227.6457 -149.825952 
L 227.950369 -148.59218 
L 228.255037 -147.342436 
L 228.559705 -146.077212 
L 228.864373 -144.797008 
L 229.169042 -143.50233 
L 229.47371 -142.19369 
L 229.778378 -140.871604 
L 230.083047 -139.536598 
L 230.387715 -138.189199 
L 230.692383 -136.829944 
L 230.997052 -135.45937 
L 231.30172 -134.078023 
L 231.606388 -132.686453 
L 231.911057 -131.285212 
L 232.215725 -129.874859 
L 232.520393 -128.455957 
L 232.825061 -127.029071 
L 233.12973 -125.594771 
L 233.434398 -124.153629 
L 233.739066 -122.706223 
L 234.043735 -121.253131 
L 234.348403 -119.794934 
L 234.653071 -118.332218 
L 234.95774 -116.865567 
L 235.262408 -115.395572 
L 235.567076 -113.922821 
L 235.871744 -112.447905 
L 236.176413 -110.971419 
L 236.481081 -109.493955 
L 236.785749 -108.016107 
L 237.090418 -106.538471 
L 237.395086 -105.061641 
L 237.699754 -103.586213 
L 238.004423 -102.112781 
L 238.309091 -100.641939 
L 238.613759 -99.174281 
L 238.918428 -97.710399 
L 239.223096 -96.250883 
L 239.527764 -94.796325 
L 239.832432 -93.34731 
L 240.137101 -91.904425 
L 240.441769 -90.468253 
L 240.746437 -89.039375 
L 241.051106 -87.618369 
L 241.355774 -86.20581 
L 241.660442 -84.802269 
L 241.965111 -83.408315 
L 242.269779 -82.024512 
L 242.574447 -80.65142 
L 242.879115 -79.289595 
L 243.183784 -77.93959 
L 243.488452 -76.60195 
L 243.79312 -75.277219 
L 244.097789 -73.965932 
L 244.402457 -72.668621 
L 244.707125 -71.385811 
L 245.011794 -70.118024 
L 245.316462 -68.865771 
L 245.62113 -67.629562 
L 245.925799 -66.409897 
L 246.230467 -65.207269 
L 246.535135 -64.022168 
L 246.839803 -62.855072 
L 247.144472 -61.706456 
L 247.44914 -60.576783 
L 247.753808 -59.466513 
L 248.058477 -58.376095 
L 248.363145 -57.30597 
L 248.667813 -56.256572 
L 248.972482 -55.228327 
L 249.27715 -54.22165 
L 249.581818 -53.236949 
L 249.886486 -52.274624 
L 250.191155 -51.335063 
L 250.495823 -50.418647 
L 250.800491 -49.525747 
L 251.10516 -48.656725 
L 251.409828 -47.811931 
L 251.714496 -46.991708 
L 252.019165 -46.196387 
L 252.323833 -45.42629 
L 252.628501 -44.681729 
L 252.93317 -43.963005 
L 253.237838 -43.270408 
L 253.542506 -42.604218 
L 253.847174 -41.964704 
L 254.151843 -41.352126 
L 254.456511 -40.766729 
L 254.761179 -40.208752 
L 255.065848 -39.678419 
L 255.370516 -39.175944 
L 255.675184 -38.70153 
L 255.979853 -38.25537 
L 256.284521 -37.837642 
L 256.589189 -37.448516 
L 256.893857 -37.088149 
L 257.198526 -36.756687 
L 257.503194 -36.454262 
L 257.807862 -36.180997 
L 258.112531 -35.937002 
L 258.417199 -35.722376 
L 258.721867 -35.537206 
L 259.026536 -35.381566 
L 259.331204 -35.255518 
L 259.635872 -35.159114 
L 259.940541 -35.092393 
L 260.245209 -35.055381 
L 260.549877 -35.048093 
L 260.854545 -35.070533 
L 261.159214 -35.122691 
L 261.463882 -35.204547 
L 261.76855 -35.316067 
L 262.073219 -35.457206 
L 262.377887 -35.627907 
L 262.682555 -35.828102 
L 262.987224 -36.057709 
L 263.291892 -36.316637 
L 263.59656 -36.60478 
L 263.901229 -36.922022 
L 264.205897 -37.268236 
L 264.510565 -37.643282 
L 264.815233 -38.047007 
L 265.119902 -38.47925 
L 265.42457 -38.939835 
L 265.729238 -39.428577 
L 266.033907 -39.945279 
L 266.338575 -40.489731 
L 266.643243 -41.061714 
L 266.947912 -41.660997 
L 267.25258 -42.287337 
L 267.557248 -42.940481 
L 267.861916 -43.620167 
L 268.166585 -44.326118 
L 268.471253 -45.058049 
L 268.775921 -45.815665 
L 269.08059 -46.598659 
L 269.385258 -47.406714 
L 269.689926 -48.239504 
L 269.994595 -49.096692 
L 270.299263 -49.97793 
L 270.603931 -50.882862 
L 270.9086 -51.811123 
L 271.213268 -52.762335 
L 271.517936 -53.736115 
L 271.822604 -54.732067 
L 272.127273 -55.749789 
L 272.431941 -56.788868 
L 272.736609 -57.848884 
L 273.041278 -58.929406 
L 273.345946 -60.029998 
L 273.650614 -61.150213 
L 273.955283 -62.289598 
L 274.259951 -63.44769 
L 274.564619 -64.624021 
L 274.869287 -65.818114 
L 275.173956 -67.029484 
L 275.478624 -68.257641 
L 275.783292 -69.502088 
L 276.087961 -70.762319 
L 276.392629 -72.037823 
L 276.697297 -73.328085 
L 277.001966 -74.632581 
L 277.306634 -75.950783 
L 277.611302 -77.282155 
L 277.915971 -78.62616 
L 278.220639 -79.982252 
L 278.525307 -81.349882 
L 278.829975 -82.728496 
L 279.134644 -84.117536 
L 279.439312 -85.516439 
L 279.74398 -86.924639 
L 280.048649 -88.341567 
L 280.353317 -89.766648 
L 280.657985 -91.199306 
L 280.962654 -92.638962 
L 281.267322 -94.085033 
L 281.57199 -95.536936 
L 281.876658 -96.994083 
L 282.181327 -98.455886 
L 282.485995 -99.921755 
L 282.790663 -101.391097 
L 283.095332 -102.86332 
L 283.4 -104.337831 
L 283.704668 -105.814034 
L 284.009337 -107.291335 
L 284.314005 -108.769139 
L 284.618673 -110.246851 
L 284.923342 -111.723876 
L 285.22801 -113.199621 
L 285.532678 -114.673492 
L 285.837346 -116.144897 
L 286.142015 -117.613246 
L 286.446683 -119.077949 
L 286.751351 -120.538419 
L 287.05602 -121.994071 
L 287.360688 -123.444323 
L 287.665356 -124.888592 
L 287.970025 -126.326303 
L 288.274693 -127.75688 
L 288.579361 -129.179752 
L 288.884029 -130.594352 
L 289.188698 -132.000115 
L 289.493366 -133.396482 
L 289.798034 -134.782896 
L 290.102703 -136.158806 
L 290.407371 -137.523665 
L 290.712039 -138.876931 
L 291.016708 -140.218067 
L 291.321376 -141.546541 
L 291.626044 -142.861826 
L 291.930713 -144.163403 
L 292.235381 -145.450757 
L 292.540049 -146.723378 
L 292.844717 -147.980764 
L 293.149386 -149.22242 
L 293.454054 -150.447855 
L 293.758722 -151.656588 
L 294.063391 -152.848142 
L 294.368059 -154.022051 
L 294.672727 -155.177851 
L 294.977396 -156.31509 
L 295.282064 -157.433322 
L 295.586732 -158.53211 
L 295.8914 -159.611022 
L 296.196069 -160.669637 
L 296.500737 -161.707542 
L 296.805405 -162.724331 
L 297.110074 -163.719608 
L 297.414742 -164.692985 
L 297.71941 -165.644083 
L 298.024079 -166.572533 
L 298.328747 -167.477972 
L 298.633415 -168.360049 
L 298.938084 -169.218423 
L 299.242752 -170.05276 
L 299.54742 -170.862737 
L 299.852088 -171.64804 
L 300.156757 -172.408366 
L 300.461425 -173.14342 
L 300.766093 -173.852918 
L 301.070762 -174.536587 
L 301.37543 -175.194163 
L 301.680098 -175.825392 
L 301.984767 -176.430031 
L 302.289435 -177.007847 
L 302.594103 -177.558617 
L 302.898771 -178.08213 
L 303.20344 -178.578185 
L 303.508108 -179.04659 
L 303.812776 -179.487167 
L 304.117445 -179.899744 
L 304.422113 -180.284165 
L 304.726781 -180.640282 
L 305.03145 -180.967959 
L 305.336118 -181.267069 
L 305.640786 -181.537497 
L 305.945455 -181.779142 
L 306.250123 -181.991909 
L 306.554791 -182.175717 
L 306.859459 -182.330496 
L 307.164128 -182.456187 
L 307.468796 -182.552742 
L 307.773464 -182.620123 
L 308.078133 -182.658305 
L 308.382801 -182.667273 
L 308.687469 -182.647023 
L 308.992138 -182.597565 
L 309.296806 -182.518915 
L 309.601474 -182.411105 
L 309.906143 -182.274175 
L 310.210811 -182.108179 
L 310.515479 -181.913179 
L 310.820147 -181.68925 
L 311.124816 -181.436478 
L 311.429484 -181.15496 
L 311.734152 -180.844804 
L 312.038821 -180.506128 
L 312.343489 -180.139062 
L 312.648157 -179.743747 
L 312.952826 -179.320335 
L 313.257494 -178.868988 
L 313.562162 -178.38988 
L 313.86683 -177.883194 
L 314.171499 -177.349126 
L 314.476167 -176.78788 
L 314.780835 -176.199673 
L 315.085504 -175.58473 
L 315.390172 -174.94329 
L 315.69484 -174.275599 
L 315.999509 -173.581915 
L 316.304177 -172.862505 
L 316.608845 -172.117647 
L 316.913514 -171.347629 
L 317.218182 -170.55275 
L 317.52285 -169.733316 
L 317.827518 -168.889644 
L 318.132187 -168.022063 
L 318.436855 -167.130908 
L 318.741523 -166.216526 
L 319.046192 -165.279272 
L 319.35086 -164.319509 
L 319.655528 -163.337612 
L 319.960197 -162.333964 
L 320.264865 -161.308954 
L 320.569533 -160.262984 
L 320.874201 -159.196462 
L 321.17887 -158.109804 
L 321.483538 -157.003436 
L 321.788206 -155.87779 
L 322.092875 -154.733308 
L 322.397543 -153.570439 
L 322.702211 -152.389639 
L 323.00688 -151.191372 
L 323.311548 -149.976109 
L 323.616216 -148.744329 
L 323.920885 -147.496517 
L 324.225553 -146.233165 
L 324.530221 -144.954771 
L 324.834889 -143.66184 
L 325.139558 -142.354883 
L 325.444226 -141.034419 
L 325.748894 -139.700968 
L 326.053563 -138.355061 
L 326.358231 -136.99723 
L 326.662899 -135.628015 
L 326.967568 -134.247959 
L 327.272236 -132.857613 
L 327.576904 -131.457528 
L 327.881572 -130.048262 
L 328.186241 -128.630378 
L 328.490909 -127.20444 
L 328.795577 -125.771018 
L 329.100246 -124.330685 
L 329.404914 -122.884016 
L 329.709582 -121.431589 
L 330.014251 -119.973987 
L 330.318919 -118.511794 
L 330.623587 -117.045594 
L 330.928256 -115.575977 
L 331.232924 -114.103532 
L 331.537592 -112.62885 
L 331.84226 -111.152524 
L 332.146929 -109.675148 
L 332.451597 -108.197315 
L 332.756265 -106.719621 
L 333.060934 -105.242661 
L 333.365602 -103.767029 
L 333.67027 -102.29332 
L 333.974939 -100.822128 
L 334.279607 -99.354048 
L 334.584275 -97.889671 
L 334.888943 -96.429588 
L 335.193612 -94.97439 
L 335.49828 -93.524664 
L 335.802948 -92.080996 
L 336.107617 -90.64397 
L 336.412285 -89.214167 
L 336.716953 -87.792164 
L 337.021622 -86.378539 
L 337.32629 -84.973861 
L 337.630958 -83.578701 
L 337.935627 -82.193623 
L 338.240295 -80.819188 
L 338.544963 -79.455952 
L 338.849631 -78.104468 
L 339.1543 -76.765283 
L 339.458968 -75.438939 
L 339.763636 -74.125975 
L 340.068305 -72.826922 
L 340.372973 -71.542306 
L 340.677641 -70.272649 
L 340.98231 -69.018465 
L 341.286978 -67.780261 
L 341.591646 -66.55854 
L 341.896314 -65.353798 
L 342.200983 -64.166521 
L 342.505651 -62.997192 
L 342.810319 -61.846285 
L 343.114988 -60.714265 
L 343.419656 -59.601591 
L 343.724324 -58.508714 
L 344.028993 -57.436078 
L 344.333661 -56.384116 
L 344.638329 -55.353254 
L 344.942998 -54.343911 
L 345.247666 -53.356494 
L 345.552334 -52.391404 
L 345.857002 -51.449031 
L 346.161671 -50.529757 
L 346.466339 -49.633954 
L 346.771007 -48.761984 
L 347.075676 -47.914201 
L 347.380344 -47.090947 
L 347.685012 -46.292556 
L 347.989681 -45.519349 
L 348.294349 -44.771641 
L 348.599017 -44.049733 
L 348.903686 -43.353917 
L 349.208354 -42.684474 
L 349.513022 -42.041675 
L 349.81769 -41.42578 
L 350.122359 -40.837038 
L 350.427027 -40.275686 
L 350.731695 -39.741952 
L 351.036364 -39.23605 
L 351.341032 -38.758185 
L 351.6457 -38.30855 
L 351.950369 -37.887327 
L 352.255037 -37.494686 
L 352.559705 -37.130784 
L 352.864373 -36.79577 
L 353.169042 -36.489778 
L 353.47371 -36.212931 
L 353.778378 -35.965342 
L 354.083047 -35.74711 
L 354.387715 -35.558324 
L 354.692383 -35.399059 
L 354.997052 -35.26938 
L 355.30172 -35.169339 
L 355.606388 -35.098976 
L 355.911057 -35.05832 
L 356.215725 -35.047388 
L 356.520393 -35.066183 
L 356.825061 -35.114698 
L 357.12973 -35.192914 
L 357.434398 -35.300798 
L 357.739066 -35.438308 
L 358.043735 -35.605388 
L 358.348403 -35.801971 
L 358.653071 -36.027977 
L 358.95774 -36.283314 
L 359.262408 -36.567881 
L 359.567076 -36.881562 
L 359.871744 -37.224231 
L 360.176413 -37.595749 
L 360.481081 -37.995966 
L 360.785749 -38.424722 
L 361.090418 -38.881842 
L 361.395086 -39.367142 
L 361.699754 -39.880426 
L 362.004423 -40.421487 
L 362.309091 -40.990106 
L 362.613759 -41.586055 
L 362.918428 -42.20909 
L 363.223096 -42.858962 
L 363.527764 -43.535408 
L 363.832432 -44.238154 
L 364.137101 -44.966915 
L 364.441769 -45.721398 
L 364.746437 -46.501297 
L 365.051106 -47.306297 
L 365.355774 -48.136072 
L 365.660442 -48.990286 
L 365.965111 -49.868594 
L 366.269779 -50.770641 
L 366.574447 -51.696061 
L 366.879115 -52.64448 
L 367.183784 -53.615513 
L 367.488452 -54.608768 
L 367.79312 -55.623843 
L 368.097789 -56.660326 
L 368.402457 -57.717797 
L 368.707125 -58.795829 
L 369.011794 -59.893983 
L 369.316462 -61.011817 
L 369.62113 -62.148876 
L 369.925799 -63.304699 
L 370.230467 -64.478819 
L 370.535135 -65.67076 
L 370.839803 -66.880038 
L 371.144472 -68.106163 
L 371.44914 -69.348639 
L 371.753808 -70.606962 
L 372.058477 -71.880622 
L 372.363145 -73.169102 
L 372.667813 -74.471881 
L 372.972482 -75.788431 
L 373.27715 -77.118218 
L 373.581818 -78.460703 
L 373.581818 -77.826002 
L 373.581818 -77.826002 
L 373.27715 -76.483518 
L 372.972482 -75.153732 
L 372.667813 -73.837183 
L 372.363145 -72.534405 
L 372.058477 -71.245925 
L 371.753808 -69.972267 
L 371.44914 -68.713945 
L 371.144472 -67.471469 
L 370.839803 -66.245345 
L 370.535135 -65.036068 
L 370.230467 -63.844128 
L 369.925799 -62.670009 
L 369.62113 -61.514186 
L 369.316462 -60.377128 
L 369.011794 -59.259296 
L 368.707125 -58.161142 
L 368.402457 -57.083111 
L 368.097789 -56.025641 
L 367.79312 -54.989159 
L 367.488452 -53.974086 
L 367.183784 -52.980831 
L 366.879115 -52.009799 
L 366.574447 -51.061381 
L 366.269779 -50.135962 
L 365.965111 -49.233916 
L 365.660442 -48.355609 
L 365.355774 -47.501395 
L 365.051106 -46.671621 
L 364.746437 -45.866622 
L 364.441769 -45.086724 
L 364.137101 -44.332242 
L 363.832432 -43.603482 
L 363.527764 -42.900737 
L 363.223096 -42.224292 
L 362.918428 -41.574421 
L 362.613759 -40.951386 
L 362.309091 -40.355438 
L 362.004423 -39.78682 
L 361.699754 -39.245759 
L 361.395086 -38.732475 
L 361.090418 -38.247176 
L 360.785749 -37.790057 
L 360.481081 -37.361302 
L 360.176413 -36.961085 
L 359.871744 -36.589568 
L 359.567076 -36.246899 
L 359.262408 -35.933219 
L 358.95774 -35.648652 
L 358.653071 -35.393315 
L 358.348403 -35.167309 
L 358.043735 -34.970727 
L 357.739066 -34.803647 
L 357.434398 -34.666137 
L 357.12973 -34.558253 
L 356.825061 -34.480037 
L 356.520393 -34.431522 
L 356.215725 -34.412727 
L 355.911057 -34.42366 
L 355.606388 -34.464316 
L 355.30172 -34.534678 
L 354.997052 -34.634719 
L 354.692383 -34.764398 
L 354.387715 -34.923663 
L 354.083047 -35.112449 
L 353.778378 -35.33068 
L 353.47371 -35.578269 
L 353.169042 -35.855115 
L 352.864373 -36.161107 
L 352.559705 -36.496121 
L 352.255037 -36.860022 
L 351.950369 -37.252663 
L 351.6457 -37.673886 
L 351.341032 -38.12352 
L 351.036364 -38.601384 
L 350.731695 -39.107286 
L 350.427027 -39.64102 
L 350.122359 -40.202371 
L 349.81769 -40.791112 
L 349.513022 -41.407007 
L 349.208354 -42.049804 
L 348.903686 -42.719246 
L 348.599017 -43.415062 
L 348.294349 -44.136969 
L 347.989681 -44.884677 
L 347.685012 -45.657882 
L 347.380344 -46.456273 
L 347.075676 -47.279526 
L 346.771007 -48.127308 
L 346.466339 -48.999277 
L 346.161671 -49.895079 
L 345.857002 -50.814352 
L 345.552334 -51.756724 
L 345.247666 -52.721813 
L 344.942998 -53.709229 
L 344.638329 -54.718571 
L 344.333661 -55.749432 
L 344.028993 -56.801393 
L 343.724324 -57.874029 
L 343.419656 -58.966905 
L 343.114988 -60.079577 
L 342.810319 -61.211596 
L 342.505651 -62.362503 
L 342.200983 -63.531831 
L 341.896314 -64.719107 
L 341.591646 -65.923848 
L 341.286978 -67.145568 
L 340.98231 -68.383771 
L 340.677641 -69.637954 
L 340.372973 -70.907611 
L 340.068305 -72.192226 
L 339.763636 -73.491278 
L 339.458968 -74.804241 
L 339.1543 -76.130584 
L 338.849631 -77.469768 
L 338.544963 -78.821252 
L 338.240295 -80.184487 
L 337.935627 -81.558922 
L 337.630958 -82.943999 
L 337.32629 -84.339159 
L 337.021622 -85.743835 
L 336.716953 -87.15746 
L 336.412285 -88.579462 
L 336.107617 -90.009265 
L 335.802948 -91.446291 
L 335.49828 -92.889958 
L 335.193612 -94.339684 
L 334.888943 -95.794882 
L 334.584275 -97.254964 
L 334.279607 -98.719341 
L 333.974939 -100.187421 
L 333.67027 -101.658612 
L 333.365602 -103.132321 
L 333.060934 -104.607953 
L 332.756265 -106.084913 
L 332.451597 -107.562607 
L 332.146929 -109.04044 
L 331.84226 -110.517816 
L 331.537592 -111.994142 
L 331.232924 -113.468824 
L 330.928256 -114.941269 
L 330.623587 -116.410886 
L 330.318919 -117.877086 
L 330.014251 -119.33928 
L 329.709582 -120.796882 
L 329.404914 -122.249309 
L 329.100246 -123.695978 
L 328.795577 -125.136312 
L 328.490909 -126.569734 
L 328.186241 -127.995673 
L 327.881572 -129.413558 
L 327.576904 -130.822824 
L 327.272236 -132.222909 
L 326.967568 -133.613256 
L 326.662899 -134.993312 
L 326.358231 -136.362528 
L 326.053563 -137.720359 
L 325.748894 -139.066268 
L 325.444226 -140.399719 
L 325.139558 -141.720184 
L 324.834889 -143.027142 
L 324.530221 -144.320073 
L 324.225553 -145.598468 
L 323.920885 -146.861821 
L 323.616216 -148.109634 
L 323.311548 -149.341415 
L 323.00688 -150.556679 
L 322.702211 -151.754947 
L 322.397543 -152.935748 
L 322.092875 -154.098618 
L 321.788206 -155.243101 
L 321.483538 -156.368747 
L 321.17887 -157.475116 
L 320.874201 -158.561775 
L 320.569533 -159.628299 
L 320.264865 -160.67427 
L 319.960197 -161.69928 
L 319.655528 -162.70293 
L 319.35086 -163.684827 
L 319.046192 -164.644591 
L 318.741523 -165.581846 
L 318.436855 -166.496229 
L 318.132187 -167.387385 
L 317.827518 -168.254967 
L 317.52285 -169.098639 
L 317.218182 -169.918074 
L 316.913514 -170.712955 
L 316.608845 -171.482973 
L 316.304177 -172.227832 
L 315.999509 -172.947243 
L 315.69484 -173.640928 
L 315.390172 -174.30862 
L 315.085504 -174.950061 
L 314.780835 -175.565004 
L 314.476167 -176.153212 
L 314.171499 -176.714458 
L 313.86683 -177.248527 
L 313.562162 -177.755214 
L 313.257494 -178.234323 
L 312.952826 -178.68567 
L 312.648157 -179.109083 
L 312.343489 -179.504398 
L 312.038821 -179.871464 
L 311.734152 -180.210141 
L 311.429484 -180.520298 
L 311.124816 -180.801816 
L 310.820147 -181.054588 
L 310.515479 -181.278517 
L 310.210811 -181.473518 
L 309.906143 -181.639514 
L 309.601474 -181.776444 
L 309.296806 -181.884254 
L 308.992138 -181.962904 
L 308.687469 -182.012363 
L 308.382801 -182.032612 
L 308.078133 -182.023644 
L 307.773464 -181.985462 
L 307.468796 -181.918081 
L 307.164128 -181.821527 
L 306.859459 -181.695836 
L 306.554791 -181.541056 
L 306.250123 -181.357248 
L 305.945455 -181.14448 
L 305.640786 -180.902836 
L 305.336118 -180.632406 
L 305.03145 -180.333296 
L 304.726781 -180.00562 
L 304.422113 -179.649502 
L 304.117445 -179.265081 
L 303.812776 -178.852502 
L 303.508108 -178.411926 
L 303.20344 -177.94352 
L 302.898771 -177.447464 
L 302.594103 -176.923951 
L 302.289435 -176.37318 
L 301.984767 -175.795363 
L 301.680098 -175.190723 
L 301.37543 -174.559494 
L 301.070762 -173.901917 
L 300.766093 -173.218247 
L 300.461425 -172.508748 
L 300.156757 -171.773693 
L 299.852088 -171.013367 
L 299.54742 -170.228063 
L 299.242752 -169.418085 
L 298.938084 -168.583747 
L 298.633415 -167.725372 
L 298.328747 -166.843294 
L 298.024079 -165.937854 
L 297.71941 -165.009404 
L 297.414742 -164.058305 
L 297.110074 -163.084927 
L 296.805405 -162.089649 
L 296.500737 -161.072859 
L 296.196069 -160.034953 
L 295.8914 -158.976336 
L 295.586732 -157.897423 
L 295.282064 -156.798635 
L 294.977396 -155.680402 
L 294.672727 -154.543162 
L 294.368059 -153.38736 
L 294.063391 -152.213451 
L 293.758722 -151.021896 
L 293.454054 -149.813162 
L 293.149386 -148.587726 
L 292.844717 -147.346069 
L 292.540049 -146.088682 
L 292.235381 -144.81606 
L 291.930713 -143.528706 
L 291.626044 -142.227128 
L 291.321376 -140.911842 
L 291.016708 -139.583367 
L 290.712039 -138.242231 
L 290.407371 -136.888964 
L 290.102703 -135.524105 
L 289.798034 -134.148194 
L 289.493366 -132.761779 
L 289.188698 -131.365412 
L 288.884029 -129.959648 
L 288.579361 -128.545048 
L 288.274693 -127.122175 
L 287.970025 -125.691597 
L 287.665356 -124.253886 
L 287.360688 -122.809616 
L 287.05602 -121.359365 
L 286.751351 -119.903712 
L 286.446683 -118.443242 
L 286.142015 -116.978539 
L 285.837346 -115.51019 
L 285.532678 -114.038784 
L 285.22801 -112.564913 
L 284.923342 -111.089168 
L 284.618673 -109.612143 
L 284.314005 -108.134431 
L 284.009337 -106.656627 
L 283.704668 -105.179326 
L 283.4 -103.703123 
L 283.095332 -102.228612 
L 282.790663 -100.756389 
L 282.485995 -99.287047 
L 282.181327 -97.821179 
L 281.876658 -96.359376 
L 281.57199 -94.902229 
L 281.267322 -93.450327 
L 280.962654 -92.004256 
L 280.657985 -90.5646 
L 280.353317 -89.131943 
L 280.048649 -87.706862 
L 279.74398 -86.289935 
L 279.439312 -84.881735 
L 279.134644 -83.482833 
L 278.829975 -82.093794 
L 278.525307 -80.71518 
L 278.220639 -79.347551 
L 277.915971 -77.99146 
L 277.611302 -76.647456 
L 277.306634 -75.316084 
L 277.001966 -73.997883 
L 276.697297 -72.693388 
L 276.392629 -71.403127 
L 276.087961 -70.127623 
L 275.783292 -68.867393 
L 275.478624 -67.622947 
L 275.173956 -66.394791 
L 274.869287 -65.183421 
L 274.564619 -63.98933 
L 274.259951 -62.813 
L 273.955283 -61.654908 
L 273.650614 -60.515525 
L 273.345946 -59.39531 
L 273.041278 -58.294719 
L 272.736609 -57.214198 
L 272.431941 -56.154183 
L 272.127273 -55.115105 
L 271.822604 -54.097384 
L 271.517936 -53.101433 
L 271.213268 -52.127654 
L 270.9086 -51.176443 
L 270.603931 -50.248183 
L 270.299263 -49.343252 
L 269.994595 -48.462014 
L 269.689926 -47.604828 
L 269.385258 -46.772039 
L 269.08059 -45.963984 
L 268.775921 -45.180991 
L 268.471253 -44.423376 
L 268.166585 -43.691446 
L 267.861916 -42.985495 
L 267.557248 -42.305811 
L 267.25258 -41.652667 
L 266.947912 -41.026328 
L 266.643243 -40.427046 
L 266.338575 -39.855063 
L 266.033907 -39.310612 
L 265.729238 -38.793911 
L 265.42457 -38.305169 
L 265.119902 -37.844585 
L 264.815233 -37.412342 
L 264.510565 -37.008618 
L 264.205897 -36.633573 
L 263.901229 -36.287359 
L 263.59656 -35.970117 
L 263.291892 -35.681975 
L 262.987224 -35.423047 
L 262.682555 -35.19344 
L 262.377887 -34.993246 
L 262.073219 -34.822544 
L 261.76855 -34.681406 
L 261.463882 -34.569886 
L 261.159214 -34.488031 
L 260.854545 -34.435873 
L 260.549877 -34.413433 
L 260.245209 -34.42072 
L 259.940541 -34.457732 
L 259.635872 -34.524453 
L 259.331204 -34.620857 
L 259.026536 -34.746905 
L 258.721867 -34.902545 
L 258.417199 -35.087715 
L 258.112531 -35.302341 
L 257.807862 -35.546335 
L 257.503194 -35.8196 
L 257.198526 -36.122024 
L 256.893857 -36.453487 
L 256.589189 -36.813853 
L 256.284521 -37.202979 
L 255.979853 -37.620706 
L 255.675184 -38.066866 
L 255.370516 -38.541278 
L 255.065848 -39.043753 
L 254.761179 -39.574085 
L 254.456511 -40.132062 
L 254.151843 -40.717458 
L 253.847174 -41.330036 
L 253.542506 -41.969549 
L 253.237838 -42.635738 
L 252.93317 -43.328334 
L 252.628501 -44.047058 
L 252.323833 -44.791618 
L 252.019165 -45.561714 
L 251.714496 -46.357033 
L 251.409828 -47.177256 
L 251.10516 -48.022049 
L 250.800491 -48.891071 
L 250.495823 -49.78397 
L 250.191155 -50.700384 
L 249.886486 -51.639944 
L 249.581818 -52.602269 
L 249.27715 -53.586968 
L 248.972482 -54.593644 
L 248.667813 -55.621889 
L 248.363145 -56.671285 
L 248.058477 -57.741409 
L 247.753808 -58.831827 
L 247.44914 -59.942096 
L 247.144472 -61.071768 
L 246.839803 -62.220383 
L 246.535135 -63.387478 
L 246.230467 -64.572578 
L 245.925799 -65.775205 
L 245.62113 -66.994869 
L 245.316462 -68.231078 
L 245.011794 -69.483329 
L 244.707125 -70.751116 
L 244.402457 -72.033924 
L 244.097789 -73.331235 
L 243.79312 -74.642521 
L 243.488452 -75.967252 
L 243.183784 -77.30489 
L 242.879115 -78.654895 
L 242.574447 -80.016719 
L 242.269779 -81.38981 
L 241.965111 -82.773613 
L 241.660442 -84.167566 
L 241.355774 -85.571107 
L 241.051106 -86.983665 
L 240.746437 -88.404671 
L 240.441769 -89.833548 
L 240.137101 -91.26972 
L 239.832432 -92.712604 
L 239.527764 -94.161618 
L 239.223096 -95.616177 
L 238.918428 -97.075692 
L 238.613759 -98.539574 
L 238.309091 -100.007232 
L 238.004423 -101.478073 
L 237.699754 -102.951505 
L 237.395086 -104.426933 
L 237.090418 -105.903763 
L 236.785749 -107.381399 
L 236.481081 -108.859246 
L 236.176413 -110.336711 
L 235.871744 -111.813197 
L 235.567076 -113.288112 
L 235.262408 -114.760864 
L 234.95774 -116.23086 
L 234.653071 -117.69751 
L 234.348403 -119.160227 
L 234.043735 -120.618424 
L 233.739066 -122.071516 
L 233.434398 -123.518923 
L 233.12973 -124.960065 
L 232.825061 -126.394365 
L 232.520393 -127.821252 
L 232.215725 -129.240155 
L 231.911057 -130.650508 
L 231.606388 -132.051749 
L 231.30172 -133.44332 
L 230.997052 -134.824667 
L 230.692383 -136.195242 
L 230.387715 -137.554498 
L 230.083047 -138.901897 
L 229.778378 -140.236904 
L 229.47371 -141.558991 
L 229.169042 -142.867632 
L 228.864373 -144.162311 
L 228.559705 -145.442516 
L 228.255037 -146.70774 
L 227.950369 -147.957485 
L 227.6457 -149.191258 
L 227.341032 -150.408573 
L 227.036364 -151.60895 
L 226.731695 -152.791918 
L 226.427027 -153.957011 
L 226.122359 -155.103773 
L 225.81769 -156.231753 
L 225.513022 -157.340509 
L 225.208354 -158.429608 
L 224.903686 -159.498623 
L 224.599017 -160.547136 
L 224.294349 -161.574738 
L 223.989681 -162.581028 
L 223.685012 -163.565614 
L 223.380344 -164.528112 
L 223.075676 -165.468147 
L 222.771007 -166.385354 
L 222.466339 -167.279376 
L 222.161671 -168.149867 
L 221.857002 -168.996489 
L 221.552334 -169.818913 
L 221.247666 -170.616821 
L 220.942998 -171.389904 
L 220.638329 -172.137864 
L 220.333661 -172.86041 
L 220.028993 -173.557264 
L 219.724324 -174.228157 
L 219.419656 -174.87283 
L 219.114988 -175.491035 
L 218.810319 -176.082534 
L 218.505651 -176.647098 
L 218.200983 -177.184511 
L 217.896314 -177.694566 
L 217.591646 -178.177066 
L 217.286978 -178.631827 
L 216.98231 -179.058674 
L 216.677641 -179.457443 
L 216.372973 -179.827981 
L 216.068305 -180.170145 
L 215.763636 -180.483806 
L 215.458968 -180.768842 
L 215.1543 -181.025144 
L 214.849631 -181.252615 
L 214.544963 -181.451166 
L 214.240295 -181.620723 
L 213.935627 -181.76122 
L 213.630958 -181.872603 
L 213.32629 -181.95483 
L 213.021622 -182.007869 
L 212.716953 -182.031701 
L 212.412285 -182.026315 
L 212.107617 -181.991715 
L 211.802948 -181.927913 
L 211.49828 -181.834934 
L 211.193612 -181.712813 
L 210.888943 -181.561597 
L 210.584275 -181.381345 
L 210.279607 -181.172124 
L 209.974939 -180.934015 
L 209.67027 -180.66711 
L 209.365602 -180.371511 
L 209.060934 -180.04733 
L 208.756265 -179.694693 
L 208.451597 -179.313734 
L 208.146929 -178.9046 
L 207.84226 -178.467448 
L 207.537592 -178.002445 
L 207.232924 -177.50977 
L 206.928256 -176.989612 
L 206.623587 -176.442172 
L 206.318919 -175.86766 
L 206.014251 -175.266297 
L 205.709582 -174.638315 
L 205.404914 -173.983955 
L 205.100246 -173.303471 
L 204.795577 -172.597124 
L 204.490909 -171.865188 
L 204.186241 -171.107944 
L 203.881572 -170.325687 
L 203.576904 -169.518718 
L 203.272236 -168.68735 
L 202.967568 -167.831905 
L 202.662899 -166.952714 
L 202.358231 -166.05012 
L 202.053563 -165.124472 
L 201.748894 -164.176131 
L 201.444226 -163.205464 
L 201.139558 -162.212851 
L 200.834889 -161.198677 
L 200.530221 -160.163339 
L 200.225553 -159.10724 
L 199.920885 -158.030793 
L 199.616216 -156.934419 
L 199.311548 -155.818546 
L 199.00688 -154.683613 
L 198.702211 -153.530063 
L 198.397543 -152.35835 
L 198.092875 -151.168933 
L 197.788206 -149.96228 
L 197.483538 -148.738866 
L 197.17887 -147.499172 
L 196.874201 -146.243687 
L 196.569533 -144.972907 
L 196.264865 -143.687332 
L 195.960197 -142.38747 
L 195.655528 -141.073837 
L 195.35086 -139.746951 
L 195.046192 -138.407339 
L 194.741523 -137.055531 
L 194.436855 -135.692064 
L 194.132187 -134.317479 
L 193.827518 -132.932322 
L 193.52285 -131.537146 
L 193.218182 -130.132504 
L 192.913514 -128.718957 
L 192.608845 -127.297068 
L 192.304177 -125.867404 
L 191.999509 -124.430537 
L 191.69484 -122.98704 
L 191.390172 -121.537491 
L 191.085504 -120.08247 
L 190.780835 -118.622558 
L 190.476167 -117.158342 
L 190.171499 -115.690409 
L 189.86683 -114.219347 
L 189.562162 -112.745746 
L 189.257494 -111.270199 
L 188.952826 -109.793299 
L 188.648157 -108.315639 
L 188.343489 -106.837814 
L 188.038821 -105.360419 
L 187.734152 -103.88405 
L 187.429484 -102.4093 
L 187.124816 -100.936764 
L 186.820147 -99.467037 
L 186.515479 -98.000711 
L 186.210811 -96.538378 
L 185.906143 -95.080628 
L 185.601474 -93.628051 
L 185.296806 -92.181234 
L 184.992138 -90.74076 
L 184.687469 -89.307213 
L 184.382801 -87.881173 
L 184.078133 -86.463215 
L 183.773464 -85.053915 
L 183.468796 -83.653841 
L 183.164128 -82.263562 
L 182.859459 -80.883641 
L 182.554791 -79.514634 
L 182.250123 -78.157099 
L 181.945455 -76.811583 
L 181.640786 -75.478633 
L 181.336118 -74.158789 
L 181.03145 -72.852585 
L 180.726781 -71.56055 
L 180.422113 -70.283209 
L 180.117445 -69.021078 
L 179.812776 -67.77467 
L 179.508108 -66.544489 
L 179.20344 -65.331035 
L 178.898771 -64.134799 
L 178.594103 -62.956265 
L 178.289435 -61.795912 
L 177.984767 -60.654209 
L 177.680098 -59.53162 
L 177.37543 -58.428599 
L 177.070762 -57.345593 
L 176.766093 -56.28304 
L 176.461425 -55.241372 
L 176.156757 -54.22101 
L 175.852088 -53.222368 
L 175.54742 -52.245849 
L 175.242752 -51.291849 
L 174.938084 -50.360755 
L 174.633415 -49.452943 
L 174.328747 -48.568781 
L 174.024079 -47.708627 
L 173.71941 -46.872828 
L 173.414742 -46.061723 
L 173.110074 -45.27564 
L 172.805405 -44.514896 
L 172.500737 -43.7798 
L 172.196069 -43.070649 
L 171.8914 -42.387729 
L 171.586732 -41.731316 
L 171.282064 -41.101676 
L 170.977396 -40.499063 
L 170.672727 -39.923721 
L 170.368059 -39.375882 
L 170.063391 -38.855767 
L 169.758722 -38.363586 
L 169.454054 -37.899539 
L 169.149386 -37.463812 
L 168.844717 -37.056581 
L 168.540049 -36.678011 
L 168.235381 -36.328255 
L 167.930713 -36.007453 
L 167.626044 -35.715736 
L 167.321376 -35.453221 
L 167.016708 -35.220013 
L 166.712039 -35.016208 
L 166.407371 -34.841886 
L 166.102703 -34.697119 
L 165.798034 -34.581965 
L 165.493366 -34.496471 
L 165.188698 -34.44067 
L 164.884029 -34.414585 
L 164.579361 -34.418228 
L 164.274693 -34.451595 
L 163.970025 -34.514675 
L 163.665356 -34.607441 
L 163.360688 -34.729856 
L 163.05602 -34.881871 
L 162.751351 -35.063424 
L 162.446683 -35.274443 
L 162.142015 -35.514841 
L 161.837346 -35.784522 
L 161.532678 -36.083377 
L 161.22801 -36.411286 
L 160.923342 -36.768116 
L 160.618673 -37.153724 
L 160.314005 -37.567953 
L 160.009337 -38.010636 
L 159.704668 -38.481594 
L 159.4 -38.980639 
L 159.095332 -39.507567 
L 158.790663 -40.062166 
L 158.485995 -40.644212 
L 158.181327 -41.25347 
L 157.876658 -41.889694 
L 157.57199 -42.552627 
L 157.267322 -43.242 
L 156.962654 -43.957535 
L 156.657985 -44.698943 
L 156.353317 -45.465924 
L 156.048649 -46.258169 
L 155.74398 -47.075355 
L 155.439312 -47.917153 
L 155.134644 -48.783223 
L 154.829975 -49.673214 
L 154.525307 -50.586765 
L 154.220639 -51.523507 
L 153.915971 -52.483061 
L 153.611302 -53.465038 
L 153.306634 -54.469041 
L 153.001966 -55.494663 
L 152.697297 -56.541489 
L 152.392629 -57.609095 
L 152.087961 -58.697047 
L 151.783292 -59.804907 
L 151.478624 -60.932223 
L 151.173956 -62.078541 
L 150.869287 -63.243395 
L 150.564619 -64.426314 
L 150.259951 -65.626817 
L 149.955283 -66.844419 
L 149.650614 -68.078626 
L 149.345946 -69.328937 
L 149.041278 -70.594847 
L 148.736609 -71.875841 
L 148.431941 -73.171401 
L 148.127273 -74.481002 
L 147.822604 -75.804113 
L 147.517936 -77.140199 
L 147.213268 -78.488716 
L 146.9086 -79.849121 
L 146.603931 -81.22086 
L 146.299263 -82.603379 
L 145.994595 -83.996118 
L 145.689926 -85.398514 
L 145.385258 -86.809997 
L 145.08059 -88.229998 
L 144.775921 -89.657941 
L 144.471253 -91.093249 
L 144.166585 -92.535342 
L 143.861916 -93.983636 
L 143.557248 -95.437546 
L 143.25258 -96.896485 
L 142.947912 -98.359863 
L 142.643243 -99.82709 
L 142.338575 -101.297573 
L 142.033907 -102.77072 
L 141.729238 -104.245935 
L 141.42457 -105.722625 
L 141.119902 -107.200194 
L 140.815233 -108.678047 
L 140.510565 -110.155591 
L 140.205897 -111.632229 
L 139.901229 -113.107369 
L 139.59656 -114.580417 
L 139.291892 -116.050783 
L 138.987224 -117.517875 
L 138.682555 -118.981106 
L 138.377887 -120.439888 
L 138.073219 -121.893638 
L 137.76855 -123.341773 
L 137.463882 -124.783714 
L 137.159214 -126.218884 
L 136.854545 -127.646711 
L 136.549877 -129.066623 
L 136.245209 -130.478055 
L 135.940541 -131.880443 
L 135.635872 -133.27323 
L 135.331204 -134.655861 
L 135.026536 -136.027785 
L 134.721867 -137.388459 
L 134.417199 -138.737341 
L 134.112531 -140.073896 
L 133.807862 -141.397594 
L 133.503194 -142.707912 
L 133.198526 -144.004331 
L 132.893857 -145.286338 
L 132.589189 -146.553426 
L 132.284521 -147.805096 
L 131.979853 -149.040854 
L 131.675184 -150.260212 
L 131.370516 -151.462692 
L 131.065848 -152.64782 
L 130.761179 -153.815129 
L 130.456511 -154.964163 
L 130.151843 -156.09447 
L 129.847174 -157.205607 
L 129.542506 -158.297139 
L 129.237838 -159.368639 
L 128.93317 -160.419689 
L 128.628501 -161.449876 
L 128.323833 -162.458801 
L 128.019165 -163.446069 
L 127.714496 -164.411295 
L 127.409828 -165.354104 
L 127.10516 -166.27413 
L 126.800491 -167.171014 
L 126.495823 -168.044408 
L 126.191155 -168.893975 
L 125.886486 -169.719383 
L 125.581818 -170.520314 
L 125.27715 -171.296457 
L 124.972482 -172.047513 
L 124.667813 -172.773191 
L 124.363145 -173.47321 
L 124.058477 -174.1473 
L 123.753808 -174.795202 
L 123.44914 -175.416665 
L 123.144472 -176.011451 
L 122.839803 -176.57933 
L 122.535135 -177.120083 
L 122.230467 -177.633503 
L 121.925799 -178.119392 
L 121.62113 -178.577564 
L 121.316462 -179.007843 
L 121.011794 -179.410063 
L 120.707125 -179.78407 
L 120.402457 -180.129721 
L 120.097789 -180.446883 
L 119.79312 -180.735435 
L 119.488452 -180.995266 
L 119.183784 -181.226277 
L 118.879115 -181.428379 
L 118.574447 -181.601494 
L 118.269779 -181.745557 
L 117.965111 -181.860513 
L 117.660442 -181.946317 
L 117.355774 -182.002937 
L 117.051106 -182.03035 
L 116.746437 -182.028547 
L 116.441769 -181.997529 
L 116.137101 -181.937306 
L 115.832432 -181.847903 
L 115.527764 -181.729353 
L 115.223096 -181.581702 
L 114.918428 -181.405006 
L 114.613759 -181.199333 
L 114.309091 -180.964762 
L 114.004423 -180.701383 
L 113.699754 -180.409296 
L 113.395086 -180.088613 
L 113.090418 -179.739458 
L 112.785749 -179.361965 
L 112.481081 -178.956277 
L 112.176413 -178.522551 
L 111.871744 -178.060954 
L 111.567076 -177.571662 
L 111.262408 -177.054863 
L 110.95774 -176.510757 
L 110.653071 -175.939553 
L 110.348403 -175.34147 
L 110.043735 -174.716739 
L 109.739066 -174.065601 
L 109.434398 -173.388306 
L 109.12973 -172.685116 
L 108.825061 -171.956302 
L 108.520393 -171.202146 
L 108.215725 -170.422939 
L 107.911057 -169.618984 
L 107.606388 -168.79059 
L 107.30172 -167.93808 
L 106.997052 -167.061783 
L 106.692383 -166.16204 
L 106.387715 -165.239199 
L 106.083047 -164.293621 
L 105.778378 -163.325672 
L 105.47371 -162.335729 
L 105.169042 -161.324177 
L 104.864373 -160.291413 
L 104.559705 -159.237837 
L 104.255037 -158.163863 
L 103.950369 -157.069909 
L 103.6457 -155.956404 
L 103.341032 -154.823784 
L 103.036364 -153.672493 
L 102.731695 -152.502982 
L 102.427027 -151.315711 
L 102.122359 -150.111146 
L 101.81769 -148.889762 
L 101.513022 -147.652038 
L 101.208354 -146.398463 
L 100.903686 -145.129531 
L 100.599017 -143.845742 
L 100.294349 -142.547605 
L 99.989681 -141.235633 
L 99.685012 -139.910344 
L 99.380344 -138.572263 
L 99.075676 -137.221922 
L 98.771007 -135.859855 
L 98.466339 -134.486604 
L 98.161671 -133.102715 
L 97.857002 -131.708737 
L 97.552334 -130.305226 
L 97.247666 -128.89274 
L 96.942998 -127.471844 
L 96.638329 -126.043103 
L 96.333661 -124.607088 
L 96.028993 -123.164373 
L 95.724324 -121.715535 
L 95.419656 -120.261153 
L 95.114988 -118.80181 
L 94.810319 -117.33809 
L 94.505651 -115.870581 
L 94.200983 -114.399871 
L 93.896314 -112.926549 
L 93.591646 -111.451209 
L 93.286978 -109.974443 
L 92.98231 -108.496844 
L 92.677641 -107.019008 
L 92.372973 -105.541528 
L 92.068305 -104.065001 
L 91.763636 -102.59002 
L 91.458968 -101.117181 
L 91.1543 -99.647078 
L 90.849631 -98.180303 
L 90.544963 -96.717448 
L 90.240295 -95.259105 
L 89.935627 -93.805863 
L 89.630958 -92.358307 
L 89.32629 -90.917024 
L 89.021622 -89.482597 
L 88.716953 -88.055605 
L 88.412285 -86.636625 
L 88.107617 -85.226232 
L 87.802948 -83.824997 
L 87.49828 -82.433487 
L 87.193612 -81.052265 
L 86.888943 -79.681891 
L 86.584275 -78.322919 
L 86.279607 -76.9759 
L 85.974939 -75.64138 
L 85.67027 -74.3199 
L 85.365602 -73.011994 
L 85.060934 -71.718194 
L 84.756265 -70.439023 
L 84.451597 -69.175 
L 84.146929 -67.926637 
L 83.84226 -66.694439 
L 83.537592 -65.478908 
L 83.232924 -64.280534 
L 82.928256 -63.099804 
L 82.623587 -61.937196 
L 82.318919 -60.793181 
L 82.014251 -59.668224 
L 81.709582 -58.562779 
L 81.404914 -57.477295 
L 81.100246 -56.412211 
L 80.795577 -55.36796 
L 80.490909 -54.344963 
L 80.186241 -53.343635 
L 79.881572 -52.364382 
L 79.576904 -51.4076 
L 79.272236 -50.473677 
L 78.967568 -49.562991 
L 78.662899 -48.675909 
L 78.358231 -47.812792 
L 78.053563 -46.973989 
L 77.748894 -46.159838 
L 77.444226 -45.370669 
L 77.139558 -44.606802 
L 76.834889 -43.868545 
L 76.530221 -43.156197 
L 76.225553 -42.470045 
L 75.920885 -41.810368 
L 75.616216 -41.177431 
L 75.311548 -40.571491 
L 75.00688 -39.992792 
L 74.702211 -39.441569 
L 74.397543 -38.918043 
L 74.092875 -38.422426 
L 73.788206 -37.954919 
L 73.483538 -37.515709 
L 73.17887 -37.104976 
L 72.874201 -36.722883 
L 72.569533 -36.369586 
L 72.264865 -36.045227 
L 71.960197 -35.749937 
L 71.655528 -35.483835 
L 71.35086 -35.247028 
L 71.046192 -35.039613 
L 70.741523 -34.861672 
L 70.436855 -34.713278 
L 70.132187 -34.59449 
L 69.827518 -34.505357 
L 69.52285 -34.445914 
L 69.218182 -34.416185 
z
" id="m91ea76e311" style="stroke:#4169e1;stroke-opacity:0.3;"/>
    </defs>
    <g clip-path="url(#p1ea2e9b73b)">
     <use style="fill:#4169e1;fill-opacity:0.3;stroke:#4169e1;stroke-opacity:0.3;" x="0" xlink:href="#m91ea76e311" y="216"/>
    </g>
   </g>
   <g id="matplotlib.axis_1">
    <g id="xtick_1">
     <g id="line2d_1">
      <defs>
       <path d="M 0 0 
L 0 3.5 
" id="mf3e290a6a1" style="stroke:#000000;stroke-width:0.8;"/>
      </defs>
      <g>
       <use style="stroke:#000000;stroke-width:0.8;" x="69.218182" xlink:href="#mf3e290a6a1" y="189"/>
      </g>
     </g>
     <g id="text_1">
      <!-- 0 -->
      <g transform="translate(66.036932 203.598437)scale(0.1 -0.1)">
       <defs>
        <path d="M 31.78125 66.40625 
Q 24.171875 66.40625 20.328125 58.90625 
Q 16.5 51.421875 16.5 36.375 
Q 16.5 21.390625 20.328125 13.890625 
Q 24.171875 6.390625 31.78125 6.390625 
Q 39.453125 6.390625 43.28125 13.890625 
Q 47.125 21.390625 47.125 36.375 
Q 47.125 51.421875 43.28125 58.90625 
Q 39.453125 66.40625 31.78125 66.40625 
z
M 31.78125 74.21875 
Q 44.046875 74.21875 50.515625 64.515625 
Q 56.984375 54.828125 56.984375 36.375 
Q 56.984375 17.96875 50.515625 8.265625 
Q 44.046875 -1.421875 31.78125 -1.421875 
Q 19.53125 -1.421875 13.0625 8.265625 
Q 6.59375 17.96875 6.59375 36.375 
Q 6.59375 54.828125 13.0625 64.515625 
Q 19.53125 74.21875 31.78125 74.21875 
z
" id="DejaVuSans-48"/>
       </defs>
       <use xlink:href="#DejaVuSans-48"/>
      </g>
     </g>
    </g>
    <g id="xtick_2">
     <g id="line2d_2">
      <g>
       <use style="stroke:#000000;stroke-width:0.8;" x="130.151843" xlink:href="#mf3e290a6a1" y="189"/>
      </g>
     </g>
     <g id="text_2">
      <!-- 200 -->
      <g transform="translate(120.608093 203.598437)scale(0.1 -0.1)">
       <defs>
        <path d="M 19.1875 8.296875 
L 53.609375 8.296875 
L 53.609375 0 
L 7.328125 0 
L 7.328125 8.296875 
Q 12.9375 14.109375 22.625 23.890625 
Q 32.328125 33.6875 34.8125 36.53125 
Q 39.546875 41.84375 41.421875 45.53125 
Q 43.3125 49.21875 43.3125 52.78125 
Q 43.3125 58.59375 39.234375 62.25 
Q 35.15625 65.921875 28.609375 65.921875 
Q 23.96875 65.921875 18.8125 64.3125 
Q 13.671875 62.703125 7.8125 59.421875 
L 7.8125 69.390625 
Q 13.765625 71.78125 18.9375 73 
Q 24.125 74.21875 28.421875 74.21875 
Q 39.75 74.21875 46.484375 68.546875 
Q 53.21875 62.890625 53.21875 53.421875 
Q 53.21875 48.921875 51.53125 44.890625 
Q 49.859375 40.875 45.40625 35.40625 
Q 44.1875 33.984375 37.640625 27.21875 
Q 31.109375 20.453125 19.1875 8.296875 
z
" id="DejaVuSans-50"/>
       </defs>
       <use xlink:href="#DejaVuSans-50"/>
       <use x="63.623047" xlink:href="#DejaVuSans-48"/>
       <use x="127.246094" xlink:href="#DejaVuSans-48"/>
      </g>
     </g>
    </g>
    <g id="xtick_3">
     <g id="line2d_3">
      <g>
       <use style="stroke:#000000;stroke-width:0.8;" x="191.085504" xlink:href="#mf3e290a6a1" y="189"/>
      </g>
     </g>
     <g id="text_3">
      <!-- 400 -->
      <g transform="translate(181.541754 203.598437)scale(0.1 -0.1)">
       <defs>
        <path d="M 37.796875 64.3125 
L 12.890625 25.390625 
L 37.796875 25.390625 
z
M 35.203125 72.90625 
L 47.609375 72.90625 
L 47.609375 25.390625 
L 58.015625 25.390625 
L 58.015625 17.1875 
L 47.609375 17.1875 
L 47.609375 0 
L 37.796875 0 
L 37.796875 17.1875 
L 4.890625 17.1875 
L 4.890625 26.703125 
z
" id="DejaVuSans-52"/>
       </defs>
       <use xlink:href="#DejaVuSans-52"/>
       <use x="63.623047" xlink:href="#DejaVuSans-48"/>
       <use x="127.246094" xlink:href="#DejaVuSans-48"/>
      </g>
     </g>
    </g>
    <g id="xtick_4">
     <g id="line2d_4">
      <g>
       <use style="stroke:#000000;stroke-width:0.8;" x="252.019165" xlink:href="#mf3e290a6a1" y="189"/>
      </g>
     </g>
     <g id="text_4">
      <!-- 600 -->
      <g transform="translate(242.475415 203.598437)scale(0.1 -0.1)">
       <defs>
        <path d="M 33.015625 40.375 
Q 26.375 40.375 22.484375 35.828125 
Q 18.609375 31.296875 18.609375 23.390625 
Q 18.609375 15.53125 22.484375 10.953125 
Q 26.375 6.390625 33.015625 6.390625 
Q 39.65625 6.390625 43.53125 10.953125 
Q 47.40625 15.53125 47.40625 23.390625 
Q 47.40625 31.296875 43.53125 35.828125 
Q 39.65625 40.375 33.015625 40.375 
z
M 52.59375 71.296875 
L 52.59375 62.3125 
Q 48.875 64.0625 45.09375 64.984375 
Q 41.3125 65.921875 37.59375 65.921875 
Q 27.828125 65.921875 22.671875 59.328125 
Q 17.53125 52.734375 16.796875 39.40625 
Q 19.671875 43.65625 24.015625 45.921875 
Q 28.375 48.1875 33.59375 48.1875 
Q 44.578125 48.1875 50.953125 41.515625 
Q 57.328125 34.859375 57.328125 23.390625 
Q 57.328125 12.15625 50.6875 5.359375 
Q 44.046875 -1.421875 33.015625 -1.421875 
Q 20.359375 -1.421875 13.671875 8.265625 
Q 6.984375 17.96875 6.984375 36.375 
Q 6.984375 53.65625 15.1875 63.9375 
Q 23.390625 74.21875 37.203125 74.21875 
Q 40.921875 74.21875 44.703125 73.484375 
Q 48.484375 72.75 52.59375 71.296875 
z
" id="DejaVuSans-54"/>
       </defs>
       <use xlink:href="#DejaVuSans-54"/>
       <use x="63.623047" xlink:href="#DejaVuSans-48"/>
       <use x="127.246094" xlink:href="#DejaVuSans-48"/>
      </g>
     </g>
    </g>
    <g id="xtick_5">
     <g id="line2d_5">
      <g>
       <use style="stroke:#000000;stroke-width:0.8;" x="312.952826" xlink:href="#mf3e290a6a1" y="189"/>
      </g>
     </g>
     <g id="text_5">
      <!-- 800 -->
      <g transform="translate(303.409076 203.598437)scale(0.1 -0.1)">
       <defs>
        <path d="M 31.78125 34.625 
Q 24.75 34.625 20.71875 30.859375 
Q 16.703125 27.09375 16.703125 20.515625 
Q 16.703125 13.921875 20.71875 10.15625 
Q 24.75 6.390625 31.78125 6.390625 
Q 38.8125 6.390625 42.859375 10.171875 
Q 46.921875 13.96875 46.921875 20.515625 
Q 46.921875 27.09375 42.890625 30.859375 
Q 38.875 34.625 31.78125 34.625 
z
M 21.921875 38.8125 
Q 15.578125 40.375 12.03125 44.71875 
Q 8.5 49.078125 8.5 55.328125 
Q 8.5 64.0625 14.71875 69.140625 
Q 20.953125 74.21875 31.78125 74.21875 
Q 42.671875 74.21875 48.875 69.140625 
Q 55.078125 64.0625 55.078125 55.328125 
Q 55.078125 49.078125 51.53125 44.71875 
Q 48 40.375 41.703125 38.8125 
Q 48.828125 37.15625 52.796875 32.3125 
Q 56.78125 27.484375 56.78125 20.515625 
Q 56.78125 9.90625 50.3125 4.234375 
Q 43.84375 -1.421875 31.78125 -1.421875 
Q 19.734375 -1.421875 13.25 4.234375 
Q 6.78125 9.90625 6.78125 20.515625 
Q 6.78125 27.484375 10.78125 32.3125 
Q 14.796875 37.15625 21.921875 38.8125 
z
M 18.3125 54.390625 
Q 18.3125 48.734375 21.84375 45.5625 
Q 25.390625 42.390625 31.78125 42.390625 
Q 38.140625 42.390625 41.71875 45.5625 
Q 45.3125 48.734375 45.3125 54.390625 
Q 45.3125 60.0625 41.71875 63.234375 
Q 38.140625 66.40625 31.78125 66.40625 
Q 25.390625 66.40625 21.84375 63.234375 
Q 18.3125 60.0625 18.3125 54.390625 
z
" id="DejaVuSans-56"/>
       </defs>
       <use xlink:href="#DejaVuSans-56"/>
       <use x="63.623047" xlink:href="#DejaVuSans-48"/>
       <use x="127.246094" xlink:href="#DejaVuSans-48"/>
      </g>
     </g>
    </g>
    <g id="xtick_6">
     <g id="line2d_6">
      <g>
       <use style="stroke:#000000;stroke-width:0.8;" x="373.886486" xlink:href="#mf3e290a6a1" y="189"/>
      </g>
     </g>
     <g id="text_6">
      <!-- 1000 -->
      <g transform="translate(361.161486 203.598437)scale(0.1 -0.1)">
       <defs>
        <path d="M 12.40625 8.296875 
L 28.515625 8.296875 
L 28.515625 63.921875 
L 10.984375 60.40625 
L 10.984375 69.390625 
L 28.421875 72.90625 
L 38.28125 72.90625 
L 38.28125 8.296875 
L 54.390625 8.296875 
L 54.390625 0 
L 12.40625 0 
z
" id="DejaVuSans-49"/>
       </defs>
       <use xlink:href="#DejaVuSans-49"/>
       <use x="63.623047" xlink:href="#DejaVuSans-48"/>
       <use x="127.246094" xlink:href="#DejaVuSans-48"/>
       <use x="190.869141" xlink:href="#DejaVuSans-48"/>
      </g>
     </g>
    </g>
    <g id="text_7">
     <!-- Iteration -->
     <g transform="translate(200.191406 217.276563)scale(0.1 -0.1)">
      <defs>
       <path d="M 9.8125 72.90625 
L 19.671875 72.90625 
L 19.671875 0 
L 9.8125 0 
z
" id="DejaVuSans-73"/>
       <path d="M 18.3125 70.21875 
L 18.3125 54.6875 
L 36.8125 54.6875 
L 36.8125 47.703125 
L 18.3125 47.703125 
L 18.3125 18.015625 
Q 18.3125 11.328125 20.140625 9.421875 
Q 21.96875 7.515625 27.59375 7.515625 
L 36.8125 7.515625 
L 36.8125 0 
L 27.59375 0 
Q 17.1875 0 13.234375 3.875 
Q 9.28125 7.765625 9.28125 18.015625 
L 9.28125 47.703125 
L 2.6875 47.703125 
L 2.6875 54.6875 
L 9.28125 54.6875 
L 9.28125 70.21875 
z
" id="DejaVuSans-116"/>
       <path d="M 56.203125 29.59375 
L 56.203125 25.203125 
L 14.890625 25.203125 
Q 15.484375 15.921875 20.484375 11.0625 
Q 25.484375 6.203125 34.421875 6.203125 
Q 39.59375 6.203125 44.453125 7.46875 
Q 49.3125 8.734375 54.109375 11.28125 
L 54.109375 2.78125 
Q 49.265625 0.734375 44.1875 -0.34375 
Q 39.109375 -1.421875 33.890625 -1.421875 
Q 20.796875 -1.421875 13.15625 6.1875 
Q 5.515625 13.8125 5.515625 26.8125 
Q 5.515625 40.234375 12.765625 48.109375 
Q 20.015625 56 32.328125 56 
Q 43.359375 56 49.78125 48.890625 
Q 56.203125 41.796875 56.203125 29.59375 
z
M 47.21875 32.234375 
Q 47.125 39.59375 43.09375 43.984375 
Q 39.0625 48.390625 32.421875 48.390625 
Q 24.90625 48.390625 20.390625 44.140625 
Q 15.875 39.890625 15.1875 32.171875 
z
" id="DejaVuSans-101"/>
       <path d="M 41.109375 46.296875 
Q 39.59375 47.171875 37.8125 47.578125 
Q 36.03125 48 33.890625 48 
Q 26.265625 48 22.1875 43.046875 
Q 18.109375 38.09375 18.109375 28.8125 
L 18.109375 0 
L 9.078125 0 
L 9.078125 54.6875 
L 18.109375 54.6875 
L 18.109375 46.1875 
Q 20.953125 51.171875 25.484375 53.578125 
Q 30.03125 56 36.53125 56 
Q 37.453125 56 38.578125 55.875 
Q 39.703125 55.765625 41.0625 55.515625 
z
" id="DejaVuSans-114"/>
       <path d="M 34.28125 27.484375 
Q 23.390625 27.484375 19.1875 25 
Q 14.984375 22.515625 14.984375 16.5 
Q 14.984375 11.71875 18.140625 8.90625 
Q 21.296875 6.109375 26.703125 6.109375 
Q 34.1875 6.109375 38.703125 11.40625 
Q 43.21875 16.703125 43.21875 25.484375 
L 43.21875 27.484375 
z
M 52.203125 31.203125 
L 52.203125 0 
L 43.21875 0 
L 43.21875 8.296875 
Q 40.140625 3.328125 35.546875 0.953125 
Q 30.953125 -1.421875 24.3125 -1.421875 
Q 15.921875 -1.421875 10.953125 3.296875 
Q 6 8.015625 6 15.921875 
Q 6 25.140625 12.171875 29.828125 
Q 18.359375 34.515625 30.609375 34.515625 
L 43.21875 34.515625 
L 43.21875 35.40625 
Q 43.21875 41.609375 39.140625 45 
Q 35.0625 48.390625 27.6875 48.390625 
Q 23 48.390625 18.546875 47.265625 
Q 14.109375 46.140625 10.015625 43.890625 
L 10.015625 52.203125 
Q 14.9375 54.109375 19.578125 55.046875 
Q 24.21875 56 28.609375 56 
Q 40.484375 56 46.34375 49.84375 
Q 52.203125 43.703125 52.203125 31.203125 
z
" id="DejaVuSans-97"/>
       <path d="M 9.421875 54.6875 
L 18.40625 54.6875 
L 18.40625 0 
L 9.421875 0 
z
M 9.421875 75.984375 
L 18.40625 75.984375 
L 18.40625 64.59375 
L 9.421875 64.59375 
z
" id="DejaVuSans-105"/>
       <path d="M 30.609375 48.390625 
Q 23.390625 48.390625 19.1875 42.75 
Q 14.984375 37.109375 14.984375 27.296875 
Q 14.984375 17.484375 19.15625 11.84375 
Q 23.34375 6.203125 30.609375 6.203125 
Q 37.796875 6.203125 41.984375 11.859375 
Q 46.1875 17.53125 46.1875 27.296875 
Q 46.1875 37.015625 41.984375 42.703125 
Q 37.796875 48.390625 30.609375 48.390625 
z
M 30.609375 56 
Q 42.328125 56 49.015625 48.375 
Q 55.71875 40.765625 55.71875 27.296875 
Q 55.71875 13.875 49.015625 6.21875 
Q 42.328125 -1.421875 30.609375 -1.421875 
Q 18.84375 -1.421875 12.171875 6.21875 
Q 5.515625 13.875 5.515625 27.296875 
Q 5.515625 40.765625 12.171875 48.375 
Q 18.84375 56 30.609375 56 
z
" id="DejaVuSans-111"/>
       <path d="M 54.890625 33.015625 
L 54.890625 0 
L 45.90625 0 
L 45.90625 32.71875 
Q 45.90625 40.484375 42.875 44.328125 
Q 39.84375 48.1875 33.796875 48.1875 
Q 26.515625 48.1875 22.3125 43.546875 
Q 18.109375 38.921875 18.109375 30.90625 
L 18.109375 0 
L 9.078125 0 
L 9.078125 54.6875 
L 18.109375 54.6875 
L 18.109375 46.1875 
Q 21.34375 51.125 25.703125 53.5625 
Q 30.078125 56 35.796875 56 
Q 45.21875 56 50.046875 50.171875 
Q 54.890625 44.34375 54.890625 33.015625 
z
" id="DejaVuSans-110"/>
      </defs>
      <use xlink:href="#DejaVuSans-73"/>
      <use x="29.492188" xlink:href="#DejaVuSans-116"/>
      <use x="68.701172" xlink:href="#DejaVuSans-101"/>
      <use x="130.224609" xlink:href="#DejaVuSans-114"/>
      <use x="171.337891" xlink:href="#DejaVuSans-97"/>
      <use x="232.617188" xlink:href="#DejaVuSans-116"/>
      <use x="271.826172" xlink:href="#DejaVuSans-105"/>
      <use x="299.609375" xlink:href="#DejaVuSans-111"/>
      <use x="360.791016" xlink:href="#DejaVuSans-110"/>
     </g>
    </g>
   </g>
   <g id="matplotlib.axis_2">
    <g id="ytick_1">
     <g id="line2d_7">
      <defs>
       <path d="M 0 0 
L -3.5 0 
" id="m436be17b87" style="stroke:#000000;stroke-width:0.8;"/>
      </defs>
      <g>
       <use style="stroke:#000000;stroke-width:0.8;" x="54" xlink:href="#m436be17b87" y="175.114734"/>
      </g>
     </g>
     <g id="text_8">
      <!-- 0.0002 -->
      <g transform="translate(12.009375 178.913953)scale(0.1 -0.1)">
       <defs>
        <path d="M 10.6875 12.40625 
L 21 12.40625 
L 21 0 
L 10.6875 0 
z
" id="DejaVuSans-46"/>
       </defs>
       <use xlink:href="#DejaVuSans-48"/>
       <use x="63.623047" xlink:href="#DejaVuSans-46"/>
       <use x="95.410156" xlink:href="#DejaVuSans-48"/>
       <use x="159.033203" xlink:href="#DejaVuSans-48"/>
       <use x="222.65625" xlink:href="#DejaVuSans-48"/>
       <use x="286.279297" xlink:href="#DejaVuSans-50"/>
      </g>
     </g>
    </g>
    <g id="ytick_2">
     <g id="line2d_8">
      <g>
       <use style="stroke:#000000;stroke-width:0.8;" x="54" xlink:href="#m436be17b87" y="148.680919"/>
      </g>
     </g>
     <g id="text_9">
      <!-- 0.0003 -->
      <g transform="translate(12.009375 152.480137)scale(0.1 -0.1)">
       <defs>
        <path d="M 40.578125 39.3125 
Q 47.65625 37.796875 51.625 33 
Q 55.609375 28.21875 55.609375 21.1875 
Q 55.609375 10.40625 48.1875 4.484375 
Q 40.765625 -1.421875 27.09375 -1.421875 
Q 22.515625 -1.421875 17.65625 -0.515625 
Q 12.796875 0.390625 7.625 2.203125 
L 7.625 11.71875 
Q 11.71875 9.328125 16.59375 8.109375 
Q 21.484375 6.890625 26.8125 6.890625 
Q 36.078125 6.890625 40.9375 10.546875 
Q 45.796875 14.203125 45.796875 21.1875 
Q 45.796875 27.640625 41.28125 31.265625 
Q 36.765625 34.90625 28.71875 34.90625 
L 20.21875 34.90625 
L 20.21875 43.015625 
L 29.109375 43.015625 
Q 36.375 43.015625 40.234375 45.921875 
Q 44.09375 48.828125 44.09375 54.296875 
Q 44.09375 59.90625 40.109375 62.90625 
Q 36.140625 65.921875 28.71875 65.921875 
Q 24.65625 65.921875 20.015625 65.03125 
Q 15.375 64.15625 9.8125 62.3125 
L 9.8125 71.09375 
Q 15.4375 72.65625 20.34375 73.4375 
Q 25.25 74.21875 29.59375 74.21875 
Q 40.828125 74.21875 47.359375 69.109375 
Q 53.90625 64.015625 53.90625 55.328125 
Q 53.90625 49.265625 50.4375 45.09375 
Q 46.96875 40.921875 40.578125 39.3125 
z
" id="DejaVuSans-51"/>
       </defs>
       <use xlink:href="#DejaVuSans-48"/>
       <use x="63.623047" xlink:href="#DejaVuSans-46"/>
       <use x="95.410156" xlink:href="#DejaVuSans-48"/>
       <use x="159.033203" xlink:href="#DejaVuSans-48"/>
       <use x="222.65625" xlink:href="#DejaVuSans-48"/>
       <use x="286.279297" xlink:href="#DejaVuSans-51"/>
      </g>
     </g>
    </g>
    <g id="ytick_3">
     <g id="line2d_9">
      <g>
       <use style="stroke:#000000;stroke-width:0.8;" x="54" xlink:href="#m436be17b87" y="122.247103"/>
      </g>
     </g>
     <g id="text_10">
      <!-- 0.0004 -->
      <g transform="translate(12.009375 126.046322)scale(0.1 -0.1)">
       <use xlink:href="#DejaVuSans-48"/>
       <use x="63.623047" xlink:href="#DejaVuSans-46"/>
       <use x="95.410156" xlink:href="#DejaVuSans-48"/>
       <use x="159.033203" xlink:href="#DejaVuSans-48"/>
       <use x="222.65625" xlink:href="#DejaVuSans-48"/>
       <use x="286.279297" xlink:href="#DejaVuSans-52"/>
      </g>
     </g>
    </g>
    <g id="ytick_4">
     <g id="line2d_10">
      <g>
       <use style="stroke:#000000;stroke-width:0.8;" x="54" xlink:href="#m436be17b87" y="95.813288"/>
      </g>
     </g>
     <g id="text_11">
      <!-- 0.0005 -->
      <g transform="translate(12.009375 99.612506)scale(0.1 -0.1)">
       <defs>
        <path d="M 10.796875 72.90625 
L 49.515625 72.90625 
L 49.515625 64.59375 
L 19.828125 64.59375 
L 19.828125 46.734375 
Q 21.96875 47.46875 24.109375 47.828125 
Q 26.265625 48.1875 28.421875 48.1875 
Q 40.625 48.1875 47.75 41.5 
Q 54.890625 34.8125 54.890625 23.390625 
Q 54.890625 11.625 47.5625 5.09375 
Q 40.234375 -1.421875 26.90625 -1.421875 
Q 22.3125 -1.421875 17.546875 -0.640625 
Q 12.796875 0.140625 7.71875 1.703125 
L 7.71875 11.625 
Q 12.109375 9.234375 16.796875 8.0625 
Q 21.484375 6.890625 26.703125 6.890625 
Q 35.15625 6.890625 40.078125 11.328125 
Q 45.015625 15.765625 45.015625 23.390625 
Q 45.015625 31 40.078125 35.4375 
Q 35.15625 39.890625 26.703125 39.890625 
Q 22.75 39.890625 18.8125 39.015625 
Q 14.890625 38.140625 10.796875 36.28125 
z
" id="DejaVuSans-53"/>
       </defs>
       <use xlink:href="#DejaVuSans-48"/>
       <use x="63.623047" xlink:href="#DejaVuSans-46"/>
       <use x="95.410156" xlink:href="#DejaVuSans-48"/>
       <use x="159.033203" xlink:href="#DejaVuSans-48"/>
       <use x="222.65625" xlink:href="#DejaVuSans-48"/>
       <use x="286.279297" xlink:href="#DejaVuSans-53"/>
      </g>
     </g>
    </g>
    <g id="ytick_5">
     <g id="line2d_11">
      <g>
       <use style="stroke:#000000;stroke-width:0.8;" x="54" xlink:href="#m436be17b87" y="69.379472"/>
      </g>
     </g>
     <g id="text_12">
      <!-- 0.0006 -->
      <g transform="translate(12.009375 73.178691)scale(0.1 -0.1)">
       <use xlink:href="#DejaVuSans-48"/>
       <use x="63.623047" xlink:href="#DejaVuSans-46"/>
       <use x="95.410156" xlink:href="#DejaVuSans-48"/>
       <use x="159.033203" xlink:href="#DejaVuSans-48"/>
       <use x="222.65625" xlink:href="#DejaVuSans-48"/>
       <use x="286.279297" xlink:href="#DejaVuSans-54"/>
      </g>
     </g>
    </g>
    <g id="ytick_6">
     <g id="line2d_12">
      <g>
       <use style="stroke:#000000;stroke-width:0.8;" x="54" xlink:href="#m436be17b87" y="42.945657"/>
      </g>
     </g>
     <g id="text_13">
      <!-- 0.0007 -->
      <g transform="translate(12.009375 46.744875)scale(0.1 -0.1)">
       <defs>
        <path d="M 8.203125 72.90625 
L 55.078125 72.90625 
L 55.078125 68.703125 
L 28.609375 0 
L 18.3125 0 
L 43.21875 64.59375 
L 8.203125 64.59375 
z
" id="DejaVuSans-55"/>
       </defs>
       <use xlink:href="#DejaVuSans-48"/>
       <use x="63.623047" xlink:href="#DejaVuSans-46"/>
       <use x="95.410156" xlink:href="#DejaVuSans-48"/>
       <use x="159.033203" xlink:href="#DejaVuSans-48"/>
       <use x="222.65625" xlink:href="#DejaVuSans-48"/>
       <use x="286.279297" xlink:href="#DejaVuSans-55"/>
      </g>
     </g>
    </g>
    <g id="text_14">
     <!-- E[$\psi_p$] -->
     <g transform="translate(4.909375 120.21)rotate(-90)scale(0.1 -0.1)">
      <defs>
       <path d="M 9.8125 72.90625 
L 55.90625 72.90625 
L 55.90625 64.59375 
L 19.671875 64.59375 
L 19.671875 43.015625 
L 54.390625 43.015625 
L 54.390625 34.71875 
L 19.671875 34.71875 
L 19.671875 8.296875 
L 56.78125 8.296875 
L 56.78125 0 
L 9.8125 0 
z
" id="DejaVuSans-69"/>
       <path d="M 8.59375 75.984375 
L 29.296875 75.984375 
L 29.296875 69 
L 17.578125 69 
L 17.578125 -6.203125 
L 29.296875 -6.203125 
L 29.296875 -13.1875 
L 8.59375 -13.1875 
z
" id="DejaVuSans-91"/>
       <path d="M 24.859375 -1.21875 
Q 13.921875 0.59375 9.625 5.328125 
Q 4.34375 11.140625 6.640625 23 
L 12.796875 54.6875 
L 21.875 54.6875 
L 15.765625 23.34375 
Q 14.0625 14.40625 17.484375 10.6875 
Q 20.515625 7.46875 26.421875 6.78125 
L 35.6875 54.6875 
L 44.625 54.6875 
L 35.359375 6.84375 
Q 41.890625 7.515625 45.75 10.75 
Q 50.734375 14.84375 52.390625 23.390625 
L 58.453125 54.6875 
L 67.53125 54.6875 
L 61.375 23.046875 
Q 58.984375 10.75 51.5625 5.375 
Q 44.875 0.53125 33.796875 -1.171875 
L 29.984375 -20.796875 
L 21.046875 -20.796875 
z
" id="DejaVuSans-Oblique-968"/>
       <path d="M 49.609375 33.6875 
Q 49.609375 40.875 46.484375 44.671875 
Q 43.359375 48.484375 37.5 48.484375 
Q 33.5 48.484375 29.859375 46.4375 
Q 26.21875 44.390625 23.390625 40.484375 
Q 20.609375 36.625 18.9375 31.15625 
Q 17.28125 25.6875 17.28125 20.3125 
Q 17.28125 13.484375 20.40625 9.796875 
Q 23.53125 6.109375 29.296875 6.109375 
Q 33.546875 6.109375 37.1875 8.109375 
Q 40.828125 10.109375 43.40625 13.921875 
Q 46.1875 17.921875 47.890625 23.34375 
Q 49.609375 28.765625 49.609375 33.6875 
z
M 21.78125 46.390625 
Q 25.390625 51.125 30.296875 53.5625 
Q 35.203125 56 41.21875 56 
Q 49.609375 56 54.25 50.5 
Q 58.890625 45.015625 58.890625 35.109375 
Q 58.890625 27 56 19.65625 
Q 53.125 12.3125 47.703125 6.5 
Q 44.09375 2.640625 39.546875 0.609375 
Q 35.015625 -1.421875 29.984375 -1.421875 
Q 24.171875 -1.421875 20.21875 1 
Q 16.265625 3.421875 14.3125 8.203125 
L 8.6875 -20.796875 
L -0.296875 -20.796875 
L 14.40625 54.6875 
L 23.390625 54.6875 
z
" id="DejaVuSans-Oblique-112"/>
       <path d="M 30.421875 75.984375 
L 30.421875 -13.1875 
L 9.71875 -13.1875 
L 9.71875 -6.203125 
L 21.390625 -6.203125 
L 21.390625 69 
L 9.71875 69 
L 9.71875 75.984375 
z
" id="DejaVuSans-93"/>
      </defs>
      <use transform="translate(0 0.015625)" xlink:href="#DejaVuSans-69"/>
      <use transform="translate(63.183594 0.015625)" xlink:href="#DejaVuSans-91"/>
      <use transform="translate(102.197266 0.015625)" xlink:href="#DejaVuSans-Oblique-968"/>
      <use transform="translate(168.164062 -16.390625)scale(0.7)" xlink:href="#DejaVuSans-Oblique-112"/>
      <use transform="translate(215.332031 0.015625)" xlink:href="#DejaVuSans-93"/>
     </g>
    </g>
   </g>
   <g id="line2d_13">
    <path clip-path="url(#p1ea2e9b73b)" d="M 69.218182 181.266485 
L 70.132187 181.088179 
L 71.046192 180.643056 
L 71.960197 179.932732 
L 72.874201 178.959785 
L 74.092875 177.260241 
L 75.311548 175.111175 
L 76.530221 172.526467 
L 78.053563 168.708673 
L 79.576904 164.275059 
L 81.404914 158.205362 
L 83.537592 150.203746 
L 85.974939 140.04127 
L 89.021622 126.200051 
L 94.200983 101.282775 
L 98.466339 81.196045 
L 101.208354 69.28419 
L 103.341032 60.858871 
L 105.47371 53.34693 
L 107.30172 47.744582 
L 108.825061 43.726362 
L 110.348403 40.341195 
L 111.567076 38.111005 
L 112.785749 36.320704 
L 114.004423 34.981286 
L 114.918428 34.277663 
L 115.832432 33.834767 
L 116.746437 33.654122 
L 117.660442 33.736353 
L 118.574447 34.081175 
L 119.488452 34.687403 
L 120.402457 35.552947 
L 121.316462 36.674825 
L 122.535135 38.562583 
L 123.753808 40.887463 
L 125.27715 44.386206 
L 126.800491 48.511647 
L 128.628501 54.232782 
L 130.456511 60.718492 
L 132.589189 69.129226 
L 135.026536 79.654864 
L 138.377887 95.242758 
L 147.517936 138.542452 
L 149.955283 148.838235 
L 152.087961 156.98561 
L 153.915971 163.199599 
L 155.74398 168.607308 
L 157.267322 172.440665 
L 158.790663 175.620501 
L 160.009337 177.672032 
L 161.22801 179.271382 
L 162.142015 180.167828 
L 163.05602 180.800798 
L 163.970025 181.167995 
L 164.884029 181.268084 
L 165.798034 181.100704 
L 166.712039 180.666462 
L 167.626044 179.966933 
L 168.540049 179.004657 
L 169.758722 177.319081 
L 170.977396 175.183602 
L 172.196069 172.612015 
L 173.71941 168.809834 
L 175.242752 164.390811 
L 177.070762 158.337064 
L 179.20344 150.351619 
L 181.640786 140.204017 
L 184.382801 127.801475 
L 188.952826 105.889347 
L 193.827518 82.750326 
L 196.569533 70.709745 
L 199.00688 60.999043 
L 201.139558 53.469808 
L 202.967568 47.850757 
L 204.490909 43.817476 
L 206.014251 40.416369 
L 207.232924 38.172897 
L 208.451597 36.368934 
L 209.67027 35.015559 
L 210.584275 34.301325 
L 211.49828 33.847736 
L 212.412285 33.656354 
L 213.32629 33.72784 
L 214.240295 34.061947 
L 215.1543 34.657525 
L 216.068305 35.512523 
L 216.98231 36.623994 
L 218.200983 38.498156 
L 219.419656 40.809835 
L 220.942998 44.292759 
L 222.466339 48.403285 
L 224.294349 54.10792 
L 226.122359 60.578882 
L 228.255037 68.974912 
L 230.692383 79.487407 
L 234.043735 95.064223 
L 243.183784 138.37776 
L 245.62113 148.687784 
L 247.753808 156.85083 
L 249.581818 163.080391 
L 251.409828 168.505407 
L 252.93317 172.35433 
L 254.456511 175.550604 
L 255.675184 177.615802 
L 256.893857 179.229182 
L 257.807862 180.136334 
L 258.721867 180.780125 
L 259.635872 181.158216 
L 260.549877 181.269237 
L 261.463882 181.112783 
L 262.377887 180.689424 
L 263.291892 180.000694 
L 264.205897 179.049096 
L 265.42457 177.377498 
L 266.643243 175.25562 
L 267.861916 172.697169 
L 269.385258 168.910624 
L 270.9086 164.506217 
L 272.736609 158.468459 
L 274.869287 150.499232 
L 277.306634 140.366567 
L 280.048649 127.975786 
L 284.618673 106.070503 
L 289.493366 82.920869 
L 292.235381 70.866591 
L 294.672727 61.139494 
L 296.805405 53.59301 
L 298.633415 47.957289 
L 300.156757 43.908971 
L 301.680098 40.491942 
L 302.898771 38.235203 
L 304.117445 36.417588 
L 305.336118 35.050262 
L 306.250123 34.325422 
L 307.164128 33.861143 
L 308.078133 33.659026 
L 308.992138 33.719766 
L 309.906143 34.043155 
L 310.820147 34.628081 
L 311.734152 35.472528 
L 312.648157 36.573585 
L 313.86683 38.434139 
L 315.085504 40.732604 
L 316.304177 43.454832 
L 317.827518 47.427694 
L 319.35086 51.997832 
L 321.17887 58.20754 
L 323.311548 66.341238 
L 325.748894 76.616382 
L 328.795577 90.546335 
L 334.888943 119.887765 
L 338.544963 136.861398 
L 341.286978 148.537085 
L 343.419656 156.715752 
L 345.247666 162.960847 
L 347.075676 168.403136 
L 348.599017 172.267603 
L 350.122359 175.480296 
L 351.341032 177.559147 
L 352.559705 179.186547 
L 353.47371 180.1044 
L 354.387715 180.759007 
L 355.30172 181.147992 
L 356.215725 181.269942 
L 357.12973 181.124417 
L 358.043735 180.711942 
L 358.95774 180.034017 
L 359.871744 179.093101 
L 361.090418 177.435491 
L 362.309091 175.327228 
L 363.527764 172.781928 
L 365.051106 169.011041 
L 366.574447 164.621279 
L 368.402457 158.599546 
L 370.535135 150.646586 
L 372.972482 140.528918 
L 373.581818 137.856648 
L 373.581818 137.856648 
" style="fill:none;stroke:#4169e1;stroke-linecap:square;stroke-width:1.5;"/>
   </g>
   <g id="patch_3">
    <path d="M 54 189 
L 54 25.92 
" style="fill:none;stroke:#000000;stroke-linecap:square;stroke-linejoin:miter;stroke-width:0.8;"/>
   </g>
   <g id="patch_4">
    <path d="M 388.8 189 
L 388.8 25.92 
" style="fill:none;stroke:#000000;stroke-linecap:square;stroke-linejoin:miter;stroke-width:0.8;"/>
   </g>
   <g id="patch_5">
    <path d="M 54 189 
L 388.8 189 
" style="fill:none;stroke:#000000;stroke-linecap:square;stroke-linejoin:miter;stroke-width:0.8;"/>
   </g>
   <g id="patch_6">
    <path d="M 54 25.92 
L 388.8 25.92 
" style="fill:none;stroke:#000000;stroke-linecap:square;stroke-linejoin:miter;stroke-width:0.8;"/>
   </g>
   <g id="text_15">
    <!-- Nx = 10000, Nt = 1000, T = 20 -->
    <g transform="translate(126.709688 19.92)scale(0.12 -0.12)">
     <defs>
      <path d="M 9.8125 72.90625 
L 23.09375 72.90625 
L 55.421875 11.921875 
L 55.421875 72.90625 
L 64.984375 72.90625 
L 64.984375 0 
L 51.703125 0 
L 19.390625 60.984375 
L 19.390625 0 
L 9.8125 0 
z
" id="DejaVuSans-78"/>
      <path d="M 54.890625 54.6875 
L 35.109375 28.078125 
L 55.90625 0 
L 45.3125 0 
L 29.390625 21.484375 
L 13.484375 0 
L 2.875 0 
L 24.125 28.609375 
L 4.6875 54.6875 
L 15.28125 54.6875 
L 29.78125 35.203125 
L 44.28125 54.6875 
z
" id="DejaVuSans-120"/>
      <path id="DejaVuSans-32"/>
      <path d="M 10.59375 45.40625 
L 73.1875 45.40625 
L 73.1875 37.203125 
L 10.59375 37.203125 
z
M 10.59375 25.484375 
L 73.1875 25.484375 
L 73.1875 17.1875 
L 10.59375 17.1875 
z
" id="DejaVuSans-61"/>
      <path d="M 11.71875 12.40625 
L 22.015625 12.40625 
L 22.015625 4 
L 14.015625 -11.625 
L 7.71875 -11.625 
L 11.71875 4 
z
" id="DejaVuSans-44"/>
      <path d="M -0.296875 72.90625 
L 61.375 72.90625 
L 61.375 64.59375 
L 35.5 64.59375 
L 35.5 0 
L 25.59375 0 
L 25.59375 64.59375 
L -0.296875 64.59375 
z
" id="DejaVuSans-84"/>
     </defs>
     <use xlink:href="#DejaVuSans-78"/>
     <use x="74.804688" xlink:href="#DejaVuSans-120"/>
     <use x="133.984375" xlink:href="#DejaVuSans-32"/>
     <use x="165.771484" xlink:href="#DejaVuSans-61"/>
     <use x="249.560547" xlink:href="#DejaVuSans-32"/>
     <use x="281.347656" xlink:href="#DejaVuSans-49"/>
     <use x="344.970703" xlink:href="#DejaVuSans-48"/>
     <use x="408.59375" xlink:href="#DejaVuSans-48"/>
     <use x="472.216797" xlink:href="#DejaVuSans-48"/>
     <use x="535.839844" xlink:href="#DejaVuSans-48"/>
     <use x="599.462891" xlink:href="#DejaVuSans-44"/>
     <use x="631.25" xlink:href="#DejaVuSans-32"/>
     <use x="663.037109" xlink:href="#DejaVuSans-78"/>
     <use x="737.841797" xlink:href="#DejaVuSans-116"/>
     <use x="777.050781" xlink:href="#DejaVuSans-32"/>
     <use x="808.837891" xlink:href="#DejaVuSans-61"/>
     <use x="892.626953" xlink:href="#DejaVuSans-32"/>
     <use x="924.414062" xlink:href="#DejaVuSans-49"/>
     <use x="988.037109" xlink:href="#DejaVuSans-48"/>
     <use x="1051.660156" xlink:href="#DejaVuSans-48"/>
     <use x="1115.283203" xlink:href="#DejaVuSans-48"/>
     <use x="1178.90625" xlink:href="#DejaVuSans-44"/>
     <use x="1210.693359" xlink:href="#DejaVuSans-32"/>
     <use x="1242.480469" xlink:href="#DejaVuSans-84"/>
     <use x="1303.564453" xlink:href="#DejaVuSans-32"/>
     <use x="1335.351562" xlink:href="#DejaVuSans-61"/>
     <use x="1419.140625" xlink:href="#DejaVuSans-32"/>
     <use x="1450.927734" xlink:href="#DejaVuSans-50"/>
     <use x="1514.550781" xlink:href="#DejaVuSans-48"/>
    </g>
   </g>
  </g>
 </g>
 <defs>
  <clipPath id="p1ea2e9b73b">
   <rect height="163.08" width="334.8" x="54" y="25.92"/>
  </clipPath>
 </defs>
</svg>
