<?xml version="1.0" encoding="utf-8" standalone="no"?>
<!DOCTYPE svg PUBLIC "-//W3C//DTD SVG 1.1//EN"
  "http://www.w3.org/Graphics/SVG/1.1/DTD/svg11.dtd">
<!-- Created with matplotlib (https://matplotlib.org/) -->
<svg height="216pt" version="1.1" viewBox="0 0 432 216" width="432pt" xmlns="http://www.w3.org/2000/svg" xmlns:xlink="http://www.w3.org/1999/xlink">
 <metadata>
  <rdf:RDF xmlns:cc="http://creativecommons.org/ns#" xmlns:dc="http://purl.org/dc/elements/1.1/" xmlns:rdf="http://www.w3.org/1999/02/22-rdf-syntax-ns#">
   <cc:Work>
    <dc:type rdf:resource="http://purl.org/dc/dcmitype/StillImage"/>
    <dc:date>2021-11-28T14:29:40.889479</dc:date>
    <dc:format>image/svg+xml</dc:format>
    <dc:creator>
     <cc:Agent>
      <dc:title>Matplotlib v3.3.4, https://matplotlib.org/</dc:title>
     </cc:Agent>
    </dc:creator>
   </cc:Work>
  </rdf:RDF>
 </metadata>
 <defs>
  <style type="text/css">*{stroke-linecap:butt;stroke-linejoin:round;}</style>
 </defs>
 <g id="figure_1">
  <g id="patch_1">
   <path d="M 0 216 
L 432 216 
L 432 0 
L 0 0 
z
" style="fill:none;"/>
  </g>
  <g id="axes_1">
   <g id="patch_2">
    <path d="M 54 189 
L 388.8 189 
L 388.8 25.92 
L 54 25.92 
z
" style="fill:#ffffff;"/>
   </g>
   <g id="PolyCollection_1">
    <defs>
     <path d="M 69.218182 -34.412727 
L 69.218182 -34.581413 
L 69.52285 -34.583388 
L 69.827518 -34.587338 
L 70.132187 -34.593263 
L 70.436855 -34.601163 
L 70.741523 -34.611038 
L 71.046192 -34.622886 
L 71.35086 -34.636709 
L 71.655528 -34.652506 
L 71.960197 -34.670276 
L 72.264865 -34.690018 
L 72.569533 -34.711733 
L 72.874201 -34.73542 
L 73.17887 -34.761077 
L 73.483538 -34.788705 
L 73.788206 -34.818303 
L 74.092875 -34.84987 
L 74.397543 -34.883405 
L 74.702211 -34.918907 
L 75.00688 -34.956376 
L 75.311548 -34.99581 
L 75.616216 -35.037208 
L 75.920885 -35.080569 
L 76.225553 -35.125893 
L 76.530221 -35.173178 
L 76.834889 -35.222422 
L 77.139558 -35.273625 
L 77.444226 -35.326785 
L 77.748894 -35.381901 
L 78.053563 -35.438971 
L 78.358231 -35.497994 
L 78.662899 -35.558968 
L 78.967568 -35.621892 
L 79.272236 -35.686763 
L 79.576904 -35.753582 
L 79.881572 -35.822345 
L 80.186241 -35.89305 
L 80.490909 -35.965697 
L 80.795577 -36.040283 
L 81.100246 -36.116806 
L 81.404914 -36.195264 
L 81.709582 -36.275656 
L 82.014251 -36.357978 
L 82.318919 -36.442229 
L 82.623587 -36.528407 
L 82.928256 -36.616509 
L 83.232924 -36.706534 
L 83.537592 -36.798478 
L 83.84226 -36.892339 
L 84.146929 -36.988116 
L 84.451597 -37.085804 
L 84.756265 -37.185403 
L 85.060934 -37.286909 
L 85.365602 -37.390319 
L 85.67027 -37.495631 
L 85.974939 -37.602843 
L 86.279607 -37.71195 
L 86.584275 -37.822951 
L 86.888943 -37.935842 
L 87.193612 -38.050621 
L 87.49828 -38.167285 
L 87.802948 -38.285829 
L 88.107617 -38.406252 
L 88.412285 -38.528551 
L 88.716953 -38.652721 
L 89.021622 -38.77876 
L 89.32629 -38.906664 
L 89.630958 -39.03643 
L 89.935627 -39.168054 
L 90.240295 -39.301534 
L 90.544963 -39.436865 
L 90.849631 -39.574043 
L 91.1543 -39.713067 
L 91.458968 -39.85393 
L 91.763636 -39.996631 
L 92.068305 -40.141165 
L 92.372973 -40.287528 
L 92.677641 -40.435716 
L 92.98231 -40.585726 
L 93.286978 -40.737553 
L 93.591646 -40.891194 
L 93.896314 -41.046644 
L 94.200983 -41.203899 
L 94.505651 -41.362955 
L 94.810319 -41.523808 
L 95.114988 -41.686454 
L 95.419656 -41.850887 
L 95.724324 -42.017105 
L 96.028993 -42.185101 
L 96.333661 -42.354873 
L 96.638329 -42.526415 
L 96.942998 -42.699722 
L 97.247666 -42.874791 
L 97.552334 -43.051616 
L 97.857002 -43.230192 
L 98.161671 -43.410515 
L 98.466339 -43.592581 
L 98.771007 -43.776383 
L 99.075676 -43.961918 
L 99.380344 -44.14918 
L 99.685012 -44.338164 
L 99.989681 -44.528865 
L 100.294349 -44.721278 
L 100.599017 -44.915397 
L 100.903686 -45.111218 
L 101.208354 -45.308736 
L 101.513022 -45.507944 
L 101.81769 -45.708838 
L 102.122359 -45.911411 
L 102.427027 -46.11566 
L 102.731695 -46.321577 
L 103.036364 -46.529158 
L 103.341032 -46.738396 
L 103.6457 -46.949287 
L 103.950369 -47.161824 
L 104.255037 -47.376002 
L 104.559705 -47.591815 
L 104.864373 -47.809257 
L 105.169042 -48.028321 
L 105.47371 -48.249003 
L 105.778378 -48.471296 
L 106.083047 -48.695194 
L 106.387715 -48.92069 
L 106.692383 -49.14778 
L 106.997052 -49.376456 
L 107.30172 -49.606712 
L 107.606388 -49.838542 
L 107.911057 -50.07194 
L 108.215725 -50.306899 
L 108.520393 -50.543412 
L 108.825061 -50.781474 
L 109.12973 -51.021078 
L 109.434398 -51.262217 
L 109.739066 -51.504885 
L 110.043735 -51.749074 
L 110.348403 -51.994778 
L 110.653071 -52.241991 
L 110.95774 -52.490706 
L 111.262408 -52.740915 
L 111.567076 -52.992612 
L 111.871744 -53.24579 
L 112.176413 -53.500441 
L 112.481081 -53.75656 
L 112.785749 -54.014138 
L 113.090418 -54.273169 
L 113.395086 -54.533645 
L 113.699754 -54.79556 
L 114.004423 -55.058905 
L 114.309091 -55.323674 
L 114.613759 -55.589859 
L 114.918428 -55.857454 
L 115.223096 -56.126449 
L 115.527764 -56.396839 
L 115.832432 -56.668615 
L 116.137101 -56.94177 
L 116.441769 -57.216296 
L 116.746437 -57.492186 
L 117.051106 -57.769432 
L 117.355774 -58.048026 
L 117.660442 -58.327961 
L 117.965111 -58.609228 
L 118.269779 -58.891819 
L 118.574447 -59.175728 
L 118.879115 -59.460946 
L 119.183784 -59.747464 
L 119.488452 -60.035275 
L 119.79312 -60.324372 
L 120.097789 -60.614744 
L 120.402457 -60.906386 
L 120.707125 -61.199288 
L 121.011794 -61.493442 
L 121.316462 -61.788839 
L 121.62113 -62.085473 
L 121.925799 -62.383333 
L 122.230467 -62.682413 
L 122.535135 -62.982703 
L 122.839803 -63.284195 
L 123.144472 -63.58688 
L 123.44914 -63.890751 
L 123.753808 -64.195798 
L 124.058477 -64.502013 
L 124.363145 -64.809386 
L 124.667813 -65.117911 
L 124.972482 -65.427577 
L 125.27715 -65.738376 
L 125.581818 -66.050299 
L 125.886486 -66.363338 
L 126.191155 -66.677484 
L 126.495823 -66.992727 
L 126.800491 -67.309059 
L 127.10516 -67.62647 
L 127.409828 -67.944953 
L 127.714496 -68.264497 
L 128.019165 -68.585094 
L 128.323833 -68.906735 
L 128.628501 -69.22941 
L 128.93317 -69.553111 
L 129.237838 -69.877828 
L 129.542506 -70.203551 
L 129.847174 -70.530273 
L 130.151843 -70.857983 
L 130.456511 -71.186672 
L 130.761179 -71.516331 
L 131.065848 -71.846951 
L 131.370516 -72.178521 
L 131.675184 -72.511033 
L 131.979853 -72.844478 
L 132.284521 -73.178845 
L 132.589189 -73.514125 
L 132.893857 -73.850309 
L 133.198526 -74.187387 
L 133.503194 -74.52535 
L 133.807862 -74.864187 
L 134.112531 -75.20389 
L 134.417199 -75.544449 
L 134.721867 -75.885853 
L 135.026536 -76.228093 
L 135.331204 -76.57116 
L 135.635872 -76.915044 
L 135.940541 -77.259734 
L 136.245209 -77.605222 
L 136.549877 -77.951496 
L 136.854545 -78.298549 
L 137.159214 -78.646368 
L 137.463882 -78.994945 
L 137.76855 -79.34427 
L 138.073219 -79.694333 
L 138.377887 -80.045123 
L 138.682555 -80.396632 
L 138.987224 -80.748848 
L 139.291892 -81.101761 
L 139.59656 -81.455363 
L 139.901229 -81.809642 
L 140.205897 -82.164588 
L 140.510565 -82.520193 
L 140.815233 -82.876444 
L 141.119902 -83.233333 
L 141.42457 -83.590849 
L 141.729238 -83.948981 
L 142.033907 -84.307721 
L 142.338575 -84.667057 
L 142.643243 -85.026979 
L 142.947912 -85.387478 
L 143.25258 -85.748542 
L 143.557248 -86.110162 
L 143.861916 -86.472327 
L 144.166585 -86.835028 
L 144.471253 -87.198253 
L 144.775921 -87.561993 
L 145.08059 -87.926237 
L 145.385258 -88.290974 
L 145.689926 -88.656196 
L 145.994595 -89.02189 
L 146.299263 -89.388048 
L 146.603931 -89.754658 
L 146.9086 -90.12171 
L 147.213268 -90.489194 
L 147.517936 -90.857099 
L 147.822604 -91.225415 
L 148.127273 -91.594132 
L 148.431941 -91.963239 
L 148.736609 -92.332726 
L 149.041278 -92.702582 
L 149.345946 -93.072797 
L 149.650614 -93.44336 
L 149.955283 -93.814262 
L 150.259951 -94.185491 
L 150.564619 -94.557038 
L 150.869287 -94.928891 
L 151.173956 -95.301041 
L 151.478624 -95.673477 
L 151.783292 -96.046188 
L 152.087961 -96.419164 
L 152.392629 -96.792395 
L 152.697297 -97.16587 
L 153.001966 -97.539578 
L 153.306634 -97.91351 
L 153.611302 -98.287655 
L 153.915971 -98.662002 
L 154.220639 -99.036541 
L 154.525307 -99.411262 
L 154.829975 -99.786154 
L 155.134644 -100.161206 
L 155.439312 -100.536409 
L 155.74398 -100.911751 
L 156.048649 -101.287223 
L 156.353317 -101.662814 
L 156.657985 -102.038514 
L 156.962654 -102.414312 
L 157.267322 -102.790198 
L 157.57199 -103.166161 
L 157.876658 -103.542191 
L 158.181327 -103.918278 
L 158.485995 -104.294412 
L 158.790663 -104.670581 
L 159.095332 -105.046777 
L 159.4 -105.422987 
L 159.704668 -105.799203 
L 160.009337 -106.175414 
L 160.314005 -106.551609 
L 160.618673 -106.927778 
L 160.923342 -107.303911 
L 161.22801 -107.679998 
L 161.532678 -108.056029 
L 161.837346 -108.431992 
L 162.142015 -108.807879 
L 162.446683 -109.183678 
L 162.751351 -109.55938 
L 163.05602 -109.934975 
L 163.360688 -110.310452 
L 163.665356 -110.685801 
L 163.970025 -111.061012 
L 164.274693 -111.436075 
L 164.579361 -111.81098 
L 164.884029 -112.185717 
L 165.188698 -112.560276 
L 165.493366 -112.934646 
L 165.798034 -113.308818 
L 166.102703 -113.682782 
L 166.407371 -114.056527 
L 166.712039 -114.430044 
L 167.016708 -114.803324 
L 167.321376 -115.176355 
L 167.626044 -115.549128 
L 167.930713 -115.921633 
L 168.235381 -116.293861 
L 168.540049 -116.665802 
L 168.844717 -117.037445 
L 169.149386 -117.408781 
L 169.454054 -117.7798 
L 169.758722 -118.150493 
L 170.063391 -118.520849 
L 170.368059 -118.89086 
L 170.672727 -119.260515 
L 170.977396 -119.629805 
L 171.282064 -119.99872 
L 171.586732 -120.367251 
L 171.8914 -120.735388 
L 172.196069 -121.103121 
L 172.500737 -121.470442 
L 172.805405 -121.83734 
L 173.110074 -122.203806 
L 173.414742 -122.569832 
L 173.71941 -122.935406 
L 174.024079 -123.300521 
L 174.328747 -123.665166 
L 174.633415 -124.029332 
L 174.938084 -124.393011 
L 175.242752 -124.756193 
L 175.54742 -125.118868 
L 175.852088 -125.481028 
L 176.156757 -125.842663 
L 176.461425 -126.203765 
L 176.766093 -126.564324 
L 177.070762 -126.924331 
L 177.37543 -127.283777 
L 177.680098 -127.642653 
L 177.984767 -128.00095 
L 178.289435 -128.35866 
L 178.594103 -128.715773 
L 178.898771 -129.072281 
L 179.20344 -129.428174 
L 179.508108 -129.783444 
L 179.812776 -130.138083 
L 180.117445 -130.492081 
L 180.422113 -130.84543 
L 180.726781 -131.198121 
L 181.03145 -131.550146 
L 181.336118 -131.901495 
L 181.640786 -132.252162 
L 181.945455 -132.602136 
L 182.250123 -132.951409 
L 182.554791 -133.299974 
L 182.859459 -133.647821 
L 183.164128 -133.994943 
L 183.468796 -134.341331 
L 183.773464 -134.686977 
L 184.078133 -135.031872 
L 184.382801 -135.376008 
L 184.687469 -135.719378 
L 184.992138 -136.061972 
L 185.296806 -136.403784 
L 185.601474 -136.744804 
L 185.906143 -137.085026 
L 186.210811 -137.42444 
L 186.515479 -137.763039 
L 186.820147 -138.100816 
L 187.124816 -138.437761 
L 187.429484 -138.773868 
L 187.734152 -139.109129 
L 188.038821 -139.443536 
L 188.343489 -139.777081 
L 188.648157 -140.109756 
L 188.952826 -140.441555 
L 189.257494 -140.772469 
L 189.562162 -141.10249 
L 189.86683 -141.431613 
L 190.171499 -141.759828 
L 190.476167 -142.087128 
L 190.780835 -142.413507 
L 191.085504 -142.738957 
L 191.390172 -143.06347 
L 191.69484 -143.387039 
L 191.999509 -143.709658 
L 192.304177 -144.031318 
L 192.608845 -144.352013 
L 192.913514 -144.671736 
L 193.218182 -144.99048 
L 193.52285 -145.308238 
L 193.827518 -145.625002 
L 194.132187 -145.940766 
L 194.436855 -146.255523 
L 194.741523 -146.569266 
L 195.046192 -146.881989 
L 195.35086 -147.193684 
L 195.655528 -147.504345 
L 195.960197 -147.813966 
L 196.264865 -148.122539 
L 196.569533 -148.430058 
L 196.874201 -148.736517 
L 197.17887 -149.041909 
L 197.483538 -149.346227 
L 197.788206 -149.649466 
L 198.092875 -149.951619 
L 198.397543 -150.252679 
L 198.702211 -150.55264 
L 199.00688 -150.851497 
L 199.311548 -151.149242 
L 199.616216 -151.44587 
L 199.920885 -151.741375 
L 200.225553 -152.035751 
L 200.530221 -152.32899 
L 200.834889 -152.621089 
L 201.139558 -152.91204 
L 201.444226 -153.201838 
L 201.748894 -153.490476 
L 202.053563 -153.77795 
L 202.358231 -154.064253 
L 202.662899 -154.34938 
L 202.967568 -154.633324 
L 203.272236 -154.916081 
L 203.576904 -155.197644 
L 203.881572 -155.478009 
L 204.186241 -155.757169 
L 204.490909 -156.03512 
L 204.795577 -156.311855 
L 205.100246 -156.587369 
L 205.404914 -156.861658 
L 205.709582 -157.134715 
L 206.014251 -157.406535 
L 206.318919 -157.677114 
L 206.623587 -157.946446 
L 206.928256 -158.214526 
L 207.232924 -158.481348 
L 207.537592 -158.746908 
L 207.84226 -159.011201 
L 208.146929 -159.274222 
L 208.451597 -159.535966 
L 208.756265 -159.796428 
L 209.060934 -160.055602 
L 209.365602 -160.313485 
L 209.67027 -160.570072 
L 209.974939 -160.825357 
L 210.279607 -161.079337 
L 210.584275 -161.332006 
L 210.888943 -161.58336 
L 211.193612 -161.833394 
L 211.49828 -162.082104 
L 211.802948 -162.329486 
L 212.107617 -162.575534 
L 212.412285 -162.820245 
L 212.716953 -163.063614 
L 213.021622 -163.305636 
L 213.32629 -163.546309 
L 213.630958 -163.785626 
L 213.935627 -164.023584 
L 214.240295 -164.26018 
L 214.544963 -164.495408 
L 214.849631 -164.729264 
L 215.1543 -164.961746 
L 215.458968 -165.192848 
L 215.763636 -165.422566 
L 216.068305 -165.650897 
L 216.372973 -165.877837 
L 216.677641 -166.103382 
L 216.98231 -166.327528 
L 217.286978 -166.550271 
L 217.591646 -166.771608 
L 217.896314 -166.991534 
L 218.200983 -167.210047 
L 218.505651 -167.427142 
L 218.810319 -167.642816 
L 219.114988 -167.857066 
L 219.419656 -168.069887 
L 219.724324 -168.281277 
L 220.028993 -168.491231 
L 220.333661 -168.699747 
L 220.638329 -168.906821 
L 220.942998 -169.112449 
L 221.247666 -169.316629 
L 221.552334 -169.519357 
L 221.857002 -169.72063 
L 222.161671 -169.920445 
L 222.466339 -170.118798 
L 222.771007 -170.315686 
L 223.075676 -170.511107 
L 223.380344 -170.705056 
L 223.685012 -170.897532 
L 223.989681 -171.088531 
L 224.294349 -171.27805 
L 224.599017 -171.466086 
L 224.903686 -171.652636 
L 225.208354 -171.837698 
L 225.513022 -172.021268 
L 225.81769 -172.203344 
L 226.122359 -172.383924 
L 226.427027 -172.563003 
L 226.731695 -172.74058 
L 227.036364 -172.916651 
L 227.341032 -173.091215 
L 227.6457 -173.264269 
L 227.950369 -173.435809 
L 228.255037 -173.605834 
L 228.559705 -173.774341 
L 228.864373 -173.941327 
L 229.169042 -174.106791 
L 229.47371 -174.270729 
L 229.778378 -174.433139 
L 230.083047 -174.594018 
L 230.387715 -174.753366 
L 230.692383 -174.911178 
L 230.997052 -175.067454 
L 231.30172 -175.222189 
L 231.606388 -175.375384 
L 231.911057 -175.527034 
L 232.215725 -175.677139 
L 232.520393 -175.825696 
L 232.825061 -175.972702 
L 233.12973 -176.118156 
L 233.434398 -176.262056 
L 233.739066 -176.404399 
L 234.043735 -176.545185 
L 234.348403 -176.68441 
L 234.653071 -176.822072 
L 234.95774 -176.958171 
L 235.262408 -177.092704 
L 235.567076 -177.225669 
L 235.871744 -177.357064 
L 236.176413 -177.486888 
L 236.481081 -177.615138 
L 236.785749 -177.741814 
L 237.090418 -177.866913 
L 237.395086 -177.990433 
L 237.699754 -178.112374 
L 238.004423 -178.232733 
L 238.309091 -178.351508 
L 238.613759 -178.468699 
L 238.918428 -178.584303 
L 239.223096 -178.69832 
L 239.527764 -178.810746 
L 239.832432 -178.921582 
L 240.137101 -179.030826 
L 240.441769 -179.138475 
L 240.746437 -179.24453 
L 241.051106 -179.348987 
L 241.355774 -179.451847 
L 241.660442 -179.553107 
L 241.965111 -179.652766 
L 242.269779 -179.750824 
L 242.574447 -179.847278 
L 242.879115 -179.942128 
L 243.183784 -180.035372 
L 243.488452 -180.12701 
L 243.79312 -180.217039 
L 244.097789 -180.305459 
L 244.402457 -180.392268 
L 244.707125 -180.477467 
L 245.011794 -180.561052 
L 245.316462 -180.643024 
L 245.62113 -180.723382 
L 245.925799 -180.802124 
L 246.230467 -180.879249 
L 246.535135 -180.954756 
L 246.839803 -181.028645 
L 247.144472 -181.100915 
L 247.44914 -181.171564 
L 247.753808 -181.240592 
L 248.058477 -181.307998 
L 248.363145 -181.373781 
L 248.667813 -181.43794 
L 248.972482 -181.500475 
L 249.27715 -181.561384 
L 249.581818 -181.620668 
L 249.886486 -181.678324 
L 250.191155 -181.734353 
L 250.495823 -181.788754 
L 250.800491 -181.841526 
L 251.10516 -181.892668 
L 251.409828 -181.94218 
L 251.714496 -181.990062 
L 252.019165 -182.036312 
L 252.323833 -182.080931 
L 252.628501 -182.123917 
L 252.93317 -182.165269 
L 253.237838 -182.204989 
L 253.542506 -182.243075 
L 253.847174 -182.279526 
L 254.151843 -182.314342 
L 254.456511 -182.347523 
L 254.761179 -182.379069 
L 255.065848 -182.408978 
L 255.370516 -182.437251 
L 255.675184 -182.463888 
L 255.979853 -182.488887 
L 256.284521 -182.512249 
L 256.589189 -182.533973 
L 256.893857 -182.55406 
L 257.198526 -182.572508 
L 257.503194 -182.589318 
L 257.807862 -182.604489 
L 258.112531 -182.618022 
L 258.417199 -182.629915 
L 258.721867 -182.64017 
L 259.026536 -182.648786 
L 259.331204 -182.655762 
L 259.635872 -182.661099 
L 259.940541 -182.664796 
L 260.245209 -182.666854 
L 260.549877 -182.667273 
L 260.854545 -182.666052 
L 261.159214 -182.663191 
L 261.463882 -182.658691 
L 261.76855 -182.652552 
L 262.073219 -182.644774 
L 262.377887 -182.635356 
L 262.682555 -182.624299 
L 262.987224 -182.611603 
L 263.291892 -182.597268 
L 263.59656 -182.581295 
L 263.901229 -182.563683 
L 264.205897 -182.544433 
L 264.510565 -182.523545 
L 264.815233 -182.501019 
L 265.119902 -182.476856 
L 265.42457 -182.451055 
L 265.729238 -182.423617 
L 266.033907 -182.394543 
L 266.338575 -182.363833 
L 266.643243 -182.331487 
L 266.947912 -182.297505 
L 267.25258 -182.261889 
L 267.557248 -182.224638 
L 267.861916 -182.185752 
L 268.166585 -182.145233 
L 268.471253 -182.103081 
L 268.775921 -182.059296 
L 269.08059 -182.013879 
L 269.385258 -181.96683 
L 269.689926 -181.91815 
L 269.994595 -181.86784 
L 270.299263 -181.8159 
L 270.603931 -181.76233 
L 270.9086 -181.707132 
L 271.213268 -181.650307 
L 271.517936 -181.591854 
L 271.822604 -181.531775 
L 272.127273 -181.47007 
L 272.431941 -181.40674 
L 272.736609 -181.341785 
L 273.041278 -181.275208 
L 273.345946 -181.207008 
L 273.650614 -181.137186 
L 273.955283 -181.065744 
L 274.259951 -180.992681 
L 274.564619 -180.918 
L 274.869287 -180.8417 
L 275.173956 -180.763784 
L 275.478624 -180.684251 
L 275.783292 -180.603103 
L 276.087961 -180.520341 
L 276.392629 -180.435966 
L 276.697297 -180.349979 
L 277.001966 -180.26238 
L 277.306634 -180.173173 
L 277.611302 -180.082356 
L 277.915971 -179.989932 
L 278.220639 -179.895902 
L 278.525307 -179.800266 
L 278.829975 -179.703027 
L 279.134644 -179.604185 
L 279.439312 -179.503742 
L 279.74398 -179.401698 
L 280.048649 -179.298056 
L 280.353317 -179.192817 
L 280.657985 -179.085981 
L 280.962654 -178.977551 
L 281.267322 -178.867528 
L 281.57199 -178.755913 
L 281.876658 -178.642708 
L 282.181327 -178.527914 
L 282.485995 -178.411533 
L 282.790663 -178.293566 
L 283.095332 -178.174015 
L 283.4 -178.052882 
L 283.704668 -177.930168 
L 284.009337 -177.805874 
L 284.314005 -177.680003 
L 284.618673 -177.552556 
L 284.923342 -177.423535 
L 285.22801 -177.292942 
L 285.532678 -177.160778 
L 285.837346 -177.027045 
L 286.142015 -176.891745 
L 286.446683 -176.754881 
L 286.751351 -176.616453 
L 287.05602 -176.476464 
L 287.360688 -176.334915 
L 287.665356 -176.191809 
L 287.970025 -176.047148 
L 288.274693 -175.900934 
L 288.579361 -175.753168 
L 288.884029 -175.603853 
L 289.188698 -175.452991 
L 289.493366 -175.300585 
L 289.798034 -175.146635 
L 290.102703 -174.991145 
L 290.407371 -174.834117 
L 290.712039 -174.675552 
L 291.016708 -174.515454 
L 291.321376 -174.353825 
L 291.626044 -174.190666 
L 291.930713 -174.025981 
L 292.235381 -173.859772 
L 292.540049 -173.692041 
L 292.844717 -173.52279 
L 293.149386 -173.352023 
L 293.454054 -173.179741 
L 293.758722 -173.005947 
L 294.063391 -172.830645 
L 294.368059 -172.653836 
L 294.672727 -172.475523 
L 294.977396 -172.295708 
L 295.282064 -172.114396 
L 295.586732 -171.931588 
L 295.8914 -171.747286 
L 296.196069 -171.561495 
L 296.500737 -171.374217 
L 296.805405 -171.185454 
L 297.110074 -170.99521 
L 297.414742 -170.803487 
L 297.71941 -170.610289 
L 298.024079 -170.415619 
L 298.328747 -170.219479 
L 298.633415 -170.021873 
L 298.938084 -169.822804 
L 299.242752 -169.622275 
L 299.54742 -169.420289 
L 299.852088 -169.216849 
L 300.156757 -169.011959 
L 300.461425 -168.805622 
L 300.766093 -168.597842 
L 301.070762 -168.388621 
L 301.37543 -168.177963 
L 301.680098 -167.965871 
L 301.984767 -167.75235 
L 302.289435 -167.537402 
L 302.594103 -167.321032 
L 302.898771 -167.103242 
L 303.20344 -166.884036 
L 303.508108 -166.663418 
L 303.812776 -166.441392 
L 304.117445 -166.217961 
L 304.422113 -165.993129 
L 304.726781 -165.766901 
L 305.03145 -165.539279 
L 305.336118 -165.310267 
L 305.640786 -165.079871 
L 305.945455 -164.848092 
L 306.250123 -164.614937 
L 306.554791 -164.380408 
L 306.859459 -164.144509 
L 307.164128 -163.907246 
L 307.468796 -163.668621 
L 307.773464 -163.428639 
L 308.078133 -163.187305 
L 308.382801 -162.944622 
L 308.687469 -162.700595 
L 308.992138 -162.455228 
L 309.296806 -162.208526 
L 309.601474 -161.960493 
L 309.906143 -161.711134 
L 310.210811 -161.460452 
L 310.515479 -161.208453 
L 310.820147 -160.955142 
L 311.124816 -160.700522 
L 311.429484 -160.444598 
L 311.734152 -160.187375 
L 312.038821 -159.928859 
L 312.343489 -159.669053 
L 312.648157 -159.407962 
L 312.952826 -159.145592 
L 313.257494 -158.881947 
L 313.562162 -158.617033 
L 313.86683 -158.350853 
L 314.171499 -158.083414 
L 314.476167 -157.81472 
L 314.780835 -157.544776 
L 315.085504 -157.273588 
L 315.390172 -157.001161 
L 315.69484 -156.7275 
L 315.999509 -156.45261 
L 316.304177 -156.176496 
L 316.608845 -155.899165 
L 316.913514 -155.620621 
L 317.218182 -155.34087 
L 317.52285 -155.059917 
L 317.827518 -154.777768 
L 318.132187 -154.494428 
L 318.436855 -154.209903 
L 318.741523 -153.924199 
L 319.046192 -153.637322 
L 319.35086 -153.349276 
L 319.655528 -153.060069 
L 319.960197 -152.769705 
L 320.264865 -152.478191 
L 320.569533 -152.185532 
L 320.874201 -151.891735 
L 321.17887 -151.596805 
L 321.483538 -151.300749 
L 321.788206 -151.003572 
L 322.092875 -150.705281 
L 322.397543 -150.405882 
L 322.702211 -150.105381 
L 323.00688 -149.803785 
L 323.311548 -149.501099 
L 323.616216 -149.19733 
L 323.920885 -148.892484 
L 324.225553 -148.586569 
L 324.530221 -148.279589 
L 324.834889 -147.971552 
L 325.139558 -147.662465 
L 325.444226 -147.352333 
L 325.748894 -147.041164 
L 326.053563 -146.728964 
L 326.358231 -146.415741 
L 326.662899 -146.101499 
L 326.967568 -145.786248 
L 327.272236 -145.469992 
L 327.576904 -145.15274 
L 327.881572 -144.834498 
L 328.186241 -144.515273 
L 328.490909 -144.195073 
L 328.795577 -143.873903 
L 329.100246 -143.551772 
L 329.404914 -143.228686 
L 329.709582 -142.904653 
L 330.014251 -142.57968 
L 330.318919 -142.253774 
L 330.623587 -141.926942 
L 330.928256 -141.599192 
L 331.232924 -141.270531 
L 331.537592 -140.940967 
L 331.84226 -140.610507 
L 332.146929 -140.279158 
L 332.451597 -139.946928 
L 332.756265 -139.613825 
L 333.060934 -139.279857 
L 333.365602 -138.94503 
L 333.67027 -138.609353 
L 333.974939 -138.272834 
L 334.279607 -137.93548 
L 334.584275 -137.597299 
L 334.888943 -137.258299 
L 335.193612 -136.918488 
L 335.49828 -136.577873 
L 335.802948 -136.236464 
L 336.107617 -135.894267 
L 336.412285 -135.551291 
L 336.716953 -135.207544 
L 337.021622 -134.863035 
L 337.32629 -134.51777 
L 337.630958 -134.17176 
L 337.935627 -133.825011 
L 338.240295 -133.477532 
L 338.544963 -133.129331 
L 338.849631 -132.780418 
L 339.1543 -132.430799 
L 339.458968 -132.080485 
L 339.763636 -131.729482 
L 340.068305 -131.3778 
L 340.372973 -131.025447 
L 340.677641 -130.672432 
L 340.98231 -130.318764 
L 341.286978 -129.96445 
L 341.591646 -129.609501 
L 341.896314 -129.253923 
L 342.200983 -128.897727 
L 342.505651 -128.540922 
L 342.810319 -128.183515 
L 343.114988 -127.825515 
L 343.419656 -127.466933 
L 343.724324 -127.107776 
L 344.028993 -126.748053 
L 344.333661 -126.387774 
L 344.638329 -126.026948 
L 344.942998 -125.665583 
L 345.247666 -125.303689 
L 345.552334 -124.941275 
L 345.857002 -124.57835 
L 346.161671 -124.214923 
L 346.466339 -123.851004 
L 346.771007 -123.486601 
L 347.075676 -123.121724 
L 347.380344 -122.756383 
L 347.685012 -122.390586 
L 347.989681 -122.024343 
L 348.294349 -121.657663 
L 348.599017 -121.290556 
L 348.903686 -120.923032 
L 349.208354 -120.555099 
L 349.513022 -120.186767 
L 349.81769 -119.818047 
L 350.122359 -119.448946 
L 350.427027 -119.079476 
L 350.731695 -118.709645 
L 351.036364 -118.339463 
L 351.341032 -117.96894 
L 351.6457 -117.598085 
L 351.950369 -117.226909 
L 352.255037 -116.855421 
L 352.559705 -116.483631 
L 352.864373 -116.111548 
L 353.169042 -115.739182 
L 353.47371 -115.366544 
L 353.778378 -114.993642 
L 354.083047 -114.620488 
L 354.387715 -114.247091 
L 354.692383 -113.87346 
L 354.997052 -113.499606 
L 355.30172 -113.125538 
L 355.606388 -112.751267 
L 355.911057 -112.376803 
L 356.215725 -112.002155 
L 356.520393 -111.627335 
L 356.825061 -111.25235 
L 357.12973 -110.877213 
L 357.434398 -110.501933 
L 357.739066 -110.126519 
L 358.043735 -109.750983 
L 358.348403 -109.375334 
L 358.653071 -108.999583 
L 358.95774 -108.623739 
L 359.262408 -108.247813 
L 359.567076 -107.871815 
L 359.871744 -107.495755 
L 360.176413 -107.119644 
L 360.481081 -106.743491 
L 360.785749 -106.367307 
L 361.090418 -105.991103 
L 361.395086 -105.614888 
L 361.699754 -105.238673 
L 362.004423 -104.862469 
L 362.309091 -104.486284 
L 362.613759 -104.110131 
L 362.918428 -103.734018 
L 363.223096 -103.357957 
L 363.527764 -102.981958 
L 363.832432 -102.606031 
L 364.137101 -102.230187 
L 364.441769 -101.854436 
L 364.746437 -101.478788 
L 365.051106 -101.103253 
L 365.355774 -100.727843 
L 365.660442 -100.352567 
L 365.965111 -99.977437 
L 366.269779 -99.602461 
L 366.574447 -99.227652 
L 366.879115 -98.853018 
L 367.183784 -98.478572 
L 367.488452 -98.104322 
L 367.79312 -97.73028 
L 368.097789 -97.356456 
L 368.402457 -96.98286 
L 368.707125 -96.609503 
L 369.011794 -96.236396 
L 369.316462 -95.863548 
L 369.62113 -95.49097 
L 369.925799 -95.118673 
L 370.230467 -94.746667 
L 370.535135 -94.374962 
L 370.839803 -94.003569 
L 371.144472 -93.632499 
L 371.44914 -93.261762 
L 371.753808 -92.891367 
L 372.058477 -92.521326 
L 372.363145 -92.15165 
L 372.667813 -91.782347 
L 372.972482 -91.41343 
L 373.27715 -91.044908 
L 373.581818 -90.676792 
L 373.581818 -90.508098 
L 373.581818 -90.508098 
L 373.27715 -90.876215 
L 372.972482 -91.244737 
L 372.667813 -91.613654 
L 372.363145 -91.982956 
L 372.058477 -92.352633 
L 371.753808 -92.722674 
L 371.44914 -93.093068 
L 371.144472 -93.463805 
L 370.839803 -93.834876 
L 370.535135 -94.206269 
L 370.230467 -94.577973 
L 369.925799 -94.949979 
L 369.62113 -95.322276 
L 369.316462 -95.694854 
L 369.011794 -96.067702 
L 368.707125 -96.44081 
L 368.402457 -96.814166 
L 368.097789 -97.187762 
L 367.79312 -97.561586 
L 367.488452 -97.935628 
L 367.183784 -98.309878 
L 366.879115 -98.684325 
L 366.574447 -99.058958 
L 366.269779 -99.433767 
L 365.965111 -99.808743 
L 365.660442 -100.183873 
L 365.355774 -100.559149 
L 365.051106 -100.934559 
L 364.746437 -101.310094 
L 364.441769 -101.685742 
L 364.137101 -102.061493 
L 363.832432 -102.437337 
L 363.527764 -102.813264 
L 363.223096 -103.189263 
L 362.918428 -103.565324 
L 362.613759 -103.941437 
L 362.309091 -104.31759 
L 362.004423 -104.693775 
L 361.699754 -105.069979 
L 361.395086 -105.446194 
L 361.090418 -105.822409 
L 360.785749 -106.198613 
L 360.481081 -106.574797 
L 360.176413 -106.950949 
L 359.871744 -107.327061 
L 359.567076 -107.703121 
L 359.262408 -108.079119 
L 358.95774 -108.455045 
L 358.653071 -108.830888 
L 358.348403 -109.20664 
L 358.043735 -109.582289 
L 357.739066 -109.957825 
L 357.434398 -110.333238 
L 357.12973 -110.708519 
L 356.825061 -111.083656 
L 356.520393 -111.45864 
L 356.215725 -111.833461 
L 355.911057 -112.208109 
L 355.606388 -112.582573 
L 355.30172 -112.956844 
L 354.997052 -113.330911 
L 354.692383 -113.704766 
L 354.387715 -114.078396 
L 354.083047 -114.451794 
L 353.778378 -114.824948 
L 353.47371 -115.19785 
L 353.169042 -115.570488 
L 352.864373 -115.942853 
L 352.559705 -116.314936 
L 352.255037 -116.686727 
L 351.950369 -117.058215 
L 351.6457 -117.429391 
L 351.341032 -117.800246 
L 351.036364 -118.170769 
L 350.731695 -118.54095 
L 350.427027 -118.910781 
L 350.122359 -119.280252 
L 349.81769 -119.649352 
L 349.513022 -120.018073 
L 349.208354 -120.386405 
L 348.903686 -120.754338 
L 348.599017 -121.121862 
L 348.294349 -121.488969 
L 347.989681 -121.855649 
L 347.685012 -122.221892 
L 347.380344 -122.587689 
L 347.075676 -122.95303 
L 346.771007 -123.317907 
L 346.466339 -123.68231 
L 346.161671 -124.046229 
L 345.857002 -124.409656 
L 345.552334 -124.772581 
L 345.247666 -125.134995 
L 344.942998 -125.496889 
L 344.638329 -125.858254 
L 344.333661 -126.21908 
L 344.028993 -126.579359 
L 343.724324 -126.939082 
L 343.419656 -127.298239 
L 343.114988 -127.656821 
L 342.810319 -128.014821 
L 342.505651 -128.372228 
L 342.200983 -128.729034 
L 341.896314 -129.08523 
L 341.591646 -129.440807 
L 341.286978 -129.795757 
L 340.98231 -130.15007 
L 340.677641 -130.503739 
L 340.372973 -130.856754 
L 340.068305 -131.209106 
L 339.763636 -131.560788 
L 339.458968 -131.911791 
L 339.1543 -132.262106 
L 338.849631 -132.611724 
L 338.544963 -132.960638 
L 338.240295 -133.308838 
L 337.935627 -133.656317 
L 337.630958 -134.003066 
L 337.32629 -134.349077 
L 337.021622 -134.694341 
L 336.716953 -135.038851 
L 336.412285 -135.382598 
L 336.107617 -135.725574 
L 335.802948 -136.067771 
L 335.49828 -136.40918 
L 335.193612 -136.749795 
L 334.888943 -137.089606 
L 334.584275 -137.428606 
L 334.279607 -137.766787 
L 333.974939 -138.104141 
L 333.67027 -138.44066 
L 333.365602 -138.776337 
L 333.060934 -139.111164 
L 332.756265 -139.445132 
L 332.451597 -139.778235 
L 332.146929 -140.110465 
L 331.84226 -140.441814 
L 331.537592 -140.772274 
L 331.232924 -141.101838 
L 330.928256 -141.430499 
L 330.623587 -141.758249 
L 330.318919 -142.085081 
L 330.014251 -142.410987 
L 329.709582 -142.735961 
L 329.404914 -143.059994 
L 329.100246 -143.383079 
L 328.795577 -143.705211 
L 328.490909 -144.02638 
L 328.186241 -144.346581 
L 327.881572 -144.665806 
L 327.576904 -144.984048 
L 327.272236 -145.3013 
L 326.967568 -145.617555 
L 326.662899 -145.932807 
L 326.358231 -146.247048 
L 326.053563 -146.560272 
L 325.748894 -146.872472 
L 325.444226 -147.183641 
L 325.139558 -147.493773 
L 324.834889 -147.80286 
L 324.530221 -148.110897 
L 324.225553 -148.417877 
L 323.920885 -148.723793 
L 323.616216 -149.028638 
L 323.311548 -149.332407 
L 323.00688 -149.635093 
L 322.702211 -149.93669 
L 322.397543 -150.237191 
L 322.092875 -150.53659 
L 321.788206 -150.834881 
L 321.483538 -151.132057 
L 321.17887 -151.428114 
L 320.874201 -151.723043 
L 320.569533 -152.016841 
L 320.264865 -152.309499 
L 319.960197 -152.601013 
L 319.655528 -152.891377 
L 319.35086 -153.180585 
L 319.046192 -153.46863 
L 318.741523 -153.755508 
L 318.436855 -154.041212 
L 318.132187 -154.325737 
L 317.827518 -154.609076 
L 317.52285 -154.891226 
L 317.218182 -155.172179 
L 316.913514 -155.45193 
L 316.608845 -155.730474 
L 316.304177 -156.007805 
L 315.999509 -156.283919 
L 315.69484 -156.558809 
L 315.390172 -156.83247 
L 315.085504 -157.104897 
L 314.780835 -157.376085 
L 314.476167 -157.646029 
L 314.171499 -157.914723 
L 313.86683 -158.182162 
L 313.562162 -158.448342 
L 313.257494 -158.713257 
L 312.952826 -158.976902 
L 312.648157 -159.239272 
L 312.343489 -159.500362 
L 312.038821 -159.760168 
L 311.734152 -160.018685 
L 311.429484 -160.275908 
L 311.124816 -160.531831 
L 310.820147 -160.786451 
L 310.515479 -161.039763 
L 310.210811 -161.291762 
L 309.906143 -161.542444 
L 309.601474 -161.791803 
L 309.296806 -162.039836 
L 308.992138 -162.286538 
L 308.687469 -162.531905 
L 308.382801 -162.775932 
L 308.078133 -163.018615 
L 307.773464 -163.259949 
L 307.468796 -163.499931 
L 307.164128 -163.738556 
L 306.859459 -163.97582 
L 306.554791 -164.211718 
L 306.250123 -164.446247 
L 305.945455 -164.679403 
L 305.640786 -164.911181 
L 305.336118 -165.141578 
L 305.03145 -165.370589 
L 304.726781 -165.598211 
L 304.422113 -165.82444 
L 304.117445 -166.049272 
L 303.812776 -166.272703 
L 303.508108 -166.494729 
L 303.20344 -166.715347 
L 302.898771 -166.934553 
L 302.594103 -167.152343 
L 302.289435 -167.368713 
L 301.984767 -167.583661 
L 301.680098 -167.797183 
L 301.37543 -168.009274 
L 301.070762 -168.219932 
L 300.766093 -168.429153 
L 300.461425 -168.636933 
L 300.156757 -168.84327 
L 299.852088 -169.04816 
L 299.54742 -169.2516 
L 299.242752 -169.453586 
L 298.938084 -169.654115 
L 298.633415 -169.853185 
L 298.328747 -170.050791 
L 298.024079 -170.246931 
L 297.71941 -170.441601 
L 297.414742 -170.634799 
L 297.110074 -170.826522 
L 296.805405 -171.016766 
L 296.500737 -171.205529 
L 296.196069 -171.392807 
L 295.8914 -171.578598 
L 295.586732 -171.7629 
L 295.282064 -171.945708 
L 294.977396 -172.127021 
L 294.672727 -172.306835 
L 294.368059 -172.485148 
L 294.063391 -172.661957 
L 293.758722 -172.83726 
L 293.454054 -173.011053 
L 293.149386 -173.183335 
L 292.844717 -173.354102 
L 292.540049 -173.523353 
L 292.235381 -173.691084 
L 291.930713 -173.857294 
L 291.626044 -174.021979 
L 291.321376 -174.185137 
L 291.016708 -174.346767 
L 290.712039 -174.506865 
L 290.407371 -174.665429 
L 290.102703 -174.822458 
L 289.798034 -174.977948 
L 289.493366 -175.131897 
L 289.188698 -175.284304 
L 288.884029 -175.435166 
L 288.579361 -175.584481 
L 288.274693 -175.732247 
L 287.970025 -175.878461 
L 287.665356 -176.023122 
L 287.360688 -176.166228 
L 287.05602 -176.307777 
L 286.751351 -176.447766 
L 286.446683 -176.586194 
L 286.142015 -176.723058 
L 285.837346 -176.858358 
L 285.532678 -176.992091 
L 285.22801 -177.124255 
L 284.923342 -177.254848 
L 284.618673 -177.383869 
L 284.314005 -177.511316 
L 284.009337 -177.637188 
L 283.704668 -177.761481 
L 283.4 -177.884195 
L 283.095332 -178.005329 
L 282.790663 -178.12488 
L 282.485995 -178.242847 
L 282.181327 -178.359228 
L 281.876658 -178.474022 
L 281.57199 -178.587227 
L 281.267322 -178.698842 
L 280.962654 -178.808865 
L 280.657985 -178.917295 
L 280.353317 -179.024131 
L 280.048649 -179.12937 
L 279.74398 -179.233012 
L 279.439312 -179.335055 
L 279.134644 -179.435499 
L 278.829975 -179.534341 
L 278.525307 -179.63158 
L 278.220639 -179.727216 
L 277.915971 -179.821246 
L 277.611302 -179.91367 
L 277.306634 -180.004487 
L 277.001966 -180.093694 
L 276.697297 -180.181293 
L 276.392629 -180.26728 
L 276.087961 -180.351655 
L 275.783292 -180.434417 
L 275.478624 -180.515565 
L 275.173956 -180.595098 
L 274.869287 -180.673014 
L 274.564619 -180.749314 
L 274.259951 -180.823995 
L 273.955283 -180.897058 
L 273.650614 -180.9685 
L 273.345946 -181.038322 
L 273.041278 -181.106522 
L 272.736609 -181.1731 
L 272.431941 -181.238054 
L 272.127273 -181.301384 
L 271.822604 -181.363089 
L 271.517936 -181.423168 
L 271.213268 -181.481621 
L 270.9086 -181.538447 
L 270.603931 -181.593645 
L 270.299263 -181.647214 
L 269.994595 -181.699154 
L 269.689926 -181.749464 
L 269.385258 -181.798144 
L 269.08059 -181.845193 
L 268.775921 -181.89061 
L 268.471253 -181.934395 
L 268.166585 -181.976547 
L 267.861916 -182.017067 
L 267.557248 -182.055952 
L 267.25258 -182.093203 
L 266.947912 -182.12882 
L 266.643243 -182.162802 
L 266.338575 -182.195148 
L 266.033907 -182.225858 
L 265.729238 -182.254932 
L 265.42457 -182.282369 
L 265.119902 -182.30817 
L 264.815233 -182.332333 
L 264.510565 -182.354859 
L 264.205897 -182.375747 
L 263.901229 -182.394998 
L 263.59656 -182.412609 
L 263.291892 -182.428583 
L 262.987224 -182.442917 
L 262.682555 -182.455613 
L 262.377887 -182.46667 
L 262.073219 -182.476088 
L 261.76855 -182.483867 
L 261.463882 -182.490006 
L 261.159214 -182.494506 
L 260.854545 -182.497366 
L 260.549877 -182.498587 
L 260.245209 -182.498169 
L 259.940541 -182.496111 
L 259.635872 -182.492413 
L 259.331204 -182.487076 
L 259.026536 -182.4801 
L 258.721867 -182.471485 
L 258.417199 -182.46123 
L 258.112531 -182.449336 
L 257.807862 -182.435804 
L 257.503194 -182.420632 
L 257.198526 -182.403822 
L 256.893857 -182.385374 
L 256.589189 -182.365288 
L 256.284521 -182.343563 
L 255.979853 -182.320202 
L 255.675184 -182.295202 
L 255.370516 -182.268566 
L 255.065848 -182.240293 
L 254.761179 -182.210383 
L 254.456511 -182.178838 
L 254.151843 -182.145657 
L 253.847174 -182.11084 
L 253.542506 -182.074389 
L 253.237838 -182.036303 
L 252.93317 -181.996584 
L 252.628501 -181.955231 
L 252.323833 -181.912245 
L 252.019165 -181.867627 
L 251.714496 -181.821376 
L 251.409828 -181.773495 
L 251.10516 -181.723983 
L 250.800491 -181.67284 
L 250.495823 -181.620068 
L 250.191155 -181.565667 
L 249.886486 -181.509638 
L 249.581818 -181.451982 
L 249.27715 -181.392699 
L 248.972482 -181.331789 
L 248.667813 -181.269255 
L 248.363145 -181.205095 
L 248.058477 -181.139312 
L 247.753808 -181.071906 
L 247.44914 -181.002878 
L 247.144472 -180.932229 
L 246.839803 -180.85996 
L 246.535135 -180.78607 
L 246.230467 -180.710563 
L 245.925799 -180.633438 
L 245.62113 -180.554696 
L 245.316462 -180.474338 
L 245.011794 -180.392366 
L 244.707125 -180.308781 
L 244.402457 -180.223582 
L 244.097789 -180.136773 
L 243.79312 -180.048353 
L 243.488452 -179.958324 
L 243.183784 -179.866686 
L 242.879115 -179.773442 
L 242.574447 -179.678592 
L 242.269779 -179.582138 
L 241.965111 -179.48408 
L 241.660442 -179.384421 
L 241.355774 -179.28316 
L 241.051106 -179.180301 
L 240.746437 -179.075843 
L 240.441769 -178.969789 
L 240.137101 -178.862139 
L 239.832432 -178.752896 
L 239.527764 -178.64206 
L 239.223096 -178.529633 
L 238.918428 -178.415617 
L 238.613759 -178.300013 
L 238.309091 -178.182822 
L 238.004423 -178.064046 
L 237.699754 -177.943687 
L 237.395086 -177.821747 
L 237.090418 -177.698226 
L 236.785749 -177.573127 
L 236.481081 -177.446452 
L 236.176413 -177.318201 
L 235.871744 -177.188377 
L 235.567076 -177.056982 
L 235.262408 -176.924017 
L 234.95774 -176.789484 
L 234.653071 -176.653386 
L 234.348403 -176.515723 
L 234.043735 -176.376498 
L 233.739066 -176.235712 
L 233.434398 -176.093369 
L 233.12973 -175.949469 
L 232.825061 -175.804015 
L 232.520393 -175.657008 
L 232.215725 -175.508452 
L 231.911057 -175.358347 
L 231.606388 -175.206697 
L 231.30172 -175.053502 
L 230.997052 -174.898766 
L 230.692383 -174.742491 
L 230.387715 -174.584678 
L 230.083047 -174.425331 
L 229.778378 -174.264451 
L 229.47371 -174.102041 
L 229.169042 -173.938103 
L 228.864373 -173.77264 
L 228.559705 -173.605654 
L 228.255037 -173.437147 
L 227.950369 -173.267122 
L 227.6457 -173.095581 
L 227.341032 -172.922528 
L 227.036364 -172.747964 
L 226.731695 -172.571892 
L 226.427027 -172.394315 
L 226.122359 -172.215236 
L 225.81769 -172.034657 
L 225.513022 -171.85258 
L 225.208354 -171.66901 
L 224.903686 -171.483948 
L 224.599017 -171.297398 
L 224.294349 -171.109362 
L 223.989681 -170.919843 
L 223.685012 -170.728844 
L 223.380344 -170.536368 
L 223.075676 -170.342418 
L 222.771007 -170.146998 
L 222.466339 -169.950109 
L 222.161671 -169.751756 
L 221.857002 -169.551942 
L 221.552334 -169.350669 
L 221.247666 -169.147941 
L 220.942998 -168.943761 
L 220.638329 -168.738132 
L 220.333661 -168.531058 
L 220.028993 -168.322542 
L 219.724324 -168.112588 
L 219.419656 -167.901198 
L 219.114988 -167.688377 
L 218.810319 -167.474127 
L 218.505651 -167.258453 
L 218.200983 -167.041358 
L 217.896314 -166.822845 
L 217.591646 -166.602919 
L 217.286978 -166.381582 
L 216.98231 -166.158839 
L 216.677641 -165.934693 
L 216.372973 -165.709148 
L 216.068305 -165.482208 
L 215.763636 -165.253877 
L 215.458968 -165.024158 
L 215.1543 -164.793056 
L 214.849631 -164.560575 
L 214.544963 -164.326718 
L 214.240295 -164.09149 
L 213.935627 -163.854895 
L 213.630958 -163.616936 
L 213.32629 -163.377619 
L 213.021622 -163.136947 
L 212.716953 -162.894924 
L 212.412285 -162.651555 
L 212.107617 -162.406844 
L 211.802948 -162.160796 
L 211.49828 -161.913415 
L 211.193612 -161.664704 
L 210.888943 -161.41467 
L 210.584275 -161.163316 
L 210.279607 -160.910647 
L 209.974939 -160.656667 
L 209.67027 -160.401382 
L 209.365602 -160.144795 
L 209.060934 -159.886912 
L 208.756265 -159.627737 
L 208.451597 -159.367276 
L 208.146929 -159.105532 
L 207.84226 -158.842511 
L 207.537592 -158.578218 
L 207.232924 -158.312658 
L 206.928256 -158.045835 
L 206.623587 -157.777755 
L 206.318919 -157.508423 
L 206.014251 -157.237845 
L 205.709582 -156.966024 
L 205.404914 -156.692967 
L 205.100246 -156.418678 
L 204.795577 -156.143164 
L 204.490909 -155.866429 
L 204.186241 -155.588478 
L 203.881572 -155.309318 
L 203.576904 -155.028953 
L 203.272236 -154.74739 
L 202.967568 -154.464633 
L 202.662899 -154.180688 
L 202.358231 -153.895562 
L 202.053563 -153.609259 
L 201.748894 -153.321785 
L 201.444226 -153.033146 
L 201.139558 -152.743348 
L 200.834889 -152.452397 
L 200.530221 -152.160299 
L 200.225553 -151.867059 
L 199.920885 -151.572684 
L 199.616216 -151.277179 
L 199.311548 -150.980551 
L 199.00688 -150.682805 
L 198.702211 -150.383949 
L 198.397543 -150.083987 
L 198.092875 -149.782927 
L 197.788206 -149.480774 
L 197.483538 -149.177535 
L 197.17887 -148.873217 
L 196.874201 -148.567825 
L 196.569533 -148.261366 
L 196.264865 -147.953847 
L 195.960197 -147.645274 
L 195.655528 -147.335653 
L 195.35086 -147.024992 
L 195.046192 -146.713297 
L 194.741523 -146.400574 
L 194.436855 -146.086831 
L 194.132187 -145.772074 
L 193.827518 -145.45631 
L 193.52285 -145.139545 
L 193.218182 -144.821788 
L 192.913514 -144.503044 
L 192.608845 -144.183321 
L 192.304177 -143.862626 
L 191.999509 -143.540965 
L 191.69484 -143.218347 
L 191.390172 -142.894777 
L 191.085504 -142.570264 
L 190.780835 -142.244814 
L 190.476167 -141.918436 
L 190.171499 -141.591135 
L 189.86683 -141.26292 
L 189.562162 -140.933798 
L 189.257494 -140.603776 
L 188.952826 -140.272862 
L 188.648157 -139.941063 
L 188.343489 -139.608388 
L 188.038821 -139.274843 
L 187.734152 -138.940436 
L 187.429484 -138.605176 
L 187.124816 -138.269068 
L 186.820147 -137.932123 
L 186.515479 -137.594346 
L 186.210811 -137.255747 
L 185.906143 -136.916333 
L 185.601474 -136.576111 
L 185.296806 -136.235091 
L 184.992138 -135.893279 
L 184.687469 -135.550685 
L 184.382801 -135.207315 
L 184.078133 -134.863178 
L 183.773464 -134.518283 
L 183.468796 -134.172638 
L 183.164128 -133.82625 
L 182.859459 -133.479128 
L 182.554791 -133.131281 
L 182.250123 -132.782716 
L 181.945455 -132.433442 
L 181.640786 -132.083468 
L 181.336118 -131.732802 
L 181.03145 -131.381452 
L 180.726781 -131.029427 
L 180.422113 -130.676736 
L 180.117445 -130.323387 
L 179.812776 -129.969389 
L 179.508108 -129.614751 
L 179.20344 -129.25948 
L 178.898771 -128.903587 
L 178.594103 -128.547079 
L 178.289435 -128.189966 
L 177.984767 -127.832256 
L 177.680098 -127.473959 
L 177.37543 -127.115083 
L 177.070762 -126.755637 
L 176.766093 -126.39563 
L 176.461425 -126.035071 
L 176.156757 -125.67397 
L 175.852088 -125.312334 
L 175.54742 -124.950174 
L 175.242752 -124.587499 
L 174.938084 -124.224317 
L 174.633415 -123.860638 
L 174.328747 -123.496472 
L 174.024079 -123.131827 
L 173.71941 -122.766712 
L 173.414742 -122.401138 
L 173.110074 -122.035112 
L 172.805405 -121.668646 
L 172.500737 -121.301748 
L 172.196069 -120.934427 
L 171.8914 -120.566694 
L 171.586732 -120.198557 
L 171.282064 -119.830026 
L 170.977396 -119.461111 
L 170.672727 -119.091821 
L 170.368059 -118.722166 
L 170.063391 -118.352155 
L 169.758722 -117.981799 
L 169.454054 -117.611106 
L 169.149386 -117.240087 
L 168.844717 -116.868751 
L 168.540049 -116.497107 
L 168.235381 -116.125167 
L 167.930713 -115.752939 
L 167.626044 -115.380434 
L 167.321376 -115.007661 
L 167.016708 -114.634629 
L 166.712039 -114.26135 
L 166.407371 -113.887833 
L 166.102703 -113.514087 
L 165.798034 -113.140124 
L 165.493366 -112.765952 
L 165.188698 -112.391581 
L 164.884029 -112.017023 
L 164.579361 -111.642286 
L 164.274693 -111.267381 
L 163.970025 -110.892318 
L 163.665356 -110.517107 
L 163.360688 -110.141758 
L 163.05602 -109.766281 
L 162.751351 -109.390686 
L 162.446683 -109.014984 
L 162.142015 -108.639185 
L 161.837346 -108.263298 
L 161.532678 -107.887334 
L 161.22801 -107.511304 
L 160.923342 -107.135217 
L 160.618673 -106.759084 
L 160.314005 -106.382915 
L 160.009337 -106.00672 
L 159.704668 -105.630509 
L 159.4 -105.254293 
L 159.095332 -104.878083 
L 158.790663 -104.501887 
L 158.485995 -104.125718 
L 158.181327 -103.749584 
L 157.876658 -103.373497 
L 157.57199 -102.997467 
L 157.267322 -102.621504 
L 156.962654 -102.245618 
L 156.657985 -101.86982 
L 156.353317 -101.49412 
L 156.048649 -101.118529 
L 155.74398 -100.743057 
L 155.439312 -100.367715 
L 155.134644 -99.992512 
L 154.829975 -99.61746 
L 154.525307 -99.242568 
L 154.220639 -98.867848 
L 153.915971 -98.493308 
L 153.611302 -98.118961 
L 153.306634 -97.744817 
L 153.001966 -97.370885 
L 152.697297 -96.997176 
L 152.392629 -96.623701 
L 152.087961 -96.25047 
L 151.783292 -95.877494 
L 151.478624 -95.504783 
L 151.173956 -95.132347 
L 150.869287 -94.760198 
L 150.564619 -94.388344 
L 150.259951 -94.016798 
L 149.955283 -93.645568 
L 149.650614 -93.274667 
L 149.345946 -92.904103 
L 149.041278 -92.533888 
L 148.736609 -92.164032 
L 148.431941 -91.794545 
L 148.127273 -91.425438 
L 147.822604 -91.056722 
L 147.517936 -90.688405 
L 147.213268 -90.3205 
L 146.9086 -89.953016 
L 146.603931 -89.585964 
L 146.299263 -89.219354 
L 145.994595 -88.853197 
L 145.689926 -88.487502 
L 145.385258 -88.122281 
L 145.08059 -87.757543 
L 144.775921 -87.393299 
L 144.471253 -87.02956 
L 144.166585 -86.666334 
L 143.861916 -86.303634 
L 143.557248 -85.941469 
L 143.25258 -85.579849 
L 142.947912 -85.218784 
L 142.643243 -84.858286 
L 142.338575 -84.498364 
L 142.033907 -84.139028 
L 141.729238 -83.780288 
L 141.42457 -83.422156 
L 141.119902 -83.06464 
L 140.815233 -82.707751 
L 140.510565 -82.3515 
L 140.205897 -81.995896 
L 139.901229 -81.640949 
L 139.59656 -81.28667 
L 139.291892 -80.933069 
L 138.987224 -80.580155 
L 138.682555 -80.227939 
L 138.377887 -79.876431 
L 138.073219 -79.52564 
L 137.76855 -79.175578 
L 137.463882 -78.826253 
L 137.159214 -78.477676 
L 136.854545 -78.129856 
L 136.549877 -77.782804 
L 136.245209 -77.436529 
L 135.940541 -77.091042 
L 135.635872 -76.746351 
L 135.331204 -76.402468 
L 135.026536 -76.059401 
L 134.721867 -75.717161 
L 134.417199 -75.375756 
L 134.112531 -75.035198 
L 133.807862 -74.695495 
L 133.503194 -74.356658 
L 133.198526 -74.018695 
L 132.893857 -73.681617 
L 132.589189 -73.345433 
L 132.284521 -73.010153 
L 131.979853 -72.675786 
L 131.675184 -72.342342 
L 131.370516 -72.009829 
L 131.065848 -71.678259 
L 130.761179 -71.347639 
L 130.456511 -71.01798 
L 130.151843 -70.689291 
L 129.847174 -70.361581 
L 129.542506 -70.03486 
L 129.237838 -69.709136 
L 128.93317 -69.384419 
L 128.628501 -69.060719 
L 128.323833 -68.738043 
L 128.019165 -68.416403 
L 127.714496 -68.095806 
L 127.409828 -67.776262 
L 127.10516 -67.457779 
L 126.800491 -67.140367 
L 126.495823 -66.824036 
L 126.191155 -66.508793 
L 125.886486 -66.194647 
L 125.581818 -65.881608 
L 125.27715 -65.569685 
L 124.972482 -65.258886 
L 124.667813 -64.94922 
L 124.363145 -64.640696 
L 124.058477 -64.333322 
L 123.753808 -64.027107 
L 123.44914 -63.72206 
L 123.144472 -63.41819 
L 122.839803 -63.115504 
L 122.535135 -62.814012 
L 122.230467 -62.513722 
L 121.925799 -62.214643 
L 121.62113 -61.916782 
L 121.316462 -61.620149 
L 121.011794 -61.324751 
L 120.707125 -61.030597 
L 120.402457 -60.737695 
L 120.097789 -60.446054 
L 119.79312 -60.155681 
L 119.488452 -59.866585 
L 119.183784 -59.578774 
L 118.879115 -59.292256 
L 118.574447 -59.007038 
L 118.269779 -58.723129 
L 117.965111 -58.440538 
L 117.660442 -58.159271 
L 117.355774 -57.879336 
L 117.051106 -57.600742 
L 116.746437 -57.323496 
L 116.441769 -57.047607 
L 116.137101 -56.77308 
L 115.832432 -56.499925 
L 115.527764 -56.228149 
L 115.223096 -55.95776 
L 114.918428 -55.688764 
L 114.613759 -55.42117 
L 114.309091 -55.154985 
L 114.004423 -54.890216 
L 113.699754 -54.62687 
L 113.395086 -54.364956 
L 113.090418 -54.10448 
L 112.785749 -53.845449 
L 112.481081 -53.587871 
L 112.176413 -53.331752 
L 111.871744 -53.077101 
L 111.567076 -52.823923 
L 111.262408 -52.572226 
L 110.95774 -52.322017 
L 110.653071 -52.073302 
L 110.348403 -51.82609 
L 110.043735 -51.580385 
L 109.739066 -51.336196 
L 109.434398 -51.093528 
L 109.12973 -50.852389 
L 108.825061 -50.612786 
L 108.520393 -50.374724 
L 108.215725 -50.13821 
L 107.911057 -49.903251 
L 107.606388 -49.669853 
L 107.30172 -49.438023 
L 106.997052 -49.207767 
L 106.692383 -48.979091 
L 106.387715 -48.752002 
L 106.083047 -48.526505 
L 105.778378 -48.302608 
L 105.47371 -48.080315 
L 105.169042 -47.859633 
L 104.864373 -47.640568 
L 104.559705 -47.423127 
L 104.255037 -47.207314 
L 103.950369 -46.993136 
L 103.6457 -46.780599 
L 103.341032 -46.569708 
L 103.036364 -46.36047 
L 102.731695 -46.152889 
L 102.427027 -45.946972 
L 102.122359 -45.742724 
L 101.81769 -45.54015 
L 101.513022 -45.339256 
L 101.208354 -45.140048 
L 100.903686 -44.942531 
L 100.599017 -44.74671 
L 100.294349 -44.55259 
L 99.989681 -44.360177 
L 99.685012 -44.169476 
L 99.380344 -43.980492 
L 99.075676 -43.793231 
L 98.771007 -43.607696 
L 98.466339 -43.423894 
L 98.161671 -43.241828 
L 97.857002 -43.061505 
L 97.552334 -42.882928 
L 97.247666 -42.706104 
L 96.942998 -42.531035 
L 96.638329 -42.357728 
L 96.333661 -42.186186 
L 96.028993 -42.016414 
L 95.724324 -41.848418 
L 95.419656 -41.6822 
L 95.114988 -41.517767 
L 94.810319 -41.355121 
L 94.505651 -41.194268 
L 94.200983 -41.035212 
L 93.896314 -40.877957 
L 93.591646 -40.722507 
L 93.286978 -40.568867 
L 92.98231 -40.417039 
L 92.677641 -40.267029 
L 92.372973 -40.118841 
L 92.068305 -39.972478 
L 91.763636 -39.827944 
L 91.458968 -39.685244 
L 91.1543 -39.54438 
L 90.849631 -39.405357 
L 90.544963 -39.268178 
L 90.240295 -39.132847 
L 89.935627 -38.999368 
L 89.630958 -38.867743 
L 89.32629 -38.737977 
L 89.021622 -38.610073 
L 88.716953 -38.484034 
L 88.412285 -38.359864 
L 88.107617 -38.237566 
L 87.802948 -38.117143 
L 87.49828 -37.998598 
L 87.193612 -37.881935 
L 86.888943 -37.767156 
L 86.584275 -37.654265 
L 86.279607 -37.543264 
L 85.974939 -37.434156 
L 85.67027 -37.326945 
L 85.365602 -37.221633 
L 85.060934 -37.118223 
L 84.756265 -37.016717 
L 84.451597 -36.917118 
L 84.146929 -36.81943 
L 83.84226 -36.723653 
L 83.537592 -36.629792 
L 83.232924 -36.537848 
L 82.928256 -36.447823 
L 82.623587 -36.359721 
L 82.318919 -36.273543 
L 82.014251 -36.189292 
L 81.709582 -36.10697 
L 81.404914 -36.026579 
L 81.100246 -35.94812 
L 80.795577 -35.871597 
L 80.490909 -35.797011 
L 80.186241 -35.724365 
L 79.881572 -35.653659 
L 79.576904 -35.584896 
L 79.272236 -35.518078 
L 78.967568 -35.453206 
L 78.662899 -35.390282 
L 78.358231 -35.329308 
L 78.053563 -35.270285 
L 77.748894 -35.213215 
L 77.444226 -35.158099 
L 77.139558 -35.104939 
L 76.834889 -35.053737 
L 76.530221 -35.004492 
L 76.225553 -34.957208 
L 75.920885 -34.911884 
L 75.616216 -34.868522 
L 75.311548 -34.827124 
L 75.00688 -34.78769 
L 74.702211 -34.750222 
L 74.397543 -34.714719 
L 74.092875 -34.681185 
L 73.788206 -34.649618 
L 73.483538 -34.62002 
L 73.17887 -34.592392 
L 72.874201 -34.566734 
L 72.569533 -34.543048 
L 72.264865 -34.521333 
L 71.960197 -34.50159 
L 71.655528 -34.48382 
L 71.35086 -34.468024 
L 71.046192 -34.454201 
L 70.741523 -34.442352 
L 70.436855 -34.432478 
L 70.132187 -34.424578 
L 69.827518 -34.418653 
L 69.52285 -34.414702 
L 69.218182 -34.412727 
z
" id="md1fa2c6aa4" style="stroke:#4169e1;stroke-opacity:0.3;"/>
    </defs>
    <g clip-path="url(#p90a60ecfce)">
     <use style="fill:#4169e1;fill-opacity:0.3;stroke:#4169e1;stroke-opacity:0.3;" x="0" xlink:href="#md1fa2c6aa4" y="216"/>
    </g>
   </g>
   <g id="matplotlib.axis_1">
    <g id="xtick_1">
     <g id="line2d_1">
      <defs>
       <path d="M 0 0 
L 0 3.5 
" id="mbe4975b40f" style="stroke:#000000;stroke-width:0.8;"/>
      </defs>
      <g>
       <use style="stroke:#000000;stroke-width:0.8;" x="69.218182" xlink:href="#mbe4975b40f" y="189"/>
      </g>
     </g>
     <g id="text_1">
      <!-- 0 -->
      <g transform="translate(66.036932 203.598437)scale(0.1 -0.1)">
       <defs>
        <path d="M 31.78125 66.40625 
Q 24.171875 66.40625 20.328125 58.90625 
Q 16.5 51.421875 16.5 36.375 
Q 16.5 21.390625 20.328125 13.890625 
Q 24.171875 6.390625 31.78125 6.390625 
Q 39.453125 6.390625 43.28125 13.890625 
Q 47.125 21.390625 47.125 36.375 
Q 47.125 51.421875 43.28125 58.90625 
Q 39.453125 66.40625 31.78125 66.40625 
z
M 31.78125 74.21875 
Q 44.046875 74.21875 50.515625 64.515625 
Q 56.984375 54.828125 56.984375 36.375 
Q 56.984375 17.96875 50.515625 8.265625 
Q 44.046875 -1.421875 31.78125 -1.421875 
Q 19.53125 -1.421875 13.0625 8.265625 
Q 6.59375 17.96875 6.59375 36.375 
Q 6.59375 54.828125 13.0625 64.515625 
Q 19.53125 74.21875 31.78125 74.21875 
z
" id="DejaVuSans-48"/>
       </defs>
       <use xlink:href="#DejaVuSans-48"/>
      </g>
     </g>
    </g>
    <g id="xtick_2">
     <g id="line2d_2">
      <g>
       <use style="stroke:#000000;stroke-width:0.8;" x="130.151843" xlink:href="#mbe4975b40f" y="189"/>
      </g>
     </g>
     <g id="text_2">
      <!-- 200 -->
      <g transform="translate(120.608093 203.598437)scale(0.1 -0.1)">
       <defs>
        <path d="M 19.1875 8.296875 
L 53.609375 8.296875 
L 53.609375 0 
L 7.328125 0 
L 7.328125 8.296875 
Q 12.9375 14.109375 22.625 23.890625 
Q 32.328125 33.6875 34.8125 36.53125 
Q 39.546875 41.84375 41.421875 45.53125 
Q 43.3125 49.21875 43.3125 52.78125 
Q 43.3125 58.59375 39.234375 62.25 
Q 35.15625 65.921875 28.609375 65.921875 
Q 23.96875 65.921875 18.8125 64.3125 
Q 13.671875 62.703125 7.8125 59.421875 
L 7.8125 69.390625 
Q 13.765625 71.78125 18.9375 73 
Q 24.125 74.21875 28.421875 74.21875 
Q 39.75 74.21875 46.484375 68.546875 
Q 53.21875 62.890625 53.21875 53.421875 
Q 53.21875 48.921875 51.53125 44.890625 
Q 49.859375 40.875 45.40625 35.40625 
Q 44.1875 33.984375 37.640625 27.21875 
Q 31.109375 20.453125 19.1875 8.296875 
z
" id="DejaVuSans-50"/>
       </defs>
       <use xlink:href="#DejaVuSans-50"/>
       <use x="63.623047" xlink:href="#DejaVuSans-48"/>
       <use x="127.246094" xlink:href="#DejaVuSans-48"/>
      </g>
     </g>
    </g>
    <g id="xtick_3">
     <g id="line2d_3">
      <g>
       <use style="stroke:#000000;stroke-width:0.8;" x="191.085504" xlink:href="#mbe4975b40f" y="189"/>
      </g>
     </g>
     <g id="text_3">
      <!-- 400 -->
      <g transform="translate(181.541754 203.598437)scale(0.1 -0.1)">
       <defs>
        <path d="M 37.796875 64.3125 
L 12.890625 25.390625 
L 37.796875 25.390625 
z
M 35.203125 72.90625 
L 47.609375 72.90625 
L 47.609375 25.390625 
L 58.015625 25.390625 
L 58.015625 17.1875 
L 47.609375 17.1875 
L 47.609375 0 
L 37.796875 0 
L 37.796875 17.1875 
L 4.890625 17.1875 
L 4.890625 26.703125 
z
" id="DejaVuSans-52"/>
       </defs>
       <use xlink:href="#DejaVuSans-52"/>
       <use x="63.623047" xlink:href="#DejaVuSans-48"/>
       <use x="127.246094" xlink:href="#DejaVuSans-48"/>
      </g>
     </g>
    </g>
    <g id="xtick_4">
     <g id="line2d_4">
      <g>
       <use style="stroke:#000000;stroke-width:0.8;" x="252.019165" xlink:href="#mbe4975b40f" y="189"/>
      </g>
     </g>
     <g id="text_4">
      <!-- 600 -->
      <g transform="translate(242.475415 203.598437)scale(0.1 -0.1)">
       <defs>
        <path d="M 33.015625 40.375 
Q 26.375 40.375 22.484375 35.828125 
Q 18.609375 31.296875 18.609375 23.390625 
Q 18.609375 15.53125 22.484375 10.953125 
Q 26.375 6.390625 33.015625 6.390625 
Q 39.65625 6.390625 43.53125 10.953125 
Q 47.40625 15.53125 47.40625 23.390625 
Q 47.40625 31.296875 43.53125 35.828125 
Q 39.65625 40.375 33.015625 40.375 
z
M 52.59375 71.296875 
L 52.59375 62.3125 
Q 48.875 64.0625 45.09375 64.984375 
Q 41.3125 65.921875 37.59375 65.921875 
Q 27.828125 65.921875 22.671875 59.328125 
Q 17.53125 52.734375 16.796875 39.40625 
Q 19.671875 43.65625 24.015625 45.921875 
Q 28.375 48.1875 33.59375 48.1875 
Q 44.578125 48.1875 50.953125 41.515625 
Q 57.328125 34.859375 57.328125 23.390625 
Q 57.328125 12.15625 50.6875 5.359375 
Q 44.046875 -1.421875 33.015625 -1.421875 
Q 20.359375 -1.421875 13.671875 8.265625 
Q 6.984375 17.96875 6.984375 36.375 
Q 6.984375 53.65625 15.1875 63.9375 
Q 23.390625 74.21875 37.203125 74.21875 
Q 40.921875 74.21875 44.703125 73.484375 
Q 48.484375 72.75 52.59375 71.296875 
z
" id="DejaVuSans-54"/>
       </defs>
       <use xlink:href="#DejaVuSans-54"/>
       <use x="63.623047" xlink:href="#DejaVuSans-48"/>
       <use x="127.246094" xlink:href="#DejaVuSans-48"/>
      </g>
     </g>
    </g>
    <g id="xtick_5">
     <g id="line2d_5">
      <g>
       <use style="stroke:#000000;stroke-width:0.8;" x="312.952826" xlink:href="#mbe4975b40f" y="189"/>
      </g>
     </g>
     <g id="text_5">
      <!-- 800 -->
      <g transform="translate(303.409076 203.598437)scale(0.1 -0.1)">
       <defs>
        <path d="M 31.78125 34.625 
Q 24.75 34.625 20.71875 30.859375 
Q 16.703125 27.09375 16.703125 20.515625 
Q 16.703125 13.921875 20.71875 10.15625 
Q 24.75 6.390625 31.78125 6.390625 
Q 38.8125 6.390625 42.859375 10.171875 
Q 46.921875 13.96875 46.921875 20.515625 
Q 46.921875 27.09375 42.890625 30.859375 
Q 38.875 34.625 31.78125 34.625 
z
M 21.921875 38.8125 
Q 15.578125 40.375 12.03125 44.71875 
Q 8.5 49.078125 8.5 55.328125 
Q 8.5 64.0625 14.71875 69.140625 
Q 20.953125 74.21875 31.78125 74.21875 
Q 42.671875 74.21875 48.875 69.140625 
Q 55.078125 64.0625 55.078125 55.328125 
Q 55.078125 49.078125 51.53125 44.71875 
Q 48 40.375 41.703125 38.8125 
Q 48.828125 37.15625 52.796875 32.3125 
Q 56.78125 27.484375 56.78125 20.515625 
Q 56.78125 9.90625 50.3125 4.234375 
Q 43.84375 -1.421875 31.78125 -1.421875 
Q 19.734375 -1.421875 13.25 4.234375 
Q 6.78125 9.90625 6.78125 20.515625 
Q 6.78125 27.484375 10.78125 32.3125 
Q 14.796875 37.15625 21.921875 38.8125 
z
M 18.3125 54.390625 
Q 18.3125 48.734375 21.84375 45.5625 
Q 25.390625 42.390625 31.78125 42.390625 
Q 38.140625 42.390625 41.71875 45.5625 
Q 45.3125 48.734375 45.3125 54.390625 
Q 45.3125 60.0625 41.71875 63.234375 
Q 38.140625 66.40625 31.78125 66.40625 
Q 25.390625 66.40625 21.84375 63.234375 
Q 18.3125 60.0625 18.3125 54.390625 
z
" id="DejaVuSans-56"/>
       </defs>
       <use xlink:href="#DejaVuSans-56"/>
       <use x="63.623047" xlink:href="#DejaVuSans-48"/>
       <use x="127.246094" xlink:href="#DejaVuSans-48"/>
      </g>
     </g>
    </g>
    <g id="xtick_6">
     <g id="line2d_6">
      <g>
       <use style="stroke:#000000;stroke-width:0.8;" x="373.886486" xlink:href="#mbe4975b40f" y="189"/>
      </g>
     </g>
     <g id="text_6">
      <!-- 1000 -->
      <g transform="translate(361.161486 203.598437)scale(0.1 -0.1)">
       <defs>
        <path d="M 12.40625 8.296875 
L 28.515625 8.296875 
L 28.515625 63.921875 
L 10.984375 60.40625 
L 10.984375 69.390625 
L 28.421875 72.90625 
L 38.28125 72.90625 
L 38.28125 8.296875 
L 54.390625 8.296875 
L 54.390625 0 
L 12.40625 0 
z
" id="DejaVuSans-49"/>
       </defs>
       <use xlink:href="#DejaVuSans-49"/>
       <use x="63.623047" xlink:href="#DejaVuSans-48"/>
       <use x="127.246094" xlink:href="#DejaVuSans-48"/>
       <use x="190.869141" xlink:href="#DejaVuSans-48"/>
      </g>
     </g>
    </g>
    <g id="text_7">
     <!-- Iteration -->
     <g transform="translate(200.191406 217.276563)scale(0.1 -0.1)">
      <defs>
       <path d="M 9.8125 72.90625 
L 19.671875 72.90625 
L 19.671875 0 
L 9.8125 0 
z
" id="DejaVuSans-73"/>
       <path d="M 18.3125 70.21875 
L 18.3125 54.6875 
L 36.8125 54.6875 
L 36.8125 47.703125 
L 18.3125 47.703125 
L 18.3125 18.015625 
Q 18.3125 11.328125 20.140625 9.421875 
Q 21.96875 7.515625 27.59375 7.515625 
L 36.8125 7.515625 
L 36.8125 0 
L 27.59375 0 
Q 17.1875 0 13.234375 3.875 
Q 9.28125 7.765625 9.28125 18.015625 
L 9.28125 47.703125 
L 2.6875 47.703125 
L 2.6875 54.6875 
L 9.28125 54.6875 
L 9.28125 70.21875 
z
" id="DejaVuSans-116"/>
       <path d="M 56.203125 29.59375 
L 56.203125 25.203125 
L 14.890625 25.203125 
Q 15.484375 15.921875 20.484375 11.0625 
Q 25.484375 6.203125 34.421875 6.203125 
Q 39.59375 6.203125 44.453125 7.46875 
Q 49.3125 8.734375 54.109375 11.28125 
L 54.109375 2.78125 
Q 49.265625 0.734375 44.1875 -0.34375 
Q 39.109375 -1.421875 33.890625 -1.421875 
Q 20.796875 -1.421875 13.15625 6.1875 
Q 5.515625 13.8125 5.515625 26.8125 
Q 5.515625 40.234375 12.765625 48.109375 
Q 20.015625 56 32.328125 56 
Q 43.359375 56 49.78125 48.890625 
Q 56.203125 41.796875 56.203125 29.59375 
z
M 47.21875 32.234375 
Q 47.125 39.59375 43.09375 43.984375 
Q 39.0625 48.390625 32.421875 48.390625 
Q 24.90625 48.390625 20.390625 44.140625 
Q 15.875 39.890625 15.1875 32.171875 
z
" id="DejaVuSans-101"/>
       <path d="M 41.109375 46.296875 
Q 39.59375 47.171875 37.8125 47.578125 
Q 36.03125 48 33.890625 48 
Q 26.265625 48 22.1875 43.046875 
Q 18.109375 38.09375 18.109375 28.8125 
L 18.109375 0 
L 9.078125 0 
L 9.078125 54.6875 
L 18.109375 54.6875 
L 18.109375 46.1875 
Q 20.953125 51.171875 25.484375 53.578125 
Q 30.03125 56 36.53125 56 
Q 37.453125 56 38.578125 55.875 
Q 39.703125 55.765625 41.0625 55.515625 
z
" id="DejaVuSans-114"/>
       <path d="M 34.28125 27.484375 
Q 23.390625 27.484375 19.1875 25 
Q 14.984375 22.515625 14.984375 16.5 
Q 14.984375 11.71875 18.140625 8.90625 
Q 21.296875 6.109375 26.703125 6.109375 
Q 34.1875 6.109375 38.703125 11.40625 
Q 43.21875 16.703125 43.21875 25.484375 
L 43.21875 27.484375 
z
M 52.203125 31.203125 
L 52.203125 0 
L 43.21875 0 
L 43.21875 8.296875 
Q 40.140625 3.328125 35.546875 0.953125 
Q 30.953125 -1.421875 24.3125 -1.421875 
Q 15.921875 -1.421875 10.953125 3.296875 
Q 6 8.015625 6 15.921875 
Q 6 25.140625 12.171875 29.828125 
Q 18.359375 34.515625 30.609375 34.515625 
L 43.21875 34.515625 
L 43.21875 35.40625 
Q 43.21875 41.609375 39.140625 45 
Q 35.0625 48.390625 27.6875 48.390625 
Q 23 48.390625 18.546875 47.265625 
Q 14.109375 46.140625 10.015625 43.890625 
L 10.015625 52.203125 
Q 14.9375 54.109375 19.578125 55.046875 
Q 24.21875 56 28.609375 56 
Q 40.484375 56 46.34375 49.84375 
Q 52.203125 43.703125 52.203125 31.203125 
z
" id="DejaVuSans-97"/>
       <path d="M 9.421875 54.6875 
L 18.40625 54.6875 
L 18.40625 0 
L 9.421875 0 
z
M 9.421875 75.984375 
L 18.40625 75.984375 
L 18.40625 64.59375 
L 9.421875 64.59375 
z
" id="DejaVuSans-105"/>
       <path d="M 30.609375 48.390625 
Q 23.390625 48.390625 19.1875 42.75 
Q 14.984375 37.109375 14.984375 27.296875 
Q 14.984375 17.484375 19.15625 11.84375 
Q 23.34375 6.203125 30.609375 6.203125 
Q 37.796875 6.203125 41.984375 11.859375 
Q 46.1875 17.53125 46.1875 27.296875 
Q 46.1875 37.015625 41.984375 42.703125 
Q 37.796875 48.390625 30.609375 48.390625 
z
M 30.609375 56 
Q 42.328125 56 49.015625 48.375 
Q 55.71875 40.765625 55.71875 27.296875 
Q 55.71875 13.875 49.015625 6.21875 
Q 42.328125 -1.421875 30.609375 -1.421875 
Q 18.84375 -1.421875 12.171875 6.21875 
Q 5.515625 13.875 5.515625 27.296875 
Q 5.515625 40.765625 12.171875 48.375 
Q 18.84375 56 30.609375 56 
z
" id="DejaVuSans-111"/>
       <path d="M 54.890625 33.015625 
L 54.890625 0 
L 45.90625 0 
L 45.90625 32.71875 
Q 45.90625 40.484375 42.875 44.328125 
Q 39.84375 48.1875 33.796875 48.1875 
Q 26.515625 48.1875 22.3125 43.546875 
Q 18.109375 38.921875 18.109375 30.90625 
L 18.109375 0 
L 9.078125 0 
L 9.078125 54.6875 
L 18.109375 54.6875 
L 18.109375 46.1875 
Q 21.34375 51.125 25.703125 53.5625 
Q 30.078125 56 35.796875 56 
Q 45.21875 56 50.046875 50.171875 
Q 54.890625 44.34375 54.890625 33.015625 
z
" id="DejaVuSans-110"/>
      </defs>
      <use xlink:href="#DejaVuSans-73"/>
      <use x="29.492188" xlink:href="#DejaVuSans-116"/>
      <use x="68.701172" xlink:href="#DejaVuSans-101"/>
      <use x="130.224609" xlink:href="#DejaVuSans-114"/>
      <use x="171.337891" xlink:href="#DejaVuSans-97"/>
      <use x="232.617188" xlink:href="#DejaVuSans-116"/>
      <use x="271.826172" xlink:href="#DejaVuSans-105"/>
      <use x="299.609375" xlink:href="#DejaVuSans-111"/>
      <use x="360.791016" xlink:href="#DejaVuSans-110"/>
     </g>
    </g>
   </g>
   <g id="matplotlib.axis_2">
    <g id="ytick_1">
     <g id="line2d_7">
      <defs>
       <path d="M 0 0 
L -3.5 0 
" id="m2e32781a5b" style="stroke:#000000;stroke-width:0.8;"/>
      </defs>
      <g>
       <use style="stroke:#000000;stroke-width:0.8;" x="54" xlink:href="#m2e32781a5b" y="158.790457"/>
      </g>
     </g>
     <g id="text_8">
      <!-- 0.0005 -->
      <g transform="translate(12.009375 162.589676)scale(0.1 -0.1)">
       <defs>
        <path d="M 10.6875 12.40625 
L 21 12.40625 
L 21 0 
L 10.6875 0 
z
" id="DejaVuSans-46"/>
        <path d="M 10.796875 72.90625 
L 49.515625 72.90625 
L 49.515625 64.59375 
L 19.828125 64.59375 
L 19.828125 46.734375 
Q 21.96875 47.46875 24.109375 47.828125 
Q 26.265625 48.1875 28.421875 48.1875 
Q 40.625 48.1875 47.75 41.5 
Q 54.890625 34.8125 54.890625 23.390625 
Q 54.890625 11.625 47.5625 5.09375 
Q 40.234375 -1.421875 26.90625 -1.421875 
Q 22.3125 -1.421875 17.546875 -0.640625 
Q 12.796875 0.140625 7.71875 1.703125 
L 7.71875 11.625 
Q 12.109375 9.234375 16.796875 8.0625 
Q 21.484375 6.890625 26.703125 6.890625 
Q 35.15625 6.890625 40.078125 11.328125 
Q 45.015625 15.765625 45.015625 23.390625 
Q 45.015625 31 40.078125 35.4375 
Q 35.15625 39.890625 26.703125 39.890625 
Q 22.75 39.890625 18.8125 39.015625 
Q 14.890625 38.140625 10.796875 36.28125 
z
" id="DejaVuSans-53"/>
       </defs>
       <use xlink:href="#DejaVuSans-48"/>
       <use x="63.623047" xlink:href="#DejaVuSans-46"/>
       <use x="95.410156" xlink:href="#DejaVuSans-48"/>
       <use x="159.033203" xlink:href="#DejaVuSans-48"/>
       <use x="222.65625" xlink:href="#DejaVuSans-48"/>
       <use x="286.279297" xlink:href="#DejaVuSans-53"/>
      </g>
     </g>
    </g>
    <g id="ytick_2">
     <g id="line2d_8">
      <g>
       <use style="stroke:#000000;stroke-width:0.8;" x="54" xlink:href="#m2e32781a5b" y="123.661443"/>
      </g>
     </g>
     <g id="text_9">
      <!-- 0.0010 -->
      <g transform="translate(12.009375 127.460662)scale(0.1 -0.1)">
       <use xlink:href="#DejaVuSans-48"/>
       <use x="63.623047" xlink:href="#DejaVuSans-46"/>
       <use x="95.410156" xlink:href="#DejaVuSans-48"/>
       <use x="159.033203" xlink:href="#DejaVuSans-48"/>
       <use x="222.65625" xlink:href="#DejaVuSans-49"/>
       <use x="286.279297" xlink:href="#DejaVuSans-48"/>
      </g>
     </g>
    </g>
    <g id="ytick_3">
     <g id="line2d_9">
      <g>
       <use style="stroke:#000000;stroke-width:0.8;" x="54" xlink:href="#m2e32781a5b" y="88.532429"/>
      </g>
     </g>
     <g id="text_10">
      <!-- 0.0015 -->
      <g transform="translate(12.009375 92.331648)scale(0.1 -0.1)">
       <use xlink:href="#DejaVuSans-48"/>
       <use x="63.623047" xlink:href="#DejaVuSans-46"/>
       <use x="95.410156" xlink:href="#DejaVuSans-48"/>
       <use x="159.033203" xlink:href="#DejaVuSans-48"/>
       <use x="222.65625" xlink:href="#DejaVuSans-49"/>
       <use x="286.279297" xlink:href="#DejaVuSans-53"/>
      </g>
     </g>
    </g>
    <g id="ytick_4">
     <g id="line2d_10">
      <g>
       <use style="stroke:#000000;stroke-width:0.8;" x="54" xlink:href="#m2e32781a5b" y="53.403416"/>
      </g>
     </g>
     <g id="text_11">
      <!-- 0.0020 -->
      <g transform="translate(12.009375 57.202634)scale(0.1 -0.1)">
       <use xlink:href="#DejaVuSans-48"/>
       <use x="63.623047" xlink:href="#DejaVuSans-46"/>
       <use x="95.410156" xlink:href="#DejaVuSans-48"/>
       <use x="159.033203" xlink:href="#DejaVuSans-48"/>
       <use x="222.65625" xlink:href="#DejaVuSans-50"/>
       <use x="286.279297" xlink:href="#DejaVuSans-48"/>
      </g>
     </g>
    </g>
    <g id="text_12">
     <!-- E[$\psi_p$] -->
     <g transform="translate(4.909375 120.21)rotate(-90)scale(0.1 -0.1)">
      <defs>
       <path d="M 9.8125 72.90625 
L 55.90625 72.90625 
L 55.90625 64.59375 
L 19.671875 64.59375 
L 19.671875 43.015625 
L 54.390625 43.015625 
L 54.390625 34.71875 
L 19.671875 34.71875 
L 19.671875 8.296875 
L 56.78125 8.296875 
L 56.78125 0 
L 9.8125 0 
z
" id="DejaVuSans-69"/>
       <path d="M 8.59375 75.984375 
L 29.296875 75.984375 
L 29.296875 69 
L 17.578125 69 
L 17.578125 -6.203125 
L 29.296875 -6.203125 
L 29.296875 -13.1875 
L 8.59375 -13.1875 
z
" id="DejaVuSans-91"/>
       <path d="M 24.859375 -1.21875 
Q 13.921875 0.59375 9.625 5.328125 
Q 4.34375 11.140625 6.640625 23 
L 12.796875 54.6875 
L 21.875 54.6875 
L 15.765625 23.34375 
Q 14.0625 14.40625 17.484375 10.6875 
Q 20.515625 7.46875 26.421875 6.78125 
L 35.6875 54.6875 
L 44.625 54.6875 
L 35.359375 6.84375 
Q 41.890625 7.515625 45.75 10.75 
Q 50.734375 14.84375 52.390625 23.390625 
L 58.453125 54.6875 
L 67.53125 54.6875 
L 61.375 23.046875 
Q 58.984375 10.75 51.5625 5.375 
Q 44.875 0.53125 33.796875 -1.171875 
L 29.984375 -20.796875 
L 21.046875 -20.796875 
z
" id="DejaVuSans-Oblique-968"/>
       <path d="M 49.609375 33.6875 
Q 49.609375 40.875 46.484375 44.671875 
Q 43.359375 48.484375 37.5 48.484375 
Q 33.5 48.484375 29.859375 46.4375 
Q 26.21875 44.390625 23.390625 40.484375 
Q 20.609375 36.625 18.9375 31.15625 
Q 17.28125 25.6875 17.28125 20.3125 
Q 17.28125 13.484375 20.40625 9.796875 
Q 23.53125 6.109375 29.296875 6.109375 
Q 33.546875 6.109375 37.1875 8.109375 
Q 40.828125 10.109375 43.40625 13.921875 
Q 46.1875 17.921875 47.890625 23.34375 
Q 49.609375 28.765625 49.609375 33.6875 
z
M 21.78125 46.390625 
Q 25.390625 51.125 30.296875 53.5625 
Q 35.203125 56 41.21875 56 
Q 49.609375 56 54.25 50.5 
Q 58.890625 45.015625 58.890625 35.109375 
Q 58.890625 27 56 19.65625 
Q 53.125 12.3125 47.703125 6.5 
Q 44.09375 2.640625 39.546875 0.609375 
Q 35.015625 -1.421875 29.984375 -1.421875 
Q 24.171875 -1.421875 20.21875 1 
Q 16.265625 3.421875 14.3125 8.203125 
L 8.6875 -20.796875 
L -0.296875 -20.796875 
L 14.40625 54.6875 
L 23.390625 54.6875 
z
" id="DejaVuSans-Oblique-112"/>
       <path d="M 30.421875 75.984375 
L 30.421875 -13.1875 
L 9.71875 -13.1875 
L 9.71875 -6.203125 
L 21.390625 -6.203125 
L 21.390625 69 
L 9.71875 69 
L 9.71875 75.984375 
z
" id="DejaVuSans-93"/>
      </defs>
      <use transform="translate(0 0.015625)" xlink:href="#DejaVuSans-69"/>
      <use transform="translate(63.183594 0.015625)" xlink:href="#DejaVuSans-91"/>
      <use transform="translate(102.197266 0.015625)" xlink:href="#DejaVuSans-Oblique-968"/>
      <use transform="translate(168.164062 -16.390625)scale(0.7)" xlink:href="#DejaVuSans-Oblique-112"/>
      <use transform="translate(215.332031 0.015625)" xlink:href="#DejaVuSans-93"/>
     </g>
    </g>
   </g>
   <g id="line2d_11">
    <path clip-path="url(#p90a60ecfce)" d="M 69.218182 181.50293 
L 72.569533 181.37261 
L 75.920885 181.003773 
L 79.272236 180.397579 
L 82.623587 179.555936 
L 85.974939 178.4815 
L 89.32629 177.17768 
L 92.677641 175.648627 
L 96.333661 173.729471 
L 99.989681 171.555479 
L 103.6457 169.135057 
L 107.606388 166.245802 
L 111.871744 162.838555 
L 116.137101 159.142575 
L 120.707125 154.885058 
L 125.581818 150.034046 
L 130.761179 144.568015 
L 136.549877 138.13285 
L 143.25258 130.335805 
L 151.783292 120.038159 
L 178.898771 87.012066 
L 185.601474 79.339542 
L 191.69484 72.697307 
L 197.17887 67.042437 
L 202.358231 62.020093 
L 207.232924 57.602997 
L 211.802948 53.754859 
L 216.372973 50.206507 
L 220.638329 47.177524 
L 224.903686 44.431708 
L 228.864373 42.143016 
L 232.825061 40.111642 
L 236.785749 38.342529 
L 240.441769 36.945868 
L 244.097789 35.778884 
L 247.753808 34.843751 
L 251.409828 34.142162 
L 255.065848 33.675364 
L 258.721867 33.444173 
L 262.377887 33.448987 
L 266.033907 33.689799 
L 269.689926 34.166193 
L 273.345946 34.877335 
L 277.001966 35.821963 
L 280.657985 36.998362 
L 284.314005 38.40434 
L 287.970025 40.037195 
L 291.930713 42.058362 
L 295.8914 44.337058 
L 299.852088 46.867495 
L 304.117445 49.866384 
L 308.382801 53.139723 
L 312.952826 56.938753 
L 317.52285 61.024429 
L 322.397543 65.678463 
L 327.576904 70.931606 
L 333.060934 76.80449 
L 339.1543 83.653547 
L 346.161671 91.869424 
L 355.30172 102.958809 
L 373.581818 125.407555 
L 373.581818 125.407555 
" style="fill:none;stroke:#4169e1;stroke-linecap:square;stroke-width:1.5;"/>
   </g>
   <g id="patch_3">
    <path d="M 54 189 
L 54 25.92 
" style="fill:none;stroke:#000000;stroke-linecap:square;stroke-linejoin:miter;stroke-width:0.8;"/>
   </g>
   <g id="patch_4">
    <path d="M 388.8 189 
L 388.8 25.92 
" style="fill:none;stroke:#000000;stroke-linecap:square;stroke-linejoin:miter;stroke-width:0.8;"/>
   </g>
   <g id="patch_5">
    <path d="M 54 189 
L 388.8 189 
" style="fill:none;stroke:#000000;stroke-linecap:square;stroke-linejoin:miter;stroke-width:0.8;"/>
   </g>
   <g id="patch_6">
    <path d="M 54 25.92 
L 388.8 25.92 
" style="fill:none;stroke:#000000;stroke-linecap:square;stroke-linejoin:miter;stroke-width:0.8;"/>
   </g>
   <g id="text_13">
    <!-- Nx = 10000, Nt = 1000, T = 5 -->
    <g transform="translate(130.527188 19.92)scale(0.12 -0.12)">
     <defs>
      <path d="M 9.8125 72.90625 
L 23.09375 72.90625 
L 55.421875 11.921875 
L 55.421875 72.90625 
L 64.984375 72.90625 
L 64.984375 0 
L 51.703125 0 
L 19.390625 60.984375 
L 19.390625 0 
L 9.8125 0 
z
" id="DejaVuSans-78"/>
      <path d="M 54.890625 54.6875 
L 35.109375 28.078125 
L 55.90625 0 
L 45.3125 0 
L 29.390625 21.484375 
L 13.484375 0 
L 2.875 0 
L 24.125 28.609375 
L 4.6875 54.6875 
L 15.28125 54.6875 
L 29.78125 35.203125 
L 44.28125 54.6875 
z
" id="DejaVuSans-120"/>
      <path id="DejaVuSans-32"/>
      <path d="M 10.59375 45.40625 
L 73.1875 45.40625 
L 73.1875 37.203125 
L 10.59375 37.203125 
z
M 10.59375 25.484375 
L 73.1875 25.484375 
L 73.1875 17.1875 
L 10.59375 17.1875 
z
" id="DejaVuSans-61"/>
      <path d="M 11.71875 12.40625 
L 22.015625 12.40625 
L 22.015625 4 
L 14.015625 -11.625 
L 7.71875 -11.625 
L 11.71875 4 
z
" id="DejaVuSans-44"/>
      <path d="M -0.296875 72.90625 
L 61.375 72.90625 
L 61.375 64.59375 
L 35.5 64.59375 
L 35.5 0 
L 25.59375 0 
L 25.59375 64.59375 
L -0.296875 64.59375 
z
" id="DejaVuSans-84"/>
     </defs>
     <use xlink:href="#DejaVuSans-78"/>
     <use x="74.804688" xlink:href="#DejaVuSans-120"/>
     <use x="133.984375" xlink:href="#DejaVuSans-32"/>
     <use x="165.771484" xlink:href="#DejaVuSans-61"/>
     <use x="249.560547" xlink:href="#DejaVuSans-32"/>
     <use x="281.347656" xlink:href="#DejaVuSans-49"/>
     <use x="344.970703" xlink:href="#DejaVuSans-48"/>
     <use x="408.59375" xlink:href="#DejaVuSans-48"/>
     <use x="472.216797" xlink:href="#DejaVuSans-48"/>
     <use x="535.839844" xlink:href="#DejaVuSans-48"/>
     <use x="599.462891" xlink:href="#DejaVuSans-44"/>
     <use x="631.25" xlink:href="#DejaVuSans-32"/>
     <use x="663.037109" xlink:href="#DejaVuSans-78"/>
     <use x="737.841797" xlink:href="#DejaVuSans-116"/>
     <use x="777.050781" xlink:href="#DejaVuSans-32"/>
     <use x="808.837891" xlink:href="#DejaVuSans-61"/>
     <use x="892.626953" xlink:href="#DejaVuSans-32"/>
     <use x="924.414062" xlink:href="#DejaVuSans-49"/>
     <use x="988.037109" xlink:href="#DejaVuSans-48"/>
     <use x="1051.660156" xlink:href="#DejaVuSans-48"/>
     <use x="1115.283203" xlink:href="#DejaVuSans-48"/>
     <use x="1178.90625" xlink:href="#DejaVuSans-44"/>
     <use x="1210.693359" xlink:href="#DejaVuSans-32"/>
     <use x="1242.480469" xlink:href="#DejaVuSans-84"/>
     <use x="1303.564453" xlink:href="#DejaVuSans-32"/>
     <use x="1335.351562" xlink:href="#DejaVuSans-61"/>
     <use x="1419.140625" xlink:href="#DejaVuSans-32"/>
     <use x="1450.927734" xlink:href="#DejaVuSans-53"/>
    </g>
   </g>
  </g>
 </g>
 <defs>
  <clipPath id="p90a60ecfce">
   <rect height="163.08" width="334.8" x="54" y="25.92"/>
  </clipPath>
 </defs>
</svg>
