<?xml version="1.0" encoding="utf-8" standalone="no"?>
<!DOCTYPE svg PUBLIC "-//W3C//DTD SVG 1.1//EN"
  "http://www.w3.org/Graphics/SVG/1.1/DTD/svg11.dtd">
<!-- Created with matplotlib (https://matplotlib.org/) -->
<svg height="216pt" version="1.1" viewBox="0 0 1080 216" width="1080pt" xmlns="http://www.w3.org/2000/svg" xmlns:xlink="http://www.w3.org/1999/xlink">
 <metadata>
  <rdf:RDF xmlns:cc="http://creativecommons.org/ns#" xmlns:dc="http://purl.org/dc/elements/1.1/" xmlns:rdf="http://www.w3.org/1999/02/22-rdf-syntax-ns#">
   <cc:Work>
    <dc:type rdf:resource="http://purl.org/dc/dcmitype/StillImage"/>
    <dc:date>2021-11-12T11:32:42.800192</dc:date>
    <dc:format>image/svg+xml</dc:format>
    <dc:creator>
     <cc:Agent>
      <dc:title>Matplotlib v3.3.4, https://matplotlib.org/</dc:title>
     </cc:Agent>
    </dc:creator>
   </cc:Work>
  </rdf:RDF>
 </metadata>
 <defs>
  <style type="text/css">*{stroke-linecap:butt;stroke-linejoin:round;}</style>
 </defs>
 <g id="figure_1">
  <g id="patch_1">
   <path d="M 0 216 
L 1080 216 
L 1080 0 
L 0 0 
z
" style="fill:none;"/>
  </g>
  <g id="axes_1">
   <g id="patch_2">
    <path d="M 135 189 
L 515.454545 189 
L 515.454545 25.92 
L 135 25.92 
z
" style="fill:#ffffff;"/>
   </g>
   <g id="matplotlib.axis_1">
    <g id="xtick_1">
     <g id="line2d_1">
      <defs>
       <path d="M 0 0 
L 0 3.5 
" id="m10123047e9" style="stroke:#000000;stroke-width:0.8;"/>
      </defs>
      <g>
       <use style="stroke:#000000;stroke-width:0.8;" x="148.799775" xlink:href="#m10123047e9" y="189"/>
      </g>
     </g>
     <g id="text_1">
      <!-- 0 -->
      <g transform="translate(145.618525 203.598437)scale(0.1 -0.1)">
       <defs>
        <path d="M 31.78125 66.40625 
Q 24.171875 66.40625 20.328125 58.90625 
Q 16.5 51.421875 16.5 36.375 
Q 16.5 21.390625 20.328125 13.890625 
Q 24.171875 6.390625 31.78125 6.390625 
Q 39.453125 6.390625 43.28125 13.890625 
Q 47.125 21.390625 47.125 36.375 
Q 47.125 51.421875 43.28125 58.90625 
Q 39.453125 66.40625 31.78125 66.40625 
z
M 31.78125 74.21875 
Q 44.046875 74.21875 50.515625 64.515625 
Q 56.984375 54.828125 56.984375 36.375 
Q 56.984375 17.96875 50.515625 8.265625 
Q 44.046875 -1.421875 31.78125 -1.421875 
Q 19.53125 -1.421875 13.0625 8.265625 
Q 6.59375 17.96875 6.59375 36.375 
Q 6.59375 54.828125 13.0625 64.515625 
Q 19.53125 74.21875 31.78125 74.21875 
z
" id="DejaVuSans-48"/>
       </defs>
       <use xlink:href="#DejaVuSans-48"/>
      </g>
     </g>
    </g>
    <g id="xtick_2">
     <g id="line2d_2">
      <g>
       <use style="stroke:#000000;stroke-width:0.8;" x="218.672051" xlink:href="#m10123047e9" y="189"/>
      </g>
     </g>
     <g id="text_2">
      <!-- 200 -->
      <g transform="translate(209.128301 203.598437)scale(0.1 -0.1)">
       <defs>
        <path d="M 19.1875 8.296875 
L 53.609375 8.296875 
L 53.609375 0 
L 7.328125 0 
L 7.328125 8.296875 
Q 12.9375 14.109375 22.625 23.890625 
Q 32.328125 33.6875 34.8125 36.53125 
Q 39.546875 41.84375 41.421875 45.53125 
Q 43.3125 49.21875 43.3125 52.78125 
Q 43.3125 58.59375 39.234375 62.25 
Q 35.15625 65.921875 28.609375 65.921875 
Q 23.96875 65.921875 18.8125 64.3125 
Q 13.671875 62.703125 7.8125 59.421875 
L 7.8125 69.390625 
Q 13.765625 71.78125 18.9375 73 
Q 24.125 74.21875 28.421875 74.21875 
Q 39.75 74.21875 46.484375 68.546875 
Q 53.21875 62.890625 53.21875 53.421875 
Q 53.21875 48.921875 51.53125 44.890625 
Q 49.859375 40.875 45.40625 35.40625 
Q 44.1875 33.984375 37.640625 27.21875 
Q 31.109375 20.453125 19.1875 8.296875 
z
" id="DejaVuSans-50"/>
       </defs>
       <use xlink:href="#DejaVuSans-50"/>
       <use x="63.623047" xlink:href="#DejaVuSans-48"/>
       <use x="127.246094" xlink:href="#DejaVuSans-48"/>
      </g>
     </g>
    </g>
    <g id="xtick_3">
     <g id="line2d_3">
      <g>
       <use style="stroke:#000000;stroke-width:0.8;" x="288.544328" xlink:href="#m10123047e9" y="189"/>
      </g>
     </g>
     <g id="text_3">
      <!-- 400 -->
      <g transform="translate(279.000578 203.598437)scale(0.1 -0.1)">
       <defs>
        <path d="M 37.796875 64.3125 
L 12.890625 25.390625 
L 37.796875 25.390625 
z
M 35.203125 72.90625 
L 47.609375 72.90625 
L 47.609375 25.390625 
L 58.015625 25.390625 
L 58.015625 17.1875 
L 47.609375 17.1875 
L 47.609375 0 
L 37.796875 0 
L 37.796875 17.1875 
L 4.890625 17.1875 
L 4.890625 26.703125 
z
" id="DejaVuSans-52"/>
       </defs>
       <use xlink:href="#DejaVuSans-52"/>
       <use x="63.623047" xlink:href="#DejaVuSans-48"/>
       <use x="127.246094" xlink:href="#DejaVuSans-48"/>
      </g>
     </g>
    </g>
    <g id="xtick_4">
     <g id="line2d_4">
      <g>
       <use style="stroke:#000000;stroke-width:0.8;" x="358.416604" xlink:href="#m10123047e9" y="189"/>
      </g>
     </g>
     <g id="text_4">
      <!-- 600 -->
      <g transform="translate(348.872854 203.598437)scale(0.1 -0.1)">
       <defs>
        <path d="M 33.015625 40.375 
Q 26.375 40.375 22.484375 35.828125 
Q 18.609375 31.296875 18.609375 23.390625 
Q 18.609375 15.53125 22.484375 10.953125 
Q 26.375 6.390625 33.015625 6.390625 
Q 39.65625 6.390625 43.53125 10.953125 
Q 47.40625 15.53125 47.40625 23.390625 
Q 47.40625 31.296875 43.53125 35.828125 
Q 39.65625 40.375 33.015625 40.375 
z
M 52.59375 71.296875 
L 52.59375 62.3125 
Q 48.875 64.0625 45.09375 64.984375 
Q 41.3125 65.921875 37.59375 65.921875 
Q 27.828125 65.921875 22.671875 59.328125 
Q 17.53125 52.734375 16.796875 39.40625 
Q 19.671875 43.65625 24.015625 45.921875 
Q 28.375 48.1875 33.59375 48.1875 
Q 44.578125 48.1875 50.953125 41.515625 
Q 57.328125 34.859375 57.328125 23.390625 
Q 57.328125 12.15625 50.6875 5.359375 
Q 44.046875 -1.421875 33.015625 -1.421875 
Q 20.359375 -1.421875 13.671875 8.265625 
Q 6.984375 17.96875 6.984375 36.375 
Q 6.984375 53.65625 15.1875 63.9375 
Q 23.390625 74.21875 37.203125 74.21875 
Q 40.921875 74.21875 44.703125 73.484375 
Q 48.484375 72.75 52.59375 71.296875 
z
" id="DejaVuSans-54"/>
       </defs>
       <use xlink:href="#DejaVuSans-54"/>
       <use x="63.623047" xlink:href="#DejaVuSans-48"/>
       <use x="127.246094" xlink:href="#DejaVuSans-48"/>
      </g>
     </g>
    </g>
    <g id="xtick_5">
     <g id="line2d_5">
      <g>
       <use style="stroke:#000000;stroke-width:0.8;" x="428.288881" xlink:href="#m10123047e9" y="189"/>
      </g>
     </g>
     <g id="text_5">
      <!-- 800 -->
      <g transform="translate(418.745131 203.598437)scale(0.1 -0.1)">
       <defs>
        <path d="M 31.78125 34.625 
Q 24.75 34.625 20.71875 30.859375 
Q 16.703125 27.09375 16.703125 20.515625 
Q 16.703125 13.921875 20.71875 10.15625 
Q 24.75 6.390625 31.78125 6.390625 
Q 38.8125 6.390625 42.859375 10.171875 
Q 46.921875 13.96875 46.921875 20.515625 
Q 46.921875 27.09375 42.890625 30.859375 
Q 38.875 34.625 31.78125 34.625 
z
M 21.921875 38.8125 
Q 15.578125 40.375 12.03125 44.71875 
Q 8.5 49.078125 8.5 55.328125 
Q 8.5 64.0625 14.71875 69.140625 
Q 20.953125 74.21875 31.78125 74.21875 
Q 42.671875 74.21875 48.875 69.140625 
Q 55.078125 64.0625 55.078125 55.328125 
Q 55.078125 49.078125 51.53125 44.71875 
Q 48 40.375 41.703125 38.8125 
Q 48.828125 37.15625 52.796875 32.3125 
Q 56.78125 27.484375 56.78125 20.515625 
Q 56.78125 9.90625 50.3125 4.234375 
Q 43.84375 -1.421875 31.78125 -1.421875 
Q 19.734375 -1.421875 13.25 4.234375 
Q 6.78125 9.90625 6.78125 20.515625 
Q 6.78125 27.484375 10.78125 32.3125 
Q 14.796875 37.15625 21.921875 38.8125 
z
M 18.3125 54.390625 
Q 18.3125 48.734375 21.84375 45.5625 
Q 25.390625 42.390625 31.78125 42.390625 
Q 38.140625 42.390625 41.71875 45.5625 
Q 45.3125 48.734375 45.3125 54.390625 
Q 45.3125 60.0625 41.71875 63.234375 
Q 38.140625 66.40625 31.78125 66.40625 
Q 25.390625 66.40625 21.84375 63.234375 
Q 18.3125 60.0625 18.3125 54.390625 
z
" id="DejaVuSans-56"/>
       </defs>
       <use xlink:href="#DejaVuSans-56"/>
       <use x="63.623047" xlink:href="#DejaVuSans-48"/>
       <use x="127.246094" xlink:href="#DejaVuSans-48"/>
      </g>
     </g>
    </g>
    <g id="xtick_6">
     <g id="line2d_6">
      <g>
       <use style="stroke:#000000;stroke-width:0.8;" x="498.161157" xlink:href="#m10123047e9" y="189"/>
      </g>
     </g>
     <g id="text_6">
      <!-- 1000 -->
      <g transform="translate(485.436157 203.598437)scale(0.1 -0.1)">
       <defs>
        <path d="M 12.40625 8.296875 
L 28.515625 8.296875 
L 28.515625 63.921875 
L 10.984375 60.40625 
L 10.984375 69.390625 
L 28.421875 72.90625 
L 38.28125 72.90625 
L 38.28125 8.296875 
L 54.390625 8.296875 
L 54.390625 0 
L 12.40625 0 
z
" id="DejaVuSans-49"/>
       </defs>
       <use xlink:href="#DejaVuSans-49"/>
       <use x="63.623047" xlink:href="#DejaVuSans-48"/>
       <use x="127.246094" xlink:href="#DejaVuSans-48"/>
       <use x="190.869141" xlink:href="#DejaVuSans-48"/>
      </g>
     </g>
    </g>
    <g id="text_7">
     <!-- N -->
     <g transform="translate(321.486648 217.276563)scale(0.1 -0.1)">
      <defs>
       <path d="M 9.8125 72.90625 
L 23.09375 72.90625 
L 55.421875 11.921875 
L 55.421875 72.90625 
L 64.984375 72.90625 
L 64.984375 0 
L 51.703125 0 
L 19.390625 60.984375 
L 19.390625 0 
L 9.8125 0 
z
" id="DejaVuSans-78"/>
      </defs>
      <use xlink:href="#DejaVuSans-78"/>
     </g>
    </g>
   </g>
   <g id="matplotlib.axis_2">
    <g id="ytick_1">
     <g id="line2d_7">
      <defs>
       <path d="M 0 0 
L -3.5 0 
" id="mb575c49263" style="stroke:#000000;stroke-width:0.8;"/>
      </defs>
      <g>
       <use style="stroke:#000000;stroke-width:0.8;" x="135" xlink:href="#mb575c49263" y="189"/>
      </g>
     </g>
     <g id="text_8">
      <!-- 0 -->
      <g transform="translate(121.6375 192.799219)scale(0.1 -0.1)">
       <use xlink:href="#DejaVuSans-48"/>
      </g>
     </g>
    </g>
    <g id="ytick_2">
     <g id="line2d_8">
      <g>
       <use style="stroke:#000000;stroke-width:0.8;" x="135" xlink:href="#mb575c49263" y="168.615"/>
      </g>
     </g>
     <g id="text_9">
      <!-- 1 -->
      <g transform="translate(121.6375 172.414219)scale(0.1 -0.1)">
       <use xlink:href="#DejaVuSans-49"/>
      </g>
     </g>
    </g>
    <g id="ytick_3">
     <g id="line2d_9">
      <g>
       <use style="stroke:#000000;stroke-width:0.8;" x="135" xlink:href="#mb575c49263" y="148.23"/>
      </g>
     </g>
     <g id="text_10">
      <!-- 2 -->
      <g transform="translate(121.6375 152.029219)scale(0.1 -0.1)">
       <use xlink:href="#DejaVuSans-50"/>
      </g>
     </g>
    </g>
    <g id="ytick_4">
     <g id="line2d_10">
      <g>
       <use style="stroke:#000000;stroke-width:0.8;" x="135" xlink:href="#mb575c49263" y="127.845"/>
      </g>
     </g>
     <g id="text_11">
      <!-- 3 -->
      <g transform="translate(121.6375 131.644219)scale(0.1 -0.1)">
       <defs>
        <path d="M 40.578125 39.3125 
Q 47.65625 37.796875 51.625 33 
Q 55.609375 28.21875 55.609375 21.1875 
Q 55.609375 10.40625 48.1875 4.484375 
Q 40.765625 -1.421875 27.09375 -1.421875 
Q 22.515625 -1.421875 17.65625 -0.515625 
Q 12.796875 0.390625 7.625 2.203125 
L 7.625 11.71875 
Q 11.71875 9.328125 16.59375 8.109375 
Q 21.484375 6.890625 26.8125 6.890625 
Q 36.078125 6.890625 40.9375 10.546875 
Q 45.796875 14.203125 45.796875 21.1875 
Q 45.796875 27.640625 41.28125 31.265625 
Q 36.765625 34.90625 28.71875 34.90625 
L 20.21875 34.90625 
L 20.21875 43.015625 
L 29.109375 43.015625 
Q 36.375 43.015625 40.234375 45.921875 
Q 44.09375 48.828125 44.09375 54.296875 
Q 44.09375 59.90625 40.109375 62.90625 
Q 36.140625 65.921875 28.71875 65.921875 
Q 24.65625 65.921875 20.015625 65.03125 
Q 15.375 64.15625 9.8125 62.3125 
L 9.8125 71.09375 
Q 15.4375 72.65625 20.34375 73.4375 
Q 25.25 74.21875 29.59375 74.21875 
Q 40.828125 74.21875 47.359375 69.109375 
Q 53.90625 64.015625 53.90625 55.328125 
Q 53.90625 49.265625 50.4375 45.09375 
Q 46.96875 40.921875 40.578125 39.3125 
z
" id="DejaVuSans-51"/>
       </defs>
       <use xlink:href="#DejaVuSans-51"/>
      </g>
     </g>
    </g>
    <g id="ytick_5">
     <g id="line2d_11">
      <g>
       <use style="stroke:#000000;stroke-width:0.8;" x="135" xlink:href="#mb575c49263" y="107.46"/>
      </g>
     </g>
     <g id="text_12">
      <!-- 4 -->
      <g transform="translate(121.6375 111.259219)scale(0.1 -0.1)">
       <use xlink:href="#DejaVuSans-52"/>
      </g>
     </g>
    </g>
    <g id="ytick_6">
     <g id="line2d_12">
      <g>
       <use style="stroke:#000000;stroke-width:0.8;" x="135" xlink:href="#mb575c49263" y="87.075"/>
      </g>
     </g>
     <g id="text_13">
      <!-- 5 -->
      <g transform="translate(121.6375 90.874219)scale(0.1 -0.1)">
       <defs>
        <path d="M 10.796875 72.90625 
L 49.515625 72.90625 
L 49.515625 64.59375 
L 19.828125 64.59375 
L 19.828125 46.734375 
Q 21.96875 47.46875 24.109375 47.828125 
Q 26.265625 48.1875 28.421875 48.1875 
Q 40.625 48.1875 47.75 41.5 
Q 54.890625 34.8125 54.890625 23.390625 
Q 54.890625 11.625 47.5625 5.09375 
Q 40.234375 -1.421875 26.90625 -1.421875 
Q 22.3125 -1.421875 17.546875 -0.640625 
Q 12.796875 0.140625 7.71875 1.703125 
L 7.71875 11.625 
Q 12.109375 9.234375 16.796875 8.0625 
Q 21.484375 6.890625 26.703125 6.890625 
Q 35.15625 6.890625 40.078125 11.328125 
Q 45.015625 15.765625 45.015625 23.390625 
Q 45.015625 31 40.078125 35.4375 
Q 35.15625 39.890625 26.703125 39.890625 
Q 22.75 39.890625 18.8125 39.015625 
Q 14.890625 38.140625 10.796875 36.28125 
z
" id="DejaVuSans-53"/>
       </defs>
       <use xlink:href="#DejaVuSans-53"/>
      </g>
     </g>
    </g>
    <g id="ytick_7">
     <g id="line2d_13">
      <g>
       <use style="stroke:#000000;stroke-width:0.8;" x="135" xlink:href="#mb575c49263" y="66.69"/>
      </g>
     </g>
     <g id="text_14">
      <!-- 6 -->
      <g transform="translate(121.6375 70.489219)scale(0.1 -0.1)">
       <use xlink:href="#DejaVuSans-54"/>
      </g>
     </g>
    </g>
    <g id="ytick_8">
     <g id="line2d_14">
      <g>
       <use style="stroke:#000000;stroke-width:0.8;" x="135" xlink:href="#mb575c49263" y="46.305"/>
      </g>
     </g>
     <g id="text_15">
      <!-- 7 -->
      <g transform="translate(121.6375 50.104219)scale(0.1 -0.1)">
       <defs>
        <path d="M 8.203125 72.90625 
L 55.078125 72.90625 
L 55.078125 68.703125 
L 28.609375 0 
L 18.3125 0 
L 43.21875 64.59375 
L 8.203125 64.59375 
z
" id="DejaVuSans-55"/>
       </defs>
       <use xlink:href="#DejaVuSans-55"/>
      </g>
     </g>
    </g>
    <g id="ytick_9">
     <g id="line2d_15">
      <g>
       <use style="stroke:#000000;stroke-width:0.8;" x="135" xlink:href="#mb575c49263" y="25.92"/>
      </g>
     </g>
     <g id="text_16">
      <!-- 8 -->
      <g transform="translate(121.6375 29.719219)scale(0.1 -0.1)">
       <use xlink:href="#DejaVuSans-56"/>
      </g>
     </g>
    </g>
    <g id="text_17">
     <!-- t[s]      -->
     <g transform="translate(101.225781 105.380312)scale(0.1 -0.1)">
      <defs>
       <path d="M 18.3125 70.21875 
L 18.3125 54.6875 
L 36.8125 54.6875 
L 36.8125 47.703125 
L 18.3125 47.703125 
L 18.3125 18.015625 
Q 18.3125 11.328125 20.140625 9.421875 
Q 21.96875 7.515625 27.59375 7.515625 
L 36.8125 7.515625 
L 36.8125 0 
L 27.59375 0 
Q 17.1875 0 13.234375 3.875 
Q 9.28125 7.765625 9.28125 18.015625 
L 9.28125 47.703125 
L 2.6875 47.703125 
L 2.6875 54.6875 
L 9.28125 54.6875 
L 9.28125 70.21875 
z
" id="DejaVuSans-116"/>
       <path d="M 8.59375 75.984375 
L 29.296875 75.984375 
L 29.296875 69 
L 17.578125 69 
L 17.578125 -6.203125 
L 29.296875 -6.203125 
L 29.296875 -13.1875 
L 8.59375 -13.1875 
z
" id="DejaVuSans-91"/>
       <path d="M 44.28125 53.078125 
L 44.28125 44.578125 
Q 40.484375 46.53125 36.375 47.5 
Q 32.28125 48.484375 27.875 48.484375 
Q 21.1875 48.484375 17.84375 46.4375 
Q 14.5 44.390625 14.5 40.28125 
Q 14.5 37.15625 16.890625 35.375 
Q 19.28125 33.59375 26.515625 31.984375 
L 29.59375 31.296875 
Q 39.15625 29.25 43.1875 25.515625 
Q 47.21875 21.78125 47.21875 15.09375 
Q 47.21875 7.46875 41.1875 3.015625 
Q 35.15625 -1.421875 24.609375 -1.421875 
Q 20.21875 -1.421875 15.453125 -0.5625 
Q 10.6875 0.296875 5.421875 2 
L 5.421875 11.28125 
Q 10.40625 8.6875 15.234375 7.390625 
Q 20.0625 6.109375 24.8125 6.109375 
Q 31.15625 6.109375 34.5625 8.28125 
Q 37.984375 10.453125 37.984375 14.40625 
Q 37.984375 18.0625 35.515625 20.015625 
Q 33.0625 21.96875 24.703125 23.78125 
L 21.578125 24.515625 
Q 13.234375 26.265625 9.515625 29.90625 
Q 5.8125 33.546875 5.8125 39.890625 
Q 5.8125 47.609375 11.28125 51.796875 
Q 16.75 56 26.8125 56 
Q 31.78125 56 36.171875 55.265625 
Q 40.578125 54.546875 44.28125 53.078125 
z
" id="DejaVuSans-115"/>
       <path d="M 30.421875 75.984375 
L 30.421875 -13.1875 
L 9.71875 -13.1875 
L 9.71875 -6.203125 
L 21.390625 -6.203125 
L 21.390625 69 
L 9.71875 69 
L 9.71875 75.984375 
z
" id="DejaVuSans-93"/>
       <path id="DejaVuSans-32"/>
      </defs>
      <use xlink:href="#DejaVuSans-116"/>
      <use x="39.208984" xlink:href="#DejaVuSans-91"/>
      <use x="78.222656" xlink:href="#DejaVuSans-115"/>
      <use x="130.322266" xlink:href="#DejaVuSans-93"/>
      <use x="169.335938" xlink:href="#DejaVuSans-32"/>
      <use x="201.123047" xlink:href="#DejaVuSans-32"/>
      <use x="232.910156" xlink:href="#DejaVuSans-32"/>
      <use x="264.697266" xlink:href="#DejaVuSans-32"/>
      <use x="296.484375" xlink:href="#DejaVuSans-32"/>
     </g>
    </g>
   </g>
   <g id="line2d_16">
    <defs>
     <path d="M 0 1.5 
C 0.397805 1.5 0.77937 1.341951 1.06066 1.06066 
C 1.341951 0.77937 1.5 0.397805 1.5 0 
C 1.5 -0.397805 1.341951 -0.77937 1.06066 -1.06066 
C 0.77937 -1.341951 0.397805 -1.5 0 -1.5 
C -0.397805 -1.5 -0.77937 -1.341951 -1.06066 -1.06066 
C -1.341951 -0.77937 -1.5 -0.397805 -1.5 0 
C -1.5 0.397805 -1.341951 0.77937 -1.06066 1.06066 
C -0.77937 1.341951 -0.397805 1.5 0 1.5 
z
" id="m57251c18ae" style="stroke:#1f77b4;"/>
    </defs>
    <g clip-path="url(#pc39345d130)">
     <use style="fill:#1f77b4;stroke:#1f77b4;" x="152.293388" xlink:href="#m57251c18ae" y="188.999633"/>
     <use style="fill:#1f77b4;stroke:#1f77b4;" x="155.787002" xlink:href="#m57251c18ae" y="188.997166"/>
     <use style="fill:#1f77b4;stroke:#1f77b4;" x="159.280616" xlink:href="#m57251c18ae" y="188.990317"/>
     <use style="fill:#1f77b4;stroke:#1f77b4;" x="162.77423" xlink:href="#m57251c18ae" y="188.984732"/>
     <use style="fill:#1f77b4;stroke:#1f77b4;" x="166.267844" xlink:href="#m57251c18ae" y="188.975742"/>
     <use style="fill:#1f77b4;stroke:#1f77b4;" x="169.761458" xlink:href="#m57251c18ae" y="188.975416"/>
     <use style="fill:#1f77b4;stroke:#1f77b4;" x="173.255071" xlink:href="#m57251c18ae" y="188.960759"/>
     <use style="fill:#1f77b4;stroke:#1f77b4;" x="176.748685" xlink:href="#m57251c18ae" y="188.943167"/>
     <use style="fill:#1f77b4;stroke:#1f77b4;" x="180.242299" xlink:href="#m57251c18ae" y="188.918562"/>
     <use style="fill:#1f77b4;stroke:#1f77b4;" x="183.735913" xlink:href="#m57251c18ae" y="188.890777"/>
     <use style="fill:#1f77b4;stroke:#1f77b4;" x="187.229527" xlink:href="#m57251c18ae" y="188.85543"/>
     <use style="fill:#1f77b4;stroke:#1f77b4;" x="190.72314" xlink:href="#m57251c18ae" y="188.796843"/>
     <use style="fill:#1f77b4;stroke:#1f77b4;" x="194.216754" xlink:href="#m57251c18ae" y="188.762291"/>
     <use style="fill:#1f77b4;stroke:#1f77b4;" x="197.710368" xlink:href="#m57251c18ae" y="188.690005"/>
     <use style="fill:#1f77b4;stroke:#1f77b4;" x="201.203982" xlink:href="#m57251c18ae" y="188.633763"/>
     <use style="fill:#1f77b4;stroke:#1f77b4;" x="204.697596" xlink:href="#m57251c18ae" y="188.546801"/>
     <use style="fill:#1f77b4;stroke:#1f77b4;" x="208.19121" xlink:href="#m57251c18ae" y="188.459431"/>
     <use style="fill:#1f77b4;stroke:#1f77b4;" x="211.684823" xlink:href="#m57251c18ae" y="188.352205"/>
     <use style="fill:#1f77b4;stroke:#1f77b4;" x="215.178437" xlink:href="#m57251c18ae" y="188.247651"/>
     <use style="fill:#1f77b4;stroke:#1f77b4;" x="218.672051" xlink:href="#m57251c18ae" y="188.132924"/>
     <use style="fill:#1f77b4;stroke:#1f77b4;" x="222.165665" xlink:href="#m57251c18ae" y="188.002684"/>
     <use style="fill:#1f77b4;stroke:#1f77b4;" x="225.659279" xlink:href="#m57251c18ae" y="187.83357"/>
     <use style="fill:#1f77b4;stroke:#1f77b4;" x="229.152893" xlink:href="#m57251c18ae" y="187.677972"/>
     <use style="fill:#1f77b4;stroke:#1f77b4;" x="232.646506" xlink:href="#m57251c18ae" y="187.504658"/>
     <use style="fill:#1f77b4;stroke:#1f77b4;" x="236.14012" xlink:href="#m57251c18ae" y="187.320765"/>
     <use style="fill:#1f77b4;stroke:#1f77b4;" x="239.633734" xlink:href="#m57251c18ae" y="187.097937"/>
     <use style="fill:#1f77b4;stroke:#1f77b4;" x="243.127348" xlink:href="#m57251c18ae" y="186.889215"/>
     <use style="fill:#1f77b4;stroke:#1f77b4;" x="246.620962" xlink:href="#m57251c18ae" y="186.640579"/>
     <use style="fill:#1f77b4;stroke:#1f77b4;" x="250.114576" xlink:href="#m57251c18ae" y="186.384401"/>
     <use style="fill:#1f77b4;stroke:#1f77b4;" x="253.608189" xlink:href="#m57251c18ae" y="186.104127"/>
     <use style="fill:#1f77b4;stroke:#1f77b4;" x="257.101803" xlink:href="#m57251c18ae" y="185.801899"/>
     <use style="fill:#1f77b4;stroke:#1f77b4;" x="260.595417" xlink:href="#m57251c18ae" y="185.255826"/>
     <use style="fill:#1f77b4;stroke:#1f77b4;" x="264.089031" xlink:href="#m57251c18ae" y="185.173185"/>
     <use style="fill:#1f77b4;stroke:#1f77b4;" x="267.582645" xlink:href="#m57251c18ae" y="184.755802"/>
     <use style="fill:#1f77b4;stroke:#1f77b4;" x="271.076258" xlink:href="#m57251c18ae" y="184.393785"/>
     <use style="fill:#1f77b4;stroke:#1f77b4;" x="274.569872" xlink:href="#m57251c18ae" y="183.886076"/>
     <use style="fill:#1f77b4;stroke:#1f77b4;" x="278.063486" xlink:href="#m57251c18ae" y="183.334907"/>
     <use style="fill:#1f77b4;stroke:#1f77b4;" x="281.5571" xlink:href="#m57251c18ae" y="182.869639"/>
     <use style="fill:#1f77b4;stroke:#1f77b4;" x="285.050714" xlink:href="#m57251c18ae" y="182.305851"/>
     <use style="fill:#1f77b4;stroke:#1f77b4;" x="288.544328" xlink:href="#m57251c18ae" y="181.805624"/>
     <use style="fill:#1f77b4;stroke:#1f77b4;" x="292.037941" xlink:href="#m57251c18ae" y="181.229218"/>
     <use style="fill:#1f77b4;stroke:#1f77b4;" x="295.531555" xlink:href="#m57251c18ae" y="180.705833"/>
     <use style="fill:#1f77b4;stroke:#1f77b4;" x="299.025169" xlink:href="#m57251c18ae" y="180.115687"/>
     <use style="fill:#1f77b4;stroke:#1f77b4;" x="302.518783" xlink:href="#m57251c18ae" y="179.431281"/>
     <use style="fill:#1f77b4;stroke:#1f77b4;" x="306.012397" xlink:href="#m57251c18ae" y="178.857566"/>
     <use style="fill:#1f77b4;stroke:#1f77b4;" x="309.506011" xlink:href="#m57251c18ae" y="177.923484"/>
     <use style="fill:#1f77b4;stroke:#1f77b4;" x="312.999624" xlink:href="#m57251c18ae" y="177.43457"/>
     <use style="fill:#1f77b4;stroke:#1f77b4;" x="316.493238" xlink:href="#m57251c18ae" y="176.209371"/>
     <use style="fill:#1f77b4;stroke:#1f77b4;" x="319.986852" xlink:href="#m57251c18ae" y="175.812699"/>
     <use style="fill:#1f77b4;stroke:#1f77b4;" x="323.480466" xlink:href="#m57251c18ae" y="174.928744"/>
     <use style="fill:#1f77b4;stroke:#1f77b4;" x="326.97408" xlink:href="#m57251c18ae" y="173.948348"/>
     <use style="fill:#1f77b4;stroke:#1f77b4;" x="330.467693" xlink:href="#m57251c18ae" y="173.060173"/>
     <use style="fill:#1f77b4;stroke:#1f77b4;" x="333.961307" xlink:href="#m57251c18ae" y="172.058251"/>
     <use style="fill:#1f77b4;stroke:#1f77b4;" x="337.454921" xlink:href="#m57251c18ae" y="170.998129"/>
     <use style="fill:#1f77b4;stroke:#1f77b4;" x="340.948535" xlink:href="#m57251c18ae" y="169.968238"/>
     <use style="fill:#1f77b4;stroke:#1f77b4;" x="344.442149" xlink:href="#m57251c18ae" y="168.90249"/>
     <use style="fill:#1f77b4;stroke:#1f77b4;" x="347.935763" xlink:href="#m57251c18ae" y="167.859817"/>
     <use style="fill:#1f77b4;stroke:#1f77b4;" x="351.429376" xlink:href="#m57251c18ae" y="166.641814"/>
     <use style="fill:#1f77b4;stroke:#1f77b4;" x="354.92299" xlink:href="#m57251c18ae" y="165.551277"/>
     <use style="fill:#1f77b4;stroke:#1f77b4;" x="358.416604" xlink:href="#m57251c18ae" y="164.227475"/>
     <use style="fill:#1f77b4;stroke:#1f77b4;" x="361.910218" xlink:href="#m57251c18ae" y="163.122119"/>
     <use style="fill:#1f77b4;stroke:#1f77b4;" x="365.403832" xlink:href="#m57251c18ae" y="161.76831"/>
     <use style="fill:#1f77b4;stroke:#1f77b4;" x="368.897446" xlink:href="#m57251c18ae" y="160.552141"/>
     <use style="fill:#1f77b4;stroke:#1f77b4;" x="372.391059" xlink:href="#m57251c18ae" y="149.794345"/>
     <use style="fill:#1f77b4;stroke:#1f77b4;" x="375.884673" xlink:href="#m57251c18ae" y="157.55045"/>
     <use style="fill:#1f77b4;stroke:#1f77b4;" x="379.378287" xlink:href="#m57251c18ae" y="156.007632"/>
     <use style="fill:#1f77b4;stroke:#1f77b4;" x="382.871901" xlink:href="#m57251c18ae" y="154.418703"/>
     <use style="fill:#1f77b4;stroke:#1f77b4;" x="386.365515" xlink:href="#m57251c18ae" y="152.926215"/>
     <use style="fill:#1f77b4;stroke:#1f77b4;" x="389.859128" xlink:href="#m57251c18ae" y="151.138471"/>
     <use style="fill:#1f77b4;stroke:#1f77b4;" x="393.352742" xlink:href="#m57251c18ae" y="149.558694"/>
     <use style="fill:#1f77b4;stroke:#1f77b4;" x="396.846356" xlink:href="#m57251c18ae" y="147.753419"/>
     <use style="fill:#1f77b4;stroke:#1f77b4;" x="400.33997" xlink:href="#m57251c18ae" y="145.684974"/>
     <use style="fill:#1f77b4;stroke:#1f77b4;" x="403.833584" xlink:href="#m57251c18ae" y="143.818136"/>
     <use style="fill:#1f77b4;stroke:#1f77b4;" x="407.327198" xlink:href="#m57251c18ae" y="141.893465"/>
     <use style="fill:#1f77b4;stroke:#1f77b4;" x="410.820811" xlink:href="#m57251c18ae" y="139.871885"/>
     <use style="fill:#1f77b4;stroke:#1f77b4;" x="414.314425" xlink:href="#m57251c18ae" y="137.845575"/>
     <use style="fill:#1f77b4;stroke:#1f77b4;" x="417.808039" xlink:href="#m57251c18ae" y="135.934074"/>
     <use style="fill:#1f77b4;stroke:#1f77b4;" x="421.301653" xlink:href="#m57251c18ae" y="133.623964"/>
     <use style="fill:#1f77b4;stroke:#1f77b4;" x="424.795267" xlink:href="#m57251c18ae" y="131.452595"/>
     <use style="fill:#1f77b4;stroke:#1f77b4;" x="428.288881" xlink:href="#m57251c18ae" y="128.62177"/>
     <use style="fill:#1f77b4;stroke:#1f77b4;" x="431.782494" xlink:href="#m57251c18ae" y="127.01052"/>
     <use style="fill:#1f77b4;stroke:#1f77b4;" x="435.276108" xlink:href="#m57251c18ae" y="124.739019"/>
     <use style="fill:#1f77b4;stroke:#1f77b4;" x="438.769722" xlink:href="#m57251c18ae" y="122.219718"/>
     <use style="fill:#1f77b4;stroke:#1f77b4;" x="442.263336" xlink:href="#m57251c18ae" y="119.713689"/>
     <use style="fill:#1f77b4;stroke:#1f77b4;" x="445.75695" xlink:href="#m57251c18ae" y="116.9345"/>
     <use style="fill:#1f77b4;stroke:#1f77b4;" x="449.250563" xlink:href="#m57251c18ae" y="114.641309"/>
     <use style="fill:#1f77b4;stroke:#1f77b4;" x="452.744177" xlink:href="#m57251c18ae" y="111.93412"/>
     <use style="fill:#1f77b4;stroke:#1f77b4;" x="456.237791" xlink:href="#m57251c18ae" y="108.395243"/>
     <use style="fill:#1f77b4;stroke:#1f77b4;" x="459.731405" xlink:href="#m57251c18ae" y="106.320866"/>
     <use style="fill:#1f77b4;stroke:#1f77b4;" x="463.225019" xlink:href="#m57251c18ae" y="103.387648"/>
     <use style="fill:#1f77b4;stroke:#1f77b4;" x="466.718633" xlink:href="#m57251c18ae" y="100.186754"/>
     <use style="fill:#1f77b4;stroke:#1f77b4;" x="470.212246" xlink:href="#m57251c18ae" y="97.271495"/>
     <use style="fill:#1f77b4;stroke:#1f77b4;" x="473.70586" xlink:href="#m57251c18ae" y="94.423772"/>
     <use style="fill:#1f77b4;stroke:#1f77b4;" x="477.199474" xlink:href="#m57251c18ae" y="90.863858"/>
     <use style="fill:#1f77b4;stroke:#1f77b4;" x="480.693088" xlink:href="#m57251c18ae" y="87.826982"/>
     <use style="fill:#1f77b4;stroke:#1f77b4;" x="484.186702" xlink:href="#m57251c18ae" y="58.244821"/>
     <use style="fill:#1f77b4;stroke:#1f77b4;" x="487.680316" xlink:href="#m57251c18ae" y="81.376455"/>
     <use style="fill:#1f77b4;stroke:#1f77b4;" x="491.173929" xlink:href="#m57251c18ae" y="77.611223"/>
     <use style="fill:#1f77b4;stroke:#1f77b4;" x="494.667543" xlink:href="#m57251c18ae" y="74.351295"/>
     <use style="fill:#1f77b4;stroke:#1f77b4;" x="498.161157" xlink:href="#m57251c18ae" y="70.453336"/>
    </g>
   </g>
   <g id="line2d_17">
    <path clip-path="url(#pc39345d130)" d="M 152.293388 189.399432 
L 217.623967 187.983406 
L 232.297145 187.324439 
L 245.223516 186.530182 
L 257.101803 185.585167 
L 268.281367 184.47669 
L 278.762209 183.219287 
L 288.893689 181.781017 
L 298.675808 180.16487 
L 308.108565 178.377121 
L 317.191961 176.426978 
L 325.925995 174.326235 
L 334.310669 172.088941 
L 342.695342 169.623657 
L 350.730654 167.036282 
L 358.765965 164.218391 
L 366.801277 161.159643 
L 374.487228 157.998972 
L 382.173178 154.599423 
L 389.859128 150.951948 
L 397.195718 147.230675 
L 404.532307 143.267386 
L 411.868896 139.054211 
L 419.205485 134.583279 
L 426.542074 129.846721 
L 433.878663 124.836665 
L 441.215252 119.545241 
L 448.202479 114.237 
L 455.189707 108.659613 
L 462.176935 102.806281 
L 469.164162 96.670205 
L 476.15139 90.244586 
L 483.138618 83.522627 
L 490.125845 76.497527 
L 497.113073 69.162489 
L 497.811796 68.411677 
L 497.811796 68.411677 
" style="fill:none;stroke:#ff7f0e;stroke-linecap:square;stroke-width:1.5;"/>
   </g>
   <g id="patch_3">
    <path d="M 135 189 
L 135 25.92 
" style="fill:none;stroke:#000000;stroke-linecap:square;stroke-linejoin:miter;stroke-width:0.8;"/>
   </g>
   <g id="patch_4">
    <path d="M 515.454545 189 
L 515.454545 25.92 
" style="fill:none;stroke:#000000;stroke-linecap:square;stroke-linejoin:miter;stroke-width:0.8;"/>
   </g>
   <g id="patch_5">
    <path d="M 135 189 
L 515.454545 189 
" style="fill:none;stroke:#000000;stroke-linecap:square;stroke-linejoin:miter;stroke-width:0.8;"/>
   </g>
   <g id="patch_6">
    <path d="M 135 25.92 
L 515.454545 25.92 
" style="fill:none;stroke:#000000;stroke-linecap:square;stroke-linejoin:miter;stroke-width:0.8;"/>
   </g>
   <g id="text_18">
    <!-- Time Scaling (Loop) -->
    <g transform="translate(246.166023 19.92)scale(0.16 -0.16)">
     <defs>
      <path d="M -0.296875 72.90625 
L 61.375 72.90625 
L 61.375 64.59375 
L 35.5 64.59375 
L 35.5 0 
L 25.59375 0 
L 25.59375 64.59375 
L -0.296875 64.59375 
z
" id="DejaVuSans-84"/>
      <path d="M 9.421875 54.6875 
L 18.40625 54.6875 
L 18.40625 0 
L 9.421875 0 
z
M 9.421875 75.984375 
L 18.40625 75.984375 
L 18.40625 64.59375 
L 9.421875 64.59375 
z
" id="DejaVuSans-105"/>
      <path d="M 52 44.1875 
Q 55.375 50.25 60.0625 53.125 
Q 64.75 56 71.09375 56 
Q 79.640625 56 84.28125 50.015625 
Q 88.921875 44.046875 88.921875 33.015625 
L 88.921875 0 
L 79.890625 0 
L 79.890625 32.71875 
Q 79.890625 40.578125 77.09375 44.375 
Q 74.3125 48.1875 68.609375 48.1875 
Q 61.625 48.1875 57.5625 43.546875 
Q 53.515625 38.921875 53.515625 30.90625 
L 53.515625 0 
L 44.484375 0 
L 44.484375 32.71875 
Q 44.484375 40.625 41.703125 44.40625 
Q 38.921875 48.1875 33.109375 48.1875 
Q 26.21875 48.1875 22.15625 43.53125 
Q 18.109375 38.875 18.109375 30.90625 
L 18.109375 0 
L 9.078125 0 
L 9.078125 54.6875 
L 18.109375 54.6875 
L 18.109375 46.1875 
Q 21.1875 51.21875 25.484375 53.609375 
Q 29.78125 56 35.6875 56 
Q 41.65625 56 45.828125 52.96875 
Q 50 49.953125 52 44.1875 
z
" id="DejaVuSans-109"/>
      <path d="M 56.203125 29.59375 
L 56.203125 25.203125 
L 14.890625 25.203125 
Q 15.484375 15.921875 20.484375 11.0625 
Q 25.484375 6.203125 34.421875 6.203125 
Q 39.59375 6.203125 44.453125 7.46875 
Q 49.3125 8.734375 54.109375 11.28125 
L 54.109375 2.78125 
Q 49.265625 0.734375 44.1875 -0.34375 
Q 39.109375 -1.421875 33.890625 -1.421875 
Q 20.796875 -1.421875 13.15625 6.1875 
Q 5.515625 13.8125 5.515625 26.8125 
Q 5.515625 40.234375 12.765625 48.109375 
Q 20.015625 56 32.328125 56 
Q 43.359375 56 49.78125 48.890625 
Q 56.203125 41.796875 56.203125 29.59375 
z
M 47.21875 32.234375 
Q 47.125 39.59375 43.09375 43.984375 
Q 39.0625 48.390625 32.421875 48.390625 
Q 24.90625 48.390625 20.390625 44.140625 
Q 15.875 39.890625 15.1875 32.171875 
z
" id="DejaVuSans-101"/>
      <path d="M 53.515625 70.515625 
L 53.515625 60.890625 
Q 47.90625 63.578125 42.921875 64.890625 
Q 37.9375 66.21875 33.296875 66.21875 
Q 25.25 66.21875 20.875 63.09375 
Q 16.5 59.96875 16.5 54.203125 
Q 16.5 49.359375 19.40625 46.890625 
Q 22.3125 44.4375 30.421875 42.921875 
L 36.375 41.703125 
Q 47.40625 39.59375 52.65625 34.296875 
Q 57.90625 29 57.90625 20.125 
Q 57.90625 9.515625 50.796875 4.046875 
Q 43.703125 -1.421875 29.984375 -1.421875 
Q 24.8125 -1.421875 18.96875 -0.25 
Q 13.140625 0.921875 6.890625 3.21875 
L 6.890625 13.375 
Q 12.890625 10.015625 18.65625 8.296875 
Q 24.421875 6.59375 29.984375 6.59375 
Q 38.421875 6.59375 43.015625 9.90625 
Q 47.609375 13.234375 47.609375 19.390625 
Q 47.609375 24.75 44.3125 27.78125 
Q 41.015625 30.8125 33.5 32.328125 
L 27.484375 33.5 
Q 16.453125 35.6875 11.515625 40.375 
Q 6.59375 45.0625 6.59375 53.421875 
Q 6.59375 63.09375 13.40625 68.65625 
Q 20.21875 74.21875 32.171875 74.21875 
Q 37.3125 74.21875 42.625 73.28125 
Q 47.953125 72.359375 53.515625 70.515625 
z
" id="DejaVuSans-83"/>
      <path d="M 48.78125 52.59375 
L 48.78125 44.1875 
Q 44.96875 46.296875 41.140625 47.34375 
Q 37.3125 48.390625 33.40625 48.390625 
Q 24.65625 48.390625 19.8125 42.84375 
Q 14.984375 37.3125 14.984375 27.296875 
Q 14.984375 17.28125 19.8125 11.734375 
Q 24.65625 6.203125 33.40625 6.203125 
Q 37.3125 6.203125 41.140625 7.25 
Q 44.96875 8.296875 48.78125 10.40625 
L 48.78125 2.09375 
Q 45.015625 0.34375 40.984375 -0.53125 
Q 36.96875 -1.421875 32.421875 -1.421875 
Q 20.0625 -1.421875 12.78125 6.34375 
Q 5.515625 14.109375 5.515625 27.296875 
Q 5.515625 40.671875 12.859375 48.328125 
Q 20.21875 56 33.015625 56 
Q 37.15625 56 41.109375 55.140625 
Q 45.0625 54.296875 48.78125 52.59375 
z
" id="DejaVuSans-99"/>
      <path d="M 34.28125 27.484375 
Q 23.390625 27.484375 19.1875 25 
Q 14.984375 22.515625 14.984375 16.5 
Q 14.984375 11.71875 18.140625 8.90625 
Q 21.296875 6.109375 26.703125 6.109375 
Q 34.1875 6.109375 38.703125 11.40625 
Q 43.21875 16.703125 43.21875 25.484375 
L 43.21875 27.484375 
z
M 52.203125 31.203125 
L 52.203125 0 
L 43.21875 0 
L 43.21875 8.296875 
Q 40.140625 3.328125 35.546875 0.953125 
Q 30.953125 -1.421875 24.3125 -1.421875 
Q 15.921875 -1.421875 10.953125 3.296875 
Q 6 8.015625 6 15.921875 
Q 6 25.140625 12.171875 29.828125 
Q 18.359375 34.515625 30.609375 34.515625 
L 43.21875 34.515625 
L 43.21875 35.40625 
Q 43.21875 41.609375 39.140625 45 
Q 35.0625 48.390625 27.6875 48.390625 
Q 23 48.390625 18.546875 47.265625 
Q 14.109375 46.140625 10.015625 43.890625 
L 10.015625 52.203125 
Q 14.9375 54.109375 19.578125 55.046875 
Q 24.21875 56 28.609375 56 
Q 40.484375 56 46.34375 49.84375 
Q 52.203125 43.703125 52.203125 31.203125 
z
" id="DejaVuSans-97"/>
      <path d="M 9.421875 75.984375 
L 18.40625 75.984375 
L 18.40625 0 
L 9.421875 0 
z
" id="DejaVuSans-108"/>
      <path d="M 54.890625 33.015625 
L 54.890625 0 
L 45.90625 0 
L 45.90625 32.71875 
Q 45.90625 40.484375 42.875 44.328125 
Q 39.84375 48.1875 33.796875 48.1875 
Q 26.515625 48.1875 22.3125 43.546875 
Q 18.109375 38.921875 18.109375 30.90625 
L 18.109375 0 
L 9.078125 0 
L 9.078125 54.6875 
L 18.109375 54.6875 
L 18.109375 46.1875 
Q 21.34375 51.125 25.703125 53.5625 
Q 30.078125 56 35.796875 56 
Q 45.21875 56 50.046875 50.171875 
Q 54.890625 44.34375 54.890625 33.015625 
z
" id="DejaVuSans-110"/>
      <path d="M 45.40625 27.984375 
Q 45.40625 37.75 41.375 43.109375 
Q 37.359375 48.484375 30.078125 48.484375 
Q 22.859375 48.484375 18.828125 43.109375 
Q 14.796875 37.75 14.796875 27.984375 
Q 14.796875 18.265625 18.828125 12.890625 
Q 22.859375 7.515625 30.078125 7.515625 
Q 37.359375 7.515625 41.375 12.890625 
Q 45.40625 18.265625 45.40625 27.984375 
z
M 54.390625 6.78125 
Q 54.390625 -7.171875 48.1875 -13.984375 
Q 42 -20.796875 29.203125 -20.796875 
Q 24.46875 -20.796875 20.265625 -20.09375 
Q 16.0625 -19.390625 12.109375 -17.921875 
L 12.109375 -9.1875 
Q 16.0625 -11.328125 19.921875 -12.34375 
Q 23.78125 -13.375 27.78125 -13.375 
Q 36.625 -13.375 41.015625 -8.765625 
Q 45.40625 -4.15625 45.40625 5.171875 
L 45.40625 9.625 
Q 42.625 4.78125 38.28125 2.390625 
Q 33.9375 0 27.875 0 
Q 17.828125 0 11.671875 7.65625 
Q 5.515625 15.328125 5.515625 27.984375 
Q 5.515625 40.671875 11.671875 48.328125 
Q 17.828125 56 27.875 56 
Q 33.9375 56 38.28125 53.609375 
Q 42.625 51.21875 45.40625 46.390625 
L 45.40625 54.6875 
L 54.390625 54.6875 
z
" id="DejaVuSans-103"/>
      <path d="M 31 75.875 
Q 24.46875 64.65625 21.28125 53.65625 
Q 18.109375 42.671875 18.109375 31.390625 
Q 18.109375 20.125 21.3125 9.0625 
Q 24.515625 -2 31 -13.1875 
L 23.1875 -13.1875 
Q 15.875 -1.703125 12.234375 9.375 
Q 8.59375 20.453125 8.59375 31.390625 
Q 8.59375 42.28125 12.203125 53.3125 
Q 15.828125 64.359375 23.1875 75.875 
z
" id="DejaVuSans-40"/>
      <path d="M 9.8125 72.90625 
L 19.671875 72.90625 
L 19.671875 8.296875 
L 55.171875 8.296875 
L 55.171875 0 
L 9.8125 0 
z
" id="DejaVuSans-76"/>
      <path d="M 30.609375 48.390625 
Q 23.390625 48.390625 19.1875 42.75 
Q 14.984375 37.109375 14.984375 27.296875 
Q 14.984375 17.484375 19.15625 11.84375 
Q 23.34375 6.203125 30.609375 6.203125 
Q 37.796875 6.203125 41.984375 11.859375 
Q 46.1875 17.53125 46.1875 27.296875 
Q 46.1875 37.015625 41.984375 42.703125 
Q 37.796875 48.390625 30.609375 48.390625 
z
M 30.609375 56 
Q 42.328125 56 49.015625 48.375 
Q 55.71875 40.765625 55.71875 27.296875 
Q 55.71875 13.875 49.015625 6.21875 
Q 42.328125 -1.421875 30.609375 -1.421875 
Q 18.84375 -1.421875 12.171875 6.21875 
Q 5.515625 13.875 5.515625 27.296875 
Q 5.515625 40.765625 12.171875 48.375 
Q 18.84375 56 30.609375 56 
z
" id="DejaVuSans-111"/>
      <path d="M 18.109375 8.203125 
L 18.109375 -20.796875 
L 9.078125 -20.796875 
L 9.078125 54.6875 
L 18.109375 54.6875 
L 18.109375 46.390625 
Q 20.953125 51.265625 25.265625 53.625 
Q 29.59375 56 35.59375 56 
Q 45.5625 56 51.78125 48.09375 
Q 58.015625 40.1875 58.015625 27.296875 
Q 58.015625 14.40625 51.78125 6.484375 
Q 45.5625 -1.421875 35.59375 -1.421875 
Q 29.59375 -1.421875 25.265625 0.953125 
Q 20.953125 3.328125 18.109375 8.203125 
z
M 48.6875 27.296875 
Q 48.6875 37.203125 44.609375 42.84375 
Q 40.53125 48.484375 33.40625 48.484375 
Q 26.265625 48.484375 22.1875 42.84375 
Q 18.109375 37.203125 18.109375 27.296875 
Q 18.109375 17.390625 22.1875 11.75 
Q 26.265625 6.109375 33.40625 6.109375 
Q 40.53125 6.109375 44.609375 11.75 
Q 48.6875 17.390625 48.6875 27.296875 
z
" id="DejaVuSans-112"/>
      <path d="M 8.015625 75.875 
L 15.828125 75.875 
Q 23.140625 64.359375 26.78125 53.3125 
Q 30.421875 42.28125 30.421875 31.390625 
Q 30.421875 20.453125 26.78125 9.375 
Q 23.140625 -1.703125 15.828125 -13.1875 
L 8.015625 -13.1875 
Q 14.5 -2 17.703125 9.0625 
Q 20.90625 20.125 20.90625 31.390625 
Q 20.90625 42.671875 17.703125 53.65625 
Q 14.5 64.65625 8.015625 75.875 
z
" id="DejaVuSans-41"/>
     </defs>
     <use xlink:href="#DejaVuSans-84"/>
     <use x="57.958984" xlink:href="#DejaVuSans-105"/>
     <use x="85.742188" xlink:href="#DejaVuSans-109"/>
     <use x="183.154297" xlink:href="#DejaVuSans-101"/>
     <use x="244.677734" xlink:href="#DejaVuSans-32"/>
     <use x="276.464844" xlink:href="#DejaVuSans-83"/>
     <use x="339.941406" xlink:href="#DejaVuSans-99"/>
     <use x="394.921875" xlink:href="#DejaVuSans-97"/>
     <use x="456.201172" xlink:href="#DejaVuSans-108"/>
     <use x="483.984375" xlink:href="#DejaVuSans-105"/>
     <use x="511.767578" xlink:href="#DejaVuSans-110"/>
     <use x="575.146484" xlink:href="#DejaVuSans-103"/>
     <use x="638.623047" xlink:href="#DejaVuSans-32"/>
     <use x="670.410156" xlink:href="#DejaVuSans-40"/>
     <use x="709.423828" xlink:href="#DejaVuSans-76"/>
     <use x="763.386719" xlink:href="#DejaVuSans-111"/>
     <use x="824.568359" xlink:href="#DejaVuSans-111"/>
     <use x="885.75" xlink:href="#DejaVuSans-112"/>
     <use x="949.226562" xlink:href="#DejaVuSans-41"/>
    </g>
   </g>
   <g id="legend_1">
    <g id="patch_7">
     <path d="M 143.4 70.7475 
L 251.120625 70.7475 
Q 253.520625 70.7475 253.520625 68.3475 
L 253.520625 34.32 
Q 253.520625 31.92 251.120625 31.92 
L 143.4 31.92 
Q 141 31.92 141 34.32 
L 141 68.3475 
Q 141 70.7475 143.4 70.7475 
z
" style="fill:#ffffff;opacity:0.8;stroke:#cccccc;stroke-linejoin:miter;"/>
    </g>
    <g id="line2d_18"/>
    <g id="line2d_19">
     <g>
      <use style="fill:#1f77b4;stroke:#1f77b4;" x="157.8" xlink:href="#m57251c18ae" y="41.638125"/>
     </g>
    </g>
    <g id="text_19">
     <!-- Data points -->
     <g transform="translate(179.4 45.838125)scale(0.12 -0.12)">
      <defs>
       <path d="M 19.671875 64.796875 
L 19.671875 8.109375 
L 31.59375 8.109375 
Q 46.6875 8.109375 53.6875 14.9375 
Q 60.6875 21.78125 60.6875 36.53125 
Q 60.6875 51.171875 53.6875 57.984375 
Q 46.6875 64.796875 31.59375 64.796875 
z
M 9.8125 72.90625 
L 30.078125 72.90625 
Q 51.265625 72.90625 61.171875 64.09375 
Q 71.09375 55.28125 71.09375 36.53125 
Q 71.09375 17.671875 61.125 8.828125 
Q 51.171875 0 30.078125 0 
L 9.8125 0 
z
" id="DejaVuSans-68"/>
      </defs>
      <use xlink:href="#DejaVuSans-68"/>
      <use x="77.001953" xlink:href="#DejaVuSans-97"/>
      <use x="138.28125" xlink:href="#DejaVuSans-116"/>
      <use x="177.490234" xlink:href="#DejaVuSans-97"/>
      <use x="238.769531" xlink:href="#DejaVuSans-32"/>
      <use x="270.556641" xlink:href="#DejaVuSans-112"/>
      <use x="334.033203" xlink:href="#DejaVuSans-111"/>
      <use x="395.214844" xlink:href="#DejaVuSans-105"/>
      <use x="422.998047" xlink:href="#DejaVuSans-110"/>
      <use x="486.376953" xlink:href="#DejaVuSans-116"/>
      <use x="525.585938" xlink:href="#DejaVuSans-115"/>
     </g>
    </g>
    <g id="line2d_20">
     <path d="M 145.8 59.251875 
L 169.8 59.251875 
" style="fill:none;stroke:#ff7f0e;stroke-linecap:square;stroke-width:1.5;"/>
    </g>
    <g id="line2d_21"/>
    <g id="text_20">
     <!-- Fit -->
     <g transform="translate(179.4 63.451875)scale(0.12 -0.12)">
      <defs>
       <path d="M 9.8125 72.90625 
L 51.703125 72.90625 
L 51.703125 64.59375 
L 19.671875 64.59375 
L 19.671875 43.109375 
L 48.578125 43.109375 
L 48.578125 34.8125 
L 19.671875 34.8125 
L 19.671875 0 
L 9.8125 0 
z
" id="DejaVuSans-70"/>
      </defs>
      <use xlink:href="#DejaVuSans-70"/>
      <use x="50.269531" xlink:href="#DejaVuSans-105"/>
      <use x="78.052734" xlink:href="#DejaVuSans-116"/>
     </g>
    </g>
   </g>
  </g>
  <g id="axes_2">
   <g id="patch_8">
    <path d="M 591.545455 189 
L 972 189 
L 972 25.92 
L 591.545455 25.92 
z
" style="fill:#ffffff;"/>
   </g>
   <g id="matplotlib.axis_3">
    <g id="xtick_7">
     <g id="line2d_22">
      <g>
       <use style="stroke:#000000;stroke-width:0.8;" x="605.345229" xlink:href="#m10123047e9" y="189"/>
      </g>
     </g>
     <g id="text_21">
      <!-- 0 -->
      <g transform="translate(602.163979 203.598437)scale(0.1 -0.1)">
       <use xlink:href="#DejaVuSans-48"/>
      </g>
     </g>
    </g>
    <g id="xtick_8">
     <g id="line2d_23">
      <g>
       <use style="stroke:#000000;stroke-width:0.8;" x="675.217506" xlink:href="#m10123047e9" y="189"/>
      </g>
     </g>
     <g id="text_22">
      <!-- 200 -->
      <g transform="translate(665.673756 203.598437)scale(0.1 -0.1)">
       <use xlink:href="#DejaVuSans-50"/>
       <use x="63.623047" xlink:href="#DejaVuSans-48"/>
       <use x="127.246094" xlink:href="#DejaVuSans-48"/>
      </g>
     </g>
    </g>
    <g id="xtick_9">
     <g id="line2d_24">
      <g>
       <use style="stroke:#000000;stroke-width:0.8;" x="745.089782" xlink:href="#m10123047e9" y="189"/>
      </g>
     </g>
     <g id="text_23">
      <!-- 400 -->
      <g transform="translate(735.546032 203.598437)scale(0.1 -0.1)">
       <use xlink:href="#DejaVuSans-52"/>
       <use x="63.623047" xlink:href="#DejaVuSans-48"/>
       <use x="127.246094" xlink:href="#DejaVuSans-48"/>
      </g>
     </g>
    </g>
    <g id="xtick_10">
     <g id="line2d_25">
      <g>
       <use style="stroke:#000000;stroke-width:0.8;" x="814.962059" xlink:href="#m10123047e9" y="189"/>
      </g>
     </g>
     <g id="text_24">
      <!-- 600 -->
      <g transform="translate(805.418309 203.598437)scale(0.1 -0.1)">
       <use xlink:href="#DejaVuSans-54"/>
       <use x="63.623047" xlink:href="#DejaVuSans-48"/>
       <use x="127.246094" xlink:href="#DejaVuSans-48"/>
      </g>
     </g>
    </g>
    <g id="xtick_11">
     <g id="line2d_26">
      <g>
       <use style="stroke:#000000;stroke-width:0.8;" x="884.834335" xlink:href="#m10123047e9" y="189"/>
      </g>
     </g>
     <g id="text_25">
      <!-- 800 -->
      <g transform="translate(875.290585 203.598437)scale(0.1 -0.1)">
       <use xlink:href="#DejaVuSans-56"/>
       <use x="63.623047" xlink:href="#DejaVuSans-48"/>
       <use x="127.246094" xlink:href="#DejaVuSans-48"/>
      </g>
     </g>
    </g>
    <g id="xtick_12">
     <g id="line2d_27">
      <g>
       <use style="stroke:#000000;stroke-width:0.8;" x="954.706612" xlink:href="#m10123047e9" y="189"/>
      </g>
     </g>
     <g id="text_26">
      <!-- 1000 -->
      <g transform="translate(941.981612 203.598437)scale(0.1 -0.1)">
       <use xlink:href="#DejaVuSans-49"/>
       <use x="63.623047" xlink:href="#DejaVuSans-48"/>
       <use x="127.246094" xlink:href="#DejaVuSans-48"/>
       <use x="190.869141" xlink:href="#DejaVuSans-48"/>
      </g>
     </g>
    </g>
    <g id="text_27">
     <!-- N -->
     <g transform="translate(778.032102 217.276563)scale(0.1 -0.1)">
      <use xlink:href="#DejaVuSans-78"/>
     </g>
    </g>
   </g>
   <g id="matplotlib.axis_4">
    <g id="ytick_10">
     <g id="line2d_28">
      <g>
       <use style="stroke:#000000;stroke-width:0.8;" x="591.545455" xlink:href="#mb575c49263" y="189"/>
      </g>
     </g>
     <g id="text_28">
      <!-- 0 -->
      <g transform="translate(578.182955 192.799219)scale(0.1 -0.1)">
       <use xlink:href="#DejaVuSans-48"/>
      </g>
     </g>
    </g>
    <g id="ytick_11">
     <g id="line2d_29">
      <g>
       <use style="stroke:#000000;stroke-width:0.8;" x="591.545455" xlink:href="#mb575c49263" y="168.615"/>
      </g>
     </g>
     <g id="text_29">
      <!-- 1 -->
      <g transform="translate(578.182955 172.414219)scale(0.1 -0.1)">
       <use xlink:href="#DejaVuSans-49"/>
      </g>
     </g>
    </g>
    <g id="ytick_12">
     <g id="line2d_30">
      <g>
       <use style="stroke:#000000;stroke-width:0.8;" x="591.545455" xlink:href="#mb575c49263" y="148.23"/>
      </g>
     </g>
     <g id="text_30">
      <!-- 2 -->
      <g transform="translate(578.182955 152.029219)scale(0.1 -0.1)">
       <use xlink:href="#DejaVuSans-50"/>
      </g>
     </g>
    </g>
    <g id="ytick_13">
     <g id="line2d_31">
      <g>
       <use style="stroke:#000000;stroke-width:0.8;" x="591.545455" xlink:href="#mb575c49263" y="127.845"/>
      </g>
     </g>
     <g id="text_31">
      <!-- 3 -->
      <g transform="translate(578.182955 131.644219)scale(0.1 -0.1)">
       <use xlink:href="#DejaVuSans-51"/>
      </g>
     </g>
    </g>
    <g id="ytick_14">
     <g id="line2d_32">
      <g>
       <use style="stroke:#000000;stroke-width:0.8;" x="591.545455" xlink:href="#mb575c49263" y="107.46"/>
      </g>
     </g>
     <g id="text_32">
      <!-- 4 -->
      <g transform="translate(578.182955 111.259219)scale(0.1 -0.1)">
       <use xlink:href="#DejaVuSans-52"/>
      </g>
     </g>
    </g>
    <g id="ytick_15">
     <g id="line2d_33">
      <g>
       <use style="stroke:#000000;stroke-width:0.8;" x="591.545455" xlink:href="#mb575c49263" y="87.075"/>
      </g>
     </g>
     <g id="text_33">
      <!-- 5 -->
      <g transform="translate(578.182955 90.874219)scale(0.1 -0.1)">
       <use xlink:href="#DejaVuSans-53"/>
      </g>
     </g>
    </g>
    <g id="ytick_16">
     <g id="line2d_34">
      <g>
       <use style="stroke:#000000;stroke-width:0.8;" x="591.545455" xlink:href="#mb575c49263" y="66.69"/>
      </g>
     </g>
     <g id="text_34">
      <!-- 6 -->
      <g transform="translate(578.182955 70.489219)scale(0.1 -0.1)">
       <use xlink:href="#DejaVuSans-54"/>
      </g>
     </g>
    </g>
    <g id="ytick_17">
     <g id="line2d_35">
      <g>
       <use style="stroke:#000000;stroke-width:0.8;" x="591.545455" xlink:href="#mb575c49263" y="46.305"/>
      </g>
     </g>
     <g id="text_35">
      <!-- 7 -->
      <g transform="translate(578.182955 50.104219)scale(0.1 -0.1)">
       <use xlink:href="#DejaVuSans-55"/>
      </g>
     </g>
    </g>
    <g id="ytick_18">
     <g id="line2d_36">
      <g>
       <use style="stroke:#000000;stroke-width:0.8;" x="591.545455" xlink:href="#mb575c49263" y="25.92"/>
      </g>
     </g>
     <g id="text_36">
      <!-- 8 -->
      <g transform="translate(578.182955 29.719219)scale(0.1 -0.1)">
       <use xlink:href="#DejaVuSans-56"/>
      </g>
     </g>
    </g>
    <g id="text_37">
     <!-- t[s]      -->
     <g transform="translate(557.771236 105.380312)scale(0.1 -0.1)">
      <use xlink:href="#DejaVuSans-116"/>
      <use x="39.208984" xlink:href="#DejaVuSans-91"/>
      <use x="78.222656" xlink:href="#DejaVuSans-115"/>
      <use x="130.322266" xlink:href="#DejaVuSans-93"/>
      <use x="169.335938" xlink:href="#DejaVuSans-32"/>
      <use x="201.123047" xlink:href="#DejaVuSans-32"/>
      <use x="232.910156" xlink:href="#DejaVuSans-32"/>
      <use x="264.697266" xlink:href="#DejaVuSans-32"/>
      <use x="296.484375" xlink:href="#DejaVuSans-32"/>
     </g>
    </g>
   </g>
   <g id="line2d_37">
    <g clip-path="url(#p883bca5a4d)">
     <use style="fill:#1f77b4;stroke:#1f77b4;" x="608.838843" xlink:href="#m57251c18ae" y="188.999531"/>
     <use style="fill:#1f77b4;stroke:#1f77b4;" x="612.332457" xlink:href="#m57251c18ae" y="188.997187"/>
     <use style="fill:#1f77b4;stroke:#1f77b4;" x="615.826071" xlink:href="#m57251c18ae" y="188.994618"/>
     <use style="fill:#1f77b4;stroke:#1f77b4;" x="619.319684" xlink:href="#m57251c18ae" y="188.988442"/>
     <use style="fill:#1f77b4;stroke:#1f77b4;" x="622.813298" xlink:href="#m57251c18ae" y="188.982489"/>
     <use style="fill:#1f77b4;stroke:#1f77b4;" x="626.306912" xlink:href="#m57251c18ae" y="188.974437"/>
     <use style="fill:#1f77b4;stroke:#1f77b4;" x="629.800526" xlink:href="#m57251c18ae" y="188.959067"/>
     <use style="fill:#1f77b4;stroke:#1f77b4;" x="633.29414" xlink:href="#m57251c18ae" y="188.940517"/>
     <use style="fill:#1f77b4;stroke:#1f77b4;" x="636.787754" xlink:href="#m57251c18ae" y="188.904721"/>
     <use style="fill:#1f77b4;stroke:#1f77b4;" x="640.281367" xlink:href="#m57251c18ae" y="188.885436"/>
     <use style="fill:#1f77b4;stroke:#1f77b4;" x="643.774981" xlink:href="#m57251c18ae" y="188.848111"/>
     <use style="fill:#1f77b4;stroke:#1f77b4;" x="647.268595" xlink:href="#m57251c18ae" y="188.792236"/>
     <use style="fill:#1f77b4;stroke:#1f77b4;" x="650.762209" xlink:href="#m57251c18ae" y="188.757011"/>
     <use style="fill:#1f77b4;stroke:#1f77b4;" x="654.255823" xlink:href="#m57251c18ae" y="188.675797"/>
     <use style="fill:#1f77b4;stroke:#1f77b4;" x="657.749437" xlink:href="#m57251c18ae" y="188.622918"/>
     <use style="fill:#1f77b4;stroke:#1f77b4;" x="661.24305" xlink:href="#m57251c18ae" y="188.534855"/>
     <use style="fill:#1f77b4;stroke:#1f77b4;" x="664.736664" xlink:href="#m57251c18ae" y="188.444366"/>
     <use style="fill:#1f77b4;stroke:#1f77b4;" x="668.230278" xlink:href="#m57251c18ae" y="188.348618"/>
     <use style="fill:#1f77b4;stroke:#1f77b4;" x="671.723892" xlink:href="#m57251c18ae" y="188.232138"/>
     <use style="fill:#1f77b4;stroke:#1f77b4;" x="675.217506" xlink:href="#m57251c18ae" y="188.109726"/>
     <use style="fill:#1f77b4;stroke:#1f77b4;" x="678.711119" xlink:href="#m57251c18ae" y="187.966134"/>
     <use style="fill:#1f77b4;stroke:#1f77b4;" x="682.204733" xlink:href="#m57251c18ae" y="187.827842"/>
     <use style="fill:#1f77b4;stroke:#1f77b4;" x="685.698347" xlink:href="#m57251c18ae" y="187.653571"/>
     <use style="fill:#1f77b4;stroke:#1f77b4;" x="689.191961" xlink:href="#m57251c18ae" y="187.471818"/>
     <use style="fill:#1f77b4;stroke:#1f77b4;" x="692.685575" xlink:href="#m57251c18ae" y="187.235332"/>
     <use style="fill:#1f77b4;stroke:#1f77b4;" x="696.179189" xlink:href="#m57251c18ae" y="186.997541"/>
     <use style="fill:#1f77b4;stroke:#1f77b4;" x="699.672802" xlink:href="#m57251c18ae" y="186.746968"/>
     <use style="fill:#1f77b4;stroke:#1f77b4;" x="703.166416" xlink:href="#m57251c18ae" y="186.508606"/>
     <use style="fill:#1f77b4;stroke:#1f77b4;" x="706.66003" xlink:href="#m57251c18ae" y="186.213167"/>
     <use style="fill:#1f77b4;stroke:#1f77b4;" x="710.153644" xlink:href="#m57251c18ae" y="185.883541"/>
     <use style="fill:#1f77b4;stroke:#1f77b4;" x="713.647258" xlink:href="#m57251c18ae" y="185.55732"/>
     <use style="fill:#1f77b4;stroke:#1f77b4;" x="717.140872" xlink:href="#m57251c18ae" y="185.185763"/>
     <use style="fill:#1f77b4;stroke:#1f77b4;" x="720.634485" xlink:href="#m57251c18ae" y="184.814287"/>
     <use style="fill:#1f77b4;stroke:#1f77b4;" x="724.128099" xlink:href="#m57251c18ae" y="184.386875"/>
     <use style="fill:#1f77b4;stroke:#1f77b4;" x="727.621713" xlink:href="#m57251c18ae" y="184.020006"/>
     <use style="fill:#1f77b4;stroke:#1f77b4;" x="731.115327" xlink:href="#m57251c18ae" y="183.654421"/>
     <use style="fill:#1f77b4;stroke:#1f77b4;" x="734.608941" xlink:href="#m57251c18ae" y="183.098114"/>
     <use style="fill:#1f77b4;stroke:#1f77b4;" x="738.102554" xlink:href="#m57251c18ae" y="182.491905"/>
     <use style="fill:#1f77b4;stroke:#1f77b4;" x="741.596168" xlink:href="#m57251c18ae" y="181.946443"/>
     <use style="fill:#1f77b4;stroke:#1f77b4;" x="745.089782" xlink:href="#m57251c18ae" y="181.639119"/>
     <use style="fill:#1f77b4;stroke:#1f77b4;" x="748.583396" xlink:href="#m57251c18ae" y="180.683063"/>
     <use style="fill:#1f77b4;stroke:#1f77b4;" x="752.07701" xlink:href="#m57251c18ae" y="180.128183"/>
     <use style="fill:#1f77b4;stroke:#1f77b4;" x="755.570624" xlink:href="#m57251c18ae" y="179.489011"/>
     <use style="fill:#1f77b4;stroke:#1f77b4;" x="759.064237" xlink:href="#m57251c18ae" y="179.072974"/>
     <use style="fill:#1f77b4;stroke:#1f77b4;" x="762.557851" xlink:href="#m57251c18ae" y="178.120852"/>
     <use style="fill:#1f77b4;stroke:#1f77b4;" x="766.051465" xlink:href="#m57251c18ae" y="177.256895"/>
     <use style="fill:#1f77b4;stroke:#1f77b4;" x="769.545079" xlink:href="#m57251c18ae" y="176.572264"/>
     <use style="fill:#1f77b4;stroke:#1f77b4;" x="773.038693" xlink:href="#m57251c18ae" y="175.827967"/>
     <use style="fill:#1f77b4;stroke:#1f77b4;" x="776.532307" xlink:href="#m57251c18ae" y="174.891725"/>
     <use style="fill:#1f77b4;stroke:#1f77b4;" x="780.02592" xlink:href="#m57251c18ae" y="173.905376"/>
     <use style="fill:#1f77b4;stroke:#1f77b4;" x="783.519534" xlink:href="#m57251c18ae" y="173.05997"/>
     <use style="fill:#1f77b4;stroke:#1f77b4;" x="787.013148" xlink:href="#m57251c18ae" y="172.688005"/>
     <use style="fill:#1f77b4;stroke:#1f77b4;" x="790.506762" xlink:href="#m57251c18ae" y="171.444438"/>
     <use style="fill:#1f77b4;stroke:#1f77b4;" x="794.000376" xlink:href="#m57251c18ae" y="170.188987"/>
     <use style="fill:#1f77b4;stroke:#1f77b4;" x="797.493989" xlink:href="#m57251c18ae" y="169.052177"/>
     <use style="fill:#1f77b4;stroke:#1f77b4;" x="800.987603" xlink:href="#m57251c18ae" y="168.280319"/>
     <use style="fill:#1f77b4;stroke:#1f77b4;" x="804.481217" xlink:href="#m57251c18ae" y="166.387572"/>
     <use style="fill:#1f77b4;stroke:#1f77b4;" x="807.974831" xlink:href="#m57251c18ae" y="165.249192"/>
     <use style="fill:#1f77b4;stroke:#1f77b4;" x="811.468445" xlink:href="#m57251c18ae" y="164.063029"/>
     <use style="fill:#1f77b4;stroke:#1f77b4;" x="814.962059" xlink:href="#m57251c18ae" y="163.361704"/>
     <use style="fill:#1f77b4;stroke:#1f77b4;" x="818.455672" xlink:href="#m57251c18ae" y="161.404377"/>
     <use style="fill:#1f77b4;stroke:#1f77b4;" x="821.949286" xlink:href="#m57251c18ae" y="159.661826"/>
     <use style="fill:#1f77b4;stroke:#1f77b4;" x="825.4429" xlink:href="#m57251c18ae" y="158.829201"/>
     <use style="fill:#1f77b4;stroke:#1f77b4;" x="828.936514" xlink:href="#m57251c18ae" y="150.212665"/>
     <use style="fill:#1f77b4;stroke:#1f77b4;" x="832.430128" xlink:href="#m57251c18ae" y="155.286431"/>
     <use style="fill:#1f77b4;stroke:#1f77b4;" x="835.923742" xlink:href="#m57251c18ae" y="153.062713"/>
     <use style="fill:#1f77b4;stroke:#1f77b4;" x="839.417355" xlink:href="#m57251c18ae" y="151.669908"/>
     <use style="fill:#1f77b4;stroke:#1f77b4;" x="842.910969" xlink:href="#m57251c18ae" y="151.220072"/>
     <use style="fill:#1f77b4;stroke:#1f77b4;" x="846.404583" xlink:href="#m57251c18ae" y="148.162893"/>
     <use style="fill:#1f77b4;stroke:#1f77b4;" x="849.898197" xlink:href="#m57251c18ae" y="145.832744"/>
     <use style="fill:#1f77b4;stroke:#1f77b4;" x="853.391811" xlink:href="#m57251c18ae" y="142.780172"/>
     <use style="fill:#1f77b4;stroke:#1f77b4;" x="856.885424" xlink:href="#m57251c18ae" y="144.499137"/>
     <use style="fill:#1f77b4;stroke:#1f77b4;" x="860.379038" xlink:href="#m57251c18ae" y="139.398708"/>
     <use style="fill:#1f77b4;stroke:#1f77b4;" x="863.872652" xlink:href="#m57251c18ae" y="137.667675"/>
     <use style="fill:#1f77b4;stroke:#1f77b4;" x="867.366266" xlink:href="#m57251c18ae" y="135.211691"/>
     <use style="fill:#1f77b4;stroke:#1f77b4;" x="870.85988" xlink:href="#m57251c18ae" y="134.55297"/>
     <use style="fill:#1f77b4;stroke:#1f77b4;" x="874.353494" xlink:href="#m57251c18ae" y="129.705763"/>
     <use style="fill:#1f77b4;stroke:#1f77b4;" x="877.847107" xlink:href="#m57251c18ae" y="128.138462"/>
     <use style="fill:#1f77b4;stroke:#1f77b4;" x="881.340721" xlink:href="#m57251c18ae" y="124.282232"/>
     <use style="fill:#1f77b4;stroke:#1f77b4;" x="884.834335" xlink:href="#m57251c18ae" y="126.564109"/>
     <use style="fill:#1f77b4;stroke:#1f77b4;" x="888.327949" xlink:href="#m57251c18ae" y="117.356734"/>
     <use style="fill:#1f77b4;stroke:#1f77b4;" x="891.821563" xlink:href="#m57251c18ae" y="115.641296"/>
     <use style="fill:#1f77b4;stroke:#1f77b4;" x="895.315177" xlink:href="#m57251c18ae" y="110.498384"/>
     <use style="fill:#1f77b4;stroke:#1f77b4;" x="898.80879" xlink:href="#m57251c18ae" y="114.082088"/>
     <use style="fill:#1f77b4;stroke:#1f77b4;" x="902.302404" xlink:href="#m57251c18ae" y="103.488085"/>
     <use style="fill:#1f77b4;stroke:#1f77b4;" x="905.796018" xlink:href="#m57251c18ae" y="101.511392"/>
     <use style="fill:#1f77b4;stroke:#1f77b4;" x="909.289632" xlink:href="#m57251c18ae" y="97.06628"/>
     <use style="fill:#1f77b4;stroke:#1f77b4;" x="912.783246" xlink:href="#m57251c18ae" y="102.555247"/>
     <use style="fill:#1f77b4;stroke:#1f77b4;" x="916.27686" xlink:href="#m57251c18ae" y="86.330988"/>
     <use style="fill:#1f77b4;stroke:#1f77b4;" x="919.770473" xlink:href="#m57251c18ae" y="83.822186"/>
     <use style="fill:#1f77b4;stroke:#1f77b4;" x="923.264087" xlink:href="#m57251c18ae" y="79.772665"/>
     <use style="fill:#1f77b4;stroke:#1f77b4;" x="926.757701" xlink:href="#m57251c18ae" y="74.332051"/>
     <use style="fill:#1f77b4;stroke:#1f77b4;" x="930.251315" xlink:href="#m57251c18ae" y="65.323532"/>
     <use style="fill:#1f77b4;stroke:#1f77b4;" x="933.744929" xlink:href="#m57251c18ae" y="59.373375"/>
     <use style="fill:#1f77b4;stroke:#1f77b4;" x="937.238542" xlink:href="#m57251c18ae" y="53.824782"/>
     <use style="fill:#1f77b4;stroke:#1f77b4;" x="940.732156" xlink:href="#m57251c18ae" y="41.269151"/>
     <use style="fill:#1f77b4;stroke:#1f77b4;" x="944.22577" xlink:href="#m57251c18ae" y="43.197511"/>
     <use style="fill:#1f77b4;stroke:#1f77b4;" x="947.719384" xlink:href="#m57251c18ae" y="36.817515"/>
     <use style="fill:#1f77b4;stroke:#1f77b4;" x="951.212998" xlink:href="#m57251c18ae" y="30.342444"/>
     <use style="fill:#1f77b4;stroke:#1f77b4;" x="954.706612" xlink:href="#m57251c18ae" y="40.79785"/>
    </g>
   </g>
   <g id="line2d_38">
    <path clip-path="url(#p883bca5a4d)" d="M 608.838843 192.312977 
L 617.223516 191.012853 
L 625.957551 189.881029 
L 635.390308 188.880326 
L 645.87115 187.994637 
L 657.749437 187.216878 
L 672.771976 186.466553 
L 716.79151 184.418842 
L 728.669797 183.560065 
L 739.150639 182.580351 
L 748.583396 181.476961 
L 757.317431 180.234797 
L 765.702104 178.814941 
L 773.388054 177.295305 
L 781.074005 175.546499 
L 788.410594 173.645079 
L 795.397821 171.607302 
L 802.385049 169.332924 
L 809.022915 166.939463 
L 815.660781 164.306096 
L 821.949286 161.578384 
L 828.237791 158.612898 
L 834.526296 155.398714 
L 840.814801 151.924907 
L 846.753944 148.395855 
L 852.693088 144.616278 
L 858.632231 140.576972 
L 864.571375 136.268734 
L 870.510518 131.682362 
L 876.449662 126.808651 
L 882.388805 121.638399 
L 888.327949 116.162403 
L 894.267092 110.371459 
L 900.206236 104.256364 
L 906.145379 97.807915 
L 912.084523 91.016909 
L 918.023666 83.874142 
L 923.96281 76.370412 
L 929.901953 68.496514 
L 935.841097 60.243247 
L 941.78024 51.601407 
L 947.719384 42.56179 
L 953.658527 33.115193 
L 954.35725 31.976645 
L 954.35725 31.976645 
" style="fill:none;stroke:#ff00ff;stroke-linecap:square;stroke-width:1.5;"/>
   </g>
   <g id="patch_9">
    <path d="M 591.545455 189 
L 591.545455 25.92 
" style="fill:none;stroke:#000000;stroke-linecap:square;stroke-linejoin:miter;stroke-width:0.8;"/>
   </g>
   <g id="patch_10">
    <path d="M 972 189 
L 972 25.92 
" style="fill:none;stroke:#000000;stroke-linecap:square;stroke-linejoin:miter;stroke-width:0.8;"/>
   </g>
   <g id="patch_11">
    <path d="M 591.545455 189 
L 972 189 
" style="fill:none;stroke:#000000;stroke-linecap:square;stroke-linejoin:miter;stroke-width:0.8;"/>
   </g>
   <g id="patch_12">
    <path d="M 591.545455 25.92 
L 972 25.92 
" style="fill:none;stroke:#000000;stroke-linecap:square;stroke-linejoin:miter;stroke-width:0.8;"/>
   </g>
   <g id="text_38">
    <!-- Time Scaling (Loop2) -->
    <g transform="translate(697.621477 19.92)scale(0.16 -0.16)">
     <use xlink:href="#DejaVuSans-84"/>
     <use x="57.958984" xlink:href="#DejaVuSans-105"/>
     <use x="85.742188" xlink:href="#DejaVuSans-109"/>
     <use x="183.154297" xlink:href="#DejaVuSans-101"/>
     <use x="244.677734" xlink:href="#DejaVuSans-32"/>
     <use x="276.464844" xlink:href="#DejaVuSans-83"/>
     <use x="339.941406" xlink:href="#DejaVuSans-99"/>
     <use x="394.921875" xlink:href="#DejaVuSans-97"/>
     <use x="456.201172" xlink:href="#DejaVuSans-108"/>
     <use x="483.984375" xlink:href="#DejaVuSans-105"/>
     <use x="511.767578" xlink:href="#DejaVuSans-110"/>
     <use x="575.146484" xlink:href="#DejaVuSans-103"/>
     <use x="638.623047" xlink:href="#DejaVuSans-32"/>
     <use x="670.410156" xlink:href="#DejaVuSans-40"/>
     <use x="709.423828" xlink:href="#DejaVuSans-76"/>
     <use x="763.386719" xlink:href="#DejaVuSans-111"/>
     <use x="824.568359" xlink:href="#DejaVuSans-111"/>
     <use x="885.75" xlink:href="#DejaVuSans-112"/>
     <use x="949.226562" xlink:href="#DejaVuSans-50"/>
     <use x="1012.849609" xlink:href="#DejaVuSans-41"/>
    </g>
   </g>
   <g id="legend_2">
    <g id="patch_13">
     <path d="M 599.945455 70.7475 
L 707.66608 70.7475 
Q 710.06608 70.7475 710.06608 68.3475 
L 710.06608 34.32 
Q 710.06608 31.92 707.66608 31.92 
L 599.945455 31.92 
Q 597.545455 31.92 597.545455 34.32 
L 597.545455 68.3475 
Q 597.545455 70.7475 599.945455 70.7475 
z
" style="fill:#ffffff;opacity:0.8;stroke:#cccccc;stroke-linejoin:miter;"/>
    </g>
    <g id="line2d_39"/>
    <g id="line2d_40">
     <g>
      <use style="fill:#1f77b4;stroke:#1f77b4;" x="614.345455" xlink:href="#m57251c18ae" y="41.638125"/>
     </g>
    </g>
    <g id="text_39">
     <!-- Data points -->
     <g transform="translate(635.945455 45.838125)scale(0.12 -0.12)">
      <use xlink:href="#DejaVuSans-68"/>
      <use x="77.001953" xlink:href="#DejaVuSans-97"/>
      <use x="138.28125" xlink:href="#DejaVuSans-116"/>
      <use x="177.490234" xlink:href="#DejaVuSans-97"/>
      <use x="238.769531" xlink:href="#DejaVuSans-32"/>
      <use x="270.556641" xlink:href="#DejaVuSans-112"/>
      <use x="334.033203" xlink:href="#DejaVuSans-111"/>
      <use x="395.214844" xlink:href="#DejaVuSans-105"/>
      <use x="422.998047" xlink:href="#DejaVuSans-110"/>
      <use x="486.376953" xlink:href="#DejaVuSans-116"/>
      <use x="525.585938" xlink:href="#DejaVuSans-115"/>
     </g>
    </g>
    <g id="line2d_41">
     <path d="M 602.345455 59.251875 
L 626.345455 59.251875 
" style="fill:none;stroke:#ff00ff;stroke-linecap:square;stroke-width:1.5;"/>
    </g>
    <g id="line2d_42"/>
    <g id="text_40">
     <!-- Fit -->
     <g transform="translate(635.945455 63.451875)scale(0.12 -0.12)">
      <use xlink:href="#DejaVuSans-70"/>
      <use x="50.269531" xlink:href="#DejaVuSans-105"/>
      <use x="78.052734" xlink:href="#DejaVuSans-116"/>
     </g>
    </g>
   </g>
  </g>
 </g>
 <defs>
  <clipPath id="pc39345d130">
   <rect height="163.08" width="380.454545" x="135" y="25.92"/>
  </clipPath>
  <clipPath id="p883bca5a4d">
   <rect height="163.08" width="380.454545" x="591.545455" y="25.92"/>
  </clipPath>
 </defs>
</svg>
